<?xml version="1.0" encoding="utf-8"?>
<!-- Generator: Adobe Illustrator 27.9.2, SVG Export Plug-In . SVG Version: 6.00 Build 0)  -->
<svg version="1.1" id="레이어_1" xmlns="http://www.w3.org/2000/svg" xmlns:xlink="http://www.w3.org/1999/xlink" x="0px"
	 y="0px" viewBox="0 0 303 36" style="enable-background:new 0 0 303 36;" xml:space="preserve">
<style type="text/css">
	.st0{fill:#FFFFFF;}
	.st1{fill:#E5B9D7;}
</style>
<g>
	<rect x="0.81" y="0.45" class="st0" width="300.45" height="33.8"/>
	<path d="M15.92,13.67l1.42-0.57l4.84,13.71l-1.41,0.57L15.92,13.67z M15.62,18.46v1.49h-3.68l-2.66,7.37l-1.42-0.55L14.18,9.2
		l1.44,0.5l-3.15,8.76H15.62z"/>
	<path d="M36.71,17.54l-1.39-0.57l3.08-7.5h1.61L43.81,27l-1.49,0.3l-3.33-15.32L36.71,17.54z M33.73,22.36l-4.84-10.48l-2.93,15.39
		l-1.49-0.3l3.33-17.5h1.64l5.64,12.19L33.73,22.36z"/>
	<path d="M45.89,18.51c0-2.51,0.77-4.72,2.06-6.36L49,13.29c-0.99,1.27-1.57,3-1.57,4.97c0,4.35,2.88,7.62,6.73,7.62
		c3.85,0,6.73-3.28,6.73-7.62c0-4.34-2.88-7.6-6.73-7.6c-0.92,0-1.81,0.17-2.61,0.55l-0.75-1.32c1.09-0.52,2.28-0.72,3.35-0.72
		c4.72,0,8.27,3.8,8.27,8.84c0,5.34-3.55,9.36-8.27,9.36S45.89,23.57,45.89,18.51L45.89,18.51z"/>
	<path d="M70.18,22.33l1.14-0.97l4.35,4.79L74.6,27.2L70.18,22.33z M69.71,19.55H67.7v7.52h-1.54V9.47h1.54v8.61h2.04
		c2.41,0,3.95-1.41,3.95-3.58c0-2.16-1.54-3.55-3.95-3.55h-0.05V9.47h0.05c3.33,0,5.49,1.99,5.49,5.04S73.06,19.55,69.71,19.55
		L69.71,19.55z"/>
	<path d="M82.73,9.47h4.87v1.49h-4.87V9.47z M79.01,27.07V9.47h1.54v7.7h6.53v1.49h-6.53v6.93h7.17v1.49H79.01z"/>
	<path d="M104.1,10.66c-0.92,0-1.81,0.17-2.61,0.55l-0.74-1.32c1.09-0.52,2.28-0.72,3.35-0.72c3.23,0,6.11,1.86,7.18,4.74h-1.71
		C108.57,11.93,106.54,10.66,104.1,10.66L104.1,10.66z M95.83,18.51c0-2.51,0.77-4.72,2.06-6.36l1.04,1.14
		c-0.99,1.27-1.57,3-1.57,4.97c0,4.35,2.88,7.62,6.73,7.62c2.43,0,4.47-1.27,5.51-3.25h1.71c-1.17,2.78-3.9,4.74-7.23,4.74
		C99.38,27.37,95.83,23.57,95.83,18.51L95.83,18.51z"/>
	<rect x="114.71" y="9.47" width="1.54" height="17.6"/>
	<path d="M124.78,27.07h-1.54V13.86h1.54V27.07z M128.85,10.96h-9.66V9.47h9.66V10.96z"/>
	<path d="M137.55,27.07h-1.54v-6.83h1.54V27.07z M132.39,9.25l4.42,6.38l4.39-6.46l1.27,0.77l-5.64,8.32l-5.71-8.22L132.39,9.25z"/>
	<path d="M158.53,27.07h-3.92v-1.49h3.92V27.07z M152.27,27.07h-1.54V9.47h1.54V27.07z"/>
	<path d="M169.48,21.71c0-2.51-1.47-4.15-3.75-4.15c-2.21,0-3.85,1.79-3.85,4.15c0,2.41,1.64,4.2,3.85,4.2
		C168.01,25.91,169.48,24.27,169.48,21.71L169.48,21.71z M169.48,27.07v-1.61c-0.84,1.19-2.23,1.91-3.75,1.91
		c-3.05,0-5.36-2.43-5.36-5.66c0-3.2,2.31-5.61,5.36-5.61c1.52,0,2.93,0.7,3.75,1.89V16.4h1.49v10.68H169.48z"/>
	<path d="M183.74,21.69c0-2.36-1.64-4.12-3.85-4.12c-2.29,0-3.75,1.64-3.75,4.15c0,2.56,1.46,4.2,3.75,4.2
		C182.1,25.91,183.74,24.09,183.74,21.69L183.74,21.69z M185.25,21.69c0,3.25-2.31,5.69-5.36,5.69c-1.52,0-2.93-0.72-3.75-1.89v1.59
		h-1.49V8.95h1.49v9.06c0.85-1.19,2.23-1.91,3.75-1.91C182.94,16.1,185.25,18.48,185.25,21.69L185.25,21.69z"/>
	<rect x="198.45" y="0.32" class="st1" width="103.68" height="33.8"/>
	<path d="M1.94,34.15h299.88V1.22H1.94V34.15z M302.71,35.94H1.05c-0.49,0-0.89-0.4-0.89-0.89V0.32c0-0.49,0.4-0.9,0.89-0.9h301.67
		c0.49,0,0.89,0.4,0.89,0.9v34.72C303.61,35.54,303.21,35.94,302.71,35.94L302.71,35.94z"/>
</g>
</svg>
