<svg width="418" height="475" viewBox="0 0 418 475" fill="none" xmlns="http://www.w3.org/2000/svg">
    <path d="M105.709 466.48V460.621C105.006 460.797 104.244 460.953 103.424 461.09C102.604 461.207 101.715 461.305 100.758 461.383C99.8008 461.441 98.7559 461.49 97.623 461.529C96.5098 461.549 95.2891 461.559 93.9609 461.559H87.3691V447.35H100.758V449.078H89.3906V453.678H99.8496V455.348H89.3906V459.83H93.9902C96.5488 459.83 98.7656 459.762 100.641 459.625C102.535 459.469 104.225 459.195 105.709 458.805V446.031H107.73V454.264H112.564V455.992H107.73V466.48H105.709ZM92.1152 464.869V469.908H108.463V471.637H90.0938V464.869H92.1152ZM118.102 458.922H119.186C121.295 458.922 123.16 458.854 124.781 458.717C126.422 458.58 127.906 458.385 129.234 458.131L129.557 459.83C128.229 460.084 126.715 460.289 125.016 460.445C123.336 460.582 121.344 460.65 119.039 460.65H116.08V453.033H125.631V448.932H116.08V447.203H127.652V454.703H118.102V458.922ZM135.152 461.646V456.9H129.176V455.26H135.152V451.92H129.176V450.279H135.152V446.031H137.174V461.646H135.152ZM135.152 471.783V465.104H119.098V463.375H137.174V471.783H135.152Z" fill="#666666"/>
    <path d="M224.096 452.242C224.018 452.516 223.891 452.799 223.715 453.092C223.539 453.385 223.344 453.668 223.129 453.941C222.445 454.762 221.42 455.533 220.053 456.256C218.705 456.959 217.025 457.584 215.014 458.131L214.076 456.549C215.658 456.197 217.025 455.758 218.178 455.23C219.35 454.684 220.316 454.088 221.078 453.443C221.84 452.799 222.406 452.115 222.777 451.393C223.168 450.67 223.363 449.957 223.363 449.254V448.961H214.809V447.203H233.852V448.961H225.268V449.254C225.268 449.996 225.443 450.719 225.795 451.422C226.166 452.125 226.723 452.779 227.465 453.385C228.227 453.99 229.184 454.537 230.336 455.025C231.508 455.494 232.885 455.865 234.467 456.139L233.676 457.75C231.625 457.359 229.896 456.803 228.49 456.08C227.104 455.357 226.098 454.615 225.473 453.854C225.258 453.6 225.072 453.336 224.916 453.062C224.76 452.789 224.643 452.516 224.564 452.242H224.096ZM223.305 471.461V462.936H212.172V461.178H236.488V462.936H225.326V471.461H223.305ZM241.996 472.076V464.4H260.6V472.076H241.996ZM258.578 466.129H244.018V470.348H258.578V466.129ZM238.832 462.086V460.299H263.734V462.086H238.832ZM261.273 457.252C260.219 457.428 259.057 457.555 257.787 457.633C256.518 457.691 254.975 457.721 253.158 457.721H241.996V451.568H258.432V448.609H241.996V446.91H260.453V453.268H244.018V456.021H253.188C254.008 456.021 254.77 456.021 255.473 456.021C256.195 456.002 256.869 455.973 257.494 455.934C258.119 455.895 258.725 455.846 259.311 455.787C259.916 455.729 260.512 455.65 261.098 455.553L261.273 457.252Z" fill="#666666"/>
    <path d="M330.295 471.168V446.031H332.316V471.168H330.295ZM311.223 465.514V447.936H323.85V465.514H311.223ZM321.857 449.664H313.215V463.785H321.857V449.664ZM352.707 470.729V465.514C351.359 465.787 349.807 465.982 348.049 466.1C346.311 466.197 344.24 466.246 341.838 466.246H338.762V456.402H346.848V449.811H338.762V448.082H348.869V458.072H340.783V464.518H341.867C344.172 464.518 346.203 464.469 347.961 464.371C349.719 464.254 351.301 464.039 352.707 463.727V446.324H354.729V455.553H358.713V446.031H360.734V471.168H358.713V457.281H354.729V470.729H352.707ZM377.053 452.242C376.975 452.516 376.848 452.799 376.672 453.092C376.496 453.385 376.301 453.668 376.086 453.941C375.402 454.762 374.377 455.533 373.01 456.256C371.662 456.959 369.982 457.584 367.971 458.131L367.033 456.549C368.615 456.197 369.982 455.758 371.135 455.23C372.307 454.684 373.273 454.088 374.035 453.443C374.797 452.799 375.363 452.115 375.734 451.393C376.125 450.67 376.32 449.957 376.32 449.254V448.961H367.766V447.203H386.809V448.961H378.225V449.254C378.225 449.996 378.4 450.719 378.752 451.422C379.123 452.125 379.68 452.779 380.422 453.385C381.184 453.99 382.141 454.537 383.293 455.025C384.465 455.494 385.842 455.865 387.424 456.139L386.633 457.75C384.582 457.359 382.854 456.803 381.447 456.08C380.061 455.357 379.055 454.615 378.43 453.854C378.215 453.6 378.029 453.336 377.873 453.062C377.717 452.789 377.6 452.516 377.521 452.242H377.053ZM376.262 471.461V462.936H365.129V461.178H389.445V462.936H378.283V471.461H376.262ZM394.953 472.076V464.4H413.557V472.076H394.953ZM411.535 466.129H396.975V470.348H411.535V466.129ZM391.789 462.086V460.299H416.691V462.086H391.789ZM414.23 457.252C413.176 457.428 412.014 457.555 410.744 457.633C409.475 457.691 407.932 457.721 406.115 457.721H394.953V451.568H411.389V448.609H394.953V446.91H413.41V453.268H396.975V456.021H406.145C406.965 456.021 407.727 456.021 408.43 456.021C409.152 456.002 409.826 455.973 410.451 455.934C411.076 455.895 411.682 455.846 412.268 455.787C412.873 455.729 413.469 455.65 414.055 455.553L414.23 457.252Z" fill="#666666"/>
    <path d="M80 214C80 208.477 84.4772 204 90 204H135C140.523 204 145 208.477 145 214V412H80V214Z" fill="#F9D9DF"/>
    <path d="M105.75 187.898C106.391 187.898 106.945 187.781 107.414 187.547C107.898 187.312 108.297 187 108.609 186.609C108.922 186.203 109.156 185.734 109.312 185.203C109.469 184.672 109.547 184.109 109.547 183.516C109.547 182.922 109.469 182.375 109.312 181.875C109.156 181.375 108.922 180.945 108.609 180.586C108.312 180.227 107.93 179.953 107.461 179.766C107.008 179.562 106.469 179.461 105.844 179.461C105.438 179.461 105.047 179.523 104.672 179.648C104.312 179.758 103.984 179.922 103.688 180.141C103.391 180.359 103.133 180.633 102.914 180.961C102.711 181.273 102.562 181.625 102.469 182.016H100.875L101.25 172.359H110.391V173.812H102.75L102.469 179.742L102.516 179.789C102.984 179.242 103.523 178.82 104.133 178.523C104.742 178.211 105.422 178.055 106.172 178.055C106.953 178.055 107.656 178.203 108.281 178.5C108.906 178.797 109.438 179.203 109.875 179.719C110.312 180.219 110.648 180.805 110.883 181.477C111.117 182.133 111.234 182.836 111.234 183.586C111.234 184.383 111.109 185.133 110.859 185.836C110.609 186.523 110.258 187.133 109.805 187.664C109.352 188.18 108.789 188.586 108.117 188.883C107.461 189.18 106.727 189.328 105.914 189.328C104.914 189.328 104.039 189.219 103.289 189C102.539 188.797 101.883 188.586 101.32 188.367L101.391 186.797C101.656 186.938 101.961 187.078 102.305 187.219C102.664 187.344 103.031 187.461 103.406 187.57C103.797 187.664 104.195 187.742 104.602 187.805C105.008 187.867 105.391 187.898 105.75 187.898ZM116.039 176.461C116.039 177.508 116.375 178.297 117.047 178.828C117.734 179.344 118.609 179.602 119.672 179.602C120.734 179.602 121.609 179.344 122.297 178.828C122.984 178.297 123.328 177.508 123.328 176.461C123.328 175.898 123.219 175.422 123 175.031C122.781 174.641 122.5 174.32 122.156 174.07C121.812 173.805 121.422 173.617 120.984 173.508C120.547 173.383 120.109 173.32 119.672 173.32C119.234 173.32 118.797 173.383 118.359 173.508C117.922 173.617 117.531 173.805 117.188 174.07C116.844 174.32 116.562 174.641 116.344 175.031C116.141 175.422 116.039 175.898 116.039 176.461ZM115.641 184.523C115.641 185.117 115.75 185.633 115.969 186.07C116.203 186.492 116.508 186.844 116.883 187.125C117.258 187.391 117.688 187.586 118.172 187.711C118.656 187.836 119.156 187.898 119.672 187.898C120.188 187.898 120.688 187.836 121.172 187.711C121.656 187.586 122.086 187.391 122.461 187.125C122.836 186.844 123.133 186.492 123.352 186.07C123.586 185.633 123.703 185.117 123.703 184.523C123.703 183.945 123.586 183.438 123.352 183C123.133 182.562 122.836 182.203 122.461 181.922C122.086 181.625 121.656 181.406 121.172 181.266C120.688 181.125 120.188 181.055 119.672 181.055C119.156 181.055 118.656 181.125 118.172 181.266C117.688 181.406 117.258 181.625 116.883 181.922C116.508 182.203 116.203 182.562 115.969 183C115.75 183.438 115.641 183.945 115.641 184.523ZM121.688 180.352C122.812 180.648 123.711 181.141 124.383 181.828C125.055 182.516 125.391 183.414 125.391 184.523C125.391 185.367 125.219 186.094 124.875 186.703C124.547 187.312 124.109 187.812 123.562 188.203C123.031 188.578 122.422 188.859 121.734 189.047C121.062 189.234 120.375 189.328 119.672 189.328C118.984 189.328 118.297 189.234 117.609 189.047C116.938 188.859 116.328 188.578 115.781 188.203C115.25 187.812 114.812 187.312 114.469 186.703C114.141 186.094 113.977 185.367 113.977 184.523C113.977 183.445 114.312 182.555 114.984 181.852C115.672 181.148 116.578 180.648 117.703 180.352V180.305C117.25 180.195 116.82 180.031 116.414 179.812C116.023 179.578 115.68 179.297 115.383 178.969C115.102 178.641 114.875 178.266 114.703 177.844C114.547 177.422 114.469 176.961 114.469 176.461C114.469 175.695 114.617 175.039 114.914 174.492C115.227 173.93 115.625 173.469 116.109 173.109C116.609 172.734 117.164 172.461 117.773 172.289C118.398 172.117 119.031 172.031 119.672 172.031C120.312 172.031 120.945 172.117 121.57 172.289C122.195 172.461 122.75 172.734 123.234 173.109C123.734 173.469 124.133 173.93 124.43 174.492C124.742 175.039 124.898 175.695 124.898 176.461C124.898 177.492 124.594 178.336 123.984 178.992C123.375 179.648 122.609 180.086 121.688 180.305V180.352Z" fill="#666666"/>
    <path d="M355.75 196.898C356.391 196.898 356.945 196.781 357.414 196.547C357.898 196.312 358.297 196 358.609 195.609C358.922 195.203 359.156 194.734 359.312 194.203C359.469 193.672 359.547 193.109 359.547 192.516C359.547 191.922 359.469 191.375 359.312 190.875C359.156 190.375 358.922 189.945 358.609 189.586C358.312 189.227 357.93 188.953 357.461 188.766C357.008 188.562 356.469 188.461 355.844 188.461C355.438 188.461 355.047 188.523 354.672 188.648C354.312 188.758 353.984 188.922 353.688 189.141C353.391 189.359 353.133 189.633 352.914 189.961C352.711 190.273 352.562 190.625 352.469 191.016H350.875L351.25 181.359H360.391V182.812H352.75L352.469 188.742L352.516 188.789C352.984 188.242 353.523 187.82 354.133 187.523C354.742 187.211 355.422 187.055 356.172 187.055C356.953 187.055 357.656 187.203 358.281 187.5C358.906 187.797 359.438 188.203 359.875 188.719C360.312 189.219 360.648 189.805 360.883 190.477C361.117 191.133 361.234 191.836 361.234 192.586C361.234 193.383 361.109 194.133 360.859 194.836C360.609 195.523 360.258 196.133 359.805 196.664C359.352 197.18 358.789 197.586 358.117 197.883C357.461 198.18 356.727 198.328 355.914 198.328C354.914 198.328 354.039 198.219 353.289 198C352.539 197.797 351.883 197.586 351.32 197.367L351.391 195.797C351.656 195.938 351.961 196.078 352.305 196.219C352.664 196.344 353.031 196.461 353.406 196.57C353.797 196.664 354.195 196.742 354.602 196.805C355.008 196.867 355.391 196.898 355.75 196.898ZM369.156 196.898C369.797 196.898 370.352 196.781 370.82 196.547C371.305 196.312 371.703 196 372.016 195.609C372.328 195.203 372.562 194.734 372.719 194.203C372.875 193.672 372.953 193.109 372.953 192.516C372.953 191.922 372.875 191.375 372.719 190.875C372.562 190.375 372.328 189.945 372.016 189.586C371.719 189.227 371.336 188.953 370.867 188.766C370.414 188.562 369.875 188.461 369.25 188.461C368.844 188.461 368.453 188.523 368.078 188.648C367.719 188.758 367.391 188.922 367.094 189.141C366.797 189.359 366.539 189.633 366.32 189.961C366.117 190.273 365.969 190.625 365.875 191.016H364.281L364.656 181.359H373.797V182.812H366.156L365.875 188.742L365.922 188.789C366.391 188.242 366.93 187.82 367.539 187.523C368.148 187.211 368.828 187.055 369.578 187.055C370.359 187.055 371.062 187.203 371.688 187.5C372.312 187.797 372.844 188.203 373.281 188.719C373.719 189.219 374.055 189.805 374.289 190.477C374.523 191.133 374.641 191.836 374.641 192.586C374.641 193.383 374.516 194.133 374.266 194.836C374.016 195.523 373.664 196.133 373.211 196.664C372.758 197.18 372.195 197.586 371.523 197.883C370.867 198.18 370.133 198.328 369.32 198.328C368.32 198.328 367.445 198.219 366.695 198C365.945 197.797 365.289 197.586 364.727 197.367L364.797 195.797C365.062 195.938 365.367 196.078 365.711 196.219C366.07 196.344 366.438 196.461 366.812 196.57C367.203 196.664 367.602 196.742 368.008 196.805C368.414 196.867 368.797 196.898 369.156 196.898Z" fill="#666666"/>
    <path d="M236.414 80.3594V81.7656L229.945 97H228.117L234.773 81.8125H225.82V80.3594H236.414ZM244.336 95.8984C244.977 95.8984 245.531 95.7812 246 95.5469C246.484 95.3125 246.883 95 247.195 94.6094C247.508 94.2031 247.742 93.7344 247.898 93.2031C248.055 92.6719 248.133 92.1094 248.133 91.5156C248.133 90.9219 248.055 90.375 247.898 89.875C247.742 89.375 247.508 88.9453 247.195 88.5859C246.898 88.2266 246.516 87.9531 246.047 87.7656C245.594 87.5625 245.055 87.4609 244.43 87.4609C244.023 87.4609 243.633 87.5234 243.258 87.6484C242.898 87.7578 242.57 87.9219 242.273 88.1406C241.977 88.3594 241.719 88.6328 241.5 88.9609C241.297 89.2734 241.148 89.625 241.055 90.0156H239.461L239.836 80.3594H248.977V81.8125H241.336L241.055 87.7422L241.102 87.7891C241.57 87.2422 242.109 86.8203 242.719 86.5234C243.328 86.2109 244.008 86.0547 244.758 86.0547C245.539 86.0547 246.242 86.2031 246.867 86.5C247.492 86.7969 248.023 87.2031 248.461 87.7188C248.898 88.2188 249.234 88.8047 249.469 89.4766C249.703 90.1328 249.82 90.8359 249.82 91.5859C249.82 92.3828 249.695 93.1328 249.445 93.8359C249.195 94.5234 248.844 95.1328 248.391 95.6641C247.938 96.1797 247.375 96.5859 246.703 96.8828C246.047 97.1797 245.312 97.3281 244.5 97.3281C243.5 97.3281 242.625 97.2188 241.875 97C241.125 96.7969 240.469 96.5859 239.906 96.3672L239.977 94.7969C240.242 94.9375 240.547 95.0781 240.891 95.2188C241.25 95.3438 241.617 95.4609 241.992 95.5703C242.383 95.6641 242.781 95.7422 243.188 95.8047C243.594 95.8672 243.977 95.8984 244.336 95.8984Z" fill="#666666"/>
    <path d="M205 122C205 116.477 209.477 112 215 112H260C265.523 112 270 116.477 270 122V412H205V122Z" fill="#E66787"/>
    <path d="M2.05078 7.18359L6.79688 3.22852H8.49609V24H6.5918V5.57227L3.19336 8.53125L2.05078 7.18359ZM21.416 4.54688C20.6738 4.54688 20.0391 4.69336 19.5117 4.98633C19.0039 5.2793 18.5645 5.67969 18.1934 6.1875C17.8418 6.67578 17.5586 7.23242 17.3438 7.85742C17.1484 8.48242 16.9922 9.12695 16.875 9.79102C16.7578 10.4355 16.6797 11.0801 16.6406 11.7246C16.6211 12.3691 16.6113 12.9453 16.6113 13.4531C16.6113 14.2344 16.6504 15.1328 16.7285 16.1484C16.8262 17.1641 17.0312 18.1309 17.3438 19.0488C17.6758 19.9668 18.1543 20.748 18.7793 21.3926C19.4238 22.0176 20.3027 22.3301 21.416 22.3301C22.5098 22.3301 23.3789 22.0176 24.0234 21.3926C24.668 20.748 25.1465 19.9668 25.459 19.0488C25.791 18.1309 25.9961 17.1641 26.0742 16.1484C26.1719 15.1328 26.2207 14.2344 26.2207 13.4531C26.2207 12.9453 26.2012 12.3691 26.1621 11.7246C26.1426 11.0801 26.0742 10.4355 25.957 9.79102C25.8398 9.12695 25.6738 8.48242 25.459 7.85742C25.2441 7.23242 24.9609 6.67578 24.6094 6.1875C24.2578 5.67969 23.8184 5.2793 23.291 4.98633C22.7637 4.69336 22.1387 4.54688 21.416 4.54688ZM21.416 2.78906C22.8223 2.78906 23.9746 3.10156 24.873 3.72656C25.7715 4.33203 26.4746 5.13281 26.9824 6.12891C27.4902 7.125 27.832 8.26758 28.0078 9.55664C28.2031 10.8262 28.3008 12.125 28.3008 13.4531C28.3008 14.7812 28.2031 16.0801 28.0078 17.3496C27.832 18.6191 27.4902 19.7617 26.9824 20.7773C26.4746 21.793 25.7715 22.6133 24.873 23.2383C23.9746 23.8438 22.8223 24.1465 21.416 24.1465C19.9902 24.1465 18.8281 23.8438 17.9297 23.2383C17.0312 22.6133 16.3281 21.793 15.8203 20.7773C15.3125 19.7617 14.9609 18.6191 14.7656 17.3496C14.5898 16.0801 14.502 14.7812 14.502 13.4531C14.502 12.125 14.5898 10.8262 14.7656 9.55664C14.9609 8.26758 15.3125 7.125 15.8203 6.12891C16.3281 5.13281 17.0312 4.33203 17.9297 3.72656C18.8281 3.10156 19.9902 2.78906 21.416 2.78906ZM38.7305 4.54688C37.9883 4.54688 37.3535 4.69336 36.8262 4.98633C36.3184 5.2793 35.8789 5.67969 35.5078 6.1875C35.1562 6.67578 34.873 7.23242 34.6582 7.85742C34.4629 8.48242 34.3066 9.12695 34.1895 9.79102C34.0723 10.4355 33.9941 11.0801 33.9551 11.7246C33.9355 12.3691 33.9258 12.9453 33.9258 13.4531C33.9258 14.2344 33.9648 15.1328 34.043 16.1484C34.1406 17.1641 34.3457 18.1309 34.6582 19.0488C34.9902 19.9668 35.4688 20.748 36.0938 21.3926C36.7383 22.0176 37.6172 22.3301 38.7305 22.3301C39.8242 22.3301 40.6934 22.0176 41.3379 21.3926C41.9824 20.748 42.4609 19.9668 42.7734 19.0488C43.1055 18.1309 43.3105 17.1641 43.3887 16.1484C43.4863 15.1328 43.5352 14.2344 43.5352 13.4531C43.5352 12.9453 43.5156 12.3691 43.4766 11.7246C43.457 11.0801 43.3887 10.4355 43.2715 9.79102C43.1543 9.12695 42.9883 8.48242 42.7734 7.85742C42.5586 7.23242 42.2754 6.67578 41.9238 6.1875C41.5723 5.67969 41.1328 5.2793 40.6055 4.98633C40.0781 4.69336 39.4531 4.54688 38.7305 4.54688ZM38.7305 2.78906C40.1367 2.78906 41.2891 3.10156 42.1875 3.72656C43.0859 4.33203 43.7891 5.13281 44.2969 6.12891C44.8047 7.125 45.1465 8.26758 45.3223 9.55664C45.5176 10.8262 45.6152 12.125 45.6152 13.4531C45.6152 14.7812 45.5176 16.0801 45.3223 17.3496C45.1465 18.6191 44.8047 19.7617 44.2969 20.7773C43.7891 21.793 43.0859 22.6133 42.1875 23.2383C41.2891 23.8438 40.1367 24.1465 38.7305 24.1465C37.3047 24.1465 36.1426 23.8438 35.2441 23.2383C34.3457 22.6133 33.6426 21.793 33.1348 20.7773C32.627 19.7617 32.2754 18.6191 32.0801 17.3496C31.9043 16.0801 31.8164 14.7812 31.8164 13.4531C31.8164 12.125 31.9043 10.8262 32.0801 9.55664C32.2754 8.26758 32.627 7.125 33.1348 6.12891C33.6426 5.13281 34.3457 4.33203 35.2441 3.72656C36.1426 3.10156 37.3047 2.78906 38.7305 2.78906ZM52.8809 26.7832V18.082H70.8105V26.7832H52.8809ZM63.5156 15.2695C61.9141 14.5469 60.7031 13.8438 59.8828 13.1602C59.0625 12.457 58.457 11.8418 58.0664 11.3145C57.7344 10.8652 57.5098 10.4844 57.3926 10.1719C57.2754 9.83984 57.1973 9.53711 57.1582 9.26367H56.6602C56.6211 9.53711 56.543 9.85938 56.4258 10.2305C56.3086 10.6016 56.1328 10.9824 55.8984 11.373C55.6641 11.7832 55.3809 12.1934 55.0488 12.6035C54.7363 13.0137 54.3457 13.4336 53.877 13.8633C53.4277 14.2734 52.8809 14.7031 52.2363 15.1523C51.5918 15.6016 50.8203 16.0605 49.9219 16.5293L48.5449 15.0938C50.2246 14.2539 51.5527 13.3652 52.5293 12.4277C53.5059 11.4707 54.2383 10.5137 54.7266 9.55664C55.2344 8.59961 55.5469 7.68164 55.6641 6.80273C55.8008 5.9043 55.8691 5.09375 55.8691 4.37109V4.22461H49.4531V2.49609H64.1016V4.22461H57.8906V4.37109C57.8906 5.07422 57.9492 5.83594 58.0664 6.65625C58.2031 7.47656 58.5059 8.30664 58.9746 9.14648C59.4629 9.9668 60.166 10.7773 61.084 11.5781C62.0215 12.3594 63.291 13.0625 64.8926 13.6875L63.5156 15.2695ZM68.7891 19.8105H54.9023V25.0547H68.7891V19.8105ZM68.7891 16.207V9.14648H62.5195V7.47656H68.7891V1.03125H70.8105V16.207H68.7891Z" fill="#666666"/>
    <line x1="60" y1="412.5" x2="415" y2="412.5" stroke="#666666"/>
    <path d="M37.6719 401.547C36.9297 401.547 36.2949 401.693 35.7676 401.986C35.2598 402.279 34.8203 402.68 34.4492 403.188C34.0977 403.676 33.8145 404.232 33.5996 404.857C33.4043 405.482 33.248 406.127 33.1309 406.791C33.0137 407.436 32.9355 408.08 32.8965 408.725C32.877 409.369 32.8672 409.945 32.8672 410.453C32.8672 411.234 32.9062 412.133 32.9844 413.148C33.082 414.164 33.2871 415.131 33.5996 416.049C33.9316 416.967 34.4102 417.748 35.0352 418.393C35.6797 419.018 36.5586 419.33 37.6719 419.33C38.7656 419.33 39.6348 419.018 40.2793 418.393C40.9238 417.748 41.4023 416.967 41.7148 416.049C42.0469 415.131 42.252 414.164 42.3301 413.148C42.4277 412.133 42.4766 411.234 42.4766 410.453C42.4766 409.945 42.457 409.369 42.418 408.725C42.3984 408.08 42.3301 407.436 42.2129 406.791C42.0957 406.127 41.9297 405.482 41.7148 404.857C41.5 404.232 41.2168 403.676 40.8652 403.188C40.5137 402.68 40.0742 402.279 39.5469 401.986C39.0195 401.693 38.3945 401.547 37.6719 401.547ZM37.6719 399.789C39.0781 399.789 40.2305 400.102 41.1289 400.727C42.0273 401.332 42.7305 402.133 43.2383 403.129C43.7461 404.125 44.0879 405.268 44.2637 406.557C44.459 407.826 44.5566 409.125 44.5566 410.453C44.5566 411.781 44.459 413.08 44.2637 414.35C44.0879 415.619 43.7461 416.762 43.2383 417.777C42.7305 418.793 42.0273 419.613 41.1289 420.238C40.2305 420.844 39.0781 421.146 37.6719 421.146C36.2461 421.146 35.084 420.844 34.1855 420.238C33.2871 419.613 32.584 418.793 32.0762 417.777C31.5684 416.762 31.2168 415.619 31.0215 414.35C30.8457 413.08 30.7578 411.781 30.7578 410.453C30.7578 409.125 30.8457 407.826 31.0215 406.557C31.2168 405.268 31.5684 404.125 32.0762 403.129C32.584 402.133 33.2871 401.332 34.1855 400.727C35.084 400.102 36.2461 399.789 37.6719 399.789Z" fill="#666666"/>
    <path d="M330 223C330 217.477 334.477 213 340 213H385C390.523 213 395 217.477 395 223V412H330V223Z" fill="#F9D9DF"/>
</svg>
