<svg width="415" height="475" viewBox="0 0 415 475" fill="none" xmlns="http://www.w3.org/2000/svg">
    <path d="M126.572 468.473V466.715H137.852V460.475H129.795V447.789H147.959V460.475H139.902V466.715H151.182V468.473H126.572ZM145.967 449.518H131.787V458.746H145.967V449.518ZM156.25 467.535C156.25 465.914 157.051 464.684 158.652 463.844C160.254 462.984 162.695 462.555 165.977 462.555C169.219 462.555 171.65 462.984 173.271 463.844C174.893 464.684 175.703 465.914 175.703 467.535C175.703 469.156 174.893 470.387 173.271 471.227C171.65 472.086 169.219 472.516 165.977 472.516C162.695 472.516 160.254 472.086 158.652 471.227C157.051 470.387 156.25 469.156 156.25 467.535ZM158.301 467.535C158.301 468.688 158.984 469.527 160.352 470.055C161.738 470.602 163.613 470.875 165.977 470.875C167.148 470.875 168.203 470.807 169.141 470.67C170.098 470.553 170.908 470.357 171.572 470.084C172.236 469.811 172.744 469.459 173.096 469.029C173.467 468.619 173.652 468.121 173.652 467.535C173.652 466.949 173.467 466.451 173.096 466.041C172.744 465.611 172.236 465.26 171.572 464.986C170.908 464.713 170.098 464.518 169.141 464.4C168.203 464.264 167.148 464.195 165.977 464.195C163.613 464.195 161.738 464.469 160.352 465.016C158.984 465.543 158.301 466.383 158.301 467.535ZM153.525 459.918V458.16H163.779V452.828H165.801V458.16H178.428V459.918H153.525ZM172.803 456.49C172.979 455.729 173.115 454.957 173.213 454.176C173.311 453.395 173.379 452.652 173.418 451.949C173.477 451.227 173.516 450.582 173.535 450.016C173.555 449.43 173.564 448.971 173.564 448.639H156.543V446.91H175.615C175.615 447.438 175.605 448.092 175.586 448.873C175.566 449.635 175.527 450.455 175.469 451.334C175.41 452.213 175.322 453.121 175.205 454.059C175.088 454.996 174.932 455.914 174.736 456.812L172.803 456.49Z" fill="#666666"/>
    <path d="M286.806 449.518V447.789H306.435V449.518H302.479C302.401 451.354 302.304 453.111 302.187 454.791C302.069 456.393 301.942 457.809 301.806 459.039H306.435V460.768H297.616V466.715H308.925V468.473H284.315V466.715H295.595V460.768H286.806V459.039H291.435C291.376 458.355 291.327 457.643 291.288 456.9C291.229 456.002 291.181 455.104 291.142 454.205C291.103 453.307 291.063 452.428 291.024 451.568C290.985 450.846 290.946 450.162 290.907 449.518H286.806ZM293.017 451.568C293.056 452.447 293.095 453.336 293.134 454.234C293.192 455.133 293.251 456.021 293.31 456.9C293.368 457.643 293.427 458.355 293.485 459.039H299.843C299.979 457.652 300.097 456.158 300.194 454.557C300.292 452.896 300.37 451.217 300.429 449.518H292.958C292.958 450.162 292.978 450.846 293.017 451.568ZM331.073 471.168V465.016C329.354 465.387 327.431 465.641 325.302 465.777C323.173 465.895 320.878 465.953 318.417 465.953H311.854V464.225H316.044C315.985 463.229 315.927 462.115 315.868 460.885C315.81 459.635 315.751 458.365 315.692 457.076C315.653 455.768 315.614 454.469 315.575 453.18C315.556 451.871 315.546 450.65 315.546 449.518H312.44V447.789H327.616V449.518H324.804C324.804 450.631 324.784 451.832 324.745 453.121C324.726 454.41 324.687 455.699 324.628 456.988C324.589 458.277 324.54 459.537 324.481 460.768C324.423 461.998 324.354 463.111 324.276 464.107C325.507 464.049 326.688 463.961 327.821 463.844C328.954 463.707 330.038 463.521 331.073 463.287V446.031H333.095V471.168H331.073ZM322.812 449.518H317.538C317.538 450.514 317.538 451.646 317.538 452.916C317.558 454.186 317.577 455.494 317.597 456.842C317.636 458.17 317.685 459.479 317.743 460.768C317.802 462.037 317.87 463.189 317.948 464.225H318.446C319.11 464.225 319.765 464.225 320.409 464.225C321.073 464.225 321.737 464.215 322.401 464.195C322.479 463.16 322.548 461.998 322.606 460.709C322.665 459.42 322.704 458.121 322.724 456.812C322.763 455.484 322.782 454.186 322.782 452.916C322.802 451.646 322.812 450.514 322.812 449.518ZM358.612 466.48V461.178C356.796 461.725 354.677 462.105 352.255 462.32C349.853 462.535 347.216 462.643 344.345 462.643H339.687V454.176H350.116V449.078H339.687V447.35H352.138V455.904H341.708V460.943H344.374C345.663 460.943 346.942 460.924 348.212 460.885C349.501 460.846 350.751 460.768 351.962 460.65C353.173 460.533 354.335 460.377 355.448 460.182C356.581 459.967 357.636 459.703 358.612 459.391V446.031H360.634V466.48H358.612ZM344.872 464.869V469.908H361.22V471.637H342.851V464.869H344.872Z" fill="#666666"/>
    <path d="M120 98C120 92.4771 124.477 88 130 88H175C180.523 88 185 92.4772 185 98V412H120V98Z" fill="#E66787"/>
    <path d="M142.641 60.4609C142.641 61.5078 142.977 62.2969 143.648 62.8281C144.336 63.3438 145.211 63.6016 146.273 63.6016C147.336 63.6016 148.211 63.3438 148.898 62.8281C149.586 62.2969 149.93 61.5078 149.93 60.4609C149.93 59.8984 149.82 59.4219 149.602 59.0312C149.383 58.6406 149.102 58.3203 148.758 58.0703C148.414 57.8047 148.023 57.6172 147.586 57.5078C147.148 57.3828 146.711 57.3203 146.273 57.3203C145.836 57.3203 145.398 57.3828 144.961 57.5078C144.523 57.6172 144.133 57.8047 143.789 58.0703C143.445 58.3203 143.164 58.6406 142.945 59.0312C142.742 59.4219 142.641 59.8984 142.641 60.4609ZM142.242 68.5234C142.242 69.1172 142.352 69.6328 142.57 70.0703C142.805 70.4922 143.109 70.8438 143.484 71.125C143.859 71.3906 144.289 71.5859 144.773 71.7109C145.258 71.8359 145.758 71.8984 146.273 71.8984C146.789 71.8984 147.289 71.8359 147.773 71.7109C148.258 71.5859 148.688 71.3906 149.062 71.125C149.438 70.8438 149.734 70.4922 149.953 70.0703C150.188 69.6328 150.305 69.1172 150.305 68.5234C150.305 67.9453 150.188 67.4375 149.953 67C149.734 66.5625 149.438 66.2031 149.062 65.9219C148.688 65.625 148.258 65.4062 147.773 65.2656C147.289 65.125 146.789 65.0547 146.273 65.0547C145.758 65.0547 145.258 65.125 144.773 65.2656C144.289 65.4062 143.859 65.625 143.484 65.9219C143.109 66.2031 142.805 66.5625 142.57 67C142.352 67.4375 142.242 67.9453 142.242 68.5234ZM148.289 64.3516C149.414 64.6484 150.312 65.1406 150.984 65.8281C151.656 66.5156 151.992 67.4141 151.992 68.5234C151.992 69.3672 151.82 70.0938 151.477 70.7031C151.148 71.3125 150.711 71.8125 150.164 72.2031C149.633 72.5781 149.023 72.8594 148.336 73.0469C147.664 73.2344 146.977 73.3281 146.273 73.3281C145.586 73.3281 144.898 73.2344 144.211 73.0469C143.539 72.8594 142.93 72.5781 142.383 72.2031C141.852 71.8125 141.414 71.3125 141.07 70.7031C140.742 70.0938 140.578 69.3672 140.578 68.5234C140.578 67.4453 140.914 66.5547 141.586 65.8516C142.273 65.1484 143.18 64.6484 144.305 64.3516V64.3047C143.852 64.1953 143.422 64.0312 143.016 63.8125C142.625 63.5781 142.281 63.2969 141.984 62.9688C141.703 62.6406 141.477 62.2656 141.305 61.8438C141.148 61.4219 141.07 60.9609 141.07 60.4609C141.07 59.6953 141.219 59.0391 141.516 58.4922C141.828 57.9297 142.227 57.4688 142.711 57.1094C143.211 56.7344 143.766 56.4609 144.375 56.2891C145 56.1172 145.633 56.0312 146.273 56.0312C146.914 56.0312 147.547 56.1172 148.172 56.2891C148.797 56.4609 149.352 56.7344 149.836 57.1094C150.336 57.4688 150.734 57.9297 151.031 58.4922C151.344 59.0391 151.5 59.6953 151.5 60.4609C151.5 61.4922 151.195 62.3359 150.586 62.9922C149.977 63.6484 149.211 64.0859 148.289 64.3047V64.3516ZM160.336 71.8984C160.977 71.8984 161.531 71.7812 162 71.5469C162.484 71.3125 162.883 71 163.195 70.6094C163.508 70.2031 163.742 69.7344 163.898 69.2031C164.055 68.6719 164.133 68.1094 164.133 67.5156C164.133 66.9219 164.055 66.375 163.898 65.875C163.742 65.375 163.508 64.9453 163.195 64.5859C162.898 64.2266 162.516 63.9531 162.047 63.7656C161.594 63.5625 161.055 63.4609 160.43 63.4609C160.023 63.4609 159.633 63.5234 159.258 63.6484C158.898 63.7578 158.57 63.9219 158.273 64.1406C157.977 64.3594 157.719 64.6328 157.5 64.9609C157.297 65.2734 157.148 65.625 157.055 66.0156H155.461L155.836 56.3594H164.977V57.8125H157.336L157.055 63.7422L157.102 63.7891C157.57 63.2422 158.109 62.8203 158.719 62.5234C159.328 62.2109 160.008 62.0547 160.758 62.0547C161.539 62.0547 162.242 62.2031 162.867 62.5C163.492 62.7969 164.023 63.2031 164.461 63.7188C164.898 64.2188 165.234 64.8047 165.469 65.4766C165.703 66.1328 165.82 66.8359 165.82 67.5859C165.82 68.3828 165.695 69.1328 165.445 69.8359C165.195 70.5234 164.844 71.1328 164.391 71.6641C163.938 72.1797 163.375 72.5859 162.703 72.8828C162.047 73.1797 161.312 73.3281 160.5 73.3281C159.5 73.3281 158.625 73.2188 157.875 73C157.125 72.7969 156.469 72.5859 155.906 72.3672L155.977 70.7969C156.242 70.9375 156.547 71.0781 156.891 71.2188C157.25 71.3438 157.617 71.4609 157.992 71.5703C158.383 71.6641 158.781 71.7422 159.188 71.8047C159.594 71.8672 159.977 71.8984 160.336 71.8984Z" fill="#666666"/>
    <path d="M311.055 45.4609C311.055 46.5078 311.391 47.2969 312.062 47.8281C312.75 48.3438 313.625 48.6016 314.688 48.6016C315.75 48.6016 316.625 48.3438 317.312 47.8281C318 47.2969 318.344 46.5078 318.344 45.4609C318.344 44.8984 318.234 44.4219 318.016 44.0312C317.797 43.6406 317.516 43.3203 317.172 43.0703C316.828 42.8047 316.438 42.6172 316 42.5078C315.562 42.3828 315.125 42.3203 314.688 42.3203C314.25 42.3203 313.812 42.3828 313.375 42.5078C312.938 42.6172 312.547 42.8047 312.203 43.0703C311.859 43.3203 311.578 43.6406 311.359 44.0312C311.156 44.4219 311.055 44.8984 311.055 45.4609ZM310.656 53.5234C310.656 54.1172 310.766 54.6328 310.984 55.0703C311.219 55.4922 311.523 55.8438 311.898 56.125C312.273 56.3906 312.703 56.5859 313.188 56.7109C313.672 56.8359 314.172 56.8984 314.688 56.8984C315.203 56.8984 315.703 56.8359 316.188 56.7109C316.672 56.5859 317.102 56.3906 317.477 56.125C317.852 55.8438 318.148 55.4922 318.367 55.0703C318.602 54.6328 318.719 54.1172 318.719 53.5234C318.719 52.9453 318.602 52.4375 318.367 52C318.148 51.5625 317.852 51.2031 317.477 50.9219C317.102 50.625 316.672 50.4062 316.188 50.2656C315.703 50.125 315.203 50.0547 314.688 50.0547C314.172 50.0547 313.672 50.125 313.188 50.2656C312.703 50.4062 312.273 50.625 311.898 50.9219C311.523 51.2031 311.219 51.5625 310.984 52C310.766 52.4375 310.656 52.9453 310.656 53.5234ZM316.703 49.3516C317.828 49.6484 318.727 50.1406 319.398 50.8281C320.07 51.5156 320.406 52.4141 320.406 53.5234C320.406 54.3672 320.234 55.0938 319.891 55.7031C319.562 56.3125 319.125 56.8125 318.578 57.2031C318.047 57.5781 317.438 57.8594 316.75 58.0469C316.078 58.2344 315.391 58.3281 314.688 58.3281C314 58.3281 313.312 58.2344 312.625 58.0469C311.953 57.8594 311.344 57.5781 310.797 57.2031C310.266 56.8125 309.828 56.3125 309.484 55.7031C309.156 55.0938 308.992 54.3672 308.992 53.5234C308.992 52.4453 309.328 51.5547 310 50.8516C310.688 50.1484 311.594 49.6484 312.719 49.3516V49.3047C312.266 49.1953 311.836 49.0312 311.43 48.8125C311.039 48.5781 310.695 48.2969 310.398 47.9688C310.117 47.6406 309.891 47.2656 309.719 46.8438C309.562 46.4219 309.484 45.9609 309.484 45.4609C309.484 44.6953 309.633 44.0391 309.93 43.4922C310.242 42.9297 310.641 42.4688 311.125 42.1094C311.625 41.7344 312.18 41.4609 312.789 41.2891C313.414 41.1172 314.047 41.0312 314.688 41.0312C315.328 41.0312 315.961 41.1172 316.586 41.2891C317.211 41.4609 317.766 41.7344 318.25 42.1094C318.75 42.4688 319.148 42.9297 319.445 43.4922C319.758 44.0391 319.914 44.6953 319.914 45.4609C319.914 46.4922 319.609 47.3359 319 47.9922C318.391 48.6484 317.625 49.0859 316.703 49.3047V49.3516ZM325.633 45.4609C325.633 46.5078 325.969 47.2969 326.641 47.8281C327.328 48.3438 328.203 48.6016 329.266 48.6016C330.328 48.6016 331.203 48.3438 331.891 47.8281C332.578 47.2969 332.922 46.5078 332.922 45.4609C332.922 44.8984 332.812 44.4219 332.594 44.0312C332.375 43.6406 332.094 43.3203 331.75 43.0703C331.406 42.8047 331.016 42.6172 330.578 42.5078C330.141 42.3828 329.703 42.3203 329.266 42.3203C328.828 42.3203 328.391 42.3828 327.953 42.5078C327.516 42.6172 327.125 42.8047 326.781 43.0703C326.438 43.3203 326.156 43.6406 325.938 44.0312C325.734 44.4219 325.633 44.8984 325.633 45.4609ZM325.234 53.5234C325.234 54.1172 325.344 54.6328 325.562 55.0703C325.797 55.4922 326.102 55.8438 326.477 56.125C326.852 56.3906 327.281 56.5859 327.766 56.7109C328.25 56.8359 328.75 56.8984 329.266 56.8984C329.781 56.8984 330.281 56.8359 330.766 56.7109C331.25 56.5859 331.68 56.3906 332.055 56.125C332.43 55.8438 332.727 55.4922 332.945 55.0703C333.18 54.6328 333.297 54.1172 333.297 53.5234C333.297 52.9453 333.18 52.4375 332.945 52C332.727 51.5625 332.43 51.2031 332.055 50.9219C331.68 50.625 331.25 50.4062 330.766 50.2656C330.281 50.125 329.781 50.0547 329.266 50.0547C328.75 50.0547 328.25 50.125 327.766 50.2656C327.281 50.4062 326.852 50.625 326.477 50.9219C326.102 51.2031 325.797 51.5625 325.562 52C325.344 52.4375 325.234 52.9453 325.234 53.5234ZM331.281 49.3516C332.406 49.6484 333.305 50.1406 333.977 50.8281C334.648 51.5156 334.984 52.4141 334.984 53.5234C334.984 54.3672 334.812 55.0938 334.469 55.7031C334.141 56.3125 333.703 56.8125 333.156 57.2031C332.625 57.5781 332.016 57.8594 331.328 58.0469C330.656 58.2344 329.969 58.3281 329.266 58.3281C328.578 58.3281 327.891 58.2344 327.203 58.0469C326.531 57.8594 325.922 57.5781 325.375 57.2031C324.844 56.8125 324.406 56.3125 324.062 55.7031C323.734 55.0938 323.57 54.3672 323.57 53.5234C323.57 52.4453 323.906 51.5547 324.578 50.8516C325.266 50.1484 326.172 49.6484 327.297 49.3516V49.3047C326.844 49.1953 326.414 49.0312 326.008 48.8125C325.617 48.5781 325.273 48.2969 324.977 47.9688C324.695 47.6406 324.469 47.2656 324.297 46.8438C324.141 46.4219 324.062 45.9609 324.062 45.4609C324.062 44.6953 324.211 44.0391 324.508 43.4922C324.82 42.9297 325.219 42.4688 325.703 42.1094C326.203 41.7344 326.758 41.4609 327.367 41.2891C327.992 41.1172 328.625 41.0312 329.266 41.0312C329.906 41.0312 330.539 41.1172 331.164 41.2891C331.789 41.4609 332.344 41.7344 332.828 42.1094C333.328 42.4688 333.727 42.9297 334.023 43.4922C334.336 44.0391 334.492 44.6953 334.492 45.4609C334.492 46.4922 334.188 47.3359 333.578 47.9922C332.969 48.6484 332.203 49.0859 331.281 49.3047V49.3516Z" fill="#666666"/>
    <path d="M2.05078 7.18359L6.79688 3.22852H8.49609V24H6.5918V5.57227L3.19336 8.53125L2.05078 7.18359ZM21.416 4.54688C20.6738 4.54688 20.0391 4.69336 19.5117 4.98633C19.0039 5.2793 18.5645 5.67969 18.1934 6.1875C17.8418 6.67578 17.5586 7.23242 17.3438 7.85742C17.1484 8.48242 16.9922 9.12695 16.875 9.79102C16.7578 10.4355 16.6797 11.0801 16.6406 11.7246C16.6211 12.3691 16.6113 12.9453 16.6113 13.4531C16.6113 14.2344 16.6504 15.1328 16.7285 16.1484C16.8262 17.1641 17.0312 18.1309 17.3438 19.0488C17.6758 19.9668 18.1543 20.748 18.7793 21.3926C19.4238 22.0176 20.3027 22.3301 21.416 22.3301C22.5098 22.3301 23.3789 22.0176 24.0234 21.3926C24.668 20.748 25.1465 19.9668 25.459 19.0488C25.791 18.1309 25.9961 17.1641 26.0742 16.1484C26.1719 15.1328 26.2207 14.2344 26.2207 13.4531C26.2207 12.9453 26.2012 12.3691 26.1621 11.7246C26.1426 11.0801 26.0742 10.4355 25.957 9.79102C25.8398 9.12695 25.6738 8.48242 25.459 7.85742C25.2441 7.23242 24.9609 6.67578 24.6094 6.1875C24.2578 5.67969 23.8184 5.2793 23.291 4.98633C22.7637 4.69336 22.1387 4.54688 21.416 4.54688ZM21.416 2.78906C22.8223 2.78906 23.9746 3.10156 24.873 3.72656C25.7715 4.33203 26.4746 5.13281 26.9824 6.12891C27.4902 7.125 27.832 8.26758 28.0078 9.55664C28.2031 10.8262 28.3008 12.125 28.3008 13.4531C28.3008 14.7812 28.2031 16.0801 28.0078 17.3496C27.832 18.6191 27.4902 19.7617 26.9824 20.7773C26.4746 21.793 25.7715 22.6133 24.873 23.2383C23.9746 23.8438 22.8223 24.1465 21.416 24.1465C19.9902 24.1465 18.8281 23.8438 17.9297 23.2383C17.0312 22.6133 16.3281 21.793 15.8203 20.7773C15.3125 19.7617 14.9609 18.6191 14.7656 17.3496C14.5898 16.0801 14.502 14.7812 14.502 13.4531C14.502 12.125 14.5898 10.8262 14.7656 9.55664C14.9609 8.26758 15.3125 7.125 15.8203 6.12891C16.3281 5.13281 17.0312 4.33203 17.9297 3.72656C18.8281 3.10156 19.9902 2.78906 21.416 2.78906ZM38.7305 4.54688C37.9883 4.54688 37.3535 4.69336 36.8262 4.98633C36.3184 5.2793 35.8789 5.67969 35.5078 6.1875C35.1562 6.67578 34.873 7.23242 34.6582 7.85742C34.4629 8.48242 34.3066 9.12695 34.1895 9.79102C34.0723 10.4355 33.9941 11.0801 33.9551 11.7246C33.9355 12.3691 33.9258 12.9453 33.9258 13.4531C33.9258 14.2344 33.9648 15.1328 34.043 16.1484C34.1406 17.1641 34.3457 18.1309 34.6582 19.0488C34.9902 19.9668 35.4688 20.748 36.0938 21.3926C36.7383 22.0176 37.6172 22.3301 38.7305 22.3301C39.8242 22.3301 40.6934 22.0176 41.3379 21.3926C41.9824 20.748 42.4609 19.9668 42.7734 19.0488C43.1055 18.1309 43.3105 17.1641 43.3887 16.1484C43.4863 15.1328 43.5352 14.2344 43.5352 13.4531C43.5352 12.9453 43.5156 12.3691 43.4766 11.7246C43.457 11.0801 43.3887 10.4355 43.2715 9.79102C43.1543 9.12695 42.9883 8.48242 42.7734 7.85742C42.5586 7.23242 42.2754 6.67578 41.9238 6.1875C41.5723 5.67969 41.1328 5.2793 40.6055 4.98633C40.0781 4.69336 39.4531 4.54688 38.7305 4.54688ZM38.7305 2.78906C40.1367 2.78906 41.2891 3.10156 42.1875 3.72656C43.0859 4.33203 43.7891 5.13281 44.2969 6.12891C44.8047 7.125 45.1465 8.26758 45.3223 9.55664C45.5176 10.8262 45.6152 12.125 45.6152 13.4531C45.6152 14.7812 45.5176 16.0801 45.3223 17.3496C45.1465 18.6191 44.8047 19.7617 44.2969 20.7773C43.7891 21.793 43.0859 22.6133 42.1875 23.2383C41.2891 23.8438 40.1367 24.1465 38.7305 24.1465C37.3047 24.1465 36.1426 23.8438 35.2441 23.2383C34.3457 22.6133 33.6426 21.793 33.1348 20.7773C32.627 19.7617 32.2754 18.6191 32.0801 17.3496C31.9043 16.0801 31.8164 14.7812 31.8164 13.4531C31.8164 12.125 31.9043 10.8262 32.0801 9.55664C32.2754 8.26758 32.627 7.125 33.1348 6.12891C33.6426 5.13281 34.3457 4.33203 35.2441 3.72656C36.1426 3.10156 37.3047 2.78906 38.7305 2.78906ZM52.8809 26.7832V18.082H70.8105V26.7832H52.8809ZM63.5156 15.2695C61.9141 14.5469 60.7031 13.8438 59.8828 13.1602C59.0625 12.457 58.457 11.8418 58.0664 11.3145C57.7344 10.8652 57.5098 10.4844 57.3926 10.1719C57.2754 9.83984 57.1973 9.53711 57.1582 9.26367H56.6602C56.6211 9.53711 56.543 9.85938 56.4258 10.2305C56.3086 10.6016 56.1328 10.9824 55.8984 11.373C55.6641 11.7832 55.3809 12.1934 55.0488 12.6035C54.7363 13.0137 54.3457 13.4336 53.877 13.8633C53.4277 14.2734 52.8809 14.7031 52.2363 15.1523C51.5918 15.6016 50.8203 16.0605 49.9219 16.5293L48.5449 15.0938C50.2246 14.2539 51.5527 13.3652 52.5293 12.4277C53.5059 11.4707 54.2383 10.5137 54.7266 9.55664C55.2344 8.59961 55.5469 7.68164 55.6641 6.80273C55.8008 5.9043 55.8691 5.09375 55.8691 4.37109V4.22461H49.4531V2.49609H64.1016V4.22461H57.8906V4.37109C57.8906 5.07422 57.9492 5.83594 58.0664 6.65625C58.2031 7.47656 58.5059 8.30664 58.9746 9.14648C59.4629 9.9668 60.166 10.7773 61.084 11.5781C62.0215 12.3594 63.291 13.0625 64.8926 13.6875L63.5156 15.2695ZM68.7891 19.8105H54.9023V25.0547H68.7891V19.8105ZM68.7891 16.207V9.14648H62.5195V7.47656H68.7891V1.03125H70.8105V16.207H68.7891Z" fill="#666666"/>
    <line x1="60" y1="412.5" x2="415" y2="412.5" stroke="#666666"/>
    <path d="M37.6719 401.547C36.9297 401.547 36.2949 401.693 35.7676 401.986C35.2598 402.279 34.8203 402.68 34.4492 403.188C34.0977 403.676 33.8145 404.232 33.5996 404.857C33.4043 405.482 33.248 406.127 33.1309 406.791C33.0137 407.436 32.9355 408.08 32.8965 408.725C32.877 409.369 32.8672 409.945 32.8672 410.453C32.8672 411.234 32.9062 412.133 32.9844 413.148C33.082 414.164 33.2871 415.131 33.5996 416.049C33.9316 416.967 34.4102 417.748 35.0352 418.393C35.6797 419.018 36.5586 419.33 37.6719 419.33C38.7656 419.33 39.6348 419.018 40.2793 418.393C40.9238 417.748 41.4023 416.967 41.7148 416.049C42.0469 415.131 42.252 414.164 42.3301 413.148C42.4277 412.133 42.4766 411.234 42.4766 410.453C42.4766 409.945 42.457 409.369 42.418 408.725C42.3984 408.08 42.3301 407.436 42.2129 406.791C42.0957 406.127 41.9297 405.482 41.7148 404.857C41.5 404.232 41.2168 403.676 40.8652 403.188C40.5137 402.68 40.0742 402.279 39.5469 401.986C39.0195 401.693 38.3945 401.547 37.6719 401.547ZM37.6719 399.789C39.0781 399.789 40.2305 400.102 41.1289 400.727C42.0273 401.332 42.7305 402.133 43.2383 403.129C43.7461 404.125 44.0879 405.268 44.2637 406.557C44.459 407.826 44.5566 409.125 44.5566 410.453C44.5566 411.781 44.459 413.08 44.2637 414.35C44.0879 415.619 43.7461 416.762 43.2383 417.777C42.7305 418.793 42.0273 419.613 41.1289 420.238C40.2305 420.844 39.0781 421.146 37.6719 421.146C36.2461 421.146 35.084 420.844 34.1855 420.238C33.2871 419.613 32.584 418.793 32.0762 417.777C31.5684 416.762 31.2168 415.619 31.0215 414.35C30.8457 413.08 30.7578 411.781 30.7578 410.453C30.7578 409.125 30.8457 407.826 31.0215 406.557C31.2168 405.268 31.5684 404.125 32.0762 403.129C32.584 402.133 33.2871 401.332 34.1855 400.727C35.084 400.102 36.2461 399.789 37.6719 399.789Z" fill="#666666"/>
    <path d="M291 83C291 77.4771 295.477 73 301 73H346C351.523 73 356 77.4772 356 83V412H291V83Z" fill="#E66787"/>
</svg>
