<svg width="831" height="309" viewBox="0 0 831 309" fill="none" xmlns="http://www.w3.org/2000/svg">
    <line x1="67.5" y1="13" x2="67.5" y2="249" stroke="#666666"/>
    <line x1="831" y1="249.5" x2="67" y2="249.5" stroke="#666666"/>
    <path d="M2.67773 7.18359L7.42383 3.22852H9.12305V24H7.21875V5.57227L3.82031 8.53125L2.67773 7.18359ZM22.043 4.54688C21.3008 4.54688 20.666 4.69336 20.1387 4.98633C19.6309 5.2793 19.1914 5.67969 18.8203 6.1875C18.4688 6.67578 18.1855 7.23242 17.9707 7.85742C17.7754 8.48242 17.6191 9.12695 17.502 9.79102C17.3848 10.4355 17.3066 11.0801 17.2676 11.7246C17.248 12.3691 17.2383 12.9453 17.2383 13.4531C17.2383 14.2344 17.2773 15.1328 17.3555 16.1484C17.4531 17.1641 17.6582 18.1309 17.9707 19.0488C18.3027 19.9668 18.7812 20.748 19.4062 21.3926C20.0508 22.0176 20.9297 22.3301 22.043 22.3301C23.1367 22.3301 24.0059 22.0176 24.6504 21.3926C25.2949 20.748 25.7734 19.9668 26.0859 19.0488C26.418 18.1309 26.623 17.1641 26.7012 16.1484C26.7988 15.1328 26.8477 14.2344 26.8477 13.4531C26.8477 12.9453 26.8281 12.3691 26.7891 11.7246C26.7695 11.0801 26.7012 10.4355 26.584 9.79102C26.4668 9.12695 26.3008 8.48242 26.0859 7.85742C25.8711 7.23242 25.5879 6.67578 25.2363 6.1875C24.8848 5.67969 24.4453 5.2793 23.918 4.98633C23.3906 4.69336 22.7656 4.54688 22.043 4.54688ZM22.043 2.78906C23.4492 2.78906 24.6016 3.10156 25.5 3.72656C26.3984 4.33203 27.1016 5.13281 27.6094 6.12891C28.1172 7.125 28.459 8.26758 28.6348 9.55664C28.8301 10.8262 28.9277 12.125 28.9277 13.4531C28.9277 14.7812 28.8301 16.0801 28.6348 17.3496C28.459 18.6191 28.1172 19.7617 27.6094 20.7773C27.1016 21.793 26.3984 22.6133 25.5 23.2383C24.6016 23.8438 23.4492 24.1465 22.043 24.1465C20.6172 24.1465 19.4551 23.8438 18.5566 23.2383C17.6582 22.6133 16.9551 21.793 16.4473 20.7773C15.9395 19.7617 15.5879 18.6191 15.3926 17.3496C15.2168 16.0801 15.1289 14.7812 15.1289 13.4531C15.1289 12.125 15.2168 10.8262 15.3926 9.55664C15.5879 8.26758 15.9395 7.125 16.4473 6.12891C16.9551 5.13281 17.6582 4.33203 18.5566 3.72656C19.4551 3.10156 20.6172 2.78906 22.043 2.78906ZM39.3574 4.54688C38.6152 4.54688 37.9805 4.69336 37.4531 4.98633C36.9453 5.2793 36.5059 5.67969 36.1348 6.1875C35.7832 6.67578 35.5 7.23242 35.2852 7.85742C35.0898 8.48242 34.9336 9.12695 34.8164 9.79102C34.6992 10.4355 34.6211 11.0801 34.582 11.7246C34.5625 12.3691 34.5527 12.9453 34.5527 13.4531C34.5527 14.2344 34.5918 15.1328 34.6699 16.1484C34.7676 17.1641 34.9727 18.1309 35.2852 19.0488C35.6172 19.9668 36.0957 20.748 36.7207 21.3926C37.3652 22.0176 38.2441 22.3301 39.3574 22.3301C40.4512 22.3301 41.3203 22.0176 41.9648 21.3926C42.6094 20.748 43.0879 19.9668 43.4004 19.0488C43.7324 18.1309 43.9375 17.1641 44.0156 16.1484C44.1133 15.1328 44.1621 14.2344 44.1621 13.4531C44.1621 12.9453 44.1426 12.3691 44.1035 11.7246C44.084 11.0801 44.0156 10.4355 43.8984 9.79102C43.7812 9.12695 43.6152 8.48242 43.4004 7.85742C43.1855 7.23242 42.9023 6.67578 42.5508 6.1875C42.1992 5.67969 41.7598 5.2793 41.2324 4.98633C40.7051 4.69336 40.0801 4.54688 39.3574 4.54688ZM39.3574 2.78906C40.7637 2.78906 41.916 3.10156 42.8145 3.72656C43.7129 4.33203 44.416 5.13281 44.9238 6.12891C45.4316 7.125 45.7734 8.26758 45.9492 9.55664C46.1445 10.8262 46.2422 12.125 46.2422 13.4531C46.2422 14.7812 46.1445 16.0801 45.9492 17.3496C45.7734 18.6191 45.4316 19.7617 44.9238 20.7773C44.416 21.793 43.7129 22.6133 42.8145 23.2383C41.916 23.8438 40.7637 24.1465 39.3574 24.1465C37.9316 24.1465 36.7695 23.8438 35.8711 23.2383C34.9727 22.6133 34.2695 21.793 33.7617 20.7773C33.2539 19.7617 32.9023 18.6191 32.707 17.3496C32.5312 16.0801 32.4434 14.7812 32.4434 13.4531C32.4434 12.125 32.5312 10.8262 32.707 9.55664C32.9023 8.26758 33.2539 7.125 33.7617 6.12891C34.2695 5.13281 34.9727 4.33203 35.8711 3.72656C36.7695 3.10156 37.9316 2.78906 39.3574 2.78906Z" fill="#666666"/>
    <path d="M22.3652 256.623C23.166 256.623 23.8594 256.477 24.4453 256.184C25.0508 255.891 25.5488 255.5 25.9395 255.012C26.3301 254.504 26.623 253.918 26.8184 253.254C27.0137 252.59 27.1113 251.887 27.1113 251.145C27.1113 250.402 27.0137 249.719 26.8184 249.094C26.623 248.469 26.3301 247.932 25.9395 247.482C25.5684 247.033 25.0898 246.691 24.5039 246.457C23.9375 246.203 23.2637 246.076 22.4824 246.076C21.9746 246.076 21.4863 246.154 21.0176 246.311C20.5684 246.447 20.1582 246.652 19.7871 246.926C19.416 247.199 19.0938 247.541 18.8203 247.951C18.5664 248.342 18.3809 248.781 18.2637 249.27H16.2715L16.7402 237.199H28.166V239.016H18.6152L18.2637 246.428L18.3223 246.486C18.9082 245.803 19.582 245.275 20.3438 244.904C21.1055 244.514 21.9551 244.318 22.8926 244.318C23.8691 244.318 24.748 244.504 25.5293 244.875C26.3105 245.246 26.9746 245.754 27.5215 246.398C28.0684 247.023 28.4883 247.756 28.7812 248.596C29.0742 249.416 29.2207 250.295 29.2207 251.232C29.2207 252.229 29.0645 253.166 28.752 254.045C28.4395 254.904 28 255.666 27.4336 256.33C26.8672 256.975 26.1641 257.482 25.3242 257.854C24.5039 258.225 23.5859 258.41 22.5703 258.41C21.3203 258.41 20.2266 258.273 19.2891 258C18.3516 257.746 17.5312 257.482 16.8281 257.209L16.916 255.246C17.248 255.422 17.6289 255.598 18.0586 255.773C18.5078 255.93 18.9668 256.076 19.4355 256.213C19.9238 256.33 20.4219 256.428 20.9297 256.506C21.4375 256.584 21.916 256.623 22.3652 256.623ZM39.3574 238.547C38.6152 238.547 37.9805 238.693 37.4531 238.986C36.9453 239.279 36.5059 239.68 36.1348 240.188C35.7832 240.676 35.5 241.232 35.2852 241.857C35.0898 242.482 34.9336 243.127 34.8164 243.791C34.6992 244.436 34.6211 245.08 34.582 245.725C34.5625 246.369 34.5527 246.945 34.5527 247.453C34.5527 248.234 34.5918 249.133 34.6699 250.148C34.7676 251.164 34.9727 252.131 35.2852 253.049C35.6172 253.967 36.0957 254.748 36.7207 255.393C37.3652 256.018 38.2441 256.33 39.3574 256.33C40.4512 256.33 41.3203 256.018 41.9648 255.393C42.6094 254.748 43.0879 253.967 43.4004 253.049C43.7324 252.131 43.9375 251.164 44.0156 250.148C44.1133 249.133 44.1621 248.234 44.1621 247.453C44.1621 246.945 44.1426 246.369 44.1035 245.725C44.084 245.08 44.0156 244.436 43.8984 243.791C43.7812 243.127 43.6152 242.482 43.4004 241.857C43.1855 241.232 42.9023 240.676 42.5508 240.188C42.1992 239.68 41.7598 239.279 41.2324 238.986C40.7051 238.693 40.0801 238.547 39.3574 238.547ZM39.3574 236.789C40.7637 236.789 41.916 237.102 42.8145 237.727C43.7129 238.332 44.416 239.133 44.9238 240.129C45.4316 241.125 45.7734 242.268 45.9492 243.557C46.1445 244.826 46.2422 246.125 46.2422 247.453C46.2422 248.781 46.1445 250.08 45.9492 251.35C45.7734 252.619 45.4316 253.762 44.9238 254.777C44.416 255.793 43.7129 256.613 42.8145 257.238C41.916 257.844 40.7637 258.146 39.3574 258.146C37.9316 258.146 36.7695 257.844 35.8711 257.238C34.9727 256.613 34.2695 255.793 33.7617 254.777C33.2539 253.762 32.9023 252.619 32.707 251.35C32.5312 250.08 32.4434 248.781 32.4434 247.453C32.4434 246.125 32.5312 244.826 32.707 243.557C32.9023 242.268 33.2539 241.125 33.7617 240.129C34.2695 239.133 34.9727 238.332 35.8711 237.727C36.7695 237.102 37.9316 236.789 39.3574 236.789Z" fill="#666666"/>
    <path d="M755.312 303.264V298.166H746.172V296.262L754.697 282.199H757.275V296.525H760.615V298.166H757.275V303.264H755.312ZM755.312 296.525V284.25L747.93 296.525H755.312Z" fill="#666666"/>
    <path d="M548.061 301.623C548.744 301.623 549.389 301.535 549.994 301.359C550.619 301.164 551.156 300.881 551.605 300.51C552.074 300.139 552.436 299.68 552.689 299.133C552.963 298.566 553.1 297.912 553.1 297.17C553.1 296.35 552.914 295.676 552.543 295.148C552.191 294.602 551.723 294.182 551.137 293.889C550.57 293.576 549.926 293.361 549.203 293.244C548.48 293.127 547.758 293.068 547.035 293.068H545.131V291.252H547.035C547.699 291.252 548.373 291.193 549.057 291.076C549.74 290.959 550.355 290.754 550.902 290.461C551.449 290.148 551.898 289.738 552.25 289.23C552.602 288.723 552.777 288.078 552.777 287.297C552.777 286.711 552.65 286.184 552.396 285.715C552.162 285.246 551.84 284.855 551.43 284.543C551.02 284.211 550.541 283.967 549.994 283.811C549.447 283.635 548.871 283.537 548.266 283.518C547.914 283.498 547.504 283.518 547.035 283.576C546.586 283.615 546.127 283.684 545.658 283.781C545.189 283.879 544.721 283.996 544.252 284.133C543.803 284.27 543.393 284.426 543.021 284.602L542.846 282.785C543.607 282.492 544.418 282.258 545.277 282.082C546.156 281.887 547.035 281.789 547.914 281.789C548.793 281.789 549.643 281.896 550.463 282.111C551.303 282.326 552.045 282.658 552.689 283.107C553.354 283.557 553.881 284.143 554.271 284.865C554.662 285.568 554.857 286.428 554.857 287.443C554.857 288.068 554.74 288.645 554.506 289.172C554.291 289.699 553.988 290.158 553.598 290.549C553.227 290.939 552.787 291.271 552.279 291.545C551.771 291.799 551.225 291.984 550.639 292.102V292.16C551.303 292.316 551.908 292.551 552.455 292.863C553.021 293.156 553.51 293.527 553.92 293.977C554.33 294.406 554.643 294.914 554.857 295.5C555.092 296.086 555.209 296.73 555.209 297.434C555.209 298.41 555.004 299.27 554.594 300.012C554.184 300.754 553.637 301.379 552.953 301.887C552.289 302.395 551.527 302.775 550.668 303.029C549.828 303.283 548.969 303.41 548.09 303.41C547.211 303.41 546.254 303.303 545.219 303.088C544.203 302.873 543.285 302.6 542.465 302.268L542.729 300.363C544.506 301.203 546.283 301.623 548.061 301.623Z" fill="#666666"/>
    <path d="M345.32 281.789C346.16 281.789 346.951 281.896 347.693 282.111C348.455 282.326 349.119 282.658 349.686 283.107C350.252 283.537 350.701 284.094 351.033 284.777C351.365 285.441 351.531 286.223 351.531 287.121C351.531 287.941 351.346 288.781 350.975 289.641C350.623 290.5 350.145 291.369 349.539 292.248C348.953 293.107 348.279 293.967 347.518 294.826C346.775 295.666 346.014 296.477 345.232 297.258C344.471 298.02 343.719 298.742 342.977 299.426C342.254 300.09 341.629 300.676 341.102 301.184H351.824V303H338.758V300.92C339.207 300.51 339.783 299.982 340.486 299.338C341.189 298.674 341.932 297.941 342.713 297.141C343.514 296.32 344.314 295.461 345.115 294.562C345.916 293.664 346.639 292.775 347.283 291.896C347.928 291.018 348.445 290.178 348.836 289.377C349.246 288.576 349.451 287.863 349.451 287.238C349.451 286.633 349.334 286.105 349.1 285.656C348.885 285.188 348.582 284.797 348.191 284.484C347.82 284.172 347.381 283.938 346.873 283.781C346.365 283.625 345.828 283.547 345.262 283.547C344.402 283.547 343.504 283.732 342.566 284.104C341.629 284.455 340.75 284.865 339.93 285.334L339.578 283.43C340.34 283.059 341.199 282.697 342.156 282.346C343.133 281.975 344.188 281.789 345.32 281.789Z" fill="#666666"/>
    <path d="M139.051 286.184L143.797 282.229H145.496V303H143.592V284.572L140.193 287.531L139.051 286.184Z" fill="#666666"/>
    <path d="M165 86L330 60" stroke="#DDDDDD" stroke-width="4" stroke-linecap="round" stroke-dasharray="7 6"/>
    <circle cx="150" cy="89" r="16" fill="#D9D9D9"/>
    <path d="M147.414 41.3594V42.7656L140.945 58H139.117L145.773 42.8125H136.82V41.3594H147.414ZM152.219 45.4609C152.219 46.5078 152.555 47.2969 153.227 47.8281C153.914 48.3438 154.789 48.6016 155.852 48.6016C156.914 48.6016 157.789 48.3438 158.477 47.8281C159.164 47.2969 159.508 46.5078 159.508 45.4609C159.508 44.8984 159.398 44.4219 159.18 44.0312C158.961 43.6406 158.68 43.3203 158.336 43.0703C157.992 42.8047 157.602 42.6172 157.164 42.5078C156.727 42.3828 156.289 42.3203 155.852 42.3203C155.414 42.3203 154.977 42.3828 154.539 42.5078C154.102 42.6172 153.711 42.8047 153.367 43.0703C153.023 43.3203 152.742 43.6406 152.523 44.0312C152.32 44.4219 152.219 44.8984 152.219 45.4609ZM151.82 53.5234C151.82 54.1172 151.93 54.6328 152.148 55.0703C152.383 55.4922 152.688 55.8438 153.062 56.125C153.438 56.3906 153.867 56.5859 154.352 56.7109C154.836 56.8359 155.336 56.8984 155.852 56.8984C156.367 56.8984 156.867 56.8359 157.352 56.7109C157.836 56.5859 158.266 56.3906 158.641 56.125C159.016 55.8438 159.312 55.4922 159.531 55.0703C159.766 54.6328 159.883 54.1172 159.883 53.5234C159.883 52.9453 159.766 52.4375 159.531 52C159.312 51.5625 159.016 51.2031 158.641 50.9219C158.266 50.625 157.836 50.4062 157.352 50.2656C156.867 50.125 156.367 50.0547 155.852 50.0547C155.336 50.0547 154.836 50.125 154.352 50.2656C153.867 50.4062 153.438 50.625 153.062 50.9219C152.688 51.2031 152.383 51.5625 152.148 52C151.93 52.4375 151.82 52.9453 151.82 53.5234ZM157.867 49.3516C158.992 49.6484 159.891 50.1406 160.562 50.8281C161.234 51.5156 161.57 52.4141 161.57 53.5234C161.57 54.3672 161.398 55.0938 161.055 55.7031C160.727 56.3125 160.289 56.8125 159.742 57.2031C159.211 57.5781 158.602 57.8594 157.914 58.0469C157.242 58.2344 156.555 58.3281 155.852 58.3281C155.164 58.3281 154.477 58.2344 153.789 58.0469C153.117 57.8594 152.508 57.5781 151.961 57.2031C151.43 56.8125 150.992 56.3125 150.648 55.7031C150.32 55.0938 150.156 54.3672 150.156 53.5234C150.156 52.4453 150.492 51.5547 151.164 50.8516C151.852 50.1484 152.758 49.6484 153.883 49.3516V49.3047C153.43 49.1953 153 49.0312 152.594 48.8125C152.203 48.5781 151.859 48.2969 151.562 47.9688C151.281 47.6406 151.055 47.2656 150.883 46.8438C150.727 46.4219 150.648 45.9609 150.648 45.4609C150.648 44.6953 150.797 44.0391 151.094 43.4922C151.406 42.9297 151.805 42.4688 152.289 42.1094C152.789 41.7344 153.344 41.4609 153.953 41.2891C154.578 41.1172 155.211 41.0312 155.852 41.0312C156.492 41.0312 157.125 41.1172 157.75 41.2891C158.375 41.4609 158.93 41.7344 159.414 42.1094C159.914 42.4688 160.312 42.9297 160.609 43.4922C160.922 44.0391 161.078 44.6953 161.078 45.4609C161.078 46.4922 160.773 47.3359 160.164 47.9922C159.555 48.6484 158.789 49.0859 157.867 49.3047V49.3516Z" fill="#666666"/>
    <path d="M335.633 13.4609C335.633 14.5078 335.969 15.2969 336.641 15.8281C337.328 16.3438 338.203 16.6016 339.266 16.6016C340.328 16.6016 341.203 16.3438 341.891 15.8281C342.578 15.2969 342.922 14.5078 342.922 13.4609C342.922 12.8984 342.812 12.4219 342.594 12.0312C342.375 11.6406 342.094 11.3203 341.75 11.0703C341.406 10.8047 341.016 10.6172 340.578 10.5078C340.141 10.3828 339.703 10.3203 339.266 10.3203C338.828 10.3203 338.391 10.3828 337.953 10.5078C337.516 10.6172 337.125 10.8047 336.781 11.0703C336.438 11.3203 336.156 11.6406 335.938 12.0312C335.734 12.4219 335.633 12.8984 335.633 13.4609ZM335.234 21.5234C335.234 22.1172 335.344 22.6328 335.562 23.0703C335.797 23.4922 336.102 23.8438 336.477 24.125C336.852 24.3906 337.281 24.5859 337.766 24.7109C338.25 24.8359 338.75 24.8984 339.266 24.8984C339.781 24.8984 340.281 24.8359 340.766 24.7109C341.25 24.5859 341.68 24.3906 342.055 24.125C342.43 23.8438 342.727 23.4922 342.945 23.0703C343.18 22.6328 343.297 22.1172 343.297 21.5234C343.297 20.9453 343.18 20.4375 342.945 20C342.727 19.5625 342.43 19.2031 342.055 18.9219C341.68 18.625 341.25 18.4062 340.766 18.2656C340.281 18.125 339.781 18.0547 339.266 18.0547C338.75 18.0547 338.25 18.125 337.766 18.2656C337.281 18.4062 336.852 18.625 336.477 18.9219C336.102 19.2031 335.797 19.5625 335.562 20C335.344 20.4375 335.234 20.9453 335.234 21.5234ZM341.281 17.3516C342.406 17.6484 343.305 18.1406 343.977 18.8281C344.648 19.5156 344.984 20.4141 344.984 21.5234C344.984 22.3672 344.812 23.0938 344.469 23.7031C344.141 24.3125 343.703 24.8125 343.156 25.2031C342.625 25.5781 342.016 25.8594 341.328 26.0469C340.656 26.2344 339.969 26.3281 339.266 26.3281C338.578 26.3281 337.891 26.2344 337.203 26.0469C336.531 25.8594 335.922 25.5781 335.375 25.2031C334.844 24.8125 334.406 24.3125 334.062 23.7031C333.734 23.0938 333.57 22.3672 333.57 21.5234C333.57 20.4453 333.906 19.5547 334.578 18.8516C335.266 18.1484 336.172 17.6484 337.297 17.3516V17.3047C336.844 17.1953 336.414 17.0312 336.008 16.8125C335.617 16.5781 335.273 16.2969 334.977 15.9688C334.695 15.6406 334.469 15.2656 334.297 14.8438C334.141 14.4219 334.062 13.9609 334.062 13.4609C334.062 12.6953 334.211 12.0391 334.508 11.4922C334.82 10.9297 335.219 10.4688 335.703 10.1094C336.203 9.73438 336.758 9.46094 337.367 9.28906C337.992 9.11719 338.625 9.03125 339.266 9.03125C339.906 9.03125 340.539 9.11719 341.164 9.28906C341.789 9.46094 342.344 9.73438 342.828 10.1094C343.328 10.4688 343.727 10.9297 344.023 11.4922C344.336 12.0391 344.492 12.6953 344.492 13.4609C344.492 14.4922 344.188 15.3359 343.578 15.9922C342.969 16.6484 342.203 17.0859 341.281 17.3047V17.3516ZM354.828 26.2109V22.1328H347.516V20.6094L354.336 9.35938H356.398V20.8203H359.07V22.1328H356.398V26.2109H354.828ZM354.828 20.8203V11L348.922 20.8203H354.828Z" fill="#666666"/>
    <circle cx="346" cy="57" r="16" fill="#E66787"/>
</svg>
