<svg width="448" height="365" viewBox="0 0 448 365" fill="none" xmlns="http://www.w3.org/2000/svg">
    <line x1="68.5" y1="15" x2="68.5" y2="315" stroke="#666666"/>
    <line x1="448" y1="315.5" x2="68" y2="315.5" stroke="#666666"/>
    <path d="M2.05078 7.18359L6.79688 3.22852H8.49609V24H6.5918V5.57227L3.19336 8.53125L2.05078 7.18359ZM21.416 4.54688C20.6738 4.54688 20.0391 4.69336 19.5117 4.98633C19.0039 5.2793 18.5645 5.67969 18.1934 6.1875C17.8418 6.67578 17.5586 7.23242 17.3438 7.85742C17.1484 8.48242 16.9922 9.12695 16.875 9.79102C16.7578 10.4355 16.6797 11.0801 16.6406 11.7246C16.6211 12.3691 16.6113 12.9453 16.6113 13.4531C16.6113 14.2344 16.6504 15.1328 16.7285 16.1484C16.8262 17.1641 17.0312 18.1309 17.3438 19.0488C17.6758 19.9668 18.1543 20.748 18.7793 21.3926C19.4238 22.0176 20.3027 22.3301 21.416 22.3301C22.5098 22.3301 23.3789 22.0176 24.0234 21.3926C24.668 20.748 25.1465 19.9668 25.459 19.0488C25.791 18.1309 25.9961 17.1641 26.0742 16.1484C26.1719 15.1328 26.2207 14.2344 26.2207 13.4531C26.2207 12.9453 26.2012 12.3691 26.1621 11.7246C26.1426 11.0801 26.0742 10.4355 25.957 9.79102C25.8398 9.12695 25.6738 8.48242 25.459 7.85742C25.2441 7.23242 24.9609 6.67578 24.6094 6.1875C24.2578 5.67969 23.8184 5.2793 23.291 4.98633C22.7637 4.69336 22.1387 4.54688 21.416 4.54688ZM21.416 2.78906C22.8223 2.78906 23.9746 3.10156 24.873 3.72656C25.7715 4.33203 26.4746 5.13281 26.9824 6.12891C27.4902 7.125 27.832 8.26758 28.0078 9.55664C28.2031 10.8262 28.3008 12.125 28.3008 13.4531C28.3008 14.7812 28.2031 16.0801 28.0078 17.3496C27.832 18.6191 27.4902 19.7617 26.9824 20.7773C26.4746 21.793 25.7715 22.6133 24.873 23.2383C23.9746 23.8438 22.8223 24.1465 21.416 24.1465C19.9902 24.1465 18.8281 23.8438 17.9297 23.2383C17.0312 22.6133 16.3281 21.793 15.8203 20.7773C15.3125 19.7617 14.9609 18.6191 14.7656 17.3496C14.5898 16.0801 14.502 14.7812 14.502 13.4531C14.502 12.125 14.5898 10.8262 14.7656 9.55664C14.9609 8.26758 15.3125 7.125 15.8203 6.12891C16.3281 5.13281 17.0312 4.33203 17.9297 3.72656C18.8281 3.10156 19.9902 2.78906 21.416 2.78906ZM38.7305 4.54688C37.9883 4.54688 37.3535 4.69336 36.8262 4.98633C36.3184 5.2793 35.8789 5.67969 35.5078 6.1875C35.1562 6.67578 34.873 7.23242 34.6582 7.85742C34.4629 8.48242 34.3066 9.12695 34.1895 9.79102C34.0723 10.4355 33.9941 11.0801 33.9551 11.7246C33.9355 12.3691 33.9258 12.9453 33.9258 13.4531C33.9258 14.2344 33.9648 15.1328 34.043 16.1484C34.1406 17.1641 34.3457 18.1309 34.6582 19.0488C34.9902 19.9668 35.4688 20.748 36.0938 21.3926C36.7383 22.0176 37.6172 22.3301 38.7305 22.3301C39.8242 22.3301 40.6934 22.0176 41.3379 21.3926C41.9824 20.748 42.4609 19.9668 42.7734 19.0488C43.1055 18.1309 43.3105 17.1641 43.3887 16.1484C43.4863 15.1328 43.5352 14.2344 43.5352 13.4531C43.5352 12.9453 43.5156 12.3691 43.4766 11.7246C43.457 11.0801 43.3887 10.4355 43.2715 9.79102C43.1543 9.12695 42.9883 8.48242 42.7734 7.85742C42.5586 7.23242 42.2754 6.67578 41.9238 6.1875C41.5723 5.67969 41.1328 5.2793 40.6055 4.98633C40.0781 4.69336 39.4531 4.54688 38.7305 4.54688ZM38.7305 2.78906C40.1367 2.78906 41.2891 3.10156 42.1875 3.72656C43.0859 4.33203 43.7891 5.13281 44.2969 6.12891C44.8047 7.125 45.1465 8.26758 45.3223 9.55664C45.5176 10.8262 45.6152 12.125 45.6152 13.4531C45.6152 14.7812 45.5176 16.0801 45.3223 17.3496C45.1465 18.6191 44.8047 19.7617 44.2969 20.7773C43.7891 21.793 43.0859 22.6133 42.1875 23.2383C41.2891 23.8438 40.1367 24.1465 38.7305 24.1465C37.3047 24.1465 36.1426 23.8438 35.2441 23.2383C34.3457 22.6133 33.6426 21.793 33.1348 20.7773C32.627 19.7617 32.2754 18.6191 32.0801 17.3496C31.9043 16.0801 31.8164 14.7812 31.8164 13.4531C31.8164 12.125 31.9043 10.8262 32.0801 9.55664C32.2754 8.26758 32.627 7.125 33.1348 6.12891C33.6426 5.13281 34.3457 4.33203 35.2441 3.72656C36.1426 3.10156 37.3047 2.78906 38.7305 2.78906Z" fill="#666666"/>
    <path d="M22.3652 322.623C23.166 322.623 23.8594 322.477 24.4453 322.184C25.0508 321.891 25.5488 321.5 25.9395 321.012C26.3301 320.504 26.623 319.918 26.8184 319.254C27.0137 318.59 27.1113 317.887 27.1113 317.145C27.1113 316.402 27.0137 315.719 26.8184 315.094C26.623 314.469 26.3301 313.932 25.9395 313.482C25.5684 313.033 25.0898 312.691 24.5039 312.457C23.9375 312.203 23.2637 312.076 22.4824 312.076C21.9746 312.076 21.4863 312.154 21.0176 312.311C20.5684 312.447 20.1582 312.652 19.7871 312.926C19.416 313.199 19.0938 313.541 18.8203 313.951C18.5664 314.342 18.3809 314.781 18.2637 315.27H16.2715L16.7402 303.199H28.166V305.016H18.6152L18.2637 312.428L18.3223 312.486C18.9082 311.803 19.582 311.275 20.3438 310.904C21.1055 310.514 21.9551 310.318 22.8926 310.318C23.8691 310.318 24.748 310.504 25.5293 310.875C26.3105 311.246 26.9746 311.754 27.5215 312.398C28.0684 313.023 28.4883 313.756 28.7812 314.596C29.0742 315.416 29.2207 316.295 29.2207 317.232C29.2207 318.229 29.0645 319.166 28.752 320.045C28.4395 320.904 28 321.666 27.4336 322.33C26.8672 322.975 26.1641 323.482 25.3242 323.854C24.5039 324.225 23.5859 324.41 22.5703 324.41C21.3203 324.41 20.2266 324.273 19.2891 324C18.3516 323.746 17.5312 323.482 16.8281 323.209L16.916 321.246C17.248 321.422 17.6289 321.598 18.0586 321.773C18.5078 321.93 18.9668 322.076 19.4355 322.213C19.9238 322.33 20.4219 322.428 20.9297 322.506C21.4375 322.584 21.916 322.623 22.3652 322.623ZM39.3574 304.547C38.6152 304.547 37.9805 304.693 37.4531 304.986C36.9453 305.279 36.5059 305.68 36.1348 306.188C35.7832 306.676 35.5 307.232 35.2852 307.857C35.0898 308.482 34.9336 309.127 34.8164 309.791C34.6992 310.436 34.6211 311.08 34.582 311.725C34.5625 312.369 34.5527 312.945 34.5527 313.453C34.5527 314.234 34.5918 315.133 34.6699 316.148C34.7676 317.164 34.9727 318.131 35.2852 319.049C35.6172 319.967 36.0957 320.748 36.7207 321.393C37.3652 322.018 38.2441 322.33 39.3574 322.33C40.4512 322.33 41.3203 322.018 41.9648 321.393C42.6094 320.748 43.0879 319.967 43.4004 319.049C43.7324 318.131 43.9375 317.164 44.0156 316.148C44.1133 315.133 44.1621 314.234 44.1621 313.453C44.1621 312.945 44.1426 312.369 44.1035 311.725C44.084 311.08 44.0156 310.436 43.8984 309.791C43.7812 309.127 43.6152 308.482 43.4004 307.857C43.1855 307.232 42.9023 306.676 42.5508 306.188C42.1992 305.68 41.7598 305.279 41.2324 304.986C40.7051 304.693 40.0801 304.547 39.3574 304.547ZM39.3574 302.789C40.7637 302.789 41.916 303.102 42.8145 303.727C43.7129 304.332 44.416 305.133 44.9238 306.129C45.4316 307.125 45.7734 308.268 45.9492 309.557C46.1445 310.826 46.2422 312.125 46.2422 313.453C46.2422 314.781 46.1445 316.08 45.9492 317.35C45.7734 318.619 45.4316 319.762 44.9238 320.777C44.416 321.793 43.7129 322.613 42.8145 323.238C41.916 323.844 40.7637 324.146 39.3574 324.146C37.9316 324.146 36.7695 323.844 35.8711 323.238C34.9727 322.613 34.2695 321.793 33.7617 320.777C33.2539 319.762 32.9023 318.619 32.707 317.35C32.5312 316.08 32.4434 314.781 32.4434 313.453C32.4434 312.125 32.5312 310.826 32.707 309.557C32.9023 308.268 33.2539 307.125 33.7617 306.129C34.2695 305.133 34.9727 304.332 35.8711 303.727C36.7695 303.102 37.9316 302.789 39.3574 302.789Z" fill="#666666"/>
    <path d="M110.179 342.184L114.925 338.229H116.624V359H114.72V340.572L111.321 343.531L110.179 342.184Z" fill="#666666"/>
    <path d="M208.529 337.789C209.369 337.789 210.16 337.896 210.902 338.111C211.664 338.326 212.328 338.658 212.895 339.107C213.461 339.537 213.91 340.094 214.242 340.777C214.574 341.441 214.74 342.223 214.74 343.121C214.74 343.941 214.555 344.781 214.184 345.641C213.832 346.5 213.354 347.369 212.748 348.248C212.162 349.107 211.488 349.967 210.727 350.826C209.984 351.666 209.223 352.477 208.441 353.258C207.68 354.02 206.928 354.742 206.186 355.426C205.463 356.09 204.838 356.676 204.311 357.184H215.033V359H201.967V356.92C202.416 356.51 202.992 355.982 203.695 355.338C204.398 354.674 205.141 353.941 205.922 353.141C206.723 352.32 207.523 351.461 208.324 350.562C209.125 349.664 209.848 348.775 210.492 347.896C211.137 347.018 211.654 346.178 212.045 345.377C212.455 344.576 212.66 343.863 212.66 343.238C212.66 342.633 212.543 342.105 212.309 341.656C212.094 341.188 211.791 340.797 211.4 340.484C211.029 340.172 210.59 339.938 210.082 339.781C209.574 339.625 209.037 339.547 208.471 339.547C207.611 339.547 206.713 339.732 205.775 340.104C204.838 340.455 203.959 340.865 203.139 341.334L202.787 339.43C203.549 339.059 204.408 338.697 205.365 338.346C206.342 337.975 207.396 337.789 208.529 337.789Z" fill="#666666"/>
    <path d="M303.504 357.623C304.188 357.623 304.832 357.535 305.438 357.359C306.062 357.164 306.6 356.881 307.049 356.51C307.518 356.139 307.879 355.68 308.133 355.133C308.406 354.566 308.543 353.912 308.543 353.17C308.543 352.35 308.357 351.676 307.986 351.148C307.635 350.602 307.166 350.182 306.58 349.889C306.014 349.576 305.369 349.361 304.646 349.244C303.924 349.127 303.201 349.068 302.479 349.068H300.574V347.252H302.479C303.143 347.252 303.816 347.193 304.5 347.076C305.184 346.959 305.799 346.754 306.346 346.461C306.893 346.148 307.342 345.738 307.693 345.23C308.045 344.723 308.221 344.078 308.221 343.297C308.221 342.711 308.094 342.184 307.84 341.715C307.605 341.246 307.283 340.855 306.873 340.543C306.463 340.211 305.984 339.967 305.438 339.811C304.891 339.635 304.314 339.537 303.709 339.518C303.357 339.498 302.947 339.518 302.479 339.576C302.029 339.615 301.57 339.684 301.102 339.781C300.633 339.879 300.164 339.996 299.695 340.133C299.246 340.27 298.836 340.426 298.465 340.602L298.289 338.785C299.051 338.492 299.861 338.258 300.721 338.082C301.6 337.887 302.479 337.789 303.357 337.789C304.236 337.789 305.086 337.896 305.906 338.111C306.746 338.326 307.488 338.658 308.133 339.107C308.797 339.557 309.324 340.143 309.715 340.865C310.105 341.568 310.301 342.428 310.301 343.443C310.301 344.068 310.184 344.645 309.949 345.172C309.734 345.699 309.432 346.158 309.041 346.549C308.67 346.939 308.23 347.271 307.723 347.545C307.215 347.799 306.668 347.984 306.082 348.102V348.16C306.746 348.316 307.352 348.551 307.898 348.863C308.465 349.156 308.953 349.527 309.363 349.977C309.773 350.406 310.086 350.914 310.301 351.5C310.535 352.086 310.652 352.73 310.652 353.434C310.652 354.41 310.447 355.27 310.037 356.012C309.627 356.754 309.08 357.379 308.396 357.887C307.732 358.395 306.971 358.775 306.111 359.029C305.271 359.283 304.412 359.41 303.533 359.41C302.654 359.41 301.697 359.303 300.662 359.088C299.646 358.873 298.729 358.6 297.908 358.268L298.172 356.363C299.949 357.203 301.727 357.623 303.504 357.623Z" fill="#666666"/>
    <path d="M402.639 359.264V354.166H393.498V352.262L402.023 338.199H404.602V352.525H407.941V354.166H404.602V359.264H402.639ZM402.639 352.525V340.25L395.256 352.525H402.639Z" fill="#666666"/>
</svg>
