<svg width="665" height="200" viewBox="0 0 665 200" fill="none" xmlns="http://www.w3.org/2000/svg">
    <line x1="94.5" y1="-2.18557e-08" x2="94.5" y2="151" stroke="#666666"/>
    <line x1="664" y1="53" x2="96" y2="53" stroke="#DDDDDD" stroke-width="2" stroke-linecap="round" stroke-dasharray="5 8"/>
    <line x1="665" y1="150.5" x2="94" y2="150.5" stroke="#666666"/>
    <path d="M9.63477 44.5469C8.89258 44.5469 8.25781 44.6934 7.73047 44.9863C7.22266 45.2793 6.7832 45.6797 6.41211 46.1875C6.06055 46.6758 5.77734 47.2324 5.5625 47.8574C5.36719 48.4824 5.21094 49.127 5.09375 49.791C4.97656 50.4355 4.89844 51.0801 4.85938 51.7246C4.83984 52.3691 4.83008 52.9453 4.83008 53.4531C4.83008 54.2344 4.86914 55.1328 4.94727 56.1484C5.04492 57.1641 5.25 58.1309 5.5625 59.0488C5.89453 59.9668 6.37305 60.748 6.99805 61.3926C7.64258 62.0176 8.52148 62.3301 9.63477 62.3301C10.7285 62.3301 11.5977 62.0176 12.2422 61.3926C12.8867 60.748 13.3652 59.9668 13.6777 59.0488C14.0098 58.1309 14.2148 57.1641 14.293 56.1484C14.3906 55.1328 14.4395 54.2344 14.4395 53.4531C14.4395 52.9453 14.4199 52.3691 14.3809 51.7246C14.3613 51.0801 14.293 50.4355 14.1758 49.791C14.0586 49.127 13.8926 48.4824 13.6777 47.8574C13.4629 47.2324 13.1797 46.6758 12.8281 46.1875C12.4766 45.6797 12.0371 45.2793 11.5098 44.9863C10.9824 44.6934 10.3574 44.5469 9.63477 44.5469ZM9.63477 42.7891C11.041 42.7891 12.1934 43.1016 13.0918 43.7266C13.9902 44.332 14.6934 45.1328 15.2012 46.1289C15.709 47.125 16.0508 48.2676 16.2266 49.5566C16.4219 50.8262 16.5195 52.125 16.5195 53.4531C16.5195 54.7812 16.4219 56.0801 16.2266 57.3496C16.0508 58.6191 15.709 59.7617 15.2012 60.7773C14.6934 61.793 13.9902 62.6133 13.0918 63.2383C12.1934 63.8438 11.041 64.1465 9.63477 64.1465C8.20898 64.1465 7.04688 63.8438 6.14844 63.2383C5.25 62.6133 4.54688 61.793 4.03906 60.7773C3.53125 59.7617 3.17969 58.6191 2.98438 57.3496C2.80859 56.0801 2.7207 54.7812 2.7207 53.4531C2.7207 52.125 2.80859 50.8262 2.98438 49.5566C3.17969 48.2676 3.53125 47.125 4.03906 46.1289C4.54688 45.1328 5.25 44.332 6.14844 43.7266C7.04688 43.1016 8.20898 42.7891 9.63477 42.7891ZM22.7305 64.5566H19.7422V61.3926H22.7305V64.5566ZM32.8672 44.5469C32.125 44.5469 31.4902 44.6934 30.9629 44.9863C30.4551 45.2793 30.0156 45.6797 29.6445 46.1875C29.293 46.6758 29.0098 47.2324 28.7949 47.8574C28.5996 48.4824 28.4434 49.127 28.3262 49.791C28.209 50.4355 28.1309 51.0801 28.0918 51.7246C28.0723 52.3691 28.0625 52.9453 28.0625 53.4531C28.0625 54.2344 28.1016 55.1328 28.1797 56.1484C28.2773 57.1641 28.4824 58.1309 28.7949 59.0488C29.127 59.9668 29.6055 60.748 30.2305 61.3926C30.875 62.0176 31.7539 62.3301 32.8672 62.3301C33.9609 62.3301 34.8301 62.0176 35.4746 61.3926C36.1191 60.748 36.5977 59.9668 36.9102 59.0488C37.2422 58.1309 37.4473 57.1641 37.5254 56.1484C37.623 55.1328 37.6719 54.2344 37.6719 53.4531C37.6719 52.9453 37.6523 52.3691 37.6133 51.7246C37.5938 51.0801 37.5254 50.4355 37.4082 49.791C37.291 49.127 37.125 48.4824 36.9102 47.8574C36.6953 47.2324 36.4121 46.6758 36.0605 46.1875C35.709 45.6797 35.2695 45.2793 34.7422 44.9863C34.2148 44.6934 33.5898 44.5469 32.8672 44.5469ZM32.8672 42.7891C34.2734 42.7891 35.4258 43.1016 36.3242 43.7266C37.2227 44.332 37.9258 45.1328 38.4336 46.1289C38.9414 47.125 39.2832 48.2676 39.459 49.5566C39.6543 50.8262 39.752 52.125 39.752 53.4531C39.752 54.7812 39.6543 56.0801 39.459 57.3496C39.2832 58.6191 38.9414 59.7617 38.4336 60.7773C37.9258 61.793 37.2227 62.6133 36.3242 63.2383C35.4258 63.8438 34.2734 64.1465 32.8672 64.1465C31.4414 64.1465 30.2793 63.8438 29.3809 63.2383C28.4824 62.6133 27.7793 61.793 27.2715 60.7773C26.7637 59.7617 26.4121 58.6191 26.2168 57.3496C26.041 56.0801 25.9531 54.7812 25.9531 53.4531C25.9531 52.125 26.041 50.8262 26.2168 49.5566C26.4121 48.2676 26.7637 47.125 27.2715 46.1289C27.7793 45.1328 28.4824 44.332 29.3809 43.7266C30.2793 43.1016 31.4414 42.7891 32.8672 42.7891ZM55.7773 43.1992V44.957L47.6914 64H45.4062L53.7266 45.0156H42.5352V43.1992H55.7773ZM65.6797 62.623C66.4805 62.623 67.1738 62.4766 67.7598 62.1836C68.3652 61.8906 68.8633 61.5 69.2539 61.0117C69.6445 60.5039 69.9375 59.918 70.1328 59.2539C70.3281 58.5898 70.4258 57.8867 70.4258 57.1445C70.4258 56.4023 70.3281 55.7188 70.1328 55.0938C69.9375 54.4688 69.6445 53.9316 69.2539 53.4824C68.8828 53.0332 68.4043 52.6914 67.8184 52.457C67.252 52.2031 66.5781 52.0762 65.7969 52.0762C65.2891 52.0762 64.8008 52.1543 64.332 52.3105C63.8828 52.4473 63.4727 52.6523 63.1016 52.9258C62.7305 53.1992 62.4082 53.541 62.1348 53.9512C61.8809 54.3418 61.6953 54.7812 61.5781 55.2695H59.5859L60.0547 43.1992H71.4805V45.0156H61.9297L61.5781 52.4277L61.6367 52.4863C62.2227 51.8027 62.8965 51.2754 63.6582 50.9043C64.4199 50.5137 65.2695 50.3184 66.207 50.3184C67.1836 50.3184 68.0625 50.5039 68.8438 50.875C69.625 51.2461 70.2891 51.7539 70.8359 52.3984C71.3828 53.0234 71.8027 53.7559 72.0957 54.5957C72.3887 55.416 72.5352 56.2949 72.5352 57.2324C72.5352 58.2285 72.3789 59.166 72.0664 60.0449C71.7539 60.9043 71.3145 61.666 70.748 62.3301C70.1816 62.9746 69.4785 63.4824 68.6387 63.8535C67.8184 64.2246 66.9004 64.4102 65.8848 64.4102C64.6348 64.4102 63.541 64.2734 62.6035 64C61.666 63.7461 60.8457 63.4824 60.1426 63.209L60.2305 61.2461C60.5625 61.4219 60.9434 61.5977 61.373 61.7734C61.8223 61.9297 62.2812 62.0762 62.75 62.2129C63.2383 62.3301 63.7363 62.4277 64.2441 62.5059C64.752 62.584 65.2305 62.623 65.6797 62.623Z" fill="#666666"/>
    <path d="M25.543 12.5156H28.9414C29.5273 12.5156 30.1328 12.4863 30.7578 12.4277C31.3828 12.3496 31.9492 12.2031 32.457 11.9883C32.9844 11.7734 33.4141 11.4707 33.7461 11.0801C34.0781 10.6699 34.2441 10.1328 34.2441 9.46875C34.2441 8.74609 34.0781 8.18945 33.7461 7.79883C33.4141 7.38867 32.9941 7.0957 32.4863 6.91992C31.998 6.74414 31.4609 6.64648 30.875 6.62695C30.3086 6.58789 29.7812 6.56836 29.293 6.56836H25.543V12.5156ZM33.3652 13.5996C33.9316 13.6973 34.4199 13.9121 34.8301 14.2441C35.2598 14.5566 35.6113 14.9277 35.8848 15.3574C36.1582 15.7676 36.3633 16.2168 36.5 16.7051C36.6367 17.1738 36.7246 17.6133 36.7637 18.0234C36.8027 18.5898 36.8516 19.1953 36.9102 19.8398C36.9688 20.4648 37.0371 21.0605 37.1152 21.627C37.2129 22.1934 37.3203 22.6914 37.4375 23.1211C37.5742 23.5508 37.7305 23.8438 37.9062 24H34.625C34.4492 23.5898 34.3125 23.1699 34.2148 22.7402C34.1172 22.291 34.0391 21.8516 33.9805 21.4219C33.9219 20.9922 33.873 20.5918 33.834 20.2207C33.8145 19.8301 33.7852 19.4883 33.7461 19.1953C33.6484 18.4922 33.5508 17.8965 33.4531 17.4082C33.3555 16.9199 33.1895 16.5293 32.9551 16.2363C32.7207 15.9238 32.3984 15.6992 31.9883 15.5625C31.5781 15.4062 31.0215 15.3184 30.3184 15.2988H25.543V24H22.5547V3.78516H29.7324C30.6895 3.78516 31.6172 3.87305 32.5156 4.04883C33.4336 4.22461 34.2441 4.52734 34.9473 4.95703C35.6699 5.38672 36.2461 5.95312 36.6758 6.65625C37.1055 7.35938 37.3203 8.23828 37.3203 9.29297C37.3203 9.91797 37.1934 10.4844 36.9395 10.9922C36.6855 11.4805 36.3633 11.9004 35.9727 12.252C35.582 12.6035 35.1523 12.8867 34.6836 13.1016C34.2344 13.3164 33.7949 13.4629 33.3652 13.541V13.5996ZM53.1699 20.1621V23.0039C52.8379 23.1797 52.5059 23.3457 52.1738 23.502C51.8418 23.6387 51.4805 23.7656 51.0898 23.8828C50.6992 23.9805 50.2598 24.0586 49.7715 24.1172C49.2832 24.1758 48.7168 24.2051 48.0723 24.2051C46.7441 24.2051 45.6016 24.0098 44.6445 23.6191C43.707 23.209 42.9258 22.6523 42.3008 21.9492C41.6953 21.2461 41.2461 20.416 40.9531 19.459C40.6797 18.4824 40.543 17.4375 40.543 16.3242C40.543 15.0938 40.7188 14 41.0703 13.043C41.4219 12.0664 41.9102 11.2363 42.5352 10.5527C43.1797 9.86914 43.9316 9.35156 44.791 9C45.6504 8.62891 46.5879 8.44336 47.6035 8.44336C48.7168 8.44336 49.6934 8.63867 50.5332 9.0293C51.373 9.40039 52.0664 9.91797 52.6133 10.582C53.1797 11.2461 53.5996 12.0273 53.873 12.9258C54.166 13.8242 54.3125 14.791 54.3125 15.8262V17.2617H43.5312C43.6289 18.668 44.0781 19.752 44.8789 20.5137C45.6797 21.2754 46.8027 21.6562 48.248 21.6562C49.4395 21.6562 50.416 21.5 51.1777 21.1875C51.9395 20.875 52.6035 20.5332 53.1699 20.1621ZM43.5898 14.6836H51.3535C51.3145 13.5703 50.9824 12.6719 50.3574 11.9883C49.7324 11.2852 48.8438 10.9336 47.6914 10.9336C46.5 10.9336 45.543 11.2949 44.8203 12.0176C44.1172 12.7402 43.707 13.6289 43.5898 14.6836ZM66.2656 2.4375V4.63477C65.9922 4.57617 65.6895 4.53711 65.3574 4.51758C65.0254 4.47852 64.7715 4.45898 64.5957 4.45898C64.127 4.45898 63.7559 4.52734 63.4824 4.66406C63.2285 4.80078 63.0332 4.99609 62.8965 5.25C62.7793 5.50391 62.7012 5.80664 62.6621 6.1582C62.6426 6.50977 62.6328 6.90039 62.6328 7.33008V8.88281H66.1484V11.4609H62.6328V24H59.7617V11.4609H56.6562V8.88281H59.7617V6.01172C59.7617 3.27734 61.1875 1.91016 64.0391 1.91016C64.2344 1.91016 64.5664 1.95898 65.0352 2.05664C65.5039 2.1543 65.9141 2.28125 66.2656 2.4375ZM72.5352 24.5566H68.7559V20.748H72.5352V24.5566Z" fill="#333333"/>
    <path d="M65.3574 140.547C64.6152 140.547 63.9805 140.693 63.4531 140.986C62.9453 141.279 62.5059 141.68 62.1348 142.188C61.7832 142.676 61.5 143.232 61.2852 143.857C61.0898 144.482 60.9336 145.127 60.8164 145.791C60.6992 146.436 60.6211 147.08 60.582 147.725C60.5625 148.369 60.5527 148.945 60.5527 149.453C60.5527 150.234 60.5918 151.133 60.6699 152.148C60.7676 153.164 60.9727 154.131 61.2852 155.049C61.6172 155.967 62.0957 156.748 62.7207 157.393C63.3652 158.018 64.2441 158.33 65.3574 158.33C66.4512 158.33 67.3203 158.018 67.9648 157.393C68.6094 156.748 69.0879 155.967 69.4004 155.049C69.7324 154.131 69.9375 153.164 70.0156 152.148C70.1133 151.133 70.1621 150.234 70.1621 149.453C70.1621 148.945 70.1426 148.369 70.1035 147.725C70.084 147.08 70.0156 146.436 69.8984 145.791C69.7812 145.127 69.6152 144.482 69.4004 143.857C69.1855 143.232 68.9023 142.676 68.5508 142.188C68.1992 141.68 67.7598 141.279 67.2324 140.986C66.7051 140.693 66.0801 140.547 65.3574 140.547ZM65.3574 138.789C66.7637 138.789 67.916 139.102 68.8145 139.727C69.7129 140.332 70.416 141.133 70.9238 142.129C71.4316 143.125 71.7734 144.268 71.9492 145.557C72.1445 146.826 72.2422 148.125 72.2422 149.453C72.2422 150.781 72.1445 152.08 71.9492 153.35C71.7734 154.619 71.4316 155.762 70.9238 156.777C70.416 157.793 69.7129 158.613 68.8145 159.238C67.916 159.844 66.7637 160.146 65.3574 160.146C63.9316 160.146 62.7695 159.844 61.8711 159.238C60.9727 158.613 60.2695 157.793 59.7617 156.777C59.2539 155.762 58.9023 154.619 58.707 153.35C58.5312 152.08 58.4434 150.781 58.4434 149.453C58.4434 148.125 58.5312 146.826 58.707 145.557C58.9023 144.268 59.2539 143.125 59.7617 142.129C60.2695 141.133 60.9727 140.332 61.8711 139.727C62.7695 139.102 63.9316 138.789 65.3574 138.789Z" fill="#666666"/>
    <path d="M166.179 177.184L170.925 173.229H172.624V194H170.72V175.572L167.321 178.531L166.179 177.184Z" fill="#666666"/>
    <path d="M307.529 172.789C308.369 172.789 309.16 172.896 309.902 173.111C310.664 173.326 311.328 173.658 311.895 174.107C312.461 174.537 312.91 175.094 313.242 175.777C313.574 176.441 313.74 177.223 313.74 178.121C313.74 178.941 313.555 179.781 313.184 180.641C312.832 181.5 312.354 182.369 311.748 183.248C311.162 184.107 310.488 184.967 309.727 185.826C308.984 186.666 308.223 187.477 307.441 188.258C306.68 189.02 305.928 189.742 305.186 190.426C304.463 191.09 303.838 191.676 303.311 192.184H314.033V194H300.967V191.92C301.416 191.51 301.992 190.982 302.695 190.338C303.398 189.674 304.141 188.941 304.922 188.141C305.723 187.32 306.523 186.461 307.324 185.562C308.125 184.664 308.848 183.775 309.492 182.896C310.137 182.018 310.654 181.178 311.045 180.377C311.455 179.576 311.66 178.863 311.66 178.238C311.66 177.633 311.543 177.105 311.309 176.656C311.094 176.188 310.791 175.797 310.4 175.484C310.029 175.172 309.59 174.938 309.082 174.781C308.574 174.625 308.037 174.547 307.471 174.547C306.611 174.547 305.713 174.732 304.775 175.104C303.838 175.455 302.959 175.865 302.139 176.334L301.787 174.43C302.549 174.059 303.408 173.697 304.365 173.346C305.342 172.975 306.396 172.789 307.529 172.789Z" fill="#666666"/>
    <path d="M445.504 192.623C446.188 192.623 446.832 192.535 447.438 192.359C448.062 192.164 448.6 191.881 449.049 191.51C449.518 191.139 449.879 190.68 450.133 190.133C450.406 189.566 450.543 188.912 450.543 188.17C450.543 187.35 450.357 186.676 449.986 186.148C449.635 185.602 449.166 185.182 448.58 184.889C448.014 184.576 447.369 184.361 446.646 184.244C445.924 184.127 445.201 184.068 444.479 184.068H442.574V182.252H444.479C445.143 182.252 445.816 182.193 446.5 182.076C447.184 181.959 447.799 181.754 448.346 181.461C448.893 181.148 449.342 180.738 449.693 180.23C450.045 179.723 450.221 179.078 450.221 178.297C450.221 177.711 450.094 177.184 449.84 176.715C449.605 176.246 449.283 175.855 448.873 175.543C448.463 175.211 447.984 174.967 447.438 174.811C446.891 174.635 446.314 174.537 445.709 174.518C445.357 174.498 444.947 174.518 444.479 174.576C444.029 174.615 443.57 174.684 443.102 174.781C442.633 174.879 442.164 174.996 441.695 175.133C441.246 175.27 440.836 175.426 440.465 175.602L440.289 173.785C441.051 173.492 441.861 173.258 442.721 173.082C443.6 172.887 444.479 172.789 445.357 172.789C446.236 172.789 447.086 172.896 447.906 173.111C448.746 173.326 449.488 173.658 450.133 174.107C450.797 174.557 451.324 175.143 451.715 175.865C452.105 176.568 452.301 177.428 452.301 178.443C452.301 179.068 452.184 179.645 451.949 180.172C451.734 180.699 451.432 181.158 451.041 181.549C450.67 181.939 450.23 182.271 449.723 182.545C449.215 182.799 448.668 182.984 448.082 183.102V183.16C448.746 183.316 449.352 183.551 449.898 183.863C450.465 184.156 450.953 184.527 451.363 184.977C451.773 185.406 452.086 185.914 452.301 186.5C452.535 187.086 452.652 187.73 452.652 188.434C452.652 189.41 452.447 190.27 452.037 191.012C451.627 191.754 451.08 192.379 450.396 192.887C449.732 193.395 448.971 193.775 448.111 194.029C447.271 194.283 446.412 194.41 445.533 194.41C444.654 194.41 443.697 194.303 442.662 194.088C441.646 193.873 440.729 193.6 439.908 193.268L440.172 191.363C441.949 192.203 443.727 192.623 445.504 192.623Z" fill="#666666"/>
    <path d="M587.639 194.264V189.166H578.498V187.262L587.023 173.199H589.602V187.525H592.941V189.166H589.602V194.264H587.639ZM587.639 187.525V175.25L580.256 187.525H587.639Z" fill="#666666"/>
</svg>
