<svg width="621" height="502" viewBox="0 0 621 502" fill="none" xmlns="http://www.w3.org/2000/svg">
    <circle cx="206" cy="280" r="188" fill="#F9D9DF" fill-opacity="0.5"/>
    <line x1="67.5" y1="40" x2="67.5" y2="396" stroke="#666666"/>
    <line x1="308.5" y1="40" x2="308.5" y2="396" stroke="#DDDDDD" stroke-width="3" stroke-dasharray="5 5"/>
    <line x1="547.5" y1="40" x2="547.5" y2="397" stroke="#666666"/>
    <line x1="547" y1="396.5" x2="67" y2="396.5" stroke="#666666"/>
    <line x1="547" y1="223.5" x2="68" y2="223.5" stroke="#DDDDDD" stroke-width="3" stroke-dasharray="5 5"/>
    <circle cx="136" cy="340" r="12" fill="#999999"/>
    <path d="M97.4609 366.301C96.3867 366.301 95.5078 366.525 94.8242 366.975C94.1602 367.404 93.6328 367.98 93.2422 368.703C92.8711 369.406 92.6172 370.207 92.4805 371.105C92.3438 371.984 92.2754 372.863 92.2754 373.742H92.3047C92.6953 372.805 93.291 372.092 94.0918 371.604C94.9121 371.096 95.8496 370.842 96.9043 370.842C98.6816 370.842 100.039 371.359 100.977 372.395C101.934 373.43 102.412 374.807 102.412 376.525C102.412 378.303 101.885 379.709 100.83 380.744C99.7754 381.76 98.4375 382.268 96.8164 382.268C94.7266 382.268 93.1348 381.633 92.041 380.363C90.9668 379.094 90.4297 377.131 90.4297 374.475C90.4297 373.322 90.5176 372.17 90.6934 371.018C90.8887 369.865 91.2402 368.83 91.748 367.912C92.2559 366.975 92.959 366.223 93.8574 365.656C94.7559 365.07 95.9277 364.777 97.373 364.777C98.2129 364.777 98.9551 364.865 99.5996 365.041C100.264 365.197 100.84 365.354 101.328 365.51L101.035 367.062C100.312 366.77 99.7852 366.594 99.4531 366.535C99.1406 366.457 98.4766 366.379 97.4609 366.301ZM96.875 372.307C95.4297 372.307 94.3457 372.717 93.623 373.537C92.9004 374.338 92.5391 375.412 92.5391 376.76C92.5391 377.814 92.9004 378.752 93.623 379.572C94.3457 380.373 95.3125 380.773 96.5234 380.773C97.832 380.773 98.8281 380.402 99.5117 379.66C100.215 378.898 100.566 377.873 100.566 376.584C100.566 375.236 100.244 374.191 99.5996 373.449C98.9551 372.688 98.0469 372.307 96.875 372.307ZM96.3477 359.299C100.586 359.299 104.004 360.637 106.602 363.312C109.199 365.988 110.498 369.309 110.498 373.273C110.498 377.277 109.219 380.607 106.66 383.264C104.121 385.939 100.684 387.277 96.3477 387.277C92.1094 387.277 88.6914 385.939 86.0938 383.264C83.5156 380.607 82.2266 377.277 82.2266 373.273C82.2266 369.309 83.5254 365.988 86.123 363.312C88.7207 360.637 92.1289 359.299 96.3477 359.299ZM96.3477 360.471C92.6172 360.471 89.5312 361.682 87.0898 364.104C84.6484 366.525 83.4277 369.602 83.4277 373.332C83.4277 376.926 84.5996 379.963 86.9434 382.443C89.2871 384.904 92.4219 386.135 96.3477 386.135C100.293 386.135 103.438 384.895 105.781 382.414C108.125 379.914 109.297 376.887 109.297 373.332C109.297 369.562 108.066 366.477 105.605 364.074C103.164 361.672 100.078 360.471 96.3477 360.471Z" fill="#666666"/>
    <path d="M140.123 385.168V375.676C138.639 375.949 137.018 376.135 135.26 376.232C133.502 376.311 131.627 376.359 129.635 376.379C129.635 378.039 129.566 379.572 129.43 380.979C129.293 382.365 129 383.635 128.551 384.787L126.588 384.289C127.037 383.156 127.32 381.906 127.438 380.539C127.555 379.172 127.613 377.785 127.613 376.379H120.172V374.68H128.932C130.885 374.68 132.818 374.641 134.732 374.562C136.646 374.465 138.443 374.26 140.123 373.947V360.031H142.145V385.168H140.123ZM136.168 370.578C135.562 370.695 134.82 370.793 133.941 370.871C133.062 370.93 132.154 370.959 131.217 370.959H122.486V361.496H135.406V363.225H124.508V369.201H131.246C132.027 369.201 132.838 369.172 133.678 369.113C134.537 369.055 135.279 368.947 135.904 368.791L136.168 370.578Z" fill="#666666"/>
    <path d="M113 358L126.047 347" stroke="#666666" stroke-linecap="round"/>
    <circle cx="266" cy="272" r="12" fill="#999999"/>
    <path d="M115.113 289.773C116.48 289.773 117.516 289.354 118.219 288.514C118.922 287.674 119.273 286.609 119.273 285.32C119.273 284.031 118.932 283.025 118.248 282.303C117.584 281.58 116.588 281.219 115.26 281.219C114.381 281.219 113.6 281.473 112.916 281.98C112.232 282.469 111.783 283.133 111.568 283.973H109.869L110.338 274.188H120.123V275.711H111.92L111.568 281.541L111.686 281.629C112.193 281.043 112.779 280.574 113.443 280.223C114.107 279.871 114.83 279.695 115.611 279.695C117.174 279.695 118.463 280.223 119.479 281.277C120.514 282.312 121.031 283.68 121.031 285.379C121.031 287.039 120.523 288.436 119.508 289.568C118.492 290.701 117.105 291.268 115.348 291.268C114.254 291.268 113.297 291.16 112.477 290.945C111.656 290.711 110.963 290.467 110.396 290.213L110.484 288.543C111.48 288.992 112.184 289.275 112.594 289.393C113.023 289.51 113.863 289.637 115.113 289.773ZM115.348 268.299C119.586 268.299 123.004 269.637 125.602 272.312C128.199 274.988 129.498 278.309 129.498 282.273C129.498 286.277 128.219 289.607 125.66 292.264C123.121 294.939 119.684 296.277 115.348 296.277C111.109 296.277 107.691 294.939 105.094 292.264C102.516 289.607 101.227 286.277 101.227 282.273C101.227 278.309 102.525 274.988 105.123 272.312C107.721 269.637 111.129 268.299 115.348 268.299ZM115.348 269.471C111.617 269.471 108.531 270.682 106.09 273.104C103.648 275.525 102.428 278.602 102.428 282.332C102.428 285.926 103.6 288.963 105.943 291.443C108.287 293.904 111.422 295.135 115.348 295.135C119.293 295.135 122.438 293.895 124.781 291.414C127.125 288.914 128.297 285.887 128.297 282.332C128.297 278.562 127.066 275.477 124.605 273.074C122.164 270.672 119.078 269.471 115.348 269.471Z" fill="#666666"/>
    <path d="M142.361 290.213C142.361 288.729 143.104 287.576 144.588 286.756C146.072 285.916 148.416 285.496 151.619 285.496C154.803 285.496 157.137 285.906 158.621 286.727C160.125 287.547 160.877 288.709 160.877 290.213C160.877 291.717 160.125 292.879 158.621 293.699C157.137 294.52 154.803 294.93 151.619 294.93C148.416 294.93 146.072 294.52 144.588 293.699C143.104 292.879 142.361 291.717 142.361 290.213ZM144.295 290.213C144.295 291.307 144.93 292.088 146.199 292.557C147.488 293.025 149.295 293.26 151.619 293.26C153.924 293.26 155.721 293.025 157.01 292.557C158.299 292.088 158.943 291.307 158.943 290.213C158.943 289.119 158.299 288.338 157.01 287.869C155.721 287.4 153.924 287.166 151.619 287.166C149.295 287.166 147.488 287.4 146.199 287.869C144.93 288.338 144.295 289.119 144.295 290.213ZM153.143 283.27C151.541 282.547 150.33 281.844 149.51 281.16C148.689 280.457 148.084 279.842 147.693 279.314C147.361 278.865 147.137 278.484 147.02 278.172C146.902 277.84 146.824 277.537 146.785 277.264H146.287C146.248 277.537 146.17 277.859 146.053 278.23C145.936 278.602 145.76 278.982 145.525 279.373C145.291 279.783 145.008 280.193 144.676 280.604C144.363 281.014 143.973 281.434 143.504 281.863C143.055 282.273 142.508 282.703 141.863 283.152C141.219 283.602 140.447 284.061 139.549 284.529L138.172 283.094C139.852 282.254 141.18 281.365 142.156 280.428C143.133 279.471 143.865 278.514 144.354 277.557C144.861 276.6 145.174 275.682 145.291 274.803C145.428 273.904 145.496 273.094 145.496 272.371V272.225H139.08V270.496H153.729V272.225H147.518V272.371C147.518 273.074 147.576 273.836 147.693 274.656C147.83 275.477 148.133 276.307 148.602 277.146C149.09 277.967 149.793 278.777 150.711 279.578C151.648 280.359 152.918 281.062 154.52 281.688L153.143 283.27ZM158.416 284.354V277.146H152.146V275.477H158.416V269.031H160.438V284.354H158.416ZM175.965 294.461V285.643H164.832V283.885H189.148V285.643H177.986V294.461H175.965ZM176.844 274.129C176.805 274.344 176.707 274.607 176.551 274.92C176.395 275.213 176.209 275.496 175.994 275.77C175.369 276.59 174.344 277.391 172.918 278.172C171.512 278.934 169.695 279.568 167.469 280.076L166.59 278.523C168.387 278.113 169.881 277.635 171.072 277.088C172.283 276.541 173.25 275.945 173.973 275.301C174.695 274.637 175.203 273.943 175.496 273.221C175.809 272.479 175.965 271.727 175.965 270.965V270.027H178.045V270.965C178.045 271.746 178.201 272.498 178.514 273.221C178.846 273.943 179.373 274.617 180.096 275.242C180.838 275.867 181.805 276.434 182.996 276.941C184.188 277.43 185.652 277.83 187.391 278.143L186.512 279.754C184.383 279.305 182.605 278.719 181.18 277.996C179.773 277.254 178.758 276.512 178.133 275.77C177.898 275.496 177.693 275.213 177.518 274.92C177.361 274.607 177.264 274.344 177.225 274.129H176.844ZM212.029 294.168V288.074C210.213 288.621 208.094 289.002 205.672 289.217C203.27 289.432 200.633 289.539 197.762 289.539H193.543V279.256H203.68V272.518H193.543V270.789H205.701V280.926H195.564V287.811H197.791C199.08 287.811 200.359 287.791 201.629 287.752C202.918 287.713 204.168 287.635 205.379 287.518C206.59 287.4 207.752 287.244 208.865 287.049C209.998 286.834 211.053 286.57 212.029 286.258V269.031H214.051V294.168H212.029Z" fill="#666666"/>
    <path d="M228.004 284.066L239.004 284" stroke="#666666" stroke-linecap="round"/>
    <path d="M239 284L255 276" stroke="#666666" stroke-linecap="round"/>
    <circle cx="271" cy="326" r="12" fill="#999999"/>
    <path d="M236.373 378.15V373.756H228.492V372.115L235.904 361.188H238.072V372.35H240.943V373.756H238.072V378.15H236.373ZM236.373 372.35V362.916L230.016 372.35H236.373ZM235.348 355.299C239.586 355.299 243.004 356.637 245.602 359.312C248.199 361.988 249.498 365.309 249.498 369.273C249.498 373.277 248.219 376.607 245.66 379.264C243.121 381.939 239.684 383.277 235.348 383.277C231.109 383.277 227.691 381.939 225.094 379.264C222.516 376.607 221.227 373.277 221.227 369.273C221.227 365.309 222.525 361.988 225.123 359.312C227.721 356.637 231.129 355.299 235.348 355.299ZM235.348 356.471C231.617 356.471 228.531 357.682 226.09 360.104C223.648 362.525 222.428 365.602 222.428 369.332C222.428 372.926 223.6 375.963 225.943 378.443C228.287 380.904 231.422 382.135 235.348 382.135C239.293 382.135 242.438 380.895 244.781 378.414C247.125 375.914 248.297 372.887 248.297 369.332C248.297 365.562 247.066 362.477 244.605 360.074C242.164 357.672 239.078 356.471 235.348 356.471Z" fill="#666666"/>
    <path d="M260.896 378.004C260.896 376.539 261.697 375.426 263.299 374.664C264.725 373.98 266.824 373.6 269.598 373.521V370.27H258.172V368.541H283.074V370.27H271.619V373.521C274.373 373.58 276.473 373.961 277.918 374.664C279.539 375.426 280.35 376.539 280.35 378.004C280.35 379.469 279.539 380.582 277.918 381.344C276.297 382.125 273.865 382.516 270.623 382.516C267.342 382.516 264.9 382.125 263.299 381.344C261.697 380.582 260.896 379.469 260.896 378.004ZM270.477 361.012C270.398 361.227 270.291 361.451 270.154 361.686C270.018 361.92 269.822 362.164 269.568 362.418C268.846 363.141 267.801 363.873 266.434 364.615C265.086 365.338 263.309 365.924 261.102 366.373L260.223 364.82C261.785 364.508 263.152 364.088 264.324 363.561C265.496 363.033 266.473 362.477 267.254 361.891C268.035 361.305 268.621 360.738 269.012 360.191C269.402 359.625 269.598 359.137 269.598 358.727V358.639H261.043V356.91H280.232V358.639H271.678V358.727C271.678 359.137 271.854 359.615 272.205 360.162C272.557 360.709 273.104 361.256 273.846 361.803C274.607 362.33 275.574 362.838 276.746 363.326C277.938 363.795 279.363 364.166 281.023 364.439L280.145 366.051C277.977 365.66 276.219 365.133 274.871 364.469C273.543 363.785 272.508 363.102 271.766 362.418C271.512 362.184 271.307 361.949 271.15 361.715C271.014 361.461 270.916 361.227 270.857 361.012H270.477ZM262.947 378.004C262.947 378.98 263.631 379.703 264.998 380.172C266.385 380.641 268.26 380.875 270.623 380.875C272.967 380.875 274.832 380.641 276.219 380.172C277.605 379.703 278.299 378.98 278.299 378.004C278.299 377.027 277.605 376.305 276.219 375.836C274.832 375.367 272.967 375.133 270.623 375.133C268.26 375.133 266.385 375.367 264.998 375.836C263.631 376.305 262.947 377.027 262.947 378.004ZM305.955 371.5V356.031H307.977V362.916H312.811V364.645H307.977V371.5H305.955ZM288.523 363.121C288.523 363.844 288.641 364.498 288.875 365.084C289.109 365.65 289.441 366.139 289.871 366.549C290.301 366.939 290.809 367.242 291.395 367.457C291.98 367.672 292.615 367.779 293.299 367.779C293.982 367.779 294.607 367.672 295.174 367.457C295.76 367.242 296.268 366.939 296.697 366.549C297.127 366.139 297.459 365.65 297.693 365.084C297.928 364.498 298.045 363.844 298.045 363.121C298.045 362.398 297.928 361.754 297.693 361.188C297.459 360.602 297.127 360.113 296.697 359.723C296.268 359.332 295.76 359.029 295.174 358.814C294.607 358.6 293.982 358.492 293.299 358.492C292.615 358.492 291.98 358.6 291.395 358.814C290.809 359.029 290.301 359.332 289.871 359.723C289.441 360.113 289.109 360.602 288.875 361.188C288.641 361.754 288.523 362.398 288.523 363.121ZM286.59 363.121C286.59 362.145 286.756 361.266 287.088 360.484C287.42 359.703 287.879 359.039 288.465 358.492C289.07 357.926 289.783 357.496 290.604 357.203C291.424 356.91 292.322 356.764 293.299 356.764C294.256 356.764 295.145 356.91 295.965 357.203C296.785 357.496 297.488 357.926 298.074 358.492C298.68 359.039 299.148 359.703 299.48 360.484C299.812 361.266 299.979 362.145 299.979 363.121C299.979 364.098 299.812 364.977 299.48 365.758C299.148 366.539 298.68 367.213 298.074 367.779C297.488 368.326 296.785 368.756 295.965 369.068C295.145 369.361 294.256 369.508 293.299 369.508C292.322 369.508 291.424 369.361 290.604 369.068C289.783 368.756 289.07 368.326 288.465 367.779C287.879 367.213 287.42 366.539 287.088 365.758C286.756 364.977 286.59 364.098 286.59 363.121ZM289.9 377.271C289.9 375.846 290.643 374.713 292.127 373.873C293.611 373.033 295.955 372.613 299.158 372.613C302.322 372.613 304.656 373.033 306.16 373.873C307.664 374.713 308.416 375.846 308.416 377.271C308.416 378.697 307.664 379.83 306.16 380.67C304.656 381.51 302.322 381.93 299.158 381.93C295.955 381.93 293.611 381.51 292.127 380.67C290.643 379.83 289.9 378.697 289.9 377.271ZM291.951 377.271C291.951 378.287 292.566 379.049 293.797 379.557C295.047 380.064 296.834 380.318 299.158 380.318C301.463 380.318 303.24 380.064 304.49 379.557C305.74 379.049 306.365 378.287 306.365 377.271C306.365 376.256 305.74 375.494 304.49 374.986C303.24 374.479 301.463 374.225 299.158 374.225C296.834 374.225 295.047 374.479 293.797 374.986C292.566 375.494 291.951 376.256 291.951 377.271Z" fill="#666666"/>
    <path d="M252 352L264.109 336" stroke="#666666" stroke-linecap="round"/>
    <circle cx="262" cy="247" r="12" fill="#999999"/>
    <path d="M168.85 222.773C170.217 222.773 171.291 222.471 172.072 221.865C172.854 221.26 173.244 220.371 173.244 219.199C173.244 218.027 172.785 217.197 171.867 216.709C170.969 216.221 169.895 215.977 168.645 215.977H166.389V214.365H168.645C169.895 214.365 170.91 214.111 171.691 213.604C172.492 213.096 172.893 212.324 172.893 211.289C172.893 210.332 172.512 209.59 171.75 209.062C170.988 208.535 170.09 208.271 169.055 208.271C168.391 208.271 167.639 208.359 166.799 208.535C165.959 208.691 165.227 208.926 164.602 209.238L164.396 207.715C165.061 207.441 165.764 207.217 166.506 207.041C167.268 206.865 168.039 206.777 168.82 206.777C170.656 206.777 172.102 207.188 173.156 208.008C174.211 208.809 174.738 209.941 174.738 211.406C174.738 212.5 174.348 213.359 173.566 213.984C172.805 214.609 171.994 214.971 171.135 215.068V215.156C172.248 215.41 173.176 215.879 173.918 216.562C174.68 217.227 175.061 218.184 175.061 219.434C175.061 220.879 174.484 222.051 173.332 222.949C172.199 223.828 170.715 224.268 168.879 224.268C168.137 224.268 167.336 224.18 166.477 224.004C165.617 223.828 164.826 223.594 164.104 223.301L164.309 221.689C165.051 222.021 165.793 222.285 166.535 222.48C167.297 222.676 168.068 222.773 168.85 222.773ZM169.348 201.299C173.586 201.299 177.004 202.637 179.602 205.312C182.199 207.988 183.498 211.309 183.498 215.273C183.498 219.277 182.219 222.607 179.66 225.264C177.121 227.939 173.684 229.277 169.348 229.277C165.109 229.277 161.691 227.939 159.094 225.264C156.516 222.607 155.227 219.277 155.227 215.273C155.227 211.309 156.525 207.988 159.123 205.312C161.721 202.637 165.129 201.299 169.348 201.299ZM169.348 202.471C165.617 202.471 162.531 203.682 160.09 206.104C157.648 208.525 156.428 211.602 156.428 215.332C156.428 218.926 157.6 221.963 159.943 224.443C162.287 226.904 165.422 228.135 169.348 228.135C173.293 228.135 176.438 226.895 178.781 224.414C181.125 221.914 182.297 218.887 182.297 215.332C182.297 211.562 181.066 208.477 178.605 206.074C176.164 203.672 173.078 202.471 169.348 202.471Z" fill="#666666"/>
    <path d="M194.662 208.271C194.662 207.451 194.857 206.699 195.248 206.016C195.658 205.312 196.264 204.717 197.064 204.229C197.865 203.721 198.871 203.33 200.082 203.057C201.293 202.783 202.709 202.646 204.33 202.646C205.932 202.646 207.338 202.783 208.549 203.057C209.76 203.33 210.766 203.721 211.566 204.229C212.387 204.717 212.992 205.312 213.383 206.016C213.793 206.699 213.998 207.451 213.998 208.271C213.998 209.092 213.793 209.854 213.383 210.557C212.992 211.24 212.387 211.836 211.566 212.344C210.766 212.832 209.76 213.213 208.549 213.486C207.338 213.76 205.932 213.896 204.33 213.896C202.709 213.896 201.293 213.76 200.082 213.486C198.871 213.213 197.865 212.832 197.064 212.344C196.264 211.836 195.658 211.24 195.248 210.557C194.857 209.854 194.662 209.092 194.662 208.271ZM196.566 208.271C196.566 209.463 197.221 210.43 198.529 211.172C199.838 211.895 201.771 212.256 204.33 212.256C206.889 212.256 208.822 211.895 210.131 211.172C211.439 210.43 212.094 209.463 212.094 208.271C212.094 207.08 211.439 206.113 210.131 205.371C208.822 204.629 206.889 204.258 204.33 204.258C201.771 204.258 199.838 204.629 198.529 205.371C197.221 206.113 196.566 207.08 196.566 208.271ZM203.305 227.461V219.229H192.172V217.471H216.488V219.229H205.326V227.461H203.305Z" fill="#666666"/>
    <path d="M231 218H242" stroke="#666666" stroke-linecap="round"/>
    <path d="M242 218L255 237" stroke="#666666" stroke-linecap="round"/>
    <circle cx="280" cy="295" r="12" fill="#999999"/>
    <path d="M189.143 317.777C190.627 317.777 191.887 318.168 192.922 318.949C193.957 319.73 194.475 320.873 194.475 322.377C194.475 323.275 194.191 324.184 193.625 325.102C193.078 326 192.189 327.006 190.959 328.119C190.607 328.451 189.729 329.164 188.322 330.258C186.936 331.332 186.008 332.094 185.539 332.543H194.738V334.096H183.518V332.25C183.889 331.898 184.816 331.146 186.301 329.994C187.785 328.842 188.859 327.943 189.523 327.299C190.871 325.971 191.73 324.945 192.102 324.223C192.492 323.5 192.688 322.904 192.688 322.436C192.688 321.518 192.346 320.766 191.662 320.18C190.998 319.594 190.148 319.301 189.113 319.301C188.371 319.301 187.59 319.467 186.77 319.799C185.949 320.111 185.188 320.463 184.484 320.854L184.191 319.271C184.875 318.939 185.627 318.607 186.447 318.275C187.268 317.943 188.166 317.777 189.143 317.777ZM189.348 312.299C193.586 312.299 197.004 313.637 199.602 316.312C202.199 318.988 203.498 322.309 203.498 326.273C203.498 330.277 202.219 333.607 199.66 336.264C197.121 338.939 193.684 340.277 189.348 340.277C185.109 340.277 181.691 338.939 179.094 336.264C176.516 333.607 175.227 330.277 175.227 326.273C175.227 322.309 176.525 318.988 179.123 316.312C181.721 313.637 185.129 312.299 189.348 312.299ZM189.348 313.471C185.617 313.471 182.531 314.682 180.09 317.104C177.648 319.525 176.428 322.602 176.428 326.332C176.428 329.926 177.6 332.963 179.943 335.443C182.287 337.904 185.422 339.135 189.348 339.135C193.293 339.135 196.438 337.895 198.781 335.414C201.125 332.914 202.297 329.887 202.297 326.332C202.297 322.562 201.066 319.477 198.605 317.074C196.164 314.672 193.078 313.471 189.348 313.471Z" fill="#666666"/>
    <path d="M213.344 320.121C213.344 319.145 213.51 318.266 213.842 317.484C214.174 316.703 214.633 316.039 215.219 315.492C215.824 314.926 216.537 314.496 217.357 314.203C218.178 313.91 219.076 313.764 220.053 313.764C221.01 313.764 221.898 313.91 222.719 314.203C223.539 314.496 224.242 314.926 224.828 315.492C225.434 316.039 225.902 316.703 226.234 317.484C226.566 318.266 226.732 319.145 226.732 320.121C226.732 321.098 226.566 321.977 226.234 322.758C225.902 323.539 225.434 324.213 224.828 324.779C224.242 325.326 223.539 325.756 222.719 326.068C221.898 326.361 221.01 326.508 220.053 326.508C219.076 326.508 218.178 326.361 217.357 326.068C216.537 325.756 215.824 325.326 215.219 324.779C214.633 324.213 214.174 323.539 213.842 322.758C213.51 321.977 213.344 321.098 213.344 320.121ZM215.951 338.783V337.055H220.814V331.518H216.391V329.789H235.17V331.518H231.273V337.055H235.609V338.783H215.951ZM215.277 320.121C215.277 320.844 215.395 321.498 215.629 322.084C215.863 322.65 216.195 323.139 216.625 323.549C217.055 323.939 217.562 324.242 218.148 324.457C218.734 324.672 219.369 324.779 220.053 324.779C220.736 324.779 221.361 324.672 221.928 324.457C222.514 324.242 223.021 323.939 223.451 323.549C223.881 323.139 224.213 322.65 224.447 322.084C224.682 321.498 224.799 320.844 224.799 320.121C224.799 319.398 224.682 318.754 224.447 318.188C224.213 317.602 223.881 317.113 223.451 316.723C223.021 316.332 222.514 316.029 221.928 315.814C221.361 315.6 220.736 315.492 220.053 315.492C219.369 315.492 218.734 315.6 218.148 315.814C217.562 316.029 217.055 316.332 216.625 316.723C216.195 317.113 215.863 317.602 215.629 318.188C215.395 318.754 215.277 319.398 215.277 320.121ZM232.709 327.914V313.031H234.73V319.916H239.564V321.645H234.73V327.914H232.709ZM222.631 337.055H229.457V331.518H222.631V337.055Z" fill="#666666"/>
    <path d="M241 325.066L252 325" stroke="#666666" stroke-linecap="round"/>
    <path d="M252 325L270 302" stroke="#666666" stroke-linecap="round"/>
    <circle cx="324" cy="307" r="12" fill="#999999"/>
    <path d="M358.012 334.586L362.113 331.188H363.549V347.945H361.879V333.209L359.008 335.729L358.012 334.586ZM362.348 325.299C366.586 325.299 370.004 326.637 372.602 329.312C375.199 331.988 376.498 335.309 376.498 339.273C376.498 343.277 375.219 346.607 372.66 349.264C370.121 351.939 366.684 353.277 362.348 353.277C358.109 353.277 354.691 351.939 352.094 349.264C349.516 346.607 348.227 343.277 348.227 339.273C348.227 335.309 349.525 331.988 352.123 329.312C354.721 326.637 358.129 325.299 362.348 325.299ZM362.348 326.471C358.617 326.471 355.531 327.682 353.09 330.104C350.648 332.525 349.428 335.602 349.428 339.332C349.428 342.926 350.6 345.963 352.943 348.443C355.287 350.904 358.422 352.135 362.348 352.135C366.293 352.135 369.438 350.895 371.781 348.414C374.125 345.914 375.297 342.887 375.297 339.332C375.297 335.562 374.066 332.477 371.605 330.074C369.164 327.672 366.078 326.471 362.348 326.471Z" fill="#666666"/>
    <path d="M406.977 351.168V346.422C405.277 346.793 403.373 347.047 401.264 347.184C399.174 347.301 396.908 347.359 394.467 347.359H387.172V345.631H394.496H395.434V339.947H397.455V345.602C399.174 345.562 400.834 345.484 402.436 345.367C404.057 345.23 405.57 344.996 406.977 344.664V326.031H408.998V336.725H414.125V338.453H408.998V351.168H406.977ZM396.195 333.883C396.176 334.02 396.107 334.264 395.99 334.615C395.873 334.947 395.736 335.25 395.58 335.523C395.111 336.324 394.418 337.125 393.5 337.926C392.602 338.727 391.361 339.566 389.779 340.445L388.49 338.98C389.799 338.336 390.893 337.652 391.771 336.93C392.67 336.207 393.393 335.465 393.939 334.703C394.486 333.941 394.867 333.189 395.082 332.447C395.316 331.705 395.434 331.002 395.434 330.338V329.518H389.223V327.789H403.725V329.518H397.455V330.338C397.455 330.963 397.572 331.646 397.807 332.389C398.041 333.111 398.432 333.844 398.979 334.586C399.525 335.309 400.238 336.012 401.117 336.695C401.996 337.359 403.08 337.936 404.369 338.424L403.256 340.006C401.674 339.322 400.404 338.58 399.447 337.779C398.51 336.959 397.807 336.178 397.338 335.436C397.162 335.162 397.006 334.869 396.869 334.557C396.752 334.244 396.684 334.02 396.664 333.883H396.195Z" fill="#666666"/>
    <path d="M348 340L338.047 340" stroke="#666666" stroke-linecap="round"/>
    <path d="M338.047 340L326 319" stroke="#666666" stroke-linecap="round"/>
    <line x1="547" y1="41.5" x2="68" y2="41.5" stroke="#DDDDDD" stroke-width="3" stroke-dasharray="5 5"/>
    <path d="M2.05078 214.184L6.79688 210.229H8.49609V231H6.5918V212.572L3.19336 215.531L2.05078 214.184ZM21.0645 209.789C21.9043 209.789 22.6953 209.896 23.4375 210.111C24.1992 210.326 24.8633 210.658 25.4297 211.107C25.9961 211.537 26.4453 212.094 26.7773 212.777C27.1094 213.441 27.2754 214.223 27.2754 215.121C27.2754 215.941 27.0898 216.781 26.7188 217.641C26.3672 218.5 25.8887 219.369 25.2832 220.248C24.6973 221.107 24.0234 221.967 23.2617 222.826C22.5195 223.666 21.7578 224.477 20.9766 225.258C20.2148 226.02 19.4629 226.742 18.7207 227.426C17.998 228.09 17.373 228.676 16.8457 229.184H27.5684V231H14.502V228.92C14.9512 228.51 15.5273 227.982 16.2305 227.338C16.9336 226.674 17.6758 225.941 18.457 225.141C19.2578 224.32 20.0586 223.461 20.8594 222.562C21.6602 221.664 22.3828 220.775 23.0273 219.896C23.6719 219.018 24.1895 218.178 24.5801 217.377C24.9902 216.576 25.1953 215.863 25.1953 215.238C25.1953 214.633 25.0781 214.105 24.8438 213.656C24.6289 213.188 24.3262 212.797 23.9355 212.484C23.5645 212.172 23.125 211.938 22.6172 211.781C22.1094 211.625 21.5723 211.547 21.0059 211.547C20.1465 211.547 19.248 211.732 18.3105 212.104C17.373 212.455 16.4941 212.865 15.6738 213.334L15.3223 211.43C16.084 211.059 16.9434 210.697 17.9004 210.346C18.877 209.975 19.9316 209.789 21.0645 209.789ZM37.998 211.547C37.2559 211.547 36.6211 211.693 36.0938 211.986C35.5859 212.279 35.1465 212.68 34.7754 213.188C34.4238 213.676 34.1406 214.232 33.9258 214.857C33.7305 215.482 33.5742 216.127 33.457 216.791C33.3398 217.436 33.2617 218.08 33.2227 218.725C33.2031 219.369 33.1934 219.945 33.1934 220.453C33.1934 221.234 33.2324 222.133 33.3105 223.148C33.4082 224.164 33.6133 225.131 33.9258 226.049C34.2578 226.967 34.7363 227.748 35.3613 228.393C36.0059 229.018 36.8848 229.33 37.998 229.33C39.0918 229.33 39.9609 229.018 40.6055 228.393C41.25 227.748 41.7285 226.967 42.041 226.049C42.373 225.131 42.5781 224.164 42.6562 223.148C42.7539 222.133 42.8027 221.234 42.8027 220.453C42.8027 219.945 42.7832 219.369 42.7441 218.725C42.7246 218.08 42.6562 217.436 42.5391 216.791C42.4219 216.127 42.2559 215.482 42.041 214.857C41.8262 214.232 41.543 213.676 41.1914 213.188C40.8398 212.68 40.4004 212.279 39.873 211.986C39.3457 211.693 38.7207 211.547 37.998 211.547ZM37.998 209.789C39.4043 209.789 40.5566 210.102 41.4551 210.727C42.3535 211.332 43.0566 212.133 43.5645 213.129C44.0723 214.125 44.4141 215.268 44.5898 216.557C44.7852 217.826 44.8828 219.125 44.8828 220.453C44.8828 221.781 44.7852 223.08 44.5898 224.35C44.4141 225.619 44.0723 226.762 43.5645 227.777C43.0566 228.793 42.3535 229.613 41.4551 230.238C40.5566 230.844 39.4043 231.146 37.998 231.146C36.5723 231.146 35.4102 230.844 34.5117 230.238C33.6133 229.613 32.9102 228.793 32.4023 227.777C31.8945 226.762 31.543 225.619 31.3477 224.35C31.1719 223.08 31.084 221.781 31.084 220.453C31.084 219.125 31.1719 217.826 31.3477 216.557C31.543 215.268 31.8945 214.125 32.4023 213.129C32.9102 212.133 33.6133 211.332 34.5117 210.727C35.4102 210.102 36.5723 209.789 37.998 209.789Z" fill="#666666"/>
    <path d="M38.3574 378.547C37.6152 378.547 36.9805 378.693 36.4531 378.986C35.9453 379.279 35.5059 379.68 35.1348 380.188C34.7832 380.676 34.5 381.232 34.2852 381.857C34.0898 382.482 33.9336 383.127 33.8164 383.791C33.6992 384.436 33.6211 385.08 33.582 385.725C33.5625 386.369 33.5527 386.945 33.5527 387.453C33.5527 388.234 33.5918 389.133 33.6699 390.148C33.7676 391.164 33.9727 392.131 34.2852 393.049C34.6172 393.967 35.0957 394.748 35.7207 395.393C36.3652 396.018 37.2441 396.33 38.3574 396.33C39.4512 396.33 40.3203 396.018 40.9648 395.393C41.6094 394.748 42.0879 393.967 42.4004 393.049C42.7324 392.131 42.9375 391.164 43.0156 390.148C43.1133 389.133 43.1621 388.234 43.1621 387.453C43.1621 386.945 43.1426 386.369 43.1035 385.725C43.084 385.08 43.0156 384.436 42.8984 383.791C42.7812 383.127 42.6152 382.482 42.4004 381.857C42.1855 381.232 41.9023 380.676 41.5508 380.188C41.1992 379.68 40.7598 379.279 40.2324 378.986C39.7051 378.693 39.0801 378.547 38.3574 378.547ZM38.3574 376.789C39.7637 376.789 40.916 377.102 41.8145 377.727C42.7129 378.332 43.416 379.133 43.9238 380.129C44.4316 381.125 44.7734 382.268 44.9492 383.557C45.1445 384.826 45.2422 386.125 45.2422 387.453C45.2422 388.781 45.1445 390.08 44.9492 391.35C44.7734 392.619 44.4316 393.762 43.9238 394.777C43.416 395.793 42.7129 396.613 41.8145 397.238C40.916 397.844 39.7637 398.146 38.3574 398.146C36.9316 398.146 35.7695 397.844 34.8711 397.238C33.9727 396.613 33.2695 395.793 32.7617 394.777C32.2539 393.762 31.9023 392.619 31.707 391.35C31.5312 390.08 31.4434 388.781 31.4434 387.453C31.4434 386.125 31.5312 384.826 31.707 383.557C31.9023 382.268 32.2539 381.125 32.7617 380.129C33.2695 379.133 33.9727 378.332 34.8711 377.727C35.7695 377.102 36.9316 376.789 38.3574 376.789Z" fill="#666666"/>
    <path d="M75.6719 420.547C74.9297 420.547 74.2949 420.693 73.7676 420.986C73.2598 421.279 72.8203 421.68 72.4492 422.188C72.0977 422.676 71.8145 423.232 71.5996 423.857C71.4043 424.482 71.248 425.127 71.1309 425.791C71.0137 426.436 70.9355 427.08 70.8965 427.725C70.877 428.369 70.8672 428.945 70.8672 429.453C70.8672 430.234 70.9062 431.133 70.9844 432.148C71.082 433.164 71.2871 434.131 71.5996 435.049C71.9316 435.967 72.4102 436.748 73.0352 437.393C73.6797 438.018 74.5586 438.33 75.6719 438.33C76.7656 438.33 77.6348 438.018 78.2793 437.393C78.9238 436.748 79.4023 435.967 79.7148 435.049C80.0469 434.131 80.252 433.164 80.3301 432.148C80.4277 431.133 80.4766 430.234 80.4766 429.453C80.4766 428.945 80.457 428.369 80.418 427.725C80.3984 427.08 80.3301 426.436 80.2129 425.791C80.0957 425.127 79.9297 424.482 79.7148 423.857C79.5 423.232 79.2168 422.676 78.8652 422.188C78.5137 421.68 78.0742 421.279 77.5469 420.986C77.0195 420.693 76.3945 420.547 75.6719 420.547ZM75.6719 418.789C77.0781 418.789 78.2305 419.102 79.1289 419.727C80.0273 420.332 80.7305 421.133 81.2383 422.129C81.7461 423.125 82.0879 424.268 82.2637 425.557C82.459 426.826 82.5566 428.125 82.5566 429.453C82.5566 430.781 82.459 432.08 82.2637 433.35C82.0879 434.619 81.7461 435.762 81.2383 436.777C80.7305 437.793 80.0273 438.613 79.1289 439.238C78.2305 439.844 77.0781 440.146 75.6719 440.146C74.2461 440.146 73.084 439.844 72.1855 439.238C71.2871 438.613 70.584 437.793 70.0762 436.777C69.5684 435.762 69.2168 434.619 69.0215 433.35C68.8457 432.08 68.7578 430.781 68.7578 429.453C68.7578 428.125 68.8457 426.826 69.0215 425.557C69.2168 424.268 69.5684 423.125 70.0762 422.129C70.584 421.133 71.2871 420.332 72.1855 419.727C73.084 419.102 74.2461 418.789 75.6719 418.789ZM88.7676 440.557H85.7793V437.393H88.7676V440.557ZM98.9043 420.547C98.1621 420.547 97.5273 420.693 97 420.986C96.4922 421.279 96.0527 421.68 95.6816 422.188C95.3301 422.676 95.0469 423.232 94.832 423.857C94.6367 424.482 94.4805 425.127 94.3633 425.791C94.2461 426.436 94.168 427.08 94.1289 427.725C94.1094 428.369 94.0996 428.945 94.0996 429.453C94.0996 430.234 94.1387 431.133 94.2168 432.148C94.3145 433.164 94.5195 434.131 94.832 435.049C95.1641 435.967 95.6426 436.748 96.2676 437.393C96.9121 438.018 97.791 438.33 98.9043 438.33C99.998 438.33 100.867 438.018 101.512 437.393C102.156 436.748 102.635 435.967 102.947 435.049C103.279 434.131 103.484 433.164 103.562 432.148C103.66 431.133 103.709 430.234 103.709 429.453C103.709 428.945 103.689 428.369 103.65 427.725C103.631 427.08 103.562 426.436 103.445 425.791C103.328 425.127 103.162 424.482 102.947 423.857C102.732 423.232 102.449 422.676 102.098 422.188C101.746 421.68 101.307 421.279 100.779 420.986C100.252 420.693 99.627 420.547 98.9043 420.547ZM98.9043 418.789C100.311 418.789 101.463 419.102 102.361 419.727C103.26 420.332 103.963 421.133 104.471 422.129C104.979 423.125 105.32 424.268 105.496 425.557C105.691 426.826 105.789 428.125 105.789 429.453C105.789 430.781 105.691 432.08 105.496 433.35C105.32 434.619 104.979 435.762 104.471 436.777C103.963 437.793 103.26 438.613 102.361 439.238C101.463 439.844 100.311 440.146 98.9043 440.146C97.4785 440.146 96.3164 439.844 95.418 439.238C94.5195 438.613 93.8164 437.793 93.3086 436.777C92.8008 435.762 92.4492 434.619 92.2539 433.35C92.0781 432.08 91.9902 430.781 91.9902 429.453C91.9902 428.125 92.0781 426.826 92.2539 425.557C92.4492 424.268 92.8008 423.125 93.3086 422.129C93.8164 421.133 94.5195 420.332 95.418 419.727C96.3164 419.102 97.4785 418.789 98.9043 418.789ZM116.219 420.547C115.477 420.547 114.842 420.693 114.314 420.986C113.807 421.279 113.367 421.68 112.996 422.188C112.645 422.676 112.361 423.232 112.146 423.857C111.951 424.482 111.795 425.127 111.678 425.791C111.561 426.436 111.482 427.08 111.443 427.725C111.424 428.369 111.414 428.945 111.414 429.453C111.414 430.234 111.453 431.133 111.531 432.148C111.629 433.164 111.834 434.131 112.146 435.049C112.479 435.967 112.957 436.748 113.582 437.393C114.227 438.018 115.105 438.33 116.219 438.33C117.312 438.33 118.182 438.018 118.826 437.393C119.471 436.748 119.949 435.967 120.262 435.049C120.594 434.131 120.799 433.164 120.877 432.148C120.975 431.133 121.023 430.234 121.023 429.453C121.023 428.945 121.004 428.369 120.965 427.725C120.945 427.08 120.877 426.436 120.76 425.791C120.643 425.127 120.477 424.482 120.262 423.857C120.047 423.232 119.764 422.676 119.412 422.188C119.061 421.68 118.621 421.279 118.094 420.986C117.566 420.693 116.941 420.547 116.219 420.547ZM116.219 418.789C117.625 418.789 118.777 419.102 119.676 419.727C120.574 420.332 121.277 421.133 121.785 422.129C122.293 423.125 122.635 424.268 122.811 425.557C123.006 426.826 123.104 428.125 123.104 429.453C123.104 430.781 123.006 432.08 122.811 433.35C122.635 434.619 122.293 435.762 121.785 436.777C121.277 437.793 120.574 438.613 119.676 439.238C118.777 439.844 117.625 440.146 116.219 440.146C114.793 440.146 113.631 439.844 112.732 439.238C111.834 438.613 111.131 437.793 110.623 436.777C110.115 435.762 109.764 434.619 109.568 433.35C109.393 432.08 109.305 430.781 109.305 429.453C109.305 428.125 109.393 426.826 109.568 425.557C109.764 424.268 110.115 423.125 110.623 422.129C111.131 421.133 111.834 420.332 112.732 419.727C113.631 419.102 114.793 418.789 116.219 418.789ZM133.533 420.547C132.791 420.547 132.156 420.693 131.629 420.986C131.121 421.279 130.682 421.68 130.311 422.188C129.959 422.676 129.676 423.232 129.461 423.857C129.266 424.482 129.109 425.127 128.992 425.791C128.875 426.436 128.797 427.08 128.758 427.725C128.738 428.369 128.729 428.945 128.729 429.453C128.729 430.234 128.768 431.133 128.846 432.148C128.943 433.164 129.148 434.131 129.461 435.049C129.793 435.967 130.271 436.748 130.896 437.393C131.541 438.018 132.42 438.33 133.533 438.33C134.627 438.33 135.496 438.018 136.141 437.393C136.785 436.748 137.264 435.967 137.576 435.049C137.908 434.131 138.113 433.164 138.191 432.148C138.289 431.133 138.338 430.234 138.338 429.453C138.338 428.945 138.318 428.369 138.279 427.725C138.26 427.08 138.191 426.436 138.074 425.791C137.957 425.127 137.791 424.482 137.576 423.857C137.361 423.232 137.078 422.676 136.727 422.188C136.375 421.68 135.936 421.279 135.408 420.986C134.881 420.693 134.256 420.547 133.533 420.547ZM133.533 418.789C134.939 418.789 136.092 419.102 136.99 419.727C137.889 420.332 138.592 421.133 139.1 422.129C139.607 423.125 139.949 424.268 140.125 425.557C140.32 426.826 140.418 428.125 140.418 429.453C140.418 430.781 140.32 432.08 140.125 433.35C139.949 434.619 139.607 435.762 139.1 436.777C138.592 437.793 137.889 438.613 136.99 439.238C136.092 439.844 134.939 440.146 133.533 440.146C132.107 440.146 130.945 439.844 130.047 439.238C129.148 438.613 128.445 437.793 127.938 436.777C127.43 435.762 127.078 434.619 126.883 433.35C126.707 432.08 126.619 430.781 126.619 429.453C126.619 428.125 126.707 426.826 126.883 425.557C127.078 424.268 127.43 423.125 127.938 422.129C128.445 421.133 129.148 420.332 130.047 419.727C130.945 419.102 132.107 418.789 133.533 418.789Z" fill="#666666"/>
    <path d="M279.153 420.547C278.411 420.547 277.776 420.693 277.249 420.986C276.741 421.279 276.302 421.68 275.931 422.188C275.579 422.676 275.296 423.232 275.081 423.857C274.886 424.482 274.729 425.127 274.612 425.791C274.495 426.436 274.417 427.08 274.378 427.725C274.358 428.369 274.349 428.945 274.349 429.453C274.349 430.234 274.388 431.133 274.466 432.148C274.563 433.164 274.769 434.131 275.081 435.049C275.413 435.967 275.892 436.748 276.517 437.393C277.161 438.018 278.04 438.33 279.153 438.33C280.247 438.33 281.116 438.018 281.761 437.393C282.405 436.748 282.884 435.967 283.196 435.049C283.528 434.131 283.733 433.164 283.812 432.148C283.909 431.133 283.958 430.234 283.958 429.453C283.958 428.945 283.938 428.369 283.899 427.725C283.88 427.08 283.812 426.436 283.694 425.791C283.577 425.127 283.411 424.482 283.196 423.857C282.981 423.232 282.698 422.676 282.347 422.188C281.995 421.68 281.556 421.279 281.028 420.986C280.501 420.693 279.876 420.547 279.153 420.547ZM279.153 418.789C280.56 418.789 281.712 419.102 282.61 419.727C283.509 420.332 284.212 421.133 284.72 422.129C285.228 423.125 285.569 424.268 285.745 425.557C285.94 426.826 286.038 428.125 286.038 429.453C286.038 430.781 285.94 432.08 285.745 433.35C285.569 434.619 285.228 435.762 284.72 436.777C284.212 437.793 283.509 438.613 282.61 439.238C281.712 439.844 280.56 440.146 279.153 440.146C277.728 440.146 276.565 439.844 275.667 439.238C274.769 438.613 274.065 437.793 273.558 436.777C273.05 435.762 272.698 434.619 272.503 433.35C272.327 432.08 272.239 430.781 272.239 429.453C272.239 428.125 272.327 426.826 272.503 425.557C272.698 424.268 273.05 423.125 273.558 422.129C274.065 421.133 274.769 420.332 275.667 419.727C276.565 419.102 277.728 418.789 279.153 418.789ZM292.249 440.557H289.261V437.393H292.249V440.557ZM302.386 420.547C301.644 420.547 301.009 420.693 300.481 420.986C299.974 421.279 299.534 421.68 299.163 422.188C298.812 422.676 298.528 423.232 298.313 423.857C298.118 424.482 297.962 425.127 297.845 425.791C297.728 426.436 297.649 427.08 297.61 427.725C297.591 428.369 297.581 428.945 297.581 429.453C297.581 430.234 297.62 431.133 297.698 432.148C297.796 433.164 298.001 434.131 298.313 435.049C298.646 435.967 299.124 436.748 299.749 437.393C300.394 438.018 301.272 438.33 302.386 438.33C303.479 438.33 304.349 438.018 304.993 437.393C305.638 436.748 306.116 435.967 306.429 435.049C306.761 434.131 306.966 433.164 307.044 432.148C307.142 431.133 307.19 430.234 307.19 429.453C307.19 428.945 307.171 428.369 307.132 427.725C307.112 427.08 307.044 426.436 306.927 425.791C306.81 425.127 306.644 424.482 306.429 423.857C306.214 423.232 305.931 422.676 305.579 422.188C305.228 421.68 304.788 421.279 304.261 420.986C303.733 420.693 303.108 420.547 302.386 420.547ZM302.386 418.789C303.792 418.789 304.944 419.102 305.843 419.727C306.741 420.332 307.444 421.133 307.952 422.129C308.46 423.125 308.802 424.268 308.978 425.557C309.173 426.826 309.271 428.125 309.271 429.453C309.271 430.781 309.173 432.08 308.978 433.35C308.802 434.619 308.46 435.762 307.952 436.777C307.444 437.793 306.741 438.613 305.843 439.238C304.944 439.844 303.792 440.146 302.386 440.146C300.96 440.146 299.798 439.844 298.899 439.238C298.001 438.613 297.298 437.793 296.79 436.777C296.282 435.762 295.931 434.619 295.735 433.35C295.56 432.08 295.472 430.781 295.472 429.453C295.472 428.125 295.56 426.826 295.735 425.557C295.931 424.268 296.282 423.125 296.79 422.129C297.298 421.133 298.001 420.332 298.899 419.727C299.798 419.102 300.96 418.789 302.386 418.789ZM325.296 419.199V420.957L317.21 440H314.925L323.245 421.016H312.054V419.199H325.296ZM335.198 438.623C335.999 438.623 336.692 438.477 337.278 438.184C337.884 437.891 338.382 437.5 338.772 437.012C339.163 436.504 339.456 435.918 339.651 435.254C339.847 434.59 339.944 433.887 339.944 433.145C339.944 432.402 339.847 431.719 339.651 431.094C339.456 430.469 339.163 429.932 338.772 429.482C338.401 429.033 337.923 428.691 337.337 428.457C336.771 428.203 336.097 428.076 335.315 428.076C334.808 428.076 334.319 428.154 333.851 428.311C333.401 428.447 332.991 428.652 332.62 428.926C332.249 429.199 331.927 429.541 331.653 429.951C331.399 430.342 331.214 430.781 331.097 431.27H329.104L329.573 419.199H340.999V421.016H331.448L331.097 428.428L331.155 428.486C331.741 427.803 332.415 427.275 333.177 426.904C333.938 426.514 334.788 426.318 335.726 426.318C336.702 426.318 337.581 426.504 338.362 426.875C339.144 427.246 339.808 427.754 340.354 428.398C340.901 429.023 341.321 429.756 341.614 430.596C341.907 431.416 342.054 432.295 342.054 433.232C342.054 434.229 341.897 435.166 341.585 436.045C341.272 436.904 340.833 437.666 340.267 438.33C339.7 438.975 338.997 439.482 338.157 439.854C337.337 440.225 336.419 440.41 335.403 440.41C334.153 440.41 333.06 440.273 332.122 440C331.185 439.746 330.364 439.482 329.661 439.209L329.749 437.246C330.081 437.422 330.462 437.598 330.892 437.773C331.341 437.93 331.8 438.076 332.269 438.213C332.757 438.33 333.255 438.428 333.763 438.506C334.271 438.584 334.749 438.623 335.198 438.623Z" fill="#666666"/>
    <path d="M520.623 420.547C519.881 420.547 519.246 420.693 518.719 420.986C518.211 421.279 517.771 421.68 517.4 422.188C517.049 422.676 516.766 423.232 516.551 423.857C516.355 424.482 516.199 425.127 516.082 425.791C515.965 426.436 515.887 427.08 515.848 427.725C515.828 428.369 515.818 428.945 515.818 429.453C515.818 430.234 515.857 431.133 515.936 432.148C516.033 433.164 516.238 434.131 516.551 435.049C516.883 435.967 517.361 436.748 517.986 437.393C518.631 438.018 519.51 438.33 520.623 438.33C521.717 438.33 522.586 438.018 523.23 437.393C523.875 436.748 524.354 435.967 524.666 435.049C524.998 434.131 525.203 433.164 525.281 432.148C525.379 431.133 525.428 430.234 525.428 429.453C525.428 428.945 525.408 428.369 525.369 427.725C525.35 427.08 525.281 426.436 525.164 425.791C525.047 425.127 524.881 424.482 524.666 423.857C524.451 423.232 524.168 422.676 523.816 422.188C523.465 421.68 523.025 421.279 522.498 420.986C521.971 420.693 521.346 420.547 520.623 420.547ZM520.623 418.789C522.029 418.789 523.182 419.102 524.08 419.727C524.979 420.332 525.682 421.133 526.189 422.129C526.697 423.125 527.039 424.268 527.215 425.557C527.41 426.826 527.508 428.125 527.508 429.453C527.508 430.781 527.41 432.08 527.215 433.35C527.039 434.619 526.697 435.762 526.189 436.777C525.682 437.793 524.979 438.613 524.08 439.238C523.182 439.844 522.029 440.146 520.623 440.146C519.197 440.146 518.035 439.844 517.137 439.238C516.238 438.613 515.535 437.793 515.027 436.777C514.52 435.762 514.168 434.619 513.973 433.35C513.797 432.08 513.709 430.781 513.709 429.453C513.709 428.125 513.797 426.826 513.973 425.557C514.168 424.268 514.52 423.125 515.027 422.129C515.535 421.133 516.238 420.332 517.137 419.727C518.035 419.102 519.197 418.789 520.623 418.789ZM533.719 440.557H530.73V437.393H533.719V440.557ZM537.234 423.184L541.98 419.229H543.68V440H541.775V421.572L538.377 424.531L537.234 423.184ZM556.365 438.623C557.166 438.623 557.859 438.477 558.445 438.184C559.051 437.891 559.549 437.5 559.939 437.012C560.33 436.504 560.623 435.918 560.818 435.254C561.014 434.59 561.111 433.887 561.111 433.145C561.111 432.402 561.014 431.719 560.818 431.094C560.623 430.469 560.33 429.932 559.939 429.482C559.568 429.033 559.09 428.691 558.504 428.457C557.938 428.203 557.264 428.076 556.482 428.076C555.975 428.076 555.486 428.154 555.018 428.311C554.568 428.447 554.158 428.652 553.787 428.926C553.416 429.199 553.094 429.541 552.82 429.951C552.566 430.342 552.381 430.781 552.264 431.27H550.271L550.74 419.199H562.166V421.016H552.615L552.264 428.428L552.322 428.486C552.908 427.803 553.582 427.275 554.344 426.904C555.105 426.514 555.955 426.318 556.893 426.318C557.869 426.318 558.748 426.504 559.529 426.875C560.311 427.246 560.975 427.754 561.521 428.398C562.068 429.023 562.488 429.756 562.781 430.596C563.074 431.416 563.221 432.295 563.221 433.232C563.221 434.229 563.064 435.166 562.752 436.045C562.439 436.904 562 437.666 561.434 438.33C560.867 438.975 560.164 439.482 559.324 439.854C558.504 440.225 557.586 440.41 556.57 440.41C555.32 440.41 554.227 440.273 553.289 440C552.352 439.746 551.531 439.482 550.828 439.209L550.916 437.246C551.248 437.422 551.629 437.598 552.059 437.773C552.508 437.93 552.967 438.076 553.436 438.213C553.924 438.33 554.422 438.428 554.93 438.506C555.438 438.584 555.916 438.623 556.365 438.623ZM573.357 420.547C572.615 420.547 571.98 420.693 571.453 420.986C570.945 421.279 570.506 421.68 570.135 422.188C569.783 422.676 569.5 423.232 569.285 423.857C569.09 424.482 568.934 425.127 568.816 425.791C568.699 426.436 568.621 427.08 568.582 427.725C568.562 428.369 568.553 428.945 568.553 429.453C568.553 430.234 568.592 431.133 568.67 432.148C568.768 433.164 568.973 434.131 569.285 435.049C569.617 435.967 570.096 436.748 570.721 437.393C571.365 438.018 572.244 438.33 573.357 438.33C574.451 438.33 575.32 438.018 575.965 437.393C576.609 436.748 577.088 435.967 577.4 435.049C577.732 434.131 577.938 433.164 578.016 432.148C578.113 431.133 578.162 430.234 578.162 429.453C578.162 428.945 578.143 428.369 578.104 427.725C578.084 427.08 578.016 426.436 577.898 425.791C577.781 425.127 577.615 424.482 577.4 423.857C577.186 423.232 576.902 422.676 576.551 422.188C576.199 421.68 575.76 421.279 575.232 420.986C574.705 420.693 574.08 420.547 573.357 420.547ZM573.357 418.789C574.764 418.789 575.916 419.102 576.814 419.727C577.713 420.332 578.416 421.133 578.924 422.129C579.432 423.125 579.773 424.268 579.949 425.557C580.145 426.826 580.242 428.125 580.242 429.453C580.242 430.781 580.145 432.08 579.949 433.35C579.773 434.619 579.432 435.762 578.924 436.777C578.416 437.793 577.713 438.613 576.814 439.238C575.916 439.844 574.764 440.146 573.357 440.146C571.932 440.146 570.77 439.844 569.871 439.238C568.973 438.613 568.27 437.793 567.762 436.777C567.254 435.762 566.902 434.619 566.707 433.35C566.531 432.08 566.443 430.781 566.443 429.453C566.443 428.125 566.531 426.826 566.707 425.557C566.902 424.268 567.254 423.125 567.762 422.129C568.27 421.133 568.973 420.332 569.871 419.727C570.77 419.102 571.932 418.789 573.357 418.789Z" fill="#666666"/>
    <path d="M8.32031 42.7891C9.16016 42.7891 9.95117 42.8965 10.6934 43.1113C11.4551 43.3262 12.1191 43.6582 12.6855 44.1074C13.252 44.5371 13.7012 45.0938 14.0332 45.7773C14.3652 46.4414 14.5312 47.2227 14.5312 48.1211C14.5312 48.9414 14.3457 49.7812 13.9746 50.6406C13.623 51.5 13.1445 52.3691 12.5391 53.248C11.9531 54.1074 11.2793 54.9668 10.5176 55.8262C9.77539 56.666 9.01367 57.4766 8.23242 58.2578C7.4707 59.0195 6.71875 59.7422 5.97656 60.4258C5.25391 61.0898 4.62891 61.6758 4.10156 62.1836H14.8242V64H1.75781V61.9199C2.20703 61.5098 2.7832 60.9824 3.48633 60.3379C4.18945 59.6738 4.93164 58.9414 5.71289 58.1406C6.51367 57.3203 7.31445 56.4609 8.11523 55.5625C8.91602 54.6641 9.63867 53.7754 10.2832 52.8965C10.9277 52.0176 11.4453 51.1777 11.8359 50.377C12.2461 49.5762 12.4512 48.8633 12.4512 48.2383C12.4512 47.6328 12.334 47.1055 12.0996 46.6562C11.8848 46.1875 11.582 45.7969 11.1914 45.4844C10.8203 45.1719 10.3809 44.9375 9.87305 44.7812C9.36523 44.625 8.82812 44.5469 8.26172 44.5469C7.40234 44.5469 6.50391 44.7324 5.56641 45.1035C4.62891 45.4551 3.75 45.8652 2.92969 46.334L2.57812 44.4297C3.33984 44.0586 4.19922 43.6973 5.15625 43.3457C6.13281 42.9746 7.1875 42.7891 8.32031 42.7891ZM26.8945 64.2637V59.166H17.7539V57.2617L26.2793 43.1992H28.8574V57.5254H32.1973V59.166H28.8574V64.2637H26.8945ZM26.8945 57.5254V45.25L19.5117 57.5254H26.8945ZM41.6016 44.5469C40.8594 44.5469 40.2246 44.6934 39.6973 44.9863C39.1895 45.2793 38.75 45.6797 38.3789 46.1875C38.0273 46.6758 37.7441 47.2324 37.5293 47.8574C37.334 48.4824 37.1777 49.127 37.0605 49.791C36.9434 50.4355 36.8652 51.0801 36.8262 51.7246C36.8066 52.3691 36.7969 52.9453 36.7969 53.4531C36.7969 54.2344 36.8359 55.1328 36.9141 56.1484C37.0117 57.1641 37.2168 58.1309 37.5293 59.0488C37.8613 59.9668 38.3398 60.748 38.9648 61.3926C39.6094 62.0176 40.4883 62.3301 41.6016 62.3301C42.6953 62.3301 43.5645 62.0176 44.209 61.3926C44.8535 60.748 45.332 59.9668 45.6445 59.0488C45.9766 58.1309 46.1816 57.1641 46.2598 56.1484C46.3574 55.1328 46.4062 54.2344 46.4062 53.4531C46.4062 52.9453 46.3867 52.3691 46.3477 51.7246C46.3281 51.0801 46.2598 50.4355 46.1426 49.791C46.0254 49.127 45.8594 48.4824 45.6445 47.8574C45.4297 47.2324 45.1465 46.6758 44.7949 46.1875C44.4434 45.6797 44.0039 45.2793 43.4766 44.9863C42.9492 44.6934 42.3242 44.5469 41.6016 44.5469ZM41.6016 42.7891C43.0078 42.7891 44.1602 43.1016 45.0586 43.7266C45.957 44.332 46.6602 45.1328 47.168 46.1289C47.6758 47.125 48.0176 48.2676 48.1934 49.5566C48.3887 50.8262 48.4863 52.125 48.4863 53.4531C48.4863 54.7812 48.3887 56.0801 48.1934 57.3496C48.0176 58.6191 47.6758 59.7617 47.168 60.7773C46.6602 61.793 45.957 62.6133 45.0586 63.2383C44.1602 63.8438 43.0078 64.1465 41.6016 64.1465C40.1758 64.1465 39.0137 63.8438 38.1152 63.2383C37.2168 62.6133 36.5137 61.793 36.0059 60.7773C35.498 59.7617 35.1465 58.6191 34.9512 57.3496C34.7754 56.0801 34.6875 54.7812 34.6875 53.4531C34.6875 52.125 34.7754 50.8262 34.9512 49.5566C35.1465 48.2676 35.498 47.125 36.0059 46.1289C36.5137 45.1328 37.2168 44.332 38.1152 43.7266C39.0137 43.1016 40.1758 42.7891 41.6016 42.7891Z" fill="#666666"/>
    <path d="M572.543 223.516H575.941C576.527 223.516 577.133 223.486 577.758 223.428C578.383 223.35 578.949 223.203 579.457 222.988C579.984 222.773 580.414 222.471 580.746 222.08C581.078 221.67 581.244 221.133 581.244 220.469C581.244 219.746 581.078 219.189 580.746 218.799C580.414 218.389 579.994 218.096 579.486 217.92C578.998 217.744 578.461 217.646 577.875 217.627C577.309 217.588 576.781 217.568 576.293 217.568H572.543V223.516ZM580.365 224.6C580.932 224.697 581.42 224.912 581.83 225.244C582.26 225.557 582.611 225.928 582.885 226.357C583.158 226.768 583.363 227.217 583.5 227.705C583.637 228.174 583.725 228.613 583.764 229.023C583.803 229.59 583.852 230.195 583.91 230.84C583.969 231.465 584.037 232.061 584.115 232.627C584.213 233.193 584.32 233.691 584.438 234.121C584.574 234.551 584.73 234.844 584.906 235H581.625C581.449 234.59 581.312 234.17 581.215 233.74C581.117 233.291 581.039 232.852 580.98 232.422C580.922 231.992 580.873 231.592 580.834 231.221C580.814 230.83 580.785 230.488 580.746 230.195C580.648 229.492 580.551 228.896 580.453 228.408C580.355 227.92 580.189 227.529 579.955 227.236C579.721 226.924 579.398 226.699 578.988 226.562C578.578 226.406 578.021 226.318 577.318 226.299H572.543V235H569.555V214.785H576.732C577.689 214.785 578.617 214.873 579.516 215.049C580.434 215.225 581.244 215.527 581.947 215.957C582.67 216.387 583.246 216.953 583.676 217.656C584.105 218.359 584.32 219.238 584.32 220.293C584.32 220.918 584.193 221.484 583.939 221.992C583.686 222.48 583.363 222.9 582.973 223.252C582.582 223.604 582.152 223.887 581.684 224.102C581.234 224.316 580.795 224.463 580.365 224.541V224.6ZM600.17 231.162V234.004C599.838 234.18 599.506 234.346 599.174 234.502C598.842 234.639 598.48 234.766 598.09 234.883C597.699 234.98 597.26 235.059 596.771 235.117C596.283 235.176 595.717 235.205 595.072 235.205C593.744 235.205 592.602 235.01 591.645 234.619C590.707 234.209 589.926 233.652 589.301 232.949C588.695 232.246 588.246 231.416 587.953 230.459C587.68 229.482 587.543 228.438 587.543 227.324C587.543 226.094 587.719 225 588.07 224.043C588.422 223.066 588.91 222.236 589.535 221.553C590.18 220.869 590.932 220.352 591.791 220C592.65 219.629 593.588 219.443 594.604 219.443C595.717 219.443 596.693 219.639 597.533 220.029C598.373 220.4 599.066 220.918 599.613 221.582C600.18 222.246 600.6 223.027 600.873 223.926C601.166 224.824 601.312 225.791 601.312 226.826V228.262H590.531C590.629 229.668 591.078 230.752 591.879 231.514C592.68 232.275 593.803 232.656 595.248 232.656C596.439 232.656 597.416 232.5 598.178 232.188C598.939 231.875 599.604 231.533 600.17 231.162ZM590.59 225.684H598.354C598.314 224.57 597.982 223.672 597.357 222.988C596.732 222.285 595.844 221.934 594.691 221.934C593.5 221.934 592.543 222.295 591.82 223.018C591.117 223.74 590.707 224.629 590.59 225.684ZM613.266 213.438V215.635C612.992 215.576 612.689 215.537 612.357 215.518C612.025 215.479 611.771 215.459 611.596 215.459C611.127 215.459 610.756 215.527 610.482 215.664C610.229 215.801 610.033 215.996 609.896 216.25C609.779 216.504 609.701 216.807 609.662 217.158C609.643 217.51 609.633 217.9 609.633 218.33V219.883H613.148V222.461H609.633V235H606.762V222.461H603.656V219.883H606.762V217.012C606.762 214.277 608.188 212.91 611.039 212.91C611.234 212.91 611.566 212.959 612.035 213.057C612.504 213.154 612.914 213.281 613.266 213.438ZM619.535 235.557H615.756V231.748H619.535V235.557Z" fill="#333333"/>
    <path d="M266.16 484.516H269.559C270.145 484.516 270.75 484.486 271.375 484.428C272 484.35 272.566 484.203 273.074 483.988C273.602 483.773 274.031 483.471 274.363 483.08C274.695 482.67 274.861 482.133 274.861 481.469C274.861 480.746 274.695 480.189 274.363 479.799C274.031 479.389 273.611 479.096 273.104 478.92C272.615 478.744 272.078 478.646 271.492 478.627C270.926 478.588 270.398 478.568 269.91 478.568H266.16V484.516ZM273.982 485.6C274.549 485.697 275.037 485.912 275.447 486.244C275.877 486.557 276.229 486.928 276.502 487.357C276.775 487.768 276.98 488.217 277.117 488.705C277.254 489.174 277.342 489.613 277.381 490.023C277.42 490.59 277.469 491.195 277.527 491.84C277.586 492.465 277.654 493.061 277.732 493.627C277.83 494.193 277.938 494.691 278.055 495.121C278.191 495.551 278.348 495.844 278.523 496H275.242C275.066 495.59 274.93 495.17 274.832 494.74C274.734 494.291 274.656 493.852 274.598 493.422C274.539 492.992 274.49 492.592 274.451 492.221C274.432 491.83 274.402 491.488 274.363 491.195C274.266 490.492 274.168 489.896 274.07 489.408C273.973 488.92 273.807 488.529 273.572 488.236C273.338 487.924 273.016 487.699 272.605 487.562C272.195 487.406 271.639 487.318 270.936 487.299H266.16V496H263.172V475.785H270.35C271.307 475.785 272.234 475.873 273.133 476.049C274.051 476.225 274.861 476.527 275.564 476.957C276.287 477.387 276.863 477.953 277.293 478.656C277.723 479.359 277.938 480.238 277.938 481.293C277.938 481.918 277.811 482.484 277.557 482.992C277.303 483.48 276.98 483.9 276.59 484.252C276.199 484.604 275.77 484.887 275.301 485.102C274.852 485.316 274.412 485.463 273.982 485.541V485.6ZM293.787 492.162V495.004C293.455 495.18 293.123 495.346 292.791 495.502C292.459 495.639 292.098 495.766 291.707 495.883C291.316 495.98 290.877 496.059 290.389 496.117C289.9 496.176 289.334 496.205 288.689 496.205C287.361 496.205 286.219 496.01 285.262 495.619C284.324 495.209 283.543 494.652 282.918 493.949C282.312 493.246 281.863 492.416 281.57 491.459C281.297 490.482 281.16 489.438 281.16 488.324C281.16 487.094 281.336 486 281.688 485.043C282.039 484.066 282.527 483.236 283.152 482.553C283.797 481.869 284.549 481.352 285.408 481C286.268 480.629 287.205 480.443 288.221 480.443C289.334 480.443 290.311 480.639 291.15 481.029C291.99 481.4 292.684 481.918 293.23 482.582C293.797 483.246 294.217 484.027 294.49 484.926C294.783 485.824 294.93 486.791 294.93 487.826V489.262H284.148C284.246 490.668 284.695 491.752 285.496 492.514C286.297 493.275 287.42 493.656 288.865 493.656C290.057 493.656 291.033 493.5 291.795 493.188C292.557 492.875 293.221 492.533 293.787 492.162ZM284.207 486.684H291.971C291.932 485.57 291.6 484.672 290.975 483.988C290.35 483.285 289.461 482.934 288.309 482.934C287.117 482.934 286.16 483.295 285.438 484.018C284.734 484.74 284.324 485.629 284.207 486.684ZM306.883 474.438V476.635C306.609 476.576 306.307 476.537 305.975 476.518C305.643 476.479 305.389 476.459 305.213 476.459C304.744 476.459 304.373 476.527 304.1 476.664C303.846 476.801 303.65 476.996 303.514 477.25C303.396 477.504 303.318 477.807 303.279 478.158C303.26 478.51 303.25 478.9 303.25 479.33V480.883H306.766V483.461H303.25V496H300.379V483.461H297.273V480.883H300.379V478.012C300.379 475.277 301.805 473.91 304.656 473.91C304.852 473.91 305.184 473.959 305.652 474.057C306.121 474.154 306.531 474.281 306.883 474.438ZM313.152 496.557H309.373V492.748H313.152V496.557ZM329.617 495.092H326.629V491.928H329.617V495.092ZM329.617 480.736H326.629V477.572H329.617V480.736ZM345.613 484.018C345.613 485.15 345.711 486.176 345.906 487.094C346.121 488.012 346.443 488.803 346.873 489.467C347.303 490.111 347.84 490.619 348.484 490.99C349.148 491.342 349.92 491.518 350.799 491.518C351.658 491.518 352.41 491.342 353.055 490.99C353.699 490.619 354.236 490.111 354.666 489.467C355.096 488.803 355.418 488.012 355.633 487.094C355.848 486.176 355.955 485.15 355.955 484.018C355.955 482.885 355.848 481.859 355.633 480.941C355.418 480.004 355.096 479.213 354.666 478.568C354.236 477.904 353.699 477.396 353.055 477.045C352.41 476.693 351.658 476.518 350.799 476.518C349.92 476.518 349.148 476.693 348.484 477.045C347.84 477.396 347.303 477.904 346.873 478.568C346.443 479.213 346.121 480.004 345.906 480.941C345.711 481.859 345.613 482.885 345.613 484.018ZM343.68 484.018C343.68 482.631 343.836 481.371 344.148 480.238C344.461 479.105 344.92 478.139 345.525 477.338C346.131 476.518 346.873 475.883 347.752 475.434C348.631 474.984 349.646 474.76 350.799 474.76C351.932 474.76 352.938 474.984 353.816 475.434C354.695 475.883 355.438 476.518 356.043 477.338C356.648 478.139 357.107 479.105 357.42 480.238C357.732 481.371 357.889 482.631 357.889 484.018C357.889 485.404 357.732 486.664 357.42 487.797C357.107 488.93 356.648 489.906 356.043 490.727C355.438 491.527 354.695 492.152 353.816 492.602C352.938 493.031 351.932 493.246 350.799 493.246C349.646 493.246 348.631 493.031 347.752 492.602C346.873 492.152 346.131 491.527 345.525 490.727C344.92 489.906 344.461 488.93 344.148 487.797C343.836 486.664 343.68 485.404 343.68 484.018ZM362.752 498.168V473.031H364.773V483.139H369.607V484.867H364.773V498.168H362.752ZM378.426 482.992C378.406 483.188 378.348 483.471 378.25 483.842C378.152 484.193 378.045 484.535 377.928 484.867C377.771 485.336 377.527 485.883 377.195 486.508C376.883 487.133 376.443 487.816 375.877 488.559C375.33 489.301 374.656 490.092 373.855 490.932C373.055 491.752 372.098 492.602 370.984 493.48L369.607 492.191C372.244 490.18 374.236 487.973 375.584 485.57C376.951 483.168 377.635 480.668 377.635 478.07V474.789H379.568V478.07C379.568 480.629 380.213 483.08 381.502 485.424C382.811 487.748 384.686 489.828 387.127 491.664L385.691 493.012C384.715 492.172 383.865 491.371 383.143 490.609C382.42 489.828 381.795 489.096 381.268 488.412C380.76 487.729 380.35 487.094 380.037 486.508C379.725 485.922 379.49 485.395 379.334 484.926C379.197 484.555 379.09 484.193 379.012 483.842C378.934 483.471 378.875 483.188 378.836 482.992H378.426ZM390.145 498.168V473.031H392.166V498.168H390.145ZM399.373 484.018C399.373 485.15 399.471 486.176 399.666 487.094C399.881 488.012 400.203 488.803 400.633 489.467C401.062 490.111 401.6 490.619 402.244 490.99C402.908 491.342 403.68 491.518 404.559 491.518C405.418 491.518 406.17 491.342 406.814 490.99C407.459 490.619 407.996 490.111 408.426 489.467C408.855 488.803 409.178 488.012 409.393 487.094C409.607 486.176 409.715 485.15 409.715 484.018C409.715 482.885 409.607 481.859 409.393 480.941C409.178 480.004 408.855 479.213 408.426 478.568C407.996 477.904 407.459 477.396 406.814 477.045C406.17 476.693 405.418 476.518 404.559 476.518C403.68 476.518 402.908 476.693 402.244 477.045C401.6 477.396 401.062 477.904 400.633 478.568C400.203 479.213 399.881 480.004 399.666 480.941C399.471 481.859 399.373 482.885 399.373 484.018ZM397.439 484.018C397.439 482.631 397.596 481.371 397.908 480.238C398.221 479.105 398.68 478.139 399.285 477.338C399.891 476.518 400.633 475.883 401.512 475.434C402.391 474.984 403.406 474.76 404.559 474.76C405.691 474.76 406.697 474.984 407.576 475.434C408.455 475.883 409.197 476.518 409.803 477.338C410.408 478.139 410.867 479.105 411.18 480.238C411.492 481.371 411.648 482.631 411.648 484.018C411.648 485.404 411.492 486.664 411.18 487.797C410.867 488.93 410.408 489.906 409.803 490.727C409.197 491.527 408.455 492.152 407.576 492.602C406.697 493.031 405.691 493.246 404.559 493.246C403.406 493.246 402.391 493.031 401.512 492.602C400.633 492.152 399.891 491.527 399.285 490.727C398.68 489.906 398.221 488.93 397.908 487.797C397.596 486.664 397.439 485.404 397.439 484.018ZM416.512 498.168V473.031H418.533V483.139H423.367V484.867H418.533V498.168H416.512ZM431.922 491.283V496.908H448.27V498.637H429.9V491.283H431.922ZM445.662 493.188V473.031H447.684V493.188H445.662ZM427.586 481.059C427.586 481.957 427.723 482.729 427.996 483.373C428.289 484.018 428.67 484.555 429.139 484.984C429.607 485.395 430.145 485.697 430.75 485.893C431.355 486.088 431.971 486.186 432.596 486.186C433.221 486.186 433.826 486.088 434.412 485.893C435.018 485.697 435.555 485.395 436.023 484.984C436.492 484.555 436.873 484.018 437.166 483.373C437.459 482.729 437.605 481.957 437.605 481.059C437.605 480.16 437.459 479.389 437.166 478.744C436.873 478.1 436.492 477.572 436.023 477.162C435.555 476.732 435.018 476.42 434.412 476.225C433.826 476.029 433.221 475.932 432.596 475.932C431.971 475.932 431.355 476.029 430.75 476.225C430.145 476.42 429.607 476.732 429.139 477.162C428.67 477.572 428.289 478.1 427.996 478.744C427.723 479.389 427.586 480.16 427.586 481.059ZM425.711 481.059C425.711 479.926 425.896 478.93 426.268 478.07C426.658 477.211 427.166 476.498 427.791 475.932C428.436 475.365 429.168 474.936 429.988 474.643C430.828 474.35 431.697 474.203 432.596 474.203C433.494 474.203 434.354 474.35 435.174 474.643C436.014 474.936 436.746 475.365 437.371 475.932C438.016 476.498 438.523 477.211 438.895 478.07C439.285 478.93 439.48 479.926 439.48 481.059C439.48 482.191 439.285 483.188 438.895 484.047C438.523 484.906 438.016 485.619 437.371 486.186C436.746 486.752 436.014 487.182 435.174 487.475C434.354 487.768 433.494 487.914 432.596 487.914C431.697 487.914 430.828 487.768 429.988 487.475C429.168 487.182 428.436 486.752 427.791 486.186C427.166 485.619 426.658 484.906 426.268 484.047C425.896 483.188 425.711 482.191 425.711 481.059ZM487.557 498.168V473.031H489.578V498.168H487.557ZM475.984 493.568C476.492 492.143 476.922 490.619 477.273 488.998C477.625 487.357 477.908 485.756 478.123 484.193C478.357 482.611 478.523 481.146 478.621 479.799C478.719 478.451 478.768 477.357 478.768 476.518H467.898V474.789H480.76C480.76 476.039 480.701 477.475 480.584 479.096C480.486 480.697 480.32 482.357 480.086 484.076C479.871 485.795 479.588 487.514 479.236 489.232C478.885 490.951 478.475 492.533 478.006 493.979L475.984 493.568ZM506.277 478.598C506.199 478.812 506.092 479.037 505.955 479.271C505.818 479.506 505.623 479.75 505.369 480.004C505.018 480.355 504.578 480.727 504.051 481.117C503.543 481.508 502.938 481.889 502.234 482.26C501.551 482.631 500.77 482.973 499.891 483.285C499.012 483.598 498.016 483.871 496.902 484.105L496.023 482.553C497.586 482.24 498.953 481.811 500.125 481.264C501.297 480.717 502.273 480.15 503.055 479.564C503.836 478.959 504.422 478.373 504.812 477.807C505.203 477.221 505.398 476.723 505.398 476.312V475.932H496.844V474.203H516.033V475.932H507.479V476.312C507.479 476.723 507.654 477.211 508.006 477.777C508.357 478.324 508.904 478.881 509.646 479.447C510.408 479.994 511.375 480.521 512.547 481.029C513.738 481.518 515.164 481.898 516.824 482.172L515.945 483.783C513.797 483.393 512.039 482.836 510.672 482.113C509.324 481.391 508.289 480.688 507.566 480.004C507.312 479.77 507.107 479.535 506.951 479.301C506.814 479.047 506.717 478.812 506.658 478.598H506.277ZM505.545 493.773V488.705H493.973V486.918H518.875V488.705H507.566V493.773H505.545ZM499.158 491.723V497.055H516.619V498.783H497.137V491.723H499.158ZM523.357 499.076V488.061H525.291V492.133H531.414V488.061H533.348V498.08C534.344 497.455 535.154 496.762 535.779 496C536.404 495.219 536.902 494.438 537.273 493.656C537.645 492.855 537.898 492.084 538.035 491.342C538.172 490.6 538.24 489.936 538.24 489.35V488.061H540.203V489.35C540.203 489.975 540.281 490.658 540.438 491.4C540.594 492.123 540.867 492.865 541.258 493.627C541.668 494.389 542.215 495.141 542.898 495.883C543.582 496.625 544.461 497.318 545.535 497.963L544.246 499.281C543.133 498.5 542.225 497.738 541.521 496.996C540.838 496.254 540.32 495.541 539.969 494.857C539.852 494.643 539.734 494.379 539.617 494.066C539.52 493.734 539.461 493.461 539.441 493.246H539.031C539.012 493.441 538.963 493.695 538.885 494.008C538.807 494.301 538.719 494.555 538.621 494.77C538.348 495.453 537.859 496.215 537.156 497.055C536.473 497.914 535.633 498.686 534.637 499.369L533.348 498.285V499.076H523.357ZM528.777 485.512C529.461 483.949 529.969 482.357 530.301 480.736C530.652 479.115 530.848 477.514 530.887 475.932H520.34V474.203H532.967C532.967 476.293 532.791 478.354 532.439 480.385C532.088 482.416 531.521 484.33 530.74 486.127L528.777 485.512ZM539.998 486.742V473.031H542.02V480.502H546.854V482.23H542.02V486.742H539.998ZM531.414 493.803H525.291V497.406H531.414V493.803Z" fill="#333333"/>
    <path d="M285.543 12.5156H288.941C289.527 12.5156 290.133 12.4863 290.758 12.4277C291.383 12.3496 291.949 12.2031 292.457 11.9883C292.984 11.7734 293.414 11.4707 293.746 11.0801C294.078 10.6699 294.244 10.1328 294.244 9.46875C294.244 8.74609 294.078 8.18945 293.746 7.79883C293.414 7.38867 292.994 7.0957 292.486 6.91992C291.998 6.74414 291.461 6.64648 290.875 6.62695C290.309 6.58789 289.781 6.56836 289.293 6.56836H285.543V12.5156ZM293.365 13.5996C293.932 13.6973 294.42 13.9121 294.83 14.2441C295.26 14.5566 295.611 14.9277 295.885 15.3574C296.158 15.7676 296.363 16.2168 296.5 16.7051C296.637 17.1738 296.725 17.6133 296.764 18.0234C296.803 18.5898 296.852 19.1953 296.91 19.8398C296.969 20.4648 297.037 21.0605 297.115 21.627C297.213 22.1934 297.32 22.6914 297.438 23.1211C297.574 23.5508 297.73 23.8438 297.906 24H294.625C294.449 23.5898 294.312 23.1699 294.215 22.7402C294.117 22.291 294.039 21.8516 293.98 21.4219C293.922 20.9922 293.873 20.5918 293.834 20.2207C293.814 19.8301 293.785 19.4883 293.746 19.1953C293.648 18.4922 293.551 17.8965 293.453 17.4082C293.355 16.9199 293.189 16.5293 292.955 16.2363C292.721 15.9238 292.398 15.6992 291.988 15.5625C291.578 15.4062 291.021 15.3184 290.318 15.2988H285.543V24H282.555V3.78516H289.732C290.689 3.78516 291.617 3.87305 292.516 4.04883C293.434 4.22461 294.244 4.52734 294.947 4.95703C295.67 5.38672 296.246 5.95312 296.676 6.65625C297.105 7.35938 297.32 8.23828 297.32 9.29297C297.32 9.91797 297.193 10.4844 296.939 10.9922C296.686 11.4805 296.363 11.9004 295.973 12.252C295.582 12.6035 295.152 12.8867 294.684 13.1016C294.234 13.3164 293.795 13.4629 293.365 13.541V13.5996ZM313.17 20.1621V23.0039C312.838 23.1797 312.506 23.3457 312.174 23.502C311.842 23.6387 311.48 23.7656 311.09 23.8828C310.699 23.9805 310.26 24.0586 309.771 24.1172C309.283 24.1758 308.717 24.2051 308.072 24.2051C306.744 24.2051 305.602 24.0098 304.645 23.6191C303.707 23.209 302.926 22.6523 302.301 21.9492C301.695 21.2461 301.246 20.416 300.953 19.459C300.68 18.4824 300.543 17.4375 300.543 16.3242C300.543 15.0938 300.719 14 301.07 13.043C301.422 12.0664 301.91 11.2363 302.535 10.5527C303.18 9.86914 303.932 9.35156 304.791 9C305.65 8.62891 306.588 8.44336 307.604 8.44336C308.717 8.44336 309.693 8.63867 310.533 9.0293C311.373 9.40039 312.066 9.91797 312.613 10.582C313.18 11.2461 313.6 12.0273 313.873 12.9258C314.166 13.8242 314.312 14.791 314.312 15.8262V17.2617H303.531C303.629 18.668 304.078 19.752 304.879 20.5137C305.68 21.2754 306.803 21.6562 308.248 21.6562C309.439 21.6562 310.416 21.5 311.178 21.1875C311.939 20.875 312.604 20.5332 313.17 20.1621ZM303.59 14.6836H311.354C311.314 13.5703 310.982 12.6719 310.357 11.9883C309.732 11.2852 308.844 10.9336 307.691 10.9336C306.5 10.9336 305.543 11.2949 304.82 12.0176C304.117 12.7402 303.707 13.6289 303.59 14.6836ZM326.266 2.4375V4.63477C325.992 4.57617 325.689 4.53711 325.357 4.51758C325.025 4.47852 324.771 4.45898 324.596 4.45898C324.127 4.45898 323.756 4.52734 323.482 4.66406C323.229 4.80078 323.033 4.99609 322.896 5.25C322.779 5.50391 322.701 5.80664 322.662 6.1582C322.643 6.50977 322.633 6.90039 322.633 7.33008V8.88281H326.148V11.4609H322.633V24H319.762V11.4609H316.656V8.88281H319.762V6.01172C319.762 3.27734 321.188 1.91016 324.039 1.91016C324.234 1.91016 324.566 1.95898 325.035 2.05664C325.504 2.1543 325.914 2.28125 326.266 2.4375ZM332.535 24.5566H328.756V20.748H332.535V24.5566Z" fill="#333333"/>
    <path d="M588.328 408.076V398.701H581.062L580.623 397.969H580.301V403.359H572.83V406.436H576.258C576.688 406.436 577.146 406.426 577.635 406.406C578.123 406.387 578.602 406.348 579.07 406.289C579.559 406.23 580.018 406.152 580.447 406.055C580.877 405.977 581.258 405.879 581.59 405.762L582.029 407.344C581.658 407.5 581.229 407.627 580.74 407.725C580.271 407.822 579.773 407.891 579.246 407.93C578.738 407.988 578.221 408.027 577.693 408.047C577.186 408.066 576.707 408.076 576.258 408.076H570.896V401.719H578.367V398.701H570.896V397.061H579.598V393.691H568.172V391.904H587.508C587.664 391.182 587.781 390.459 587.859 389.736C587.957 388.994 588.025 388.301 588.064 387.656C588.123 387.012 588.162 386.436 588.182 385.928C588.201 385.4 588.211 384.971 588.211 384.639H571.189V382.91H590.262C590.262 383.418 590.252 384.014 590.232 384.697C590.232 385.381 590.203 386.113 590.145 386.895C590.086 387.676 590.008 388.496 589.91 389.355C589.812 390.215 589.676 391.064 589.5 391.904H593.074V393.691H581.619V397.061H590.35V408.076H588.328ZM614.49 407.168V382.031H616.512V407.168H614.49ZM602.918 402.568C603.426 401.143 603.855 399.619 604.207 397.998C604.559 396.357 604.842 394.756 605.057 393.193C605.291 391.611 605.457 390.146 605.555 388.799C605.652 387.451 605.701 386.357 605.701 385.518H594.832V383.789H607.693C607.693 385.039 607.635 386.475 607.518 388.096C607.42 389.697 607.254 391.357 607.02 393.076C606.805 394.795 606.521 396.514 606.17 398.232C605.818 399.951 605.408 401.533 604.939 402.979L602.918 402.568Z" fill="#666666"/>
</svg>
