<svg width="373" height="268" viewBox="0 0 373 268" fill="none" xmlns="http://www.w3.org/2000/svg">
    <line x1="63.5" y1="9" x2="63.5" y2="225" stroke="#666666"/>
    <line x1="372" y1="225.5" x2="63" y2="225.5" stroke="#666666"/>
    <line x1="372" y1="153.5" x2="64" y2="153.5" stroke="#DDDDDD" stroke-width="3" stroke-dasharray="5 5"/>
    <line y1="-1.5" x2="216.002" y2="-1.5" transform="matrix(0.00416166 -0.999991 0.999999 0.00150184 165 225)" stroke="#DDDDDD" stroke-width="3" stroke-dasharray="5 5"/>
    <line y1="-1.5" x2="216.002" y2="-1.5" transform="matrix(0.00416166 -0.999991 0.999999 0.00150184 268 225)" stroke="#DDDDDD" stroke-width="3" stroke-dasharray="5 5"/>
    <circle cx="240" cy="197" r="12" fill="#E66787"/>
    <line x1="369.5" y1="225" x2="369.5" y2="9" stroke="#DDDDDD" stroke-width="3" stroke-dasharray="5 5"/>
    <line x1="372" y1="80.5002" x2="64" y2="80.5002" stroke="#DDDDDD" stroke-width="3" stroke-dasharray="5 5"/>
    <line x1="372" y1="7.50024" x2="64" y2="7.50024" stroke="#DDDDDD" stroke-width="3" stroke-dasharray="5 5"/>
    <path d="M24.3594 3.4375C23.3594 3.4375 22.5391 3.67188 21.8984 4.14062C21.2734 4.59375 20.7734 5.1875 20.3984 5.92188C20.0391 6.64062 19.7891 7.44531 19.6484 8.33594C19.5234 9.21094 19.4609 10.0703 19.4609 10.9141H19.5078C19.8828 10.0078 20.4609 9.32812 21.2422 8.875C22.0234 8.42188 22.9062 8.19531 23.8906 8.19531C24.7031 8.19531 25.4219 8.33594 26.0469 8.61719C26.6875 8.88281 27.2266 9.26562 27.6641 9.76562C28.1016 10.25 28.4297 10.8281 28.6484 11.5C28.8672 12.1719 28.9766 12.9062 28.9766 13.7031C28.9766 14.5 28.8516 15.2422 28.6016 15.9297C28.3672 16.6016 28.0234 17.1953 27.5703 17.7109C27.1328 18.2109 26.5859 18.6094 25.9297 18.9062C25.2891 19.1875 24.5625 19.3281 23.75 19.3281C22.5938 19.3281 21.6328 19.1094 20.8672 18.6719C20.1016 18.2344 19.4922 17.6562 19.0391 16.9375C18.5859 16.2031 18.2656 15.3672 18.0781 14.4297C17.8906 13.4922 17.7969 12.5234 17.7969 11.5234C17.7969 10.4609 17.8828 9.36719 18.0547 8.24219C18.2266 7.11719 18.5547 6.09375 19.0391 5.17188C19.5234 4.25 20.1797 3.5 21.0078 2.92188C21.8516 2.32812 22.9453 2.03125 24.2891 2.03125C25.0703 2.03125 25.7656 2.10156 26.375 2.24219C27 2.38281 27.5391 2.51562 27.9922 2.64062L27.7344 4.11719C27.5625 4.02344 27.3438 3.9375 27.0781 3.85938C26.8281 3.76562 26.5469 3.69531 26.2344 3.64844C25.9375 3.58594 25.625 3.53906 25.2969 3.50781C24.9688 3.46094 24.6562 3.4375 24.3594 3.4375ZM23.8203 9.53125C23.1641 9.53125 22.5781 9.64844 22.0625 9.88281C21.5625 10.1016 21.1406 10.4062 20.7969 10.7969C20.4531 11.1875 20.1953 11.6484 20.0234 12.1797C19.8516 12.7109 19.7656 13.2891 19.7656 13.9141C19.7656 14.4453 19.8594 14.9531 20.0469 15.4375C20.2344 15.9062 20.4922 16.3281 20.8203 16.7031C21.1484 17.0625 21.5391 17.3516 21.9922 17.5703C22.4453 17.7891 22.9453 17.8984 23.4922 17.8984C24.1016 17.8984 24.6406 17.7969 25.1094 17.5938C25.5938 17.3906 25.9922 17.1094 26.3047 16.75C26.6328 16.375 26.875 15.9375 27.0312 15.4375C27.2031 14.9375 27.2891 14.3906 27.2891 13.7969C27.2891 13.25 27.2188 12.7266 27.0781 12.2266C26.9531 11.7109 26.75 11.2578 26.4688 10.8672C26.1875 10.4609 25.8281 10.1406 25.3906 9.90625C24.9531 9.65625 24.4297 9.53125 23.8203 9.53125ZM37.0859 3.4375C36.4922 3.4375 35.9844 3.55469 35.5625 3.78906C35.1562 4.02344 34.8047 4.34375 34.5078 4.75C34.2266 5.14062 34 5.58594 33.8281 6.08594C33.6719 6.58594 33.5469 7.10156 33.4531 7.63281C33.3594 8.14844 33.2969 8.66406 33.2656 9.17969C33.25 9.69531 33.2422 10.1562 33.2422 10.5625C33.2422 11.1875 33.2734 11.9062 33.3359 12.7188C33.4141 13.5312 33.5781 14.3047 33.8281 15.0391C34.0938 15.7734 34.4766 16.3984 34.9766 16.9141C35.4922 17.4141 36.1953 17.6641 37.0859 17.6641C37.9609 17.6641 38.6562 17.4141 39.1719 16.9141C39.6875 16.3984 40.0703 15.7734 40.3203 15.0391C40.5859 14.3047 40.75 13.5312 40.8125 12.7188C40.8906 11.9062 40.9297 11.1875 40.9297 10.5625C40.9297 10.1562 40.9141 9.69531 40.8828 9.17969C40.8672 8.66406 40.8125 8.14844 40.7188 7.63281C40.625 7.10156 40.4922 6.58594 40.3203 6.08594C40.1484 5.58594 39.9219 5.14062 39.6406 4.75C39.3594 4.34375 39.0078 4.02344 38.5859 3.78906C38.1641 3.55469 37.6641 3.4375 37.0859 3.4375ZM37.0859 2.03125C38.2109 2.03125 39.1328 2.28125 39.8516 2.78125C40.5703 3.26562 41.1328 3.90625 41.5391 4.70312C41.9453 5.5 42.2188 6.41406 42.3594 7.44531C42.5156 8.46094 42.5938 9.5 42.5938 10.5625C42.5938 11.625 42.5156 12.6641 42.3594 13.6797C42.2188 14.6953 41.9453 15.6094 41.5391 16.4219C41.1328 17.2344 40.5703 17.8906 39.8516 18.3906C39.1328 18.875 38.2109 19.1172 37.0859 19.1172C35.9453 19.1172 35.0156 18.875 34.2969 18.3906C33.5781 17.8906 33.0156 17.2344 32.6094 16.4219C32.2031 15.6094 31.9219 14.6953 31.7656 13.6797C31.625 12.6641 31.5547 11.625 31.5547 10.5625C31.5547 9.5 31.625 8.46094 31.7656 7.44531C31.9219 6.41406 32.2031 5.5 32.6094 4.70312C33.0156 3.90625 33.5781 3.26562 34.2969 2.78125C35.0156 2.28125 35.9453 2.03125 37.0859 2.03125Z" fill="#666666"/>
    <path d="M23.5391 146.031C24.2109 146.031 24.8438 146.117 25.4375 146.289C26.0469 146.461 26.5781 146.727 27.0312 147.086C27.4844 147.43 27.8438 147.875 28.1094 148.422C28.375 148.953 28.5078 149.578 28.5078 150.297C28.5078 150.953 28.3594 151.625 28.0625 152.312C27.7812 153 27.3984 153.695 26.9141 154.398C26.4453 155.086 25.9062 155.773 25.2969 156.461C24.7031 157.133 24.0938 157.781 23.4688 158.406C22.8594 159.016 22.2578 159.594 21.6641 160.141C21.0859 160.672 20.5859 161.141 20.1641 161.547H28.7422V163H18.2891V161.336C18.6484 161.008 19.1094 160.586 19.6719 160.07C20.2344 159.539 20.8281 158.953 21.4531 158.312C22.0938 157.656 22.7344 156.969 23.375 156.25C24.0156 155.531 24.5938 154.82 25.1094 154.117C25.625 153.414 26.0391 152.742 26.3516 152.102C26.6797 151.461 26.8438 150.891 26.8438 150.391C26.8438 149.906 26.75 149.484 26.5625 149.125C26.3906 148.75 26.1484 148.438 25.8359 148.188C25.5391 147.938 25.1875 147.75 24.7812 147.625C24.375 147.5 23.9453 147.438 23.4922 147.438C22.8047 147.438 22.0859 147.586 21.3359 147.883C20.5859 148.164 19.8828 148.492 19.2266 148.867L18.9453 147.344C19.5547 147.047 20.2422 146.758 21.0078 146.477C21.7891 146.18 22.6328 146.031 23.5391 146.031ZM37.0859 147.438C36.4922 147.438 35.9844 147.555 35.5625 147.789C35.1562 148.023 34.8047 148.344 34.5078 148.75C34.2266 149.141 34 149.586 33.8281 150.086C33.6719 150.586 33.5469 151.102 33.4531 151.633C33.3594 152.148 33.2969 152.664 33.2656 153.18C33.25 153.695 33.2422 154.156 33.2422 154.562C33.2422 155.188 33.2734 155.906 33.3359 156.719C33.4141 157.531 33.5781 158.305 33.8281 159.039C34.0938 159.773 34.4766 160.398 34.9766 160.914C35.4922 161.414 36.1953 161.664 37.0859 161.664C37.9609 161.664 38.6562 161.414 39.1719 160.914C39.6875 160.398 40.0703 159.773 40.3203 159.039C40.5859 158.305 40.75 157.531 40.8125 156.719C40.8906 155.906 40.9297 155.188 40.9297 154.562C40.9297 154.156 40.9141 153.695 40.8828 153.18C40.8672 152.664 40.8125 152.148 40.7188 151.633C40.625 151.102 40.4922 150.586 40.3203 150.086C40.1484 149.586 39.9219 149.141 39.6406 148.75C39.3594 148.344 39.0078 148.023 38.5859 147.789C38.1641 147.555 37.6641 147.438 37.0859 147.438ZM37.0859 146.031C38.2109 146.031 39.1328 146.281 39.8516 146.781C40.5703 147.266 41.1328 147.906 41.5391 148.703C41.9453 149.5 42.2188 150.414 42.3594 151.445C42.5156 152.461 42.5938 153.5 42.5938 154.562C42.5938 155.625 42.5156 156.664 42.3594 157.68C42.2188 158.695 41.9453 159.609 41.5391 160.422C41.1328 161.234 40.5703 161.891 39.8516 162.391C39.1328 162.875 38.2109 163.117 37.0859 163.117C35.9453 163.117 35.0156 162.875 34.2969 162.391C33.5781 161.891 33.0156 161.234 32.6094 160.422C32.2031 159.609 31.9219 158.695 31.7656 157.68C31.625 156.664 31.5547 155.625 31.5547 154.562C31.5547 153.5 31.625 152.461 31.7656 151.445C31.9219 150.414 32.2031 149.5 32.6094 148.703C33.0156 147.906 33.5781 147.266 34.2969 146.781C35.0156 146.281 35.9453 146.031 37.0859 146.031Z" fill="#666666"/>
    <path d="M25.3203 87.2112V83.1331H18.0078V81.6096L24.8281 70.3596H26.8906V81.8206H29.5625V83.1331H26.8906V87.2112H25.3203ZM25.3203 81.8206V72.0002L19.4141 81.8206H25.3203ZM37.0859 71.4377C36.4922 71.4377 35.9844 71.5549 35.5625 71.7893C35.1562 72.0237 34.8047 72.344 34.5078 72.7502C34.2266 73.1409 34 73.5862 33.8281 74.0862C33.6719 74.5862 33.5469 75.1018 33.4531 75.6331C33.3594 76.1487 33.2969 76.6643 33.2656 77.1799C33.25 77.6956 33.2422 78.1565 33.2422 78.5627C33.2422 79.1877 33.2734 79.9065 33.3359 80.719C33.4141 81.5315 33.5781 82.3049 33.8281 83.0393C34.0938 83.7737 34.4766 84.3987 34.9766 84.9143C35.4922 85.4143 36.1953 85.6643 37.0859 85.6643C37.9609 85.6643 38.6562 85.4143 39.1719 84.9143C39.6875 84.3987 40.0703 83.7737 40.3203 83.0393C40.5859 82.3049 40.75 81.5315 40.8125 80.719C40.8906 79.9065 40.9297 79.1877 40.9297 78.5627C40.9297 78.1565 40.9141 77.6956 40.8828 77.1799C40.8672 76.6643 40.8125 76.1487 40.7188 75.6331C40.625 75.1018 40.4922 74.5862 40.3203 74.0862C40.1484 73.5862 39.9219 73.1409 39.6406 72.7502C39.3594 72.344 39.0078 72.0237 38.5859 71.7893C38.1641 71.5549 37.6641 71.4377 37.0859 71.4377ZM37.0859 70.0315C38.2109 70.0315 39.1328 70.2815 39.8516 70.7815C40.5703 71.2659 41.1328 71.9065 41.5391 72.7034C41.9453 73.5002 42.2188 74.4143 42.3594 75.4456C42.5156 76.4612 42.5938 77.5002 42.5938 78.5627C42.5938 79.6252 42.5156 80.6643 42.3594 81.6799C42.2188 82.6956 41.9453 83.6096 41.5391 84.4221C41.1328 85.2346 40.5703 85.8909 39.8516 86.3909C39.1328 86.8752 38.2109 87.1174 37.0859 87.1174C35.9453 87.1174 35.0156 86.8752 34.2969 86.3909C33.5781 85.8909 33.0156 85.2346 32.6094 84.4221C32.2031 83.6096 31.9219 82.6956 31.7656 81.6799C31.625 80.6643 31.5547 79.6252 31.5547 78.5627C31.5547 77.5002 31.625 76.4612 31.7656 75.4456C31.9219 74.4143 32.2031 73.5002 32.6094 72.7034C33.0156 71.9065 33.5781 71.2659 34.2969 70.7815C35.0156 70.2815 35.9453 70.0315 37.0859 70.0315Z" fill="#666666"/>
    <path d="M3.6875 109.617C3.6875 108.211 4.34375 107.07 5.65625 106.195C6.96875 105.32 8.92969 104.883 11.5391 104.883C14.1172 104.883 16.0703 105.32 17.3984 106.195C18.7266 107.07 19.3906 108.211 19.3906 109.617C19.3906 111.023 18.7266 112.164 17.3984 113.039C16.0703 113.914 14.1172 114.352 11.5391 114.352C8.92969 114.352 6.96875 113.914 5.65625 113.039C4.34375 112.164 3.6875 111.023 3.6875 109.617ZM21.2656 116.812V118.945H16.7656L16.9062 125.203H14.5625L14.4453 118.945H9.125C9.09375 119.852 9.00781 120.734 8.86719 121.594C8.64844 122.859 8.32031 124.023 7.88281 125.086L5.49219 124.453C5.72656 123.922 5.92969 123.352 6.10156 122.742C6.27344 122.117 6.40625 121.508 6.5 120.914C6.60938 120.305 6.67969 119.727 6.71094 119.18C6.72656 119.102 6.73438 119.023 6.73438 118.945H1.8125V116.812H21.2656ZM6.03125 109.617C6.03125 109.961 6.11719 110.297 6.28906 110.625C6.47656 110.953 6.78125 111.242 7.20312 111.492C7.64062 111.742 8.21094 111.945 8.91406 112.102C9.61719 112.258 10.4922 112.336 11.5391 112.336C12.5859 112.336 13.4609 112.258 14.1641 112.102C14.8672 111.945 15.4297 111.742 15.8516 111.492C16.2891 111.242 16.5938 110.953 16.7656 110.625C16.9531 110.297 17.0469 109.961 17.0469 109.617C17.0469 109.273 16.9531 108.938 16.7656 108.609C16.5938 108.281 16.2891 107.992 15.8516 107.742C15.4297 107.492 14.8672 107.289 14.1641 107.133C13.4609 106.977 12.5859 106.898 11.5391 106.898C10.4922 106.898 9.61719 106.977 8.91406 107.133C8.21094 107.289 7.64062 107.492 7.20312 107.742C6.78125 107.992 6.47656 108.281 6.28906 108.609C6.11719 108.938 6.03125 109.273 6.03125 109.617ZM25.5547 114.656V105.328H27.9219V108.398H38.3047V105.328H40.6719V114.656H25.5547ZM32.1406 121.57V118.688H23.1406V116.555H43.0625V118.688H34.5078V121.57H32.1406ZM27.9219 119.742V123.211H41.375V125.344H25.5547V119.742H27.9219ZM38.3047 110.438H27.9219V112.57H38.3047V110.438Z" fill="#333333"/>
    <path d="M206.711 265.086H204.344V258.477H195.812V256.344H215.266V258.477H206.711V265.086ZM205.398 249.453C205.305 249.75 205.086 250.11 204.742 250.531C204.508 250.813 204.195 251.11 203.805 251.422C203.43 251.719 202.977 252.016 202.445 252.313C201.914 252.594 201.297 252.86 200.594 253.11C199.891 253.36 199.094 253.578 198.203 253.766L197.031 251.844C198.484 251.547 199.68 251.18 200.617 250.742C201.57 250.305 202.32 249.821 202.867 249.289C203.414 248.758 203.797 248.203 204.016 247.625C204.234 247.047 204.344 246.461 204.344 245.867V245.188H206.758V245.867C206.758 246.446 206.875 247.024 207.109 247.602C207.344 248.18 207.742 248.727 208.305 249.242C208.867 249.742 209.617 250.196 210.555 250.602C211.492 250.992 212.656 251.305 214.047 251.539L212.875 253.508C212.016 253.352 211.242 253.156 210.555 252.922C209.867 252.688 209.258 252.438 208.727 252.172C208.211 251.891 207.766 251.61 207.391 251.328C207.016 251.047 206.703 250.774 206.453 250.508C206.109 250.133 205.875 249.781 205.75 249.453H205.398ZM219.555 254.656V245.328H221.922V248.399H232.305V245.328H234.672V254.656H219.555ZM226.141 261.571V258.688H217.141V256.555H237.062V258.688H228.508V261.571H226.141ZM221.922 259.742V263.211H235.375V265.344H219.555V259.742H221.922ZM232.305 250.438H221.922V252.571H232.305V250.438Z" fill="#333333"/>
    <path d="M37.0859 209.438C36.4922 209.438 35.9844 209.555 35.5625 209.789C35.1562 210.023 34.8047 210.344 34.5078 210.75C34.2266 211.141 34 211.586 33.8281 212.086C33.6719 212.586 33.5469 213.102 33.4531 213.633C33.3594 214.148 33.2969 214.664 33.2656 215.18C33.25 215.695 33.2422 216.156 33.2422 216.562C33.2422 217.188 33.2734 217.906 33.3359 218.719C33.4141 219.531 33.5781 220.305 33.8281 221.039C34.0938 221.773 34.4766 222.398 34.9766 222.914C35.4922 223.414 36.1953 223.664 37.0859 223.664C37.9609 223.664 38.6562 223.414 39.1719 222.914C39.6875 222.398 40.0703 221.773 40.3203 221.039C40.5859 220.305 40.75 219.531 40.8125 218.719C40.8906 217.906 40.9297 217.188 40.9297 216.562C40.9297 216.156 40.9141 215.695 40.8828 215.18C40.8672 214.664 40.8125 214.148 40.7188 213.633C40.625 213.102 40.4922 212.586 40.3203 212.086C40.1484 211.586 39.9219 211.141 39.6406 210.75C39.3594 210.344 39.0078 210.023 38.5859 209.789C38.1641 209.555 37.6641 209.438 37.0859 209.438ZM37.0859 208.031C38.2109 208.031 39.1328 208.281 39.8516 208.781C40.5703 209.266 41.1328 209.906 41.5391 210.703C41.9453 211.5 42.2188 212.414 42.3594 213.445C42.5156 214.461 42.5938 215.5 42.5938 216.562C42.5938 217.625 42.5156 218.664 42.3594 219.68C42.2188 220.695 41.9453 221.609 41.5391 222.422C41.1328 223.234 40.5703 223.891 39.8516 224.391C39.1328 224.875 38.2109 225.117 37.0859 225.117C35.9453 225.117 35.0156 224.875 34.2969 224.391C33.5781 223.891 33.0156 223.234 32.6094 222.422C32.2031 221.609 31.9219 220.695 31.7656 219.68C31.625 218.664 31.5547 217.625 31.5547 216.562C31.5547 215.5 31.625 214.461 31.7656 213.445C31.9219 212.414 32.2031 211.5 32.6094 210.703C33.0156 209.906 33.5781 209.266 34.2969 208.781C35.0156 208.281 35.9453 208.031 37.0859 208.031Z" fill="#666666"/>
    <path d="M69.9375 247.438C69.3438 247.438 68.8359 247.555 68.4141 247.789C68.0078 248.024 67.6562 248.344 67.3594 248.75C67.0781 249.141 66.8516 249.586 66.6797 250.086C66.5234 250.586 66.3984 251.102 66.3047 251.633C66.2109 252.149 66.1484 252.664 66.1172 253.18C66.1016 253.696 66.0938 254.156 66.0938 254.563C66.0938 255.188 66.125 255.906 66.1875 256.719C66.2656 257.531 66.4297 258.305 66.6797 259.039C66.9453 259.774 67.3281 260.399 67.8281 260.914C68.3438 261.414 69.0469 261.664 69.9375 261.664C70.8125 261.664 71.5078 261.414 72.0234 260.914C72.5391 260.399 72.9219 259.774 73.1719 259.039C73.4375 258.305 73.6016 257.531 73.6641 256.719C73.7422 255.906 73.7812 255.188 73.7812 254.563C73.7812 254.156 73.7656 253.696 73.7344 253.18C73.7188 252.664 73.6641 252.149 73.5703 251.633C73.4766 251.102 73.3438 250.586 73.1719 250.086C73 249.586 72.7734 249.141 72.4922 248.75C72.2109 248.344 71.8594 248.024 71.4375 247.789C71.0156 247.555 70.5156 247.438 69.9375 247.438ZM69.9375 246.031C71.0625 246.031 71.9844 246.281 72.7031 246.781C73.4219 247.266 73.9844 247.906 74.3906 248.703C74.7969 249.5 75.0703 250.414 75.2109 251.446C75.3672 252.461 75.4453 253.5 75.4453 254.563C75.4453 255.625 75.3672 256.664 75.2109 257.68C75.0703 258.696 74.7969 259.61 74.3906 260.422C73.9844 261.235 73.4219 261.891 72.7031 262.391C71.9844 262.875 71.0625 263.117 69.9375 263.117C68.7969 263.117 67.8672 262.875 67.1484 262.391C66.4297 261.891 65.8672 261.235 65.4609 260.422C65.0547 259.61 64.7734 258.696 64.6172 257.68C64.4766 256.664 64.4062 255.625 64.4062 254.563C64.4062 253.5 64.4766 252.461 64.6172 251.446C64.7734 250.414 65.0547 249.5 65.4609 248.703C65.8672 247.906 66.4297 247.266 67.1484 246.781C67.8672 246.281 68.7969 246.031 69.9375 246.031Z" fill="#666666"/>
    <path d="M157.098 246.031C157.77 246.031 158.402 246.117 158.996 246.289C159.605 246.461 160.137 246.727 160.59 247.086C161.043 247.43 161.402 247.875 161.668 248.422C161.934 248.953 162.066 249.578 162.066 250.297C162.066 250.953 161.918 251.625 161.621 252.313C161.34 253 160.957 253.696 160.473 254.399C160.004 255.086 159.465 255.774 158.855 256.461C158.262 257.133 157.652 257.781 157.027 258.406C156.418 259.016 155.816 259.594 155.223 260.141C154.645 260.672 154.145 261.141 153.723 261.547H162.301V263H151.848V261.336C152.207 261.008 152.668 260.586 153.23 260.071C153.793 259.539 154.387 258.953 155.012 258.313C155.652 257.656 156.293 256.969 156.934 256.25C157.574 255.531 158.152 254.821 158.668 254.117C159.184 253.414 159.598 252.742 159.91 252.102C160.238 251.461 160.402 250.891 160.402 250.391C160.402 249.906 160.309 249.485 160.121 249.125C159.949 248.75 159.707 248.438 159.395 248.188C159.098 247.938 158.746 247.75 158.34 247.625C157.934 247.5 157.504 247.438 157.051 247.438C156.363 247.438 155.645 247.586 154.895 247.883C154.145 248.164 153.441 248.492 152.785 248.867L152.504 247.344C153.113 247.047 153.801 246.758 154.566 246.477C155.348 246.18 156.191 246.031 157.098 246.031ZM170.645 247.438C170.051 247.438 169.543 247.555 169.121 247.789C168.715 248.024 168.363 248.344 168.066 248.75C167.785 249.141 167.559 249.586 167.387 250.086C167.23 250.586 167.105 251.102 167.012 251.633C166.918 252.149 166.855 252.664 166.824 253.18C166.809 253.696 166.801 254.156 166.801 254.563C166.801 255.188 166.832 255.906 166.895 256.719C166.973 257.531 167.137 258.305 167.387 259.039C167.652 259.774 168.035 260.399 168.535 260.914C169.051 261.414 169.754 261.664 170.645 261.664C171.52 261.664 172.215 261.414 172.73 260.914C173.246 260.399 173.629 259.774 173.879 259.039C174.145 258.305 174.309 257.531 174.371 256.719C174.449 255.906 174.488 255.188 174.488 254.563C174.488 254.156 174.473 253.696 174.441 253.18C174.426 252.664 174.371 252.149 174.277 251.633C174.184 251.102 174.051 250.586 173.879 250.086C173.707 249.586 173.48 249.141 173.199 248.75C172.918 248.344 172.566 248.024 172.145 247.789C171.723 247.555 171.223 247.438 170.645 247.438ZM170.645 246.031C171.77 246.031 172.691 246.281 173.41 246.781C174.129 247.266 174.691 247.906 175.098 248.703C175.504 249.5 175.777 250.414 175.918 251.446C176.074 252.461 176.152 253.5 176.152 254.563C176.152 255.625 176.074 256.664 175.918 257.68C175.777 258.696 175.504 259.61 175.098 260.422C174.691 261.235 174.129 261.891 173.41 262.391C172.691 262.875 171.77 263.117 170.645 263.117C169.504 263.117 168.574 262.875 167.855 262.391C167.137 261.891 166.574 261.235 166.168 260.422C165.762 259.61 165.48 258.696 165.324 257.68C165.184 256.664 165.113 255.625 165.113 254.563C165.113 253.5 165.184 252.461 165.324 251.446C165.48 250.414 165.762 249.5 166.168 248.703C166.574 247.906 167.137 247.266 167.855 246.781C168.574 246.281 169.504 246.031 170.645 246.031Z" fill="#666666"/>
    <path d="M262.285 263.211V259.133H254.973V257.61L261.793 246.36H263.855V257.821H266.527V259.133H263.855V263.211H262.285ZM262.285 257.821V248L256.379 257.821H262.285ZM274.051 247.438C273.457 247.438 272.949 247.555 272.527 247.789C272.121 248.024 271.77 248.344 271.473 248.75C271.191 249.141 270.965 249.586 270.793 250.086C270.637 250.586 270.512 251.102 270.418 251.633C270.324 252.149 270.262 252.664 270.23 253.18C270.215 253.696 270.207 254.156 270.207 254.563C270.207 255.188 270.238 255.906 270.301 256.719C270.379 257.531 270.543 258.305 270.793 259.039C271.059 259.774 271.441 260.399 271.941 260.914C272.457 261.414 273.16 261.664 274.051 261.664C274.926 261.664 275.621 261.414 276.137 260.914C276.652 260.399 277.035 259.774 277.285 259.039C277.551 258.305 277.715 257.531 277.777 256.719C277.855 255.906 277.895 255.188 277.895 254.563C277.895 254.156 277.879 253.696 277.848 253.18C277.832 252.664 277.777 252.149 277.684 251.633C277.59 251.102 277.457 250.586 277.285 250.086C277.113 249.586 276.887 249.141 276.605 248.75C276.324 248.344 275.973 248.024 275.551 247.789C275.129 247.555 274.629 247.438 274.051 247.438ZM274.051 246.031C275.176 246.031 276.098 246.281 276.816 246.781C277.535 247.266 278.098 247.906 278.504 248.703C278.91 249.5 279.184 250.414 279.324 251.446C279.48 252.461 279.559 253.5 279.559 254.563C279.559 255.625 279.48 256.664 279.324 257.68C279.184 258.696 278.91 259.61 278.504 260.422C278.098 261.235 277.535 261.891 276.816 262.391C276.098 262.875 275.176 263.117 274.051 263.117C272.91 263.117 271.98 262.875 271.262 262.391C270.543 261.891 269.98 261.235 269.574 260.422C269.168 259.61 268.887 258.696 268.73 257.68C268.59 256.664 268.52 255.625 268.52 254.563C268.52 253.5 268.59 252.461 268.73 251.446C268.887 250.414 269.168 249.5 269.574 248.703C269.98 247.906 270.543 247.266 271.262 246.781C271.98 246.281 272.91 246.031 274.051 246.031Z" fill="#666666"/>
    <path d="M353.359 247.438C352.359 247.438 351.539 247.672 350.898 248.141C350.273 248.594 349.773 249.188 349.398 249.922C349.039 250.641 348.789 251.446 348.648 252.336C348.523 253.211 348.461 254.071 348.461 254.914H348.508C348.883 254.008 349.461 253.328 350.242 252.875C351.023 252.422 351.906 252.196 352.891 252.196C353.703 252.196 354.422 252.336 355.047 252.617C355.688 252.883 356.227 253.266 356.664 253.766C357.102 254.25 357.43 254.828 357.648 255.5C357.867 256.172 357.977 256.906 357.977 257.703C357.977 258.5 357.852 259.242 357.602 259.93C357.367 260.602 357.023 261.196 356.57 261.711C356.133 262.211 355.586 262.61 354.93 262.906C354.289 263.188 353.562 263.328 352.75 263.328C351.594 263.328 350.633 263.11 349.867 262.672C349.102 262.235 348.492 261.656 348.039 260.938C347.586 260.203 347.266 259.367 347.078 258.43C346.891 257.492 346.797 256.524 346.797 255.524C346.797 254.461 346.883 253.367 347.055 252.242C347.227 251.117 347.555 250.094 348.039 249.172C348.523 248.25 349.18 247.5 350.008 246.922C350.852 246.328 351.945 246.031 353.289 246.031C354.07 246.031 354.766 246.102 355.375 246.242C356 246.383 356.539 246.516 356.992 246.641L356.734 248.117C356.562 248.024 356.344 247.938 356.078 247.86C355.828 247.766 355.547 247.696 355.234 247.649C354.938 247.586 354.625 247.539 354.297 247.508C353.969 247.461 353.656 247.438 353.359 247.438ZM352.82 253.531C352.164 253.531 351.578 253.649 351.062 253.883C350.562 254.102 350.141 254.406 349.797 254.797C349.453 255.188 349.195 255.649 349.023 256.18C348.852 256.711 348.766 257.289 348.766 257.914C348.766 258.446 348.859 258.953 349.047 259.438C349.234 259.906 349.492 260.328 349.82 260.703C350.148 261.063 350.539 261.352 350.992 261.571C351.445 261.789 351.945 261.899 352.492 261.899C353.102 261.899 353.641 261.797 354.109 261.594C354.594 261.391 354.992 261.11 355.305 260.75C355.633 260.375 355.875 259.938 356.031 259.438C356.203 258.938 356.289 258.391 356.289 257.797C356.289 257.25 356.219 256.727 356.078 256.227C355.953 255.711 355.75 255.258 355.469 254.867C355.188 254.461 354.828 254.141 354.391 253.906C353.953 253.656 353.43 253.531 352.82 253.531ZM366.086 247.438C365.492 247.438 364.984 247.555 364.562 247.789C364.156 248.024 363.805 248.344 363.508 248.75C363.227 249.141 363 249.586 362.828 250.086C362.672 250.586 362.547 251.102 362.453 251.633C362.359 252.149 362.297 252.664 362.266 253.18C362.25 253.696 362.242 254.156 362.242 254.563C362.242 255.188 362.273 255.906 362.336 256.719C362.414 257.531 362.578 258.305 362.828 259.039C363.094 259.774 363.477 260.399 363.977 260.914C364.492 261.414 365.195 261.664 366.086 261.664C366.961 261.664 367.656 261.414 368.172 260.914C368.688 260.399 369.07 259.774 369.32 259.039C369.586 258.305 369.75 257.531 369.812 256.719C369.891 255.906 369.93 255.188 369.93 254.563C369.93 254.156 369.914 253.696 369.883 253.18C369.867 252.664 369.812 252.149 369.719 251.633C369.625 251.102 369.492 250.586 369.32 250.086C369.148 249.586 368.922 249.141 368.641 248.75C368.359 248.344 368.008 248.024 367.586 247.789C367.164 247.555 366.664 247.438 366.086 247.438ZM366.086 246.031C367.211 246.031 368.133 246.281 368.852 246.781C369.57 247.266 370.133 247.906 370.539 248.703C370.945 249.5 371.219 250.414 371.359 251.446C371.516 252.461 371.594 253.5 371.594 254.563C371.594 255.625 371.516 256.664 371.359 257.68C371.219 258.696 370.945 259.61 370.539 260.422C370.133 261.235 369.57 261.891 368.852 262.391C368.133 262.875 367.211 263.117 366.086 263.117C364.945 263.117 364.016 262.875 363.297 262.391C362.578 261.891 362.016 261.235 361.609 260.422C361.203 259.61 360.922 258.696 360.766 257.68C360.625 256.664 360.555 255.625 360.555 254.563C360.555 253.5 360.625 252.461 360.766 251.446C360.922 250.414 361.203 249.5 361.609 248.703C362.016 247.906 362.578 247.266 363.297 246.781C364.016 246.281 364.945 246.031 366.086 246.031Z" fill="#666666"/>
</svg>
