<svg width="373" height="368" viewBox="0 0 373 368" fill="none" xmlns="http://www.w3.org/2000/svg">
    <line x1="63.5" y1="9" x2="63.5" y2="325" stroke="#666666"/>
    <line x1="372" y1="324.5" x2="63" y2="324.5" stroke="#666666"/>
    <line x1="372" y1="219.5" x2="64" y2="219.5" stroke="#DDDDDD" stroke-width="3" stroke-dasharray="5 5"/>
    <line y1="-1.5" x2="316.001" y2="-1.5" transform="matrix(0.00284469 -0.999996 0.999998 0.00219714 165 325)" stroke="#DDDDDD" stroke-width="3" stroke-dasharray="5 5"/>
    <line y1="-1.5" x2="316.001" y2="-1.5" transform="matrix(0.00284469 -0.999996 0.999998 0.00219714 268 325)" stroke="#DDDDDD" stroke-width="3" stroke-dasharray="5 5"/>
    <circle cx="206" cy="289" r="12" fill="#D9D9D9"/>
    <path d="M152.609 257.469L155.891 254.75H157.039V268.156H155.703V256.367L153.406 258.383L152.609 257.469ZM156.078 250.039C159.469 250.039 162.203 251.109 164.281 253.25C166.359 255.391 167.398 258.047 167.398 261.219C167.398 264.422 166.375 267.086 164.328 269.211C162.297 271.352 159.547 272.422 156.078 272.422C152.688 272.422 149.953 271.352 147.875 269.211C145.812 267.086 144.781 264.422 144.781 261.219C144.781 258.047 145.82 255.391 147.898 253.25C149.977 251.109 152.703 250.039 156.078 250.039ZM156.078 250.977C153.094 250.977 150.625 251.945 148.672 253.883C146.719 255.82 145.742 258.281 145.742 261.266C145.742 264.141 146.68 266.57 148.555 268.555C150.43 270.523 152.938 271.508 156.078 271.508C159.234 271.508 161.75 270.516 163.625 268.531C165.5 266.531 166.438 264.109 166.438 261.266C166.438 258.25 165.453 255.781 163.484 253.859C161.531 251.938 159.062 250.977 156.078 250.977Z" fill="#666666"/>
    <path d="M284.914 242.422C286.102 242.422 287.109 242.734 287.938 243.359C288.766 243.984 289.18 244.898 289.18 246.102C289.18 246.82 288.953 247.547 288.5 248.281C288.062 249 287.352 249.805 286.367 250.695C286.086 250.961 285.383 251.531 284.258 252.406C283.148 253.266 282.406 253.875 282.031 254.234H289.391V255.477H280.414V254C280.711 253.719 281.453 253.117 282.641 252.195C283.828 251.273 284.688 250.555 285.219 250.039C286.297 248.977 286.984 248.156 287.281 247.578C287.594 247 287.75 246.523 287.75 246.148C287.75 245.414 287.477 244.812 286.93 244.344C286.398 243.875 285.719 243.641 284.891 243.641C284.297 243.641 283.672 243.773 283.016 244.039C282.359 244.289 281.75 244.57 281.188 244.883L280.953 243.617C281.5 243.352 282.102 243.086 282.758 242.82C283.414 242.555 284.133 242.422 284.914 242.422ZM285.078 238.039C288.469 238.039 291.203 239.109 293.281 241.25C295.359 243.391 296.398 246.047 296.398 249.219C296.398 252.422 295.375 255.086 293.328 257.211C291.297 259.352 288.547 260.422 285.078 260.422C281.688 260.422 278.953 259.352 276.875 257.211C274.812 255.086 273.781 252.422 273.781 249.219C273.781 246.047 274.82 243.391 276.898 241.25C278.977 239.109 281.703 238.039 285.078 238.039ZM285.078 238.977C282.094 238.977 279.625 239.945 277.672 241.883C275.719 243.82 274.742 246.281 274.742 249.266C274.742 252.141 275.68 254.57 277.555 256.555C279.43 258.523 281.938 259.508 285.078 259.508C288.234 259.508 290.75 258.516 292.625 256.531C294.5 254.531 295.438 252.109 295.438 249.266C295.438 246.25 294.453 243.781 292.484 241.859C290.531 239.938 288.062 238.977 285.078 238.977Z" fill="#666666"/>
    <circle cx="236" cy="277" r="12" fill="#E66787"/>
    <path d="M267 249H256" stroke="#666666" stroke-linecap="round"/>
    <path d="M256 249L243 268" stroke="#666666" stroke-linecap="round"/>
    <path d="M175 260H186" stroke="#666666" stroke-linecap="round"/>
    <path d="M186 260L199 279" stroke="#666666" stroke-linecap="round"/>
    <line x1="369.5" y1="325" x2="369.5" y2="9" stroke="#DDDDDD" stroke-width="3" stroke-dasharray="5 5"/>
    <line x1="372" y1="113.5" x2="64" y2="113.5" stroke="#DDDDDD" stroke-width="3" stroke-dasharray="5 5"/>
    <line x1="372" y1="7.50024" x2="64" y2="7.50024" stroke="#DDDDDD" stroke-width="3" stroke-dasharray="5 5"/>
    <path d="M24.3594 3.4375C23.3594 3.4375 22.5391 3.67188 21.8984 4.14062C21.2734 4.59375 20.7734 5.1875 20.3984 5.92188C20.0391 6.64062 19.7891 7.44531 19.6484 8.33594C19.5234 9.21094 19.4609 10.0703 19.4609 10.9141H19.5078C19.8828 10.0078 20.4609 9.32812 21.2422 8.875C22.0234 8.42188 22.9062 8.19531 23.8906 8.19531C24.7031 8.19531 25.4219 8.33594 26.0469 8.61719C26.6875 8.88281 27.2266 9.26562 27.6641 9.76562C28.1016 10.25 28.4297 10.8281 28.6484 11.5C28.8672 12.1719 28.9766 12.9062 28.9766 13.7031C28.9766 14.5 28.8516 15.2422 28.6016 15.9297C28.3672 16.6016 28.0234 17.1953 27.5703 17.7109C27.1328 18.2109 26.5859 18.6094 25.9297 18.9062C25.2891 19.1875 24.5625 19.3281 23.75 19.3281C22.5938 19.3281 21.6328 19.1094 20.8672 18.6719C20.1016 18.2344 19.4922 17.6562 19.0391 16.9375C18.5859 16.2031 18.2656 15.3672 18.0781 14.4297C17.8906 13.4922 17.7969 12.5234 17.7969 11.5234C17.7969 10.4609 17.8828 9.36719 18.0547 8.24219C18.2266 7.11719 18.5547 6.09375 19.0391 5.17188C19.5234 4.25 20.1797 3.5 21.0078 2.92188C21.8516 2.32812 22.9453 2.03125 24.2891 2.03125C25.0703 2.03125 25.7656 2.10156 26.375 2.24219C27 2.38281 27.5391 2.51562 27.9922 2.64062L27.7344 4.11719C27.5625 4.02344 27.3438 3.9375 27.0781 3.85938C26.8281 3.76562 26.5469 3.69531 26.2344 3.64844C25.9375 3.58594 25.625 3.53906 25.2969 3.50781C24.9688 3.46094 24.6562 3.4375 24.3594 3.4375ZM23.8203 9.53125C23.1641 9.53125 22.5781 9.64844 22.0625 9.88281C21.5625 10.1016 21.1406 10.4062 20.7969 10.7969C20.4531 11.1875 20.1953 11.6484 20.0234 12.1797C19.8516 12.7109 19.7656 13.2891 19.7656 13.9141C19.7656 14.4453 19.8594 14.9531 20.0469 15.4375C20.2344 15.9062 20.4922 16.3281 20.8203 16.7031C21.1484 17.0625 21.5391 17.3516 21.9922 17.5703C22.4453 17.7891 22.9453 17.8984 23.4922 17.8984C24.1016 17.8984 24.6406 17.7969 25.1094 17.5938C25.5938 17.3906 25.9922 17.1094 26.3047 16.75C26.6328 16.375 26.875 15.9375 27.0312 15.4375C27.2031 14.9375 27.2891 14.3906 27.2891 13.7969C27.2891 13.25 27.2188 12.7266 27.0781 12.2266C26.9531 11.7109 26.75 11.2578 26.4688 10.8672C26.1875 10.4609 25.8281 10.1406 25.3906 9.90625C24.9531 9.65625 24.4297 9.53125 23.8203 9.53125ZM37.0859 3.4375C36.4922 3.4375 35.9844 3.55469 35.5625 3.78906C35.1562 4.02344 34.8047 4.34375 34.5078 4.75C34.2266 5.14062 34 5.58594 33.8281 6.08594C33.6719 6.58594 33.5469 7.10156 33.4531 7.63281C33.3594 8.14844 33.2969 8.66406 33.2656 9.17969C33.25 9.69531 33.2422 10.1562 33.2422 10.5625C33.2422 11.1875 33.2734 11.9062 33.3359 12.7188C33.4141 13.5312 33.5781 14.3047 33.8281 15.0391C34.0938 15.7734 34.4766 16.3984 34.9766 16.9141C35.4922 17.4141 36.1953 17.6641 37.0859 17.6641C37.9609 17.6641 38.6562 17.4141 39.1719 16.9141C39.6875 16.3984 40.0703 15.7734 40.3203 15.0391C40.5859 14.3047 40.75 13.5312 40.8125 12.7188C40.8906 11.9062 40.9297 11.1875 40.9297 10.5625C40.9297 10.1562 40.9141 9.69531 40.8828 9.17969C40.8672 8.66406 40.8125 8.14844 40.7188 7.63281C40.625 7.10156 40.4922 6.58594 40.3203 6.08594C40.1484 5.58594 39.9219 5.14062 39.6406 4.75C39.3594 4.34375 39.0078 4.02344 38.5859 3.78906C38.1641 3.55469 37.6641 3.4375 37.0859 3.4375ZM37.0859 2.03125C38.2109 2.03125 39.1328 2.28125 39.8516 2.78125C40.5703 3.26562 41.1328 3.90625 41.5391 4.70312C41.9453 5.5 42.2188 6.41406 42.3594 7.44531C42.5156 8.46094 42.5938 9.5 42.5938 10.5625C42.5938 11.625 42.5156 12.6641 42.3594 13.6797C42.2188 14.6953 41.9453 15.6094 41.5391 16.4219C41.1328 17.2344 40.5703 17.8906 39.8516 18.3906C39.1328 18.875 38.2109 19.1172 37.0859 19.1172C35.9453 19.1172 35.0156 18.875 34.2969 18.3906C33.5781 17.8906 33.0156 17.2344 32.6094 16.4219C32.2031 15.6094 31.9219 14.6953 31.7656 13.6797C31.625 12.6641 31.5547 11.625 31.5547 10.5625C31.5547 9.5 31.625 8.46094 31.7656 7.44531C31.9219 6.41406 32.2031 5.5 32.6094 4.70312C33.0156 3.90625 33.5781 3.26562 34.2969 2.78125C35.0156 2.28125 35.9453 2.03125 37.0859 2.03125Z" fill="#666666"/>
    <path d="M23.5391 212.031C24.2109 212.031 24.8438 212.117 25.4375 212.289C26.0469 212.461 26.5781 212.727 27.0312 213.086C27.4844 213.43 27.8438 213.875 28.1094 214.422C28.375 214.953 28.5078 215.578 28.5078 216.297C28.5078 216.953 28.3594 217.625 28.0625 218.312C27.7812 219 27.3984 219.695 26.9141 220.398C26.4453 221.086 25.9062 221.773 25.2969 222.461C24.7031 223.133 24.0938 223.781 23.4688 224.406C22.8594 225.016 22.2578 225.594 21.6641 226.141C21.0859 226.672 20.5859 227.141 20.1641 227.547H28.7422V229H18.2891V227.336C18.6484 227.008 19.1094 226.586 19.6719 226.07C20.2344 225.539 20.8281 224.953 21.4531 224.312C22.0938 223.656 22.7344 222.969 23.375 222.25C24.0156 221.531 24.5938 220.82 25.1094 220.117C25.625 219.414 26.0391 218.742 26.3516 218.102C26.6797 217.461 26.8438 216.891 26.8438 216.391C26.8438 215.906 26.75 215.484 26.5625 215.125C26.3906 214.75 26.1484 214.438 25.8359 214.188C25.5391 213.938 25.1875 213.75 24.7812 213.625C24.375 213.5 23.9453 213.438 23.4922 213.438C22.8047 213.438 22.0859 213.586 21.3359 213.883C20.5859 214.164 19.8828 214.492 19.2266 214.867L18.9453 213.344C19.5547 213.047 20.2422 212.758 21.0078 212.477C21.7891 212.18 22.6328 212.031 23.5391 212.031ZM37.0859 213.438C36.4922 213.438 35.9844 213.555 35.5625 213.789C35.1562 214.023 34.8047 214.344 34.5078 214.75C34.2266 215.141 34 215.586 33.8281 216.086C33.6719 216.586 33.5469 217.102 33.4531 217.633C33.3594 218.148 33.2969 218.664 33.2656 219.18C33.25 219.695 33.2422 220.156 33.2422 220.562C33.2422 221.188 33.2734 221.906 33.3359 222.719C33.4141 223.531 33.5781 224.305 33.8281 225.039C34.0938 225.773 34.4766 226.398 34.9766 226.914C35.4922 227.414 36.1953 227.664 37.0859 227.664C37.9609 227.664 38.6562 227.414 39.1719 226.914C39.6875 226.398 40.0703 225.773 40.3203 225.039C40.5859 224.305 40.75 223.531 40.8125 222.719C40.8906 221.906 40.9297 221.188 40.9297 220.562C40.9297 220.156 40.9141 219.695 40.8828 219.18C40.8672 218.664 40.8125 218.148 40.7188 217.633C40.625 217.102 40.4922 216.586 40.3203 216.086C40.1484 215.586 39.9219 215.141 39.6406 214.75C39.3594 214.344 39.0078 214.023 38.5859 213.789C38.1641 213.555 37.6641 213.438 37.0859 213.438ZM37.0859 212.031C38.2109 212.031 39.1328 212.281 39.8516 212.781C40.5703 213.266 41.1328 213.906 41.5391 214.703C41.9453 215.5 42.2188 216.414 42.3594 217.445C42.5156 218.461 42.5938 219.5 42.5938 220.562C42.5938 221.625 42.5156 222.664 42.3594 223.68C42.2188 224.695 41.9453 225.609 41.5391 226.422C41.1328 227.234 40.5703 227.891 39.8516 228.391C39.1328 228.875 38.2109 229.117 37.0859 229.117C35.9453 229.117 35.0156 228.875 34.2969 228.391C33.5781 227.891 33.0156 227.234 32.6094 226.422C32.2031 225.609 31.9219 224.695 31.7656 223.68C31.625 222.664 31.5547 221.625 31.5547 220.562C31.5547 219.5 31.625 218.461 31.7656 217.445C31.9219 216.414 32.2031 215.5 32.6094 214.703C33.0156 213.906 33.5781 213.266 34.2969 212.781C35.0156 212.281 35.9453 212.031 37.0859 212.031Z" fill="#666666"/>
    <path d="M25.3203 119.211V115.133H18.0078V113.609L24.8281 102.359H26.8906V113.82H29.5625V115.133H26.8906V119.211H25.3203ZM25.3203 113.82V104L19.4141 113.82H25.3203ZM37.0859 103.438C36.4922 103.438 35.9844 103.555 35.5625 103.789C35.1562 104.023 34.8047 104.344 34.5078 104.75C34.2266 105.141 34 105.586 33.8281 106.086C33.6719 106.586 33.5469 107.102 33.4531 107.633C33.3594 108.148 33.2969 108.664 33.2656 109.18C33.25 109.695 33.2422 110.156 33.2422 110.562C33.2422 111.188 33.2734 111.906 33.3359 112.719C33.4141 113.531 33.5781 114.305 33.8281 115.039C34.0938 115.773 34.4766 116.398 34.9766 116.914C35.4922 117.414 36.1953 117.664 37.0859 117.664C37.9609 117.664 38.6562 117.414 39.1719 116.914C39.6875 116.398 40.0703 115.773 40.3203 115.039C40.5859 114.305 40.75 113.531 40.8125 112.719C40.8906 111.906 40.9297 111.188 40.9297 110.562C40.9297 110.156 40.9141 109.695 40.8828 109.18C40.8672 108.664 40.8125 108.148 40.7188 107.633C40.625 107.102 40.4922 106.586 40.3203 106.086C40.1484 105.586 39.9219 105.141 39.6406 104.75C39.3594 104.344 39.0078 104.023 38.5859 103.789C38.1641 103.555 37.6641 103.438 37.0859 103.438ZM37.0859 102.031C38.2109 102.031 39.1328 102.281 39.8516 102.781C40.5703 103.266 41.1328 103.906 41.5391 104.703C41.9453 105.5 42.2188 106.414 42.3594 107.445C42.5156 108.461 42.5938 109.5 42.5938 110.562C42.5938 111.625 42.5156 112.664 42.3594 113.68C42.2188 114.695 41.9453 115.609 41.5391 116.422C41.1328 117.234 40.5703 117.891 39.8516 118.391C39.1328 118.875 38.2109 119.117 37.0859 119.117C35.9453 119.117 35.0156 118.875 34.2969 118.391C33.5781 117.891 33.0156 117.234 32.6094 116.422C32.2031 115.609 31.9219 114.695 31.7656 113.68C31.625 112.664 31.5547 111.625 31.5547 110.562C31.5547 109.5 31.625 108.461 31.7656 107.445C31.9219 106.414 32.2031 105.5 32.6094 104.703C33.0156 103.906 33.5781 103.266 34.2969 102.781C35.0156 102.281 35.9453 102.031 37.0859 102.031Z" fill="#666666"/>
    <path d="M3.6875 158.617C3.6875 157.211 4.34375 156.07 5.65625 155.195C6.96875 154.32 8.92969 153.883 11.5391 153.883C14.1172 153.883 16.0703 154.32 17.3984 155.195C18.7266 156.07 19.3906 157.211 19.3906 158.617C19.3906 160.023 18.7266 161.164 17.3984 162.039C16.0703 162.914 14.1172 163.352 11.5391 163.352C8.92969 163.352 6.96875 162.914 5.65625 162.039C4.34375 161.164 3.6875 160.023 3.6875 158.617ZM21.2656 165.812V167.945H16.7656L16.9062 174.203H14.5625L14.4453 167.945H9.125C9.09375 168.852 9.00781 169.734 8.86719 170.594C8.64844 171.859 8.32031 173.023 7.88281 174.086L5.49219 173.453C5.72656 172.922 5.92969 172.352 6.10156 171.742C6.27344 171.117 6.40625 170.508 6.5 169.914C6.60938 169.305 6.67969 168.727 6.71094 168.18C6.72656 168.102 6.73438 168.023 6.73438 167.945H1.8125V165.812H21.2656ZM6.03125 158.617C6.03125 158.961 6.11719 159.297 6.28906 159.625C6.47656 159.953 6.78125 160.242 7.20312 160.492C7.64062 160.742 8.21094 160.945 8.91406 161.102C9.61719 161.258 10.4922 161.336 11.5391 161.336C12.5859 161.336 13.4609 161.258 14.1641 161.102C14.8672 160.945 15.4297 160.742 15.8516 160.492C16.2891 160.242 16.5938 159.953 16.7656 159.625C16.9531 159.297 17.0469 158.961 17.0469 158.617C17.0469 158.273 16.9531 157.938 16.7656 157.609C16.5938 157.281 16.2891 156.992 15.8516 156.742C15.4297 156.492 14.8672 156.289 14.1641 156.133C13.4609 155.977 12.5859 155.898 11.5391 155.898C10.4922 155.898 9.61719 155.977 8.91406 156.133C8.21094 156.289 7.64062 156.492 7.20312 156.742C6.78125 156.992 6.47656 157.281 6.28906 157.609C6.11719 157.938 6.03125 158.273 6.03125 158.617ZM25.5547 163.656V154.328H27.9219V157.398H38.3047V154.328H40.6719V163.656H25.5547ZM32.1406 170.57V167.688H23.1406V165.555H43.0625V167.688H34.5078V170.57H32.1406ZM27.9219 168.742V172.211H41.375V174.344H25.5547V168.742H27.9219ZM38.3047 159.438H27.9219V161.57H38.3047V159.438Z" fill="#333333"/>
    <path d="M206.711 365.086H204.344V358.477H195.812V356.344H215.266V358.477H206.711V365.086ZM205.398 349.453C205.305 349.75 205.086 350.109 204.742 350.531C204.508 350.812 204.195 351.109 203.805 351.422C203.43 351.719 202.977 352.016 202.445 352.312C201.914 352.594 201.297 352.859 200.594 353.109C199.891 353.359 199.094 353.578 198.203 353.766L197.031 351.844C198.484 351.547 199.68 351.18 200.617 350.742C201.57 350.305 202.32 349.82 202.867 349.289C203.414 348.758 203.797 348.203 204.016 347.625C204.234 347.047 204.344 346.461 204.344 345.867V345.188H206.758V345.867C206.758 346.445 206.875 347.023 207.109 347.602C207.344 348.18 207.742 348.727 208.305 349.242C208.867 349.742 209.617 350.195 210.555 350.602C211.492 350.992 212.656 351.305 214.047 351.539L212.875 353.508C212.016 353.352 211.242 353.156 210.555 352.922C209.867 352.688 209.258 352.438 208.727 352.172C208.211 351.891 207.766 351.609 207.391 351.328C207.016 351.047 206.703 350.773 206.453 350.508C206.109 350.133 205.875 349.781 205.75 349.453H205.398ZM219.555 354.656V345.328H221.922V348.398H232.305V345.328H234.672V354.656H219.555ZM226.141 361.57V358.688H217.141V356.555H237.062V358.688H228.508V361.57H226.141ZM221.922 359.742V363.211H235.375V365.344H219.555V359.742H221.922ZM232.305 350.438H221.922V352.57H232.305V350.438Z" fill="#333333"/>
    <path d="M37.0859 315.438C36.4922 315.438 35.9844 315.555 35.5625 315.789C35.1562 316.023 34.8047 316.344 34.5078 316.75C34.2266 317.141 34 317.586 33.8281 318.086C33.6719 318.586 33.5469 319.102 33.4531 319.633C33.3594 320.148 33.2969 320.664 33.2656 321.18C33.25 321.695 33.2422 322.156 33.2422 322.562C33.2422 323.188 33.2734 323.906 33.3359 324.719C33.4141 325.531 33.5781 326.305 33.8281 327.039C34.0938 327.773 34.4766 328.398 34.9766 328.914C35.4922 329.414 36.1953 329.664 37.0859 329.664C37.9609 329.664 38.6562 329.414 39.1719 328.914C39.6875 328.398 40.0703 327.773 40.3203 327.039C40.5859 326.305 40.75 325.531 40.8125 324.719C40.8906 323.906 40.9297 323.188 40.9297 322.562C40.9297 322.156 40.9141 321.695 40.8828 321.18C40.8672 320.664 40.8125 320.148 40.7188 319.633C40.625 319.102 40.4922 318.586 40.3203 318.086C40.1484 317.586 39.9219 317.141 39.6406 316.75C39.3594 316.344 39.0078 316.023 38.5859 315.789C38.1641 315.555 37.6641 315.438 37.0859 315.438ZM37.0859 314.031C38.2109 314.031 39.1328 314.281 39.8516 314.781C40.5703 315.266 41.1328 315.906 41.5391 316.703C41.9453 317.5 42.2188 318.414 42.3594 319.445C42.5156 320.461 42.5938 321.5 42.5938 322.562C42.5938 323.625 42.5156 324.664 42.3594 325.68C42.2188 326.695 41.9453 327.609 41.5391 328.422C41.1328 329.234 40.5703 329.891 39.8516 330.391C39.1328 330.875 38.2109 331.117 37.0859 331.117C35.9453 331.117 35.0156 330.875 34.2969 330.391C33.5781 329.891 33.0156 329.234 32.6094 328.422C32.2031 327.609 31.9219 326.695 31.7656 325.68C31.625 324.664 31.5547 323.625 31.5547 322.562C31.5547 321.5 31.625 320.461 31.7656 319.445C31.9219 318.414 32.2031 317.5 32.6094 316.703C33.0156 315.906 33.5781 315.266 34.2969 314.781C35.0156 314.281 35.9453 314.031 37.0859 314.031Z" fill="#666666"/>
    <path d="M69.9375 347.438C69.3438 347.438 68.8359 347.555 68.4141 347.789C68.0078 348.023 67.6562 348.344 67.3594 348.75C67.0781 349.141 66.8516 349.586 66.6797 350.086C66.5234 350.586 66.3984 351.102 66.3047 351.633C66.2109 352.148 66.1484 352.664 66.1172 353.18C66.1016 353.695 66.0938 354.156 66.0938 354.562C66.0938 355.188 66.125 355.906 66.1875 356.719C66.2656 357.531 66.4297 358.305 66.6797 359.039C66.9453 359.773 67.3281 360.398 67.8281 360.914C68.3438 361.414 69.0469 361.664 69.9375 361.664C70.8125 361.664 71.5078 361.414 72.0234 360.914C72.5391 360.398 72.9219 359.773 73.1719 359.039C73.4375 358.305 73.6016 357.531 73.6641 356.719C73.7422 355.906 73.7812 355.188 73.7812 354.562C73.7812 354.156 73.7656 353.695 73.7344 353.18C73.7188 352.664 73.6641 352.148 73.5703 351.633C73.4766 351.102 73.3438 350.586 73.1719 350.086C73 349.586 72.7734 349.141 72.4922 348.75C72.2109 348.344 71.8594 348.023 71.4375 347.789C71.0156 347.555 70.5156 347.438 69.9375 347.438ZM69.9375 346.031C71.0625 346.031 71.9844 346.281 72.7031 346.781C73.4219 347.266 73.9844 347.906 74.3906 348.703C74.7969 349.5 75.0703 350.414 75.2109 351.445C75.3672 352.461 75.4453 353.5 75.4453 354.562C75.4453 355.625 75.3672 356.664 75.2109 357.68C75.0703 358.695 74.7969 359.609 74.3906 360.422C73.9844 361.234 73.4219 361.891 72.7031 362.391C71.9844 362.875 71.0625 363.117 69.9375 363.117C68.7969 363.117 67.8672 362.875 67.1484 362.391C66.4297 361.891 65.8672 361.234 65.4609 360.422C65.0547 359.609 64.7734 358.695 64.6172 357.68C64.4766 356.664 64.4062 355.625 64.4062 354.562C64.4062 353.5 64.4766 352.461 64.6172 351.445C64.7734 350.414 65.0547 349.5 65.4609 348.703C65.8672 347.906 66.4297 347.266 67.1484 346.781C67.8672 346.281 68.7969 346.031 69.9375 346.031Z" fill="#666666"/>
    <path d="M157.098 346.031C157.77 346.031 158.402 346.117 158.996 346.289C159.605 346.461 160.137 346.727 160.59 347.086C161.043 347.43 161.402 347.875 161.668 348.422C161.934 348.953 162.066 349.578 162.066 350.297C162.066 350.953 161.918 351.625 161.621 352.312C161.34 353 160.957 353.695 160.473 354.398C160.004 355.086 159.465 355.773 158.855 356.461C158.262 357.133 157.652 357.781 157.027 358.406C156.418 359.016 155.816 359.594 155.223 360.141C154.645 360.672 154.145 361.141 153.723 361.547H162.301V363H151.848V361.336C152.207 361.008 152.668 360.586 153.23 360.07C153.793 359.539 154.387 358.953 155.012 358.312C155.652 357.656 156.293 356.969 156.934 356.25C157.574 355.531 158.152 354.82 158.668 354.117C159.184 353.414 159.598 352.742 159.91 352.102C160.238 351.461 160.402 350.891 160.402 350.391C160.402 349.906 160.309 349.484 160.121 349.125C159.949 348.75 159.707 348.438 159.395 348.188C159.098 347.938 158.746 347.75 158.34 347.625C157.934 347.5 157.504 347.438 157.051 347.438C156.363 347.438 155.645 347.586 154.895 347.883C154.145 348.164 153.441 348.492 152.785 348.867L152.504 347.344C153.113 347.047 153.801 346.758 154.566 346.477C155.348 346.18 156.191 346.031 157.098 346.031ZM170.645 347.438C170.051 347.438 169.543 347.555 169.121 347.789C168.715 348.023 168.363 348.344 168.066 348.75C167.785 349.141 167.559 349.586 167.387 350.086C167.23 350.586 167.105 351.102 167.012 351.633C166.918 352.148 166.855 352.664 166.824 353.18C166.809 353.695 166.801 354.156 166.801 354.562C166.801 355.188 166.832 355.906 166.895 356.719C166.973 357.531 167.137 358.305 167.387 359.039C167.652 359.773 168.035 360.398 168.535 360.914C169.051 361.414 169.754 361.664 170.645 361.664C171.52 361.664 172.215 361.414 172.73 360.914C173.246 360.398 173.629 359.773 173.879 359.039C174.145 358.305 174.309 357.531 174.371 356.719C174.449 355.906 174.488 355.188 174.488 354.562C174.488 354.156 174.473 353.695 174.441 353.18C174.426 352.664 174.371 352.148 174.277 351.633C174.184 351.102 174.051 350.586 173.879 350.086C173.707 349.586 173.48 349.141 173.199 348.75C172.918 348.344 172.566 348.023 172.145 347.789C171.723 347.555 171.223 347.438 170.645 347.438ZM170.645 346.031C171.77 346.031 172.691 346.281 173.41 346.781C174.129 347.266 174.691 347.906 175.098 348.703C175.504 349.5 175.777 350.414 175.918 351.445C176.074 352.461 176.152 353.5 176.152 354.562C176.152 355.625 176.074 356.664 175.918 357.68C175.777 358.695 175.504 359.609 175.098 360.422C174.691 361.234 174.129 361.891 173.41 362.391C172.691 362.875 171.77 363.117 170.645 363.117C169.504 363.117 168.574 362.875 167.855 362.391C167.137 361.891 166.574 361.234 166.168 360.422C165.762 359.609 165.48 358.695 165.324 357.68C165.184 356.664 165.113 355.625 165.113 354.562C165.113 353.5 165.184 352.461 165.324 351.445C165.48 350.414 165.762 349.5 166.168 348.703C166.574 347.906 167.137 347.266 167.855 346.781C168.574 346.281 169.504 346.031 170.645 346.031Z" fill="#666666"/>
    <path d="M262.285 363.211V359.133H254.973V357.609L261.793 346.359H263.855V357.82H266.527V359.133H263.855V363.211H262.285ZM262.285 357.82V348L256.379 357.82H262.285ZM274.051 347.438C273.457 347.438 272.949 347.555 272.527 347.789C272.121 348.023 271.77 348.344 271.473 348.75C271.191 349.141 270.965 349.586 270.793 350.086C270.637 350.586 270.512 351.102 270.418 351.633C270.324 352.148 270.262 352.664 270.23 353.18C270.215 353.695 270.207 354.156 270.207 354.562C270.207 355.188 270.238 355.906 270.301 356.719C270.379 357.531 270.543 358.305 270.793 359.039C271.059 359.773 271.441 360.398 271.941 360.914C272.457 361.414 273.16 361.664 274.051 361.664C274.926 361.664 275.621 361.414 276.137 360.914C276.652 360.398 277.035 359.773 277.285 359.039C277.551 358.305 277.715 357.531 277.777 356.719C277.855 355.906 277.895 355.188 277.895 354.562C277.895 354.156 277.879 353.695 277.848 353.18C277.832 352.664 277.777 352.148 277.684 351.633C277.59 351.102 277.457 350.586 277.285 350.086C277.113 349.586 276.887 349.141 276.605 348.75C276.324 348.344 275.973 348.023 275.551 347.789C275.129 347.555 274.629 347.438 274.051 347.438ZM274.051 346.031C275.176 346.031 276.098 346.281 276.816 346.781C277.535 347.266 278.098 347.906 278.504 348.703C278.91 349.5 279.184 350.414 279.324 351.445C279.48 352.461 279.559 353.5 279.559 354.562C279.559 355.625 279.48 356.664 279.324 357.68C279.184 358.695 278.91 359.609 278.504 360.422C278.098 361.234 277.535 361.891 276.816 362.391C276.098 362.875 275.176 363.117 274.051 363.117C272.91 363.117 271.98 362.875 271.262 362.391C270.543 361.891 269.98 361.234 269.574 360.422C269.168 359.609 268.887 358.695 268.73 357.68C268.59 356.664 268.52 355.625 268.52 354.562C268.52 353.5 268.59 352.461 268.73 351.445C268.887 350.414 269.168 349.5 269.574 348.703C269.98 347.906 270.543 347.266 271.262 346.781C271.98 346.281 272.91 346.031 274.051 346.031Z" fill="#666666"/>
    <path d="M353.359 347.438C352.359 347.438 351.539 347.672 350.898 348.141C350.273 348.594 349.773 349.188 349.398 349.922C349.039 350.641 348.789 351.445 348.648 352.336C348.523 353.211 348.461 354.07 348.461 354.914H348.508C348.883 354.008 349.461 353.328 350.242 352.875C351.023 352.422 351.906 352.195 352.891 352.195C353.703 352.195 354.422 352.336 355.047 352.617C355.688 352.883 356.227 353.266 356.664 353.766C357.102 354.25 357.43 354.828 357.648 355.5C357.867 356.172 357.977 356.906 357.977 357.703C357.977 358.5 357.852 359.242 357.602 359.93C357.367 360.602 357.023 361.195 356.57 361.711C356.133 362.211 355.586 362.609 354.93 362.906C354.289 363.188 353.562 363.328 352.75 363.328C351.594 363.328 350.633 363.109 349.867 362.672C349.102 362.234 348.492 361.656 348.039 360.938C347.586 360.203 347.266 359.367 347.078 358.43C346.891 357.492 346.797 356.523 346.797 355.523C346.797 354.461 346.883 353.367 347.055 352.242C347.227 351.117 347.555 350.094 348.039 349.172C348.523 348.25 349.18 347.5 350.008 346.922C350.852 346.328 351.945 346.031 353.289 346.031C354.07 346.031 354.766 346.102 355.375 346.242C356 346.383 356.539 346.516 356.992 346.641L356.734 348.117C356.562 348.023 356.344 347.938 356.078 347.859C355.828 347.766 355.547 347.695 355.234 347.648C354.938 347.586 354.625 347.539 354.297 347.508C353.969 347.461 353.656 347.438 353.359 347.438ZM352.82 353.531C352.164 353.531 351.578 353.648 351.062 353.883C350.562 354.102 350.141 354.406 349.797 354.797C349.453 355.188 349.195 355.648 349.023 356.18C348.852 356.711 348.766 357.289 348.766 357.914C348.766 358.445 348.859 358.953 349.047 359.438C349.234 359.906 349.492 360.328 349.82 360.703C350.148 361.062 350.539 361.352 350.992 361.57C351.445 361.789 351.945 361.898 352.492 361.898C353.102 361.898 353.641 361.797 354.109 361.594C354.594 361.391 354.992 361.109 355.305 360.75C355.633 360.375 355.875 359.938 356.031 359.438C356.203 358.938 356.289 358.391 356.289 357.797C356.289 357.25 356.219 356.727 356.078 356.227C355.953 355.711 355.75 355.258 355.469 354.867C355.188 354.461 354.828 354.141 354.391 353.906C353.953 353.656 353.43 353.531 352.82 353.531ZM366.086 347.438C365.492 347.438 364.984 347.555 364.562 347.789C364.156 348.023 363.805 348.344 363.508 348.75C363.227 349.141 363 349.586 362.828 350.086C362.672 350.586 362.547 351.102 362.453 351.633C362.359 352.148 362.297 352.664 362.266 353.18C362.25 353.695 362.242 354.156 362.242 354.562C362.242 355.188 362.273 355.906 362.336 356.719C362.414 357.531 362.578 358.305 362.828 359.039C363.094 359.773 363.477 360.398 363.977 360.914C364.492 361.414 365.195 361.664 366.086 361.664C366.961 361.664 367.656 361.414 368.172 360.914C368.688 360.398 369.07 359.773 369.32 359.039C369.586 358.305 369.75 357.531 369.812 356.719C369.891 355.906 369.93 355.188 369.93 354.562C369.93 354.156 369.914 353.695 369.883 353.18C369.867 352.664 369.812 352.148 369.719 351.633C369.625 351.102 369.492 350.586 369.32 350.086C369.148 349.586 368.922 349.141 368.641 348.75C368.359 348.344 368.008 348.023 367.586 347.789C367.164 347.555 366.664 347.438 366.086 347.438ZM366.086 346.031C367.211 346.031 368.133 346.281 368.852 346.781C369.57 347.266 370.133 347.906 370.539 348.703C370.945 349.5 371.219 350.414 371.359 351.445C371.516 352.461 371.594 353.5 371.594 354.562C371.594 355.625 371.516 356.664 371.359 357.68C371.219 358.695 370.945 359.609 370.539 360.422C370.133 361.234 369.57 361.891 368.852 362.391C368.133 362.875 367.211 363.117 366.086 363.117C364.945 363.117 364.016 362.875 363.297 362.391C362.578 361.891 362.016 361.234 361.609 360.422C361.203 359.609 360.922 358.695 360.766 357.68C360.625 356.664 360.555 355.625 360.555 354.562C360.555 353.5 360.625 352.461 360.766 351.445C360.922 350.414 361.203 349.5 361.609 348.703C362.016 347.906 362.578 347.266 363.297 346.781C364.016 346.281 364.945 346.031 366.086 346.031Z" fill="#666666"/>
</svg>
