<svg width="212" height="202" viewBox="0 0 212 202" fill="none" xmlns="http://www.w3.org/2000/svg">
    <path d="M77.3555 21.5781V16.4922H82.6992V15.3438H77.3555V13.2812H84.0586V12.0156H75.293V9.92969H95.2148V12.0156H86.4258V13.2812H93.1523V21.5781H90.7852V15.3906H85.7461L85.207 14.4297H84.9492V18.3672H79.6055V19.5156H81.7148C82.418 19.5156 83.1445 19.4766 83.8945 19.3984C84.6445 19.3203 85.2852 19.1641 85.8164 18.9297L86.332 20.9453C86.0352 21.0859 85.6914 21.1953 85.3008 21.2734C84.9258 21.3672 84.5273 21.4297 84.1055 21.4609C83.6992 21.5078 83.2852 21.5391 82.8633 21.5547C82.457 21.5703 82.0742 21.5781 81.7148 21.5781H77.3555ZM77.707 8.57031V1.09375H80.0742V3.0625H90.457V1.09375H92.8242V8.57031H77.707ZM90.457 5.10156H80.0742V6.48438H90.457V5.10156ZM97.0898 13.9844V11.8516H117.012V13.9844H97.0898ZM99.1523 5.28906C99.1523 3.97656 99.793 2.92969 101.074 2.14844C102.371 1.36719 104.363 0.976562 107.051 0.976562C109.754 0.976562 111.746 1.36719 113.027 2.14844C114.309 2.92969 114.949 3.97656 114.949 5.28906C114.949 6.63281 114.309 7.6875 113.027 8.45312C111.746 9.21875 109.754 9.60156 107.051 9.60156C104.363 9.60156 102.371 9.21875 101.074 8.45312C99.793 7.6875 99.1523 6.63281 99.1523 5.28906ZM101.637 5.28906C101.637 6.03906 102.066 6.60938 102.926 7C103.785 7.375 105.16 7.5625 107.051 7.5625C108.941 7.5625 110.316 7.375 111.176 7C112.035 6.60938 112.465 6.03906 112.465 5.28906C112.465 4.53906 112.035 3.97656 111.176 3.60156C110.316 3.21094 108.941 3.01562 107.051 3.01562C105.16 3.01562 103.785 3.21094 102.926 3.60156C102.066 3.97656 101.637 4.53906 101.637 5.28906ZM101.871 15.3906V19.2109H115.324V21.3438H99.5039V15.3906H101.871ZM124.348 17.0312C124.738 15.9219 125.066 14.7422 125.332 13.4922C125.598 12.2422 125.816 11.0234 125.988 9.83594C126.16 8.64844 126.285 7.53906 126.363 6.50781C126.457 5.47656 126.504 4.625 126.504 3.95312H118.418V1.82031H128.941C128.941 2.83594 128.902 3.99219 128.824 5.28906C128.746 6.58594 128.621 7.9375 128.449 9.34375C128.277 10.7344 128.059 12.1328 127.793 13.5391C127.527 14.9453 127.207 16.2656 126.832 17.5L124.348 17.0312ZM133.699 20.7344V0.625H136.066V20.7344H133.699Z" fill="#333333"/>
    <line x1="39.5" y1="63" x2="39.5" y2="172" stroke="#666666"/>
    <line x1="212" y1="172.5" x2="39" y2="172.5" stroke="#666666"/>
    <path d="M1.23047 58.9102L4.07812 56.5371H5.09766V69H3.95508V57.9434L1.91602 59.7188L1.23047 58.9102ZM12.8496 57.3281C12.4043 57.3281 12.0234 57.416 11.707 57.5918C11.4023 57.7676 11.1387 58.0078 10.916 58.3125C10.7051 58.6055 10.5352 58.9395 10.4062 59.3145C10.2891 59.6895 10.1953 60.0762 10.125 60.4746C10.0547 60.8613 10.0078 61.248 9.98438 61.6348C9.97266 62.0215 9.9668 62.3672 9.9668 62.6719C9.9668 63.1406 9.99023 63.6797 10.0371 64.2891C10.0957 64.8984 10.2188 65.4785 10.4062 66.0293C10.6055 66.5801 10.8926 67.0488 11.2676 67.4355C11.6543 67.8105 12.1816 67.998 12.8496 67.998C13.5059 67.998 14.0273 67.8105 14.4141 67.4355C14.8008 67.0488 15.0879 66.5801 15.2754 66.0293C15.4746 65.4785 15.5977 64.8984 15.6445 64.2891C15.7031 63.6797 15.7324 63.1406 15.7324 62.6719C15.7324 62.3672 15.7207 62.0215 15.6973 61.6348C15.6855 61.248 15.6445 60.8613 15.5742 60.4746C15.5039 60.0762 15.4043 59.6895 15.2754 59.3145C15.1465 58.9395 14.9766 58.6055 14.7656 58.3125C14.5547 58.0078 14.291 57.7676 13.9746 57.5918C13.6582 57.416 13.2832 57.3281 12.8496 57.3281ZM12.8496 56.2734C13.6934 56.2734 14.3848 56.4609 14.9238 56.8359C15.4629 57.1992 15.8848 57.6797 16.1895 58.2773C16.4941 58.875 16.6992 59.5605 16.8047 60.334C16.9219 61.0957 16.9805 61.875 16.9805 62.6719C16.9805 63.4688 16.9219 64.248 16.8047 65.0098C16.6992 65.7715 16.4941 66.457 16.1895 67.0664C15.8848 67.6758 15.4629 68.168 14.9238 68.543C14.3848 68.9062 13.6934 69.0879 12.8496 69.0879C11.9941 69.0879 11.2969 68.9062 10.7578 68.543C10.2188 68.168 9.79688 67.6758 9.49219 67.0664C9.1875 66.457 8.97656 65.7715 8.85938 65.0098C8.75391 64.248 8.70117 63.4688 8.70117 62.6719C8.70117 61.875 8.75391 61.0957 8.85938 60.334C8.97656 59.5605 9.1875 58.875 9.49219 58.2773C9.79688 57.6797 10.2188 57.1992 10.7578 56.8359C11.2969 56.4609 11.9941 56.2734 12.8496 56.2734ZM23.2383 57.3281C22.793 57.3281 22.4121 57.416 22.0957 57.5918C21.791 57.7676 21.5273 58.0078 21.3047 58.3125C21.0938 58.6055 20.9238 58.9395 20.7949 59.3145C20.6777 59.6895 20.584 60.0762 20.5137 60.4746C20.4434 60.8613 20.3965 61.248 20.373 61.6348C20.3613 62.0215 20.3555 62.3672 20.3555 62.6719C20.3555 63.1406 20.3789 63.6797 20.4258 64.2891C20.4844 64.8984 20.6074 65.4785 20.7949 66.0293C20.9941 66.5801 21.2812 67.0488 21.6562 67.4355C22.043 67.8105 22.5703 67.998 23.2383 67.998C23.8945 67.998 24.416 67.8105 24.8027 67.4355C25.1895 67.0488 25.4766 66.5801 25.6641 66.0293C25.8633 65.4785 25.9863 64.8984 26.0332 64.2891C26.0918 63.6797 26.1211 63.1406 26.1211 62.6719C26.1211 62.3672 26.1094 62.0215 26.0859 61.6348C26.0742 61.248 26.0332 60.8613 25.9629 60.4746C25.8926 60.0762 25.793 59.6895 25.6641 59.3145C25.5352 58.9395 25.3652 58.6055 25.1543 58.3125C24.9434 58.0078 24.6797 57.7676 24.3633 57.5918C24.0469 57.416 23.6719 57.3281 23.2383 57.3281ZM23.2383 56.2734C24.082 56.2734 24.7734 56.4609 25.3125 56.8359C25.8516 57.1992 26.2734 57.6797 26.5781 58.2773C26.8828 58.875 27.0879 59.5605 27.1934 60.334C27.3105 61.0957 27.3691 61.875 27.3691 62.6719C27.3691 63.4688 27.3105 64.248 27.1934 65.0098C27.0879 65.7715 26.8828 66.457 26.5781 67.0664C26.2734 67.6758 25.8516 68.168 25.3125 68.543C24.7734 68.9062 24.082 69.0879 23.2383 69.0879C22.3828 69.0879 21.6855 68.9062 21.1465 68.543C20.6074 68.168 20.1855 67.6758 19.8809 67.0664C19.5762 66.457 19.3652 65.7715 19.248 65.0098C19.1426 64.248 19.0898 63.4688 19.0898 62.6719C19.0898 61.875 19.1426 61.0957 19.248 60.334C19.3652 59.5605 19.5762 58.875 19.8809 58.2773C20.1855 57.6797 20.6074 57.1992 21.1465 56.8359C21.6855 56.4609 22.3828 56.2734 23.2383 56.2734Z" fill="#666666"/>
    <path d="M13.6191 165.174C14.0996 165.174 14.5156 165.086 14.8672 164.91C15.2305 164.734 15.5293 164.5 15.7637 164.207C15.998 163.902 16.1738 163.551 16.291 163.152C16.4082 162.754 16.4668 162.332 16.4668 161.887C16.4668 161.441 16.4082 161.031 16.291 160.656C16.1738 160.281 15.998 159.959 15.7637 159.689C15.541 159.42 15.2539 159.215 14.9023 159.074C14.5625 158.922 14.1582 158.846 13.6895 158.846C13.3848 158.846 13.0918 158.893 12.8105 158.986C12.541 159.068 12.2949 159.191 12.0723 159.355C11.8496 159.52 11.6562 159.725 11.4922 159.971C11.3398 160.205 11.2285 160.469 11.1582 160.762H9.96289L10.2441 153.52H17.0996V154.609H11.3691L11.1582 159.057L11.1934 159.092C11.5449 158.682 11.9492 158.365 12.4062 158.143C12.8633 157.908 13.373 157.791 13.9355 157.791C14.5215 157.791 15.0488 157.902 15.5176 158.125C15.9863 158.348 16.3848 158.652 16.7129 159.039C17.041 159.414 17.293 159.854 17.4688 160.357C17.6445 160.85 17.7324 161.377 17.7324 161.939C17.7324 162.537 17.6387 163.1 17.4512 163.627C17.2637 164.143 17 164.6 16.6602 164.998C16.3203 165.385 15.8984 165.689 15.3945 165.912C14.9023 166.135 14.3516 166.246 13.7422 166.246C12.9922 166.246 12.3359 166.164 11.7734 166C11.2109 165.848 10.7188 165.689 10.2969 165.525L10.3496 164.348C10.5488 164.453 10.7773 164.559 11.0352 164.664C11.3047 164.758 11.5801 164.846 11.8613 164.928C12.1543 164.998 12.4531 165.057 12.7578 165.104C13.0625 165.15 13.3496 165.174 13.6191 165.174ZM23.8145 154.328C23.3691 154.328 22.9883 154.416 22.6719 154.592C22.3672 154.768 22.1035 155.008 21.8809 155.312C21.6699 155.605 21.5 155.939 21.3711 156.314C21.2539 156.689 21.1602 157.076 21.0898 157.475C21.0195 157.861 20.9727 158.248 20.9492 158.635C20.9375 159.021 20.9316 159.367 20.9316 159.672C20.9316 160.141 20.9551 160.68 21.002 161.289C21.0605 161.898 21.1836 162.479 21.3711 163.029C21.5703 163.58 21.8574 164.049 22.2324 164.436C22.6191 164.811 23.1465 164.998 23.8145 164.998C24.4707 164.998 24.9922 164.811 25.3789 164.436C25.7656 164.049 26.0527 163.58 26.2402 163.029C26.4395 162.479 26.5625 161.898 26.6094 161.289C26.668 160.68 26.6973 160.141 26.6973 159.672C26.6973 159.367 26.6855 159.021 26.6621 158.635C26.6504 158.248 26.6094 157.861 26.5391 157.475C26.4688 157.076 26.3691 156.689 26.2402 156.314C26.1113 155.939 25.9414 155.605 25.7305 155.312C25.5195 155.008 25.2559 154.768 24.9395 154.592C24.623 154.416 24.248 154.328 23.8145 154.328ZM23.8145 153.273C24.6582 153.273 25.3496 153.461 25.8887 153.836C26.4277 154.199 26.8496 154.68 27.1543 155.277C27.459 155.875 27.6641 156.561 27.7695 157.334C27.8867 158.096 27.9453 158.875 27.9453 159.672C27.9453 160.469 27.8867 161.248 27.7695 162.01C27.6641 162.771 27.459 163.457 27.1543 164.066C26.8496 164.676 26.4277 165.168 25.8887 165.543C25.3496 165.906 24.6582 166.088 23.8145 166.088C22.959 166.088 22.2617 165.906 21.7227 165.543C21.1836 165.168 20.7617 164.676 20.457 164.066C20.1523 163.457 19.9414 162.771 19.8242 162.01C19.7188 161.248 19.666 160.469 19.666 159.672C19.666 158.875 19.7188 158.096 19.8242 157.334C19.9414 156.561 20.1523 155.875 20.457 155.277C20.7617 154.68 21.1836 154.199 21.7227 153.836C22.2617 153.461 22.959 153.273 23.8145 153.273Z" fill="#666666"/>
    <path d="M60.6191 186.789L63.7832 184.152H64.916V198H63.6465V185.715L61.3809 187.688L60.6191 186.789Z" fill="#666666"/>
    <path d="M104.02 183.859C104.579 183.859 105.107 183.931 105.602 184.074C106.109 184.217 106.552 184.439 106.93 184.738C107.307 185.025 107.607 185.396 107.828 185.852C108.049 186.294 108.16 186.815 108.16 187.414C108.16 187.961 108.036 188.521 107.789 189.094C107.555 189.667 107.236 190.246 106.832 190.832C106.441 191.405 105.992 191.978 105.484 192.551C104.99 193.111 104.482 193.651 103.961 194.172C103.453 194.68 102.952 195.161 102.457 195.617C101.975 196.06 101.559 196.451 101.207 196.789H108.355V198H99.6445V196.613C99.944 196.34 100.328 195.988 100.797 195.559C101.266 195.116 101.76 194.628 102.281 194.094C102.815 193.547 103.349 192.974 103.883 192.375C104.417 191.776 104.898 191.184 105.328 190.598C105.758 190.012 106.103 189.452 106.363 188.918C106.637 188.384 106.773 187.909 106.773 187.492C106.773 187.089 106.695 186.737 106.539 186.438C106.396 186.125 106.194 185.865 105.934 185.656C105.686 185.448 105.393 185.292 105.055 185.188C104.716 185.083 104.358 185.031 103.98 185.031C103.408 185.031 102.809 185.155 102.184 185.402C101.559 185.637 100.973 185.91 100.426 186.223L100.191 184.953C100.699 184.706 101.272 184.465 101.91 184.23C102.561 183.983 103.264 183.859 104.02 183.859Z" fill="#666666"/>
    <path d="M144.836 197.082C145.292 197.082 145.721 197.023 146.125 196.906C146.542 196.776 146.9 196.587 147.199 196.34C147.512 196.092 147.753 195.786 147.922 195.422C148.104 195.044 148.195 194.608 148.195 194.113C148.195 193.566 148.072 193.117 147.824 192.766C147.59 192.401 147.277 192.121 146.887 191.926C146.509 191.717 146.079 191.574 145.598 191.496C145.116 191.418 144.634 191.379 144.152 191.379H142.883V190.168H144.152C144.595 190.168 145.044 190.129 145.5 190.051C145.956 189.973 146.366 189.836 146.73 189.641C147.095 189.432 147.395 189.159 147.629 188.82C147.863 188.482 147.98 188.052 147.98 187.531C147.98 187.141 147.896 186.789 147.727 186.477C147.57 186.164 147.355 185.904 147.082 185.695C146.809 185.474 146.49 185.311 146.125 185.207C145.76 185.09 145.376 185.025 144.973 185.012C144.738 184.999 144.465 185.012 144.152 185.051C143.853 185.077 143.547 185.122 143.234 185.188C142.922 185.253 142.609 185.331 142.297 185.422C141.997 185.513 141.724 185.617 141.477 185.734L141.359 184.523C141.867 184.328 142.408 184.172 142.98 184.055C143.566 183.924 144.152 183.859 144.738 183.859C145.324 183.859 145.891 183.931 146.438 184.074C146.997 184.217 147.492 184.439 147.922 184.738C148.365 185.038 148.716 185.428 148.977 185.91C149.237 186.379 149.367 186.952 149.367 187.629C149.367 188.046 149.289 188.43 149.133 188.781C148.99 189.133 148.788 189.439 148.527 189.699C148.28 189.96 147.987 190.181 147.648 190.363C147.31 190.533 146.945 190.656 146.555 190.734V190.773C146.997 190.878 147.401 191.034 147.766 191.242C148.143 191.438 148.469 191.685 148.742 191.984C149.016 192.271 149.224 192.609 149.367 193C149.523 193.391 149.602 193.82 149.602 194.289C149.602 194.94 149.465 195.513 149.191 196.008C148.918 196.503 148.553 196.919 148.098 197.258C147.655 197.596 147.147 197.85 146.574 198.02C146.014 198.189 145.441 198.273 144.855 198.273C144.27 198.273 143.632 198.202 142.941 198.059C142.264 197.915 141.652 197.733 141.105 197.512L141.281 196.242C142.466 196.802 143.651 197.082 144.836 197.082Z" fill="#666666"/>
    <path d="M187.926 198.176V194.777H181.832V193.508L187.516 184.133H189.234V193.684H191.461V194.777H189.234V198.176H187.926ZM187.926 193.684V185.5L183.004 193.684H187.926Z" fill="#666666"/>
    <path d="M68 126L105 113" stroke="#DDDDDD" stroke-width="4" stroke-linecap="round" stroke-dasharray="3 6"/>
    <circle cx="65" cy="126" r="6" fill="#D9D9D9"/>
    <path d="M60.5469 96.625C59.8802 96.625 59.3333 96.7812 58.9062 97.0938C58.4896 97.3958 58.1562 97.7917 57.9062 98.2812C57.6667 98.7604 57.5 99.2969 57.4062 99.8906C57.3229 100.474 57.2812 101.047 57.2812 101.609H57.3125C57.5625 101.005 57.9479 100.552 58.4688 100.25C58.9896 99.9479 59.5781 99.7969 60.2344 99.7969C60.776 99.7969 61.2552 99.8906 61.6719 100.078C62.099 100.255 62.4583 100.51 62.75 100.844C63.0417 101.167 63.2604 101.552 63.4062 102C63.5521 102.448 63.625 102.938 63.625 103.469C63.625 104 63.5417 104.495 63.375 104.953C63.2188 105.401 62.9896 105.797 62.6875 106.141C62.3958 106.474 62.0312 106.74 61.5938 106.938C61.1667 107.125 60.6823 107.219 60.1406 107.219C59.3698 107.219 58.7292 107.073 58.2188 106.781C57.7083 106.49 57.3021 106.104 57 105.625C56.6979 105.135 56.4844 104.578 56.3594 103.953C56.2344 103.328 56.1719 102.682 56.1719 102.016C56.1719 101.307 56.2292 100.578 56.3438 99.8281C56.4583 99.0781 56.6771 98.3958 57 97.7812C57.3229 97.1667 57.7604 96.6667 58.3125 96.2812C58.875 95.8854 59.6042 95.6875 60.5 95.6875C61.0208 95.6875 61.4844 95.7344 61.8906 95.8281C62.3073 95.9219 62.6667 96.0104 62.9688 96.0938L62.7969 97.0781C62.6823 97.0156 62.5365 96.9583 62.3594 96.9062C62.1927 96.8438 62.0052 96.7969 61.7969 96.7656C61.599 96.724 61.3906 96.6927 61.1719 96.6719C60.9531 96.6406 60.7448 96.625 60.5469 96.625ZM60.1875 100.688C59.75 100.688 59.3594 100.766 59.0156 100.922C58.6823 101.068 58.401 101.271 58.1719 101.531C57.9427 101.792 57.7708 102.099 57.6562 102.453C57.5417 102.807 57.4844 103.193 57.4844 103.609C57.4844 103.964 57.5469 104.302 57.6719 104.625C57.7969 104.938 57.9688 105.219 58.1875 105.469C58.4062 105.708 58.6667 105.901 58.9688 106.047C59.2708 106.193 59.6042 106.266 59.9688 106.266C60.375 106.266 60.7344 106.198 61.0469 106.062C61.3698 105.927 61.6354 105.74 61.8438 105.5C62.0625 105.25 62.224 104.958 62.3281 104.625C62.4427 104.292 62.5 103.927 62.5 103.531C62.5 103.167 62.4531 102.818 62.3594 102.484C62.276 102.141 62.1406 101.839 61.9531 101.578C61.7656 101.307 61.526 101.094 61.2344 100.938C60.9427 100.771 60.5938 100.688 60.1875 100.688ZM66.8281 98.6406C66.8281 99.3385 67.0521 99.8646 67.5 100.219C67.9583 100.562 68.5417 100.734 69.25 100.734C69.9583 100.734 70.5417 100.562 71 100.219C71.4583 99.8646 71.6875 99.3385 71.6875 98.6406C71.6875 98.2656 71.6146 97.9479 71.4688 97.6875C71.3229 97.4271 71.1354 97.2135 70.9062 97.0469C70.6771 96.8698 70.4167 96.7448 70.125 96.6719C69.8333 96.5885 69.5417 96.5469 69.25 96.5469C68.9583 96.5469 68.6667 96.5885 68.375 96.6719C68.0833 96.7448 67.8229 96.8698 67.5938 97.0469C67.3646 97.2135 67.1771 97.4271 67.0312 97.6875C66.8958 97.9479 66.8281 98.2656 66.8281 98.6406ZM66.5625 104.016C66.5625 104.411 66.6354 104.755 66.7812 105.047C66.9375 105.328 67.1406 105.562 67.3906 105.75C67.6406 105.927 67.9271 106.057 68.25 106.141C68.5729 106.224 68.9062 106.266 69.25 106.266C69.5938 106.266 69.9271 106.224 70.25 106.141C70.5729 106.057 70.8594 105.927 71.1094 105.75C71.3594 105.562 71.5573 105.328 71.7031 105.047C71.8594 104.755 71.9375 104.411 71.9375 104.016C71.9375 103.63 71.8594 103.292 71.7031 103C71.5573 102.708 71.3594 102.469 71.1094 102.281C70.8594 102.083 70.5729 101.938 70.25 101.844C69.9271 101.75 69.5938 101.703 69.25 101.703C68.9062 101.703 68.5729 101.75 68.25 101.844C67.9271 101.938 67.6406 102.083 67.3906 102.281C67.1406 102.469 66.9375 102.708 66.7812 103C66.6354 103.292 66.5625 103.63 66.5625 104.016ZM70.5938 101.234C71.3438 101.432 71.9427 101.76 72.3906 102.219C72.8385 102.677 73.0625 103.276 73.0625 104.016C73.0625 104.578 72.9479 105.062 72.7188 105.469C72.5 105.875 72.2083 106.208 71.8438 106.469C71.4896 106.719 71.0833 106.906 70.625 107.031C70.1771 107.156 69.7188 107.219 69.25 107.219C68.7917 107.219 68.3333 107.156 67.875 107.031C67.4271 106.906 67.0208 106.719 66.6562 106.469C66.3021 106.208 66.0104 105.875 65.7812 105.469C65.5625 105.062 65.4531 104.578 65.4531 104.016C65.4531 103.297 65.6771 102.703 66.125 102.234C66.5833 101.766 67.1875 101.432 67.9375 101.234V101.203C67.6354 101.13 67.349 101.021 67.0781 100.875C66.8177 100.719 66.5885 100.531 66.3906 100.312C66.2031 100.094 66.0521 99.8438 65.9375 99.5625C65.8333 99.2812 65.7812 98.974 65.7812 98.6406C65.7812 98.1302 65.8802 97.6927 66.0781 97.3281C66.2865 96.9531 66.5521 96.6458 66.875 96.4062C67.2083 96.1562 67.5781 95.974 67.9844 95.8594C68.401 95.7448 68.8229 95.6875 69.25 95.6875C69.6771 95.6875 70.099 95.7448 70.5156 95.8594C70.9323 95.974 71.3021 96.1562 71.625 96.4062C71.9583 96.6458 72.224 96.9531 72.4219 97.3281C72.6302 97.6927 72.7344 98.1302 72.7344 98.6406C72.7344 99.3281 72.5312 99.8906 72.125 100.328C71.7188 100.766 71.2083 101.057 70.5938 101.203V101.234Z" fill="#666666"/>
    <path d="M101.609 82.9062V83.8438L97.2969 94H96.0781L100.516 83.875H94.5469V82.9062H101.609ZM106.156 93.2656C106.521 93.2656 106.865 93.2188 107.188 93.125C107.521 93.0208 107.807 92.8698 108.047 92.6719C108.297 92.474 108.49 92.2292 108.625 91.9375C108.771 91.6354 108.844 91.2865 108.844 90.8906C108.844 90.4531 108.745 90.0938 108.547 89.8125C108.359 89.5208 108.109 89.2969 107.797 89.1406C107.495 88.974 107.151 88.8594 106.766 88.7969C106.38 88.7344 105.995 88.7031 105.609 88.7031H104.594V87.7344H105.609C105.964 87.7344 106.323 87.7031 106.688 87.6406C107.052 87.5781 107.38 87.4688 107.672 87.3125C107.964 87.1458 108.203 86.9271 108.391 86.6562C108.578 86.3854 108.672 86.0417 108.672 85.625C108.672 85.3125 108.604 85.0312 108.469 84.7812C108.344 84.5312 108.172 84.3229 107.953 84.1562C107.734 83.9792 107.479 83.849 107.188 83.7656C106.896 83.6719 106.589 83.6198 106.266 83.6094C106.078 83.599 105.859 83.6094 105.609 83.6406C105.37 83.6615 105.125 83.6979 104.875 83.75C104.625 83.8021 104.375 83.8646 104.125 83.9375C103.885 84.0104 103.667 84.0938 103.469 84.1875L103.375 83.2188C103.781 83.0625 104.214 82.9375 104.672 82.8438C105.141 82.7396 105.609 82.6875 106.078 82.6875C106.547 82.6875 107 82.7448 107.438 82.8594C107.885 82.974 108.281 83.151 108.625 83.3906C108.979 83.6302 109.26 83.9427 109.469 84.3281C109.677 84.7031 109.781 85.1615 109.781 85.7031C109.781 86.0365 109.719 86.3438 109.594 86.625C109.479 86.9062 109.318 87.151 109.109 87.3594C108.911 87.5677 108.677 87.7448 108.406 87.8906C108.135 88.026 107.844 88.125 107.531 88.1875V88.2188C107.885 88.3021 108.208 88.4271 108.5 88.5938C108.802 88.75 109.062 88.9479 109.281 89.1875C109.5 89.4167 109.667 89.6875 109.781 90C109.906 90.3125 109.969 90.6562 109.969 91.0312C109.969 91.5521 109.859 92.0104 109.641 92.4062C109.422 92.8021 109.13 93.1354 108.766 93.4062C108.411 93.6771 108.005 93.8802 107.547 94.0156C107.099 94.151 106.641 94.2188 106.172 94.2188C105.703 94.2188 105.193 94.1615 104.641 94.0469C104.099 93.9323 103.609 93.7865 103.172 93.6094L103.312 92.5938C104.26 93.0417 105.208 93.2656 106.156 93.2656Z" fill="#666666"/>
    <circle cx="104" cy="113" r="6" fill="#E66787"/>
</svg>
