<svg width="12" height="12" viewBox="0 0 12 12" fill="none" xmlns="http://www.w3.org/2000/svg">
<ellipse cx="5.72727" cy="5.7913" rx="5.72727" ry="5.7913" fill="#E6BAD6"/>
<path d="M5.86336 5.81964C6.62064 5.81964 6.83445 6.37818 6.83445 6.99978C6.83445 7.75651 6.54936 8.17091 5.80991 8.17091C5.23082 8.17091 4.76754 7.72949 4.76754 7.03582C4.76754 6.34215 5.05264 5.81964 5.86336 5.81964ZM4.67845 5.48632C4.67845 4.02691 5.38227 3.58549 6.10391 3.58549C6.62954 3.58549 6.977 3.67558 7.38682 3.84674L7.57391 2.85578C7.10173 2.69363 6.63845 2.61255 6.06827 2.61255C4.01918 2.61255 3.55591 4.61248 3.55591 6.13495C3.55591 7.66643 4.06373 9.15286 5.88118 9.15286C7.16409 9.15286 7.94809 8.18893 7.94809 6.93672C7.94809 5.6665 7.20864 4.8377 6.01482 4.8377C5.54264 4.8377 4.99918 5.06291 4.723 5.48632H4.67845Z" fill="white"/>
</svg>
