<svg width="12" height="12" viewBox="0 0 12 12" fill="none" xmlns="http://www.w3.org/2000/svg">
<ellipse cx="5.72727" cy="5.7913" rx="5.72727" ry="5.7913" fill="#E6BAD6"/>
<path d="M3.70752 8.79251C4.30443 9.02674 4.95479 9.15286 5.58734 9.15286C6.68316 9.15286 7.83243 8.63036 7.83243 7.25203C7.83243 6.41422 7.23552 5.84667 6.74552 5.72055V5.69352C7.17316 5.54938 7.63643 5.00886 7.63643 4.37825C7.63643 3.04497 6.64752 2.61255 5.52497 2.61255C4.99934 2.61255 4.38461 2.72065 3.82334 2.92785L3.91243 3.87377C4.50934 3.58549 5.1597 3.52243 5.58734 3.52243C6.17534 3.52243 6.58516 3.83773 6.58516 4.36024C6.58516 5.02688 5.90807 5.24309 5.2577 5.24309H4.45588V6.23404H5.2577C5.9437 6.23404 6.71879 6.48629 6.71879 7.15293C6.71879 7.8466 6.17534 8.16191 5.57843 8.16191C5.10625 8.16191 4.50934 8.04479 3.85007 7.75651L3.70752 8.79251Z" fill="white"/>
</svg>
