<svg width="12" height="12" viewBox="0 0 12 12" fill="none" xmlns="http://www.w3.org/2000/svg">
<ellipse cx="5.72727" cy="5.7913" rx="5.72727" ry="5.7913" fill="#E6BAD6"/>
<path d="M5.64067 8.17089C4.92795 8.17089 4.46467 8.01774 3.93904 7.73847L3.88558 8.75646C4.3934 9.0087 5.05267 9.15284 5.70304 9.15284C7.09285 9.15284 7.80558 8.14387 7.80558 6.90967C7.80558 5.71152 7.17304 4.7566 5.97031 4.7566C5.45358 4.7566 5.02595 4.9638 4.81213 5.22505L4.77649 5.18901L4.83885 3.7206H7.50267V2.73865H3.85885L3.71631 6.47726H4.69631C4.84776 6.0088 5.23085 5.73854 5.70304 5.73854C6.29104 5.73854 6.67413 6.19799 6.67413 6.87364C6.67413 7.5583 6.44249 8.17089 5.64067 8.17089Z" fill="white"/>
</svg>
