<svg version="1.1" id="Layer_1" xmlns="http://www.w3.org/2000/svg" xmlns:xlink="http://www.w3.org/1999/xlink" x="0px" y="0px"
	 width="100%" viewBox="0 0 809 100" enable-background="new 0 0 809 100" xml:space="preserve">
<path fill="#D9D9D9" opacity="1.000000" stroke="none" 
	d="
M807.000000,1.000000 
	C807.999512,1.000000 808.999023,1.000000 809.998901,1.000000 
	C809.999268,34.316433 809.999268,67.632866 809.999268,100.974602 
	C540.333313,100.974602 270.666656,100.974602 1.000786,100.974602 
	C1.000786,67.632805 1.000786,34.316402 1.001179,1.000000 
	C2.001048,1.000000 3.000525,1.000000 4.419872,1.158698 
	C4.839743,1.317396 4.838570,1.672954 4.464613,1.859552 
	C3.736506,3.919845 3.078297,5.792818 3.073842,7.667343 
	C3.007715,35.492672 3.028066,63.318211 3.028267,91.143700 
	C3.028320,98.439247 3.028792,98.439980 10.335576,98.439972 
	C273.594696,98.439819 536.853821,98.439514 800.112915,98.439148 
	C801.445862,98.439148 802.794739,98.305038 804.108765,98.462639 
	C807.943665,98.922615 808.877563,97.146393 808.862671,93.535629 
	C808.743103,64.544296 808.822205,35.552166 808.725342,6.560669 
	C808.720032,4.962195 807.691223,3.367140 807.110229,1.576757 
	C807.081726,1.383020 807.000000,1.000000 807.000000,1.000000 
z"/>
<path fill="#7F7F7F" opacity="1.000000" stroke="none" 
	d="
M806.542053,1.000000 
	C807.000000,1.000000 807.081726,1.383020 806.635742,1.633826 
	C805.689941,1.895022 805.190125,1.914516 804.690369,1.914521 
	C539.566223,1.917143 274.442017,1.918854 9.317861,1.909583 
	C7.824761,1.909531 6.331666,1.755226 4.838570,1.672954 
	C4.838570,1.672954 4.839743,1.317396 4.919871,1.158698 
	C272.028046,1.000000 539.056091,1.000000 806.542053,1.000000 
z"/>
<path fill="#181818" opacity="1.000000" stroke="none" 
	d="
M4.464613,1.859552 
	C6.331666,1.755226 7.824761,1.909531 9.317861,1.909583 
	C274.442017,1.918854 539.566223,1.917143 804.690369,1.914521 
	C805.190125,1.914516 805.689941,1.895022 806.664246,1.827563 
	C807.691223,3.367140 808.720032,4.962195 808.725342,6.560669 
	C808.822205,35.552166 808.743103,64.544296 808.862671,93.535629 
	C808.877563,97.146393 807.943665,98.922615 804.108765,98.462639 
	C802.794739,98.305038 801.445862,98.439148 800.112915,98.439148 
	C536.853821,98.439514 273.594696,98.439819 10.335576,98.439972 
	C3.028792,98.439980 3.028320,98.439247 3.028267,91.143700 
	C3.028066,63.318211 3.007715,35.492672 3.073842,7.667343 
	C3.078297,5.792818 3.736506,3.919845 4.464613,1.859552 
M8.044518,27.500151 
	C8.044518,49.422440 8.044518,71.344727 8.044518,93.134018 
	C273.570435,93.134018 538.456726,93.134018 803.557251,93.134018 
	C803.557251,64.287666 803.557251,35.718380 803.557251,6.868958 
	C538.364075,6.868958 273.375793,6.868958 8.044518,6.868958 
	C8.044518,13.553917 8.044518,20.027130 8.044518,27.500151 
z"/>
<path fill="#FEFEFE" opacity="1.000000" stroke="none" 
	d="
M8.044518,27.000248 
	C8.044518,20.027130 8.044518,13.553917 8.044518,6.868958 
	C273.375793,6.868958 538.364075,6.868958 803.557251,6.868958 
	C803.557251,35.718380 803.557251,64.287666 803.557251,93.134018 
	C538.456726,93.134018 273.570435,93.134018 8.044518,93.134018 
	C8.044518,71.344727 8.044518,49.422440 8.044518,27.000248 
M124.436577,54.156055 
	C125.341309,63.918041 129.795776,71.333771 139.246155,74.723999 
	C147.229675,77.588020 154.734604,75.958549 161.014252,70.157280 
	C170.379593,61.505390 171.189896,44.435047 162.863983,34.649284 
	C156.520264,27.193253 145.599670,25.004452 136.652802,30.296005 
	C138.644882,31.193748 140.058258,32.452766 141.272629,32.283550 
	C156.620331,30.144945 167.072983,41.195732 163.724609,56.415146 
	C162.209900,63.300022 158.428955,68.641479 151.395096,70.849510 
	C144.940674,72.875648 139.174240,71.192688 134.475662,66.466766 
	C128.276596,60.231613 126.933174,49.513466 131.459259,40.962929 
	C132.929352,38.185688 132.425995,36.878601 129.791336,35.492310 
	C125.534630,40.808640 124.310936,46.841198 124.436577,54.156055 
M494.640503,61.371502 
	C494.817993,56.053856 493.125641,51.479939 488.739624,48.333904 
	C482.830719,44.095486 476.771362,45.292942 470.431000,49.220913 
	C470.431000,41.302959 470.431000,34.210636 470.431000,26.824413 
	C468.798828,26.919954 467.550842,26.993006 466.110565,27.077314 
	C466.110565,42.501732 466.107971,57.622036 466.119598,72.742325 
	C466.120087,73.390732 466.251862,74.039040 466.424561,75.624001 
	C468.451141,74.705643 470.095062,73.960693 471.973602,73.109421 
	C482.710510,79.484184 492.349182,75.022972 494.640503,61.371502 
M196.061417,47.425011 
	C192.341385,51.553047 187.637283,51.233044 182.539719,50.591122 
	C182.539719,43.072826 182.539719,35.785919 182.539719,28.322784 
	C180.942398,28.322784 179.619507,28.322784 178.254608,28.322784 
	C178.254608,43.961891 178.254608,59.230255 178.254608,74.671417 
	C179.744354,74.671417 181.060272,74.671417 182.663391,74.671417 
	C182.663391,68.030289 182.663391,61.757629 182.663391,55.534737 
	C198.818008,53.315666 203.414963,49.757690 202.560333,40.324535 
	C201.849625,32.479912 196.392044,28.036825 186.310516,28.415121 
	C187.915588,30.296097 188.693542,32.091717 189.948944,32.534924 
	C197.841843,35.321411 199.836227,39.380142 196.061417,47.425011 
M450.959930,72.944420 
	C452.674744,73.788292 454.389557,74.632156 456.654816,75.746910 
	C456.654816,65.444115 456.654816,56.180309 456.654816,45.724560 
	C454.407959,46.886505 452.828827,47.703136 451.098267,48.598076 
	C444.236725,44.275829 436.937561,44.839439 432.028473,50.314220 
	C427.066956,55.847469 426.977478,65.324806 431.833069,71.009323 
	C436.555908,76.538414 443.350555,77.412407 450.959930,72.944420 
M83.871300,44.748959 
	C86.578651,50.592155 89.286003,56.435352 92.123253,62.558895 
	C93.601448,61.849045 94.737053,61.303711 96.075058,60.661179 
	C91.466789,50.728832 86.805641,41.031635 82.492073,31.182215 
	C81.117592,28.043764 79.379921,27.288546 76.257484,28.433441 
	C73.349953,43.841152 70.440231,59.260509 67.452988,75.090637 
	C69.372719,75.090637 70.612442,75.090637 71.864899,75.090637 
	C74.357368,62.099831 76.803070,49.352840 79.452499,35.543980 
	C81.151627,39.049091 82.364212,41.550507 83.871300,44.748959 
M220.593185,52.890030 
	C224.897461,52.890030 229.201736,52.890030 233.934235,52.890030 
	C233.858032,51.239872 233.797363,49.925884 233.725540,48.370735 
	C227.981949,48.370735 222.697830,48.370735 216.949707,48.370735 
	C216.949707,41.540382 216.949707,34.962574 216.949707,28.278225 
	C215.104950,28.278225 213.740784,28.278225 212.405136,28.278225 
	C212.405136,43.981079 212.405136,59.365074 212.405136,74.826172 
	C220.296234,74.826172 227.890427,74.826172 235.496979,74.826172 
	C236.549911,71.820343 235.584167,70.820877 232.634491,70.912994 
	C227.521378,71.072685 222.399673,70.957336 216.893631,70.957336 
	C216.893631,65.443718 216.773926,60.326225 217.015518,55.225838 
	C217.054230,54.408245 218.708572,53.667175 220.593185,52.890030 
M267.760712,72.906242 
	C280.672760,79.171356 293.709900,75.019318 297.549896,62.678246 
	C295.431549,63.346401 293.257690,64.174034 291.882111,65.714500 
	C285.160980,73.241234 274.325806,73.702972 267.207001,66.548767 
	C260.912292,60.222748 259.456268,49.942467 263.942871,41.178043 
	C265.335632,38.457340 265.533234,36.760365 262.302155,35.754459 
	C253.422546,47.753368 255.488403,63.240425 267.760712,72.906242 
M112.485985,43.839645 
	C111.359489,38.656712 110.232994,33.473778 109.138023,28.435900 
	C105.713173,27.081900 104.105858,28.375088 103.001015,31.448298 
	C101.151924,36.591671 98.936821,41.603123 96.903801,46.681328 
	C96.730507,47.114182 96.767380,47.631172 96.667313,48.418232 
	C97.843346,48.805126 98.997520,49.184830 100.335007,49.624840 
	C102.151367,45.332752 103.843987,41.333065 105.536606,37.333378 
	C109.068176,48.915245 111.585251,60.332943 113.986839,71.774887 
	C114.630188,74.839989 115.479042,76.917656 119.062782,74.301521 
	C116.962357,64.421272 114.859406,54.529091 112.485985,43.839645 
M44.114147,55.499699 
	C44.686939,48.292931 38.369503,54.097145 36.428127,51.091297 
	C38.952972,43.969894 41.590443,36.530830 44.230274,29.085104 
	C41.437809,26.964193 40.055576,27.507404 38.998631,30.527870 
	C34.239311,44.128777 29.394663,57.701050 24.420675,71.224754 
	C23.174164,74.613884 24.607208,75.310860 27.620560,75.367043 
	C28.951454,71.730316 30.261738,68.173241 31.555441,64.610130 
	C34.559429,56.336559 34.556187,56.335381 44.114147,55.499699 
M306.951477,57.498817 
	C306.951477,63.283207 306.951477,69.067596 306.951477,75.211830 
	C308.792267,74.967850 310.140564,74.789154 311.388031,74.623817 
	C311.388031,58.896332 311.388031,43.638199 311.388031,28.279253 
	C309.826019,28.279253 308.477356,28.279253 306.951477,28.279253 
	C306.951477,37.902264 306.951477,47.200836 306.951477,57.498817 
M364.403961,49.747993 
	C365.933868,52.435356 366.807495,50.752346 367.796936,49.275665 
	C371.951172,43.075546 376.138214,36.897449 380.296478,30.700024 
	C380.556549,30.312403 380.673279,29.828588 380.934235,29.203951 
	C379.746185,28.621689 378.618896,28.069191 377.390839,27.467304 
	C373.470673,33.093781 369.716003,38.482735 365.834167,44.054153 
	C361.801483,38.282864 358.115143,33.007206 354.281189,27.520340 
	C352.976318,28.310909 351.922394,28.949446 350.587036,29.758492 
	C355.190613,36.420338 359.606995,42.811314 364.403961,49.747993 
M57.780773,62.667263 
	C54.784084,54.359688 51.787395,46.052113 48.790707,37.744534 
	C48.196754,37.697124 47.602806,37.649712 47.008854,37.602299 
	C46.566032,39.016117 45.410801,40.667435 45.790691,41.806980 
	C49.550533,53.085159 53.564648,64.278564 57.601311,75.764954 
	C58.978119,75.334000 60.157635,74.964798 61.739998,74.469505 
	C60.410255,70.560402 59.196213,66.991409 57.780773,62.667263 
M406.998474,56.499329 
	C406.998474,47.068291 406.998474,37.637253 406.998474,27.883890 
	C405.257355,28.098734 404.057770,28.246758 403.020874,28.374704 
	C403.020874,44.052341 403.020874,59.314869 403.020874,74.961678 
	C404.415985,74.897949 405.607391,74.843521 406.998474,74.779976 
	C406.998474,68.771286 406.998474,63.134968 406.998474,56.499329 
M293.582214,32.916084 
	C285.964905,26.570221 277.795380,25.415817 270.462616,29.479372 
	C270.634766,33.114697 272.724243,32.619553 275.315216,32.087688 
	C282.047577,30.705717 287.699402,32.557602 292.222107,38.022358 
	C293.367981,39.406887 295.628082,39.869232 297.376221,40.755318 
	C297.697876,40.278030 298.019562,39.800747 298.341217,39.323460 
	C296.924500,37.358006 295.507751,35.392551 293.582214,32.916084 
M333.998474,60.494888 
	C333.998474,53.732552 333.998474,46.970215 333.998474,39.878250 
	C332.400116,39.974598 331.213226,40.046146 330.040009,40.116867 
	C330.040009,51.866665 330.040009,63.243507 330.040009,74.967728 
	C331.456116,74.885361 332.643188,74.816322 333.998474,74.737488 
	C333.998474,70.079185 333.998474,65.785172 333.998474,60.494888 
M341.332825,32.164700 
	C344.604706,32.507130 345.970032,31.442194 344.523865,28.148682 
	C336.032654,28.148682 327.762054,28.148682 319.262512,28.148682 
	C319.262512,29.489098 319.262512,30.681400 319.262512,32.164902 
	C326.466309,32.164902 333.418304,32.164902 341.332825,32.164700 
M195.350632,63.125225 
	C194.487137,61.742733 193.623657,60.360245 193.347534,59.918156 
	C190.985260,61.085289 189.847443,61.647457 188.617798,62.254990 
	C193.013153,67.047455 196.851776,71.232895 200.871964,75.616287 
	C202.105347,74.244316 202.903214,73.356812 203.729431,72.437759 
	C200.892136,69.270798 198.367569,66.452888 195.350632,63.125225 
M363.834442,65.496735 
	C363.834442,68.585304 363.834442,71.673866 363.834442,75.060165 
	C365.565369,74.883171 366.751129,74.761925 367.754883,74.659286 
	C367.754883,68.528717 367.754883,62.801785 367.754883,57.153454 
	C364.806030,56.252205 363.471924,57.025814 363.807251,60.067516 
	C363.969055,61.535297 363.834686,63.035728 363.834442,65.496735 
M226.666534,27.974648 
	C225.215759,27.974648 223.764984,27.974648 222.024261,27.974648 
	C222.218170,29.656046 222.355942,30.850649 222.485291,31.972343 
	C235.596664,32.762920 235.596664,32.762920 234.902649,27.974689 
	C232.491272,27.974689 230.041000,27.974689 226.666534,27.974648 
M414.737030,70.993454 
	C414.031525,72.114128 413.325989,73.234802 412.339691,74.801476 
	C416.933228,74.801476 420.188263,74.801476 423.443329,74.801476 
	C423.729065,74.406876 424.014801,74.012268 424.300537,73.617668 
	C423.237091,72.742073 422.290344,71.408890 421.082214,71.100853 
	C419.378021,70.666321 417.480347,70.990555 414.737030,70.993454 
z"/>
<path fill="#131313" opacity="1.000000" stroke="none" 
	d="
M124.432663,53.723305 
	C124.310936,46.841198 125.534630,40.808640 129.791336,35.492310 
	C132.425995,36.878601 132.929352,38.185688 131.459259,40.962929 
	C126.933174,49.513466 128.276596,60.231613 134.475662,66.466766 
	C139.174240,71.192688 144.940674,72.875648 151.395096,70.849510 
	C158.428955,68.641479 162.209900,63.300022 163.724609,56.415146 
	C167.072983,41.195732 156.620331,30.144945 141.272629,32.283550 
	C140.058258,32.452766 138.644882,31.193748 136.652802,30.296005 
	C145.599670,25.004452 156.520264,27.193253 162.863983,34.649284 
	C171.189896,44.435047 170.379593,61.505390 161.014252,70.157280 
	C154.734604,75.958549 147.229675,77.588020 139.246155,74.723999 
	C129.795776,71.333771 125.341309,63.918041 124.432663,53.723305 
z"/>
<path fill="#171717" opacity="1.000000" stroke="none" 
	d="
M494.611908,61.780182 
	C492.349182,75.022972 482.710510,79.484184 471.973602,73.109421 
	C470.095062,73.960693 468.451141,74.705643 466.424561,75.624001 
	C466.251862,74.039040 466.120087,73.390732 466.119598,72.742325 
	C466.107971,57.622036 466.110565,42.501732 466.110565,27.077314 
	C467.550842,26.993006 468.798828,26.919954 470.431000,26.824413 
	C470.431000,34.210636 470.431000,41.302959 470.431000,49.220913 
	C476.771362,45.292942 482.830719,44.095486 488.739624,48.333904 
	C493.125641,51.479939 494.817993,56.053856 494.611908,61.780182 
M470.706299,58.851913 
	C470.275970,63.961113 471.129822,68.547501 476.379028,70.890747 
	C481.594635,73.219002 487.635803,70.356018 489.608093,64.819969 
	C491.683014,58.995922 488.806183,52.264259 483.443146,50.394306 
	C477.819977,48.433662 472.903534,51.405663 470.706299,58.851913 
z"/>
<path fill="#1C1C1C" opacity="1.000000" stroke="none" 
	d="
M196.333588,47.133072 
	C199.836227,39.380142 197.841843,35.321411 189.948944,32.534924 
	C188.693542,32.091717 187.915588,30.296097 186.310516,28.415121 
	C196.392044,28.036825 201.849625,32.479912 202.560333,40.324535 
	C203.414963,49.757690 198.818008,53.315666 182.663391,55.534737 
	C182.663391,61.757629 182.663391,68.030289 182.663391,74.671417 
	C181.060272,74.671417 179.744354,74.671417 178.254608,74.671417 
	C178.254608,59.230255 178.254608,43.961891 178.254608,28.322784 
	C179.619507,28.322784 180.942398,28.322784 182.539719,28.322784 
	C182.539719,35.785919 182.539719,43.072826 182.539719,50.591122 
	C187.637283,51.233044 192.341385,51.553047 196.333588,47.133072 
z"/>
<path fill="#151515" opacity="1.000000" stroke="none" 
	d="
M450.600281,73.160759 
	C443.350555,77.412407 436.555908,76.538414 431.833069,71.009323 
	C426.977478,65.324806 427.066956,55.847469 432.028473,50.314220 
	C436.937561,44.839439 444.236725,44.275829 451.098267,48.598076 
	C452.828827,47.703136 454.407959,46.886505 456.654816,45.724560 
	C456.654816,56.180309 456.654816,65.444115 456.654816,75.746910 
	C454.389557,74.632156 452.674744,73.788292 450.600281,73.160759 
M444.790985,71.447166 
	C451.016052,70.543785 453.883423,63.441517 451.745300,56.267086 
	C450.287170,51.374199 444.574677,48.740414 439.651184,50.362221 
	C434.352692,52.107555 431.430206,58.319191 433.128265,64.226448 
	C434.537079,69.127411 437.915100,71.424599 444.790985,71.447166 
z"/>
<path fill="#101010" opacity="1.000000" stroke="none" 
	d="
M83.724045,44.400436 
	C82.364212,41.550507 81.151627,39.049091 79.452499,35.543980 
	C76.803070,49.352840 74.357368,62.099831 71.864899,75.090637 
	C70.612442,75.090637 69.372719,75.090637 67.452988,75.090637 
	C70.440231,59.260509 73.349953,43.841152 76.257484,28.433441 
	C79.379921,27.288546 81.117592,28.043764 82.492073,31.182215 
	C86.805641,41.031635 91.466789,50.728832 96.075058,60.661179 
	C94.737053,61.303711 93.601448,61.849045 92.123253,62.558895 
	C89.286003,56.435352 86.578651,50.592155 83.724045,44.400436 
z"/>
<path fill="#171717" opacity="1.000000" stroke="none" 
	d="
M220.104614,52.890381 
	C218.708572,53.667175 217.054230,54.408245 217.015518,55.225838 
	C216.773926,60.326225 216.893631,65.443718 216.893631,70.957336 
	C222.399673,70.957336 227.521378,71.072685 232.634491,70.912994 
	C235.584167,70.820877 236.549911,71.820343 235.496979,74.826172 
	C227.890427,74.826172 220.296234,74.826172 212.405136,74.826172 
	C212.405136,59.365074 212.405136,43.981079 212.405136,28.278225 
	C213.740784,28.278225 215.104950,28.278225 216.949707,28.278225 
	C216.949707,34.962574 216.949707,41.540382 216.949707,48.370735 
	C222.697830,48.370735 227.981949,48.370735 233.725540,48.370735 
	C233.797363,49.925884 233.858032,51.239872 233.934235,52.890030 
	C229.201736,52.890030 224.897461,52.890030 220.104614,52.890381 
z"/>
<path fill="#0F0F0F" opacity="1.000000" stroke="none" 
	d="
M267.455231,72.695068 
	C255.488403,63.240425 253.422546,47.753368 262.302155,35.754459 
	C265.533234,36.760365 265.335632,38.457340 263.942871,41.178043 
	C259.456268,49.942467 260.912292,60.222748 267.207001,66.548767 
	C274.325806,73.702972 285.160980,73.241234 291.882111,65.714500 
	C293.257690,64.174034 295.431549,63.346401 297.549896,62.678246 
	C293.709900,75.019318 280.672760,79.171356 267.455231,72.695068 
z"/>
<path fill="#0F0F0F" opacity="1.000000" stroke="none" 
	d="
M112.621216,44.238281 
	C114.859406,54.529091 116.962357,64.421272 119.062782,74.301521 
	C115.479042,76.917656 114.630188,74.839989 113.986839,71.774887 
	C111.585251,60.332943 109.068176,48.915245 105.536606,37.333378 
	C103.843987,41.333065 102.151367,45.332752 100.335007,49.624840 
	C98.997520,49.184830 97.843346,48.805126 96.667313,48.418232 
	C96.767380,47.631172 96.730507,47.114182 96.903801,46.681328 
	C98.936821,41.603123 101.151924,36.591671 103.001015,31.448298 
	C104.105858,28.375088 105.713173,27.081900 109.138023,28.435900 
	C110.232994,33.473778 111.359489,38.656712 112.621216,44.238281 
z"/>
<path fill="#0D0D0D" opacity="1.000000" stroke="none" 
	d="
M43.766010,55.812302 
	C34.556187,56.335381 34.559429,56.336559 31.555441,64.610130 
	C30.261738,68.173241 28.951454,71.730316 27.620560,75.367043 
	C24.607208,75.310860 23.174164,74.613884 24.420675,71.224754 
	C29.394663,57.701050 34.239311,44.128777 38.998631,30.527870 
	C40.055576,27.507404 41.437809,26.964193 44.230274,29.085104 
	C41.590443,36.530830 38.952972,43.969894 36.428127,51.091297 
	C38.369503,54.097145 44.686939,48.292931 43.766010,55.812302 
z"/>
<path fill="#1A1A1A" opacity="1.000000" stroke="none" 
	d="
M306.951477,56.999111 
	C306.951477,47.200836 306.951477,37.902264 306.951477,28.279253 
	C308.477356,28.279253 309.826019,28.279253 311.388031,28.279253 
	C311.388031,43.638199 311.388031,58.896332 311.388031,74.623817 
	C310.140564,74.789154 308.792267,74.967850 306.951477,75.211830 
	C306.951477,69.067596 306.951477,63.283207 306.951477,56.999111 
z"/>
<path fill="#101010" opacity="1.000000" stroke="none" 
	d="
M364.213684,49.475140 
	C359.606995,42.811314 355.190613,36.420338 350.587036,29.758492 
	C351.922394,28.949446 352.976318,28.310909 354.281189,27.520340 
	C358.115143,33.007206 361.801483,38.282864 365.834167,44.054153 
	C369.716003,38.482735 373.470673,33.093781 377.390839,27.467304 
	C378.618896,28.069191 379.746185,28.621689 380.934235,29.203951 
	C380.673279,29.828588 380.556549,30.312403 380.296478,30.700024 
	C376.138214,36.897449 371.951172,43.075546 367.796936,49.275665 
	C366.807495,50.752346 365.933868,52.435356 364.213684,49.475140 
z"/>
<path fill="#0F0F0F" opacity="1.000000" stroke="none" 
	d="
M57.881470,63.044842 
	C59.196213,66.991409 60.410255,70.560402 61.739998,74.469505 
	C60.157635,74.964798 58.978119,75.334000 57.601311,75.764954 
	C53.564648,64.278564 49.550533,53.085159 45.790691,41.806980 
	C45.410801,40.667435 46.566032,39.016117 47.008854,37.602299 
	C47.602806,37.649712 48.196754,37.697124 48.790707,37.744534 
	C51.787395,46.052113 54.784084,54.359688 57.881470,63.044842 
z"/>
<path fill="#000000" opacity="1.000000" stroke="none" 
	d="
M406.998474,56.998985 
	C406.998474,63.134968 406.998474,68.771286 406.998474,74.779976 
	C405.607391,74.843521 404.415985,74.897949 403.020874,74.961678 
	C403.020874,59.314869 403.020874,44.052341 403.020874,28.374704 
	C404.057770,28.246758 405.257355,28.098734 406.998474,27.883890 
	C406.998474,37.637253 406.998474,47.068291 406.998474,56.998985 
z"/>
<path fill="#121212" opacity="1.000000" stroke="none" 
	d="
M293.836609,33.171593 
	C295.507751,35.392551 296.924500,37.358006 298.341217,39.323460 
	C298.019562,39.800747 297.697876,40.278030 297.376221,40.755318 
	C295.628082,39.869232 293.367981,39.406887 292.222107,38.022358 
	C287.699402,32.557602 282.047577,30.705717 275.315216,32.087688 
	C272.724243,32.619553 270.634766,33.114697 270.462616,29.479372 
	C277.795380,25.415817 285.964905,26.570221 293.836609,33.171593 
z"/>
<path fill="#000000" opacity="1.000000" stroke="none" 
	d="
M333.998474,60.993019 
	C333.998474,65.785172 333.998474,70.079185 333.998474,74.737488 
	C332.643188,74.816322 331.456116,74.885361 330.040009,74.967728 
	C330.040009,63.243507 330.040009,51.866665 330.040009,40.116867 
	C331.213226,40.046146 332.400116,39.974598 333.998474,39.878250 
	C333.998474,46.970215 333.998474,53.732552 333.998474,60.993019 
z"/>
<path fill="#000000" opacity="1.000000" stroke="none" 
	d="
M340.851562,32.164803 
	C333.418304,32.164902 326.466309,32.164902 319.262512,32.164902 
	C319.262512,30.681400 319.262512,29.489098 319.262512,28.148682 
	C327.762054,28.148682 336.032654,28.148682 344.523865,28.148682 
	C345.970032,31.442194 344.604706,32.507130 340.851562,32.164803 
z"/>
<path fill="#0F0F0F" opacity="1.000000" stroke="none" 
	d="
M195.596817,63.380104 
	C198.367569,66.452888 200.892136,69.270798 203.729431,72.437759 
	C202.903214,73.356812 202.105347,74.244316 200.871964,75.616287 
	C196.851776,71.232895 193.013153,67.047455 188.617798,62.254990 
	C189.847443,61.647457 190.985260,61.085289 193.347534,59.918156 
	C193.623657,60.360245 194.487137,61.742733 195.596817,63.380104 
z"/>
<path fill="#000000" opacity="1.000000" stroke="none" 
	d="
M363.834442,65.009056 
	C363.834686,63.035728 363.969055,61.535297 363.807251,60.067516 
	C363.471924,57.025814 364.806030,56.252205 367.754883,57.153454 
	C367.754883,62.801785 367.754883,68.528717 367.754883,74.659286 
	C366.751129,74.761925 365.565369,74.883171 363.834442,75.060165 
	C363.834442,71.673866 363.834442,68.585304 363.834442,65.009056 
z"/>
<path fill="#0E0E0E" opacity="1.000000" stroke="none" 
	d="
M227.128632,27.974669 
	C230.041000,27.974689 232.491272,27.974689 234.902649,27.974689 
	C235.596664,32.762920 235.596664,32.762920 222.485291,31.972343 
	C222.355942,30.850649 222.218170,29.656046 222.024261,27.974648 
	C223.764984,27.974648 225.215759,27.974648 227.128632,27.974669 
z"/>
<path fill="#060606" opacity="1.000000" stroke="none" 
	d="
M415.201233,70.991920 
	C417.480347,70.990555 419.378021,70.666321 421.082214,71.100853 
	C422.290344,71.408890 423.237091,72.742073 424.300537,73.617668 
	C424.014801,74.012268 423.729065,74.406876 423.443329,74.801476 
	C420.188263,74.801476 416.933228,74.801476 412.339691,74.801476 
	C413.325989,73.234802 414.031525,72.114128 415.201233,70.991920 
z"/>
<path fill="#FBFBFB" opacity="1.000000" stroke="none" 
	d="
M470.779236,58.428753 
	C472.903534,51.405663 477.819977,48.433662 483.443146,50.394306 
	C488.806183,52.264259 491.683014,58.995922 489.608093,64.819969 
	C487.635803,70.356018 481.594635,73.219002 476.379028,70.890747 
	C471.129822,68.547501 470.275970,63.961113 470.779236,58.428753 
z"/>
<path fill="#FBFBFB" opacity="1.000000" stroke="none" 
	d="
M444.423828,71.552689 
	C437.915100,71.424599 434.537079,69.127411 433.128265,64.226448 
	C431.430206,58.319191 434.352692,52.107555 439.651184,50.362221 
	C444.574677,48.740414 450.287170,51.374199 451.745300,56.267086 
	C453.883423,63.441517 451.016052,70.543785 444.423828,71.552689 
z"/>
</svg>