<svg width="266" height="297" viewBox="0 0 266 297" fill="none" xmlns="http://www.w3.org/2000/svg">
    <path d="M59 92C59 89.2386 61.2386 87 64 87H86C88.7614 87 91 89.2386 91 92V257H59V92Z" fill="#E66787"/>
    <path d="M165 111C165 108.239 167.239 106 170 106H192C194.761 106 197 108.239 197 111V257H165V111Z" fill="#E66787"/>
    <path d="M112 148C112 145.239 114.239 143 117 143H139C141.761 143 144 145.239 144 148V258H112V148Z" fill="#F9D9DF"/>
    <path d="M218 154C218 151.239 220.239 149 223 149H245C247.761 149 250 151.239 250 154V257H218V154Z" fill="#F9D9DF"/>
    <path d="M64.6328 59.4609C64.6328 60.5078 64.9688 61.2969 65.6406 61.8281C66.3281 62.3438 67.2031 62.6016 68.2656 62.6016C69.3281 62.6016 70.2031 62.3438 70.8906 61.8281C71.5781 61.2969 71.9219 60.5078 71.9219 59.4609C71.9219 58.8984 71.8125 58.4219 71.5938 58.0312C71.375 57.6406 71.0938 57.3203 70.75 57.0703C70.4062 56.8047 70.0156 56.6172 69.5781 56.5078C69.1406 56.3828 68.7031 56.3203 68.2656 56.3203C67.8281 56.3203 67.3906 56.3828 66.9531 56.5078C66.5156 56.6172 66.125 56.8047 65.7812 57.0703C65.4375 57.3203 65.1562 57.6406 64.9375 58.0312C64.7344 58.4219 64.6328 58.8984 64.6328 59.4609ZM64.2344 67.5234C64.2344 68.1172 64.3438 68.6328 64.5625 69.0703C64.7969 69.4922 65.1016 69.8438 65.4766 70.125C65.8516 70.3906 66.2812 70.5859 66.7656 70.7109C67.25 70.8359 67.75 70.8984 68.2656 70.8984C68.7812 70.8984 69.2812 70.8359 69.7656 70.7109C70.25 70.5859 70.6797 70.3906 71.0547 70.125C71.4297 69.8438 71.7266 69.4922 71.9453 69.0703C72.1797 68.6328 72.2969 68.1172 72.2969 67.5234C72.2969 66.9453 72.1797 66.4375 71.9453 66C71.7266 65.5625 71.4297 65.2031 71.0547 64.9219C70.6797 64.625 70.25 64.4062 69.7656 64.2656C69.2812 64.125 68.7812 64.0547 68.2656 64.0547C67.75 64.0547 67.25 64.125 66.7656 64.2656C66.2812 64.4062 65.8516 64.625 65.4766 64.9219C65.1016 65.2031 64.7969 65.5625 64.5625 66C64.3438 66.4375 64.2344 66.9453 64.2344 67.5234ZM70.2812 63.3516C71.4062 63.6484 72.3047 64.1406 72.9766 64.8281C73.6484 65.5156 73.9844 66.4141 73.9844 67.5234C73.9844 68.3672 73.8125 69.0938 73.4688 69.7031C73.1406 70.3125 72.7031 70.8125 72.1562 71.2031C71.625 71.5781 71.0156 71.8594 70.3281 72.0469C69.6562 72.2344 68.9688 72.3281 68.2656 72.3281C67.5781 72.3281 66.8906 72.2344 66.2031 72.0469C65.5312 71.8594 64.9219 71.5781 64.375 71.2031C63.8438 70.8125 63.4062 70.3125 63.0625 69.7031C62.7344 69.0938 62.5703 68.3672 62.5703 67.5234C62.5703 66.4453 62.9062 65.5547 63.5781 64.8516C64.2656 64.1484 65.1719 63.6484 66.2969 63.3516V63.3047C65.8438 63.1953 65.4141 63.0312 65.0078 62.8125C64.6172 62.5781 64.2734 62.2969 63.9766 61.9688C63.6953 61.6406 63.4688 61.2656 63.2969 60.8438C63.1406 60.4219 63.0625 59.9609 63.0625 59.4609C63.0625 58.6953 63.2109 58.0391 63.5078 57.4922C63.8203 56.9297 64.2188 56.4688 64.7031 56.1094C65.2031 55.7344 65.7578 55.4609 66.3672 55.2891C66.9922 55.1172 67.625 55.0312 68.2656 55.0312C68.9062 55.0312 69.5391 55.1172 70.1641 55.2891C70.7891 55.4609 71.3438 55.7344 71.8281 56.1094C72.3281 56.4688 72.7266 56.9297 73.0234 57.4922C73.3359 58.0391 73.4922 58.6953 73.4922 59.4609C73.4922 60.4922 73.1875 61.3359 72.5781 61.9922C71.9688 62.6484 71.2031 63.0859 70.2812 63.3047V63.3516ZM82.3281 70.8984C82.9688 70.8984 83.5234 70.7812 83.9922 70.5469C84.4766 70.3125 84.875 70 85.1875 69.6094C85.5 69.2031 85.7344 68.7344 85.8906 68.2031C86.0469 67.6719 86.125 67.1094 86.125 66.5156C86.125 65.9219 86.0469 65.375 85.8906 64.875C85.7344 64.375 85.5 63.9453 85.1875 63.5859C84.8906 63.2266 84.5078 62.9531 84.0391 62.7656C83.5859 62.5625 83.0469 62.4609 82.4219 62.4609C82.0156 62.4609 81.625 62.5234 81.25 62.6484C80.8906 62.7578 80.5625 62.9219 80.2656 63.1406C79.9688 63.3594 79.7109 63.6328 79.4922 63.9609C79.2891 64.2734 79.1406 64.625 79.0469 65.0156H77.4531L77.8281 55.3594H86.9688V56.8125H79.3281L79.0469 62.7422L79.0938 62.7891C79.5625 62.2422 80.1016 61.8203 80.7109 61.5234C81.3203 61.2109 82 61.0547 82.75 61.0547C83.5312 61.0547 84.2344 61.2031 84.8594 61.5C85.4844 61.7969 86.0156 62.2031 86.4531 62.7188C86.8906 63.2188 87.2266 63.8047 87.4609 64.4766C87.6953 65.1328 87.8125 65.8359 87.8125 66.5859C87.8125 67.3828 87.6875 68.1328 87.4375 68.8359C87.1875 69.5234 86.8359 70.1328 86.3828 70.6641C85.9297 71.1797 85.3672 71.5859 84.6953 71.8828C84.0391 72.1797 83.3047 72.3281 82.4922 72.3281C81.4922 72.3281 80.6172 72.2188 79.8672 72C79.1172 71.7969 78.4609 71.5859 77.8984 71.3672L77.9688 69.7969C78.2344 69.9375 78.5391 70.0781 78.8828 70.2188C79.2422 70.3438 79.6094 70.4609 79.9844 70.5703C80.375 70.6641 80.7734 70.7422 81.1797 70.8047C81.5859 70.8672 81.9688 70.8984 82.3281 70.8984Z" fill="#666666"/>
    <path d="M120.75 126.898C121.391 126.898 121.945 126.781 122.414 126.547C122.898 126.312 123.297 126 123.609 125.609C123.922 125.203 124.156 124.734 124.312 124.203C124.469 123.672 124.547 123.109 124.547 122.516C124.547 121.922 124.469 121.375 124.312 120.875C124.156 120.375 123.922 119.945 123.609 119.586C123.312 119.227 122.93 118.953 122.461 118.766C122.008 118.562 121.469 118.461 120.844 118.461C120.438 118.461 120.047 118.523 119.672 118.648C119.312 118.758 118.984 118.922 118.688 119.141C118.391 119.359 118.133 119.633 117.914 119.961C117.711 120.273 117.562 120.625 117.469 121.016H115.875L116.25 111.359H125.391V112.812H117.75L117.469 118.742L117.516 118.789C117.984 118.242 118.523 117.82 119.133 117.523C119.742 117.211 120.422 117.055 121.172 117.055C121.953 117.055 122.656 117.203 123.281 117.5C123.906 117.797 124.438 118.203 124.875 118.719C125.312 119.219 125.648 119.805 125.883 120.477C126.117 121.133 126.234 121.836 126.234 122.586C126.234 123.383 126.109 124.133 125.859 124.836C125.609 125.523 125.258 126.133 124.805 126.664C124.352 127.18 123.789 127.586 123.117 127.883C122.461 128.18 121.727 128.328 120.914 128.328C119.914 128.328 119.039 128.219 118.289 128C117.539 127.797 116.883 127.586 116.32 127.367L116.391 125.797C116.656 125.938 116.961 126.078 117.305 126.219C117.664 126.344 118.031 126.461 118.406 126.57C118.797 126.664 119.195 126.742 119.602 126.805C120.008 126.867 120.391 126.898 120.75 126.898ZM131.039 115.461C131.039 116.508 131.375 117.297 132.047 117.828C132.734 118.344 133.609 118.602 134.672 118.602C135.734 118.602 136.609 118.344 137.297 117.828C137.984 117.297 138.328 116.508 138.328 115.461C138.328 114.898 138.219 114.422 138 114.031C137.781 113.641 137.5 113.32 137.156 113.07C136.812 112.805 136.422 112.617 135.984 112.508C135.547 112.383 135.109 112.32 134.672 112.32C134.234 112.32 133.797 112.383 133.359 112.508C132.922 112.617 132.531 112.805 132.188 113.07C131.844 113.32 131.562 113.641 131.344 114.031C131.141 114.422 131.039 114.898 131.039 115.461ZM130.641 123.523C130.641 124.117 130.75 124.633 130.969 125.07C131.203 125.492 131.508 125.844 131.883 126.125C132.258 126.391 132.688 126.586 133.172 126.711C133.656 126.836 134.156 126.898 134.672 126.898C135.188 126.898 135.688 126.836 136.172 126.711C136.656 126.586 137.086 126.391 137.461 126.125C137.836 125.844 138.133 125.492 138.352 125.07C138.586 124.633 138.703 124.117 138.703 123.523C138.703 122.945 138.586 122.438 138.352 122C138.133 121.562 137.836 121.203 137.461 120.922C137.086 120.625 136.656 120.406 136.172 120.266C135.688 120.125 135.188 120.055 134.672 120.055C134.156 120.055 133.656 120.125 133.172 120.266C132.688 120.406 132.258 120.625 131.883 120.922C131.508 121.203 131.203 121.562 130.969 122C130.75 122.438 130.641 122.945 130.641 123.523ZM136.688 119.352C137.812 119.648 138.711 120.141 139.383 120.828C140.055 121.516 140.391 122.414 140.391 123.523C140.391 124.367 140.219 125.094 139.875 125.703C139.547 126.312 139.109 126.812 138.562 127.203C138.031 127.578 137.422 127.859 136.734 128.047C136.062 128.234 135.375 128.328 134.672 128.328C133.984 128.328 133.297 128.234 132.609 128.047C131.938 127.859 131.328 127.578 130.781 127.203C130.25 126.812 129.812 126.312 129.469 125.703C129.141 125.094 128.977 124.367 128.977 123.523C128.977 122.445 129.312 121.555 129.984 120.852C130.672 120.148 131.578 119.648 132.703 119.352V119.305C132.25 119.195 131.82 119.031 131.414 118.812C131.023 118.578 130.68 118.297 130.383 117.969C130.102 117.641 129.875 117.266 129.703 116.844C129.547 116.422 129.469 115.961 129.469 115.461C129.469 114.695 129.617 114.039 129.914 113.492C130.227 112.93 130.625 112.469 131.109 112.109C131.609 111.734 132.164 111.461 132.773 111.289C133.398 111.117 134.031 111.031 134.672 111.031C135.312 111.031 135.945 111.117 136.57 111.289C137.195 111.461 137.75 111.734 138.234 112.109C138.734 112.469 139.133 112.93 139.43 113.492C139.742 114.039 139.898 114.695 139.898 115.461C139.898 116.492 139.594 117.336 138.984 117.992C138.375 118.648 137.609 119.086 136.688 119.305V119.352Z" fill="#666666"/>
    <path d="M226.75 132.898C227.391 132.898 227.945 132.781 228.414 132.547C228.898 132.312 229.297 132 229.609 131.609C229.922 131.203 230.156 130.734 230.312 130.203C230.469 129.672 230.547 129.109 230.547 128.516C230.547 127.922 230.469 127.375 230.312 126.875C230.156 126.375 229.922 125.945 229.609 125.586C229.312 125.227 228.93 124.953 228.461 124.766C228.008 124.562 227.469 124.461 226.844 124.461C226.438 124.461 226.047 124.523 225.672 124.648C225.312 124.758 224.984 124.922 224.688 125.141C224.391 125.359 224.133 125.633 223.914 125.961C223.711 126.273 223.562 126.625 223.469 127.016H221.875L222.25 117.359H231.391V118.812H223.75L223.469 124.742L223.516 124.789C223.984 124.242 224.523 123.82 225.133 123.523C225.742 123.211 226.422 123.055 227.172 123.055C227.953 123.055 228.656 123.203 229.281 123.5C229.906 123.797 230.438 124.203 230.875 124.719C231.312 125.219 231.648 125.805 231.883 126.477C232.117 127.133 232.234 127.836 232.234 128.586C232.234 129.383 232.109 130.133 231.859 130.836C231.609 131.523 231.258 132.133 230.805 132.664C230.352 133.18 229.789 133.586 229.117 133.883C228.461 134.18 227.727 134.328 226.914 134.328C225.914 134.328 225.039 134.219 224.289 134C223.539 133.797 222.883 133.586 222.32 133.367L222.391 131.797C222.656 131.938 222.961 132.078 223.305 132.219C223.664 132.344 224.031 132.461 224.406 132.57C224.797 132.664 225.195 132.742 225.602 132.805C226.008 132.867 226.391 132.898 226.75 132.898ZM240.156 132.898C240.797 132.898 241.352 132.781 241.82 132.547C242.305 132.312 242.703 132 243.016 131.609C243.328 131.203 243.562 130.734 243.719 130.203C243.875 129.672 243.953 129.109 243.953 128.516C243.953 127.922 243.875 127.375 243.719 126.875C243.562 126.375 243.328 125.945 243.016 125.586C242.719 125.227 242.336 124.953 241.867 124.766C241.414 124.562 240.875 124.461 240.25 124.461C239.844 124.461 239.453 124.523 239.078 124.648C238.719 124.758 238.391 124.922 238.094 125.141C237.797 125.359 237.539 125.633 237.32 125.961C237.117 126.273 236.969 126.625 236.875 127.016H235.281L235.656 117.359H244.797V118.812H237.156L236.875 124.742L236.922 124.789C237.391 124.242 237.93 123.82 238.539 123.523C239.148 123.211 239.828 123.055 240.578 123.055C241.359 123.055 242.062 123.203 242.688 123.5C243.312 123.797 243.844 124.203 244.281 124.719C244.719 125.219 245.055 125.805 245.289 126.477C245.523 127.133 245.641 127.836 245.641 128.586C245.641 129.383 245.516 130.133 245.266 130.836C245.016 131.523 244.664 132.133 244.211 132.664C243.758 133.18 243.195 133.586 242.523 133.883C241.867 134.18 241.133 134.328 240.32 134.328C239.32 134.328 238.445 134.219 237.695 134C236.945 133.797 236.289 133.586 235.727 133.367L235.797 131.797C236.062 131.938 236.367 132.078 236.711 132.219C237.07 132.344 237.438 132.461 237.812 132.57C238.203 132.664 238.602 132.742 239.008 132.805C239.414 132.867 239.797 132.898 240.156 132.898Z" fill="#666666"/>
    <path d="M179.414 74.3594V75.7656L172.945 91H171.117L177.773 75.8125H168.82V74.3594H179.414ZM187.336 89.8984C187.977 89.8984 188.531 89.7812 189 89.5469C189.484 89.3125 189.883 89 190.195 88.6094C190.508 88.2031 190.742 87.7344 190.898 87.2031C191.055 86.6719 191.133 86.1094 191.133 85.5156C191.133 84.9219 191.055 84.375 190.898 83.875C190.742 83.375 190.508 82.9453 190.195 82.5859C189.898 82.2266 189.516 81.9531 189.047 81.7656C188.594 81.5625 188.055 81.4609 187.43 81.4609C187.023 81.4609 186.633 81.5234 186.258 81.6484C185.898 81.7578 185.57 81.9219 185.273 82.1406C184.977 82.3594 184.719 82.6328 184.5 82.9609C184.297 83.2734 184.148 83.625 184.055 84.0156H182.461L182.836 74.3594H191.977V75.8125H184.336L184.055 81.7422L184.102 81.7891C184.57 81.2422 185.109 80.8203 185.719 80.5234C186.328 80.2109 187.008 80.0547 187.758 80.0547C188.539 80.0547 189.242 80.2031 189.867 80.5C190.492 80.7969 191.023 81.2031 191.461 81.7188C191.898 82.2188 192.234 82.8047 192.469 83.4766C192.703 84.1328 192.82 84.8359 192.82 85.5859C192.82 86.3828 192.695 87.1328 192.445 87.8359C192.195 88.5234 191.844 89.1328 191.391 89.6641C190.938 90.1797 190.375 90.5859 189.703 90.8828C189.047 91.1797 188.312 91.3281 187.5 91.3281C186.5 91.3281 185.625 91.2188 184.875 91C184.125 90.7969 183.469 90.5859 182.906 90.3672L182.977 88.7969C183.242 88.9375 183.547 89.0781 183.891 89.2188C184.25 89.3438 184.617 89.4609 184.992 89.5703C185.383 89.6641 185.781 89.7422 186.188 89.8047C186.594 89.8672 186.977 89.8984 187.336 89.8984Z" fill="#666666"/>
    <path d="M1.23047 4.91016L4.07812 2.53711H5.09766V15H3.95508V3.94336L1.91602 5.71875L1.23047 4.91016ZM12.8496 3.32812C12.4043 3.32812 12.0234 3.41602 11.707 3.5918C11.4023 3.76758 11.1387 4.00781 10.916 4.3125C10.7051 4.60547 10.5352 4.93945 10.4062 5.31445C10.2891 5.68945 10.1953 6.07617 10.125 6.47461C10.0547 6.86133 10.0078 7.24805 9.98438 7.63477C9.97266 8.02148 9.9668 8.36719 9.9668 8.67188C9.9668 9.14062 9.99023 9.67969 10.0371 10.2891C10.0957 10.8984 10.2188 11.4785 10.4062 12.0293C10.6055 12.5801 10.8926 13.0488 11.2676 13.4355C11.6543 13.8105 12.1816 13.998 12.8496 13.998C13.5059 13.998 14.0273 13.8105 14.4141 13.4355C14.8008 13.0488 15.0879 12.5801 15.2754 12.0293C15.4746 11.4785 15.5977 10.8984 15.6445 10.2891C15.7031 9.67969 15.7324 9.14062 15.7324 8.67188C15.7324 8.36719 15.7207 8.02148 15.6973 7.63477C15.6855 7.24805 15.6445 6.86133 15.5742 6.47461C15.5039 6.07617 15.4043 5.68945 15.2754 5.31445C15.1465 4.93945 14.9766 4.60547 14.7656 4.3125C14.5547 4.00781 14.291 3.76758 13.9746 3.5918C13.6582 3.41602 13.2832 3.32812 12.8496 3.32812ZM12.8496 2.27344C13.6934 2.27344 14.3848 2.46094 14.9238 2.83594C15.4629 3.19922 15.8848 3.67969 16.1895 4.27734C16.4941 4.875 16.6992 5.56055 16.8047 6.33398C16.9219 7.0957 16.9805 7.875 16.9805 8.67188C16.9805 9.46875 16.9219 10.248 16.8047 11.0098C16.6992 11.7715 16.4941 12.457 16.1895 13.0664C15.8848 13.6758 15.4629 14.168 14.9238 14.543C14.3848 14.9062 13.6934 15.0879 12.8496 15.0879C11.9941 15.0879 11.2969 14.9062 10.7578 14.543C10.2188 14.168 9.79688 13.6758 9.49219 13.0664C9.1875 12.457 8.97656 11.7715 8.85938 11.0098C8.75391 10.248 8.70117 9.46875 8.70117 8.67188C8.70117 7.875 8.75391 7.0957 8.85938 6.33398C8.97656 5.56055 9.1875 4.875 9.49219 4.27734C9.79688 3.67969 10.2188 3.19922 10.7578 2.83594C11.2969 2.46094 11.9941 2.27344 12.8496 2.27344ZM23.2383 3.32812C22.793 3.32812 22.4121 3.41602 22.0957 3.5918C21.791 3.76758 21.5273 4.00781 21.3047 4.3125C21.0938 4.60547 20.9238 4.93945 20.7949 5.31445C20.6777 5.68945 20.584 6.07617 20.5137 6.47461C20.4434 6.86133 20.3965 7.24805 20.373 7.63477C20.3613 8.02148 20.3555 8.36719 20.3555 8.67188C20.3555 9.14062 20.3789 9.67969 20.4258 10.2891C20.4844 10.8984 20.6074 11.4785 20.7949 12.0293C20.9941 12.5801 21.2812 13.0488 21.6562 13.4355C22.043 13.8105 22.5703 13.998 23.2383 13.998C23.8945 13.998 24.416 13.8105 24.8027 13.4355C25.1895 13.0488 25.4766 12.5801 25.6641 12.0293C25.8633 11.4785 25.9863 10.8984 26.0332 10.2891C26.0918 9.67969 26.1211 9.14062 26.1211 8.67188C26.1211 8.36719 26.1094 8.02148 26.0859 7.63477C26.0742 7.24805 26.0332 6.86133 25.9629 6.47461C25.8926 6.07617 25.793 5.68945 25.6641 5.31445C25.5352 4.93945 25.3652 4.60547 25.1543 4.3125C24.9434 4.00781 24.6797 3.76758 24.3633 3.5918C24.0469 3.41602 23.6719 3.32812 23.2383 3.32812ZM23.2383 2.27344C24.082 2.27344 24.7734 2.46094 25.3125 2.83594C25.8516 3.19922 26.2734 3.67969 26.5781 4.27734C26.8828 4.875 27.0879 5.56055 27.1934 6.33398C27.3105 7.0957 27.3691 7.875 27.3691 8.67188C27.3691 9.46875 27.3105 10.248 27.1934 11.0098C27.0879 11.7715 26.8828 12.457 26.5781 13.0664C26.2734 13.6758 25.8516 14.168 25.3125 14.543C24.7734 14.9062 24.082 15.0879 23.2383 15.0879C22.3828 15.0879 21.6855 14.9062 21.1465 14.543C20.6074 14.168 20.1855 13.6758 19.8809 13.0664C19.5762 12.457 19.3652 11.7715 19.248 11.0098C19.1426 10.248 19.0898 9.46875 19.0898 8.67188C19.0898 7.875 19.1426 7.0957 19.248 6.33398C19.3652 5.56055 19.5762 4.875 19.8809 4.27734C20.1855 3.67969 20.6074 3.19922 21.1465 2.83594C21.6855 2.46094 22.3828 2.27344 23.2383 2.27344ZM31.7285 16.6699V11.4492H42.4863V16.6699H31.7285ZM38.1094 9.76172C37.1484 9.32812 36.4219 8.90625 35.9297 8.49609C35.4375 8.07422 35.0742 7.70508 34.8398 7.38867C34.6406 7.11914 34.5059 6.89062 34.4355 6.70312C34.3652 6.50391 34.3184 6.32227 34.2949 6.1582H33.9961C33.9727 6.32227 33.9258 6.51562 33.8555 6.73828C33.7852 6.96094 33.6797 7.18945 33.5391 7.42383C33.3984 7.66992 33.2285 7.91602 33.0293 8.16211C32.8418 8.4082 32.6074 8.66016 32.3262 8.91797C32.0566 9.16406 31.7285 9.42188 31.3418 9.69141C30.9551 9.96094 30.4922 10.2363 29.9531 10.5176L29.127 9.65625C30.1348 9.15234 30.9316 8.61914 31.5176 8.05664C32.1035 7.48242 32.543 6.9082 32.8359 6.33398C33.1406 5.75977 33.3281 5.20898 33.3984 4.68164C33.4805 4.14258 33.5215 3.65625 33.5215 3.22266V3.13477H29.6719V2.09766H38.4609V3.13477H34.7344V3.22266C34.7344 3.64453 34.7695 4.10156 34.8398 4.59375C34.9219 5.08594 35.1035 5.58398 35.3848 6.08789C35.6777 6.58008 36.0996 7.06641 36.6504 7.54688C37.2129 8.01562 37.9746 8.4375 38.9355 8.8125L38.1094 9.76172ZM41.2734 12.4863H32.9414V15.6328H41.2734V12.4863ZM41.2734 10.3242V6.08789H37.5117V5.08594H41.2734V1.21875H42.4863V10.3242H41.2734Z" fill="#666666"/>
    <line x1="54" y1="257.5" x2="254" y2="257.5" stroke="#666666"/>
    <path d="M58.7031 293.684V292.629H65.4707V288.885H60.6367V281.273H71.5352V288.885H66.7012V292.629H73.4688V293.684H58.7031ZM70.3398 282.311H61.832V287.848H70.3398V282.311ZM76.5098 293.121C76.5098 292.148 76.9902 291.41 77.9512 290.906C78.9121 290.391 80.377 290.133 82.3457 290.133C84.291 290.133 85.75 290.391 86.7227 290.906C87.6953 291.41 88.1816 292.148 88.1816 293.121C88.1816 294.094 87.6953 294.832 86.7227 295.336C85.75 295.852 84.291 296.109 82.3457 296.109C80.377 296.109 78.9121 295.852 77.9512 295.336C76.9902 294.832 76.5098 294.094 76.5098 293.121ZM77.7402 293.121C77.7402 293.812 78.1504 294.316 78.9707 294.633C79.8027 294.961 80.9277 295.125 82.3457 295.125C83.0488 295.125 83.6816 295.084 84.2441 295.002C84.8184 294.932 85.3047 294.814 85.7031 294.65C86.1016 294.486 86.4062 294.275 86.6172 294.018C86.8398 293.771 86.9512 293.473 86.9512 293.121C86.9512 292.77 86.8398 292.471 86.6172 292.225C86.4062 291.967 86.1016 291.756 85.7031 291.592C85.3047 291.428 84.8184 291.311 84.2441 291.24C83.6816 291.158 83.0488 291.117 82.3457 291.117C80.9277 291.117 79.8027 291.281 78.9707 291.609C78.1504 291.926 77.7402 292.43 77.7402 293.121ZM74.875 288.551V287.496H81.0273V284.297H82.2402V287.496H89.8164V288.551H74.875ZM86.4414 286.494C86.5469 286.037 86.6289 285.574 86.6875 285.105C86.7461 284.637 86.7871 284.191 86.8105 283.77C86.8457 283.336 86.8691 282.949 86.8809 282.609C86.8926 282.258 86.8984 281.982 86.8984 281.783H76.6855V280.746H88.1289C88.1289 281.062 88.123 281.455 88.1113 281.924C88.0996 282.381 88.0762 282.873 88.041 283.4C88.0059 283.928 87.9531 284.473 87.8828 285.035C87.8125 285.598 87.7188 286.148 87.6016 286.688L86.4414 286.494Z" fill="#666666"/>
    <path d="M124.025 292.488V288.973C123.604 289.078 123.146 289.172 122.654 289.254C122.162 289.324 121.629 289.383 121.055 289.43C120.48 289.465 119.854 289.494 119.174 289.518C118.506 289.529 117.773 289.535 116.977 289.535H113.021V281.01H121.055V282.047H114.234V284.807H120.51V285.809H114.234V288.498H116.994C118.529 288.498 119.859 288.457 120.984 288.375C122.121 288.281 123.135 288.117 124.025 287.883V280.219H125.238V285.158H128.139V286.195H125.238V292.488H124.025ZM115.869 291.521V294.545H125.678V295.582H114.656V291.521H115.869ZM131.461 287.953H132.111C133.377 287.953 134.496 287.912 135.469 287.83C136.453 287.748 137.344 287.631 138.141 287.479L138.334 288.498C137.537 288.65 136.629 288.773 135.609 288.867C134.602 288.949 133.406 288.99 132.023 288.99H130.248V284.42H135.979V281.959H130.248V280.922H137.191V285.422H131.461V287.953ZM141.691 289.588V286.74H138.105V285.756H141.691V283.752H138.105V282.768H141.691V280.219H142.904V289.588H141.691ZM141.691 295.67V291.662H132.059V290.625H142.904V295.67H141.691Z" fill="#666666"/>
    <path d="M171.857 283.945C171.811 284.109 171.734 284.279 171.629 284.455C171.523 284.631 171.406 284.801 171.277 284.965C170.867 285.457 170.252 285.92 169.432 286.354C168.623 286.775 167.615 287.15 166.408 287.479L165.846 286.529C166.795 286.318 167.615 286.055 168.307 285.738C169.01 285.41 169.59 285.053 170.047 284.666C170.504 284.279 170.844 283.869 171.066 283.436C171.301 283.002 171.418 282.574 171.418 282.152V281.977H166.285V280.922H177.711V281.977H172.561V282.152C172.561 282.598 172.666 283.031 172.877 283.453C173.1 283.875 173.434 284.268 173.879 284.631C174.336 284.994 174.91 285.322 175.602 285.615C176.305 285.896 177.131 286.119 178.08 286.283L177.605 287.25C176.375 287.016 175.338 286.682 174.494 286.248C173.662 285.814 173.059 285.369 172.684 284.912C172.555 284.76 172.443 284.602 172.35 284.438C172.256 284.273 172.186 284.109 172.139 283.945H171.857ZM171.383 295.477V290.361H164.703V289.307H179.293V290.361H172.596V295.477H171.383ZM182.598 295.846V291.24H193.76V295.846H182.598ZM192.547 292.277H183.811V294.809H192.547V292.277ZM180.699 289.852V288.779H195.641V289.852H180.699ZM194.164 286.951C193.531 287.057 192.834 287.133 192.072 287.18C191.311 287.215 190.385 287.232 189.295 287.232H182.598V283.541H192.459V281.766H182.598V280.746H193.672V284.561H183.811V286.213H189.312C189.805 286.213 190.262 286.213 190.684 286.213C191.117 286.201 191.521 286.184 191.896 286.16C192.271 286.137 192.635 286.107 192.986 286.072C193.35 286.037 193.707 285.99 194.059 285.932L194.164 286.951Z" fill="#666666"/>
    <path d="M213.377 295.301V280.219H214.59V295.301H213.377ZM201.934 291.908V281.361H209.51V291.908H201.934ZM208.314 282.398H203.129V290.871H208.314V282.398ZM226.824 295.037V291.908C226.016 292.072 225.084 292.189 224.029 292.26C222.986 292.318 221.744 292.348 220.303 292.348H218.457V286.441H223.309V282.486H218.457V281.449H224.521V287.443H219.67V291.311H220.32C221.703 291.311 222.922 291.281 223.977 291.223C225.031 291.152 225.98 291.023 226.824 290.836V280.395H228.037V285.932H230.428V280.219H231.641V295.301H230.428V286.969H228.037V295.037H226.824ZM241.432 283.945C241.385 284.109 241.309 284.279 241.203 284.455C241.098 284.631 240.98 284.801 240.852 284.965C240.441 285.457 239.826 285.92 239.006 286.354C238.197 286.775 237.189 287.15 235.982 287.479L235.42 286.529C236.369 286.318 237.189 286.055 237.881 285.738C238.584 285.41 239.164 285.053 239.621 284.666C240.078 284.279 240.418 283.869 240.641 283.436C240.875 283.002 240.992 282.574 240.992 282.152V281.977H235.859V280.922H247.285V281.977H242.135V282.152C242.135 282.598 242.24 283.031 242.451 283.453C242.674 283.875 243.008 284.268 243.453 284.631C243.91 284.994 244.484 285.322 245.176 285.615C245.879 285.896 246.705 286.119 247.654 286.283L247.18 287.25C245.949 287.016 244.912 286.682 244.068 286.248C243.236 285.814 242.633 285.369 242.258 284.912C242.129 284.76 242.018 284.602 241.924 284.438C241.83 284.273 241.76 284.109 241.713 283.945H241.432ZM240.957 295.477V290.361H234.277V289.307H248.867V290.361H242.17V295.477H240.957ZM252.172 295.846V291.24H263.334V295.846H252.172ZM262.121 292.277H253.385V294.809H262.121V292.277ZM250.273 289.852V288.779H265.215V289.852H250.273ZM263.738 286.951C263.105 287.057 262.408 287.133 261.646 287.18C260.885 287.215 259.959 287.232 258.869 287.232H252.172V283.541H262.033V281.766H252.172V280.746H263.246V284.561H253.385V286.213H258.887C259.379 286.213 259.836 286.213 260.258 286.213C260.691 286.201 261.096 286.184 261.471 286.16C261.846 286.137 262.209 286.107 262.561 286.072C262.924 286.037 263.281 285.99 263.633 285.932L263.738 286.951Z" fill="#666666"/>
    <path d="M38.2031 246.328C37.7578 246.328 37.377 246.416 37.0605 246.592C36.7559 246.768 36.4922 247.008 36.2695 247.312C36.0586 247.605 35.8887 247.939 35.7598 248.314C35.6426 248.689 35.5488 249.076 35.4785 249.475C35.4082 249.861 35.3613 250.248 35.3379 250.635C35.3262 251.021 35.3203 251.367 35.3203 251.672C35.3203 252.141 35.3438 252.68 35.3906 253.289C35.4492 253.898 35.5723 254.479 35.7598 255.029C35.959 255.58 36.2461 256.049 36.6211 256.436C37.0078 256.811 37.5352 256.998 38.2031 256.998C38.8594 256.998 39.3809 256.811 39.7676 256.436C40.1543 256.049 40.4414 255.58 40.6289 255.029C40.8281 254.479 40.9512 253.898 40.998 253.289C41.0566 252.68 41.0859 252.141 41.0859 251.672C41.0859 251.367 41.0742 251.021 41.0508 250.635C41.0391 250.248 40.998 249.861 40.9277 249.475C40.8574 249.076 40.7578 248.689 40.6289 248.314C40.5 247.939 40.3301 247.605 40.1191 247.312C39.9082 247.008 39.6445 246.768 39.3281 246.592C39.0117 246.416 38.6367 246.328 38.2031 246.328ZM38.2031 245.273C39.0469 245.273 39.7383 245.461 40.2773 245.836C40.8164 246.199 41.2383 246.68 41.543 247.277C41.8477 247.875 42.0527 248.561 42.1582 249.334C42.2754 250.096 42.334 250.875 42.334 251.672C42.334 252.469 42.2754 253.248 42.1582 254.01C42.0527 254.771 41.8477 255.457 41.543 256.066C41.2383 256.676 40.8164 257.168 40.2773 257.543C39.7383 257.906 39.0469 258.088 38.2031 258.088C37.3477 258.088 36.6504 257.906 36.1113 257.543C35.5723 257.168 35.1504 256.676 34.8457 256.066C34.541 255.457 34.3301 254.771 34.2129 254.01C34.1074 253.248 34.0547 252.469 34.0547 251.672C34.0547 250.875 34.1074 250.096 34.2129 249.334C34.3301 248.561 34.541 247.875 34.8457 247.277C35.1504 246.68 35.5723 246.199 36.1113 245.836C36.6504 245.461 37.3477 245.273 38.2031 245.273Z" fill="#666666"/>
    <line x1="253" y1="16" x2="55" y2="16" stroke="#DDDDDD" stroke-width="2" stroke-linecap="round" stroke-dasharray="5 8"/>
</svg>
