<svg width="254" height="319" viewBox="0 0 254 319" fill="none" xmlns="http://www.w3.org/2000/svg">
    <line x1="253" y1="16" x2="55" y2="16" stroke="#DDDDDD" stroke-width="2" stroke-linecap="round" stroke-dasharray="5 8"/>
    <path d="M1.23047 4.91016L4.07812 2.53711H5.09766V15H3.95508V3.94336L1.91602 5.71875L1.23047 4.91016ZM12.8496 3.32812C12.4043 3.32812 12.0234 3.41602 11.707 3.5918C11.4023 3.76758 11.1387 4.00781 10.916 4.3125C10.7051 4.60547 10.5352 4.93945 10.4062 5.31445C10.2891 5.68945 10.1953 6.07617 10.125 6.47461C10.0547 6.86133 10.0078 7.24805 9.98438 7.63477C9.97266 8.02148 9.9668 8.36719 9.9668 8.67188C9.9668 9.14062 9.99023 9.67969 10.0371 10.2891C10.0957 10.8984 10.2188 11.4785 10.4062 12.0293C10.6055 12.5801 10.8926 13.0488 11.2676 13.4355C11.6543 13.8105 12.1816 13.998 12.8496 13.998C13.5059 13.998 14.0273 13.8105 14.4141 13.4355C14.8008 13.0488 15.0879 12.5801 15.2754 12.0293C15.4746 11.4785 15.5977 10.8984 15.6445 10.2891C15.7031 9.67969 15.7324 9.14062 15.7324 8.67188C15.7324 8.36719 15.7207 8.02148 15.6973 7.63477C15.6855 7.24805 15.6445 6.86133 15.5742 6.47461C15.5039 6.07617 15.4043 5.68945 15.2754 5.31445C15.1465 4.93945 14.9766 4.60547 14.7656 4.3125C14.5547 4.00781 14.291 3.76758 13.9746 3.5918C13.6582 3.41602 13.2832 3.32812 12.8496 3.32812ZM12.8496 2.27344C13.6934 2.27344 14.3848 2.46094 14.9238 2.83594C15.4629 3.19922 15.8848 3.67969 16.1895 4.27734C16.4941 4.875 16.6992 5.56055 16.8047 6.33398C16.9219 7.0957 16.9805 7.875 16.9805 8.67188C16.9805 9.46875 16.9219 10.248 16.8047 11.0098C16.6992 11.7715 16.4941 12.457 16.1895 13.0664C15.8848 13.6758 15.4629 14.168 14.9238 14.543C14.3848 14.9062 13.6934 15.0879 12.8496 15.0879C11.9941 15.0879 11.2969 14.9062 10.7578 14.543C10.2188 14.168 9.79688 13.6758 9.49219 13.0664C9.1875 12.457 8.97656 11.7715 8.85938 11.0098C8.75391 10.248 8.70117 9.46875 8.70117 8.67188C8.70117 7.875 8.75391 7.0957 8.85938 6.33398C8.97656 5.56055 9.1875 4.875 9.49219 4.27734C9.79688 3.67969 10.2188 3.19922 10.7578 2.83594C11.2969 2.46094 11.9941 2.27344 12.8496 2.27344ZM23.2383 3.32812C22.793 3.32812 22.4121 3.41602 22.0957 3.5918C21.791 3.76758 21.5273 4.00781 21.3047 4.3125C21.0938 4.60547 20.9238 4.93945 20.7949 5.31445C20.6777 5.68945 20.584 6.07617 20.5137 6.47461C20.4434 6.86133 20.3965 7.24805 20.373 7.63477C20.3613 8.02148 20.3555 8.36719 20.3555 8.67188C20.3555 9.14062 20.3789 9.67969 20.4258 10.2891C20.4844 10.8984 20.6074 11.4785 20.7949 12.0293C20.9941 12.5801 21.2812 13.0488 21.6562 13.4355C22.043 13.8105 22.5703 13.998 23.2383 13.998C23.8945 13.998 24.416 13.8105 24.8027 13.4355C25.1895 13.0488 25.4766 12.5801 25.6641 12.0293C25.8633 11.4785 25.9863 10.8984 26.0332 10.2891C26.0918 9.67969 26.1211 9.14062 26.1211 8.67188C26.1211 8.36719 26.1094 8.02148 26.0859 7.63477C26.0742 7.24805 26.0332 6.86133 25.9629 6.47461C25.8926 6.07617 25.793 5.68945 25.6641 5.31445C25.5352 4.93945 25.3652 4.60547 25.1543 4.3125C24.9434 4.00781 24.6797 3.76758 24.3633 3.5918C24.0469 3.41602 23.6719 3.32812 23.2383 3.32812ZM23.2383 2.27344C24.082 2.27344 24.7734 2.46094 25.3125 2.83594C25.8516 3.19922 26.2734 3.67969 26.5781 4.27734C26.8828 4.875 27.0879 5.56055 27.1934 6.33398C27.3105 7.0957 27.3691 7.875 27.3691 8.67188C27.3691 9.46875 27.3105 10.248 27.1934 11.0098C27.0879 11.7715 26.8828 12.457 26.5781 13.0664C26.2734 13.6758 25.8516 14.168 25.3125 14.543C24.7734 14.9062 24.082 15.0879 23.2383 15.0879C22.3828 15.0879 21.6855 14.9062 21.1465 14.543C20.6074 14.168 20.1855 13.6758 19.8809 13.0664C19.5762 12.457 19.3652 11.7715 19.248 11.0098C19.1426 10.248 19.0898 9.46875 19.0898 8.67188C19.0898 7.875 19.1426 7.0957 19.248 6.33398C19.3652 5.56055 19.5762 4.875 19.8809 4.27734C20.1855 3.67969 20.6074 3.19922 21.1465 2.83594C21.6855 2.46094 22.3828 2.27344 23.2383 2.27344ZM31.7285 16.6699V11.4492H42.4863V16.6699H31.7285ZM38.1094 9.76172C37.1484 9.32812 36.4219 8.90625 35.9297 8.49609C35.4375 8.07422 35.0742 7.70508 34.8398 7.38867C34.6406 7.11914 34.5059 6.89062 34.4355 6.70312C34.3652 6.50391 34.3184 6.32227 34.2949 6.1582H33.9961C33.9727 6.32227 33.9258 6.51562 33.8555 6.73828C33.7852 6.96094 33.6797 7.18945 33.5391 7.42383C33.3984 7.66992 33.2285 7.91602 33.0293 8.16211C32.8418 8.4082 32.6074 8.66016 32.3262 8.91797C32.0566 9.16406 31.7285 9.42188 31.3418 9.69141C30.9551 9.96094 30.4922 10.2363 29.9531 10.5176L29.127 9.65625C30.1348 9.15234 30.9316 8.61914 31.5176 8.05664C32.1035 7.48242 32.543 6.9082 32.8359 6.33398C33.1406 5.75977 33.3281 5.20898 33.3984 4.68164C33.4805 4.14258 33.5215 3.65625 33.5215 3.22266V3.13477H29.6719V2.09766H38.4609V3.13477H34.7344V3.22266C34.7344 3.64453 34.7695 4.10156 34.8398 4.59375C34.9219 5.08594 35.1035 5.58398 35.3848 6.08789C35.6777 6.58008 36.0996 7.06641 36.6504 7.54688C37.2129 8.01562 37.9746 8.4375 38.9355 8.8125L38.1094 9.76172ZM41.2734 12.4863H32.9414V15.6328H41.2734V12.4863ZM41.2734 10.3242V6.08789H37.5117V5.08594H41.2734V1.21875H42.4863V10.3242H41.2734Z" fill="#666666"/>
    <line x1="54" y1="257.5" x2="254" y2="257.5" stroke="#666666"/>
    <path d="M74 101C74 98.2386 76.2386 96 79 96H101C103.761 96 106 98.2386 106 101V257H74V101Z" fill="#E66787"/>
    <path d="M88.4141 64.3594V65.7656L81.9453 81H80.1172L86.7734 65.8125H77.8203V64.3594H88.4141ZM101 64.3594V65.7656L94.5312 81H92.7031L99.3594 65.8125H90.4062V64.3594H101Z" fill="#666666"/>
    <path d="M63.2197 289.234C63.4307 288.766 63.6182 288.268 63.7822 287.74C63.958 287.201 64.1045 286.656 64.2217 286.105C64.3506 285.555 64.4502 285.01 64.5205 284.471C64.5908 283.932 64.6318 283.428 64.6436 282.959H58.3154V281.922H65.8916C65.8916 282.543 65.8564 283.193 65.7861 283.873C65.7158 284.553 65.6162 285.227 65.4873 285.895C65.3584 286.562 65.2002 287.213 65.0127 287.846C64.8369 288.479 64.6318 289.064 64.3975 289.604L63.2197 289.234ZM61.0049 293.787C61.0049 292.85 61.4502 292.123 62.3408 291.607C63.2314 291.08 64.6377 290.816 66.5596 290.816C68.458 290.816 69.8584 291.08 70.7607 291.607C71.6631 292.123 72.1143 292.85 72.1143 293.787C72.1143 294.725 71.6631 295.451 70.7607 295.967C69.8584 296.494 68.458 296.758 66.5596 296.758C64.6377 296.758 63.2314 296.494 62.3408 295.967C61.4502 295.451 61.0049 294.725 61.0049 293.787ZM62.165 293.787C62.165 294.49 62.5459 294.994 63.3076 295.299C64.0811 295.604 65.165 295.756 66.5596 295.756C67.9424 295.756 69.0205 295.604 69.7939 295.299C70.5674 294.994 70.9541 294.49 70.9541 293.787C70.9541 293.084 70.5674 292.58 69.7939 292.275C69.0205 291.971 67.9424 291.818 66.5596 291.818C65.165 291.818 64.0811 291.971 63.3076 292.275C62.5459 292.58 62.165 293.084 62.165 293.787ZM70.6377 290.148V287.934H66.5244V286.896H70.6377V284.945H66.5244V283.908H70.6377V281.219H71.8506V290.148H70.6377ZM86.3701 296.301V292.609C85.3389 292.832 84.1846 292.984 82.9072 293.066C81.6299 293.137 80.2529 293.172 78.7764 293.172H74.8389V292.135H77.3525C77.3174 291.537 77.2822 290.869 77.2471 290.131C77.2119 289.381 77.1768 288.619 77.1416 287.846C77.1182 287.061 77.0947 286.281 77.0713 285.508C77.0596 284.723 77.0537 283.99 77.0537 283.311H75.1904V282.273H84.2959V283.311H82.6084C82.6084 283.979 82.5967 284.699 82.5732 285.473C82.5615 286.246 82.5381 287.02 82.5029 287.793C82.4795 288.566 82.4502 289.322 82.415 290.061C82.3799 290.799 82.3389 291.467 82.292 292.064C83.0303 292.029 83.7393 291.977 84.4189 291.906C85.0986 291.824 85.749 291.713 86.3701 291.572V281.219H87.583V296.301H86.3701ZM81.4131 283.311H78.249C78.249 283.908 78.249 284.588 78.249 285.35C78.2607 286.111 78.2725 286.896 78.2842 287.705C78.3076 288.502 78.3369 289.287 78.3721 290.061C78.4072 290.822 78.4482 291.514 78.4951 292.135H78.7939C79.1924 292.135 79.585 292.135 79.9717 292.135C80.3701 292.135 80.7686 292.129 81.167 292.117C81.2139 291.496 81.2549 290.799 81.29 290.025C81.3252 289.252 81.3486 288.473 81.3604 287.688C81.3838 286.891 81.3955 286.111 81.3955 285.35C81.4072 284.588 81.4131 283.908 81.4131 283.311ZM96.8994 296.477V291.186H90.2197V290.131H104.81V291.186H98.1123V296.477H96.8994ZM97.4268 284.277C97.4033 284.406 97.3447 284.564 97.251 284.752C97.1572 284.928 97.0459 285.098 96.917 285.262C96.542 285.754 95.9268 286.234 95.0713 286.703C94.2275 287.16 93.1377 287.541 91.8018 287.846L91.2744 286.914C92.3525 286.668 93.249 286.381 93.9639 286.053C94.6904 285.725 95.2705 285.367 95.7041 284.98C96.1377 284.582 96.4424 284.166 96.6182 283.732C96.8057 283.287 96.8994 282.836 96.8994 282.379V281.816H98.1475V282.379C98.1475 282.848 98.2412 283.299 98.4287 283.732C98.6279 284.166 98.9443 284.57 99.3779 284.945C99.8232 285.32 100.403 285.66 101.118 285.965C101.833 286.258 102.712 286.498 103.755 286.686L103.228 287.652C101.95 287.383 100.884 287.031 100.028 286.598C99.1846 286.152 98.5752 285.707 98.2002 285.262C98.0596 285.098 97.9365 284.928 97.8311 284.752C97.7373 284.564 97.6787 284.406 97.6553 284.277H97.4268ZM108.114 288.654V281.834H109.327V284.559H118.063V281.834H119.276V288.654H108.114ZM113.159 294.016V291.52H106.216V290.482H121.157V291.52H114.372V294.016H113.159ZM118.063 285.561H109.327V287.617H118.063V285.561ZM109.327 292.609V295.633H119.804V296.67H108.114V292.609H109.327ZM66.3574 311.062V309.99H73.2129V307.371H74.4434V309.99H81.2988V311.062H66.3574ZM73.7227 303.943C73.6406 304.283 73.4707 304.605 73.2129 304.91C72.6855 305.508 71.9766 306.07 71.0859 306.598C70.1953 307.113 69.2051 307.5 68.1152 307.758L67.5703 306.809C68.5312 306.598 69.3633 306.316 70.0664 305.965C70.7695 305.613 71.3555 305.232 71.8242 304.822C72.293 304.412 72.6387 303.996 72.8613 303.574C73.0957 303.141 73.2129 302.736 73.2129 302.361V301.816H74.4609V302.361C74.4609 302.748 74.5723 303.152 74.7949 303.574C75.0176 303.996 75.3574 304.4 75.8145 304.787C76.2715 305.162 76.8516 305.502 77.5547 305.807C78.2578 306.111 79.0957 306.346 80.0684 306.51L79.5234 307.494C78.9961 307.377 78.4805 307.23 77.9766 307.055C77.4844 306.879 77.0215 306.686 76.5879 306.475C76.1543 306.252 75.7559 306.012 75.3926 305.754C75.041 305.484 74.7422 305.203 74.4961 304.91C74.3672 304.77 74.2559 304.611 74.1621 304.436C74.0684 304.26 74.0039 304.096 73.9688 303.943H73.7227ZM69.4688 312.434V315.633H79.9453V316.67H68.2559V312.434H69.4688ZM95.0273 309.445V301.219H96.2402V309.445H95.0273ZM85.4824 316.846V313.066H95.0273V311.449H85.4824V310.412H96.2402V314.104H86.6953V315.809H96.7676V316.846H85.4824ZM87.5039 304.752C87.4688 304.916 87.4219 305.086 87.3633 305.262C87.3047 305.438 87.2227 305.631 87.1172 305.842C86.8477 306.369 86.4258 306.938 85.8516 307.547C85.2773 308.145 84.4746 308.771 83.4434 309.428L82.5293 308.602C83.4199 308.098 84.1523 307.564 84.7266 307.002C85.3125 306.439 85.7695 305.877 86.0977 305.314C86.4258 304.752 86.6543 304.207 86.7832 303.68C86.9121 303.141 86.9766 302.637 86.9766 302.168V301.658H88.1895V302.168C88.1895 302.637 88.248 303.117 88.3652 303.609C88.4824 304.09 88.6992 304.57 89.0156 305.051C89.332 305.531 89.7715 305.994 90.334 306.439C90.9082 306.885 91.6465 307.295 92.5488 307.67L91.7578 308.602C91.1836 308.32 90.6855 308.039 90.2637 307.758C89.8535 307.477 89.502 307.213 89.209 306.967C88.9277 306.709 88.6992 306.469 88.5234 306.246C88.3477 306.023 88.2129 305.83 88.1191 305.666C88.0254 305.502 87.9492 305.35 87.8906 305.209C87.832 305.057 87.7852 304.904 87.75 304.752H87.5039ZM112.289 309.586C111.949 309.68 111.592 309.756 111.217 309.814C110.842 309.873 110.432 309.92 109.986 309.955C109.553 309.99 109.078 310.02 108.562 310.043C108.059 310.055 107.496 310.061 106.875 310.061V313.629H113.643V314.684H98.877V313.629H105.645V310.061H100.723V302.273H111.797V303.328H101.936V309.006H106.488C107.086 309.006 107.631 309 108.123 308.988C108.627 308.977 109.096 308.953 109.529 308.918C109.975 308.883 110.408 308.836 110.83 308.777C111.252 308.719 111.686 308.643 112.131 308.549L112.289 309.586Z" fill="#666666"/>
    <path d="M138 67C138 64.2386 140.239 62 143 62H165C167.761 62 170 64.2386 170 67V257H138V67Z" fill="#E66787"/>
    <path d="M141.633 39.4609C141.633 40.5078 141.969 41.2969 142.641 41.8281C143.328 42.3438 144.203 42.6016 145.266 42.6016C146.328 42.6016 147.203 42.3438 147.891 41.8281C148.578 41.2969 148.922 40.5078 148.922 39.4609C148.922 38.8984 148.812 38.4219 148.594 38.0312C148.375 37.6406 148.094 37.3203 147.75 37.0703C147.406 36.8047 147.016 36.6172 146.578 36.5078C146.141 36.3828 145.703 36.3203 145.266 36.3203C144.828 36.3203 144.391 36.3828 143.953 36.5078C143.516 36.6172 143.125 36.8047 142.781 37.0703C142.438 37.3203 142.156 37.6406 141.938 38.0312C141.734 38.4219 141.633 38.8984 141.633 39.4609ZM141.234 47.5234C141.234 48.1172 141.344 48.6328 141.562 49.0703C141.797 49.4922 142.102 49.8438 142.477 50.125C142.852 50.3906 143.281 50.5859 143.766 50.7109C144.25 50.8359 144.75 50.8984 145.266 50.8984C145.781 50.8984 146.281 50.8359 146.766 50.7109C147.25 50.5859 147.68 50.3906 148.055 50.125C148.43 49.8438 148.727 49.4922 148.945 49.0703C149.18 48.6328 149.297 48.1172 149.297 47.5234C149.297 46.9453 149.18 46.4375 148.945 46C148.727 45.5625 148.43 45.2031 148.055 44.9219C147.68 44.625 147.25 44.4062 146.766 44.2656C146.281 44.125 145.781 44.0547 145.266 44.0547C144.75 44.0547 144.25 44.125 143.766 44.2656C143.281 44.4062 142.852 44.625 142.477 44.9219C142.102 45.2031 141.797 45.5625 141.562 46C141.344 46.4375 141.234 46.9453 141.234 47.5234ZM147.281 43.3516C148.406 43.6484 149.305 44.1406 149.977 44.8281C150.648 45.5156 150.984 46.4141 150.984 47.5234C150.984 48.3672 150.812 49.0938 150.469 49.7031C150.141 50.3125 149.703 50.8125 149.156 51.2031C148.625 51.5781 148.016 51.8594 147.328 52.0469C146.656 52.2344 145.969 52.3281 145.266 52.3281C144.578 52.3281 143.891 52.2344 143.203 52.0469C142.531 51.8594 141.922 51.5781 141.375 51.2031C140.844 50.8125 140.406 50.3125 140.062 49.7031C139.734 49.0938 139.57 48.3672 139.57 47.5234C139.57 46.4453 139.906 45.5547 140.578 44.8516C141.266 44.1484 142.172 43.6484 143.297 43.3516V43.3047C142.844 43.1953 142.414 43.0312 142.008 42.8125C141.617 42.5781 141.273 42.2969 140.977 41.9688C140.695 41.6406 140.469 41.2656 140.297 40.8438C140.141 40.4219 140.062 39.9609 140.062 39.4609C140.062 38.6953 140.211 38.0391 140.508 37.4922C140.82 36.9297 141.219 36.4688 141.703 36.1094C142.203 35.7344 142.758 35.4609 143.367 35.2891C143.992 35.1172 144.625 35.0312 145.266 35.0312C145.906 35.0312 146.539 35.1172 147.164 35.2891C147.789 35.4609 148.344 35.7344 148.828 36.1094C149.328 36.4688 149.727 36.9297 150.023 37.4922C150.336 38.0391 150.492 38.6953 150.492 39.4609C150.492 40.4922 150.188 41.3359 149.578 41.9922C148.969 42.6484 148.203 43.0859 147.281 43.3047V43.3516ZM156.211 39.4609C156.211 40.5078 156.547 41.2969 157.219 41.8281C157.906 42.3438 158.781 42.6016 159.844 42.6016C160.906 42.6016 161.781 42.3438 162.469 41.8281C163.156 41.2969 163.5 40.5078 163.5 39.4609C163.5 38.8984 163.391 38.4219 163.172 38.0312C162.953 37.6406 162.672 37.3203 162.328 37.0703C161.984 36.8047 161.594 36.6172 161.156 36.5078C160.719 36.3828 160.281 36.3203 159.844 36.3203C159.406 36.3203 158.969 36.3828 158.531 36.5078C158.094 36.6172 157.703 36.8047 157.359 37.0703C157.016 37.3203 156.734 37.6406 156.516 38.0312C156.312 38.4219 156.211 38.8984 156.211 39.4609ZM155.812 47.5234C155.812 48.1172 155.922 48.6328 156.141 49.0703C156.375 49.4922 156.68 49.8438 157.055 50.125C157.43 50.3906 157.859 50.5859 158.344 50.7109C158.828 50.8359 159.328 50.8984 159.844 50.8984C160.359 50.8984 160.859 50.8359 161.344 50.7109C161.828 50.5859 162.258 50.3906 162.633 50.125C163.008 49.8438 163.305 49.4922 163.523 49.0703C163.758 48.6328 163.875 48.1172 163.875 47.5234C163.875 46.9453 163.758 46.4375 163.523 46C163.305 45.5625 163.008 45.2031 162.633 44.9219C162.258 44.625 161.828 44.4062 161.344 44.2656C160.859 44.125 160.359 44.0547 159.844 44.0547C159.328 44.0547 158.828 44.125 158.344 44.2656C157.859 44.4062 157.43 44.625 157.055 44.9219C156.68 45.2031 156.375 45.5625 156.141 46C155.922 46.4375 155.812 46.9453 155.812 47.5234ZM161.859 43.3516C162.984 43.6484 163.883 44.1406 164.555 44.8281C165.227 45.5156 165.562 46.4141 165.562 47.5234C165.562 48.3672 165.391 49.0938 165.047 49.7031C164.719 50.3125 164.281 50.8125 163.734 51.2031C163.203 51.5781 162.594 51.8594 161.906 52.0469C161.234 52.2344 160.547 52.3281 159.844 52.3281C159.156 52.3281 158.469 52.2344 157.781 52.0469C157.109 51.8594 156.5 51.5781 155.953 51.2031C155.422 50.8125 154.984 50.3125 154.641 49.7031C154.312 49.0938 154.148 48.3672 154.148 47.5234C154.148 46.4453 154.484 45.5547 155.156 44.8516C155.844 44.1484 156.75 43.6484 157.875 43.3516V43.3047C157.422 43.1953 156.992 43.0312 156.586 42.8125C156.195 42.5781 155.852 42.2969 155.555 41.9688C155.273 41.6406 155.047 41.2656 154.875 40.8438C154.719 40.4219 154.641 39.9609 154.641 39.4609C154.641 38.6953 154.789 38.0391 155.086 37.4922C155.398 36.9297 155.797 36.4688 156.281 36.1094C156.781 35.7344 157.336 35.4609 157.945 35.2891C158.57 35.1172 159.203 35.0312 159.844 35.0312C160.484 35.0312 161.117 35.1172 161.742 35.2891C162.367 35.4609 162.922 35.7344 163.406 36.1094C163.906 36.4688 164.305 36.9297 164.602 37.4922C164.914 38.0391 165.07 38.6953 165.07 39.4609C165.07 40.4922 164.766 41.3359 164.156 41.9922C163.547 42.6484 162.781 43.0859 161.859 43.3047V43.3516Z" fill="#666666"/>
    <path d="M131.197 282.311V281.273H142.975V282.311H140.602C140.555 283.412 140.496 284.467 140.426 285.475C140.355 286.436 140.279 287.285 140.197 288.023H142.975V289.061H137.684V292.629H144.469V293.684H129.703V292.629H136.471V289.061H131.197V288.023H133.975C133.939 287.613 133.91 287.186 133.887 286.74C133.852 286.201 133.822 285.662 133.799 285.123C133.775 284.584 133.752 284.057 133.729 283.541C133.705 283.107 133.682 282.697 133.658 282.311H131.197ZM134.924 283.541C134.947 284.068 134.971 284.602 134.994 285.141C135.029 285.68 135.064 286.213 135.1 286.74C135.135 287.186 135.17 287.613 135.205 288.023H139.02C139.102 287.191 139.172 286.295 139.23 285.334C139.289 284.338 139.336 283.33 139.371 282.311H134.889C134.889 282.697 134.9 283.107 134.924 283.541ZM147.105 292.172V281.273H148.301V285.738H153.662V281.273H154.857V292.172H147.105ZM153.662 286.775H148.301V291.135H153.662V286.775ZM158.549 295.301V280.219H159.762V295.301H158.549ZM175.072 292.488V289.307C173.982 289.635 172.711 289.863 171.258 289.992C169.816 290.121 168.234 290.186 166.512 290.186H163.717V285.105H169.975V282.047H163.717V281.01H171.188V286.143H164.93V289.166H166.529C167.303 289.166 168.07 289.154 168.832 289.131C169.605 289.107 170.355 289.061 171.082 288.99C171.809 288.92 172.506 288.826 173.174 288.709C173.854 288.58 174.486 288.422 175.072 288.234V280.219H176.285V292.488H175.072ZM166.828 291.521V294.545H176.637V295.582H165.615V291.521H166.828Z" fill="#666666"/>
    <path d="M202 39C202 36.2386 204.239 34 207 34H229C231.761 34 234 36.2386 234 39V257H202V39Z" fill="#E66787"/>
    <path d="M211.07 17.6641C212.023 17.6016 212.797 17.3047 213.391 16.7734C214 16.2266 214.477 15.5703 214.82 14.8047C215.164 14.0391 215.398 13.2344 215.523 12.3906C215.648 11.5312 215.711 10.7578 215.711 10.0703H215.664C215.258 10.8672 214.664 11.4922 213.883 11.9453C213.102 12.3828 212.227 12.6016 211.258 12.6016C210.508 12.6016 209.82 12.4766 209.195 12.2266C208.57 11.9609 208.031 11.6016 207.578 11.1484C207.141 10.6797 206.797 10.1328 206.547 9.50781C206.297 8.86719 206.172 8.17188 206.172 7.42188C206.172 6.625 206.297 5.89844 206.547 5.24219C206.797 4.58594 207.148 4.02344 207.602 3.55469C208.07 3.07031 208.633 2.69531 209.289 2.42969C209.945 2.16406 210.672 2.03125 211.469 2.03125C212.672 2.03125 213.656 2.26562 214.422 2.73438C215.188 3.20312 215.789 3.82031 216.227 4.58594C216.664 5.35156 216.961 6.22656 217.117 7.21094C217.289 8.17969 217.375 9.17969 217.375 10.2109C217.375 11.3359 217.25 12.4297 217 13.4922C216.766 14.5547 216.367 15.5078 215.805 16.3516C215.242 17.1797 214.508 17.8516 213.602 18.3672C212.695 18.8672 211.578 19.1172 210.25 19.1172C209.594 19.1172 208.977 19.0312 208.398 18.8594C207.836 18.6875 207.375 18.5391 207.016 18.4141L207.273 16.9609C207.617 17.1172 208.133 17.2891 208.82 17.4766C209.523 17.6484 210.273 17.7109 211.07 17.6641ZM211.492 3.4375C210.883 3.4375 210.344 3.54687 209.875 3.76562C209.422 3.96875 209.047 4.25781 208.75 4.63281C208.453 5.00781 208.227 5.44531 208.07 5.94531C207.93 6.44531 207.859 6.98438 207.859 7.5625C207.859 8.65625 208.172 9.54688 208.797 10.2344C209.438 10.9219 210.305 11.2656 211.398 11.2656C211.977 11.2656 212.508 11.1719 212.992 10.9844C213.492 10.7812 213.914 10.5078 214.258 10.1641C214.617 9.82031 214.898 9.40625 215.102 8.92188C215.305 8.4375 215.406 7.90625 215.406 7.32812C215.406 6.76562 215.305 6.25 215.102 5.78125C214.914 5.29688 214.648 4.88281 214.305 4.53906C213.961 4.19531 213.547 3.92969 213.062 3.74219C212.594 3.53906 212.07 3.4375 211.492 3.4375ZM230.547 2.35938V3.76562L224.078 19H222.25L228.906 3.8125H219.953V2.35938H230.547Z" fill="#666666"/>
    <path d="M206.797 295.846V290.854H202.438L202.174 290.414H201.98V293.367H197.498V294.861H199.555C199.812 294.861 200.088 294.855 200.381 294.844C200.674 294.832 200.961 294.809 201.242 294.773C201.535 294.738 201.811 294.691 202.068 294.633C202.326 294.586 202.555 294.527 202.754 294.457L203.018 295.406C202.795 295.5 202.537 295.576 202.244 295.635C201.963 295.693 201.664 295.734 201.348 295.758C201.043 295.793 200.732 295.816 200.416 295.828C200.111 295.84 199.824 295.846 199.555 295.846H196.338V292.383H200.82V290.854H196.338V289.869H201.559V288.516H194.703V287.479H209.645V288.516H202.771V289.869H208.01V295.846H206.797ZM196.602 286.09V280.658H197.814V282.557H206.551V280.658H207.764V286.09H196.602ZM206.551 283.559H197.814V285.053H206.551V283.559ZM212.686 283.77C212.686 282.773 213.166 282.006 214.127 281.467C215.088 280.928 216.553 280.658 218.521 280.658C220.467 280.658 221.926 280.928 222.898 281.467C223.871 282.006 224.357 282.773 224.357 283.77C224.357 284.766 223.871 285.533 222.898 286.072C221.926 286.611 220.467 286.881 218.521 286.881C216.553 286.881 215.088 286.611 214.127 286.072C213.166 285.533 212.686 284.766 212.686 283.77ZM213.881 283.77C213.881 284.145 213.986 284.467 214.197 284.736C214.42 284.994 214.73 285.211 215.129 285.387C215.539 285.562 216.031 285.691 216.605 285.773C217.18 285.855 217.818 285.896 218.521 285.896C219.225 285.896 219.857 285.855 220.42 285.773C220.994 285.691 221.48 285.562 221.879 285.387C222.289 285.211 222.605 284.994 222.828 284.736C223.051 284.467 223.162 284.145 223.162 283.77C223.162 283.406 223.051 283.09 222.828 282.82C222.605 282.551 222.289 282.328 221.879 282.152C221.48 281.977 220.994 281.848 220.42 281.766C219.857 281.684 219.225 281.643 218.521 281.643C217.818 281.643 217.18 281.684 216.605 281.766C216.031 281.848 215.539 281.977 215.129 282.152C214.73 282.328 214.42 282.551 214.197 282.82C213.986 283.09 213.881 283.406 213.881 283.77ZM214.162 291.346V294.633H224.639V295.67H212.949V291.346H214.162ZM211.051 289.992V288.955H225.992V289.992H211.051ZM238.842 295.301V280.219H240.055V295.301H238.842ZM231.898 292.541C232.203 291.686 232.461 290.771 232.672 289.799C232.883 288.814 233.053 287.854 233.182 286.916C233.322 285.967 233.422 285.088 233.48 284.279C233.539 283.471 233.568 282.814 233.568 282.311H227.047V281.273H234.764C234.764 282.023 234.729 282.885 234.658 283.857C234.6 284.818 234.5 285.814 234.359 286.846C234.23 287.877 234.061 288.908 233.85 289.939C233.639 290.971 233.393 291.92 233.111 292.787L231.898 292.541Z" fill="#666666"/>
    <path d="M38.2031 246.328C37.7578 246.328 37.377 246.416 37.0605 246.592C36.7559 246.768 36.4922 247.008 36.2695 247.312C36.0586 247.605 35.8887 247.939 35.7598 248.314C35.6426 248.689 35.5488 249.076 35.4785 249.475C35.4082 249.861 35.3613 250.248 35.3379 250.635C35.3262 251.021 35.3203 251.367 35.3203 251.672C35.3203 252.141 35.3438 252.68 35.3906 253.289C35.4492 253.898 35.5723 254.479 35.7598 255.029C35.959 255.58 36.2461 256.049 36.6211 256.436C37.0078 256.811 37.5352 256.998 38.2031 256.998C38.8594 256.998 39.3809 256.811 39.7676 256.436C40.1543 256.049 40.4414 255.58 40.6289 255.029C40.8281 254.479 40.9512 253.898 40.998 253.289C41.0566 252.68 41.0859 252.141 41.0859 251.672C41.0859 251.367 41.0742 251.021 41.0508 250.635C41.0391 250.248 40.998 249.861 40.9277 249.475C40.8574 249.076 40.7578 248.689 40.6289 248.314C40.5 247.939 40.3301 247.605 40.1191 247.312C39.9082 247.008 39.6445 246.768 39.3281 246.592C39.0117 246.416 38.6367 246.328 38.2031 246.328ZM38.2031 245.273C39.0469 245.273 39.7383 245.461 40.2773 245.836C40.8164 246.199 41.2383 246.68 41.543 247.277C41.8477 247.875 42.0527 248.561 42.1582 249.334C42.2754 250.096 42.334 250.875 42.334 251.672C42.334 252.469 42.2754 253.248 42.1582 254.01C42.0527 254.771 41.8477 255.457 41.543 256.066C41.2383 256.676 40.8164 257.168 40.2773 257.543C39.7383 257.906 39.0469 258.088 38.2031 258.088C37.3477 258.088 36.6504 257.906 36.1113 257.543C35.5723 257.168 35.1504 256.676 34.8457 256.066C34.541 255.457 34.3301 254.771 34.2129 254.01C34.1074 253.248 34.0547 252.469 34.0547 251.672C34.0547 250.875 34.1074 250.096 34.2129 249.334C34.3301 248.561 34.541 247.875 34.8457 247.277C35.1504 246.68 35.5723 246.199 36.1113 245.836C36.6504 245.461 37.3477 245.273 38.2031 245.273Z" fill="#666666"/>
</svg>
