<svg width="320" height="208" viewBox="0 0 320 208" fill="none" xmlns="http://www.w3.org/2000/svg">
    <path d="M39.7344 38.1564V33.0939C38.9427 33.2397 38.0781 33.3387 37.1406 33.3907C36.2031 33.4324 35.2031 33.4585 34.1406 33.4689C34.1406 34.3543 34.1042 35.172 34.0312 35.922C33.9583 36.6616 33.8021 37.3387 33.5625 37.9532L32.5156 37.6876C32.7552 37.0835 32.9062 36.4168 32.9688 35.6876C33.0312 34.9585 33.0625 34.2189 33.0625 33.4689H29.0938V32.5626H33.7656C34.8073 32.5626 35.8385 32.5418 36.8594 32.5001C37.8802 32.448 38.8385 32.3387 39.7344 32.172V24.7501H40.8125V38.1564H39.7344ZM37.625 30.3751C37.3021 30.4376 36.9062 30.4897 36.4375 30.5314C35.9688 30.5626 35.4844 30.5782 34.9844 30.5782H30.3281V25.5314H37.2188V26.4532H31.4062V29.6407H35C35.4167 29.6407 35.849 29.6251 36.2969 29.5939C36.7552 29.5626 37.151 29.5053 37.4844 29.422L37.625 30.3751Z" fill="#666666"/>
    <path d="M54.8594 28.0939C54.2865 28.0939 53.8177 28.2137 53.4531 28.4532C53.099 28.6824 52.8177 28.9897 52.6094 29.3751C52.4115 29.7501 52.276 30.1772 52.2031 30.6564C52.1302 31.1251 52.0938 31.5939 52.0938 32.0626H52.1094C52.3177 31.5626 52.6354 31.1824 53.0625 30.922C53.5 30.6512 54 30.5157 54.5625 30.5157C55.5104 30.5157 56.2344 30.7918 56.7344 31.3439C57.2448 31.896 57.5 32.6303 57.5 33.547C57.5 34.4949 57.2188 35.2449 56.6562 35.797C56.0938 36.3387 55.3802 36.6095 54.5156 36.6095C53.401 36.6095 52.5521 36.271 51.9688 35.5939C51.3958 34.9168 51.1094 33.8699 51.1094 32.4532C51.1094 31.8387 51.1562 31.2241 51.25 30.6095C51.3542 29.9949 51.5417 29.4428 51.8125 28.9532C52.0833 28.4532 52.4583 28.0522 52.9375 27.7501C53.4167 27.4376 54.0417 27.2814 54.8125 27.2814C55.2604 27.2814 55.6562 27.3282 56 27.422C56.3542 27.5053 56.6615 27.5887 56.9219 27.672L56.7656 28.5001C56.3802 28.3439 56.099 28.2501 55.9219 28.2189C55.7552 28.1772 55.401 28.1355 54.8594 28.0939ZM54.5469 31.297C53.776 31.297 53.1979 31.5157 52.8125 31.9532C52.4271 32.3803 52.2344 32.9532 52.2344 33.672C52.2344 34.2345 52.4271 34.7345 52.8125 35.172C53.1979 35.5991 53.7135 35.8126 54.3594 35.8126C55.0573 35.8126 55.5885 35.6147 55.9531 35.2189C56.3281 34.8126 56.5156 34.2657 56.5156 33.5782C56.5156 32.8595 56.3438 32.3022 56 31.9064C55.6562 31.5001 55.1719 31.297 54.5469 31.297ZM54.2656 24.3595C56.526 24.3595 58.349 25.073 59.7344 26.5001C61.1198 27.9272 61.8125 29.698 61.8125 31.8126C61.8125 33.948 61.1302 35.7241 59.7656 37.1407C58.4115 38.5678 56.5781 39.2814 54.2656 39.2814C52.0052 39.2814 50.1823 38.5678 48.7969 37.1407C47.4219 35.7241 46.7344 33.948 46.7344 31.8126C46.7344 29.698 47.4271 27.9272 48.8125 26.5001C50.1979 25.073 52.0156 24.3595 54.2656 24.3595ZM54.2656 24.9845C52.276 24.9845 50.6302 25.6303 49.3281 26.922C48.026 28.2137 47.375 29.8543 47.375 31.8439C47.375 33.7605 48 35.3803 49.25 36.7032C50.5 38.0157 52.1719 38.672 54.2656 38.672C56.3698 38.672 58.0469 38.0105 59.2969 36.6876C60.5469 35.3543 61.1719 33.7397 61.1719 31.8439C61.1719 29.8335 60.5156 28.1876 59.2031 26.9064C57.901 25.6251 56.2552 24.9845 54.2656 24.9845Z" fill="#666666"/>
    <path d="M3.04688 64.0469C3.04688 63.2552 3.44271 62.6406 4.23438 62.2031C5.02604 61.7552 6.27604 61.5312 7.98438 61.5312C9.68229 61.5312 10.9271 61.75 11.7188 62.1875C12.5208 62.625 12.9219 63.2448 12.9219 64.0469C12.9219 64.849 12.5208 65.4688 11.7188 65.9062C10.9271 66.3438 9.68229 66.5625 7.98438 66.5625C6.27604 66.5625 5.02604 66.3438 4.23438 65.9062C3.44271 65.4688 3.04688 64.849 3.04688 64.0469ZM4.07812 64.0469C4.07812 64.6302 4.41667 65.0469 5.09375 65.2969C5.78125 65.5469 6.74479 65.6719 7.98438 65.6719C9.21354 65.6719 10.1719 65.5469 10.8594 65.2969C11.5469 65.0469 11.8906 64.6302 11.8906 64.0469C11.8906 63.4635 11.5469 63.0469 10.8594 62.7969C10.1719 62.5469 9.21354 62.4219 7.98438 62.4219C6.74479 62.4219 5.78125 62.5469 5.09375 62.7969C4.41667 63.0469 4.07812 63.4635 4.07812 64.0469ZM8.79688 60.3438C7.94271 59.9583 7.29688 59.5833 6.85938 59.2188C6.42188 58.8438 6.09896 58.5156 5.89062 58.2344C5.71354 57.9948 5.59375 57.7917 5.53125 57.625C5.46875 57.4479 5.42708 57.2865 5.40625 57.1406H5.14062C5.11979 57.2865 5.07812 57.4583 5.01562 57.6562C4.95312 57.8542 4.85938 58.0573 4.73438 58.2656C4.60938 58.4844 4.45833 58.7031 4.28125 58.9219C4.11458 59.1406 3.90625 59.3646 3.65625 59.5938C3.41667 59.8125 3.125 60.0417 2.78125 60.2812C2.4375 60.5208 2.02604 60.7656 1.54688 61.0156L0.8125 60.25C1.70833 59.8021 2.41667 59.3281 2.9375 58.8281C3.45833 58.3177 3.84896 57.8073 4.10938 57.2969C4.38021 56.7865 4.54688 56.2969 4.60938 55.8281C4.68229 55.349 4.71875 54.9167 4.71875 54.5312V54.4531H1.29688V53.5312H9.10938V54.4531H5.79688V54.5312C5.79688 54.9062 5.82812 55.3125 5.89062 55.75C5.96354 56.1875 6.125 56.6302 6.375 57.0781C6.63542 57.5156 7.01042 57.9479 7.5 58.375C8 58.7917 8.67708 59.1667 9.53125 59.5L8.79688 60.3438ZM11.6094 60.9219V57.0781H8.26562V56.1875H11.6094V52.75H12.6875V60.9219H11.6094ZM20.9688 66.3125V61.6094H15.0312V60.6719H28V61.6094H22.0469V66.3125H20.9688ZM21.4375 55.4688C21.4167 55.5833 21.3646 55.724 21.2812 55.8906C21.1979 56.0469 21.099 56.1979 20.9844 56.3438C20.651 56.7812 20.1042 57.2083 19.3438 57.625C18.5938 58.0312 17.625 58.3698 16.4375 58.6406L15.9688 57.8125C16.9271 57.5938 17.724 57.3385 18.3594 57.0469C19.0052 56.7552 19.5208 56.4375 19.9062 56.0938C20.2917 55.7396 20.5625 55.3698 20.7188 54.9844C20.8854 54.5885 20.9688 54.1875 20.9688 53.7812V53.2812H22.0781V53.7812C22.0781 54.1979 22.1615 54.599 22.3281 54.9844C22.5052 55.3698 22.7865 55.7292 23.1719 56.0625C23.5677 56.3958 24.0833 56.6979 24.7188 56.9688C25.3542 57.2292 26.1354 57.4427 27.0625 57.6094L26.5938 58.4688C25.4583 58.2292 24.5104 57.9167 23.75 57.5312C23 57.1354 22.4583 56.7396 22.125 56.3438C22 56.1979 21.8906 56.0469 21.7969 55.8906C21.7135 55.724 21.6615 55.5833 21.6406 55.4688H21.4375ZM40.2031 66.1562V62.9062C39.2344 63.1979 38.1042 63.401 36.8125 63.5156C35.5312 63.6302 34.125 63.6875 32.5938 63.6875H30.3438V58.2031H35.75V54.6094H30.3438V53.6875H36.8281V59.0938H31.4219V62.7656H32.6094C33.2969 62.7656 33.9792 62.7552 34.6562 62.7344C35.3438 62.7135 36.0104 62.6719 36.6562 62.6094C37.3021 62.5469 37.9219 62.4635 38.5156 62.3594C39.1198 62.2448 39.6823 62.1042 40.2031 61.9375V52.75H41.2812V66.1562H40.2031Z" fill="#666666"/>
    <path d="M54.1406 62.8125C54.8698 62.8125 55.4219 62.5885 55.7969 62.1406C56.1719 61.6927 56.3594 61.125 56.3594 60.4375C56.3594 59.75 56.1771 59.2135 55.8125 58.8281C55.4583 58.4427 54.9271 58.25 54.2188 58.25C53.75 58.25 53.3333 58.3854 52.9688 58.6562C52.6042 58.9167 52.3646 59.2708 52.25 59.7188H51.3438L51.5938 54.5H56.8125V55.3125H52.4375L52.25 58.4219L52.3125 58.4688C52.5833 58.1562 52.8958 57.9062 53.25 57.7188C53.6042 57.5312 53.9896 57.4375 54.4062 57.4375C55.2396 57.4375 55.9271 57.7188 56.4688 58.2812C57.0208 58.8333 57.2969 59.5625 57.2969 60.4688C57.2969 61.3542 57.026 62.099 56.4844 62.7031C55.9427 63.3073 55.2031 63.6094 54.2656 63.6094C53.6823 63.6094 53.1719 63.5521 52.7344 63.4375C52.2969 63.3125 51.9271 63.1823 51.625 63.0469L51.6719 62.1562C52.2031 62.3958 52.5781 62.5469 52.7969 62.6094C53.026 62.6719 53.474 62.7396 54.1406 62.8125ZM54.2656 51.3594C56.526 51.3594 58.349 52.0729 59.7344 53.5C61.1198 54.9271 61.8125 56.6979 61.8125 58.8125C61.8125 60.9479 61.1302 62.724 59.7656 64.1406C58.4115 65.5677 56.5781 66.2812 54.2656 66.2812C52.0052 66.2812 50.1823 65.5677 48.7969 64.1406C47.4219 62.724 46.7344 60.9479 46.7344 58.8125C46.7344 56.6979 47.4271 54.9271 48.8125 53.5C50.1979 52.0729 52.0156 51.3594 54.2656 51.3594ZM54.2656 51.9844C52.276 51.9844 50.6302 52.6302 49.3281 53.9219C48.026 55.2135 47.375 56.8542 47.375 58.8438C47.375 60.7604 48 62.3802 49.25 63.7031C50.5 65.0156 52.1719 65.6719 54.2656 65.6719C56.3698 65.6719 58.0469 65.0104 59.2969 63.6875C60.5469 62.3542 61.1719 60.7396 61.1719 58.8438C61.1719 56.8333 60.5156 55.1875 59.2031 53.9062C57.901 52.625 56.2552 51.9844 54.2656 51.9844Z" fill="#666666"/>
    <path d="M54.8125 91.5469V89.2031H50.6094V88.3281L54.5625 82.5H55.7188V88.4531H57.25V89.2031H55.7188V91.5469H54.8125ZM54.8125 88.4531V83.4219L51.4219 88.4531H54.8125ZM54.2656 79.3594C56.526 79.3594 58.349 80.0729 59.7344 81.5C61.1198 82.9271 61.8125 84.6979 61.8125 86.8125C61.8125 88.9479 61.1302 90.724 59.7656 92.1406C58.4115 93.5677 56.5781 94.2812 54.2656 94.2812C52.0052 94.2812 50.1823 93.5677 48.7969 92.1406C47.4219 90.724 46.7344 88.9479 46.7344 86.8125C46.7344 84.6979 47.4271 82.9271 48.8125 81.5C50.1979 80.0729 52.0156 79.3594 54.2656 79.3594ZM54.2656 79.9844C52.276 79.9844 50.6302 80.6302 49.3281 81.9219C48.026 83.2135 47.375 84.8542 47.375 86.8438C47.375 88.7604 48 90.3802 49.25 91.7031C50.5 93.0156 52.1719 93.6719 54.2656 93.6719C56.3698 93.6719 58.0469 93.0104 59.2969 91.6875C60.5469 90.3542 61.1719 88.7396 61.1719 86.8438C61.1719 84.8333 60.5156 83.1875 59.2031 81.9062C57.901 80.625 56.2552 79.9844 54.2656 79.9844Z" fill="#666666"/>
    <path d="M13.2344 92.4688C13.2344 91.6875 13.6615 91.0938 14.5156 90.6875C15.276 90.3229 16.3958 90.1198 17.875 90.0781V88.3438H11.7812V87.4219H25.0625V88.3438H18.9531V90.0781C20.4219 90.1094 21.5417 90.3125 22.3125 90.6875C23.1771 91.0938 23.6094 91.6875 23.6094 92.4688C23.6094 93.25 23.1771 93.8438 22.3125 94.25C21.4479 94.6667 20.151 94.875 18.4219 94.875C16.6719 94.875 15.3698 94.6667 14.5156 94.25C13.6615 93.8438 13.2344 93.25 13.2344 92.4688ZM18.3438 83.4062C18.3021 83.5208 18.2448 83.6406 18.1719 83.7656C18.099 83.8906 17.9948 84.0208 17.8594 84.1562C17.474 84.5417 16.9167 84.9323 16.1875 85.3281C15.4688 85.7135 14.5208 86.026 13.3438 86.2656L12.875 85.4375C13.7083 85.2708 14.4375 85.0469 15.0625 84.7656C15.6875 84.4844 16.2083 84.1875 16.625 83.875C17.0417 83.5625 17.3542 83.2604 17.5625 82.9688C17.7708 82.6667 17.875 82.4062 17.875 82.1875V82.1406H13.3125V81.2188H23.5469V82.1406H18.9844V82.1875C18.9844 82.4062 19.0781 82.6615 19.2656 82.9531C19.4531 83.2448 19.7448 83.5365 20.1406 83.8281C20.5469 84.1094 21.0625 84.3802 21.6875 84.6406C22.3229 84.8906 23.0833 85.0885 23.9688 85.2344L23.5 86.0938C22.3438 85.8854 21.4062 85.6042 20.6875 85.25C19.9792 84.8854 19.4271 84.5208 19.0312 84.1562C18.8958 84.0312 18.7865 83.9062 18.7031 83.7812C18.6302 83.6458 18.5781 83.5208 18.5469 83.4062H18.3438ZM14.3281 92.4688C14.3281 92.9896 14.6927 93.375 15.4219 93.625C16.1615 93.875 17.1615 94 18.4219 94C19.6719 94 20.6667 93.875 21.4062 93.625C22.1458 93.375 22.5156 92.9896 22.5156 92.4688C22.5156 91.9479 22.1458 91.5625 21.4062 91.3125C20.6667 91.0625 19.6719 90.9375 18.4219 90.9375C17.1615 90.9375 16.1615 91.0625 15.4219 91.3125C14.6927 91.5625 14.3281 91.9479 14.3281 92.4688ZM37.2656 89V80.75H38.3438V84.4219H40.9219V85.3438H38.3438V89H37.2656ZM27.9688 84.5312C27.9688 84.9167 28.0312 85.2656 28.1562 85.5781C28.2812 85.8802 28.4583 86.1406 28.6875 86.3594C28.9167 86.5677 29.1875 86.7292 29.5 86.8438C29.8125 86.9583 30.151 87.0156 30.5156 87.0156C30.8802 87.0156 31.2135 86.9583 31.5156 86.8438C31.8281 86.7292 32.099 86.5677 32.3281 86.3594C32.5573 86.1406 32.7344 85.8802 32.8594 85.5781C32.9844 85.2656 33.0469 84.9167 33.0469 84.5312C33.0469 84.1458 32.9844 83.8021 32.8594 83.5C32.7344 83.1875 32.5573 82.9271 32.3281 82.7188C32.099 82.5104 31.8281 82.349 31.5156 82.2344C31.2135 82.1198 30.8802 82.0625 30.5156 82.0625C30.151 82.0625 29.8125 82.1198 29.5 82.2344C29.1875 82.349 28.9167 82.5104 28.6875 82.7188C28.4583 82.9271 28.2812 83.1875 28.1562 83.5C28.0312 83.8021 27.9688 84.1458 27.9688 84.5312ZM26.9375 84.5312C26.9375 84.0104 27.026 83.5417 27.2031 83.125C27.3802 82.7083 27.625 82.3542 27.9375 82.0625C28.2604 81.7604 28.6406 81.5312 29.0781 81.375C29.5156 81.2188 29.9948 81.1406 30.5156 81.1406C31.026 81.1406 31.5 81.2188 31.9375 81.375C32.375 81.5312 32.75 81.7604 33.0625 82.0625C33.3854 82.3542 33.6354 82.7083 33.8125 83.125C33.9896 83.5417 34.0781 84.0104 34.0781 84.5312C34.0781 85.0521 33.9896 85.5208 33.8125 85.9375C33.6354 86.3542 33.3854 86.7135 33.0625 87.0156C32.75 87.3073 32.375 87.5365 31.9375 87.7031C31.5 87.8594 31.026 87.9375 30.5156 87.9375C29.9948 87.9375 29.5156 87.8594 29.0781 87.7031C28.6406 87.5365 28.2604 87.3073 27.9375 87.0156C27.625 86.7135 27.3802 86.3542 27.2031 85.9375C27.026 85.5208 26.9375 85.0521 26.9375 84.5312ZM28.7031 92.0781C28.7031 91.3177 29.099 90.7135 29.8906 90.2656C30.6823 89.8177 31.9323 89.5938 33.6406 89.5938C35.3281 89.5938 36.5729 89.8177 37.375 90.2656C38.1771 90.7135 38.5781 91.3177 38.5781 92.0781C38.5781 92.8385 38.1771 93.4427 37.375 93.8906C36.5729 94.3385 35.3281 94.5625 33.6406 94.5625C31.9323 94.5625 30.6823 94.3385 29.8906 93.8906C29.099 93.4427 28.7031 92.8385 28.7031 92.0781ZM29.7969 92.0781C29.7969 92.6198 30.125 93.026 30.7812 93.2969C31.4479 93.5677 32.401 93.7031 33.6406 93.7031C34.8698 93.7031 35.8177 93.5677 36.4844 93.2969C37.151 93.026 37.4844 92.6198 37.4844 92.0781C37.4844 91.5365 37.151 91.1302 36.4844 90.8594C35.8177 90.5885 34.8698 90.4531 33.6406 90.4531C32.401 90.4531 31.4479 90.5885 30.7812 90.8594C30.125 91.1302 29.7969 91.5365 29.7969 92.0781Z" fill="#666666"/>
    <path d="M54 118.812C54.7292 118.812 55.3021 118.651 55.7188 118.328C56.1354 118.005 56.3438 117.531 56.3438 116.906C56.3438 116.281 56.099 115.839 55.6094 115.578C55.1302 115.318 54.5573 115.188 53.8906 115.188H52.6875V114.328H53.8906C54.5573 114.328 55.099 114.193 55.5156 113.922C55.9427 113.651 56.1562 113.24 56.1562 112.688C56.1562 112.177 55.9531 111.781 55.5469 111.5C55.1406 111.219 54.6615 111.078 54.1094 111.078C53.7552 111.078 53.3542 111.125 52.9062 111.219C52.4583 111.302 52.0677 111.427 51.7344 111.594L51.625 110.781C51.9792 110.635 52.3542 110.516 52.75 110.422C53.1562 110.328 53.5677 110.281 53.9844 110.281C54.9635 110.281 55.7344 110.5 56.2969 110.938C56.8594 111.365 57.1406 111.969 57.1406 112.75C57.1406 113.333 56.9323 113.792 56.5156 114.125C56.1094 114.458 55.6771 114.651 55.2188 114.703V114.75C55.8125 114.885 56.3073 115.135 56.7031 115.5C57.1094 115.854 57.3125 116.365 57.3125 117.031C57.3125 117.802 57.0052 118.427 56.3906 118.906C55.7865 119.375 54.9948 119.609 54.0156 119.609C53.6198 119.609 53.1927 119.562 52.7344 119.469C52.276 119.375 51.8542 119.25 51.4688 119.094L51.5781 118.234C51.974 118.411 52.3698 118.552 52.7656 118.656C53.1719 118.76 53.5833 118.812 54 118.812ZM54.2656 107.359C56.526 107.359 58.349 108.073 59.7344 109.5C61.1198 110.927 61.8125 112.698 61.8125 114.812C61.8125 116.948 61.1302 118.724 59.7656 120.141C58.4115 121.568 56.5781 122.281 54.2656 122.281C52.0052 122.281 50.1823 121.568 48.7969 120.141C47.4219 118.724 46.7344 116.948 46.7344 114.812C46.7344 112.698 47.4271 110.927 48.8125 109.5C50.1979 108.073 52.0156 107.359 54.2656 107.359ZM54.2656 107.984C52.276 107.984 50.6302 108.63 49.3281 109.922C48.026 111.214 47.375 112.854 47.375 114.844C47.375 116.76 48 118.38 49.25 119.703C50.5 121.016 52.1719 121.672 54.2656 121.672C56.3698 121.672 58.0469 121.01 59.2969 119.688C60.5469 118.354 61.1719 116.74 61.1719 114.844C61.1719 112.833 60.5156 111.188 59.2031 109.906C57.901 108.625 56.2552 107.984 54.2656 107.984Z" fill="#666666"/>
    <path d="M26.9375 112.531C26.9375 112.01 27.026 111.542 27.2031 111.125C27.3802 110.708 27.625 110.354 27.9375 110.062C28.2604 109.76 28.6406 109.531 29.0781 109.375C29.5156 109.219 29.9948 109.141 30.5156 109.141C31.026 109.141 31.5 109.219 31.9375 109.375C32.375 109.531 32.75 109.76 33.0625 110.062C33.3854 110.354 33.6354 110.708 33.8125 111.125C33.9896 111.542 34.0781 112.01 34.0781 112.531C34.0781 113.052 33.9896 113.521 33.8125 113.938C33.6354 114.354 33.3854 114.714 33.0625 115.016C32.75 115.307 32.375 115.536 31.9375 115.703C31.5 115.859 31.026 115.938 30.5156 115.938C29.9948 115.938 29.5156 115.859 29.0781 115.703C28.6406 115.536 28.2604 115.307 27.9375 115.016C27.625 114.714 27.3802 114.354 27.2031 113.938C27.026 113.521 26.9375 113.052 26.9375 112.531ZM28.3281 122.484V121.562H30.9219V118.609H28.5625V117.688H38.5781V118.609H36.5V121.562H38.8125V122.484H28.3281ZM27.9688 112.531C27.9688 112.917 28.0312 113.266 28.1562 113.578C28.2812 113.88 28.4583 114.141 28.6875 114.359C28.9167 114.568 29.1875 114.729 29.5 114.844C29.8125 114.958 30.151 115.016 30.5156 115.016C30.8802 115.016 31.2135 114.958 31.5156 114.844C31.8281 114.729 32.099 114.568 32.3281 114.359C32.5573 114.141 32.7344 113.88 32.8594 113.578C32.9844 113.266 33.0469 112.917 33.0469 112.531C33.0469 112.146 32.9844 111.802 32.8594 111.5C32.7344 111.188 32.5573 110.927 32.3281 110.719C32.099 110.51 31.8281 110.349 31.5156 110.234C31.2135 110.12 30.8802 110.062 30.5156 110.062C30.151 110.062 29.8125 110.12 29.5 110.234C29.1875 110.349 28.9167 110.51 28.6875 110.719C28.4583 110.927 28.2812 111.188 28.1562 111.5C28.0312 111.802 27.9688 112.146 27.9688 112.531ZM37.2656 116.688V108.75H38.3438V112.422H40.9219V113.344H38.3438V116.688H37.2656ZM31.8906 121.562H35.5312V118.609H31.8906V121.562Z" fill="#666666"/>
    <path d="M54.1562 139.281C54.9479 139.281 55.6198 139.49 56.1719 139.906C56.724 140.323 57 140.932 57 141.734C57 142.214 56.849 142.698 56.5469 143.188C56.2552 143.667 55.7812 144.203 55.125 144.797C54.9375 144.974 54.4688 145.354 53.7188 145.938C52.9792 146.51 52.4844 146.917 52.2344 147.156H57.1406V147.984H51.1562V147C51.3542 146.812 51.849 146.411 52.6406 145.797C53.4323 145.182 54.0052 144.703 54.3594 144.359C55.0781 143.651 55.5365 143.104 55.7344 142.719C55.9427 142.333 56.0469 142.016 56.0469 141.766C56.0469 141.276 55.8646 140.875 55.5 140.562C55.1458 140.25 54.6927 140.094 54.1406 140.094C53.7448 140.094 53.3281 140.182 52.8906 140.359C52.4531 140.526 52.0469 140.714 51.6719 140.922L51.5156 140.078C51.8802 139.901 52.2812 139.724 52.7188 139.547C53.1562 139.37 53.6354 139.281 54.1562 139.281ZM54.2656 136.359C56.526 136.359 58.349 137.073 59.7344 138.5C61.1198 139.927 61.8125 141.698 61.8125 143.812C61.8125 145.948 61.1302 147.724 59.7656 149.141C58.4115 150.568 56.5781 151.281 54.2656 151.281C52.0052 151.281 50.1823 150.568 48.7969 149.141C47.4219 147.724 46.7344 145.948 46.7344 143.812C46.7344 141.698 47.4271 139.927 48.8125 138.5C50.1979 137.073 52.0156 136.359 54.2656 136.359ZM54.2656 136.984C52.276 136.984 50.6302 137.63 49.3281 138.922C48.026 140.214 47.375 141.854 47.375 143.844C47.375 145.76 48 147.38 49.25 148.703C50.5 150.016 52.1719 150.672 54.2656 150.672C56.3698 150.672 58.0469 150.01 59.2969 148.688C60.5469 147.354 61.1719 145.74 61.1719 143.844C61.1719 141.833 60.5156 140.188 59.2031 138.906C57.901 137.625 56.2552 136.984 54.2656 136.984Z" fill="#666666"/>
    <path d="M28.7344 141.078C28.7344 140.641 28.8385 140.24 29.0469 139.875C29.2656 139.5 29.5885 139.182 30.0156 138.922C30.4427 138.651 30.9792 138.443 31.625 138.297C32.2708 138.151 33.026 138.078 33.8906 138.078C34.7448 138.078 35.4948 138.151 36.1406 138.297C36.7865 138.443 37.3229 138.651 37.75 138.922C38.1875 139.182 38.5104 139.5 38.7188 139.875C38.9375 140.24 39.0469 140.641 39.0469 141.078C39.0469 141.516 38.9375 141.922 38.7188 142.297C38.5104 142.661 38.1875 142.979 37.75 143.25C37.3229 143.51 36.7865 143.714 36.1406 143.859C35.4948 144.005 34.7448 144.078 33.8906 144.078C33.026 144.078 32.2708 144.005 31.625 143.859C30.9792 143.714 30.4427 143.51 30.0156 143.25C29.5885 142.979 29.2656 142.661 29.0469 142.297C28.8385 141.922 28.7344 141.516 28.7344 141.078ZM29.75 141.078C29.75 141.714 30.099 142.229 30.7969 142.625C31.4948 143.01 32.526 143.203 33.8906 143.203C35.2552 143.203 36.2865 143.01 36.9844 142.625C37.6823 142.229 38.0312 141.714 38.0312 141.078C38.0312 140.443 37.6823 139.927 36.9844 139.531C36.2865 139.135 35.2552 138.938 33.8906 138.938C32.526 138.938 31.4948 139.135 30.7969 139.531C30.099 139.927 29.75 140.443 29.75 141.078ZM33.3438 151.312V146.922H27.4062V145.984H40.375V146.922H34.4219V151.312H33.3438Z" fill="#666666"/>
    <path d="M51.9531 168.312L54.1406 166.5H54.9062V175.438H54.0156V167.578L52.4844 168.922L51.9531 168.312ZM54.2656 163.359C56.526 163.359 58.349 164.073 59.7344 165.5C61.1198 166.927 61.8125 168.698 61.8125 170.812C61.8125 172.948 61.1302 174.724 59.7656 176.141C58.4115 177.568 56.5781 178.281 54.2656 178.281C52.0052 178.281 50.1823 177.568 48.7969 176.141C47.4219 174.724 46.7344 172.948 46.7344 170.812C46.7344 168.698 47.4271 166.927 48.8125 165.5C50.1979 164.073 52.0156 163.359 54.2656 163.359ZM54.2656 163.984C52.276 163.984 50.6302 164.63 49.3281 165.922C48.026 167.214 47.375 168.854 47.375 170.844C47.375 172.76 48 174.38 49.25 175.703C50.5 177.016 52.1719 177.672 54.2656 177.672C56.3698 177.672 58.0469 177.01 59.2969 175.688C60.5469 174.354 61.1719 172.74 61.1719 170.844C61.1719 168.833 60.5156 167.188 59.2031 165.906C57.901 164.625 56.2552 163.984 54.2656 163.984Z" fill="#666666"/>
    <path d="M37.1875 178.156V175.625C36.2812 175.823 35.2656 175.958 34.1406 176.031C33.026 176.094 31.8177 176.125 30.5156 176.125H26.625V175.203H30.5312H31.0312V172.172H32.1094V175.188C33.026 175.167 33.9115 175.125 34.7656 175.062C35.6302 174.99 36.4375 174.865 37.1875 174.688V164.75H38.2656V170.453H41V171.375H38.2656V178.156H37.1875ZM31.4375 168.938C31.4271 169.01 31.3906 169.141 31.3281 169.328C31.2656 169.505 31.1927 169.667 31.1094 169.812C30.8594 170.24 30.4896 170.667 30 171.094C29.5208 171.521 28.8594 171.969 28.0156 172.438L27.3281 171.656C28.026 171.312 28.6094 170.948 29.0781 170.562C29.5573 170.177 29.9427 169.781 30.2344 169.375C30.526 168.969 30.7292 168.568 30.8438 168.172C30.9688 167.776 31.0312 167.401 31.0312 167.047V166.609H27.7188V165.688H35.4531V166.609H32.1094V167.047C32.1094 167.38 32.1719 167.745 32.2969 168.141C32.4219 168.526 32.6302 168.917 32.9219 169.312C33.2135 169.698 33.5938 170.073 34.0625 170.438C34.5312 170.792 35.1094 171.099 35.7969 171.359L35.2031 172.203C34.3594 171.839 33.6823 171.443 33.1719 171.016C32.6719 170.578 32.2969 170.161 32.0469 169.766C31.9531 169.62 31.8698 169.464 31.7969 169.297C31.7344 169.13 31.6979 169.01 31.6875 168.938H31.4375Z" fill="#666666"/>
    <path d="M246.5 136C251.194 136 255 139.806 255 144.5C255 149.194 251.194 153 246.5 153L68 153L68 136L246.5 136Z" fill="#D9D9D9"/>
    <path d="M235.5 164C240.194 164 244 167.806 244 172.5C244 177.194 240.194 181 235.5 181L68 181L68 164L235.5 164Z" fill="#D9D9D9"/>
    <path d="M264.5 108C269.194 108 273 111.806 273 116.5C273 121.194 269.194 125 264.5 125L68 125L68 108L264.5 108Z" fill="#D9D9D9"/>
    <path d="M178.5 80C183.194 80 187 83.8056 187 88.5C187 93.1944 183.194 97 178.5 97L68 97L68 80L178.5 80Z" fill="#D9D9D9"/>
    <path d="M255.5 52C260.194 52 264 55.8056 264 60.5C264 65.1944 260.194 69 255.5 69L68 69L68 52L255.5 52Z" fill="#D9D9D9"/>
    <path d="M150.5 24C155.194 24 159 27.8056 159 32.5C159 37.1944 155.194 41 150.5 41L68 41L68 24L150.5 24Z" fill="#D9D9D9"/>
    <path d="M127.297 37.3574C127.671 37.3574 127.994 37.2891 128.268 37.1523C128.55 37.0156 128.783 36.8333 128.965 36.6055C129.147 36.3685 129.284 36.0951 129.375 35.7852C129.466 35.4753 129.512 35.1471 129.512 34.8008C129.512 34.4544 129.466 34.1354 129.375 33.8438C129.284 33.5521 129.147 33.3014 128.965 33.0918C128.792 32.8822 128.568 32.7227 128.295 32.6133C128.031 32.4948 127.716 32.4355 127.352 32.4355C127.115 32.4355 126.887 32.472 126.668 32.5449C126.458 32.6087 126.267 32.7044 126.094 32.832C125.921 32.9596 125.77 33.1191 125.643 33.3105C125.524 33.4928 125.438 33.6979 125.383 33.9258H124.453L124.672 28.293H130.004V29.1406H125.547L125.383 32.5996L125.41 32.627C125.684 32.3079 125.998 32.0618 126.354 31.8887C126.709 31.7064 127.105 31.6152 127.543 31.6152C127.999 31.6152 128.409 31.7018 128.773 31.875C129.138 32.0482 129.448 32.2852 129.703 32.5859C129.958 32.8776 130.154 33.2194 130.291 33.6113C130.428 33.9941 130.496 34.4043 130.496 34.8418C130.496 35.3066 130.423 35.7441 130.277 36.1543C130.132 36.5553 129.926 36.9108 129.662 37.2207C129.398 37.5215 129.07 37.7585 128.678 37.9316C128.295 38.1048 127.867 38.1914 127.393 38.1914C126.809 38.1914 126.299 38.1276 125.861 38C125.424 37.8815 125.041 37.7585 124.713 37.6309L124.754 36.7148C124.909 36.7969 125.087 36.8789 125.287 36.9609C125.497 37.0339 125.711 37.1022 125.93 37.166C126.158 37.2207 126.39 37.2663 126.627 37.3027C126.864 37.3392 127.087 37.3574 127.297 37.3574ZM135.117 37.3574C135.491 37.3574 135.814 37.2891 136.088 37.1523C136.37 37.0156 136.603 36.8333 136.785 36.6055C136.967 36.3685 137.104 36.0951 137.195 35.7852C137.286 35.4753 137.332 35.1471 137.332 34.8008C137.332 34.4544 137.286 34.1354 137.195 33.8438C137.104 33.5521 136.967 33.3014 136.785 33.0918C136.612 32.8822 136.389 32.7227 136.115 32.6133C135.851 32.4948 135.536 32.4355 135.172 32.4355C134.935 32.4355 134.707 32.472 134.488 32.5449C134.279 32.6087 134.087 32.7044 133.914 32.832C133.741 32.9596 133.59 33.1191 133.463 33.3105C133.344 33.4928 133.258 33.6979 133.203 33.9258H132.273L132.492 28.293H137.824V29.1406H133.367L133.203 32.5996L133.23 32.627C133.504 32.3079 133.818 32.0618 134.174 31.8887C134.529 31.7064 134.926 31.6152 135.363 31.6152C135.819 31.6152 136.229 31.7018 136.594 31.875C136.958 32.0482 137.268 32.2852 137.523 32.5859C137.779 32.8776 137.975 33.2194 138.111 33.6113C138.248 33.9941 138.316 34.4043 138.316 34.8418C138.316 35.3066 138.243 35.7441 138.098 36.1543C137.952 36.5553 137.747 36.9108 137.482 37.2207C137.218 37.5215 136.89 37.7585 136.498 37.9316C136.115 38.1048 135.687 38.1914 135.213 38.1914C134.63 38.1914 134.119 38.1276 133.682 38C133.244 37.8815 132.861 37.7585 132.533 37.6309L132.574 36.7148C132.729 36.7969 132.907 36.8789 133.107 36.9609C133.317 37.0339 133.531 37.1022 133.75 37.166C133.978 37.2207 134.21 37.2663 134.447 37.3027C134.684 37.3392 134.908 37.3574 135.117 37.3574Z" fill="#333333"/>
    <path d="M224.36 57.7129L226.417 55.999H227.153V65H226.328V57.0146L224.855 58.2969L224.36 57.7129ZM232.752 56.5703C232.43 56.5703 232.155 56.6338 231.927 56.7607C231.707 56.8877 231.516 57.0612 231.355 57.2812C231.203 57.4928 231.08 57.734 230.987 58.0049C230.903 58.2757 230.835 58.555 230.784 58.8428C230.733 59.1221 230.7 59.4014 230.683 59.6807C230.674 59.96 230.67 60.2096 230.67 60.4297C230.67 60.7682 230.687 61.1576 230.721 61.5977C230.763 62.0378 230.852 62.4567 230.987 62.8545C231.131 63.2523 231.339 63.5908 231.609 63.8701C231.889 64.141 232.27 64.2764 232.752 64.2764C233.226 64.2764 233.603 64.141 233.882 63.8701C234.161 63.5908 234.368 63.2523 234.504 62.8545C234.648 62.4567 234.737 62.0378 234.771 61.5977C234.813 61.1576 234.834 60.7682 234.834 60.4297C234.834 60.2096 234.826 59.96 234.809 59.6807C234.8 59.4014 234.771 59.1221 234.72 58.8428C234.669 58.555 234.597 58.2757 234.504 58.0049C234.411 57.734 234.288 57.4928 234.136 57.2812C233.983 57.0612 233.793 56.8877 233.564 56.7607C233.336 56.6338 233.065 56.5703 232.752 56.5703ZM232.752 55.8086C233.361 55.8086 233.861 55.944 234.25 56.2148C234.639 56.4772 234.944 56.8242 235.164 57.2559C235.384 57.6875 235.532 58.1826 235.608 58.7412C235.693 59.2913 235.735 59.8542 235.735 60.4297C235.735 61.0052 235.693 61.568 235.608 62.1182C235.532 62.6683 235.384 63.1634 235.164 63.6035C234.944 64.0436 234.639 64.3991 234.25 64.6699C233.861 64.9323 233.361 65.0635 232.752 65.0635C232.134 65.0635 231.631 64.9323 231.241 64.6699C230.852 64.3991 230.547 64.0436 230.327 63.6035C230.107 63.1634 229.955 62.6683 229.87 62.1182C229.794 61.568 229.756 61.0052 229.756 60.4297C229.756 59.8542 229.794 59.2913 229.87 58.7412C229.955 58.1826 230.107 57.6875 230.327 57.2559C230.547 56.8242 230.852 56.4772 231.241 56.2148C231.631 55.944 232.134 55.8086 232.752 55.8086ZM240.255 56.5703C239.933 56.5703 239.658 56.6338 239.43 56.7607C239.21 56.8877 239.019 57.0612 238.858 57.2812C238.706 57.4928 238.583 57.734 238.49 58.0049C238.406 58.2757 238.338 58.555 238.287 58.8428C238.236 59.1221 238.202 59.4014 238.186 59.6807C238.177 59.96 238.173 60.2096 238.173 60.4297C238.173 60.7682 238.19 61.1576 238.224 61.5977C238.266 62.0378 238.355 62.4567 238.49 62.8545C238.634 63.2523 238.841 63.5908 239.112 63.8701C239.392 64.141 239.772 64.2764 240.255 64.2764C240.729 64.2764 241.105 64.141 241.385 63.8701C241.664 63.5908 241.871 63.2523 242.007 62.8545C242.151 62.4567 242.24 62.0378 242.273 61.5977C242.316 61.1576 242.337 60.7682 242.337 60.4297C242.337 60.2096 242.328 59.96 242.312 59.6807C242.303 59.4014 242.273 59.1221 242.223 58.8428C242.172 58.555 242.1 58.2757 242.007 58.0049C241.914 57.734 241.791 57.4928 241.639 57.2812C241.486 57.0612 241.296 56.8877 241.067 56.7607C240.839 56.6338 240.568 56.5703 240.255 56.5703ZM240.255 55.8086C240.864 55.8086 241.364 55.944 241.753 56.2148C242.142 56.4772 242.447 56.8242 242.667 57.2559C242.887 57.6875 243.035 58.1826 243.111 58.7412C243.196 59.2913 243.238 59.8542 243.238 60.4297C243.238 61.0052 243.196 61.568 243.111 62.1182C243.035 62.6683 242.887 63.1634 242.667 63.6035C242.447 64.0436 242.142 64.3991 241.753 64.6699C241.364 64.9323 240.864 65.0635 240.255 65.0635C239.637 65.0635 239.133 64.9323 238.744 64.6699C238.355 64.3991 238.05 64.0436 237.83 63.6035C237.61 63.1634 237.458 62.6683 237.373 62.1182C237.297 61.568 237.259 61.0052 237.259 60.4297C237.259 59.8542 237.297 59.2913 237.373 58.7412C237.458 58.1826 237.61 57.6875 237.83 57.2559C238.05 56.8242 238.355 56.4772 238.744 56.2148C239.133 55.944 239.637 55.8086 240.255 55.8086Z" fill="#333333"/>
    <path d="M156.603 84.5703C156.061 84.5703 155.617 84.6973 155.27 84.9512C154.931 85.1966 154.66 85.5182 154.457 85.916C154.262 86.3053 154.127 86.7412 154.051 87.2236C153.983 87.6976 153.949 88.1631 153.949 88.6201H153.975C154.178 88.1292 154.491 87.7611 154.914 87.5156C155.337 87.2702 155.815 87.1475 156.349 87.1475C156.789 87.1475 157.178 87.2236 157.517 87.376C157.864 87.5199 158.156 87.7272 158.393 87.998C158.63 88.2604 158.807 88.5736 158.926 88.9375C159.044 89.3014 159.104 89.6992 159.104 90.1309C159.104 90.5625 159.036 90.9645 158.9 91.3369C158.773 91.7008 158.587 92.0225 158.342 92.3018C158.105 92.5726 157.809 92.7884 157.453 92.9492C157.106 93.1016 156.713 93.1777 156.272 93.1777C155.646 93.1777 155.126 93.0592 154.711 92.8223C154.296 92.5853 153.966 92.2721 153.721 91.8828C153.475 91.485 153.302 91.0322 153.2 90.5244C153.099 90.0166 153.048 89.4919 153.048 88.9502C153.048 88.3747 153.094 87.7822 153.188 87.1729C153.281 86.5635 153.458 86.0091 153.721 85.5098C153.983 85.0104 154.339 84.6042 154.787 84.291C155.244 83.9694 155.837 83.8086 156.564 83.8086C156.988 83.8086 157.364 83.8467 157.694 83.9229C158.033 83.999 158.325 84.071 158.57 84.1387L158.431 84.9385C158.338 84.8877 158.219 84.8411 158.075 84.7988C157.94 84.748 157.787 84.71 157.618 84.6846C157.457 84.6507 157.288 84.6253 157.11 84.6084C156.933 84.583 156.763 84.5703 156.603 84.5703ZM156.311 87.8711C155.955 87.8711 155.638 87.9346 155.358 88.0615C155.088 88.18 154.859 88.3451 154.673 88.5566C154.487 88.7682 154.347 89.0179 154.254 89.3057C154.161 89.5934 154.114 89.9066 154.114 90.2451C154.114 90.5329 154.165 90.8079 154.267 91.0703C154.368 91.3242 154.508 91.5527 154.686 91.7559C154.863 91.9505 155.075 92.1071 155.32 92.2256C155.566 92.3441 155.837 92.4033 156.133 92.4033C156.463 92.4033 156.755 92.3483 157.009 92.2383C157.271 92.1283 157.487 91.9759 157.656 91.7812C157.834 91.5781 157.965 91.3411 158.05 91.0703C158.143 90.7995 158.189 90.5033 158.189 90.1816C158.189 89.8854 158.151 89.6019 158.075 89.3311C158.007 89.0518 157.897 88.8063 157.745 88.5947C157.593 88.3747 157.398 88.2012 157.161 88.0742C156.924 87.9388 156.641 87.8711 156.311 87.8711ZM163.395 92.4033C163.742 92.4033 164.042 92.3398 164.296 92.2129C164.558 92.0859 164.774 91.9167 164.943 91.7051C165.113 91.485 165.24 91.2311 165.324 90.9434C165.409 90.6556 165.451 90.3509 165.451 90.0293C165.451 89.7077 165.409 89.4115 165.324 89.1406C165.24 88.8698 165.113 88.637 164.943 88.4424C164.783 88.2477 164.575 88.0996 164.321 87.998C164.076 87.888 163.784 87.833 163.445 87.833C163.225 87.833 163.014 87.8669 162.811 87.9346C162.616 87.9938 162.438 88.0827 162.277 88.2012C162.117 88.3197 161.977 88.4678 161.858 88.6455C161.748 88.8148 161.668 89.0052 161.617 89.2168H160.754L160.957 83.9863H165.908V84.7734H161.77L161.617 87.9854L161.643 88.0107C161.896 87.7145 162.188 87.486 162.519 87.3252C162.849 87.1559 163.217 87.0713 163.623 87.0713C164.046 87.0713 164.427 87.1517 164.766 87.3125C165.104 87.4733 165.392 87.6934 165.629 87.9727C165.866 88.2435 166.048 88.5609 166.175 88.9248C166.302 89.2803 166.365 89.6611 166.365 90.0674C166.365 90.499 166.298 90.9053 166.162 91.2861C166.027 91.6585 165.836 91.9886 165.591 92.2764C165.345 92.5557 165.041 92.7757 164.677 92.9365C164.321 93.0973 163.924 93.1777 163.483 93.1777C162.942 93.1777 162.468 93.1185 162.062 93C161.655 92.89 161.3 92.7757 160.995 92.6572L161.033 91.8066C161.177 91.8828 161.342 91.959 161.528 92.0352C161.723 92.1029 161.922 92.1663 162.125 92.2256C162.337 92.2764 162.552 92.3187 162.772 92.3525C162.993 92.3864 163.2 92.4033 163.395 92.4033Z" fill="#333333"/>
    <path d="M233.602 113.713L235.658 111.999H236.395V121H235.569V113.015L234.097 114.297L233.602 113.713ZM241.993 112.57C241.672 112.57 241.396 112.634 241.168 112.761C240.948 112.888 240.757 113.061 240.597 113.281C240.444 113.493 240.322 113.734 240.229 114.005C240.144 114.276 240.076 114.555 240.025 114.843C239.975 115.122 239.941 115.401 239.924 115.681C239.915 115.96 239.911 116.21 239.911 116.43C239.911 116.768 239.928 117.158 239.962 117.598C240.004 118.038 240.093 118.457 240.229 118.854C240.372 119.252 240.58 119.591 240.851 119.87C241.13 120.141 241.511 120.276 241.993 120.276C242.467 120.276 242.844 120.141 243.123 119.87C243.402 119.591 243.61 119.252 243.745 118.854C243.889 118.457 243.978 118.038 244.012 117.598C244.054 117.158 244.075 116.768 244.075 116.43C244.075 116.21 244.067 115.96 244.05 115.681C244.041 115.401 244.012 115.122 243.961 114.843C243.91 114.555 243.838 114.276 243.745 114.005C243.652 113.734 243.529 113.493 243.377 113.281C243.225 113.061 243.034 112.888 242.806 112.761C242.577 112.634 242.306 112.57 241.993 112.57ZM241.993 111.809C242.603 111.809 243.102 111.944 243.491 112.215C243.881 112.477 244.185 112.824 244.405 113.256C244.625 113.688 244.773 114.183 244.85 114.741C244.934 115.291 244.977 115.854 244.977 116.43C244.977 117.005 244.934 117.568 244.85 118.118C244.773 118.668 244.625 119.163 244.405 119.604C244.185 120.044 243.881 120.399 243.491 120.67C243.102 120.932 242.603 121.063 241.993 121.063C241.375 121.063 240.872 120.932 240.482 120.67C240.093 120.399 239.788 120.044 239.568 119.604C239.348 119.163 239.196 118.668 239.111 118.118C239.035 117.568 238.997 117.005 238.997 116.43C238.997 115.854 239.035 115.291 239.111 114.741C239.196 114.183 239.348 113.688 239.568 113.256C239.788 112.824 240.093 112.477 240.482 112.215C240.872 111.944 241.375 111.809 241.993 111.809ZM249.395 120.403C249.742 120.403 250.042 120.34 250.296 120.213C250.558 120.086 250.774 119.917 250.943 119.705C251.113 119.485 251.24 119.231 251.324 118.943C251.409 118.656 251.451 118.351 251.451 118.029C251.451 117.708 251.409 117.411 251.324 117.141C251.24 116.87 251.113 116.637 250.943 116.442C250.783 116.248 250.575 116.1 250.321 115.998C250.076 115.888 249.784 115.833 249.445 115.833C249.225 115.833 249.014 115.867 248.811 115.935C248.616 115.994 248.438 116.083 248.277 116.201C248.117 116.32 247.977 116.468 247.858 116.646C247.748 116.815 247.668 117.005 247.617 117.217H246.754L246.957 111.986H251.908V112.773H247.77L247.617 115.985L247.643 116.011C247.896 115.715 248.188 115.486 248.519 115.325C248.849 115.156 249.217 115.071 249.623 115.071C250.046 115.071 250.427 115.152 250.766 115.312C251.104 115.473 251.392 115.693 251.629 115.973C251.866 116.243 252.048 116.561 252.175 116.925C252.302 117.28 252.365 117.661 252.365 118.067C252.365 118.499 252.298 118.905 252.162 119.286C252.027 119.659 251.836 119.989 251.591 120.276C251.345 120.556 251.041 120.776 250.677 120.937C250.321 121.097 249.924 121.178 249.483 121.178C248.942 121.178 248.468 121.118 248.062 121C247.655 120.89 247.3 120.776 246.995 120.657L247.033 119.807C247.177 119.883 247.342 119.959 247.528 120.035C247.723 120.103 247.922 120.166 248.125 120.226C248.337 120.276 248.552 120.319 248.772 120.353C248.993 120.386 249.2 120.403 249.395 120.403Z" fill="#333333"/>
    <path d="M223.371 149.276C223.887 149.243 224.306 149.082 224.628 148.794C224.958 148.498 225.216 148.142 225.402 147.728C225.589 147.313 225.715 146.877 225.783 146.42C225.851 145.954 225.885 145.535 225.885 145.163H225.859C225.639 145.595 225.318 145.933 224.895 146.179C224.471 146.416 223.997 146.534 223.473 146.534C223.066 146.534 222.694 146.466 222.355 146.331C222.017 146.187 221.725 145.993 221.479 145.747C221.243 145.493 221.056 145.197 220.921 144.858C220.785 144.511 220.718 144.135 220.718 143.729C220.718 143.297 220.785 142.903 220.921 142.548C221.056 142.192 221.247 141.888 221.492 141.634C221.746 141.371 222.051 141.168 222.406 141.024C222.762 140.881 223.155 140.809 223.587 140.809C224.239 140.809 224.772 140.936 225.187 141.189C225.601 141.443 225.927 141.778 226.164 142.192C226.401 142.607 226.562 143.081 226.646 143.614C226.74 144.139 226.786 144.681 226.786 145.239C226.786 145.849 226.718 146.441 226.583 147.017C226.456 147.592 226.24 148.108 225.936 148.565C225.631 149.014 225.233 149.378 224.742 149.657C224.251 149.928 223.646 150.063 222.927 150.063C222.571 150.063 222.237 150.017 221.924 149.924C221.619 149.831 221.369 149.75 221.175 149.683L221.314 148.896C221.501 148.98 221.78 149.073 222.152 149.175C222.533 149.268 222.939 149.302 223.371 149.276ZM223.6 141.57C223.27 141.57 222.978 141.63 222.724 141.748C222.478 141.858 222.275 142.015 222.114 142.218C221.953 142.421 221.831 142.658 221.746 142.929C221.67 143.2 221.632 143.492 221.632 143.805C221.632 144.397 221.801 144.88 222.14 145.252C222.487 145.624 222.956 145.811 223.549 145.811C223.862 145.811 224.15 145.76 224.412 145.658C224.683 145.548 224.911 145.4 225.098 145.214C225.292 145.028 225.445 144.803 225.555 144.541C225.665 144.279 225.72 143.991 225.72 143.678C225.72 143.373 225.665 143.094 225.555 142.84C225.453 142.577 225.309 142.353 225.123 142.167C224.937 141.981 224.713 141.837 224.45 141.735C224.196 141.625 223.913 141.57 223.6 141.57ZM231.395 149.403C231.742 149.403 232.042 149.34 232.296 149.213C232.558 149.086 232.774 148.917 232.943 148.705C233.113 148.485 233.24 148.231 233.324 147.943C233.409 147.656 233.451 147.351 233.451 147.029C233.451 146.708 233.409 146.411 233.324 146.141C233.24 145.87 233.113 145.637 232.943 145.442C232.783 145.248 232.575 145.1 232.321 144.998C232.076 144.888 231.784 144.833 231.445 144.833C231.225 144.833 231.014 144.867 230.811 144.935C230.616 144.994 230.438 145.083 230.277 145.201C230.117 145.32 229.977 145.468 229.858 145.646C229.748 145.815 229.668 146.005 229.617 146.217H228.754L228.957 140.986H233.908V141.773H229.77L229.617 144.985L229.643 145.011C229.896 144.715 230.188 144.486 230.519 144.325C230.849 144.156 231.217 144.071 231.623 144.071C232.046 144.071 232.427 144.152 232.766 144.312C233.104 144.473 233.392 144.693 233.629 144.973C233.866 145.243 234.048 145.561 234.175 145.925C234.302 146.28 234.365 146.661 234.365 147.067C234.365 147.499 234.298 147.905 234.162 148.286C234.027 148.659 233.836 148.989 233.591 149.276C233.345 149.556 233.041 149.776 232.677 149.937C232.321 150.097 231.924 150.178 231.483 150.178C230.942 150.178 230.468 150.118 230.062 150C229.655 149.89 229.3 149.776 228.995 149.657L229.033 148.807C229.177 148.883 229.342 148.959 229.528 149.035C229.723 149.103 229.922 149.166 230.125 149.226C230.337 149.276 230.552 149.319 230.772 149.353C230.993 149.386 231.2 149.403 231.395 149.403Z" fill="#333333"/>
    <path d="M210.81 171.208C210.81 171.775 210.992 172.202 211.355 172.49C211.728 172.77 212.202 172.909 212.777 172.909C213.353 172.909 213.827 172.77 214.199 172.49C214.572 172.202 214.758 171.775 214.758 171.208C214.758 170.903 214.699 170.645 214.58 170.434C214.462 170.222 214.309 170.049 214.123 169.913C213.937 169.769 213.725 169.668 213.488 169.608C213.251 169.541 213.014 169.507 212.777 169.507C212.54 169.507 212.303 169.541 212.066 169.608C211.829 169.668 211.618 169.769 211.432 169.913C211.245 170.049 211.093 170.222 210.975 170.434C210.865 170.645 210.81 170.903 210.81 171.208ZM210.594 175.575C210.594 175.897 210.653 176.176 210.771 176.413C210.898 176.642 211.063 176.832 211.267 176.984C211.47 177.128 211.702 177.234 211.965 177.302C212.227 177.369 212.498 177.403 212.777 177.403C213.057 177.403 213.327 177.369 213.59 177.302C213.852 177.234 214.085 177.128 214.288 176.984C214.491 176.832 214.652 176.642 214.771 176.413C214.897 176.176 214.961 175.897 214.961 175.575C214.961 175.262 214.897 174.987 214.771 174.75C214.652 174.513 214.491 174.318 214.288 174.166C214.085 174.005 213.852 173.887 213.59 173.811C213.327 173.734 213.057 173.696 212.777 173.696C212.498 173.696 212.227 173.734 211.965 173.811C211.702 173.887 211.47 174.005 211.267 174.166C211.063 174.318 210.898 174.513 210.771 174.75C210.653 174.987 210.594 175.262 210.594 175.575ZM213.869 173.315C214.479 173.476 214.965 173.743 215.329 174.115C215.693 174.488 215.875 174.974 215.875 175.575C215.875 176.032 215.782 176.426 215.596 176.756C215.418 177.086 215.181 177.357 214.885 177.568C214.597 177.771 214.267 177.924 213.895 178.025C213.531 178.127 213.158 178.178 212.777 178.178C212.405 178.178 212.033 178.127 211.66 178.025C211.296 177.924 210.966 177.771 210.67 177.568C210.382 177.357 210.145 177.086 209.959 176.756C209.781 176.426 209.692 176.032 209.692 175.575C209.692 174.991 209.874 174.509 210.238 174.128C210.611 173.747 211.102 173.476 211.711 173.315V173.29C211.465 173.231 211.233 173.142 211.013 173.023C210.801 172.896 210.615 172.744 210.454 172.566C210.302 172.389 210.179 172.186 210.086 171.957C210.001 171.729 209.959 171.479 209.959 171.208C209.959 170.793 210.039 170.438 210.2 170.142C210.369 169.837 210.585 169.587 210.848 169.393C211.118 169.189 211.419 169.041 211.749 168.948C212.088 168.855 212.43 168.809 212.777 168.809C213.124 168.809 213.467 168.855 213.806 168.948C214.144 169.041 214.445 169.189 214.707 169.393C214.978 169.587 215.194 169.837 215.354 170.142C215.524 170.438 215.608 170.793 215.608 171.208C215.608 171.767 215.443 172.224 215.113 172.579C214.783 172.935 214.368 173.172 213.869 173.29V173.315ZM220.395 177.403C220.742 177.403 221.042 177.34 221.296 177.213C221.558 177.086 221.774 176.917 221.943 176.705C222.113 176.485 222.24 176.231 222.324 175.943C222.409 175.656 222.451 175.351 222.451 175.029C222.451 174.708 222.409 174.411 222.324 174.141C222.24 173.87 222.113 173.637 221.943 173.442C221.783 173.248 221.575 173.1 221.321 172.998C221.076 172.888 220.784 172.833 220.445 172.833C220.225 172.833 220.014 172.867 219.811 172.935C219.616 172.994 219.438 173.083 219.277 173.201C219.117 173.32 218.977 173.468 218.858 173.646C218.748 173.815 218.668 174.005 218.617 174.217H217.754L217.957 168.986H222.908V169.773H218.77L218.617 172.985L218.643 173.011C218.896 172.715 219.188 172.486 219.519 172.325C219.849 172.156 220.217 172.071 220.623 172.071C221.046 172.071 221.427 172.152 221.766 172.312C222.104 172.473 222.392 172.693 222.629 172.973C222.866 173.243 223.048 173.561 223.175 173.925C223.302 174.28 223.365 174.661 223.365 175.067C223.365 175.499 223.298 175.905 223.162 176.286C223.027 176.659 222.836 176.989 222.591 177.276C222.345 177.556 222.041 177.776 221.677 177.937C221.321 178.097 220.924 178.178 220.483 178.178C219.942 178.178 219.468 178.118 219.062 178C218.655 177.89 218.3 177.776 217.995 177.657L218.033 176.807C218.177 176.883 218.342 176.959 218.528 177.035C218.723 177.103 218.922 177.166 219.125 177.226C219.337 177.276 219.552 177.319 219.772 177.353C219.993 177.386 220.2 177.403 220.395 177.403Z" fill="#333333"/>
    <line x1="67.5" y1="24.0001" x2="67.5" y2="182" stroke="#666666"/>
    <line x1="307" y1="181" x2="307" y2="24" stroke="#DDDDDD" stroke-width="2" stroke-dasharray="5 5"/>
    <path d="M76.5312 194.625C76.1354 194.625 75.7969 194.703 75.5156 194.859C75.2448 195.016 75.0104 195.229 74.8125 195.5C74.625 195.76 74.474 196.057 74.3594 196.391C74.2552 196.724 74.1719 197.068 74.1094 197.422C74.0469 197.766 74.0052 198.109 73.9844 198.453C73.974 198.797 73.9688 199.104 73.9688 199.375C73.9688 199.792 73.9896 200.271 74.0312 200.812C74.0833 201.354 74.1927 201.87 74.3594 202.359C74.5365 202.849 74.7917 203.266 75.125 203.609C75.4688 203.943 75.9375 204.109 76.5312 204.109C77.1146 204.109 77.5781 203.943 77.9219 203.609C78.2656 203.266 78.5208 202.849 78.6875 202.359C78.8646 201.87 78.974 201.354 79.0156 200.812C79.0677 200.271 79.0938 199.792 79.0938 199.375C79.0938 199.104 79.0833 198.797 79.0625 198.453C79.0521 198.109 79.0156 197.766 78.9531 197.422C78.8906 197.068 78.8021 196.724 78.6875 196.391C78.5729 196.057 78.4219 195.76 78.2344 195.5C78.0469 195.229 77.8125 195.016 77.5312 194.859C77.25 194.703 76.9167 194.625 76.5312 194.625ZM76.5312 193.688C77.2812 193.688 77.8958 193.854 78.375 194.188C78.8542 194.51 79.2292 194.938 79.5 195.469C79.7708 196 79.9531 196.609 80.0469 197.297C80.151 197.974 80.2031 198.667 80.2031 199.375C80.2031 200.083 80.151 200.776 80.0469 201.453C79.9531 202.13 79.7708 202.74 79.5 203.281C79.2292 203.823 78.8542 204.26 78.375 204.594C77.8958 204.917 77.2812 205.078 76.5312 205.078C75.7708 205.078 75.151 204.917 74.6719 204.594C74.1927 204.26 73.8177 203.823 73.5469 203.281C73.276 202.74 73.0885 202.13 72.9844 201.453C72.8906 200.776 72.8438 200.083 72.8438 199.375C72.8438 198.667 72.8906 197.974 72.9844 197.297C73.0885 196.609 73.276 196 73.5469 195.469C73.8177 194.938 74.1927 194.51 74.6719 194.188C75.151 193.854 75.7708 193.688 76.5312 193.688ZM83.5156 205.297H81.9219V203.609H83.5156V205.297ZM88.9219 194.625C88.526 194.625 88.1875 194.703 87.9062 194.859C87.6354 195.016 87.401 195.229 87.2031 195.5C87.0156 195.76 86.8646 196.057 86.75 196.391C86.6458 196.724 86.5625 197.068 86.5 197.422C86.4375 197.766 86.3958 198.109 86.375 198.453C86.3646 198.797 86.3594 199.104 86.3594 199.375C86.3594 199.792 86.3802 200.271 86.4219 200.812C86.474 201.354 86.5833 201.87 86.75 202.359C86.9271 202.849 87.1823 203.266 87.5156 203.609C87.8594 203.943 88.3281 204.109 88.9219 204.109C89.5052 204.109 89.9688 203.943 90.3125 203.609C90.6562 203.266 90.9115 202.849 91.0781 202.359C91.2552 201.87 91.3646 201.354 91.4062 200.812C91.4583 200.271 91.4844 199.792 91.4844 199.375C91.4844 199.104 91.474 198.797 91.4531 198.453C91.4427 198.109 91.4062 197.766 91.3438 197.422C91.2812 197.068 91.1927 196.724 91.0781 196.391C90.9635 196.057 90.8125 195.76 90.625 195.5C90.4375 195.229 90.2031 195.016 89.9219 194.859C89.6406 194.703 89.3073 194.625 88.9219 194.625ZM88.9219 193.688C89.6719 193.688 90.2865 193.854 90.7656 194.188C91.2448 194.51 91.6198 194.938 91.8906 195.469C92.1615 196 92.3438 196.609 92.4375 197.297C92.5417 197.974 92.5938 198.667 92.5938 199.375C92.5938 200.083 92.5417 200.776 92.4375 201.453C92.3438 202.13 92.1615 202.74 91.8906 203.281C91.6198 203.823 91.2448 204.26 90.7656 204.594C90.2865 204.917 89.6719 205.078 88.9219 205.078C88.1615 205.078 87.5417 204.917 87.0625 204.594C86.5833 204.26 86.2083 203.823 85.9375 203.281C85.6667 202.74 85.4792 202.13 85.375 201.453C85.2812 200.776 85.2344 200.083 85.2344 199.375C85.2344 198.667 85.2812 197.974 85.375 197.297C85.4792 196.609 85.6667 196 85.9375 195.469C86.2083 194.938 86.5833 194.51 87.0625 194.188C87.5417 193.854 88.1615 193.688 88.9219 193.688ZM98.1562 194.625C97.7604 194.625 97.4219 194.703 97.1406 194.859C96.8698 195.016 96.6354 195.229 96.4375 195.5C96.25 195.76 96.099 196.057 95.9844 196.391C95.8802 196.724 95.7969 197.068 95.7344 197.422C95.6719 197.766 95.6302 198.109 95.6094 198.453C95.599 198.797 95.5938 199.104 95.5938 199.375C95.5938 199.792 95.6146 200.271 95.6562 200.812C95.7083 201.354 95.8177 201.87 95.9844 202.359C96.1615 202.849 96.4167 203.266 96.75 203.609C97.0938 203.943 97.5625 204.109 98.1562 204.109C98.7396 204.109 99.2031 203.943 99.5469 203.609C99.8906 203.266 100.146 202.849 100.312 202.359C100.49 201.87 100.599 201.354 100.641 200.812C100.693 200.271 100.719 199.792 100.719 199.375C100.719 199.104 100.708 198.797 100.688 198.453C100.677 198.109 100.641 197.766 100.578 197.422C100.516 197.068 100.427 196.724 100.312 196.391C100.198 196.057 100.047 195.76 99.8594 195.5C99.6719 195.229 99.4375 195.016 99.1562 194.859C98.875 194.703 98.5417 194.625 98.1562 194.625ZM98.1562 193.688C98.9062 193.688 99.5208 193.854 100 194.188C100.479 194.51 100.854 194.938 101.125 195.469C101.396 196 101.578 196.609 101.672 197.297C101.776 197.974 101.828 198.667 101.828 199.375C101.828 200.083 101.776 200.776 101.672 201.453C101.578 202.13 101.396 202.74 101.125 203.281C100.854 203.823 100.479 204.26 100 204.594C99.5208 204.917 98.9062 205.078 98.1562 205.078C97.3958 205.078 96.776 204.917 96.2969 204.594C95.8177 204.26 95.4427 203.823 95.1719 203.281C94.901 202.74 94.7135 202.13 94.6094 201.453C94.5156 200.776 94.4688 200.083 94.4688 199.375C94.4688 198.667 94.5156 197.974 94.6094 197.297C94.7135 196.609 94.901 196 95.1719 195.469C95.4427 194.938 95.8177 194.51 96.2969 194.188C96.776 193.854 97.3958 193.688 98.1562 193.688ZM107.391 194.625C106.995 194.625 106.656 194.703 106.375 194.859C106.104 195.016 105.87 195.229 105.672 195.5C105.484 195.76 105.333 196.057 105.219 196.391C105.115 196.724 105.031 197.068 104.969 197.422C104.906 197.766 104.865 198.109 104.844 198.453C104.833 198.797 104.828 199.104 104.828 199.375C104.828 199.792 104.849 200.271 104.891 200.812C104.943 201.354 105.052 201.87 105.219 202.359C105.396 202.849 105.651 203.266 105.984 203.609C106.328 203.943 106.797 204.109 107.391 204.109C107.974 204.109 108.438 203.943 108.781 203.609C109.125 203.266 109.38 202.849 109.547 202.359C109.724 201.87 109.833 201.354 109.875 200.812C109.927 200.271 109.953 199.792 109.953 199.375C109.953 199.104 109.943 198.797 109.922 198.453C109.911 198.109 109.875 197.766 109.812 197.422C109.75 197.068 109.661 196.724 109.547 196.391C109.432 196.057 109.281 195.76 109.094 195.5C108.906 195.229 108.672 195.016 108.391 194.859C108.109 194.703 107.776 194.625 107.391 194.625ZM107.391 193.688C108.141 193.688 108.755 193.854 109.234 194.188C109.714 194.51 110.089 194.938 110.359 195.469C110.63 196 110.812 196.609 110.906 197.297C111.01 197.974 111.062 198.667 111.062 199.375C111.062 200.083 111.01 200.776 110.906 201.453C110.812 202.13 110.63 202.74 110.359 203.281C110.089 203.823 109.714 204.26 109.234 204.594C108.755 204.917 108.141 205.078 107.391 205.078C106.63 205.078 106.01 204.917 105.531 204.594C105.052 204.26 104.677 203.823 104.406 203.281C104.135 202.74 103.948 202.13 103.844 201.453C103.75 200.776 103.703 200.083 103.703 199.375C103.703 198.667 103.75 197.974 103.844 197.297C103.948 196.609 104.135 196 104.406 195.469C104.677 194.938 105.052 194.51 105.531 194.188C106.01 193.854 106.63 193.688 107.391 193.688Z" fill="#666666"/>
    <path d="M295.156 196.031L297.688 193.922H298.594V205H297.578V195.172L295.766 196.75L295.156 196.031ZM305.297 193.688C305.745 193.688 306.167 193.745 306.562 193.859C306.969 193.974 307.323 194.151 307.625 194.391C307.927 194.62 308.167 194.917 308.344 195.281C308.521 195.635 308.609 196.052 308.609 196.531C308.609 196.969 308.51 197.417 308.312 197.875C308.125 198.333 307.87 198.797 307.547 199.266C307.234 199.724 306.875 200.182 306.469 200.641C306.073 201.089 305.667 201.521 305.25 201.938C304.844 202.344 304.443 202.729 304.047 203.094C303.661 203.448 303.328 203.76 303.047 204.031H308.766V205H301.797V203.891C302.036 203.672 302.344 203.391 302.719 203.047C303.094 202.693 303.49 202.302 303.906 201.875C304.333 201.438 304.76 200.979 305.188 200.5C305.615 200.021 306 199.547 306.344 199.078C306.688 198.609 306.964 198.161 307.172 197.734C307.391 197.307 307.5 196.927 307.5 196.594C307.5 196.271 307.438 195.99 307.312 195.75C307.198 195.5 307.036 195.292 306.828 195.125C306.63 194.958 306.396 194.833 306.125 194.75C305.854 194.667 305.568 194.625 305.266 194.625C304.807 194.625 304.328 194.724 303.828 194.922C303.328 195.109 302.859 195.328 302.422 195.578L302.234 194.562C302.641 194.365 303.099 194.172 303.609 193.984C304.13 193.786 304.693 193.688 305.297 193.688ZM314.328 194.625C313.932 194.625 313.594 194.703 313.312 194.859C313.042 195.016 312.807 195.229 312.609 195.5C312.422 195.76 312.271 196.057 312.156 196.391C312.052 196.724 311.969 197.068 311.906 197.422C311.844 197.766 311.802 198.109 311.781 198.453C311.771 198.797 311.766 199.104 311.766 199.375C311.766 199.792 311.786 200.271 311.828 200.812C311.88 201.354 311.99 201.87 312.156 202.359C312.333 202.849 312.589 203.266 312.922 203.609C313.266 203.943 313.734 204.109 314.328 204.109C314.911 204.109 315.375 203.943 315.719 203.609C316.062 203.266 316.318 202.849 316.484 202.359C316.661 201.87 316.771 201.354 316.812 200.812C316.865 200.271 316.891 199.792 316.891 199.375C316.891 199.104 316.88 198.797 316.859 198.453C316.849 198.109 316.812 197.766 316.75 197.422C316.688 197.068 316.599 196.724 316.484 196.391C316.37 196.057 316.219 195.76 316.031 195.5C315.844 195.229 315.609 195.016 315.328 194.859C315.047 194.703 314.714 194.625 314.328 194.625ZM314.328 193.688C315.078 193.688 315.693 193.854 316.172 194.188C316.651 194.51 317.026 194.938 317.297 195.469C317.568 196 317.75 196.609 317.844 197.297C317.948 197.974 318 198.667 318 199.375C318 200.083 317.948 200.776 317.844 201.453C317.75 202.13 317.568 202.74 317.297 203.281C317.026 203.823 316.651 204.26 316.172 204.594C315.693 204.917 315.078 205.078 314.328 205.078C313.568 205.078 312.948 204.917 312.469 204.594C311.99 204.26 311.615 203.823 311.344 203.281C311.073 202.74 310.885 202.13 310.781 201.453C310.688 200.776 310.641 200.083 310.641 199.375C310.641 198.667 310.688 197.974 310.781 197.297C310.885 196.609 311.073 196 311.344 195.469C311.615 194.938 311.99 194.51 312.469 194.188C312.948 193.854 313.568 193.688 314.328 193.688Z" fill="#666666"/>
    <line x1="68" y1="181.5" x2="318" y2="181.5" stroke="#666666"/>
    <path d="M296.488 5.64062H298.074C298.348 5.64062 298.63 5.62695 298.922 5.59961C299.214 5.56315 299.478 5.49479 299.715 5.39453C299.961 5.29427 300.161 5.15299 300.316 4.9707C300.471 4.7793 300.549 4.52865 300.549 4.21875C300.549 3.88151 300.471 3.62174 300.316 3.43945C300.161 3.24805 299.965 3.11133 299.729 3.0293C299.501 2.94727 299.25 2.90169 298.977 2.89258C298.712 2.87435 298.466 2.86523 298.238 2.86523H296.488V5.64062ZM300.139 6.14648C300.403 6.19206 300.631 6.29232 300.822 6.44727C301.023 6.5931 301.187 6.76628 301.314 6.9668C301.442 7.1582 301.538 7.36784 301.602 7.5957C301.665 7.81445 301.706 8.01953 301.725 8.21094C301.743 8.47526 301.766 8.75781 301.793 9.05859C301.82 9.35026 301.852 9.62826 301.889 9.89258C301.934 10.1569 301.984 10.3893 302.039 10.5898C302.103 10.7904 302.176 10.9271 302.258 11H300.727C300.645 10.8086 300.581 10.6126 300.535 10.4121C300.49 10.2025 300.453 9.9974 300.426 9.79688C300.398 9.59635 300.376 9.40951 300.357 9.23633C300.348 9.05404 300.335 8.89453 300.316 8.75781C300.271 8.42969 300.225 8.15169 300.18 7.92383C300.134 7.69596 300.057 7.51367 299.947 7.37695C299.838 7.23112 299.688 7.1263 299.496 7.0625C299.305 6.98958 299.045 6.94857 298.717 6.93945H296.488V11H295.094V1.56641H298.443C298.89 1.56641 299.323 1.60742 299.742 1.68945C300.171 1.77148 300.549 1.91276 300.877 2.11328C301.214 2.3138 301.483 2.57812 301.684 2.90625C301.884 3.23438 301.984 3.64453 301.984 4.13672C301.984 4.42839 301.925 4.69271 301.807 4.92969C301.688 5.15755 301.538 5.35352 301.355 5.51758C301.173 5.68164 300.973 5.8138 300.754 5.91406C300.544 6.01432 300.339 6.08268 300.139 6.11914V6.14648ZM309.381 9.20898V10.5352C309.226 10.6172 309.071 10.6947 308.916 10.7676C308.761 10.8314 308.592 10.8906 308.41 10.9453C308.228 10.9909 308.023 11.0273 307.795 11.0547C307.567 11.082 307.303 11.0957 307.002 11.0957C306.382 11.0957 305.849 11.0046 305.402 10.8223C304.965 10.6309 304.6 10.3711 304.309 10.043C304.026 9.71484 303.816 9.32747 303.68 8.88086C303.552 8.42513 303.488 7.9375 303.488 7.41797C303.488 6.84375 303.57 6.33333 303.734 5.88672C303.898 5.43099 304.126 5.04362 304.418 4.72461C304.719 4.4056 305.07 4.16406 305.471 4C305.872 3.82682 306.309 3.74023 306.783 3.74023C307.303 3.74023 307.758 3.83138 308.15 4.01367C308.542 4.18685 308.866 4.42839 309.121 4.73828C309.385 5.04818 309.581 5.41276 309.709 5.83203C309.846 6.2513 309.914 6.70247 309.914 7.18555V7.85547H304.883C304.928 8.51172 305.138 9.01758 305.512 9.37305C305.885 9.72852 306.41 9.90625 307.084 9.90625C307.64 9.90625 308.096 9.83333 308.451 9.6875C308.807 9.54167 309.117 9.38216 309.381 9.20898ZM304.91 6.65234H308.533C308.515 6.13281 308.36 5.71354 308.068 5.39453C307.777 5.06641 307.362 4.90234 306.824 4.90234C306.268 4.90234 305.822 5.07096 305.484 5.4082C305.156 5.74544 304.965 6.16016 304.91 6.65234ZM315.492 0.9375V1.96289C315.365 1.93555 315.223 1.91732 315.068 1.9082C314.913 1.88997 314.795 1.88086 314.713 1.88086C314.494 1.88086 314.321 1.91276 314.193 1.97656C314.075 2.04036 313.984 2.13151 313.92 2.25C313.865 2.36849 313.829 2.50977 313.811 2.67383C313.801 2.83789 313.797 3.02018 313.797 3.2207V3.94531H315.438V5.14844H313.797V11H312.457V5.14844H311.008V3.94531H312.457V2.60547C312.457 1.32943 313.122 0.691406 314.453 0.691406C314.544 0.691406 314.699 0.714193 314.918 0.759766C315.137 0.805339 315.328 0.864583 315.492 0.9375ZM318.418 11.2598H316.654V9.48242H318.418V11.2598Z" fill="#333333"/>
</svg>
