<svg width="330" height="208" viewBox="0 0 330 208" fill="none" xmlns="http://www.w3.org/2000/svg">
    <path d="M39.7344 38.1564V33.0939C38.9427 33.2397 38.0781 33.3387 37.1406 33.3907C36.2031 33.4324 35.2031 33.4585 34.1406 33.4689C34.1406 34.3543 34.1042 35.172 34.0312 35.922C33.9583 36.6616 33.8021 37.3387 33.5625 37.9532L32.5156 37.6876C32.7552 37.0835 32.9062 36.4168 32.9688 35.6876C33.0312 34.9585 33.0625 34.2189 33.0625 33.4689H29.0938V32.5626H33.7656C34.8073 32.5626 35.8385 32.5418 36.8594 32.5001C37.8802 32.448 38.8385 32.3387 39.7344 32.172V24.7501H40.8125V38.1564H39.7344ZM37.625 30.3751C37.3021 30.4376 36.9062 30.4897 36.4375 30.5314C35.9688 30.5626 35.4844 30.5782 34.9844 30.5782H30.3281V25.5314H37.2188V26.4532H31.4062V29.6407H35C35.4167 29.6407 35.849 29.6251 36.2969 29.5939C36.7552 29.5626 37.151 29.5053 37.4844 29.422L37.625 30.3751Z" fill="#666666"/>
    <path d="M54.8594 28.0939C54.2865 28.0939 53.8177 28.2137 53.4531 28.4532C53.099 28.6824 52.8177 28.9897 52.6094 29.3751C52.4115 29.7501 52.276 30.1772 52.2031 30.6564C52.1302 31.1251 52.0938 31.5939 52.0938 32.0626H52.1094C52.3177 31.5626 52.6354 31.1824 53.0625 30.922C53.5 30.6512 54 30.5157 54.5625 30.5157C55.5104 30.5157 56.2344 30.7918 56.7344 31.3439C57.2448 31.896 57.5 32.6303 57.5 33.547C57.5 34.4949 57.2188 35.2449 56.6562 35.797C56.0938 36.3387 55.3802 36.6095 54.5156 36.6095C53.401 36.6095 52.5521 36.271 51.9688 35.5939C51.3958 34.9168 51.1094 33.8699 51.1094 32.4532C51.1094 31.8387 51.1562 31.2241 51.25 30.6095C51.3542 29.9949 51.5417 29.4428 51.8125 28.9532C52.0833 28.4532 52.4583 28.0522 52.9375 27.7501C53.4167 27.4376 54.0417 27.2814 54.8125 27.2814C55.2604 27.2814 55.6562 27.3282 56 27.422C56.3542 27.5053 56.6615 27.5887 56.9219 27.672L56.7656 28.5001C56.3802 28.3439 56.099 28.2501 55.9219 28.2189C55.7552 28.1772 55.401 28.1355 54.8594 28.0939ZM54.5469 31.297C53.776 31.297 53.1979 31.5157 52.8125 31.9532C52.4271 32.3803 52.2344 32.9532 52.2344 33.672C52.2344 34.2345 52.4271 34.7345 52.8125 35.172C53.1979 35.5991 53.7135 35.8126 54.3594 35.8126C55.0573 35.8126 55.5885 35.6147 55.9531 35.2189C56.3281 34.8126 56.5156 34.2657 56.5156 33.5782C56.5156 32.8595 56.3438 32.3022 56 31.9064C55.6562 31.5001 55.1719 31.297 54.5469 31.297ZM54.2656 24.3595C56.526 24.3595 58.349 25.073 59.7344 26.5001C61.1198 27.9272 61.8125 29.698 61.8125 31.8126C61.8125 33.948 61.1302 35.7241 59.7656 37.1407C58.4115 38.5678 56.5781 39.2814 54.2656 39.2814C52.0052 39.2814 50.1823 38.5678 48.7969 37.1407C47.4219 35.7241 46.7344 33.948 46.7344 31.8126C46.7344 29.698 47.4271 27.9272 48.8125 26.5001C50.1979 25.073 52.0156 24.3595 54.2656 24.3595ZM54.2656 24.9845C52.276 24.9845 50.6302 25.6303 49.3281 26.922C48.026 28.2137 47.375 29.8543 47.375 31.8439C47.375 33.7605 48 35.3803 49.25 36.7032C50.5 38.0157 52.1719 38.672 54.2656 38.672C56.3698 38.672 58.0469 38.0105 59.2969 36.6876C60.5469 35.3543 61.1719 33.7397 61.1719 31.8439C61.1719 29.8335 60.5156 28.1876 59.2031 26.9064C57.901 25.6251 56.2552 24.9845 54.2656 24.9845Z" fill="#666666"/>
    <path d="M3.04688 64.0469C3.04688 63.2552 3.44271 62.6406 4.23438 62.2031C5.02604 61.7552 6.27604 61.5312 7.98438 61.5312C9.68229 61.5312 10.9271 61.75 11.7188 62.1875C12.5208 62.625 12.9219 63.2448 12.9219 64.0469C12.9219 64.849 12.5208 65.4688 11.7188 65.9062C10.9271 66.3438 9.68229 66.5625 7.98438 66.5625C6.27604 66.5625 5.02604 66.3438 4.23438 65.9062C3.44271 65.4688 3.04688 64.849 3.04688 64.0469ZM4.07812 64.0469C4.07812 64.6302 4.41667 65.0469 5.09375 65.2969C5.78125 65.5469 6.74479 65.6719 7.98438 65.6719C9.21354 65.6719 10.1719 65.5469 10.8594 65.2969C11.5469 65.0469 11.8906 64.6302 11.8906 64.0469C11.8906 63.4635 11.5469 63.0469 10.8594 62.7969C10.1719 62.5469 9.21354 62.4219 7.98438 62.4219C6.74479 62.4219 5.78125 62.5469 5.09375 62.7969C4.41667 63.0469 4.07812 63.4635 4.07812 64.0469ZM8.79688 60.3438C7.94271 59.9583 7.29688 59.5833 6.85938 59.2188C6.42188 58.8438 6.09896 58.5156 5.89062 58.2344C5.71354 57.9948 5.59375 57.7917 5.53125 57.625C5.46875 57.4479 5.42708 57.2865 5.40625 57.1406H5.14062C5.11979 57.2865 5.07812 57.4583 5.01562 57.6562C4.95312 57.8542 4.85938 58.0573 4.73438 58.2656C4.60938 58.4844 4.45833 58.7031 4.28125 58.9219C4.11458 59.1406 3.90625 59.3646 3.65625 59.5938C3.41667 59.8125 3.125 60.0417 2.78125 60.2812C2.4375 60.5208 2.02604 60.7656 1.54688 61.0156L0.8125 60.25C1.70833 59.8021 2.41667 59.3281 2.9375 58.8281C3.45833 58.3177 3.84896 57.8073 4.10938 57.2969C4.38021 56.7865 4.54688 56.2969 4.60938 55.8281C4.68229 55.349 4.71875 54.9167 4.71875 54.5312V54.4531H1.29688V53.5312H9.10938V54.4531H5.79688V54.5312C5.79688 54.9062 5.82812 55.3125 5.89062 55.75C5.96354 56.1875 6.125 56.6302 6.375 57.0781C6.63542 57.5156 7.01042 57.9479 7.5 58.375C8 58.7917 8.67708 59.1667 9.53125 59.5L8.79688 60.3438ZM11.6094 60.9219V57.0781H8.26562V56.1875H11.6094V52.75H12.6875V60.9219H11.6094ZM20.9688 66.3125V61.6094H15.0312V60.6719H28V61.6094H22.0469V66.3125H20.9688ZM21.4375 55.4688C21.4167 55.5833 21.3646 55.724 21.2812 55.8906C21.1979 56.0469 21.099 56.1979 20.9844 56.3438C20.651 56.7812 20.1042 57.2083 19.3438 57.625C18.5938 58.0312 17.625 58.3698 16.4375 58.6406L15.9688 57.8125C16.9271 57.5938 17.724 57.3385 18.3594 57.0469C19.0052 56.7552 19.5208 56.4375 19.9062 56.0938C20.2917 55.7396 20.5625 55.3698 20.7188 54.9844C20.8854 54.5885 20.9688 54.1875 20.9688 53.7812V53.2812H22.0781V53.7812C22.0781 54.1979 22.1615 54.599 22.3281 54.9844C22.5052 55.3698 22.7865 55.7292 23.1719 56.0625C23.5677 56.3958 24.0833 56.6979 24.7188 56.9688C25.3542 57.2292 26.1354 57.4427 27.0625 57.6094L26.5938 58.4688C25.4583 58.2292 24.5104 57.9167 23.75 57.5312C23 57.1354 22.4583 56.7396 22.125 56.3438C22 56.1979 21.8906 56.0469 21.7969 55.8906C21.7135 55.724 21.6615 55.5833 21.6406 55.4688H21.4375ZM40.2031 66.1562V62.9062C39.2344 63.1979 38.1042 63.401 36.8125 63.5156C35.5312 63.6302 34.125 63.6875 32.5938 63.6875H30.3438V58.2031H35.75V54.6094H30.3438V53.6875H36.8281V59.0938H31.4219V62.7656H32.6094C33.2969 62.7656 33.9792 62.7552 34.6562 62.7344C35.3438 62.7135 36.0104 62.6719 36.6562 62.6094C37.3021 62.5469 37.9219 62.4635 38.5156 62.3594C39.1198 62.2448 39.6823 62.1042 40.2031 61.9375V52.75H41.2812V66.1562H40.2031Z" fill="#666666"/>
    <path d="M54.1406 62.8125C54.8698 62.8125 55.4219 62.5885 55.7969 62.1406C56.1719 61.6927 56.3594 61.125 56.3594 60.4375C56.3594 59.75 56.1771 59.2135 55.8125 58.8281C55.4583 58.4427 54.9271 58.25 54.2188 58.25C53.75 58.25 53.3333 58.3854 52.9688 58.6562C52.6042 58.9167 52.3646 59.2708 52.25 59.7188H51.3438L51.5938 54.5H56.8125V55.3125H52.4375L52.25 58.4219L52.3125 58.4688C52.5833 58.1562 52.8958 57.9062 53.25 57.7188C53.6042 57.5312 53.9896 57.4375 54.4062 57.4375C55.2396 57.4375 55.9271 57.7188 56.4688 58.2812C57.0208 58.8333 57.2969 59.5625 57.2969 60.4688C57.2969 61.3542 57.026 62.099 56.4844 62.7031C55.9427 63.3073 55.2031 63.6094 54.2656 63.6094C53.6823 63.6094 53.1719 63.5521 52.7344 63.4375C52.2969 63.3125 51.9271 63.1823 51.625 63.0469L51.6719 62.1562C52.2031 62.3958 52.5781 62.5469 52.7969 62.6094C53.026 62.6719 53.474 62.7396 54.1406 62.8125ZM54.2656 51.3594C56.526 51.3594 58.349 52.0729 59.7344 53.5C61.1198 54.9271 61.8125 56.6979 61.8125 58.8125C61.8125 60.9479 61.1302 62.724 59.7656 64.1406C58.4115 65.5677 56.5781 66.2812 54.2656 66.2812C52.0052 66.2812 50.1823 65.5677 48.7969 64.1406C47.4219 62.724 46.7344 60.9479 46.7344 58.8125C46.7344 56.6979 47.4271 54.9271 48.8125 53.5C50.1979 52.0729 52.0156 51.3594 54.2656 51.3594ZM54.2656 51.9844C52.276 51.9844 50.6302 52.6302 49.3281 53.9219C48.026 55.2135 47.375 56.8542 47.375 58.8438C47.375 60.7604 48 62.3802 49.25 63.7031C50.5 65.0156 52.1719 65.6719 54.2656 65.6719C56.3698 65.6719 58.0469 65.0104 59.2969 63.6875C60.5469 62.3542 61.1719 60.7396 61.1719 58.8438C61.1719 56.8333 60.5156 55.1875 59.2031 53.9062C57.901 52.625 56.2552 51.9844 54.2656 51.9844Z" fill="#666666"/>
    <path d="M54.8125 91.5469V89.2031H50.6094V88.3281L54.5625 82.5H55.7188V88.4531H57.25V89.2031H55.7188V91.5469H54.8125ZM54.8125 88.4531V83.4219L51.4219 88.4531H54.8125ZM54.2656 79.3594C56.526 79.3594 58.349 80.0729 59.7344 81.5C61.1198 82.9271 61.8125 84.6979 61.8125 86.8125C61.8125 88.9479 61.1302 90.724 59.7656 92.1406C58.4115 93.5677 56.5781 94.2812 54.2656 94.2812C52.0052 94.2812 50.1823 93.5677 48.7969 92.1406C47.4219 90.724 46.7344 88.9479 46.7344 86.8125C46.7344 84.6979 47.4271 82.9271 48.8125 81.5C50.1979 80.0729 52.0156 79.3594 54.2656 79.3594ZM54.2656 79.9844C52.276 79.9844 50.6302 80.6302 49.3281 81.9219C48.026 83.2135 47.375 84.8542 47.375 86.8438C47.375 88.7604 48 90.3802 49.25 91.7031C50.5 93.0156 52.1719 93.6719 54.2656 93.6719C56.3698 93.6719 58.0469 93.0104 59.2969 91.6875C60.5469 90.3542 61.1719 88.7396 61.1719 86.8438C61.1719 84.8333 60.5156 83.1875 59.2031 81.9062C57.901 80.625 56.2552 79.9844 54.2656 79.9844Z" fill="#666666"/>
    <path d="M13.2344 92.4688C13.2344 91.6875 13.6615 91.0938 14.5156 90.6875C15.276 90.3229 16.3958 90.1198 17.875 90.0781V88.3438H11.7812V87.4219H25.0625V88.3438H18.9531V90.0781C20.4219 90.1094 21.5417 90.3125 22.3125 90.6875C23.1771 91.0938 23.6094 91.6875 23.6094 92.4688C23.6094 93.25 23.1771 93.8438 22.3125 94.25C21.4479 94.6667 20.151 94.875 18.4219 94.875C16.6719 94.875 15.3698 94.6667 14.5156 94.25C13.6615 93.8438 13.2344 93.25 13.2344 92.4688ZM18.3438 83.4062C18.3021 83.5208 18.2448 83.6406 18.1719 83.7656C18.099 83.8906 17.9948 84.0208 17.8594 84.1562C17.474 84.5417 16.9167 84.9323 16.1875 85.3281C15.4688 85.7135 14.5208 86.026 13.3438 86.2656L12.875 85.4375C13.7083 85.2708 14.4375 85.0469 15.0625 84.7656C15.6875 84.4844 16.2083 84.1875 16.625 83.875C17.0417 83.5625 17.3542 83.2604 17.5625 82.9688C17.7708 82.6667 17.875 82.4062 17.875 82.1875V82.1406H13.3125V81.2188H23.5469V82.1406H18.9844V82.1875C18.9844 82.4062 19.0781 82.6615 19.2656 82.9531C19.4531 83.2448 19.7448 83.5365 20.1406 83.8281C20.5469 84.1094 21.0625 84.3802 21.6875 84.6406C22.3229 84.8906 23.0833 85.0885 23.9688 85.2344L23.5 86.0938C22.3438 85.8854 21.4062 85.6042 20.6875 85.25C19.9792 84.8854 19.4271 84.5208 19.0312 84.1562C18.8958 84.0312 18.7865 83.9062 18.7031 83.7812C18.6302 83.6458 18.5781 83.5208 18.5469 83.4062H18.3438ZM14.3281 92.4688C14.3281 92.9896 14.6927 93.375 15.4219 93.625C16.1615 93.875 17.1615 94 18.4219 94C19.6719 94 20.6667 93.875 21.4062 93.625C22.1458 93.375 22.5156 92.9896 22.5156 92.4688C22.5156 91.9479 22.1458 91.5625 21.4062 91.3125C20.6667 91.0625 19.6719 90.9375 18.4219 90.9375C17.1615 90.9375 16.1615 91.0625 15.4219 91.3125C14.6927 91.5625 14.3281 91.9479 14.3281 92.4688ZM37.2656 89V80.75H38.3438V84.4219H40.9219V85.3438H38.3438V89H37.2656ZM27.9688 84.5312C27.9688 84.9167 28.0312 85.2656 28.1562 85.5781C28.2812 85.8802 28.4583 86.1406 28.6875 86.3594C28.9167 86.5677 29.1875 86.7292 29.5 86.8438C29.8125 86.9583 30.151 87.0156 30.5156 87.0156C30.8802 87.0156 31.2135 86.9583 31.5156 86.8438C31.8281 86.7292 32.099 86.5677 32.3281 86.3594C32.5573 86.1406 32.7344 85.8802 32.8594 85.5781C32.9844 85.2656 33.0469 84.9167 33.0469 84.5312C33.0469 84.1458 32.9844 83.8021 32.8594 83.5C32.7344 83.1875 32.5573 82.9271 32.3281 82.7188C32.099 82.5104 31.8281 82.349 31.5156 82.2344C31.2135 82.1198 30.8802 82.0625 30.5156 82.0625C30.151 82.0625 29.8125 82.1198 29.5 82.2344C29.1875 82.349 28.9167 82.5104 28.6875 82.7188C28.4583 82.9271 28.2812 83.1875 28.1562 83.5C28.0312 83.8021 27.9688 84.1458 27.9688 84.5312ZM26.9375 84.5312C26.9375 84.0104 27.026 83.5417 27.2031 83.125C27.3802 82.7083 27.625 82.3542 27.9375 82.0625C28.2604 81.7604 28.6406 81.5312 29.0781 81.375C29.5156 81.2188 29.9948 81.1406 30.5156 81.1406C31.026 81.1406 31.5 81.2188 31.9375 81.375C32.375 81.5312 32.75 81.7604 33.0625 82.0625C33.3854 82.3542 33.6354 82.7083 33.8125 83.125C33.9896 83.5417 34.0781 84.0104 34.0781 84.5312C34.0781 85.0521 33.9896 85.5208 33.8125 85.9375C33.6354 86.3542 33.3854 86.7135 33.0625 87.0156C32.75 87.3073 32.375 87.5365 31.9375 87.7031C31.5 87.8594 31.026 87.9375 30.5156 87.9375C29.9948 87.9375 29.5156 87.8594 29.0781 87.7031C28.6406 87.5365 28.2604 87.3073 27.9375 87.0156C27.625 86.7135 27.3802 86.3542 27.2031 85.9375C27.026 85.5208 26.9375 85.0521 26.9375 84.5312ZM28.7031 92.0781C28.7031 91.3177 29.099 90.7135 29.8906 90.2656C30.6823 89.8177 31.9323 89.5938 33.6406 89.5938C35.3281 89.5938 36.5729 89.8177 37.375 90.2656C38.1771 90.7135 38.5781 91.3177 38.5781 92.0781C38.5781 92.8385 38.1771 93.4427 37.375 93.8906C36.5729 94.3385 35.3281 94.5625 33.6406 94.5625C31.9323 94.5625 30.6823 94.3385 29.8906 93.8906C29.099 93.4427 28.7031 92.8385 28.7031 92.0781ZM29.7969 92.0781C29.7969 92.6198 30.125 93.026 30.7812 93.2969C31.4479 93.5677 32.401 93.7031 33.6406 93.7031C34.8698 93.7031 35.8177 93.5677 36.4844 93.2969C37.151 93.026 37.4844 92.6198 37.4844 92.0781C37.4844 91.5365 37.151 91.1302 36.4844 90.8594C35.8177 90.5885 34.8698 90.4531 33.6406 90.4531C32.401 90.4531 31.4479 90.5885 30.7812 90.8594C30.125 91.1302 29.7969 91.5365 29.7969 92.0781Z" fill="#666666"/>
    <path d="M54 118.812C54.7292 118.812 55.3021 118.651 55.7188 118.328C56.1354 118.005 56.3438 117.531 56.3438 116.906C56.3438 116.281 56.099 115.839 55.6094 115.578C55.1302 115.318 54.5573 115.188 53.8906 115.188H52.6875V114.328H53.8906C54.5573 114.328 55.099 114.193 55.5156 113.922C55.9427 113.651 56.1562 113.24 56.1562 112.688C56.1562 112.177 55.9531 111.781 55.5469 111.5C55.1406 111.219 54.6615 111.078 54.1094 111.078C53.7552 111.078 53.3542 111.125 52.9062 111.219C52.4583 111.302 52.0677 111.427 51.7344 111.594L51.625 110.781C51.9792 110.635 52.3542 110.516 52.75 110.422C53.1562 110.328 53.5677 110.281 53.9844 110.281C54.9635 110.281 55.7344 110.5 56.2969 110.938C56.8594 111.365 57.1406 111.969 57.1406 112.75C57.1406 113.333 56.9323 113.792 56.5156 114.125C56.1094 114.458 55.6771 114.651 55.2188 114.703V114.75C55.8125 114.885 56.3073 115.135 56.7031 115.5C57.1094 115.854 57.3125 116.365 57.3125 117.031C57.3125 117.802 57.0052 118.427 56.3906 118.906C55.7865 119.375 54.9948 119.609 54.0156 119.609C53.6198 119.609 53.1927 119.562 52.7344 119.469C52.276 119.375 51.8542 119.25 51.4688 119.094L51.5781 118.234C51.974 118.411 52.3698 118.552 52.7656 118.656C53.1719 118.76 53.5833 118.812 54 118.812ZM54.2656 107.359C56.526 107.359 58.349 108.073 59.7344 109.5C61.1198 110.927 61.8125 112.698 61.8125 114.812C61.8125 116.948 61.1302 118.724 59.7656 120.141C58.4115 121.568 56.5781 122.281 54.2656 122.281C52.0052 122.281 50.1823 121.568 48.7969 120.141C47.4219 118.724 46.7344 116.948 46.7344 114.812C46.7344 112.698 47.4271 110.927 48.8125 109.5C50.1979 108.073 52.0156 107.359 54.2656 107.359ZM54.2656 107.984C52.276 107.984 50.6302 108.63 49.3281 109.922C48.026 111.214 47.375 112.854 47.375 114.844C47.375 116.76 48 118.38 49.25 119.703C50.5 121.016 52.1719 121.672 54.2656 121.672C56.3698 121.672 58.0469 121.01 59.2969 119.688C60.5469 118.354 61.1719 116.74 61.1719 114.844C61.1719 112.833 60.5156 111.188 59.2031 109.906C57.901 108.625 56.2552 107.984 54.2656 107.984Z" fill="#666666"/>
    <path d="M26.9375 112.531C26.9375 112.01 27.026 111.542 27.2031 111.125C27.3802 110.708 27.625 110.354 27.9375 110.062C28.2604 109.76 28.6406 109.531 29.0781 109.375C29.5156 109.219 29.9948 109.141 30.5156 109.141C31.026 109.141 31.5 109.219 31.9375 109.375C32.375 109.531 32.75 109.76 33.0625 110.062C33.3854 110.354 33.6354 110.708 33.8125 111.125C33.9896 111.542 34.0781 112.01 34.0781 112.531C34.0781 113.052 33.9896 113.521 33.8125 113.938C33.6354 114.354 33.3854 114.714 33.0625 115.016C32.75 115.307 32.375 115.536 31.9375 115.703C31.5 115.859 31.026 115.938 30.5156 115.938C29.9948 115.938 29.5156 115.859 29.0781 115.703C28.6406 115.536 28.2604 115.307 27.9375 115.016C27.625 114.714 27.3802 114.354 27.2031 113.938C27.026 113.521 26.9375 113.052 26.9375 112.531ZM28.3281 122.484V121.562H30.9219V118.609H28.5625V117.688H38.5781V118.609H36.5V121.562H38.8125V122.484H28.3281ZM27.9688 112.531C27.9688 112.917 28.0312 113.266 28.1562 113.578C28.2812 113.88 28.4583 114.141 28.6875 114.359C28.9167 114.568 29.1875 114.729 29.5 114.844C29.8125 114.958 30.151 115.016 30.5156 115.016C30.8802 115.016 31.2135 114.958 31.5156 114.844C31.8281 114.729 32.099 114.568 32.3281 114.359C32.5573 114.141 32.7344 113.88 32.8594 113.578C32.9844 113.266 33.0469 112.917 33.0469 112.531C33.0469 112.146 32.9844 111.802 32.8594 111.5C32.7344 111.188 32.5573 110.927 32.3281 110.719C32.099 110.51 31.8281 110.349 31.5156 110.234C31.2135 110.12 30.8802 110.062 30.5156 110.062C30.151 110.062 29.8125 110.12 29.5 110.234C29.1875 110.349 28.9167 110.51 28.6875 110.719C28.4583 110.927 28.2812 111.188 28.1562 111.5C28.0312 111.802 27.9688 112.146 27.9688 112.531ZM37.2656 116.688V108.75H38.3438V112.422H40.9219V113.344H38.3438V116.688H37.2656ZM31.8906 121.562H35.5312V118.609H31.8906V121.562Z" fill="#666666"/>
    <path d="M54.1562 139.281C54.9479 139.281 55.6198 139.49 56.1719 139.906C56.724 140.323 57 140.932 57 141.734C57 142.214 56.849 142.698 56.5469 143.188C56.2552 143.667 55.7812 144.203 55.125 144.797C54.9375 144.974 54.4688 145.354 53.7188 145.938C52.9792 146.51 52.4844 146.917 52.2344 147.156H57.1406V147.984H51.1562V147C51.3542 146.812 51.849 146.411 52.6406 145.797C53.4323 145.182 54.0052 144.703 54.3594 144.359C55.0781 143.651 55.5365 143.104 55.7344 142.719C55.9427 142.333 56.0469 142.016 56.0469 141.766C56.0469 141.276 55.8646 140.875 55.5 140.562C55.1458 140.25 54.6927 140.094 54.1406 140.094C53.7448 140.094 53.3281 140.182 52.8906 140.359C52.4531 140.526 52.0469 140.714 51.6719 140.922L51.5156 140.078C51.8802 139.901 52.2812 139.724 52.7188 139.547C53.1562 139.37 53.6354 139.281 54.1562 139.281ZM54.2656 136.359C56.526 136.359 58.349 137.073 59.7344 138.5C61.1198 139.927 61.8125 141.698 61.8125 143.812C61.8125 145.948 61.1302 147.724 59.7656 149.141C58.4115 150.568 56.5781 151.281 54.2656 151.281C52.0052 151.281 50.1823 150.568 48.7969 149.141C47.4219 147.724 46.7344 145.948 46.7344 143.812C46.7344 141.698 47.4271 139.927 48.8125 138.5C50.1979 137.073 52.0156 136.359 54.2656 136.359ZM54.2656 136.984C52.276 136.984 50.6302 137.63 49.3281 138.922C48.026 140.214 47.375 141.854 47.375 143.844C47.375 145.76 48 147.38 49.25 148.703C50.5 150.016 52.1719 150.672 54.2656 150.672C56.3698 150.672 58.0469 150.01 59.2969 148.688C60.5469 147.354 61.1719 145.74 61.1719 143.844C61.1719 141.833 60.5156 140.188 59.2031 138.906C57.901 137.625 56.2552 136.984 54.2656 136.984Z" fill="#666666"/>
    <path d="M28.7344 141.078C28.7344 140.641 28.8385 140.24 29.0469 139.875C29.2656 139.5 29.5885 139.182 30.0156 138.922C30.4427 138.651 30.9792 138.443 31.625 138.297C32.2708 138.151 33.026 138.078 33.8906 138.078C34.7448 138.078 35.4948 138.151 36.1406 138.297C36.7865 138.443 37.3229 138.651 37.75 138.922C38.1875 139.182 38.5104 139.5 38.7188 139.875C38.9375 140.24 39.0469 140.641 39.0469 141.078C39.0469 141.516 38.9375 141.922 38.7188 142.297C38.5104 142.661 38.1875 142.979 37.75 143.25C37.3229 143.51 36.7865 143.714 36.1406 143.859C35.4948 144.005 34.7448 144.078 33.8906 144.078C33.026 144.078 32.2708 144.005 31.625 143.859C30.9792 143.714 30.4427 143.51 30.0156 143.25C29.5885 142.979 29.2656 142.661 29.0469 142.297C28.8385 141.922 28.7344 141.516 28.7344 141.078ZM29.75 141.078C29.75 141.714 30.099 142.229 30.7969 142.625C31.4948 143.01 32.526 143.203 33.8906 143.203C35.2552 143.203 36.2865 143.01 36.9844 142.625C37.6823 142.229 38.0312 141.714 38.0312 141.078C38.0312 140.443 37.6823 139.927 36.9844 139.531C36.2865 139.135 35.2552 138.938 33.8906 138.938C32.526 138.938 31.4948 139.135 30.7969 139.531C30.099 139.927 29.75 140.443 29.75 141.078ZM33.3438 151.312V146.922H27.4062V145.984H40.375V146.922H34.4219V151.312H33.3438Z" fill="#666666"/>
    <path d="M51.9531 168.312L54.1406 166.5H54.9062V175.438H54.0156V167.578L52.4844 168.922L51.9531 168.312ZM54.2656 163.359C56.526 163.359 58.349 164.073 59.7344 165.5C61.1198 166.927 61.8125 168.698 61.8125 170.812C61.8125 172.948 61.1302 174.724 59.7656 176.141C58.4115 177.568 56.5781 178.281 54.2656 178.281C52.0052 178.281 50.1823 177.568 48.7969 176.141C47.4219 174.724 46.7344 172.948 46.7344 170.812C46.7344 168.698 47.4271 166.927 48.8125 165.5C50.1979 164.073 52.0156 163.359 54.2656 163.359ZM54.2656 163.984C52.276 163.984 50.6302 164.63 49.3281 165.922C48.026 167.214 47.375 168.854 47.375 170.844C47.375 172.76 48 174.38 49.25 175.703C50.5 177.016 52.1719 177.672 54.2656 177.672C56.3698 177.672 58.0469 177.01 59.2969 175.688C60.5469 174.354 61.1719 172.74 61.1719 170.844C61.1719 168.833 60.5156 167.188 59.2031 165.906C57.901 164.625 56.2552 163.984 54.2656 163.984Z" fill="#666666"/>
    <path d="M37.1875 178.156V175.625C36.2812 175.823 35.2656 175.958 34.1406 176.031C33.026 176.094 31.8177 176.125 30.5156 176.125H26.625V175.203H30.5312H31.0312V172.172H32.1094V175.188C33.026 175.167 33.9115 175.125 34.7656 175.062C35.6302 174.99 36.4375 174.865 37.1875 174.688V164.75H38.2656V170.453H41V171.375H38.2656V178.156H37.1875ZM31.4375 168.938C31.4271 169.01 31.3906 169.141 31.3281 169.328C31.2656 169.505 31.1927 169.667 31.1094 169.812C30.8594 170.24 30.4896 170.667 30 171.094C29.5208 171.521 28.8594 171.969 28.0156 172.438L27.3281 171.656C28.026 171.312 28.6094 170.948 29.0781 170.562C29.5573 170.177 29.9427 169.781 30.2344 169.375C30.526 168.969 30.7292 168.568 30.8438 168.172C30.9688 167.776 31.0312 167.401 31.0312 167.047V166.609H27.7188V165.688H35.4531V166.609H32.1094V167.047C32.1094 167.38 32.1719 167.745 32.2969 168.141C32.4219 168.526 32.6302 168.917 32.9219 169.312C33.2135 169.698 33.5938 170.073 34.0625 170.438C34.5312 170.792 35.1094 171.099 35.7969 171.359L35.2031 172.203C34.3594 171.839 33.6823 171.443 33.1719 171.016C32.6719 170.578 32.2969 170.161 32.0469 169.766C31.9531 169.62 31.8698 169.464 31.7969 169.297C31.7344 169.13 31.6979 169.01 31.6875 168.938H31.4375Z" fill="#666666"/>
    <path d="M272.5 136C277.194 136 281 139.806 281 144.5C281 149.194 277.194 153 272.5 153L68 153L68 136L272.5 136Z" fill="#D9D9D9"/>
    <path d="M309.5 164C314.194 164 318 167.806 318 172.5C318 177.194 314.194 181 309.5 181L68 181L68 164L309.5 164Z" fill="#D9D9D9"/>
    <path d="M253.5 108C258.194 108 262 111.806 262 116.5C262 121.194 258.194 125 253.5 125L68 125L68 108L253.5 108Z" fill="#D9D9D9"/>
    <path d="M251.5 80C256.194 80 260 83.8056 260 88.5C260 93.1944 256.194 97 251.5 97L68 97L68 80L251.5 80Z" fill="#D9D9D9"/>
    <path d="M255.5 52C260.194 52 264 55.8056 264 60.5C264 65.1944 260.194 69 255.5 69L68 69L68 52L255.5 52Z" fill="#D9D9D9"/>
    <path d="M129.5 24C134.194 24 138 27.8056 138 32.5C138 37.1944 134.194 41 129.5 41L68 41L68 24L129.5 24Z" fill="#D9D9D9"/>
    <path d="M87.6484 28.9219C87.3021 28.9219 87.0059 28.9902 86.7598 29.127C86.5228 29.2637 86.3177 29.4505 86.1445 29.6875C85.9805 29.9154 85.8483 30.1751 85.748 30.4668C85.6569 30.7585 85.584 31.0592 85.5293 31.3691C85.4746 31.6699 85.4382 31.9707 85.4199 32.2715C85.4108 32.5723 85.4062 32.8411 85.4062 33.0781C85.4062 33.4427 85.4245 33.862 85.4609 34.3359C85.5065 34.8099 85.6022 35.2611 85.748 35.6895C85.903 36.1178 86.1263 36.4824 86.418 36.7832C86.7188 37.0749 87.1289 37.2207 87.6484 37.2207C88.1589 37.2207 88.5645 37.0749 88.8652 36.7832C89.166 36.4824 89.3893 36.1178 89.5352 35.6895C89.6901 35.2611 89.7858 34.8099 89.8223 34.3359C89.8678 33.862 89.8906 33.4427 89.8906 33.0781C89.8906 32.8411 89.8815 32.5723 89.8633 32.2715C89.8542 31.9707 89.8223 31.6699 89.7676 31.3691C89.7129 31.0592 89.6354 30.7585 89.5352 30.4668C89.4349 30.1751 89.3027 29.9154 89.1387 29.6875C88.9746 29.4505 88.7695 29.2637 88.5234 29.127C88.2773 28.9902 87.9857 28.9219 87.6484 28.9219ZM87.6484 28.1016C88.3047 28.1016 88.8424 28.2474 89.2617 28.5391C89.681 28.8216 90.0091 29.1953 90.2461 29.6602C90.4831 30.125 90.6426 30.6582 90.7246 31.2598C90.8158 31.8522 90.8613 32.4583 90.8613 33.0781C90.8613 33.6979 90.8158 34.304 90.7246 34.8965C90.6426 35.4889 90.4831 36.0221 90.2461 36.4961C90.0091 36.9701 89.681 37.3529 89.2617 37.6445C88.8424 37.9271 88.3047 38.0684 87.6484 38.0684C86.9831 38.0684 86.4408 37.9271 86.0215 37.6445C85.6022 37.3529 85.2741 36.9701 85.0371 36.4961C84.8001 36.0221 84.6361 35.4889 84.5449 34.8965C84.4629 34.304 84.4219 33.6979 84.4219 33.0781C84.4219 32.4583 84.4629 31.8522 84.5449 31.2598C84.6361 30.6582 84.8001 30.125 85.0371 29.6602C85.2741 29.1953 85.6022 28.8216 86.0215 28.5391C86.4408 28.2474 86.9831 28.1016 87.6484 28.1016ZM93.7598 38.2598H92.3652V36.7832H93.7598V38.2598ZM98.4902 28.9219C98.1439 28.9219 97.8477 28.9902 97.6016 29.127C97.3646 29.2637 97.1595 29.4505 96.9863 29.6875C96.8223 29.9154 96.6901 30.1751 96.5898 30.4668C96.4987 30.7585 96.4258 31.0592 96.3711 31.3691C96.3164 31.6699 96.2799 31.9707 96.2617 32.2715C96.2526 32.5723 96.248 32.8411 96.248 33.0781C96.248 33.4427 96.2663 33.862 96.3027 34.3359C96.3483 34.8099 96.444 35.2611 96.5898 35.6895C96.7448 36.1178 96.9681 36.4824 97.2598 36.7832C97.5605 37.0749 97.9707 37.2207 98.4902 37.2207C99.0007 37.2207 99.4062 37.0749 99.707 36.7832C100.008 36.4824 100.231 36.1178 100.377 35.6895C100.532 35.2611 100.628 34.8099 100.664 34.3359C100.71 33.862 100.732 33.4427 100.732 33.0781C100.732 32.8411 100.723 32.5723 100.705 32.2715C100.696 31.9707 100.664 31.6699 100.609 31.3691C100.555 31.0592 100.477 30.7585 100.377 30.4668C100.277 30.1751 100.145 29.9154 99.9805 29.6875C99.8164 29.4505 99.6113 29.2637 99.3652 29.127C99.1191 28.9902 98.8275 28.9219 98.4902 28.9219ZM98.4902 28.1016C99.1465 28.1016 99.6842 28.2474 100.104 28.5391C100.523 28.8216 100.851 29.1953 101.088 29.6602C101.325 30.125 101.484 30.6582 101.566 31.2598C101.658 31.8522 101.703 32.4583 101.703 33.0781C101.703 33.6979 101.658 34.304 101.566 34.8965C101.484 35.4889 101.325 36.0221 101.088 36.4961C100.851 36.9701 100.523 37.3529 100.104 37.6445C99.6842 37.9271 99.1465 38.0684 98.4902 38.0684C97.8249 38.0684 97.2826 37.9271 96.8633 37.6445C96.444 37.3529 96.1159 36.9701 95.8789 36.4961C95.6419 36.0221 95.4779 35.4889 95.3867 34.8965C95.3047 34.304 95.2637 33.6979 95.2637 33.0781C95.2637 32.4583 95.3047 31.8522 95.3867 31.2598C95.4779 30.6582 95.6419 30.125 95.8789 29.6602C96.1159 29.1953 96.444 28.8216 96.8633 28.5391C97.2826 28.2474 97.8249 28.1016 98.4902 28.1016ZM106.406 28.1016C106.798 28.1016 107.167 28.1517 107.514 28.252C107.869 28.3522 108.179 28.5072 108.443 28.7168C108.708 28.9173 108.917 29.1771 109.072 29.4961C109.227 29.806 109.305 30.1706 109.305 30.5898C109.305 30.9727 109.218 31.3646 109.045 31.7656C108.881 32.1667 108.658 32.5723 108.375 32.9824C108.102 33.3835 107.787 33.7845 107.432 34.1855C107.085 34.5775 106.73 34.9557 106.365 35.3203C106.01 35.6758 105.659 36.013 105.312 36.332C104.975 36.6419 104.684 36.9154 104.438 37.1523H109.441V38H103.344V37.0293C103.553 36.8379 103.822 36.5918 104.15 36.291C104.479 35.9811 104.825 35.6393 105.189 35.2656C105.563 34.8828 105.937 34.4818 106.311 34.0625C106.684 33.6432 107.021 33.2285 107.322 32.8184C107.623 32.4082 107.865 32.0163 108.047 31.6426C108.238 31.2689 108.334 30.9362 108.334 30.6445C108.334 30.362 108.279 30.1159 108.17 29.9062C108.07 29.6875 107.928 29.5052 107.746 29.3594C107.573 29.2135 107.368 29.1042 107.131 29.0312C106.894 28.9583 106.643 28.9219 106.379 28.9219C105.978 28.9219 105.559 29.0085 105.121 29.1816C104.684 29.3457 104.273 29.5371 103.891 29.7559L103.727 28.8672C104.082 28.694 104.483 28.5254 104.93 28.3613C105.385 28.1882 105.878 28.1016 106.406 28.1016ZM114.145 28.1016C114.536 28.1016 114.906 28.1517 115.252 28.252C115.607 28.3522 115.917 28.5072 116.182 28.7168C116.446 28.9173 116.656 29.1771 116.811 29.4961C116.965 29.806 117.043 30.1706 117.043 30.5898C117.043 30.9727 116.956 31.3646 116.783 31.7656C116.619 32.1667 116.396 32.5723 116.113 32.9824C115.84 33.3835 115.525 33.7845 115.17 34.1855C114.824 34.5775 114.468 34.9557 114.104 35.3203C113.748 35.6758 113.397 36.013 113.051 36.332C112.714 36.6419 112.422 36.9154 112.176 37.1523H117.18V38H111.082V37.0293C111.292 36.8379 111.561 36.5918 111.889 36.291C112.217 35.9811 112.563 35.6393 112.928 35.2656C113.301 34.8828 113.675 34.4818 114.049 34.0625C114.423 33.6432 114.76 33.2285 115.061 32.8184C115.361 32.4082 115.603 32.0163 115.785 31.6426C115.977 31.2689 116.072 30.9362 116.072 30.6445C116.072 30.362 116.018 30.1159 115.908 29.9062C115.808 29.6875 115.667 29.5052 115.484 29.3594C115.311 29.2135 115.106 29.1042 114.869 29.0312C114.632 28.9583 114.382 28.9219 114.117 28.9219C113.716 28.9219 113.297 29.0085 112.859 29.1816C112.422 29.3457 112.012 29.5371 111.629 29.7559L111.465 28.8672C111.82 28.694 112.221 28.5254 112.668 28.3613C113.124 28.1882 113.616 28.1016 114.145 28.1016Z" fill="#333333"/>
    <path d="M215.728 56.5703C215.406 56.5703 215.131 56.6338 214.902 56.7607C214.682 56.8877 214.492 57.0612 214.331 57.2812C214.179 57.4928 214.056 57.734 213.963 58.0049C213.878 58.2757 213.811 58.555 213.76 58.8428C213.709 59.1221 213.675 59.4014 213.658 59.6807C213.65 59.96 213.646 60.2096 213.646 60.4297C213.646 60.7682 213.662 61.1576 213.696 61.5977C213.739 62.0378 213.827 62.4567 213.963 62.8545C214.107 63.2523 214.314 63.5908 214.585 63.8701C214.864 64.141 215.245 64.2764 215.728 64.2764C216.201 64.2764 216.578 64.141 216.857 63.8701C217.137 63.5908 217.344 63.2523 217.479 62.8545C217.623 62.4567 217.712 62.0378 217.746 61.5977C217.788 61.1576 217.81 60.7682 217.81 60.4297C217.81 60.2096 217.801 59.96 217.784 59.6807C217.776 59.4014 217.746 59.1221 217.695 58.8428C217.645 58.555 217.573 58.2757 217.479 58.0049C217.386 57.734 217.264 57.4928 217.111 57.2812C216.959 57.0612 216.769 56.8877 216.54 56.7607C216.312 56.6338 216.041 56.5703 215.728 56.5703ZM215.728 55.8086C216.337 55.8086 216.836 55.944 217.226 56.2148C217.615 56.4772 217.92 56.8242 218.14 57.2559C218.36 57.6875 218.508 58.1826 218.584 58.7412C218.669 59.2913 218.711 59.8542 218.711 60.4297C218.711 61.0052 218.669 61.568 218.584 62.1182C218.508 62.6683 218.36 63.1634 218.14 63.6035C217.92 64.0436 217.615 64.3991 217.226 64.6699C216.836 64.9323 216.337 65.0635 215.728 65.0635C215.11 65.0635 214.606 64.9323 214.217 64.6699C213.827 64.3991 213.523 64.0436 213.303 63.6035C213.083 63.1634 212.93 62.6683 212.846 62.1182C212.77 61.568 212.731 61.0052 212.731 60.4297C212.731 59.8542 212.77 59.2913 212.846 58.7412C212.93 58.1826 213.083 57.6875 213.303 57.2559C213.523 56.8242 213.827 56.4772 214.217 56.2148C214.606 55.944 215.11 55.8086 215.728 55.8086ZM221.402 65.2412H220.107V63.8701H221.402V65.2412ZM225.795 56.5703C225.473 56.5703 225.198 56.6338 224.97 56.7607C224.75 56.8877 224.559 57.0612 224.398 57.2812C224.246 57.4928 224.123 57.734 224.03 58.0049C223.946 58.2757 223.878 58.555 223.827 58.8428C223.776 59.1221 223.743 59.4014 223.726 59.6807C223.717 59.96 223.713 60.2096 223.713 60.4297C223.713 60.7682 223.73 61.1576 223.764 61.5977C223.806 62.0378 223.895 62.4567 224.03 62.8545C224.174 63.2523 224.382 63.5908 224.652 63.8701C224.932 64.141 225.312 64.2764 225.795 64.2764C226.269 64.2764 226.646 64.141 226.925 63.8701C227.204 63.5908 227.411 63.2523 227.547 62.8545C227.691 62.4567 227.78 62.0378 227.813 61.5977C227.856 61.1576 227.877 60.7682 227.877 60.4297C227.877 60.2096 227.868 59.96 227.852 59.6807C227.843 59.4014 227.813 59.1221 227.763 58.8428C227.712 58.555 227.64 58.2757 227.547 58.0049C227.454 57.734 227.331 57.4928 227.179 57.2812C227.026 57.0612 226.836 56.8877 226.607 56.7607C226.379 56.6338 226.108 56.5703 225.795 56.5703ZM225.795 55.8086C226.404 55.8086 226.904 55.944 227.293 56.2148C227.682 56.4772 227.987 56.8242 228.207 57.2559C228.427 57.6875 228.575 58.1826 228.651 58.7412C228.736 59.2913 228.778 59.8542 228.778 60.4297C228.778 61.0052 228.736 61.568 228.651 62.1182C228.575 62.6683 228.427 63.1634 228.207 63.6035C227.987 64.0436 227.682 64.3991 227.293 64.6699C226.904 64.9323 226.404 65.0635 225.795 65.0635C225.177 65.0635 224.674 64.9323 224.284 64.6699C223.895 64.3991 223.59 64.0436 223.37 63.6035C223.15 63.1634 222.998 62.6683 222.913 62.1182C222.837 61.568 222.799 61.0052 222.799 60.4297C222.799 59.8542 222.837 59.2913 222.913 58.7412C222.998 58.1826 223.15 57.6875 223.37 57.2559C223.59 56.8242 223.895 56.4772 224.284 56.2148C224.674 55.944 225.177 55.8086 225.795 55.8086ZM234.047 56.5703C233.505 56.5703 233.061 56.6973 232.714 56.9512C232.375 57.1966 232.104 57.5182 231.901 57.916C231.707 58.3053 231.571 58.7412 231.495 59.2236C231.427 59.6976 231.394 60.1631 231.394 60.6201H231.419C231.622 60.1292 231.935 59.7611 232.358 59.5156C232.782 59.2702 233.26 59.1475 233.793 59.1475C234.233 59.1475 234.622 59.2236 234.961 59.376C235.308 59.5199 235.6 59.7272 235.837 59.998C236.074 60.2604 236.252 60.5736 236.37 60.9375C236.489 61.3014 236.548 61.6992 236.548 62.1309C236.548 62.5625 236.48 62.9645 236.345 63.3369C236.218 63.7008 236.032 64.0225 235.786 64.3018C235.549 64.5726 235.253 64.7884 234.897 64.9492C234.55 65.1016 234.157 65.1777 233.717 65.1777C233.09 65.1777 232.57 65.0592 232.155 64.8223C231.741 64.5853 231.41 64.2721 231.165 63.8828C230.92 63.485 230.746 63.0322 230.645 62.5244C230.543 62.0166 230.492 61.4919 230.492 60.9502C230.492 60.3747 230.539 59.7822 230.632 59.1729C230.725 58.5635 230.903 58.0091 231.165 57.5098C231.427 57.0104 231.783 56.6042 232.231 56.291C232.688 55.9694 233.281 55.8086 234.009 55.8086C234.432 55.8086 234.809 55.8467 235.139 55.9229C235.477 55.999 235.769 56.071 236.015 56.1387L235.875 56.9385C235.782 56.8877 235.663 56.8411 235.52 56.7988C235.384 56.748 235.232 56.71 235.062 56.6846C234.902 56.6507 234.732 56.6253 234.555 56.6084C234.377 56.583 234.208 56.5703 234.047 56.5703ZM233.755 59.8711C233.399 59.8711 233.082 59.9346 232.803 60.0615C232.532 60.18 232.303 60.3451 232.117 60.5566C231.931 60.7682 231.791 61.0179 231.698 61.3057C231.605 61.5934 231.559 61.9066 231.559 62.2451C231.559 62.5329 231.609 62.8079 231.711 63.0703C231.812 63.3242 231.952 63.5527 232.13 63.7559C232.308 63.9505 232.519 64.1071 232.765 64.2256C233.01 64.3441 233.281 64.4033 233.577 64.4033C233.907 64.4033 234.199 64.3483 234.453 64.2383C234.715 64.1283 234.931 63.9759 235.101 63.7812C235.278 63.5781 235.41 63.3411 235.494 63.0703C235.587 62.7995 235.634 62.5033 235.634 62.1816C235.634 61.8854 235.596 61.6019 235.52 61.3311C235.452 61.0518 235.342 60.8063 235.189 60.5947C235.037 60.3747 234.842 60.2012 234.605 60.0742C234.368 59.9388 234.085 59.8711 233.755 59.8711ZM243.365 55.9863V56.748L239.861 65H238.871L242.477 56.7734H237.627V55.9863H243.365Z" fill="#333333"/>
    <path d="M211.283 84.5703C210.962 84.5703 210.687 84.6338 210.458 84.7607C210.238 84.8877 210.048 85.0612 209.887 85.2812C209.734 85.4928 209.612 85.734 209.519 86.0049C209.434 86.2757 209.366 86.555 209.315 86.8428C209.265 87.1221 209.231 87.4014 209.214 87.6807C209.205 87.96 209.201 88.2096 209.201 88.4297C209.201 88.7682 209.218 89.1576 209.252 89.5977C209.294 90.0378 209.383 90.4567 209.519 90.8545C209.662 91.2523 209.87 91.5908 210.141 91.8701C210.42 92.141 210.801 92.2764 211.283 92.2764C211.757 92.2764 212.134 92.141 212.413 91.8701C212.692 91.5908 212.9 91.2523 213.035 90.8545C213.179 90.4567 213.268 90.0378 213.302 89.5977C213.344 89.1576 213.365 88.7682 213.365 88.4297C213.365 88.2096 213.357 87.96 213.34 87.6807C213.331 87.4014 213.302 87.1221 213.251 86.8428C213.2 86.555 213.128 86.2757 213.035 86.0049C212.942 85.734 212.819 85.4928 212.667 85.2812C212.515 85.0612 212.324 84.8877 212.096 84.7607C211.867 84.6338 211.596 84.5703 211.283 84.5703ZM211.283 83.8086C211.893 83.8086 212.392 83.944 212.781 84.2148C213.171 84.4772 213.475 84.8242 213.695 85.2559C213.915 85.6875 214.063 86.1826 214.14 86.7412C214.224 87.2913 214.267 87.8542 214.267 88.4297C214.267 89.0052 214.224 89.568 214.14 90.1182C214.063 90.6683 213.915 91.1634 213.695 91.6035C213.475 92.0436 213.171 92.3991 212.781 92.6699C212.392 92.9323 211.893 93.0635 211.283 93.0635C210.665 93.0635 210.162 92.9323 209.772 92.6699C209.383 92.3991 209.078 92.0436 208.858 91.6035C208.638 91.1634 208.486 90.6683 208.401 90.1182C208.325 89.568 208.287 89.0052 208.287 88.4297C208.287 87.8542 208.325 87.2913 208.401 86.7412C208.486 86.1826 208.638 85.6875 208.858 85.2559C209.078 84.8242 209.383 84.4772 209.772 84.2148C210.162 83.944 210.665 83.8086 211.283 83.8086ZM216.958 93.2412H215.663V91.8701H216.958V93.2412ZM221.351 84.5703C221.029 84.5703 220.754 84.6338 220.525 84.7607C220.305 84.8877 220.115 85.0612 219.954 85.2812C219.802 85.4928 219.679 85.734 219.586 86.0049C219.501 86.2757 219.434 86.555 219.383 86.8428C219.332 87.1221 219.298 87.4014 219.281 87.6807C219.273 87.96 219.269 88.2096 219.269 88.4297C219.269 88.7682 219.285 89.1576 219.319 89.5977C219.362 90.0378 219.451 90.4567 219.586 90.8545C219.73 91.2523 219.937 91.5908 220.208 91.8701C220.487 92.141 220.868 92.2764 221.351 92.2764C221.825 92.2764 222.201 92.141 222.48 91.8701C222.76 91.5908 222.967 91.2523 223.103 90.8545C223.246 90.4567 223.335 90.0378 223.369 89.5977C223.411 89.1576 223.433 88.7682 223.433 88.4297C223.433 88.2096 223.424 87.96 223.407 87.6807C223.399 87.4014 223.369 87.1221 223.318 86.8428C223.268 86.555 223.196 86.2757 223.103 86.0049C223.009 85.734 222.887 85.4928 222.734 85.2812C222.582 85.0612 222.392 84.8877 222.163 84.7607C221.935 84.6338 221.664 84.5703 221.351 84.5703ZM221.351 83.8086C221.96 83.8086 222.459 83.944 222.849 84.2148C223.238 84.4772 223.543 84.8242 223.763 85.2559C223.983 85.6875 224.131 86.1826 224.207 86.7412C224.292 87.2913 224.334 87.8542 224.334 88.4297C224.334 89.0052 224.292 89.568 224.207 90.1182C224.131 90.6683 223.983 91.1634 223.763 91.6035C223.543 92.0436 223.238 92.3991 222.849 92.6699C222.459 92.9323 221.96 93.0635 221.351 93.0635C220.733 93.0635 220.229 92.9323 219.84 92.6699C219.451 92.3991 219.146 92.0436 218.926 91.6035C218.706 91.1634 218.553 90.6683 218.469 90.1182C218.393 89.568 218.354 89.0052 218.354 88.4297C218.354 87.8542 218.393 87.2913 218.469 86.7412C218.553 86.1826 218.706 85.6875 218.926 85.2559C219.146 84.8242 219.451 84.4772 219.84 84.2148C220.229 83.944 220.733 83.8086 221.351 83.8086ZM229.603 84.5703C229.061 84.5703 228.617 84.6973 228.27 84.9512C227.931 85.1966 227.66 85.5182 227.457 85.916C227.262 86.3053 227.127 86.7412 227.051 87.2236C226.983 87.6976 226.949 88.1631 226.949 88.6201H226.975C227.178 88.1292 227.491 87.7611 227.914 87.5156C228.337 87.2702 228.815 87.1475 229.349 87.1475C229.789 87.1475 230.178 87.2236 230.517 87.376C230.864 87.5199 231.156 87.7272 231.393 87.998C231.63 88.2604 231.807 88.5736 231.926 88.9375C232.044 89.3014 232.104 89.6992 232.104 90.1309C232.104 90.5625 232.036 90.9645 231.9 91.3369C231.773 91.7008 231.587 92.0225 231.342 92.3018C231.105 92.5726 230.809 92.7884 230.453 92.9492C230.106 93.1016 229.713 93.1777 229.272 93.1777C228.646 93.1777 228.126 93.0592 227.711 92.8223C227.296 92.5853 226.966 92.2721 226.721 91.8828C226.475 91.485 226.302 91.0322 226.2 90.5244C226.099 90.0166 226.048 89.4919 226.048 88.9502C226.048 88.3747 226.094 87.7822 226.188 87.1729C226.281 86.5635 226.458 86.0091 226.721 85.5098C226.983 85.0104 227.339 84.6042 227.787 84.291C228.244 83.9694 228.837 83.8086 229.564 83.8086C229.988 83.8086 230.364 83.8467 230.694 83.9229C231.033 83.999 231.325 84.071 231.57 84.1387L231.431 84.9385C231.338 84.8877 231.219 84.8411 231.075 84.7988C230.94 84.748 230.787 84.71 230.618 84.6846C230.457 84.6507 230.288 84.6253 230.11 84.6084C229.933 84.583 229.763 84.5703 229.603 84.5703ZM229.311 87.8711C228.955 87.8711 228.638 87.9346 228.358 88.0615C228.088 88.18 227.859 88.3451 227.673 88.5566C227.487 88.7682 227.347 89.0179 227.254 89.3057C227.161 89.5934 227.114 89.9066 227.114 90.2451C227.114 90.5329 227.165 90.8079 227.267 91.0703C227.368 91.3242 227.508 91.5527 227.686 91.7559C227.863 91.9505 228.075 92.1071 228.32 92.2256C228.566 92.3441 228.837 92.4033 229.133 92.4033C229.463 92.4033 229.755 92.3483 230.009 92.2383C230.271 92.1283 230.487 91.9759 230.656 91.7812C230.834 91.5781 230.965 91.3411 231.05 91.0703C231.143 90.7995 231.189 90.5033 231.189 90.1816C231.189 89.8854 231.151 89.6019 231.075 89.3311C231.007 89.0518 230.897 88.8063 230.745 88.5947C230.593 88.3747 230.398 88.2012 230.161 88.0742C229.924 87.9388 229.641 87.8711 229.311 87.8711ZM236.395 92.4033C236.742 92.4033 237.042 92.3398 237.296 92.2129C237.558 92.0859 237.774 91.9167 237.943 91.7051C238.113 91.485 238.24 91.2311 238.324 90.9434C238.409 90.6556 238.451 90.3509 238.451 90.0293C238.451 89.7077 238.409 89.4115 238.324 89.1406C238.24 88.8698 238.113 88.637 237.943 88.4424C237.783 88.2477 237.575 88.0996 237.321 87.998C237.076 87.888 236.784 87.833 236.445 87.833C236.225 87.833 236.014 87.8669 235.811 87.9346C235.616 87.9938 235.438 88.0827 235.277 88.2012C235.117 88.3197 234.977 88.4678 234.858 88.6455C234.748 88.8148 234.668 89.0052 234.617 89.2168H233.754L233.957 83.9863H238.908V84.7734H234.77L234.617 87.9854L234.643 88.0107C234.896 87.7145 235.188 87.486 235.519 87.3252C235.849 87.1559 236.217 87.0713 236.623 87.0713C237.046 87.0713 237.427 87.1517 237.766 87.3125C238.104 87.4733 238.392 87.6934 238.629 87.9727C238.866 88.2435 239.048 88.5609 239.175 88.9248C239.302 89.2803 239.365 89.6611 239.365 90.0674C239.365 90.499 239.298 90.9053 239.162 91.2861C239.027 91.6585 238.836 91.9886 238.591 92.2764C238.345 92.5557 238.041 92.7757 237.677 92.9365C237.321 93.0973 236.924 93.1777 236.483 93.1777C235.942 93.1777 235.468 93.1185 235.062 93C234.655 92.89 234.3 92.7757 233.995 92.6572L234.033 91.8066C234.177 91.8828 234.342 91.959 234.528 92.0352C234.723 92.1029 234.922 92.1663 235.125 92.2256C235.337 92.2764 235.552 92.3187 235.772 92.3525C235.993 92.3864 236.2 92.4033 236.395 92.4033Z" fill="#333333"/>
    <path d="M212.902 112.57C212.581 112.57 212.306 112.634 212.077 112.761C211.857 112.888 211.667 113.061 211.506 113.281C211.354 113.493 211.231 113.734 211.138 114.005C211.053 114.276 210.985 114.555 210.935 114.843C210.884 115.122 210.85 115.401 210.833 115.681C210.825 115.96 210.82 116.21 210.82 116.43C210.82 116.768 210.837 117.158 210.871 117.598C210.913 118.038 211.002 118.457 211.138 118.854C211.282 119.252 211.489 119.591 211.76 119.87C212.039 120.141 212.42 120.276 212.902 120.276C213.376 120.276 213.753 120.141 214.032 119.87C214.312 119.591 214.519 119.252 214.654 118.854C214.798 118.457 214.887 118.038 214.921 117.598C214.963 117.158 214.984 116.768 214.984 116.43C214.984 116.21 214.976 115.96 214.959 115.681C214.951 115.401 214.921 115.122 214.87 114.843C214.819 114.555 214.747 114.276 214.654 114.005C214.561 113.734 214.438 113.493 214.286 113.281C214.134 113.061 213.943 112.888 213.715 112.761C213.486 112.634 213.215 112.57 212.902 112.57ZM212.902 111.809C213.512 111.809 214.011 111.944 214.4 112.215C214.79 112.477 215.094 112.824 215.314 113.256C215.535 113.688 215.683 114.183 215.759 114.741C215.843 115.291 215.886 115.854 215.886 116.43C215.886 117.005 215.843 117.568 215.759 118.118C215.683 118.668 215.535 119.163 215.314 119.604C215.094 120.044 214.79 120.399 214.4 120.67C214.011 120.932 213.512 121.063 212.902 121.063C212.285 121.063 211.781 120.932 211.392 120.67C211.002 120.399 210.698 120.044 210.478 119.604C210.257 119.163 210.105 118.668 210.021 118.118C209.944 117.568 209.906 117.005 209.906 116.43C209.906 115.854 209.944 115.291 210.021 114.741C210.105 114.183 210.257 113.688 210.478 113.256C210.698 112.824 211.002 112.477 211.392 112.215C211.781 111.944 212.285 111.809 212.902 111.809ZM218.577 121.241H217.282V119.87H218.577V121.241ZM222.97 112.57C222.648 112.57 222.373 112.634 222.145 112.761C221.924 112.888 221.734 113.061 221.573 113.281C221.421 113.493 221.298 113.734 221.205 114.005C221.12 114.276 221.053 114.555 221.002 114.843C220.951 115.122 220.917 115.401 220.9 115.681C220.892 115.96 220.888 116.21 220.888 116.43C220.888 116.768 220.905 117.158 220.938 117.598C220.981 118.038 221.07 118.457 221.205 118.854C221.349 119.252 221.556 119.591 221.827 119.87C222.106 120.141 222.487 120.276 222.97 120.276C223.444 120.276 223.82 120.141 224.1 119.87C224.379 119.591 224.586 119.252 224.722 118.854C224.866 118.457 224.954 118.038 224.988 117.598C225.031 117.158 225.052 116.768 225.052 116.43C225.052 116.21 225.043 115.96 225.026 115.681C225.018 115.401 224.988 115.122 224.938 114.843C224.887 114.555 224.815 114.276 224.722 114.005C224.629 113.734 224.506 113.493 224.354 113.281C224.201 113.061 224.011 112.888 223.782 112.761C223.554 112.634 223.283 112.57 222.97 112.57ZM222.97 111.809C223.579 111.809 224.078 111.944 224.468 112.215C224.857 112.477 225.162 112.824 225.382 113.256C225.602 113.688 225.75 114.183 225.826 114.741C225.911 115.291 225.953 115.854 225.953 116.43C225.953 117.005 225.911 117.568 225.826 118.118C225.75 118.668 225.602 119.163 225.382 119.604C225.162 120.044 224.857 120.399 224.468 120.67C224.078 120.932 223.579 121.063 222.97 121.063C222.352 121.063 221.848 120.932 221.459 120.67C221.07 120.399 220.765 120.044 220.545 119.604C220.325 119.163 220.173 118.668 220.088 118.118C220.012 117.568 219.974 117.005 219.974 116.43C219.974 115.854 220.012 115.291 220.088 114.741C220.173 114.183 220.325 113.688 220.545 113.256C220.765 112.824 221.07 112.477 221.459 112.215C221.848 111.944 222.352 111.809 222.97 111.809ZM231.222 112.57C230.68 112.57 230.236 112.697 229.889 112.951C229.55 113.197 229.279 113.518 229.076 113.916C228.882 114.305 228.746 114.741 228.67 115.224C228.602 115.698 228.568 116.163 228.568 116.62H228.594C228.797 116.129 229.11 115.761 229.533 115.516C229.956 115.27 230.435 115.147 230.968 115.147C231.408 115.147 231.797 115.224 232.136 115.376C232.483 115.52 232.775 115.727 233.012 115.998C233.249 116.26 233.426 116.574 233.545 116.938C233.663 117.301 233.723 117.699 233.723 118.131C233.723 118.562 233.655 118.965 233.52 119.337C233.393 119.701 233.206 120.022 232.961 120.302C232.724 120.573 232.428 120.788 232.072 120.949C231.725 121.102 231.332 121.178 230.892 121.178C230.265 121.178 229.745 121.059 229.33 120.822C228.915 120.585 228.585 120.272 228.34 119.883C228.094 119.485 227.921 119.032 227.819 118.524C227.718 118.017 227.667 117.492 227.667 116.95C227.667 116.375 227.714 115.782 227.807 115.173C227.9 114.563 228.077 114.009 228.34 113.51C228.602 113.01 228.958 112.604 229.406 112.291C229.863 111.969 230.456 111.809 231.184 111.809C231.607 111.809 231.983 111.847 232.313 111.923C232.652 111.999 232.944 112.071 233.189 112.139L233.05 112.938C232.957 112.888 232.838 112.841 232.694 112.799C232.559 112.748 232.407 112.71 232.237 112.685C232.076 112.651 231.907 112.625 231.729 112.608C231.552 112.583 231.382 112.57 231.222 112.57ZM230.93 115.871C230.574 115.871 230.257 115.935 229.978 116.062C229.707 116.18 229.478 116.345 229.292 116.557C229.106 116.768 228.966 117.018 228.873 117.306C228.78 117.593 228.733 117.907 228.733 118.245C228.733 118.533 228.784 118.808 228.886 119.07C228.987 119.324 229.127 119.553 229.305 119.756C229.482 119.951 229.694 120.107 229.939 120.226C230.185 120.344 230.456 120.403 230.752 120.403C231.082 120.403 231.374 120.348 231.628 120.238C231.89 120.128 232.106 119.976 232.275 119.781C232.453 119.578 232.584 119.341 232.669 119.07C232.762 118.799 232.809 118.503 232.809 118.182C232.809 117.885 232.771 117.602 232.694 117.331C232.627 117.052 232.517 116.806 232.364 116.595C232.212 116.375 232.017 116.201 231.78 116.074C231.543 115.939 231.26 115.871 230.93 115.871ZM238.864 112.57C238.323 112.57 237.878 112.697 237.531 112.951C237.193 113.197 236.922 113.518 236.719 113.916C236.524 114.305 236.389 114.741 236.312 115.224C236.245 115.698 236.211 116.163 236.211 116.62H236.236C236.439 116.129 236.753 115.761 237.176 115.516C237.599 115.27 238.077 115.147 238.61 115.147C239.05 115.147 239.44 115.224 239.778 115.376C240.125 115.52 240.417 115.727 240.654 115.998C240.891 116.26 241.069 116.574 241.188 116.938C241.306 117.301 241.365 117.699 241.365 118.131C241.365 118.562 241.298 118.965 241.162 119.337C241.035 119.701 240.849 120.022 240.604 120.302C240.367 120.573 240.07 120.788 239.715 120.949C239.368 121.102 238.974 121.178 238.534 121.178C237.908 121.178 237.387 121.059 236.973 120.822C236.558 120.585 236.228 120.272 235.982 119.883C235.737 119.485 235.563 119.032 235.462 118.524C235.36 118.017 235.31 117.492 235.31 116.95C235.31 116.375 235.356 115.782 235.449 115.173C235.542 114.563 235.72 114.009 235.982 113.51C236.245 113.01 236.6 112.604 237.049 112.291C237.506 111.969 238.098 111.809 238.826 111.809C239.249 111.809 239.626 111.847 239.956 111.923C240.295 111.999 240.587 112.071 240.832 112.139L240.692 112.938C240.599 112.888 240.481 112.841 240.337 112.799C240.201 112.748 240.049 112.71 239.88 112.685C239.719 112.651 239.55 112.625 239.372 112.608C239.194 112.583 239.025 112.57 238.864 112.57ZM238.572 115.871C238.217 115.871 237.899 115.935 237.62 116.062C237.349 116.18 237.121 116.345 236.935 116.557C236.748 116.768 236.609 117.018 236.516 117.306C236.423 117.593 236.376 117.907 236.376 118.245C236.376 118.533 236.427 118.808 236.528 119.07C236.63 119.324 236.77 119.553 236.947 119.756C237.125 119.951 237.337 120.107 237.582 120.226C237.827 120.344 238.098 120.403 238.395 120.403C238.725 120.403 239.017 120.348 239.271 120.238C239.533 120.128 239.749 119.976 239.918 119.781C240.096 119.578 240.227 119.341 240.312 119.07C240.405 118.799 240.451 118.503 240.451 118.182C240.451 117.885 240.413 117.602 240.337 117.331C240.269 117.052 240.159 116.806 240.007 116.595C239.854 116.375 239.66 116.201 239.423 116.074C239.186 115.939 238.902 115.871 238.572 115.871Z" fill="#333333"/>
    <path d="M232.867 141.57C232.546 141.57 232.271 141.634 232.042 141.761C231.822 141.888 231.632 142.061 231.471 142.281C231.318 142.493 231.196 142.734 231.103 143.005C231.018 143.276 230.95 143.555 230.899 143.843C230.849 144.122 230.815 144.401 230.798 144.681C230.789 144.96 230.785 145.21 230.785 145.43C230.785 145.768 230.802 146.158 230.836 146.598C230.878 147.038 230.967 147.457 231.103 147.854C231.246 148.252 231.454 148.591 231.725 148.87C232.004 149.141 232.385 149.276 232.867 149.276C233.341 149.276 233.718 149.141 233.997 148.87C234.276 148.591 234.484 148.252 234.619 147.854C234.763 147.457 234.852 147.038 234.886 146.598C234.928 146.158 234.949 145.768 234.949 145.43C234.949 145.21 234.941 144.96 234.924 144.681C234.915 144.401 234.886 144.122 234.835 143.843C234.784 143.555 234.712 143.276 234.619 143.005C234.526 142.734 234.403 142.493 234.251 142.281C234.099 142.061 233.908 141.888 233.68 141.761C233.451 141.634 233.18 141.57 232.867 141.57ZM232.867 140.809C233.477 140.809 233.976 140.944 234.365 141.215C234.755 141.477 235.059 141.824 235.279 142.256C235.499 142.688 235.647 143.183 235.724 143.741C235.808 144.291 235.851 144.854 235.851 145.43C235.851 146.005 235.808 146.568 235.724 147.118C235.647 147.668 235.499 148.163 235.279 148.604C235.059 149.044 234.755 149.399 234.365 149.67C233.976 149.932 233.477 150.063 232.867 150.063C232.249 150.063 231.746 149.932 231.356 149.67C230.967 149.399 230.662 149.044 230.442 148.604C230.222 148.163 230.07 147.668 229.985 147.118C229.909 146.568 229.871 146.005 229.871 145.43C229.871 144.854 229.909 144.291 229.985 143.741C230.07 143.183 230.222 142.688 230.442 142.256C230.662 141.824 230.967 141.477 231.356 141.215C231.746 140.944 232.249 140.809 232.867 140.809ZM238.542 150.241H237.247V148.87H238.542V150.241ZM242.935 141.57C242.613 141.57 242.338 141.634 242.109 141.761C241.889 141.888 241.699 142.061 241.538 142.281C241.386 142.493 241.263 142.734 241.17 143.005C241.085 143.276 241.018 143.555 240.967 143.843C240.916 144.122 240.882 144.401 240.865 144.681C240.857 144.96 240.853 145.21 240.853 145.43C240.853 145.768 240.869 146.158 240.903 146.598C240.946 147.038 241.035 147.457 241.17 147.854C241.314 148.252 241.521 148.591 241.792 148.87C242.071 149.141 242.452 149.276 242.935 149.276C243.409 149.276 243.785 149.141 244.064 148.87C244.344 148.591 244.551 148.252 244.687 147.854C244.83 147.457 244.919 147.038 244.953 146.598C244.995 146.158 245.017 145.768 245.017 145.43C245.017 145.21 245.008 144.96 244.991 144.681C244.983 144.401 244.953 144.122 244.902 143.843C244.852 143.555 244.78 143.276 244.687 143.005C244.593 142.734 244.471 142.493 244.318 142.281C244.166 142.061 243.976 141.888 243.747 141.761C243.519 141.634 243.248 141.57 242.935 141.57ZM242.935 140.809C243.544 140.809 244.043 140.944 244.433 141.215C244.822 141.477 245.127 141.824 245.347 142.256C245.567 142.688 245.715 143.183 245.791 143.741C245.876 144.291 245.918 144.854 245.918 145.43C245.918 146.005 245.876 146.568 245.791 147.118C245.715 147.668 245.567 148.163 245.347 148.604C245.127 149.044 244.822 149.399 244.433 149.67C244.043 149.932 243.544 150.063 242.935 150.063C242.317 150.063 241.813 149.932 241.424 149.67C241.035 149.399 240.73 149.044 240.51 148.604C240.29 148.163 240.137 147.668 240.053 147.118C239.977 146.568 239.938 146.005 239.938 145.43C239.938 144.854 239.977 144.291 240.053 143.741C240.137 143.183 240.29 142.688 240.51 142.256C240.73 141.824 241.035 141.477 241.424 141.215C241.813 140.944 242.317 140.809 242.935 140.809ZM252.862 140.986V141.748L249.358 150H248.368L251.974 141.773H247.124V140.986H252.862ZM257.255 141.57C256.933 141.57 256.658 141.634 256.43 141.761C256.21 141.888 256.019 142.061 255.858 142.281C255.706 142.493 255.583 142.734 255.49 143.005C255.406 143.276 255.338 143.555 255.287 143.843C255.236 144.122 255.202 144.401 255.186 144.681C255.177 144.96 255.173 145.21 255.173 145.43C255.173 145.768 255.19 146.158 255.224 146.598C255.266 147.038 255.355 147.457 255.49 147.854C255.634 148.252 255.841 148.591 256.112 148.87C256.392 149.141 256.772 149.276 257.255 149.276C257.729 149.276 258.105 149.141 258.385 148.87C258.664 148.591 258.871 148.252 259.007 147.854C259.151 147.457 259.24 147.038 259.273 146.598C259.316 146.158 259.337 145.768 259.337 145.43C259.337 145.21 259.328 144.96 259.312 144.681C259.303 144.401 259.273 144.122 259.223 143.843C259.172 143.555 259.1 143.276 259.007 143.005C258.914 142.734 258.791 142.493 258.639 142.281C258.486 142.061 258.296 141.888 258.067 141.761C257.839 141.634 257.568 141.57 257.255 141.57ZM257.255 140.809C257.864 140.809 258.364 140.944 258.753 141.215C259.142 141.477 259.447 141.824 259.667 142.256C259.887 142.688 260.035 143.183 260.111 143.741C260.196 144.291 260.238 144.854 260.238 145.43C260.238 146.005 260.196 146.568 260.111 147.118C260.035 147.668 259.887 148.163 259.667 148.604C259.447 149.044 259.142 149.399 258.753 149.67C258.364 149.932 257.864 150.063 257.255 150.063C256.637 150.063 256.133 149.932 255.744 149.67C255.355 149.399 255.05 149.044 254.83 148.604C254.61 148.163 254.458 147.668 254.373 147.118C254.297 146.568 254.259 146.005 254.259 145.43C254.259 144.854 254.297 144.291 254.373 143.741C254.458 143.183 254.61 142.688 254.83 142.256C255.05 141.824 255.355 141.477 255.744 141.215C256.133 140.944 256.637 140.809 257.255 140.809Z" fill="#333333"/>
    <path d="M270.553 169.57C270.231 169.57 269.956 169.634 269.728 169.761C269.507 169.888 269.317 170.061 269.156 170.281C269.004 170.493 268.881 170.734 268.788 171.005C268.703 171.276 268.636 171.555 268.585 171.843C268.534 172.122 268.5 172.401 268.483 172.681C268.475 172.96 268.471 173.21 268.471 173.43C268.471 173.768 268.488 174.158 268.521 174.598C268.564 175.038 268.653 175.457 268.788 175.854C268.932 176.252 269.139 176.591 269.41 176.87C269.689 177.141 270.07 177.276 270.553 177.276C271.027 177.276 271.403 177.141 271.683 176.87C271.962 176.591 272.169 176.252 272.305 175.854C272.449 175.457 272.537 175.038 272.571 174.598C272.614 174.158 272.635 173.768 272.635 173.43C272.635 173.21 272.626 172.96 272.609 172.681C272.601 172.401 272.571 172.122 272.521 171.843C272.47 171.555 272.398 171.276 272.305 171.005C272.212 170.734 272.089 170.493 271.937 170.281C271.784 170.061 271.594 169.888 271.365 169.761C271.137 169.634 270.866 169.57 270.553 169.57ZM270.553 168.809C271.162 168.809 271.661 168.944 272.051 169.215C272.44 169.477 272.745 169.824 272.965 170.256C273.185 170.688 273.333 171.183 273.409 171.741C273.494 172.291 273.536 172.854 273.536 173.43C273.536 174.005 273.494 174.568 273.409 175.118C273.333 175.668 273.185 176.163 272.965 176.604C272.745 177.044 272.44 177.399 272.051 177.67C271.661 177.932 271.162 178.063 270.553 178.063C269.935 178.063 269.431 177.932 269.042 177.67C268.653 177.399 268.348 177.044 268.128 176.604C267.908 176.163 267.756 175.668 267.671 175.118C267.595 174.568 267.557 174.005 267.557 173.43C267.557 172.854 267.595 172.291 267.671 171.741C267.756 171.183 267.908 170.688 268.128 170.256C268.348 169.824 268.653 169.477 269.042 169.215C269.431 168.944 269.935 168.809 270.553 168.809ZM276.228 178.241H274.933V176.87H276.228V178.241ZM280.62 169.57C280.299 169.57 280.023 169.634 279.795 169.761C279.575 169.888 279.384 170.061 279.224 170.281C279.071 170.493 278.949 170.734 278.855 171.005C278.771 171.276 278.703 171.555 278.652 171.843C278.602 172.122 278.568 172.401 278.551 172.681C278.542 172.96 278.538 173.21 278.538 173.43C278.538 173.768 278.555 174.158 278.589 174.598C278.631 175.038 278.72 175.457 278.855 175.854C278.999 176.252 279.207 176.591 279.478 176.87C279.757 177.141 280.138 177.276 280.62 177.276C281.094 177.276 281.471 177.141 281.75 176.87C282.029 176.591 282.237 176.252 282.372 175.854C282.516 175.457 282.605 175.038 282.639 174.598C282.681 174.158 282.702 173.768 282.702 173.43C282.702 173.21 282.694 172.96 282.677 172.681C282.668 172.401 282.639 172.122 282.588 171.843C282.537 171.555 282.465 171.276 282.372 171.005C282.279 170.734 282.156 170.493 282.004 170.281C281.852 170.061 281.661 169.888 281.433 169.761C281.204 169.634 280.933 169.57 280.62 169.57ZM280.62 168.809C281.229 168.809 281.729 168.944 282.118 169.215C282.507 169.477 282.812 169.824 283.032 170.256C283.252 170.688 283.4 171.183 283.477 171.741C283.561 172.291 283.604 172.854 283.604 173.43C283.604 174.005 283.561 174.568 283.477 175.118C283.4 175.668 283.252 176.163 283.032 176.604C282.812 177.044 282.507 177.399 282.118 177.67C281.729 177.932 281.229 178.063 280.62 178.063C280.002 178.063 279.499 177.932 279.109 177.67C278.72 177.399 278.415 177.044 278.195 176.604C277.975 176.163 277.823 175.668 277.738 175.118C277.662 174.568 277.624 174.005 277.624 173.43C277.624 172.854 277.662 172.291 277.738 171.741C277.823 171.183 277.975 170.688 278.195 170.256C278.415 169.824 278.72 169.477 279.109 169.215C279.499 168.944 280.002 168.809 280.62 168.809ZM290.548 168.986V169.748L287.044 178H286.054L289.659 169.773H284.81V168.986H290.548ZM297.365 168.986V169.748L293.861 178H292.871L296.477 169.773H291.627V168.986H297.365Z" fill="#333333"/>
    <line x1="67.5" y1="24.0001" x2="67.5" y2="182" stroke="#666666"/>
    <line x1="307" y1="181" x2="307" y2="24" stroke="#DDDDDD" stroke-width="2" stroke-dasharray="5 5"/>
    <path d="M76.5312 194.625C76.1354 194.625 75.7969 194.703 75.5156 194.859C75.2448 195.016 75.0104 195.229 74.8125 195.5C74.625 195.76 74.474 196.057 74.3594 196.391C74.2552 196.724 74.1719 197.068 74.1094 197.422C74.0469 197.766 74.0052 198.109 73.9844 198.453C73.974 198.797 73.9688 199.104 73.9688 199.375C73.9688 199.792 73.9896 200.271 74.0312 200.812C74.0833 201.354 74.1927 201.87 74.3594 202.359C74.5365 202.849 74.7917 203.266 75.125 203.609C75.4688 203.943 75.9375 204.109 76.5312 204.109C77.1146 204.109 77.5781 203.943 77.9219 203.609C78.2656 203.266 78.5208 202.849 78.6875 202.359C78.8646 201.87 78.974 201.354 79.0156 200.812C79.0677 200.271 79.0938 199.792 79.0938 199.375C79.0938 199.104 79.0833 198.797 79.0625 198.453C79.0521 198.109 79.0156 197.766 78.9531 197.422C78.8906 197.068 78.8021 196.724 78.6875 196.391C78.5729 196.057 78.4219 195.76 78.2344 195.5C78.0469 195.229 77.8125 195.016 77.5312 194.859C77.25 194.703 76.9167 194.625 76.5312 194.625ZM76.5312 193.688C77.2812 193.688 77.8958 193.854 78.375 194.188C78.8542 194.51 79.2292 194.938 79.5 195.469C79.7708 196 79.9531 196.609 80.0469 197.297C80.151 197.974 80.2031 198.667 80.2031 199.375C80.2031 200.083 80.151 200.776 80.0469 201.453C79.9531 202.13 79.7708 202.74 79.5 203.281C79.2292 203.823 78.8542 204.26 78.375 204.594C77.8958 204.917 77.2812 205.078 76.5312 205.078C75.7708 205.078 75.151 204.917 74.6719 204.594C74.1927 204.26 73.8177 203.823 73.5469 203.281C73.276 202.74 73.0885 202.13 72.9844 201.453C72.8906 200.776 72.8438 200.083 72.8438 199.375C72.8438 198.667 72.8906 197.974 72.9844 197.297C73.0885 196.609 73.276 196 73.5469 195.469C73.8177 194.938 74.1927 194.51 74.6719 194.188C75.151 193.854 75.7708 193.688 76.5312 193.688ZM83.5156 205.297H81.9219V203.609H83.5156V205.297ZM88.9219 194.625C88.526 194.625 88.1875 194.703 87.9062 194.859C87.6354 195.016 87.401 195.229 87.2031 195.5C87.0156 195.76 86.8646 196.057 86.75 196.391C86.6458 196.724 86.5625 197.068 86.5 197.422C86.4375 197.766 86.3958 198.109 86.375 198.453C86.3646 198.797 86.3594 199.104 86.3594 199.375C86.3594 199.792 86.3802 200.271 86.4219 200.812C86.474 201.354 86.5833 201.87 86.75 202.359C86.9271 202.849 87.1823 203.266 87.5156 203.609C87.8594 203.943 88.3281 204.109 88.9219 204.109C89.5052 204.109 89.9688 203.943 90.3125 203.609C90.6562 203.266 90.9115 202.849 91.0781 202.359C91.2552 201.87 91.3646 201.354 91.4062 200.812C91.4583 200.271 91.4844 199.792 91.4844 199.375C91.4844 199.104 91.474 198.797 91.4531 198.453C91.4427 198.109 91.4062 197.766 91.3438 197.422C91.2812 197.068 91.1927 196.724 91.0781 196.391C90.9635 196.057 90.8125 195.76 90.625 195.5C90.4375 195.229 90.2031 195.016 89.9219 194.859C89.6406 194.703 89.3073 194.625 88.9219 194.625ZM88.9219 193.688C89.6719 193.688 90.2865 193.854 90.7656 194.188C91.2448 194.51 91.6198 194.938 91.8906 195.469C92.1615 196 92.3438 196.609 92.4375 197.297C92.5417 197.974 92.5938 198.667 92.5938 199.375C92.5938 200.083 92.5417 200.776 92.4375 201.453C92.3438 202.13 92.1615 202.74 91.8906 203.281C91.6198 203.823 91.2448 204.26 90.7656 204.594C90.2865 204.917 89.6719 205.078 88.9219 205.078C88.1615 205.078 87.5417 204.917 87.0625 204.594C86.5833 204.26 86.2083 203.823 85.9375 203.281C85.6667 202.74 85.4792 202.13 85.375 201.453C85.2812 200.776 85.2344 200.083 85.2344 199.375C85.2344 198.667 85.2812 197.974 85.375 197.297C85.4792 196.609 85.6667 196 85.9375 195.469C86.2083 194.938 86.5833 194.51 87.0625 194.188C87.5417 193.854 88.1615 193.688 88.9219 193.688ZM98.1562 194.625C97.7604 194.625 97.4219 194.703 97.1406 194.859C96.8698 195.016 96.6354 195.229 96.4375 195.5C96.25 195.76 96.099 196.057 95.9844 196.391C95.8802 196.724 95.7969 197.068 95.7344 197.422C95.6719 197.766 95.6302 198.109 95.6094 198.453C95.599 198.797 95.5938 199.104 95.5938 199.375C95.5938 199.792 95.6146 200.271 95.6562 200.812C95.7083 201.354 95.8177 201.87 95.9844 202.359C96.1615 202.849 96.4167 203.266 96.75 203.609C97.0938 203.943 97.5625 204.109 98.1562 204.109C98.7396 204.109 99.2031 203.943 99.5469 203.609C99.8906 203.266 100.146 202.849 100.312 202.359C100.49 201.87 100.599 201.354 100.641 200.812C100.693 200.271 100.719 199.792 100.719 199.375C100.719 199.104 100.708 198.797 100.688 198.453C100.677 198.109 100.641 197.766 100.578 197.422C100.516 197.068 100.427 196.724 100.312 196.391C100.198 196.057 100.047 195.76 99.8594 195.5C99.6719 195.229 99.4375 195.016 99.1562 194.859C98.875 194.703 98.5417 194.625 98.1562 194.625ZM98.1562 193.688C98.9062 193.688 99.5208 193.854 100 194.188C100.479 194.51 100.854 194.938 101.125 195.469C101.396 196 101.578 196.609 101.672 197.297C101.776 197.974 101.828 198.667 101.828 199.375C101.828 200.083 101.776 200.776 101.672 201.453C101.578 202.13 101.396 202.74 101.125 203.281C100.854 203.823 100.479 204.26 100 204.594C99.5208 204.917 98.9062 205.078 98.1562 205.078C97.3958 205.078 96.776 204.917 96.2969 204.594C95.8177 204.26 95.4427 203.823 95.1719 203.281C94.901 202.74 94.7135 202.13 94.6094 201.453C94.5156 200.776 94.4688 200.083 94.4688 199.375C94.4688 198.667 94.5156 197.974 94.6094 197.297C94.7135 196.609 94.901 196 95.1719 195.469C95.4427 194.938 95.8177 194.51 96.2969 194.188C96.776 193.854 97.3958 193.688 98.1562 193.688ZM107.391 194.625C106.995 194.625 106.656 194.703 106.375 194.859C106.104 195.016 105.87 195.229 105.672 195.5C105.484 195.76 105.333 196.057 105.219 196.391C105.115 196.724 105.031 197.068 104.969 197.422C104.906 197.766 104.865 198.109 104.844 198.453C104.833 198.797 104.828 199.104 104.828 199.375C104.828 199.792 104.849 200.271 104.891 200.812C104.943 201.354 105.052 201.87 105.219 202.359C105.396 202.849 105.651 203.266 105.984 203.609C106.328 203.943 106.797 204.109 107.391 204.109C107.974 204.109 108.438 203.943 108.781 203.609C109.125 203.266 109.38 202.849 109.547 202.359C109.724 201.87 109.833 201.354 109.875 200.812C109.927 200.271 109.953 199.792 109.953 199.375C109.953 199.104 109.943 198.797 109.922 198.453C109.911 198.109 109.875 197.766 109.812 197.422C109.75 197.068 109.661 196.724 109.547 196.391C109.432 196.057 109.281 195.76 109.094 195.5C108.906 195.229 108.672 195.016 108.391 194.859C108.109 194.703 107.776 194.625 107.391 194.625ZM107.391 193.688C108.141 193.688 108.755 193.854 109.234 194.188C109.714 194.51 110.089 194.938 110.359 195.469C110.63 196 110.812 196.609 110.906 197.297C111.01 197.974 111.062 198.667 111.062 199.375C111.062 200.083 111.01 200.776 110.906 201.453C110.812 202.13 110.63 202.74 110.359 203.281C110.089 203.823 109.714 204.26 109.234 204.594C108.755 204.917 108.141 205.078 107.391 205.078C106.63 205.078 106.01 204.917 105.531 204.594C105.052 204.26 104.677 203.823 104.406 203.281C104.135 202.74 103.948 202.13 103.844 201.453C103.75 200.776 103.703 200.083 103.703 199.375C103.703 198.667 103.75 197.974 103.844 197.297C103.948 196.609 104.135 196 104.406 195.469C104.677 194.938 105.052 194.51 105.531 194.188C106.01 193.854 106.63 193.688 107.391 193.688Z" fill="#666666"/>
    <path d="M295.672 194.625C295.276 194.625 294.938 194.703 294.656 194.859C294.385 195.016 294.151 195.229 293.953 195.5C293.766 195.76 293.615 196.057 293.5 196.391C293.396 196.724 293.312 197.068 293.25 197.422C293.188 197.766 293.146 198.109 293.125 198.453C293.115 198.797 293.109 199.104 293.109 199.375C293.109 199.792 293.13 200.271 293.172 200.812C293.224 201.354 293.333 201.87 293.5 202.359C293.677 202.849 293.932 203.266 294.266 203.609C294.609 203.943 295.078 204.109 295.672 204.109C296.255 204.109 296.719 203.943 297.062 203.609C297.406 203.266 297.661 202.849 297.828 202.359C298.005 201.87 298.115 201.354 298.156 200.812C298.208 200.271 298.234 199.792 298.234 199.375C298.234 199.104 298.224 198.797 298.203 198.453C298.193 198.109 298.156 197.766 298.094 197.422C298.031 197.068 297.943 196.724 297.828 196.391C297.714 196.057 297.562 195.76 297.375 195.5C297.188 195.229 296.953 195.016 296.672 194.859C296.391 194.703 296.057 194.625 295.672 194.625ZM295.672 193.688C296.422 193.688 297.036 193.854 297.516 194.188C297.995 194.51 298.37 194.938 298.641 195.469C298.911 196 299.094 196.609 299.188 197.297C299.292 197.974 299.344 198.667 299.344 199.375C299.344 200.083 299.292 200.776 299.188 201.453C299.094 202.13 298.911 202.74 298.641 203.281C298.37 203.823 297.995 204.26 297.516 204.594C297.036 204.917 296.422 205.078 295.672 205.078C294.911 205.078 294.292 204.917 293.812 204.594C293.333 204.26 292.958 203.823 292.688 203.281C292.417 202.74 292.229 202.13 292.125 201.453C292.031 200.776 291.984 200.083 291.984 199.375C291.984 198.667 292.031 197.974 292.125 197.297C292.229 196.609 292.417 196 292.688 195.469C292.958 194.938 293.333 194.51 293.812 194.188C294.292 193.854 294.911 193.688 295.672 193.688ZM302.656 205.297H301.062V203.609H302.656V205.297ZM308.062 194.625C307.667 194.625 307.328 194.703 307.047 194.859C306.776 195.016 306.542 195.229 306.344 195.5C306.156 195.76 306.005 196.057 305.891 196.391C305.786 196.724 305.703 197.068 305.641 197.422C305.578 197.766 305.536 198.109 305.516 198.453C305.505 198.797 305.5 199.104 305.5 199.375C305.5 199.792 305.521 200.271 305.562 200.812C305.615 201.354 305.724 201.87 305.891 202.359C306.068 202.849 306.323 203.266 306.656 203.609C307 203.943 307.469 204.109 308.062 204.109C308.646 204.109 309.109 203.943 309.453 203.609C309.797 203.266 310.052 202.849 310.219 202.359C310.396 201.87 310.505 201.354 310.547 200.812C310.599 200.271 310.625 199.792 310.625 199.375C310.625 199.104 310.615 198.797 310.594 198.453C310.583 198.109 310.547 197.766 310.484 197.422C310.422 197.068 310.333 196.724 310.219 196.391C310.104 196.057 309.953 195.76 309.766 195.5C309.578 195.229 309.344 195.016 309.062 194.859C308.781 194.703 308.448 194.625 308.062 194.625ZM308.062 193.688C308.812 193.688 309.427 193.854 309.906 194.188C310.385 194.51 310.76 194.938 311.031 195.469C311.302 196 311.484 196.609 311.578 197.297C311.682 197.974 311.734 198.667 311.734 199.375C311.734 200.083 311.682 200.776 311.578 201.453C311.484 202.13 311.302 202.74 311.031 203.281C310.76 203.823 310.385 204.26 309.906 204.594C309.427 204.917 308.812 205.078 308.062 205.078C307.302 205.078 306.682 204.917 306.203 204.594C305.724 204.26 305.349 203.823 305.078 203.281C304.807 202.74 304.62 202.13 304.516 201.453C304.422 200.776 304.375 200.083 304.375 199.375C304.375 198.667 304.422 197.974 304.516 197.297C304.62 196.609 304.807 196 305.078 195.469C305.349 194.938 305.724 194.51 306.203 194.188C306.682 193.854 307.302 193.688 308.062 193.688ZM320.281 193.906V194.844L315.969 205H314.75L319.188 194.875H313.219V193.906H320.281ZM325.562 204.266C325.99 204.266 326.359 204.188 326.672 204.031C326.995 203.875 327.26 203.667 327.469 203.406C327.677 203.135 327.833 202.823 327.938 202.469C328.042 202.115 328.094 201.74 328.094 201.344C328.094 200.948 328.042 200.583 327.938 200.25C327.833 199.917 327.677 199.63 327.469 199.391C327.271 199.151 327.016 198.969 326.703 198.844C326.401 198.708 326.042 198.641 325.625 198.641C325.354 198.641 325.094 198.682 324.844 198.766C324.604 198.839 324.385 198.948 324.188 199.094C323.99 199.24 323.818 199.422 323.672 199.641C323.536 199.849 323.438 200.083 323.375 200.344H322.312L322.562 193.906H328.656V194.875H323.562L323.375 198.828L323.406 198.859C323.719 198.495 324.078 198.214 324.484 198.016C324.891 197.807 325.344 197.703 325.844 197.703C326.365 197.703 326.833 197.802 327.25 198C327.667 198.198 328.021 198.469 328.312 198.812C328.604 199.146 328.828 199.536 328.984 199.984C329.141 200.422 329.219 200.891 329.219 201.391C329.219 201.922 329.135 202.422 328.969 202.891C328.802 203.349 328.568 203.755 328.266 204.109C327.964 204.453 327.589 204.724 327.141 204.922C326.703 205.12 326.214 205.219 325.672 205.219C325.005 205.219 324.422 205.146 323.922 205C323.422 204.865 322.984 204.724 322.609 204.578L322.656 203.531C322.833 203.625 323.036 203.719 323.266 203.812C323.505 203.896 323.75 203.974 324 204.047C324.26 204.109 324.526 204.161 324.797 204.203C325.068 204.245 325.323 204.266 325.562 204.266Z" fill="#666666"/>
    <line x1="68" y1="181.5" x2="318" y2="181.5" stroke="#666666"/>
    <path d="M296.488 5.64062H298.074C298.348 5.64062 298.63 5.62695 298.922 5.59961C299.214 5.56315 299.478 5.49479 299.715 5.39453C299.961 5.29427 300.161 5.15299 300.316 4.9707C300.471 4.7793 300.549 4.52865 300.549 4.21875C300.549 3.88151 300.471 3.62174 300.316 3.43945C300.161 3.24805 299.965 3.11133 299.729 3.0293C299.501 2.94727 299.25 2.90169 298.977 2.89258C298.712 2.87435 298.466 2.86523 298.238 2.86523H296.488V5.64062ZM300.139 6.14648C300.403 6.19206 300.631 6.29232 300.822 6.44727C301.023 6.5931 301.187 6.76628 301.314 6.9668C301.442 7.1582 301.538 7.36784 301.602 7.5957C301.665 7.81445 301.706 8.01953 301.725 8.21094C301.743 8.47526 301.766 8.75781 301.793 9.05859C301.82 9.35026 301.852 9.62826 301.889 9.89258C301.934 10.1569 301.984 10.3893 302.039 10.5898C302.103 10.7904 302.176 10.9271 302.258 11H300.727C300.645 10.8086 300.581 10.6126 300.535 10.4121C300.49 10.2025 300.453 9.9974 300.426 9.79688C300.398 9.59635 300.376 9.40951 300.357 9.23633C300.348 9.05404 300.335 8.89453 300.316 8.75781C300.271 8.42969 300.225 8.15169 300.18 7.92383C300.134 7.69596 300.057 7.51367 299.947 7.37695C299.838 7.23112 299.688 7.1263 299.496 7.0625C299.305 6.98958 299.045 6.94857 298.717 6.93945H296.488V11H295.094V1.56641H298.443C298.89 1.56641 299.323 1.60742 299.742 1.68945C300.171 1.77148 300.549 1.91276 300.877 2.11328C301.214 2.3138 301.483 2.57812 301.684 2.90625C301.884 3.23438 301.984 3.64453 301.984 4.13672C301.984 4.42839 301.925 4.69271 301.807 4.92969C301.688 5.15755 301.538 5.35352 301.355 5.51758C301.173 5.68164 300.973 5.8138 300.754 5.91406C300.544 6.01432 300.339 6.08268 300.139 6.11914V6.14648ZM309.381 9.20898V10.5352C309.226 10.6172 309.071 10.6947 308.916 10.7676C308.761 10.8314 308.592 10.8906 308.41 10.9453C308.228 10.9909 308.023 11.0273 307.795 11.0547C307.567 11.082 307.303 11.0957 307.002 11.0957C306.382 11.0957 305.849 11.0046 305.402 10.8223C304.965 10.6309 304.6 10.3711 304.309 10.043C304.026 9.71484 303.816 9.32747 303.68 8.88086C303.552 8.42513 303.488 7.9375 303.488 7.41797C303.488 6.84375 303.57 6.33333 303.734 5.88672C303.898 5.43099 304.126 5.04362 304.418 4.72461C304.719 4.4056 305.07 4.16406 305.471 4C305.872 3.82682 306.309 3.74023 306.783 3.74023C307.303 3.74023 307.758 3.83138 308.15 4.01367C308.542 4.18685 308.866 4.42839 309.121 4.73828C309.385 5.04818 309.581 5.41276 309.709 5.83203C309.846 6.2513 309.914 6.70247 309.914 7.18555V7.85547H304.883C304.928 8.51172 305.138 9.01758 305.512 9.37305C305.885 9.72852 306.41 9.90625 307.084 9.90625C307.64 9.90625 308.096 9.83333 308.451 9.6875C308.807 9.54167 309.117 9.38216 309.381 9.20898ZM304.91 6.65234H308.533C308.515 6.13281 308.36 5.71354 308.068 5.39453C307.777 5.06641 307.362 4.90234 306.824 4.90234C306.268 4.90234 305.822 5.07096 305.484 5.4082C305.156 5.74544 304.965 6.16016 304.91 6.65234ZM315.492 0.9375V1.96289C315.365 1.93555 315.223 1.91732 315.068 1.9082C314.913 1.88997 314.795 1.88086 314.713 1.88086C314.494 1.88086 314.321 1.91276 314.193 1.97656C314.075 2.04036 313.984 2.13151 313.92 2.25C313.865 2.36849 313.829 2.50977 313.811 2.67383C313.801 2.83789 313.797 3.02018 313.797 3.2207V3.94531H315.438V5.14844H313.797V11H312.457V5.14844H311.008V3.94531H312.457V2.60547C312.457 1.32943 313.122 0.691406 314.453 0.691406C314.544 0.691406 314.699 0.714193 314.918 0.759766C315.137 0.805339 315.328 0.864583 315.492 0.9375ZM318.418 11.2598H316.654V9.48242H318.418V11.2598Z" fill="#333333"/>
</svg>
