<svg width="447" height="493" viewBox="0 0 447 493" fill="none" xmlns="http://www.w3.org/2000/svg">
    <path d="M46.0977 433.328C45.6523 433.328 45.2715 433.416 44.9551 433.592C44.6504 433.768 44.3867 434.008 44.1641 434.312C43.9531 434.605 43.7832 434.939 43.6543 435.314C43.5371 435.689 43.4434 436.076 43.373 436.475C43.3027 436.861 43.2559 437.248 43.2324 437.635C43.2207 438.021 43.2148 438.367 43.2148 438.672C43.2148 439.141 43.2383 439.68 43.2852 440.289C43.3438 440.898 43.4668 441.479 43.6543 442.029C43.8535 442.58 44.1406 443.049 44.5156 443.436C44.9023 443.811 45.4297 443.998 46.0977 443.998C46.7539 443.998 47.2754 443.811 47.6621 443.436C48.0488 443.049 48.3359 442.58 48.5234 442.029C48.7227 441.479 48.8457 440.898 48.8926 440.289C48.9512 439.68 48.9805 439.141 48.9805 438.672C48.9805 438.367 48.9688 438.021 48.9453 437.635C48.9336 437.248 48.8926 436.861 48.8223 436.475C48.752 436.076 48.6523 435.689 48.5234 435.314C48.3945 434.939 48.2246 434.605 48.0137 434.312C47.8027 434.008 47.5391 433.768 47.2227 433.592C46.9062 433.416 46.5312 433.328 46.0977 433.328ZM46.0977 432.273C46.9414 432.273 47.6328 432.461 48.1719 432.836C48.7109 433.199 49.1328 433.68 49.4375 434.277C49.7422 434.875 49.9473 435.561 50.0527 436.334C50.1699 437.096 50.2285 437.875 50.2285 438.672C50.2285 439.469 50.1699 440.248 50.0527 441.01C49.9473 441.771 49.7422 442.457 49.4375 443.066C49.1328 443.676 48.7109 444.168 48.1719 444.543C47.6328 444.906 46.9414 445.088 46.0977 445.088C45.2422 445.088 44.5449 444.906 44.0059 444.543C43.4668 444.168 43.0449 443.676 42.7402 443.066C42.4355 442.457 42.2246 441.771 42.1074 441.01C42.002 440.248 41.9492 439.469 41.9492 438.672C41.9492 437.875 42.002 437.096 42.1074 436.334C42.2246 435.561 42.4355 434.875 42.7402 434.277C43.0449 433.68 43.4668 433.199 44.0059 432.836C44.5449 432.461 45.2422 432.273 46.0977 432.273ZM53.9551 445.334H52.1621V443.436H53.9551V445.334ZM60.0371 433.328C59.5918 433.328 59.2109 433.416 58.8945 433.592C58.5898 433.768 58.3262 434.008 58.1035 434.312C57.8926 434.605 57.7227 434.939 57.5938 435.314C57.4766 435.689 57.3828 436.076 57.3125 436.475C57.2422 436.861 57.1953 437.248 57.1719 437.635C57.1602 438.021 57.1543 438.367 57.1543 438.672C57.1543 439.141 57.1777 439.68 57.2246 440.289C57.2832 440.898 57.4062 441.479 57.5938 442.029C57.793 442.58 58.0801 443.049 58.4551 443.436C58.8418 443.811 59.3691 443.998 60.0371 443.998C60.6934 443.998 61.2148 443.811 61.6016 443.436C61.9883 443.049 62.2754 442.58 62.4629 442.029C62.6621 441.479 62.7852 440.898 62.832 440.289C62.8906 439.68 62.9199 439.141 62.9199 438.672C62.9199 438.367 62.9082 438.021 62.8848 437.635C62.873 437.248 62.832 436.861 62.7617 436.475C62.6914 436.076 62.5918 435.689 62.4629 435.314C62.334 434.939 62.1641 434.605 61.9531 434.312C61.7422 434.008 61.4785 433.768 61.1621 433.592C60.8457 433.416 60.4707 433.328 60.0371 433.328ZM60.0371 432.273C60.8809 432.273 61.5723 432.461 62.1113 432.836C62.6504 433.199 63.0723 433.68 63.377 434.277C63.6816 434.875 63.8867 435.561 63.9922 436.334C64.1094 437.096 64.168 437.875 64.168 438.672C64.168 439.469 64.1094 440.248 63.9922 441.01C63.8867 441.771 63.6816 442.457 63.377 443.066C63.0723 443.676 62.6504 444.168 62.1113 444.543C61.5723 444.906 60.8809 445.088 60.0371 445.088C59.1816 445.088 58.4844 444.906 57.9453 444.543C57.4062 444.168 56.9844 443.676 56.6797 443.066C56.375 442.457 56.1641 441.771 56.0469 441.01C55.9414 440.248 55.8887 439.469 55.8887 438.672C55.8887 437.875 55.9414 437.096 56.0469 436.334C56.1641 435.561 56.375 434.875 56.6797 434.277C56.9844 433.68 57.4062 433.199 57.9453 432.836C58.4844 432.461 59.1816 432.273 60.0371 432.273ZM70.4258 433.328C69.9805 433.328 69.5996 433.416 69.2832 433.592C68.9785 433.768 68.7148 434.008 68.4922 434.312C68.2812 434.605 68.1113 434.939 67.9824 435.314C67.8652 435.689 67.7715 436.076 67.7012 436.475C67.6309 436.861 67.584 437.248 67.5605 437.635C67.5488 438.021 67.543 438.367 67.543 438.672C67.543 439.141 67.5664 439.68 67.6133 440.289C67.6719 440.898 67.7949 441.479 67.9824 442.029C68.1816 442.58 68.4688 443.049 68.8438 443.436C69.2305 443.811 69.7578 443.998 70.4258 443.998C71.082 443.998 71.6035 443.811 71.9902 443.436C72.377 443.049 72.6641 442.58 72.8516 442.029C73.0508 441.479 73.1738 440.898 73.2207 440.289C73.2793 439.68 73.3086 439.141 73.3086 438.672C73.3086 438.367 73.2969 438.021 73.2734 437.635C73.2617 437.248 73.2207 436.861 73.1504 436.475C73.0801 436.076 72.9805 435.689 72.8516 435.314C72.7227 434.939 72.5527 434.605 72.3418 434.312C72.1309 434.008 71.8672 433.768 71.5508 433.592C71.2344 433.416 70.8594 433.328 70.4258 433.328ZM70.4258 432.273C71.2695 432.273 71.9609 432.461 72.5 432.836C73.0391 433.199 73.4609 433.68 73.7656 434.277C74.0703 434.875 74.2754 435.561 74.3809 436.334C74.498 437.096 74.5566 437.875 74.5566 438.672C74.5566 439.469 74.498 440.248 74.3809 441.01C74.2754 441.771 74.0703 442.457 73.7656 443.066C73.4609 443.676 73.0391 444.168 72.5 444.543C71.9609 444.906 71.2695 445.088 70.4258 445.088C69.5703 445.088 68.873 444.906 68.334 444.543C67.7949 444.168 67.373 443.676 67.0684 443.066C66.7637 442.457 66.5527 441.771 66.4355 441.01C66.3301 440.248 66.2773 439.469 66.2773 438.672C66.2773 437.875 66.3301 437.096 66.4355 436.334C66.5527 435.561 66.7637 434.875 67.0684 434.277C67.373 433.68 67.7949 433.199 68.334 432.836C68.873 432.461 69.5703 432.273 70.4258 432.273ZM80.8145 433.328C80.3691 433.328 79.9883 433.416 79.6719 433.592C79.3672 433.768 79.1035 434.008 78.8809 434.312C78.6699 434.605 78.5 434.939 78.3711 435.314C78.2539 435.689 78.1602 436.076 78.0898 436.475C78.0195 436.861 77.9727 437.248 77.9492 437.635C77.9375 438.021 77.9316 438.367 77.9316 438.672C77.9316 439.141 77.9551 439.68 78.002 440.289C78.0605 440.898 78.1836 441.479 78.3711 442.029C78.5703 442.58 78.8574 443.049 79.2324 443.436C79.6191 443.811 80.1465 443.998 80.8145 443.998C81.4707 443.998 81.9922 443.811 82.3789 443.436C82.7656 443.049 83.0527 442.58 83.2402 442.029C83.4395 441.479 83.5625 440.898 83.6094 440.289C83.668 439.68 83.6973 439.141 83.6973 438.672C83.6973 438.367 83.6855 438.021 83.6621 437.635C83.6504 437.248 83.6094 436.861 83.5391 436.475C83.4688 436.076 83.3691 435.689 83.2402 435.314C83.1113 434.939 82.9414 434.605 82.7305 434.312C82.5195 434.008 82.2559 433.768 81.9395 433.592C81.623 433.416 81.248 433.328 80.8145 433.328ZM80.8145 432.273C81.6582 432.273 82.3496 432.461 82.8887 432.836C83.4277 433.199 83.8496 433.68 84.1543 434.277C84.459 434.875 84.6641 435.561 84.7695 436.334C84.8867 437.096 84.9453 437.875 84.9453 438.672C84.9453 439.469 84.8867 440.248 84.7695 441.01C84.6641 441.771 84.459 442.457 84.1543 443.066C83.8496 443.676 83.4277 444.168 82.8887 444.543C82.3496 444.906 81.6582 445.088 80.8145 445.088C79.959 445.088 79.2617 444.906 78.7227 444.543C78.1836 444.168 77.7617 443.676 77.457 443.066C77.1523 442.457 76.9414 441.771 76.8242 441.01C76.7188 440.248 76.666 439.469 76.666 438.672C76.666 437.875 76.7188 437.096 76.8242 436.334C76.9414 435.561 77.1523 434.875 77.457 434.277C77.7617 433.68 78.1836 433.199 78.7227 432.836C79.2617 432.461 79.959 432.273 80.8145 432.273Z" fill="#666666"/>
    <path d="M25.8145 403.328C25.3691 403.328 24.9883 403.416 24.6719 403.592C24.3672 403.768 24.1035 404.008 23.8809 404.312C23.6699 404.605 23.5 404.939 23.3711 405.314C23.2539 405.689 23.1602 406.076 23.0898 406.475C23.0195 406.861 22.9727 407.248 22.9492 407.635C22.9375 408.021 22.9316 408.367 22.9316 408.672C22.9316 409.141 22.9551 409.68 23.002 410.289C23.0605 410.898 23.1836 411.479 23.3711 412.029C23.5703 412.58 23.8574 413.049 24.2324 413.436C24.6191 413.811 25.1465 413.998 25.8145 413.998C26.4707 413.998 26.9922 413.811 27.3789 413.436C27.7656 413.049 28.0527 412.58 28.2402 412.029C28.4395 411.479 28.5625 410.898 28.6094 410.289C28.668 409.68 28.6973 409.141 28.6973 408.672C28.6973 408.367 28.6855 408.021 28.6621 407.635C28.6504 407.248 28.6094 406.861 28.5391 406.475C28.4688 406.076 28.3691 405.689 28.2402 405.314C28.1113 404.939 27.9414 404.605 27.7305 404.312C27.5195 404.008 27.2559 403.768 26.9395 403.592C26.623 403.416 26.248 403.328 25.8145 403.328ZM25.8145 402.273C26.6582 402.273 27.3496 402.461 27.8887 402.836C28.4277 403.199 28.8496 403.68 29.1543 404.277C29.459 404.875 29.6641 405.561 29.7695 406.334C29.8867 407.096 29.9453 407.875 29.9453 408.672C29.9453 409.469 29.8867 410.248 29.7695 411.01C29.6641 411.771 29.459 412.457 29.1543 413.066C28.8496 413.676 28.4277 414.168 27.8887 414.543C27.3496 414.906 26.6582 415.088 25.8145 415.088C24.959 415.088 24.2617 414.906 23.7227 414.543C23.1836 414.168 22.7617 413.676 22.457 413.066C22.1523 412.457 21.9414 411.771 21.8242 411.01C21.7188 410.248 21.666 409.469 21.666 408.672C21.666 407.875 21.7188 407.096 21.8242 406.334C21.9414 405.561 22.1523 404.875 22.457 404.277C22.7617 403.68 23.1836 403.199 23.7227 402.836C24.2617 402.461 24.959 402.273 25.8145 402.273Z" fill="#666666"/>
    <path d="M4.24609 190.91L7.09375 188.537H8.11328V201H6.9707V189.943L4.93164 191.719L4.24609 190.91ZM15.6543 188.273C16.1582 188.273 16.6328 188.338 17.0781 188.467C17.5352 188.596 17.9336 188.795 18.2734 189.064C18.6133 189.322 18.8828 189.656 19.082 190.066C19.2812 190.465 19.3809 190.934 19.3809 191.473C19.3809 191.965 19.2695 192.469 19.0469 192.984C18.8359 193.5 18.5488 194.021 18.1855 194.549C17.834 195.064 17.4297 195.58 16.9727 196.096C16.5273 196.6 16.0703 197.086 15.6016 197.555C15.1445 198.012 14.6934 198.445 14.248 198.855C13.8145 199.254 13.4395 199.605 13.123 199.91H19.5566V201H11.7168V199.752C11.9863 199.506 12.332 199.189 12.7539 198.803C13.1758 198.404 13.6211 197.965 14.0898 197.484C14.5703 196.992 15.0508 196.477 15.5312 195.938C16.0117 195.398 16.4453 194.865 16.832 194.338C17.2188 193.811 17.5293 193.307 17.7637 192.826C18.0098 192.346 18.1328 191.918 18.1328 191.543C18.1328 191.18 18.0625 190.863 17.9219 190.594C17.793 190.312 17.6113 190.078 17.377 189.891C17.1543 189.703 16.8906 189.562 16.5859 189.469C16.2812 189.375 15.959 189.328 15.6191 189.328C15.1035 189.328 14.5645 189.439 14.002 189.662C13.4395 189.873 12.9121 190.119 12.4199 190.4L12.209 189.258C12.666 189.035 13.1816 188.818 13.7559 188.607C14.3418 188.385 14.9746 188.273 15.6543 188.273ZM25.8145 189.328C25.3691 189.328 24.9883 189.416 24.6719 189.592C24.3672 189.768 24.1035 190.008 23.8809 190.312C23.6699 190.605 23.5 190.939 23.3711 191.314C23.2539 191.689 23.1602 192.076 23.0898 192.475C23.0195 192.861 22.9727 193.248 22.9492 193.635C22.9375 194.021 22.9316 194.367 22.9316 194.672C22.9316 195.141 22.9551 195.68 23.002 196.289C23.0605 196.898 23.1836 197.479 23.3711 198.029C23.5703 198.58 23.8574 199.049 24.2324 199.436C24.6191 199.811 25.1465 199.998 25.8145 199.998C26.4707 199.998 26.9922 199.811 27.3789 199.436C27.7656 199.049 28.0527 198.58 28.2402 198.029C28.4395 197.479 28.5625 196.898 28.6094 196.289C28.668 195.68 28.6973 195.141 28.6973 194.672C28.6973 194.367 28.6855 194.021 28.6621 193.635C28.6504 193.248 28.6094 192.861 28.5391 192.475C28.4688 192.076 28.3691 191.689 28.2402 191.314C28.1113 190.939 27.9414 190.605 27.7305 190.312C27.5195 190.008 27.2559 189.768 26.9395 189.592C26.623 189.416 26.248 189.328 25.8145 189.328ZM25.8145 188.273C26.6582 188.273 27.3496 188.461 27.8887 188.836C28.4277 189.199 28.8496 189.68 29.1543 190.277C29.459 190.875 29.6641 191.561 29.7695 192.334C29.8867 193.096 29.9453 193.875 29.9453 194.672C29.9453 195.469 29.8867 196.248 29.7695 197.01C29.6641 197.771 29.459 198.457 29.1543 199.066C28.8496 199.676 28.4277 200.168 27.8887 200.543C27.3496 200.906 26.6582 201.088 25.8145 201.088C24.959 201.088 24.2617 200.906 23.7227 200.543C23.1836 200.168 22.7617 199.676 22.457 199.066C22.1523 198.457 21.9414 197.771 21.8242 197.01C21.7188 196.248 21.666 195.469 21.666 194.672C21.666 193.875 21.7188 193.096 21.8242 192.334C21.9414 191.561 22.1523 190.875 22.457 190.277C22.7617 189.68 23.1836 189.199 23.7227 188.836C24.2617 188.461 24.959 188.273 25.8145 188.273Z" fill="#666666"/>
    <path d="M5.8457 32.2734C6.34961 32.2734 6.82422 32.3379 7.26953 32.4668C7.72656 32.5957 8.125 32.7949 8.46484 33.0645C8.80469 33.3223 9.07422 33.6562 9.27344 34.0664C9.47266 34.4648 9.57227 34.9336 9.57227 35.4727C9.57227 35.9648 9.46094 36.4688 9.23828 36.9844C9.02734 37.5 8.74023 38.0215 8.37695 38.5488C8.02539 39.0645 7.62109 39.5801 7.16406 40.0957C6.71875 40.5996 6.26172 41.0859 5.79297 41.5547C5.33594 42.0117 4.88477 42.4453 4.43945 42.8555C4.00586 43.2539 3.63086 43.6055 3.31445 43.9102H9.74805V45H1.9082V43.752C2.17773 43.5059 2.52344 43.1895 2.94531 42.8027C3.36719 42.4043 3.8125 41.9648 4.28125 41.4844C4.76172 40.9922 5.24219 40.4766 5.72266 39.9375C6.20312 39.3984 6.63672 38.8652 7.02344 38.3379C7.41016 37.8105 7.7207 37.3066 7.95508 36.8262C8.20117 36.3457 8.32422 35.918 8.32422 35.543C8.32422 35.1797 8.25391 34.8633 8.11328 34.5938C7.98438 34.3125 7.80273 34.0781 7.56836 33.8906C7.3457 33.7031 7.08203 33.5625 6.77734 33.4688C6.47266 33.375 6.15039 33.3281 5.81055 33.3281C5.29492 33.3281 4.75586 33.4395 4.19336 33.6621C3.63086 33.873 3.10352 34.1191 2.61133 34.4004L2.40039 33.2578C2.85742 33.0352 3.37305 32.8184 3.94727 32.6074C4.5332 32.3848 5.16602 32.2734 5.8457 32.2734ZM16.9902 45.1582V42.0996H11.5059V40.957L16.6211 32.5195H18.168V41.1152H20.1719V42.0996H18.168V45.1582H16.9902ZM16.9902 41.1152V33.75L12.5605 41.1152H16.9902ZM25.8145 33.3281C25.3691 33.3281 24.9883 33.416 24.6719 33.5918C24.3672 33.7676 24.1035 34.0078 23.8809 34.3125C23.6699 34.6055 23.5 34.9395 23.3711 35.3145C23.2539 35.6895 23.1602 36.0762 23.0898 36.4746C23.0195 36.8613 22.9727 37.248 22.9492 37.6348C22.9375 38.0215 22.9316 38.3672 22.9316 38.6719C22.9316 39.1406 22.9551 39.6797 23.002 40.2891C23.0605 40.8984 23.1836 41.4785 23.3711 42.0293C23.5703 42.5801 23.8574 43.0488 24.2324 43.4355C24.6191 43.8105 25.1465 43.998 25.8145 43.998C26.4707 43.998 26.9922 43.8105 27.3789 43.4355C27.7656 43.0488 28.0527 42.5801 28.2402 42.0293C28.4395 41.4785 28.5625 40.8984 28.6094 40.2891C28.668 39.6797 28.6973 39.1406 28.6973 38.6719C28.6973 38.3672 28.6855 38.0215 28.6621 37.6348C28.6504 37.248 28.6094 36.8613 28.5391 36.4746C28.4688 36.0762 28.3691 35.6895 28.2402 35.3145C28.1113 34.9395 27.9414 34.6055 27.7305 34.3125C27.5195 34.0078 27.2559 33.7676 26.9395 33.5918C26.623 33.416 26.248 33.3281 25.8145 33.3281ZM25.8145 32.2734C26.6582 32.2734 27.3496 32.4609 27.8887 32.8359C28.4277 33.1992 28.8496 33.6797 29.1543 34.2773C29.459 34.875 29.6641 35.5605 29.7695 36.334C29.8867 37.0957 29.9453 37.875 29.9453 38.6719C29.9453 39.4688 29.8867 40.248 29.7695 41.0098C29.6641 41.7715 29.459 42.457 29.1543 43.0664C28.8496 43.6758 28.4277 44.168 27.8887 44.543C27.3496 44.9062 26.6582 45.0879 25.8145 45.0879C24.959 45.0879 24.2617 44.9062 23.7227 44.543C23.1836 44.168 22.7617 43.6758 22.457 43.0664C22.1523 42.457 21.9414 41.7715 21.8242 41.0098C21.7188 40.248 21.666 39.4688 21.666 38.6719C21.666 37.875 21.7188 37.0957 21.8242 36.334C21.9414 35.5605 22.1523 34.875 22.457 34.2773C22.7617 33.6797 23.1836 33.1992 23.7227 32.8359C24.2617 32.4609 24.959 32.2734 25.8145 32.2734Z" fill="#666666"/>
    <path d="M46.1367 16.8457V13.0664H55.6816V11.4492H46.1367V10.4121H56.8945V14.1035H47.3496V15.8086H57.4219V16.8457H46.1367ZM44.2383 8.60156V1.92188H51.6387V8.60156H44.2383ZM50.4258 2.95898H45.4512V7.56445H50.4258V2.95898ZM55.6816 9.44531V1.21875H56.8945V9.44531H55.6816ZM72.9434 9.58594C72.6035 9.67969 72.2461 9.75586 71.8711 9.81445C71.4961 9.87305 71.0859 9.91992 70.6406 9.95508C70.207 9.99023 69.7324 10.0195 69.2168 10.043C68.7129 10.0547 68.1504 10.0605 67.5293 10.0605V13.6289H74.2969V14.6836H59.5312V13.6289H66.2988V10.0605H61.377V2.27344H72.4512V3.32812H62.5898V9.00586H67.1426C67.7402 9.00586 68.2852 9 68.7773 8.98828C69.2812 8.97656 69.75 8.95312 70.1836 8.91797C70.6289 8.88281 71.0625 8.83594 71.4844 8.77734C71.9062 8.71875 72.3398 8.64258 72.7852 8.54883L72.9434 9.58594Z" fill="#666666"/>
    <path d="M200.381 433.328C199.936 433.328 199.555 433.416 199.238 433.592C198.934 433.768 198.67 434.008 198.447 434.312C198.236 434.605 198.066 434.939 197.938 435.314C197.82 435.689 197.727 436.076 197.656 436.475C197.586 436.861 197.539 437.248 197.516 437.635C197.504 438.021 197.498 438.367 197.498 438.672C197.498 439.141 197.521 439.68 197.568 440.289C197.627 440.898 197.75 441.479 197.938 442.029C198.137 442.58 198.424 443.049 198.799 443.436C199.186 443.811 199.713 443.998 200.381 443.998C201.037 443.998 201.559 443.811 201.945 443.436C202.332 443.049 202.619 442.58 202.807 442.029C203.006 441.479 203.129 440.898 203.176 440.289C203.234 439.68 203.264 439.141 203.264 438.672C203.264 438.367 203.252 438.021 203.229 437.635C203.217 437.248 203.176 436.861 203.105 436.475C203.035 436.076 202.936 435.689 202.807 435.314C202.678 434.939 202.508 434.605 202.297 434.312C202.086 434.008 201.822 433.768 201.506 433.592C201.189 433.416 200.814 433.328 200.381 433.328ZM200.381 432.273C201.225 432.273 201.916 432.461 202.455 432.836C202.994 433.199 203.416 433.68 203.721 434.277C204.025 434.875 204.23 435.561 204.336 436.334C204.453 437.096 204.512 437.875 204.512 438.672C204.512 439.469 204.453 440.248 204.336 441.01C204.23 441.771 204.025 442.457 203.721 443.066C203.416 443.676 202.994 444.168 202.455 444.543C201.916 444.906 201.225 445.088 200.381 445.088C199.525 445.088 198.828 444.906 198.289 444.543C197.75 444.168 197.328 443.676 197.023 443.066C196.719 442.457 196.508 441.771 196.391 441.01C196.285 440.248 196.232 439.469 196.232 438.672C196.232 437.875 196.285 437.096 196.391 436.334C196.508 435.561 196.719 434.875 197.023 434.277C197.328 433.68 197.75 433.199 198.289 432.836C198.828 432.461 199.525 432.273 200.381 432.273ZM208.238 445.334H206.445V443.436H208.238V445.334ZM214.32 433.328C213.875 433.328 213.494 433.416 213.178 433.592C212.873 433.768 212.609 434.008 212.387 434.312C212.176 434.605 212.006 434.939 211.877 435.314C211.76 435.689 211.666 436.076 211.596 436.475C211.525 436.861 211.479 437.248 211.455 437.635C211.443 438.021 211.438 438.367 211.438 438.672C211.438 439.141 211.461 439.68 211.508 440.289C211.566 440.898 211.689 441.479 211.877 442.029C212.076 442.58 212.363 443.049 212.738 443.436C213.125 443.811 213.652 443.998 214.32 443.998C214.977 443.998 215.498 443.811 215.885 443.436C216.271 443.049 216.559 442.58 216.746 442.029C216.945 441.479 217.068 440.898 217.115 440.289C217.174 439.68 217.203 439.141 217.203 438.672C217.203 438.367 217.191 438.021 217.168 437.635C217.156 437.248 217.115 436.861 217.045 436.475C216.975 436.076 216.875 435.689 216.746 435.314C216.617 434.939 216.447 434.605 216.236 434.312C216.025 434.008 215.762 433.768 215.445 433.592C215.129 433.416 214.754 433.328 214.32 433.328ZM214.32 432.273C215.164 432.273 215.855 432.461 216.395 432.836C216.934 433.199 217.355 433.68 217.66 434.277C217.965 434.875 218.17 435.561 218.275 436.334C218.393 437.096 218.451 437.875 218.451 438.672C218.451 439.469 218.393 440.248 218.275 441.01C218.17 441.771 217.965 442.457 217.66 443.066C217.355 443.676 216.934 444.168 216.395 444.543C215.855 444.906 215.164 445.088 214.32 445.088C213.465 445.088 212.768 444.906 212.229 444.543C211.689 444.168 211.268 443.676 210.963 443.066C210.658 442.457 210.447 441.771 210.33 441.01C210.225 440.248 210.172 439.469 210.172 438.672C210.172 437.875 210.225 437.096 210.33 436.334C210.447 435.561 210.658 434.875 210.963 434.277C211.268 433.68 211.689 433.199 212.229 432.836C212.768 432.461 213.465 432.273 214.32 432.273ZM228.066 432.52V433.574L223.215 445H221.844L226.836 433.609H220.121V432.52H228.066ZM234.008 444.174C234.488 444.174 234.904 444.086 235.256 443.91C235.619 443.734 235.918 443.5 236.152 443.207C236.387 442.902 236.562 442.551 236.68 442.152C236.797 441.754 236.855 441.332 236.855 440.887C236.855 440.441 236.797 440.031 236.68 439.656C236.562 439.281 236.387 438.959 236.152 438.689C235.93 438.42 235.643 438.215 235.291 438.074C234.951 437.922 234.547 437.846 234.078 437.846C233.773 437.846 233.48 437.893 233.199 437.986C232.93 438.068 232.684 438.191 232.461 438.355C232.238 438.52 232.045 438.725 231.881 438.971C231.729 439.205 231.617 439.469 231.547 439.762H230.352L230.633 432.52H237.488V433.609H231.758L231.547 438.057L231.582 438.092C231.934 437.682 232.338 437.365 232.795 437.143C233.252 436.908 233.762 436.791 234.324 436.791C234.91 436.791 235.438 436.902 235.906 437.125C236.375 437.348 236.773 437.652 237.102 438.039C237.43 438.414 237.682 438.854 237.857 439.357C238.033 439.85 238.121 440.377 238.121 440.939C238.121 441.537 238.027 442.1 237.84 442.627C237.652 443.143 237.389 443.6 237.049 443.998C236.709 444.385 236.287 444.689 235.783 444.912C235.291 445.135 234.74 445.246 234.131 445.246C233.381 445.246 232.725 445.164 232.162 445C231.6 444.848 231.107 444.689 230.686 444.525L230.738 443.348C230.938 443.453 231.166 443.559 231.424 443.664C231.693 443.758 231.969 443.846 232.25 443.928C232.543 443.998 232.842 444.057 233.146 444.104C233.451 444.15 233.738 444.174 234.008 444.174Z" fill="#666666"/>
    <path d="M358.174 433.328C357.729 433.328 357.348 433.416 357.031 433.592C356.727 433.768 356.463 434.008 356.24 434.312C356.029 434.605 355.859 434.939 355.73 435.314C355.613 435.689 355.52 436.076 355.449 436.475C355.379 436.861 355.332 437.248 355.309 437.635C355.297 438.021 355.291 438.367 355.291 438.672C355.291 439.141 355.314 439.68 355.361 440.289C355.42 440.898 355.543 441.479 355.73 442.029C355.93 442.58 356.217 443.049 356.592 443.436C356.979 443.811 357.506 443.998 358.174 443.998C358.83 443.998 359.352 443.811 359.738 443.436C360.125 443.049 360.412 442.58 360.6 442.029C360.799 441.479 360.922 440.898 360.969 440.289C361.027 439.68 361.057 439.141 361.057 438.672C361.057 438.367 361.045 438.021 361.021 437.635C361.01 437.248 360.969 436.861 360.898 436.475C360.828 436.076 360.729 435.689 360.6 435.314C360.471 434.939 360.301 434.605 360.09 434.312C359.879 434.008 359.615 433.768 359.299 433.592C358.982 433.416 358.607 433.328 358.174 433.328ZM358.174 432.273C359.018 432.273 359.709 432.461 360.248 432.836C360.787 433.199 361.209 433.68 361.514 434.277C361.818 434.875 362.023 435.561 362.129 436.334C362.246 437.096 362.305 437.875 362.305 438.672C362.305 439.469 362.246 440.248 362.129 441.01C362.023 441.771 361.818 442.457 361.514 443.066C361.209 443.676 360.787 444.168 360.248 444.543C359.709 444.906 359.018 445.088 358.174 445.088C357.318 445.088 356.621 444.906 356.082 444.543C355.543 444.168 355.121 443.676 354.816 443.066C354.512 442.457 354.301 441.771 354.184 441.01C354.078 440.248 354.025 439.469 354.025 438.672C354.025 437.875 354.078 437.096 354.184 436.334C354.301 435.561 354.512 434.875 354.816 434.277C355.121 433.68 355.543 433.199 356.082 432.836C356.621 432.461 357.318 432.273 358.174 432.273ZM366.031 445.334H364.238V443.436H366.031V445.334ZM368.141 434.91L370.988 432.537H372.008V445H370.865V433.943L368.826 435.719L368.141 434.91ZM379.619 444.174C380.1 444.174 380.516 444.086 380.867 443.91C381.23 443.734 381.529 443.5 381.764 443.207C381.998 442.902 382.174 442.551 382.291 442.152C382.408 441.754 382.467 441.332 382.467 440.887C382.467 440.441 382.408 440.031 382.291 439.656C382.174 439.281 381.998 438.959 381.764 438.689C381.541 438.42 381.254 438.215 380.902 438.074C380.562 437.922 380.158 437.846 379.689 437.846C379.385 437.846 379.092 437.893 378.811 437.986C378.541 438.068 378.295 438.191 378.072 438.355C377.85 438.52 377.656 438.725 377.492 438.971C377.34 439.205 377.229 439.469 377.158 439.762H375.963L376.244 432.52H383.1V433.609H377.369L377.158 438.057L377.193 438.092C377.545 437.682 377.949 437.365 378.406 437.143C378.863 436.908 379.373 436.791 379.936 436.791C380.521 436.791 381.049 436.902 381.518 437.125C381.986 437.348 382.385 437.652 382.713 438.039C383.041 438.414 383.293 438.854 383.469 439.357C383.645 439.85 383.732 440.377 383.732 440.939C383.732 441.537 383.639 442.1 383.451 442.627C383.264 443.143 383 443.6 382.66 443.998C382.32 444.385 381.898 444.689 381.395 444.912C380.902 445.135 380.352 445.246 379.742 445.246C378.992 445.246 378.336 445.164 377.773 445C377.211 444.848 376.719 444.689 376.297 444.525L376.35 443.348C376.549 443.453 376.777 443.559 377.035 443.664C377.305 443.758 377.58 443.846 377.861 443.928C378.154 443.998 378.453 444.057 378.758 444.104C379.062 444.15 379.35 444.174 379.619 444.174ZM389.814 433.328C389.369 433.328 388.988 433.416 388.672 433.592C388.367 433.768 388.104 434.008 387.881 434.312C387.67 434.605 387.5 434.939 387.371 435.314C387.254 435.689 387.16 436.076 387.09 436.475C387.02 436.861 386.973 437.248 386.949 437.635C386.938 438.021 386.932 438.367 386.932 438.672C386.932 439.141 386.955 439.68 387.002 440.289C387.061 440.898 387.184 441.479 387.371 442.029C387.57 442.58 387.857 443.049 388.232 443.436C388.619 443.811 389.146 443.998 389.814 443.998C390.471 443.998 390.992 443.811 391.379 443.436C391.766 443.049 392.053 442.58 392.24 442.029C392.439 441.479 392.562 440.898 392.609 440.289C392.668 439.68 392.697 439.141 392.697 438.672C392.697 438.367 392.686 438.021 392.662 437.635C392.65 437.248 392.609 436.861 392.539 436.475C392.469 436.076 392.369 435.689 392.24 435.314C392.111 434.939 391.941 434.605 391.73 434.312C391.52 434.008 391.256 433.768 390.939 433.592C390.623 433.416 390.248 433.328 389.814 433.328ZM389.814 432.273C390.658 432.273 391.35 432.461 391.889 432.836C392.428 433.199 392.85 433.68 393.154 434.277C393.459 434.875 393.664 435.561 393.77 436.334C393.887 437.096 393.945 437.875 393.945 438.672C393.945 439.469 393.887 440.248 393.77 441.01C393.664 441.771 393.459 442.457 393.154 443.066C392.85 443.676 392.428 444.168 391.889 444.543C391.35 444.906 390.658 445.088 389.814 445.088C388.959 445.088 388.262 444.906 387.723 444.543C387.184 444.168 386.762 443.676 386.457 443.066C386.152 442.457 385.941 441.771 385.824 441.01C385.719 440.248 385.666 439.469 385.666 438.672C385.666 437.875 385.719 437.096 385.824 436.334C385.941 435.561 386.152 434.875 386.457 434.277C386.762 433.68 387.184 433.199 387.723 432.836C388.262 432.461 388.959 432.273 389.814 432.273Z" fill="#666666"/>
    <path d="M428.156 423.846V418.221H423.797L423.533 417.781H423.34V421.016H418.857V422.861H420.914C421.172 422.861 421.447 422.855 421.74 422.844C422.033 422.832 422.32 422.808 422.602 422.773C422.895 422.738 423.17 422.691 423.428 422.633C423.686 422.586 423.914 422.527 424.113 422.457L424.377 423.406C424.154 423.5 423.896 423.576 423.604 423.635C423.322 423.693 423.023 423.734 422.707 423.758C422.402 423.793 422.092 423.816 421.775 423.828C421.471 423.84 421.184 423.846 420.914 423.846H417.697V420.031H422.18V418.221H417.697V417.236H422.918V415.215H416.062V414.142H427.664C427.758 413.709 427.828 413.275 427.875 412.842C427.934 412.396 427.975 411.98 427.998 411.594C428.033 411.207 428.057 410.861 428.068 410.557C428.08 410.24 428.086 409.982 428.086 409.783H417.873V408.746H429.316C429.316 409.051 429.311 409.408 429.299 409.818C429.299 410.228 429.281 410.668 429.246 411.137C429.211 411.605 429.164 412.098 429.105 412.613C429.047 413.129 428.965 413.639 428.859 414.142H431.004V415.215H424.131V417.236H429.369V423.846H428.156ZM443.854 423.301V408.219H445.066V423.301H443.854ZM436.91 420.541C437.215 419.685 437.473 418.771 437.684 417.799C437.895 416.814 438.064 415.853 438.193 414.916C438.334 413.967 438.434 413.088 438.492 412.279C438.551 411.471 438.58 410.814 438.58 410.31H432.059V409.273H439.775C439.775 410.023 439.74 410.885 439.67 411.857C439.611 412.818 439.512 413.814 439.371 414.846C439.242 415.877 439.072 416.908 438.861 417.939C438.65 418.971 438.404 419.92 438.123 420.787L436.91 420.541Z" fill="#666666"/>
    <path d="M413.926 189.109H415.965C416.316 189.109 416.68 189.092 417.055 189.057C417.43 189.01 417.77 188.922 418.074 188.793C418.391 188.664 418.648 188.482 418.848 188.248C419.047 188.002 419.146 187.68 419.146 187.281C419.146 186.848 419.047 186.514 418.848 186.279C418.648 186.033 418.396 185.857 418.092 185.752C417.799 185.646 417.477 185.588 417.125 185.576C416.785 185.553 416.469 185.541 416.176 185.541H413.926V189.109ZM418.619 189.76C418.959 189.818 419.252 189.947 419.498 190.146C419.756 190.334 419.967 190.557 420.131 190.814C420.295 191.06 420.418 191.33 420.5 191.623C420.582 191.904 420.635 192.168 420.658 192.414C420.682 192.754 420.711 193.117 420.746 193.504C420.781 193.879 420.822 194.236 420.869 194.576C420.928 194.916 420.992 195.215 421.062 195.473C421.145 195.73 421.238 195.906 421.344 196H419.375C419.27 195.754 419.188 195.502 419.129 195.244C419.07 194.974 419.023 194.711 418.988 194.453C418.953 194.195 418.924 193.955 418.9 193.732C418.889 193.498 418.871 193.293 418.848 193.117C418.789 192.695 418.73 192.338 418.672 192.045C418.613 191.752 418.514 191.517 418.373 191.342C418.232 191.154 418.039 191.019 417.793 190.937C417.547 190.844 417.213 190.791 416.791 190.779H413.926V196H412.133V183.871H416.439C417.014 183.871 417.57 183.924 418.109 184.029C418.66 184.135 419.146 184.316 419.568 184.574C420.002 184.832 420.348 185.172 420.605 185.594C420.863 186.016 420.992 186.543 420.992 187.176C420.992 187.551 420.916 187.891 420.764 188.195C420.611 188.488 420.418 188.74 420.184 188.951C419.949 189.162 419.691 189.332 419.41 189.461C419.141 189.59 418.877 189.678 418.619 189.724V189.76ZM430.502 193.697V195.402C430.303 195.508 430.104 195.607 429.904 195.701C429.705 195.783 429.488 195.859 429.254 195.93C429.02 195.988 428.756 196.035 428.463 196.07C428.17 196.105 427.83 196.123 427.443 196.123C426.646 196.123 425.961 196.006 425.387 195.771C424.824 195.525 424.355 195.191 423.98 194.769C423.617 194.348 423.348 193.849 423.172 193.275C423.008 192.689 422.926 192.062 422.926 191.394C422.926 190.656 423.031 190 423.242 189.426C423.453 188.84 423.746 188.342 424.121 187.932C424.508 187.521 424.959 187.211 425.475 187C425.99 186.777 426.553 186.666 427.162 186.666C427.83 186.666 428.416 186.783 428.92 187.017C429.424 187.24 429.84 187.551 430.168 187.949C430.508 188.348 430.76 188.816 430.924 189.355C431.1 189.894 431.188 190.474 431.188 191.096V191.957H424.719C424.777 192.801 425.047 193.451 425.527 193.908C426.008 194.365 426.682 194.594 427.549 194.594C428.264 194.594 428.85 194.5 429.307 194.312C429.764 194.125 430.162 193.92 430.502 193.697ZM424.754 190.41H429.412C429.389 189.742 429.189 189.203 428.814 188.793C428.439 188.371 427.906 188.16 427.215 188.16C426.5 188.16 425.926 188.377 425.492 188.81C425.07 189.244 424.824 189.777 424.754 190.41ZM438.359 183.062V184.381C438.195 184.346 438.014 184.322 437.814 184.31C437.615 184.287 437.463 184.275 437.357 184.275C437.076 184.275 436.854 184.316 436.689 184.398C436.537 184.48 436.42 184.598 436.338 184.75C436.268 184.902 436.221 185.084 436.197 185.295C436.186 185.506 436.18 185.74 436.18 185.998V186.93H438.289V188.476H436.18V196H434.457V188.476H432.594V186.93H434.457V185.207C434.457 183.566 435.312 182.746 437.023 182.746C437.141 182.746 437.34 182.775 437.621 182.834C437.902 182.892 438.148 182.969 438.359 183.062ZM442.121 196.334H439.854V194.049H442.121V196.334Z" fill="#333333"/>
    <path d="M283.418 483.109H285.457C285.809 483.109 286.172 483.092 286.547 483.057C286.922 483.01 287.262 482.922 287.566 482.793C287.883 482.664 288.141 482.482 288.34 482.248C288.539 482.002 288.639 481.68 288.639 481.281C288.639 480.848 288.539 480.514 288.34 480.279C288.141 480.033 287.889 479.857 287.584 479.752C287.291 479.646 286.969 479.588 286.617 479.576C286.277 479.553 285.961 479.541 285.668 479.541H283.418V483.109ZM288.111 483.76C288.451 483.818 288.744 483.947 288.99 484.146C289.248 484.334 289.459 484.557 289.623 484.814C289.787 485.06 289.91 485.33 289.992 485.623C290.074 485.904 290.127 486.168 290.15 486.414C290.174 486.754 290.203 487.117 290.238 487.504C290.273 487.879 290.314 488.236 290.361 488.576C290.42 488.916 290.484 489.215 290.555 489.473C290.637 489.73 290.73 489.906 290.836 490H288.867C288.762 489.754 288.68 489.502 288.621 489.244C288.562 488.974 288.516 488.711 288.48 488.453C288.445 488.195 288.416 487.955 288.393 487.732C288.381 487.498 288.363 487.293 288.34 487.117C288.281 486.695 288.223 486.338 288.164 486.045C288.105 485.752 288.006 485.517 287.865 485.342C287.725 485.154 287.531 485.019 287.285 484.937C287.039 484.844 286.705 484.791 286.283 484.779H283.418V490H281.625V477.871H285.932C286.506 477.871 287.062 477.924 287.602 478.029C288.152 478.135 288.639 478.316 289.061 478.574C289.494 478.832 289.84 479.172 290.098 479.594C290.355 480.016 290.484 480.543 290.484 481.176C290.484 481.551 290.408 481.891 290.256 482.195C290.104 482.488 289.91 482.74 289.676 482.951C289.441 483.162 289.184 483.332 288.902 483.461C288.633 483.59 288.369 483.678 288.111 483.724V483.76ZM299.994 487.697V489.402C299.795 489.508 299.596 489.607 299.396 489.701C299.197 489.783 298.98 489.859 298.746 489.93C298.512 489.988 298.248 490.035 297.955 490.07C297.662 490.105 297.322 490.123 296.936 490.123C296.139 490.123 295.453 490.006 294.879 489.771C294.316 489.525 293.848 489.191 293.473 488.769C293.109 488.348 292.84 487.849 292.664 487.275C292.5 486.689 292.418 486.062 292.418 485.394C292.418 484.656 292.523 484 292.734 483.426C292.945 482.84 293.238 482.342 293.613 481.932C294 481.521 294.451 481.211 294.967 481C295.482 480.777 296.045 480.666 296.654 480.666C297.322 480.666 297.908 480.783 298.412 481.017C298.916 481.24 299.332 481.551 299.66 481.949C300 482.348 300.252 482.816 300.416 483.355C300.592 483.894 300.68 484.474 300.68 485.096V485.957H294.211C294.27 486.801 294.539 487.451 295.02 487.908C295.5 488.365 296.174 488.594 297.041 488.594C297.756 488.594 298.342 488.5 298.799 488.312C299.256 488.125 299.654 487.92 299.994 487.697ZM294.246 484.41H298.904C298.881 483.742 298.682 483.203 298.307 482.793C297.932 482.371 297.398 482.16 296.707 482.16C295.992 482.16 295.418 482.377 294.984 482.81C294.562 483.244 294.316 483.777 294.246 484.41ZM307.852 477.062V478.381C307.688 478.346 307.506 478.322 307.307 478.31C307.107 478.287 306.955 478.275 306.85 478.275C306.568 478.275 306.346 478.316 306.182 478.398C306.029 478.48 305.912 478.598 305.83 478.75C305.76 478.902 305.713 479.084 305.689 479.295C305.678 479.506 305.672 479.74 305.672 479.998V480.93H307.781V482.476H305.672V490H303.949V482.476H302.086V480.93H303.949V479.207C303.949 477.566 304.805 476.746 306.516 476.746C306.633 476.746 306.832 476.775 307.113 476.834C307.395 476.892 307.641 476.969 307.852 477.062ZM311.613 490.334H309.346V488.049H311.613V490.334ZM321.492 489.455H319.699V487.557H321.492V489.455ZM321.492 480.842H319.699V478.943H321.492V480.842ZM331.09 482.81C331.09 483.49 331.148 484.105 331.266 484.656C331.395 485.207 331.588 485.682 331.846 486.08C332.104 486.467 332.426 486.771 332.812 486.994C333.211 487.205 333.674 487.31 334.201 487.31C334.717 487.31 335.168 487.205 335.555 486.994C335.941 486.771 336.264 486.467 336.521 486.08C336.779 485.682 336.973 485.207 337.102 484.656C337.23 484.105 337.295 483.49 337.295 482.81C337.295 482.131 337.23 481.516 337.102 480.965C336.973 480.402 336.779 479.928 336.521 479.541C336.264 479.142 335.941 478.838 335.555 478.627C335.168 478.416 334.717 478.31 334.201 478.31C333.674 478.31 333.211 478.416 332.812 478.627C332.426 478.838 332.104 479.142 331.846 479.541C331.588 479.928 331.395 480.402 331.266 480.965C331.148 481.516 331.09 482.131 331.09 482.81ZM329.93 482.81C329.93 481.978 330.023 481.223 330.211 480.543C330.398 479.863 330.674 479.283 331.037 478.803C331.4 478.31 331.846 477.93 332.373 477.66C332.9 477.391 333.51 477.256 334.201 477.256C334.881 477.256 335.484 477.391 336.012 477.66C336.539 477.93 336.984 478.31 337.348 478.803C337.711 479.283 337.986 479.863 338.174 480.543C338.361 481.223 338.455 481.978 338.455 482.81C338.455 483.642 338.361 484.398 338.174 485.078C337.986 485.758 337.711 486.344 337.348 486.836C336.984 487.316 336.539 487.691 336.012 487.961C335.484 488.219 334.881 488.348 334.201 488.348C333.51 488.348 332.9 488.219 332.373 487.961C331.846 487.691 331.4 487.316 331.037 486.836C330.674 486.344 330.398 485.758 330.211 485.078C330.023 484.398 329.93 483.642 329.93 482.81ZM341.373 491.301V476.219H342.586V482.283H345.486V483.32H342.586V491.301H341.373ZM350.777 482.195C350.766 482.312 350.73 482.482 350.672 482.705C350.613 482.916 350.549 483.121 350.479 483.32C350.385 483.601 350.238 483.93 350.039 484.305C349.852 484.68 349.588 485.09 349.248 485.535C348.92 485.98 348.516 486.455 348.035 486.959C347.555 487.451 346.98 487.961 346.312 488.488L345.486 487.715C347.068 486.508 348.264 485.183 349.072 483.742C349.893 482.301 350.303 480.801 350.303 479.242V477.273H351.463V479.242C351.463 480.777 351.85 482.248 352.623 483.654C353.408 485.049 354.533 486.297 355.998 487.398L355.137 488.207C354.551 487.703 354.041 487.223 353.607 486.766C353.174 486.297 352.799 485.857 352.482 485.447C352.178 485.037 351.932 484.656 351.744 484.305C351.557 483.953 351.416 483.637 351.322 483.355C351.24 483.133 351.176 482.916 351.129 482.705C351.082 482.482 351.047 482.312 351.023 482.195H350.777ZM357.809 491.301V476.219H359.021V491.301H357.809ZM363.346 482.81C363.346 483.49 363.404 484.105 363.521 484.656C363.65 485.207 363.844 485.682 364.102 486.08C364.359 486.467 364.682 486.771 365.068 486.994C365.467 487.205 365.93 487.31 366.457 487.31C366.973 487.31 367.424 487.205 367.811 486.994C368.197 486.771 368.52 486.467 368.777 486.08C369.035 485.682 369.229 485.207 369.357 484.656C369.486 484.105 369.551 483.49 369.551 482.81C369.551 482.131 369.486 481.516 369.357 480.965C369.229 480.402 369.035 479.928 368.777 479.541C368.52 479.142 368.197 478.838 367.811 478.627C367.424 478.416 366.973 478.31 366.457 478.31C365.93 478.31 365.467 478.416 365.068 478.627C364.682 478.838 364.359 479.142 364.102 479.541C363.844 479.928 363.65 480.402 363.521 480.965C363.404 481.516 363.346 482.131 363.346 482.81ZM362.186 482.81C362.186 481.978 362.279 481.223 362.467 480.543C362.654 479.863 362.93 479.283 363.293 478.803C363.656 478.31 364.102 477.93 364.629 477.66C365.156 477.391 365.766 477.256 366.457 477.256C367.137 477.256 367.74 477.391 368.268 477.66C368.795 477.93 369.24 478.31 369.604 478.803C369.967 479.283 370.242 479.863 370.43 480.543C370.617 481.223 370.711 481.978 370.711 482.81C370.711 483.642 370.617 484.398 370.43 485.078C370.242 485.758 369.967 486.344 369.604 486.836C369.24 487.316 368.795 487.691 368.268 487.961C367.74 488.219 367.137 488.348 366.457 488.348C365.766 488.348 365.156 488.219 364.629 487.961C364.102 487.691 363.656 487.316 363.293 486.836C362.93 486.344 362.654 485.758 362.467 485.078C362.279 484.398 362.186 483.642 362.186 482.81ZM373.629 491.301V476.219H374.842V482.283H377.742V483.32H374.842V491.301H373.629ZM382.875 487.17V490.545H392.684V491.582H381.662V487.17H382.875ZM391.119 488.312V476.219H392.332V488.312H391.119ZM380.273 481.035C380.273 481.574 380.355 482.037 380.52 482.424C380.695 482.81 380.924 483.133 381.205 483.391C381.486 483.637 381.809 483.818 382.172 483.935C382.535 484.053 382.904 484.111 383.279 484.111C383.654 484.111 384.018 484.053 384.369 483.935C384.732 483.818 385.055 483.637 385.336 483.391C385.617 483.133 385.846 482.81 386.021 482.424C386.197 482.037 386.285 481.574 386.285 481.035C386.285 480.496 386.197 480.033 386.021 479.646C385.846 479.26 385.617 478.943 385.336 478.697C385.055 478.439 384.732 478.252 384.369 478.135C384.018 478.017 383.654 477.959 383.279 477.959C382.904 477.959 382.535 478.017 382.172 478.135C381.809 478.252 381.486 478.439 381.205 478.697C380.924 478.943 380.695 479.26 380.52 479.646C380.355 480.033 380.273 480.496 380.273 481.035ZM379.148 481.035C379.148 480.355 379.26 479.758 379.482 479.242C379.717 478.726 380.021 478.299 380.396 477.959C380.783 477.619 381.223 477.361 381.715 477.185C382.219 477.01 382.74 476.922 383.279 476.922C383.818 476.922 384.334 477.01 384.826 477.185C385.33 477.361 385.77 477.619 386.145 477.959C386.531 478.299 386.836 478.726 387.059 479.242C387.293 479.758 387.41 480.355 387.41 481.035C387.41 481.715 387.293 482.312 387.059 482.828C386.836 483.344 386.531 483.771 386.145 484.111C385.77 484.451 385.33 484.709 384.826 484.885C384.334 485.06 383.818 485.148 383.279 485.148C382.74 485.148 382.219 485.06 381.715 484.885C381.223 484.709 380.783 484.451 380.396 484.111C380.021 483.771 379.717 483.344 379.482 482.828C379.26 482.312 379.148 481.715 379.148 481.035ZM411.334 491.301V476.219H412.547V491.301H411.334ZM404.391 488.541C404.695 487.685 404.953 486.771 405.164 485.799C405.375 484.814 405.545 483.853 405.674 482.916C405.814 481.967 405.914 481.088 405.973 480.279C406.031 479.471 406.061 478.814 406.061 478.31H399.539V477.273H407.256C407.256 478.023 407.221 478.885 407.15 479.857C407.092 480.818 406.992 481.814 406.852 482.846C406.723 483.877 406.553 484.908 406.342 485.939C406.131 486.971 405.885 487.92 405.604 488.787L404.391 488.541ZM422.566 479.558C422.52 479.687 422.455 479.822 422.373 479.963C422.291 480.103 422.174 480.25 422.021 480.402C421.811 480.613 421.547 480.836 421.23 481.07C420.926 481.305 420.562 481.533 420.141 481.756C419.73 481.978 419.262 482.183 418.734 482.371C418.207 482.558 417.609 482.723 416.941 482.863L416.414 481.932C417.352 481.744 418.172 481.486 418.875 481.158C419.578 480.83 420.164 480.49 420.633 480.139C421.102 479.775 421.453 479.424 421.688 479.084C421.922 478.732 422.039 478.433 422.039 478.187V477.959H416.906V476.922H428.42V477.959H423.287V478.187C423.287 478.433 423.393 478.726 423.604 479.066C423.814 479.394 424.143 479.728 424.588 480.068C425.045 480.396 425.625 480.713 426.328 481.017C427.043 481.31 427.898 481.539 428.895 481.703L428.367 482.67C427.078 482.435 426.023 482.101 425.203 481.668C424.395 481.234 423.773 480.812 423.34 480.402C423.188 480.262 423.064 480.121 422.971 479.98C422.889 479.828 422.83 479.687 422.795 479.558H422.566ZM422.127 488.664V485.623H415.184V484.551H430.125V485.623H423.34V488.664H422.127ZM418.295 487.433V490.633H428.771V491.67H417.082V487.433H418.295ZM432.814 491.846V485.236H433.975V487.68H437.648V485.236H438.809V491.248C439.406 490.873 439.893 490.457 440.268 490C440.643 489.531 440.941 489.062 441.164 488.594C441.387 488.113 441.539 487.65 441.621 487.205C441.703 486.76 441.744 486.361 441.744 486.01V485.236H442.922V486.01C442.922 486.385 442.969 486.795 443.062 487.24C443.156 487.674 443.32 488.119 443.555 488.576C443.801 489.033 444.129 489.484 444.539 489.93C444.949 490.375 445.477 490.791 446.121 491.178L445.348 491.969C444.68 491.5 444.135 491.043 443.713 490.598C443.303 490.152 442.992 489.724 442.781 489.314C442.711 489.185 442.641 489.027 442.57 488.84C442.512 488.641 442.477 488.476 442.465 488.348H442.219C442.207 488.465 442.178 488.617 442.131 488.805C442.084 488.98 442.031 489.133 441.973 489.262C441.809 489.672 441.516 490.129 441.094 490.633C440.684 491.148 440.18 491.611 439.582 492.021L438.809 491.371V491.846H432.814ZM436.066 483.707C436.477 482.769 436.781 481.814 436.98 480.842C437.191 479.869 437.309 478.908 437.332 477.959H431.004V476.922H438.58C438.58 478.176 438.475 479.412 438.264 480.631C438.053 481.849 437.713 482.998 437.244 484.076L436.066 483.707ZM442.799 484.445V476.219H444.012V480.701H446.912V481.738H444.012V484.445H442.799ZM437.648 488.682H433.975V490.844H437.648V488.682Z" fill="#333333"/>
    <path d="M202.926 8.10925H204.965C205.316 8.10925 205.68 8.09167 206.055 8.05652C206.43 8.00964 206.77 7.92175 207.074 7.79285C207.391 7.66394 207.648 7.4823 207.848 7.24792C208.047 7.00183 208.146 6.67957 208.146 6.28113C208.146 5.84753 208.047 5.51355 207.848 5.27917C207.648 5.03308 207.396 4.8573 207.092 4.75183C206.799 4.64636 206.477 4.58777 206.125 4.57605C205.785 4.55261 205.469 4.54089 205.176 4.54089H202.926V8.10925ZM207.619 8.75964C207.959 8.81824 208.252 8.94714 208.498 9.14636C208.756 9.33386 208.967 9.55652 209.131 9.81433C209.295 10.0604 209.418 10.33 209.5 10.6229C209.582 10.9042 209.635 11.1678 209.658 11.4139C209.682 11.7538 209.711 12.1171 209.746 12.5038C209.781 12.8788 209.822 13.2362 209.869 13.576C209.928 13.9159 209.992 14.2147 210.062 14.4725C210.145 14.7303 210.238 14.9061 210.344 14.9999H208.375C208.27 14.7538 208.188 14.5018 208.129 14.244C208.07 13.9745 208.023 13.7108 207.988 13.453C207.953 13.1952 207.924 12.955 207.9 12.7323C207.889 12.4979 207.871 12.2928 207.848 12.1171C207.789 11.6952 207.73 11.3378 207.672 11.0448C207.613 10.7518 207.514 10.5175 207.373 10.3417C207.232 10.1542 207.039 10.0194 206.793 9.93738C206.547 9.84363 206.213 9.79089 205.791 9.77917H202.926V14.9999H201.133V2.87097H205.439C206.014 2.87097 206.57 2.92371 207.109 3.02917C207.66 3.13464 208.146 3.31628 208.568 3.5741C209.002 3.83191 209.348 4.17175 209.605 4.59363C209.863 5.0155 209.992 5.54285 209.992 6.17566C209.992 6.55066 209.916 6.8905 209.764 7.19519C209.611 7.48816 209.418 7.74011 209.184 7.95105C208.949 8.16199 208.691 8.33191 208.41 8.46082C208.141 8.58972 207.877 8.67761 207.619 8.72449V8.75964ZM219.502 12.6971V14.4022C219.303 14.5077 219.104 14.6073 218.904 14.701C218.705 14.7831 218.488 14.8593 218.254 14.9296C218.02 14.9882 217.756 15.035 217.463 15.0702C217.17 15.1053 216.83 15.1229 216.443 15.1229C215.646 15.1229 214.961 15.0057 214.387 14.7714C213.824 14.5253 213.355 14.1913 212.98 13.7694C212.617 13.3475 212.348 12.8495 212.172 12.2753C212.008 11.6893 211.926 11.0624 211.926 10.3944C211.926 9.65613 212.031 8.99988 212.242 8.42566C212.453 7.83972 212.746 7.34167 213.121 6.93152C213.508 6.52136 213.959 6.21082 214.475 5.99988C214.99 5.77722 215.553 5.66589 216.162 5.66589C216.83 5.66589 217.416 5.78308 217.92 6.01746C218.424 6.24011 218.84 6.55066 219.168 6.9491C219.508 7.34753 219.76 7.81628 219.924 8.35535C220.1 8.89441 220.188 9.47449 220.188 10.0956V10.9569H213.719C213.777 11.8007 214.047 12.451 214.527 12.9081C215.008 13.3651 215.682 13.5936 216.549 13.5936C217.264 13.5936 217.85 13.4999 218.307 13.3124C218.764 13.1249 219.162 12.9198 219.502 12.6971ZM213.754 9.41003H218.412C218.389 8.74207 218.189 8.203 217.814 7.79285C217.439 7.37097 216.906 7.16003 216.215 7.16003C215.5 7.16003 214.926 7.37683 214.492 7.81042C214.07 8.24402 213.824 8.77722 213.754 9.41003ZM227.359 2.06238V3.38074C227.195 3.34558 227.014 3.32214 226.814 3.31042C226.615 3.28699 226.463 3.27527 226.357 3.27527C226.076 3.27527 225.854 3.31628 225.689 3.39832C225.537 3.48035 225.42 3.59753 225.338 3.74988C225.268 3.90222 225.221 4.08386 225.197 4.2948C225.186 4.50574 225.18 4.74011 225.18 4.99792V5.92957H227.289V7.47644H225.18V14.9999H223.457V7.47644H221.594V5.92957H223.457V4.20691C223.457 2.56628 224.312 1.74597 226.023 1.74597C226.141 1.74597 226.34 1.77527 226.621 1.83386C226.902 1.89246 227.148 1.96863 227.359 2.06238ZM231.121 15.3339H228.854V13.0487H231.121V15.3339Z" fill="#333333"/>
    <line x1="41.5" y1="37.9999" x2="41.5" y2="419" stroke="#666666"/>
    <line x1="395" y1="39.4999" x2="42" y2="39.4999" stroke="#DDDDDD" stroke-width="3" stroke-dasharray="5 5"/>
    <line x1="395" y1="232.5" x2="42" y2="232.5" stroke="#DDDDDD" stroke-width="3" stroke-dasharray="5 5"/>
    <line x1="216.5" y1="419" x2="216.5" y2="42.9999" stroke="#DDDDDD" stroke-width="3" stroke-dasharray="5 5"/>
    <line x1="393.5" y1="419" x2="393.5" y2="42.9999" stroke="#DDDDDD" stroke-width="3" stroke-dasharray="5 5"/>
    <line x1="41" y1="419.5" x2="395" y2="419.5" stroke="#666666"/>
    <circle cx="156" cy="309" r="89" fill="#F9D9DF" fill-opacity="0.5"/>
    <path d="M85.6738 400.888V395.192C84.7832 395.356 83.8105 395.468 82.7559 395.526C81.7012 395.573 80.5762 395.602 79.3809 395.614C79.3809 396.61 79.3398 397.53 79.2578 398.374C79.1758 399.206 79 399.968 78.7305 400.659L77.5527 400.36C77.8223 399.681 77.9922 398.931 78.0625 398.11C78.1328 397.29 78.168 396.458 78.168 395.614H73.7031V394.595H78.959C80.1309 394.595 81.291 394.571 82.4395 394.524C83.5879 394.466 84.666 394.343 85.6738 394.155V385.806H86.8867V400.888H85.6738ZM83.3008 392.134C82.9375 392.204 82.4922 392.263 81.9648 392.309C81.4375 392.345 80.8926 392.362 80.3301 392.362H75.0918V386.684H82.8438V387.722H76.3047V391.307H80.3477C80.8164 391.307 81.3027 391.29 81.8066 391.255C82.3223 391.22 82.7676 391.155 83.1426 391.061L83.3008 392.134Z" fill="#666666"/>
    <path d="M59.4766 389.567C58.832 389.567 58.3047 389.702 57.8945 389.972C57.4961 390.229 57.1797 390.575 56.9453 391.009C56.7227 391.431 56.5703 391.911 56.4883 392.45C56.4062 392.977 56.3652 393.505 56.3652 394.032H56.3828C56.6172 393.47 56.9746 393.042 57.4551 392.749C57.9473 392.444 58.5098 392.292 59.1426 392.292C60.209 392.292 61.0234 392.602 61.5859 393.224C62.1602 393.845 62.4473 394.671 62.4473 395.702C62.4473 396.768 62.1309 397.612 61.498 398.233C60.8652 398.843 60.0625 399.147 59.0898 399.147C57.8359 399.147 56.8809 398.766 56.2246 398.005C55.5801 397.243 55.2578 396.065 55.2578 394.472C55.2578 393.78 55.3105 393.089 55.416 392.397C55.5332 391.706 55.7441 391.085 56.0488 390.534C56.3535 389.972 56.7754 389.52 57.3145 389.181C57.8535 388.829 58.5566 388.653 59.4238 388.653C59.9277 388.653 60.373 388.706 60.7598 388.811C61.1582 388.905 61.5039 388.999 61.7969 389.093L61.6211 390.024C61.1875 389.849 60.8711 389.743 60.6719 389.708C60.4844 389.661 60.0859 389.614 59.4766 389.567ZM59.125 393.171C58.2578 393.171 57.6074 393.417 57.1738 393.909C56.7402 394.39 56.5234 395.034 56.5234 395.843C56.5234 396.475 56.7402 397.038 57.1738 397.53C57.6074 398.011 58.1875 398.251 58.9141 398.251C59.6992 398.251 60.2969 398.028 60.707 397.583C61.1289 397.126 61.3398 396.511 61.3398 395.737C61.3398 394.929 61.1465 394.302 60.7598 393.856C60.373 393.399 59.8281 393.171 59.125 393.171ZM58.8086 385.366C61.3516 385.366 63.4023 386.169 64.9609 387.774C66.5195 389.38 67.2988 391.372 67.2988 393.751C67.2988 396.153 66.5312 398.151 64.9961 399.745C63.4727 401.35 61.4102 402.153 58.8086 402.153C56.2656 402.153 54.2148 401.35 52.6562 399.745C51.1094 398.151 50.3359 396.153 50.3359 393.751C50.3359 391.372 51.1152 389.38 52.6738 387.774C54.2324 386.169 56.2773 385.366 58.8086 385.366ZM58.8086 386.069C56.5703 386.069 54.7188 386.796 53.2539 388.249C51.7891 389.702 51.0566 391.548 51.0566 393.786C51.0566 395.942 51.7598 397.765 53.166 399.253C54.5723 400.729 56.4531 401.468 58.8086 401.468C61.1758 401.468 63.0625 400.724 64.4688 399.235C65.875 397.735 66.5781 395.919 66.5781 393.786C66.5781 391.524 65.8398 389.673 64.3633 388.231C62.8984 386.79 61.0469 386.069 58.8086 386.069Z" fill="#666666"/>
    <path d="M75.207 380.529L84.5842 368.484" stroke="#666666" stroke-linecap="round"/>
    <circle cx="90.9023" cy="361.587" r="9" fill="#999999"/>
    <circle cx="174.977" cy="270.519" r="9" fill="#999999"/>
    <path d="M71.668 295.251C72.4883 295.251 73.1094 294.999 73.5312 294.495C73.9531 293.992 74.1641 293.353 74.1641 292.579C74.1641 291.806 73.959 291.203 73.5488 290.769C73.1504 290.335 72.5527 290.119 71.7559 290.119C71.2285 290.119 70.7598 290.271 70.3496 290.576C69.9395 290.869 69.6699 291.267 69.541 291.771H68.5215L68.8027 285.9H74.6738V286.814H69.752L69.541 290.312L69.6113 290.365C69.916 290.013 70.2676 289.732 70.666 289.521C71.0645 289.31 71.498 289.204 71.9668 289.204C72.9043 289.204 73.6777 289.521 74.2871 290.154C74.9082 290.775 75.2188 291.595 75.2188 292.615C75.2188 293.611 74.9141 294.449 74.3047 295.128C73.6953 295.808 72.8633 296.148 71.8086 296.148C71.1523 296.148 70.5781 296.083 70.0859 295.954C69.5938 295.814 69.1777 295.667 68.8379 295.515L68.8906 294.513C69.4883 294.783 69.9102 294.953 70.1562 295.023C70.4141 295.093 70.918 295.169 71.668 295.251ZM71.8086 282.367C74.3516 282.367 76.4023 283.169 77.9609 284.775C79.5195 286.38 80.2988 288.372 80.2988 290.751C80.2988 293.154 79.5312 295.152 77.9961 296.745C76.4727 298.351 74.4102 299.154 71.8086 299.154C69.2656 299.154 67.2148 298.351 65.6562 296.745C64.1094 295.152 63.3359 293.154 63.3359 290.751C63.3359 288.372 64.1152 286.38 65.6738 284.775C67.2324 283.169 69.2773 282.367 71.8086 282.367ZM71.8086 283.07C69.5703 283.07 67.7188 283.796 66.2539 285.249C64.7891 286.703 64.0566 288.548 64.0566 290.786C64.0566 292.943 64.7598 294.765 66.166 296.253C67.5723 297.73 69.4531 298.468 71.8086 298.468C74.1758 298.468 76.0625 297.724 77.4688 296.236C78.875 294.736 79.5781 292.919 79.5781 290.786C79.5781 288.525 78.8398 286.673 77.3633 285.232C75.8984 283.79 74.0469 283.07 71.8086 283.07Z" fill="#666666"/>
    <path d="M89.2168 295.515C89.2168 294.624 89.6621 293.933 90.5527 293.441C91.4434 292.937 92.8496 292.685 94.7715 292.685C96.6816 292.685 98.082 292.931 98.9727 293.423C99.875 293.915 100.326 294.613 100.326 295.515C100.326 296.417 99.875 297.115 98.9727 297.607C98.082 298.099 96.6816 298.345 94.7715 298.345C92.8496 298.345 91.4434 298.099 90.5527 297.607C89.6621 297.115 89.2168 296.417 89.2168 295.515ZM90.377 295.515C90.377 296.171 90.7578 296.64 91.5195 296.921C92.293 297.203 93.377 297.343 94.7715 297.343C96.1543 297.343 97.2324 297.203 98.0059 296.921C98.7793 296.64 99.166 296.171 99.166 295.515C99.166 294.859 98.7793 294.39 98.0059 294.109C97.2324 293.828 96.1543 293.687 94.7715 293.687C93.377 293.687 92.293 293.828 91.5195 294.109C90.7578 294.39 90.377 294.859 90.377 295.515ZM95.6855 291.349C94.7246 290.915 93.998 290.494 93.5059 290.083C93.0137 289.661 92.6504 289.292 92.416 288.976C92.2168 288.706 92.082 288.478 92.0117 288.29C91.9414 288.091 91.8945 287.91 91.8711 287.745H91.5723C91.5488 287.91 91.502 288.103 91.4316 288.326C91.3613 288.548 91.2559 288.777 91.1152 289.011C90.9746 289.257 90.8047 289.503 90.6055 289.749C90.418 289.995 90.1836 290.247 89.9023 290.505C89.6328 290.751 89.3047 291.009 88.918 291.279C88.5312 291.548 88.0684 291.824 87.5293 292.105L86.7031 291.244C87.7109 290.74 88.5078 290.206 89.0938 289.644C89.6797 289.07 90.1191 288.495 90.4121 287.921C90.7168 287.347 90.9043 286.796 90.9746 286.269C91.0566 285.73 91.0977 285.244 91.0977 284.81V284.722H87.248V283.685H96.0371V284.722H92.3105V284.81C92.3105 285.232 92.3457 285.689 92.416 286.181C92.498 286.673 92.6797 287.171 92.9609 287.675C93.2539 288.167 93.6758 288.654 94.2266 289.134C94.7891 289.603 95.5508 290.025 96.5117 290.4L95.6855 291.349ZM98.8496 291.999V287.675H95.0879V286.673H98.8496V282.806H100.062V291.999H98.8496ZM109.379 298.064V292.773H102.699V291.718H117.289V292.773H110.592V298.064H109.379ZM109.906 285.865C109.883 285.994 109.824 286.152 109.73 286.339C109.637 286.515 109.525 286.685 109.396 286.849C109.021 287.341 108.406 287.822 107.551 288.29C106.707 288.747 105.617 289.128 104.281 289.433L103.754 288.501C104.832 288.255 105.729 287.968 106.443 287.64C107.17 287.312 107.75 286.954 108.184 286.568C108.617 286.169 108.922 285.753 109.098 285.32C109.285 284.874 109.379 284.423 109.379 283.966V283.404H110.627V283.966C110.627 284.435 110.721 284.886 110.908 285.32C111.107 285.753 111.424 286.158 111.857 286.533C112.303 286.908 112.883 287.247 113.598 287.552C114.312 287.845 115.191 288.085 116.234 288.273L115.707 289.24C114.43 288.97 113.363 288.619 112.508 288.185C111.664 287.74 111.055 287.294 110.68 286.849C110.539 286.685 110.416 286.515 110.311 286.339C110.217 286.152 110.158 285.994 110.135 285.865H109.906ZM131.018 297.888V294.232C129.928 294.56 128.656 294.788 127.203 294.917C125.762 295.046 124.18 295.111 122.457 295.111H119.926V288.941H126.008V284.898H119.926V283.861H127.221V289.943H121.139V294.074H122.475C123.248 294.074 124.016 294.062 124.777 294.038C125.551 294.015 126.301 293.968 127.027 293.898C127.754 293.828 128.451 293.734 129.119 293.617C129.799 293.488 130.432 293.329 131.018 293.142V282.806H132.23V297.888H131.018Z" fill="#666666"/>
    <path d="M144 290.646L153.839 290.587" stroke="#666666" stroke-linecap="round"/>
    <path d="M154.004 290.588L168.004 276.588" stroke="#666666" stroke-linecap="round"/>
    <circle cx="194" cy="353.587" r="9" fill="#999999"/>
    <path d="M166.424 399.078V396.441H161.695V395.457L166.143 388.9H167.443V395.598H169.166V396.441H167.443V399.078H166.424ZM166.424 395.598V389.937L162.609 395.598H166.424ZM165.809 385.367C168.352 385.367 170.402 386.17 171.961 387.775C173.52 389.381 174.299 391.373 174.299 393.752C174.299 396.154 173.531 398.152 171.996 399.746C170.473 401.351 168.41 402.154 165.809 402.154C163.266 402.154 161.215 401.351 159.656 399.746C158.109 398.152 157.336 396.154 157.336 393.752C157.336 391.373 158.115 389.381 159.674 387.775C161.232 386.17 163.277 385.367 165.809 385.367ZM165.809 386.07C163.57 386.07 161.719 386.797 160.254 388.25C158.789 389.703 158.057 391.549 158.057 393.787C158.057 395.943 158.76 397.766 160.166 399.254C161.572 400.73 163.453 401.469 165.809 401.469C168.176 401.469 170.062 400.724 171.469 399.236C172.875 397.736 173.578 395.92 173.578 393.787C173.578 391.525 172.84 389.674 171.363 388.232C169.898 386.791 168.047 386.07 165.809 386.07Z" fill="#666666"/>
    <path d="M182.338 398.99C182.338 398.111 182.818 397.443 183.779 396.986C184.635 396.576 185.895 396.347 187.559 396.3V394.349H180.703V393.312H195.645V394.349H188.771V396.3C190.424 396.335 191.684 396.564 192.551 396.986C193.523 397.443 194.01 398.111 194.01 398.99C194.01 399.869 193.523 400.536 192.551 400.994C191.578 401.462 190.119 401.697 188.174 401.697C186.205 401.697 184.74 401.462 183.779 400.994C182.818 400.536 182.338 399.869 182.338 398.99ZM188.086 388.794C188.039 388.923 187.975 389.058 187.893 389.199C187.811 389.339 187.693 389.486 187.541 389.638C187.107 390.072 186.48 390.511 185.66 390.956C184.852 391.39 183.785 391.742 182.461 392.011L181.934 391.079C182.871 390.892 183.691 390.64 184.395 390.324C185.098 390.007 185.684 389.673 186.152 389.322C186.621 388.97 186.973 388.63 187.207 388.302C187.441 387.962 187.559 387.669 187.559 387.423V387.37H182.426V386.333H193.939V387.37H188.807V387.423C188.807 387.669 188.912 387.956 189.123 388.285C189.334 388.613 189.662 388.941 190.107 389.269C190.564 389.585 191.145 389.89 191.848 390.183C192.562 390.464 193.418 390.687 194.414 390.851L193.887 391.818C192.586 391.583 191.531 391.267 190.723 390.869C189.926 390.458 189.305 390.048 188.859 389.638C188.707 389.497 188.584 389.357 188.49 389.216C188.408 389.064 188.35 388.923 188.314 388.794H188.086ZM183.568 398.99C183.568 399.576 183.979 400.009 184.799 400.29C185.631 400.572 186.756 400.712 188.174 400.712C189.58 400.712 190.699 400.572 191.531 400.29C192.363 400.009 192.779 399.576 192.779 398.99C192.779 398.404 192.363 397.97 191.531 397.689C190.699 397.408 189.58 397.267 188.174 397.267C186.756 397.267 185.631 397.408 184.799 397.689C183.979 397.97 183.568 398.404 183.568 398.99ZM209.373 395.087V385.806H210.586V389.937H213.486V390.974H210.586V395.087H209.373ZM198.914 390.06C198.914 390.494 198.984 390.886 199.125 391.238C199.266 391.578 199.465 391.87 199.723 392.117C199.98 392.351 200.285 392.533 200.637 392.661C200.988 392.79 201.369 392.855 201.779 392.855C202.189 392.855 202.564 392.79 202.904 392.661C203.256 392.533 203.561 392.351 203.818 392.117C204.076 391.87 204.275 391.578 204.416 391.238C204.557 390.886 204.627 390.494 204.627 390.06C204.627 389.626 204.557 389.24 204.416 388.9C204.275 388.548 204.076 388.255 203.818 388.021C203.561 387.786 203.256 387.605 202.904 387.476C202.564 387.347 202.189 387.283 201.779 387.283C201.369 387.283 200.988 387.347 200.637 387.476C200.285 387.605 199.98 387.786 199.723 388.021C199.465 388.255 199.266 388.548 199.125 388.9C198.984 389.24 198.914 389.626 198.914 390.06ZM197.754 390.06C197.754 389.474 197.854 388.947 198.053 388.478C198.252 388.009 198.527 387.611 198.879 387.283C199.242 386.943 199.67 386.685 200.162 386.509C200.654 386.333 201.193 386.245 201.779 386.245C202.354 386.245 202.887 386.333 203.379 386.509C203.871 386.685 204.293 386.943 204.645 387.283C205.008 387.611 205.289 388.009 205.488 388.478C205.688 388.947 205.787 389.474 205.787 390.06C205.787 390.646 205.688 391.173 205.488 391.642C205.289 392.111 205.008 392.515 204.645 392.855C204.293 393.183 203.871 393.441 203.379 393.628C202.887 393.804 202.354 393.892 201.779 393.892C201.193 393.892 200.654 393.804 200.162 393.628C199.67 393.441 199.242 393.183 198.879 392.855C198.527 392.515 198.252 392.111 198.053 391.642C197.854 391.173 197.754 390.646 197.754 390.06ZM199.74 398.55C199.74 397.695 200.186 397.015 201.076 396.511C201.967 396.007 203.373 395.755 205.295 395.755C207.193 395.755 208.594 396.007 209.496 396.511C210.398 397.015 210.85 397.695 210.85 398.55C210.85 399.406 210.398 400.085 209.496 400.589C208.594 401.093 207.193 401.345 205.295 401.345C203.373 401.345 201.967 401.093 201.076 400.589C200.186 400.085 199.74 399.406 199.74 398.55ZM200.971 398.55C200.971 399.16 201.34 399.617 202.078 399.921C202.828 400.226 203.9 400.378 205.295 400.378C206.678 400.378 207.744 400.226 208.494 399.921C209.244 399.617 209.619 399.16 209.619 398.55C209.619 397.941 209.244 397.484 208.494 397.179C207.744 396.874 206.678 396.722 205.295 396.722C203.9 396.722 202.828 396.874 202.078 397.179C201.34 397.484 200.971 397.941 200.971 398.55Z" fill="#666666"/>
    <path d="M178.004 375L188.007 361" stroke="#666666" stroke-linecap="round"/>
    <path d="M93.5098 253.251C94.3301 253.251 94.9746 253.069 95.4434 252.706C95.9121 252.343 96.1465 251.809 96.1465 251.106C96.1465 250.403 95.8711 249.905 95.3203 249.612C94.7812 249.319 94.1367 249.173 93.3867 249.173H92.0332V248.206H93.3867C94.1367 248.206 94.7461 248.054 95.2148 247.749C95.6953 247.444 95.9355 246.981 95.9355 246.36C95.9355 245.786 95.707 245.341 95.25 245.024C94.793 244.708 94.2539 244.55 93.6328 244.55C93.2344 244.55 92.7832 244.602 92.2793 244.708C91.7754 244.802 91.3359 244.942 90.9609 245.13L90.8379 244.216C91.2363 244.052 91.6582 243.917 92.1035 243.811C92.5605 243.706 93.0234 243.653 93.4922 243.653C94.5938 243.653 95.4609 243.899 96.0938 244.391C96.7266 244.872 97.043 245.552 97.043 246.431C97.043 247.087 96.8086 247.602 96.3398 247.977C95.8828 248.352 95.3965 248.569 94.8809 248.628V248.681C95.5488 248.833 96.1055 249.114 96.5508 249.524C97.0078 249.923 97.2363 250.497 97.2363 251.247C97.2363 252.114 96.8906 252.817 96.1992 253.356C95.5195 253.884 94.6289 254.147 93.5273 254.147C93.082 254.147 92.6016 254.095 92.0859 253.989C91.5703 253.884 91.0957 253.743 90.6621 253.567L90.7852 252.6C91.2305 252.8 91.6758 252.958 92.1211 253.075C92.5781 253.192 93.041 253.251 93.5098 253.251ZM93.8086 240.366C96.3516 240.366 98.4023 241.169 99.9609 242.774C101.52 244.38 102.299 246.372 102.299 248.751C102.299 251.153 101.531 253.151 99.9961 254.745C98.4727 256.35 96.4102 257.153 93.8086 257.153C91.2656 257.153 89.2148 256.35 87.6562 254.745C86.1094 253.151 85.3359 251.153 85.3359 248.751C85.3359 246.372 86.1152 244.38 87.6738 242.774C89.2324 241.169 91.2773 240.366 93.8086 240.366ZM93.8086 241.069C91.5703 241.069 89.7188 241.796 88.2539 243.249C86.7891 244.702 86.0566 246.548 86.0566 248.786C86.0566 250.942 86.7598 252.765 88.166 254.253C89.5723 255.729 91.4531 256.468 93.8086 256.468C96.1758 256.468 98.0625 255.724 99.4688 254.235C100.875 252.735 101.578 250.919 101.578 248.786C101.578 246.524 100.84 244.673 99.3633 243.231C97.8984 241.79 96.0469 241.069 93.8086 241.069Z" fill="#666666"/>
    <path d="M111.197 244.55C111.197 244.057 111.314 243.606 111.549 243.196C111.795 242.774 112.158 242.417 112.639 242.124C113.119 241.819 113.723 241.585 114.449 241.421C115.176 241.257 116.025 241.175 116.998 241.175C117.959 241.175 118.803 241.257 119.529 241.421C120.256 241.585 120.859 241.819 121.34 242.124C121.832 242.417 122.195 242.774 122.43 243.196C122.676 243.606 122.799 244.057 122.799 244.55C122.799 245.042 122.676 245.499 122.43 245.921C122.195 246.331 121.832 246.688 121.34 246.993C120.859 247.286 120.256 247.515 119.529 247.679C118.803 247.843 117.959 247.925 116.998 247.925C116.025 247.925 115.176 247.843 114.449 247.679C113.723 247.515 113.119 247.286 112.639 246.993C112.158 246.688 111.795 246.331 111.549 245.921C111.314 245.499 111.197 245.042 111.197 244.55ZM112.34 244.55C112.34 245.265 112.732 245.845 113.518 246.29C114.303 246.724 115.463 246.94 116.998 246.94C118.533 246.94 119.693 246.724 120.479 246.29C121.264 245.845 121.656 245.265 121.656 244.55C121.656 243.835 121.264 243.255 120.479 242.809C119.693 242.364 118.533 242.141 116.998 242.141C115.463 242.141 114.303 242.364 113.518 242.809C112.732 243.255 112.34 243.835 112.34 244.55ZM116.383 256.063V251.124H109.703V250.069H124.293V251.124H117.596V256.063H116.383Z" fill="#666666"/>
    <path d="M130 249.587L152 249.587" stroke="#666666" stroke-linecap="round"/>
    <circle cx="161" cy="249" r="9" fill="#999999"/>
    <circle cx="196" cy="292" r="9" fill="#999999"/>
    <path d="M124.686 313.653C125.576 313.653 126.332 313.888 126.953 314.356C127.574 314.825 127.885 315.511 127.885 316.413C127.885 316.952 127.715 317.497 127.375 318.048C127.047 318.587 126.514 319.19 125.775 319.858C125.564 320.057 125.037 320.485 124.193 321.141C123.361 321.786 122.805 322.243 122.523 322.513H128.043V323.444H121.311V322.337C121.533 322.126 122.09 321.675 122.98 320.983C123.871 320.292 124.516 319.753 124.914 319.366C125.723 318.569 126.238 317.954 126.461 317.52C126.695 317.087 126.812 316.729 126.812 316.448C126.812 315.897 126.607 315.446 126.197 315.095C125.799 314.743 125.289 314.567 124.668 314.567C124.223 314.567 123.754 314.667 123.262 314.866C122.77 315.054 122.312 315.265 121.891 315.499L121.715 314.55C122.125 314.35 122.576 314.151 123.068 313.952C123.561 313.753 124.1 313.653 124.686 313.653ZM124.809 310.366C127.352 310.366 129.402 311.169 130.961 312.774C132.52 314.38 133.299 316.372 133.299 318.751C133.299 321.153 132.531 323.151 130.996 324.745C129.473 326.35 127.41 327.153 124.809 327.153C122.266 327.153 120.215 326.35 118.656 324.745C117.109 323.151 116.336 321.153 116.336 318.751C116.336 316.372 117.115 314.38 118.674 312.774C120.232 311.169 122.277 310.366 124.809 310.366ZM124.809 311.069C122.57 311.069 120.719 311.796 119.254 313.249C117.789 314.702 117.057 316.548 117.057 318.786C117.057 320.942 117.76 322.765 119.166 324.253C120.572 325.729 122.453 326.468 124.809 326.468C127.176 326.468 129.062 325.724 130.469 324.235C131.875 322.735 132.578 320.919 132.578 318.786C132.578 316.524 131.84 314.673 130.363 313.231C128.898 311.79 127.047 311.069 124.809 311.069Z" fill="#666666"/>
    <path d="M140.406 315.059C140.406 314.474 140.506 313.946 140.705 313.477C140.904 313.009 141.18 312.61 141.531 312.282C141.895 311.942 142.322 311.684 142.814 311.509C143.307 311.333 143.846 311.245 144.432 311.245C145.006 311.245 145.539 311.333 146.031 311.509C146.523 311.684 146.945 311.942 147.297 312.282C147.66 312.61 147.941 313.009 148.141 313.477C148.34 313.946 148.439 314.474 148.439 315.059C148.439 315.645 148.34 316.173 148.141 316.641C147.941 317.11 147.66 317.515 147.297 317.854C146.945 318.182 146.523 318.44 146.031 318.628C145.539 318.804 145.006 318.891 144.432 318.891C143.846 318.891 143.307 318.804 142.814 318.628C142.322 318.44 141.895 318.182 141.531 317.854C141.18 317.515 140.904 317.11 140.705 316.641C140.506 316.173 140.406 315.645 140.406 315.059ZM141.971 326.257V325.22H144.889V321.897H142.234V320.86H153.502V321.897H151.164V325.22H153.766V326.257H141.971ZM141.566 315.059C141.566 315.493 141.637 315.886 141.777 316.237C141.918 316.577 142.117 316.87 142.375 317.116C142.633 317.35 142.938 317.532 143.289 317.661C143.641 317.79 144.021 317.854 144.432 317.854C144.842 317.854 145.217 317.79 145.557 317.661C145.908 317.532 146.213 317.35 146.471 317.116C146.729 316.87 146.928 316.577 147.068 316.237C147.209 315.886 147.279 315.493 147.279 315.059C147.279 314.626 147.209 314.239 147.068 313.899C146.928 313.548 146.729 313.255 146.471 313.02C146.213 312.786 145.908 312.604 145.557 312.475C145.217 312.347 144.842 312.282 144.432 312.282C144.021 312.282 143.641 312.347 143.289 312.475C142.938 312.604 142.633 312.786 142.375 313.02C142.117 313.255 141.918 313.548 141.777 313.899C141.637 314.239 141.566 314.626 141.566 315.059ZM152.025 319.735V310.806H153.238V314.936H156.139V315.974H153.238V319.735H152.025ZM145.979 325.22H150.074V321.897H145.979V325.22Z" fill="#666666"/>
    <path d="M163.832 319.214L173.671 319.155" stroke="#666666" stroke-linecap="round"/>
    <path d="M173.676 319.155L189.777 298.582" stroke="#666666" stroke-linecap="round"/>
    <circle cx="231" cy="308.587" r="9" fill="#999999"/>
    <path d="M298.586 341.888V339.04C297.566 339.263 296.424 339.415 295.158 339.497C293.904 339.567 292.545 339.602 291.08 339.602H286.703V338.565H291.098H291.66V335.155H292.873V338.548C293.904 338.524 294.9 338.477 295.861 338.407C296.834 338.325 297.742 338.184 298.586 337.985V326.806H299.799V333.222H302.875V334.259H299.799V341.888H298.586ZM292.117 331.516C292.105 331.599 292.064 331.745 291.994 331.956C291.924 332.155 291.842 332.337 291.748 332.501C291.467 332.981 291.051 333.462 290.5 333.942C289.961 334.423 289.217 334.927 288.268 335.454L287.494 334.575C288.279 334.188 288.936 333.778 289.463 333.345C290.002 332.911 290.436 332.466 290.764 332.009C291.092 331.552 291.32 331.1 291.449 330.655C291.59 330.21 291.66 329.788 291.66 329.39V328.897H287.934V327.86H296.635V328.897H292.873V329.39C292.873 329.765 292.943 330.175 293.084 330.62C293.225 331.054 293.459 331.493 293.787 331.938C294.115 332.372 294.543 332.794 295.07 333.204C295.598 333.602 296.248 333.948 297.021 334.241L296.354 335.19C295.404 334.78 294.643 334.335 294.068 333.854C293.506 333.362 293.084 332.893 292.803 332.448C292.697 332.284 292.604 332.108 292.521 331.921C292.451 331.733 292.41 331.599 292.398 331.516H292.117Z" fill="#666666"/>
    <path d="M268.906 330.938L271.367 328.899H272.229V338.954H271.227V330.112L269.504 331.624L268.906 330.938ZM271.508 325.366C274.051 325.366 276.102 326.169 277.66 327.774C279.219 329.38 279.998 331.372 279.998 333.751C279.998 336.153 279.23 338.151 277.695 339.745C276.172 341.35 274.109 342.153 271.508 342.153C268.965 342.153 266.914 341.35 265.355 339.745C263.809 338.151 263.035 336.153 263.035 333.751C263.035 331.372 263.814 329.38 265.373 327.774C266.932 326.169 268.977 325.366 271.508 325.366ZM271.508 326.069C269.27 326.069 267.418 326.796 265.953 328.249C264.488 329.702 263.756 331.548 263.756 333.786C263.756 335.942 264.459 337.765 265.865 339.253C267.271 340.729 269.152 341.468 271.508 341.468C273.875 341.468 275.762 340.724 277.168 339.235C278.574 337.735 279.277 335.919 279.277 333.786C279.277 331.524 278.539 329.673 277.062 328.231C275.598 326.79 273.746 326.069 271.508 326.069Z" fill="#666666"/>
    <path d="M256.195 334.839L247.292 334.839" stroke="#666666" stroke-linecap="round"/>
    <path d="M247.297 334.838L236.521 316.053" stroke="#666666" stroke-linecap="round"/>
</svg>
