<svg width="224" height="114" viewBox="0 0 224 114" fill="none" xmlns="http://www.w3.org/2000/svg">
    <line x1="41.5" y1="-2.18557e-08" x2="41.5" y2="90" stroke="#666666"/>
    <line x1="223" y1="26" x2="43" y2="26" stroke="#DDDDDD" stroke-width="2" stroke-linecap="round" stroke-dasharray="5 8"/>
    <line x1="224" y1="90.5" x2="41" y2="90.5" stroke="#666666"/>
    <path d="M4.25391 22.2188C3.95703 22.2188 3.70312 22.2773 3.49219 22.3945C3.28906 22.5117 3.11328 22.6719 2.96484 22.875C2.82422 23.0703 2.71094 23.293 2.625 23.543C2.54688 23.793 2.48438 24.0508 2.4375 24.3164C2.39062 24.5742 2.35938 24.832 2.34375 25.0898C2.33594 25.3477 2.33203 25.5781 2.33203 25.7812C2.33203 26.0938 2.34766 26.4531 2.37891 26.8594C2.41797 27.2656 2.5 27.6523 2.625 28.0195C2.75781 28.3867 2.94922 28.6992 3.19922 28.957C3.45703 29.207 3.80859 29.332 4.25391 29.332C4.69141 29.332 5.03906 29.207 5.29688 28.957C5.55469 28.6992 5.74609 28.3867 5.87109 28.0195C6.00391 27.6523 6.08594 27.2656 6.11719 26.8594C6.15625 26.4531 6.17578 26.0938 6.17578 25.7812C6.17578 25.5781 6.16797 25.3477 6.15234 25.0898C6.14453 24.832 6.11719 24.5742 6.07031 24.3164C6.02344 24.0508 5.95703 23.793 5.87109 23.543C5.78516 23.293 5.67188 23.0703 5.53125 22.875C5.39062 22.6719 5.21484 22.5117 5.00391 22.3945C4.79297 22.2773 4.54297 22.2188 4.25391 22.2188ZM4.25391 21.5156C4.81641 21.5156 5.27734 21.6406 5.63672 21.8906C5.99609 22.1328 6.27734 22.4531 6.48047 22.8516C6.68359 23.25 6.82031 23.707 6.89062 24.2227C6.96875 24.7305 7.00781 25.25 7.00781 25.7812C7.00781 26.3125 6.96875 26.832 6.89062 27.3398C6.82031 27.8477 6.68359 28.3047 6.48047 28.7109C6.27734 29.1172 5.99609 29.4453 5.63672 29.6953C5.27734 29.9375 4.81641 30.0586 4.25391 30.0586C3.68359 30.0586 3.21875 29.9375 2.85938 29.6953C2.5 29.4453 2.21875 29.1172 2.01562 28.7109C1.8125 28.3047 1.67188 27.8477 1.59375 27.3398C1.52344 26.832 1.48828 26.3125 1.48828 25.7812C1.48828 25.25 1.52344 24.7305 1.59375 24.2227C1.67188 23.707 1.8125 23.25 2.01562 22.8516C2.21875 22.4531 2.5 22.1328 2.85938 21.8906C3.21875 21.6406 3.68359 21.5156 4.25391 21.5156ZM9.49219 30.2227H8.29688V28.957H9.49219V30.2227ZM13.5469 22.2188C13.25 22.2188 12.9961 22.2773 12.7852 22.3945C12.582 22.5117 12.4062 22.6719 12.2578 22.875C12.1172 23.0703 12.0039 23.293 11.918 23.543C11.8398 23.793 11.7773 24.0508 11.7305 24.3164C11.6836 24.5742 11.6523 24.832 11.6367 25.0898C11.6289 25.3477 11.625 25.5781 11.625 25.7812C11.625 26.0938 11.6406 26.4531 11.6719 26.8594C11.7109 27.2656 11.793 27.6523 11.918 28.0195C12.0508 28.3867 12.2422 28.6992 12.4922 28.957C12.75 29.207 13.1016 29.332 13.5469 29.332C13.9844 29.332 14.332 29.207 14.5898 28.957C14.8477 28.6992 15.0391 28.3867 15.1641 28.0195C15.2969 27.6523 15.3789 27.2656 15.4102 26.8594C15.4492 26.4531 15.4688 26.0938 15.4688 25.7812C15.4688 25.5781 15.4609 25.3477 15.4453 25.0898C15.4375 24.832 15.4102 24.5742 15.3633 24.3164C15.3164 24.0508 15.25 23.793 15.1641 23.543C15.0781 23.293 14.9648 23.0703 14.8242 22.875C14.6836 22.6719 14.5078 22.5117 14.2969 22.3945C14.0859 22.2773 13.8359 22.2188 13.5469 22.2188ZM13.5469 21.5156C14.1094 21.5156 14.5703 21.6406 14.9297 21.8906C15.2891 22.1328 15.5703 22.4531 15.7734 22.8516C15.9766 23.25 16.1133 23.707 16.1836 24.2227C16.2617 24.7305 16.3008 25.25 16.3008 25.7812C16.3008 26.3125 16.2617 26.832 16.1836 27.3398C16.1133 27.8477 15.9766 28.3047 15.7734 28.7109C15.5703 29.1172 15.2891 29.4453 14.9297 29.6953C14.5703 29.9375 14.1094 30.0586 13.5469 30.0586C12.9766 30.0586 12.5117 29.9375 12.1523 29.6953C11.793 29.4453 11.5117 29.1172 11.3086 28.7109C11.1055 28.3047 10.9648 27.8477 10.8867 27.3398C10.8164 26.832 10.7812 26.3125 10.7812 25.7812C10.7812 25.25 10.8164 24.7305 10.8867 24.2227C10.9648 23.707 11.1055 23.25 11.3086 22.8516C11.5117 22.4531 11.793 22.1328 12.1523 21.8906C12.5117 21.6406 12.9766 21.5156 13.5469 21.5156ZM22.7109 21.6797V22.3828L19.4766 30H18.5625L21.8906 22.4062H17.4141V21.6797H22.7109ZM26.6719 29.4492C26.9922 29.4492 27.2695 29.3906 27.5039 29.2734C27.7461 29.1562 27.9453 29 28.1016 28.8047C28.2578 28.6016 28.375 28.3672 28.4531 28.1016C28.5312 27.8359 28.5703 27.5547 28.5703 27.2578C28.5703 26.9609 28.5312 26.6875 28.4531 26.4375C28.375 26.1875 28.2578 25.9727 28.1016 25.793C27.9531 25.6133 27.7617 25.4766 27.5273 25.3828C27.3008 25.2812 27.0312 25.2305 26.7188 25.2305C26.5156 25.2305 26.3203 25.2617 26.1328 25.3242C25.9531 25.3789 25.7891 25.4609 25.6406 25.5703C25.4922 25.6797 25.3633 25.8164 25.2539 25.9805C25.1523 26.1367 25.0781 26.3125 25.0312 26.5078H24.2344L24.4219 21.6797H28.9922V22.4062H25.1719L25.0312 25.3711L25.0547 25.3945C25.2891 25.1211 25.5586 24.9102 25.8633 24.7617C26.168 24.6055 26.5078 24.5273 26.8828 24.5273C27.2734 24.5273 27.625 24.6016 27.9375 24.75C28.25 24.8984 28.5156 25.1016 28.7344 25.3594C28.9531 25.6094 29.1211 25.9023 29.2383 26.2383C29.3555 26.5664 29.4141 26.918 29.4141 27.293C29.4141 27.6914 29.3516 28.0664 29.2266 28.418C29.1016 28.7617 28.9258 29.0664 28.6992 29.332C28.4727 29.5898 28.1914 29.793 27.8555 29.9414C27.5273 30.0898 27.1602 30.1641 26.7539 30.1641C26.2539 30.1641 25.8164 30.1094 25.4414 30C25.0664 29.8984 24.7383 29.793 24.457 29.6836L24.4922 28.8984C24.625 28.9688 24.7773 29.0391 24.9492 29.1094C25.1289 29.1719 25.3125 29.2305 25.5 29.2852C25.6953 29.332 25.8945 29.3711 26.0977 29.4023C26.3008 29.4336 26.4922 29.4492 26.6719 29.4492Z" fill="#666666"/>
    <path d="M10.6172 5.40625H11.9766C12.2109 5.40625 12.4531 5.39453 12.7031 5.37109C12.9531 5.33984 13.1797 5.28125 13.3828 5.19531C13.5938 5.10938 13.7656 4.98828 13.8984 4.83203C14.0312 4.66797 14.0977 4.45312 14.0977 4.1875C14.0977 3.89844 14.0312 3.67578 13.8984 3.51953C13.7656 3.35547 13.5977 3.23828 13.3945 3.16797C13.1992 3.09766 12.9844 3.05859 12.75 3.05078C12.5234 3.03516 12.3125 3.02734 12.1172 3.02734H10.6172V5.40625ZM13.7461 5.83984C13.9727 5.87891 14.168 5.96484 14.332 6.09766C14.5039 6.22266 14.6445 6.37109 14.7539 6.54297C14.8633 6.70703 14.9453 6.88672 15 7.08203C15.0547 7.26953 15.0898 7.44531 15.1055 7.60938C15.1211 7.83594 15.1406 8.07812 15.1641 8.33594C15.1875 8.58594 15.2148 8.82422 15.2461 9.05078C15.2852 9.27734 15.3281 9.47656 15.375 9.64844C15.4297 9.82031 15.4922 9.9375 15.5625 10H14.25C14.1797 9.83594 14.125 9.66797 14.0859 9.49609C14.0469 9.31641 14.0156 9.14062 13.9922 8.96875C13.9688 8.79688 13.9492 8.63672 13.9336 8.48828C13.9258 8.33203 13.9141 8.19531 13.8984 8.07812C13.8594 7.79688 13.8203 7.55859 13.7812 7.36328C13.7422 7.16797 13.6758 7.01172 13.582 6.89453C13.4883 6.76953 13.3594 6.67969 13.1953 6.625C13.0312 6.5625 12.8086 6.52734 12.5273 6.51953H10.6172V10H9.42188V1.91406H12.293C12.6758 1.91406 13.0469 1.94922 13.4062 2.01953C13.7734 2.08984 14.0977 2.21094 14.3789 2.38281C14.668 2.55469 14.8984 2.78125 15.0703 3.0625C15.2422 3.34375 15.3281 3.69531 15.3281 4.11719C15.3281 4.36719 15.2773 4.59375 15.1758 4.79688C15.0742 4.99219 14.9453 5.16016 14.7891 5.30078C14.6328 5.44141 14.4609 5.55469 14.2734 5.64062C14.0938 5.72656 13.918 5.78516 13.7461 5.81641V5.83984ZM21.668 8.46484V9.60156C21.5352 9.67188 21.4023 9.73828 21.2695 9.80078C21.1367 9.85547 20.9922 9.90625 20.8359 9.95312C20.6797 9.99219 20.5039 10.0234 20.3086 10.0469C20.1133 10.0703 19.8867 10.082 19.6289 10.082C19.0977 10.082 18.6406 10.0039 18.2578 9.84766C17.8828 9.68359 17.5703 9.46094 17.3203 9.17969C17.0781 8.89844 16.8984 8.56641 16.7812 8.18359C16.6719 7.79297 16.6172 7.375 16.6172 6.92969C16.6172 6.4375 16.6875 6 16.8281 5.61719C16.9688 5.22656 17.1641 4.89453 17.4141 4.62109C17.6719 4.34766 17.9727 4.14062 18.3164 4C18.6602 3.85156 19.0352 3.77734 19.4414 3.77734C19.8867 3.77734 20.2773 3.85547 20.6133 4.01172C20.9492 4.16016 21.2266 4.36719 21.4453 4.63281C21.6719 4.89844 21.8398 5.21094 21.9492 5.57031C22.0664 5.92969 22.125 6.31641 22.125 6.73047V7.30469H17.8125C17.8516 7.86719 18.0312 8.30078 18.3516 8.60547C18.6719 8.91016 19.1211 9.0625 19.6992 9.0625C20.1758 9.0625 20.5664 9 20.8711 8.875C21.1758 8.75 21.4414 8.61328 21.668 8.46484ZM17.8359 6.27344H20.9414C20.9258 5.82812 20.793 5.46875 20.543 5.19531C20.293 4.91406 19.9375 4.77344 19.4766 4.77344C19 4.77344 18.6172 4.91797 18.3281 5.20703C18.0469 5.49609 17.8828 5.85156 17.8359 6.27344ZM26.9062 1.375V2.25391C26.7969 2.23047 26.6758 2.21484 26.543 2.20703C26.4102 2.19141 26.3086 2.18359 26.2383 2.18359C26.0508 2.18359 25.9023 2.21094 25.793 2.26562C25.6914 2.32031 25.6133 2.39844 25.5586 2.5C25.5117 2.60156 25.4805 2.72266 25.4648 2.86328C25.457 3.00391 25.4531 3.16016 25.4531 3.33203V3.95312H26.8594V4.98438H25.4531V10H24.3047V4.98438H23.0625V3.95312H24.3047V2.80469C24.3047 1.71094 24.875 1.16406 26.0156 1.16406C26.0938 1.16406 26.2266 1.18359 26.4141 1.22266C26.6016 1.26172 26.7656 1.3125 26.9062 1.375ZM29.4141 10.2227H27.9023V8.69922H29.4141V10.2227Z" fill="#333333"/>
    <path d="M26.543 86.2188C26.2461 86.2188 25.9922 86.2773 25.7812 86.3945C25.5781 86.5117 25.4023 86.6719 25.2539 86.875C25.1133 87.0703 25 87.293 24.9141 87.543C24.8359 87.793 24.7734 88.0508 24.7266 88.3164C24.6797 88.5742 24.6484 88.832 24.6328 89.0898C24.625 89.3477 24.6211 89.5781 24.6211 89.7812C24.6211 90.0938 24.6367 90.4531 24.668 90.8594C24.707 91.2656 24.7891 91.6523 24.9141 92.0195C25.0469 92.3867 25.2383 92.6992 25.4883 92.957C25.7461 93.207 26.0977 93.332 26.543 93.332C26.9805 93.332 27.3281 93.207 27.5859 92.957C27.8438 92.6992 28.0352 92.3867 28.1602 92.0195C28.293 91.6523 28.375 91.2656 28.4062 90.8594C28.4453 90.4531 28.4648 90.0938 28.4648 89.7812C28.4648 89.5781 28.457 89.3477 28.4414 89.0898C28.4336 88.832 28.4062 88.5742 28.3594 88.3164C28.3125 88.0508 28.2461 87.793 28.1602 87.543C28.0742 87.293 27.9609 87.0703 27.8203 86.875C27.6797 86.6719 27.5039 86.5117 27.293 86.3945C27.082 86.2773 26.832 86.2188 26.543 86.2188ZM26.543 85.5156C27.1055 85.5156 27.5664 85.6406 27.9258 85.8906C28.2852 86.1328 28.5664 86.4531 28.7695 86.8516C28.9727 87.25 29.1094 87.707 29.1797 88.2227C29.2578 88.7305 29.2969 89.25 29.2969 89.7812C29.2969 90.3125 29.2578 90.832 29.1797 91.3398C29.1094 91.8477 28.9727 92.3047 28.7695 92.7109C28.5664 93.1172 28.2852 93.4453 27.9258 93.6953C27.5664 93.9375 27.1055 94.0586 26.543 94.0586C25.9727 94.0586 25.5078 93.9375 25.1484 93.6953C24.7891 93.4453 24.5078 93.1172 24.3047 92.7109C24.1016 92.3047 23.9609 91.8477 23.8828 91.3398C23.8125 90.832 23.7773 90.3125 23.7773 89.7812C23.7773 89.25 23.8125 88.7305 23.8828 88.2227C23.9609 87.707 24.1016 87.25 24.3047 86.8516C24.5078 86.4531 24.7891 86.1328 25.1484 85.8906C25.5078 85.6406 25.9727 85.5156 26.543 85.5156Z" fill="#666666"/>
    <path d="M72.2715 105.273L74.1699 103.691H74.8496V112H74.0879V104.629L72.7285 105.812L72.2715 105.273Z" fill="#666666"/>
    <path d="M112.512 103.516C112.848 103.516 113.164 103.559 113.461 103.645C113.766 103.73 114.031 103.863 114.258 104.043C114.484 104.215 114.664 104.438 114.797 104.711C114.93 104.977 114.996 105.289 114.996 105.648C114.996 105.977 114.922 106.312 114.773 106.656C114.633 107 114.441 107.348 114.199 107.699C113.965 108.043 113.695 108.387 113.391 108.73C113.094 109.066 112.789 109.391 112.477 109.703C112.172 110.008 111.871 110.297 111.574 110.57C111.285 110.836 111.035 111.07 110.824 111.273H115.113V112H109.887V111.168C110.066 111.004 110.297 110.793 110.578 110.535C110.859 110.27 111.156 109.977 111.469 109.656C111.789 109.328 112.109 108.984 112.43 108.625C112.75 108.266 113.039 107.91 113.297 107.559C113.555 107.207 113.762 106.871 113.918 106.551C114.082 106.23 114.164 105.945 114.164 105.695C114.164 105.453 114.117 105.242 114.023 105.062C113.938 104.875 113.816 104.719 113.66 104.594C113.512 104.469 113.336 104.375 113.133 104.312C112.93 104.25 112.715 104.219 112.488 104.219C112.145 104.219 111.785 104.293 111.41 104.441C111.035 104.582 110.684 104.746 110.355 104.934L110.215 104.172C110.52 104.023 110.863 103.879 111.246 103.738C111.637 103.59 112.059 103.516 112.512 103.516Z" fill="#666666"/>
    <path d="M151.102 111.449C151.375 111.449 151.633 111.414 151.875 111.344C152.125 111.266 152.34 111.152 152.52 111.004C152.707 110.855 152.852 110.672 152.953 110.453C153.062 110.227 153.117 109.965 153.117 109.668C153.117 109.34 153.043 109.07 152.895 108.859C152.754 108.641 152.566 108.473 152.332 108.355C152.105 108.23 151.848 108.145 151.559 108.098C151.27 108.051 150.98 108.027 150.691 108.027H149.93V107.301H150.691C150.957 107.301 151.227 107.277 151.5 107.23C151.773 107.184 152.02 107.102 152.238 106.984C152.457 106.859 152.637 106.695 152.777 106.492C152.918 106.289 152.988 106.031 152.988 105.719C152.988 105.484 152.938 105.273 152.836 105.086C152.742 104.898 152.613 104.742 152.449 104.617C152.285 104.484 152.094 104.387 151.875 104.324C151.656 104.254 151.426 104.215 151.184 104.207C151.043 104.199 150.879 104.207 150.691 104.23C150.512 104.246 150.328 104.273 150.141 104.312C149.953 104.352 149.766 104.398 149.578 104.453C149.398 104.508 149.234 104.57 149.086 104.641L149.016 103.914C149.32 103.797 149.645 103.703 149.988 103.633C150.34 103.555 150.691 103.516 151.043 103.516C151.395 103.516 151.734 103.559 152.062 103.645C152.398 103.73 152.695 103.863 152.953 104.043C153.219 104.223 153.43 104.457 153.586 104.746C153.742 105.027 153.82 105.371 153.82 105.777C153.82 106.027 153.773 106.258 153.68 106.469C153.594 106.68 153.473 106.863 153.316 107.02C153.168 107.176 152.992 107.309 152.789 107.418C152.586 107.52 152.367 107.594 152.133 107.641V107.664C152.398 107.727 152.641 107.82 152.859 107.945C153.086 108.062 153.281 108.211 153.445 108.391C153.609 108.562 153.734 108.766 153.82 109C153.914 109.234 153.961 109.492 153.961 109.773C153.961 110.164 153.879 110.508 153.715 110.805C153.551 111.102 153.332 111.352 153.059 111.555C152.793 111.758 152.488 111.91 152.145 112.012C151.809 112.113 151.465 112.164 151.113 112.164C150.762 112.164 150.379 112.121 149.965 112.035C149.559 111.949 149.191 111.84 148.863 111.707L148.969 110.945C149.68 111.281 150.391 111.449 151.102 111.449Z" fill="#666666"/>
    <path d="M191.355 112.105V110.066H187.699V109.305L191.109 103.68H192.141V109.41H193.477V110.066H192.141V112.105H191.355ZM191.355 109.41V104.5L188.402 109.41H191.355Z" fill="#666666"/>
    <path d="M76 35L112 22" stroke="#999999" stroke-width="2" stroke-linecap="round" stroke-dasharray="2 3"/>
    <circle cx="75.5" cy="34.5" r="4.5" fill="#D9D9D9"/>
    <path d="M64.4688 51.2188C64.1719 51.2188 63.918 51.2773 63.707 51.3945C63.5039 51.5117 63.3281 51.6719 63.1797 51.875C63.0391 52.0703 62.9258 52.293 62.8398 52.543C62.7617 52.793 62.6992 53.0508 62.6523 53.3164C62.6055 53.5742 62.5742 53.832 62.5586 54.0898C62.5508 54.3477 62.5469 54.5781 62.5469 54.7812C62.5469 55.0938 62.5625 55.4531 62.5938 55.8594C62.6328 56.2656 62.7148 56.6523 62.8398 57.0195C62.9727 57.3867 63.1641 57.6992 63.4141 57.957C63.6719 58.207 64.0234 58.332 64.4688 58.332C64.9062 58.332 65.2539 58.207 65.5117 57.957C65.7695 57.6992 65.9609 57.3867 66.0859 57.0195C66.2188 56.6523 66.3008 56.2656 66.332 55.8594C66.3711 55.4531 66.3906 55.0938 66.3906 54.7812C66.3906 54.5781 66.3828 54.3477 66.3672 54.0898C66.3594 53.832 66.332 53.5742 66.2852 53.3164C66.2383 53.0508 66.1719 52.793 66.0859 52.543C66 52.293 65.8867 52.0703 65.7461 51.875C65.6055 51.6719 65.4297 51.5117 65.2188 51.3945C65.0078 51.2773 64.7578 51.2188 64.4688 51.2188ZM64.4688 50.5156C65.0312 50.5156 65.4922 50.6406 65.8516 50.8906C66.2109 51.1328 66.4922 51.4531 66.6953 51.8516C66.8984 52.25 67.0352 52.707 67.1055 53.2227C67.1836 53.7305 67.2227 54.25 67.2227 54.7812C67.2227 55.3125 67.1836 55.832 67.1055 56.3398C67.0352 56.8477 66.8984 57.3047 66.6953 57.7109C66.4922 58.1172 66.2109 58.4453 65.8516 58.6953C65.4922 58.9375 65.0312 59.0586 64.4688 59.0586C63.8984 59.0586 63.4336 58.9375 63.0742 58.6953C62.7148 58.4453 62.4336 58.1172 62.2305 57.7109C62.0273 57.3047 61.8867 56.8477 61.8086 56.3398C61.7383 55.832 61.7031 55.3125 61.7031 54.7812C61.7031 54.25 61.7383 53.7305 61.8086 53.2227C61.8867 52.707 62.0273 52.25 62.2305 51.8516C62.4336 51.4531 62.7148 51.1328 63.0742 50.8906C63.4336 50.6406 63.8984 50.5156 64.4688 50.5156ZM69.707 59.2227H68.5117V57.957H69.707V59.2227ZM73.7617 51.2188C73.4648 51.2188 73.2109 51.2773 73 51.3945C72.7969 51.5117 72.6211 51.6719 72.4727 51.875C72.332 52.0703 72.2188 52.293 72.1328 52.543C72.0547 52.793 71.9922 53.0508 71.9453 53.3164C71.8984 53.5742 71.8672 53.832 71.8516 54.0898C71.8438 54.3477 71.8398 54.5781 71.8398 54.7812C71.8398 55.0938 71.8555 55.4531 71.8867 55.8594C71.9258 56.2656 72.0078 56.6523 72.1328 57.0195C72.2656 57.3867 72.457 57.6992 72.707 57.957C72.9648 58.207 73.3164 58.332 73.7617 58.332C74.1992 58.332 74.5469 58.207 74.8047 57.957C75.0625 57.6992 75.2539 57.3867 75.3789 57.0195C75.5117 56.6523 75.5938 56.2656 75.625 55.8594C75.6641 55.4531 75.6836 55.0938 75.6836 54.7812C75.6836 54.5781 75.6758 54.3477 75.6602 54.0898C75.6523 53.832 75.625 53.5742 75.5781 53.3164C75.5312 53.0508 75.4648 52.793 75.3789 52.543C75.293 52.293 75.1797 52.0703 75.0391 51.875C74.8984 51.6719 74.7227 51.5117 74.5117 51.3945C74.3008 51.2773 74.0508 51.2188 73.7617 51.2188ZM73.7617 50.5156C74.3242 50.5156 74.7852 50.6406 75.1445 50.8906C75.5039 51.1328 75.7852 51.4531 75.9883 51.8516C76.1914 52.25 76.3281 52.707 76.3984 53.2227C76.4766 53.7305 76.5156 54.25 76.5156 54.7812C76.5156 55.3125 76.4766 55.832 76.3984 56.3398C76.3281 56.8477 76.1914 57.3047 75.9883 57.7109C75.7852 58.1172 75.5039 58.4453 75.1445 58.6953C74.7852 58.9375 74.3242 59.0586 73.7617 59.0586C73.1914 59.0586 72.7266 58.9375 72.3672 58.6953C72.0078 58.4453 71.7266 58.1172 71.5234 57.7109C71.3203 57.3047 71.1797 56.8477 71.1016 56.3398C71.0312 55.832 70.9961 55.3125 70.9961 54.7812C70.9961 54.25 71.0312 53.7305 71.1016 53.2227C71.1797 52.707 71.3203 52.25 71.5234 51.8516C71.7266 51.4531 72.0078 51.1328 72.3672 50.8906C72.7266 50.6406 73.1914 50.5156 73.7617 50.5156ZM82.9258 50.6797V51.3828L79.6914 59H78.7773L82.1055 51.4062H77.6289V50.6797H82.9258ZM86.3359 58.4492C86.6094 58.4492 86.8672 58.4141 87.1094 58.3438C87.3594 58.2656 87.5742 58.1523 87.7539 58.0039C87.9414 57.8555 88.0859 57.6719 88.1875 57.4531C88.2969 57.2266 88.3516 56.9648 88.3516 56.668C88.3516 56.3398 88.2773 56.0703 88.1289 55.8594C87.9883 55.6406 87.8008 55.4727 87.5664 55.3555C87.3398 55.2305 87.082 55.1445 86.793 55.0977C86.5039 55.0508 86.2148 55.0273 85.9258 55.0273H85.1641V54.3008H85.9258C86.1914 54.3008 86.4609 54.2773 86.7344 54.2305C87.0078 54.1836 87.2539 54.1016 87.4727 53.9844C87.6914 53.8594 87.8711 53.6953 88.0117 53.4922C88.1523 53.2891 88.2227 53.0312 88.2227 52.7188C88.2227 52.4844 88.1719 52.2734 88.0703 52.0859C87.9766 51.8984 87.8477 51.7422 87.6836 51.6172C87.5195 51.4844 87.3281 51.3867 87.1094 51.3242C86.8906 51.2539 86.6602 51.2148 86.418 51.207C86.2773 51.1992 86.1133 51.207 85.9258 51.2305C85.7461 51.2461 85.5625 51.2734 85.375 51.3125C85.1875 51.3516 85 51.3984 84.8125 51.4531C84.6328 51.5078 84.4688 51.5703 84.3203 51.6406L84.25 50.9141C84.5547 50.7969 84.8789 50.7031 85.2227 50.6328C85.5742 50.5547 85.9258 50.5156 86.2773 50.5156C86.6289 50.5156 86.9688 50.5586 87.2969 50.6445C87.6328 50.7305 87.9297 50.8633 88.1875 51.043C88.4531 51.2227 88.6641 51.457 88.8203 51.7461C88.9766 52.0273 89.0547 52.3711 89.0547 52.7773C89.0547 53.0273 89.0078 53.2578 88.9141 53.4688C88.8281 53.6797 88.707 53.8633 88.5508 54.0195C88.4023 54.1758 88.2266 54.3086 88.0234 54.418C87.8203 54.5195 87.6016 54.5938 87.3672 54.6406V54.6641C87.6328 54.7266 87.875 54.8203 88.0938 54.9453C88.3203 55.0625 88.5156 55.2109 88.6797 55.3906C88.8438 55.5625 88.9688 55.7656 89.0547 56C89.1484 56.2344 89.1953 56.4922 89.1953 56.7734C89.1953 57.1641 89.1133 57.5078 88.9492 57.8047C88.7852 58.1016 88.5664 58.3516 88.293 58.5547C88.0273 58.7578 87.7227 58.9102 87.3789 59.0117C87.043 59.1133 86.6992 59.1641 86.3477 59.1641C85.9961 59.1641 85.6133 59.1211 85.1992 59.0352C84.793 58.9492 84.4258 58.8398 84.0977 58.707L84.2031 57.9453C84.9141 58.2812 85.625 58.4492 86.3359 58.4492Z" fill="#666666"/>
    <path d="M104.469 37.2188C104.172 37.2188 103.918 37.2773 103.707 37.3945C103.504 37.5117 103.328 37.6719 103.18 37.875C103.039 38.0703 102.926 38.293 102.84 38.543C102.762 38.793 102.699 39.0508 102.652 39.3164C102.605 39.5742 102.574 39.832 102.559 40.0898C102.551 40.3477 102.547 40.5781 102.547 40.7812C102.547 41.0938 102.562 41.4531 102.594 41.8594C102.633 42.2656 102.715 42.6523 102.84 43.0195C102.973 43.3867 103.164 43.6992 103.414 43.957C103.672 44.207 104.023 44.332 104.469 44.332C104.906 44.332 105.254 44.207 105.512 43.957C105.77 43.6992 105.961 43.3867 106.086 43.0195C106.219 42.6523 106.301 42.2656 106.332 41.8594C106.371 41.4531 106.391 41.0938 106.391 40.7812C106.391 40.5781 106.383 40.3477 106.367 40.0898C106.359 39.832 106.332 39.5742 106.285 39.3164C106.238 39.0508 106.172 38.793 106.086 38.543C106 38.293 105.887 38.0703 105.746 37.875C105.605 37.6719 105.43 37.5117 105.219 37.3945C105.008 37.2773 104.758 37.2188 104.469 37.2188ZM104.469 36.5156C105.031 36.5156 105.492 36.6406 105.852 36.8906C106.211 37.1328 106.492 37.4531 106.695 37.8516C106.898 38.25 107.035 38.707 107.105 39.2227C107.184 39.7305 107.223 40.25 107.223 40.7812C107.223 41.3125 107.184 41.832 107.105 42.3398C107.035 42.8477 106.898 43.3047 106.695 43.7109C106.492 44.1172 106.211 44.4453 105.852 44.6953C105.492 44.9375 105.031 45.0586 104.469 45.0586C103.898 45.0586 103.434 44.9375 103.074 44.6953C102.715 44.4453 102.434 44.1172 102.23 43.7109C102.027 43.3047 101.887 42.8477 101.809 42.3398C101.738 41.832 101.703 41.3125 101.703 40.7812C101.703 40.25 101.738 39.7305 101.809 39.2227C101.887 38.707 102.027 38.25 102.23 37.8516C102.434 37.4531 102.715 37.1328 103.074 36.8906C103.434 36.6406 103.898 36.5156 104.469 36.5156ZM109.707 45.2227H108.512V43.957H109.707V45.2227ZM113.762 37.2188C113.465 37.2188 113.211 37.2773 113 37.3945C112.797 37.5117 112.621 37.6719 112.473 37.875C112.332 38.0703 112.219 38.293 112.133 38.543C112.055 38.793 111.992 39.0508 111.945 39.3164C111.898 39.5742 111.867 39.832 111.852 40.0898C111.844 40.3477 111.84 40.5781 111.84 40.7812C111.84 41.0938 111.855 41.4531 111.887 41.8594C111.926 42.2656 112.008 42.6523 112.133 43.0195C112.266 43.3867 112.457 43.6992 112.707 43.957C112.965 44.207 113.316 44.332 113.762 44.332C114.199 44.332 114.547 44.207 114.805 43.957C115.062 43.6992 115.254 43.3867 115.379 43.0195C115.512 42.6523 115.594 42.2656 115.625 41.8594C115.664 41.4531 115.684 41.0938 115.684 40.7812C115.684 40.5781 115.676 40.3477 115.66 40.0898C115.652 39.832 115.625 39.5742 115.578 39.3164C115.531 39.0508 115.465 38.793 115.379 38.543C115.293 38.293 115.18 38.0703 115.039 37.875C114.898 37.6719 114.723 37.5117 114.512 37.3945C114.301 37.2773 114.051 37.2188 113.762 37.2188ZM113.762 36.5156C114.324 36.5156 114.785 36.6406 115.145 36.8906C115.504 37.1328 115.785 37.4531 115.988 37.8516C116.191 38.25 116.328 38.707 116.398 39.2227C116.477 39.7305 116.516 40.25 116.516 40.7812C116.516 41.3125 116.477 41.832 116.398 42.3398C116.328 42.8477 116.191 43.3047 115.988 43.7109C115.785 44.1172 115.504 44.4453 115.145 44.6953C114.785 44.9375 114.324 45.0586 113.762 45.0586C113.191 45.0586 112.727 44.9375 112.367 44.6953C112.008 44.4453 111.727 44.1172 111.523 43.7109C111.32 43.3047 111.18 42.8477 111.102 42.3398C111.031 41.832 110.996 41.3125 110.996 40.7812C110.996 40.25 111.031 39.7305 111.102 39.2227C111.18 38.707 111.32 38.25 111.523 37.8516C111.727 37.4531 112.008 37.1328 112.367 36.8906C112.727 36.6406 113.191 36.5156 113.762 36.5156ZM122.926 36.6797V37.3828L119.691 45H118.777L122.105 37.4062H117.629V36.6797H122.926ZM129.219 36.6797V37.3828L125.984 45H125.07L128.398 37.4062H123.922V36.6797H129.219Z" fill="#666666"/>
    <circle cx="115.5" cy="20.5" r="4.5" fill="#E66787"/>
</svg>
