<svg width="330" height="201" viewBox="0 0 330 201" fill="none" xmlns="http://www.w3.org/2000/svg">
    <path d="M130.793 12.7188V0.882812H133.043V5.80469H135.316V0.625H137.566V12.7188H135.316V7.9375H133.043V12.7188H130.793ZM135.129 16.1641H122.566V14.0312H137.496V21.3438H135.129V16.1641ZM128.871 12.1797C128.027 11.6328 127.348 11.0625 126.832 10.4688C126.332 9.875 125.965 9.375 125.73 8.96875C125.605 8.75 125.488 8.52344 125.379 8.28906C125.27 8.03906 125.199 7.82812 125.168 7.65625H124.84C124.809 7.84375 124.754 8.0625 124.676 8.3125C124.598 8.5625 124.512 8.79688 124.418 9.01562C124.324 9.23438 124.176 9.51562 123.973 9.85938C123.785 10.1875 123.543 10.5469 123.246 10.9375C122.949 11.3125 122.598 11.7109 122.191 12.1328C121.785 12.5391 121.316 12.9297 120.785 13.3047L118.98 11.7812C120.137 11.0156 121.035 10.1953 121.676 9.32031C122.332 8.44531 122.816 7.57812 123.129 6.71875C123.441 5.85938 123.629 5.03906 123.691 4.25781C123.754 3.47656 123.785 2.80469 123.785 2.24219V1.375H126.105V2.24219C126.105 2.77344 126.129 3.39062 126.176 4.09375C126.238 4.78125 126.41 5.5 126.691 6.25C126.973 7 127.41 7.74219 128.004 8.47656C128.613 9.21094 129.465 9.89062 130.559 10.5156L128.871 12.1797ZM150.715 6.8125C150.684 7.03125 150.598 7.26562 150.457 7.51562C150.332 7.75 150.199 7.95312 150.059 8.125C149.871 8.39062 149.605 8.69531 149.262 9.03906C148.918 9.36719 148.48 9.71875 147.949 10.0938C147.434 10.4531 146.801 10.8203 146.051 11.1953C145.316 11.5547 144.449 11.8906 143.449 12.2031L142.137 10.3516C143.824 9.82031 145.168 9.22656 146.168 8.57031C147.168 7.89844 147.934 7.21875 148.465 6.53125C148.996 5.84375 149.34 5.16406 149.496 4.49219C149.668 3.82031 149.754 3.21094 149.754 2.66406V1.67969H152.051V2.66406C152.051 3.19531 152.137 3.78906 152.309 4.44531C152.496 5.10156 152.863 5.75781 153.41 6.41406C153.957 7.07031 154.73 7.70312 155.73 8.3125C156.73 8.90625 158.059 9.42188 159.715 9.85938L158.332 11.875C157.395 11.6094 156.566 11.3125 155.848 10.9844C155.145 10.6562 154.527 10.3281 153.996 10C153.48 9.67188 153.051 9.34375 152.707 9.01562C152.363 8.6875 152.09 8.39062 151.887 8.125C151.746 7.92188 151.605 7.71094 151.465 7.49219C151.324 7.25781 151.23 7.03125 151.184 6.8125H150.715ZM160.77 16.6797V18.8125H141.082V16.6797H149.73V12.2969H152.098V16.6797H160.77ZM165.996 21.3438V14.5H180.762V21.3438H165.996ZM174.527 12.8594C173.918 12.6562 173.371 12.4297 172.887 12.1797C172.418 11.9297 172.012 11.6875 171.668 11.4531C171.324 11.2031 171.051 10.9766 170.848 10.7734C170.645 10.5547 170.496 10.3828 170.402 10.2578C170.121 9.88281 169.934 9.5 169.84 9.10938H169.441C169.395 9.32812 169.332 9.52344 169.254 9.69531C169.176 9.86719 169.066 10.0625 168.926 10.2812C168.785 10.5156 168.582 10.7734 168.316 11.0547C168.066 11.3203 167.762 11.6016 167.402 11.8984C167.043 12.1953 166.621 12.4844 166.137 12.7656C165.652 13.0469 165.105 13.3125 164.496 13.5625L163.113 11.8516C164.254 11.3984 165.168 10.8906 165.855 10.3281C166.559 9.75 167.098 9.17969 167.473 8.61719C167.863 8.05469 168.121 7.53125 168.246 7.04688C168.309 6.85938 168.355 6.6875 168.387 6.53125H163.535V4.44531H175.512V6.53125H170.824C170.855 6.67188 170.887 6.82031 170.918 6.97656C171.012 7.39844 171.23 7.85156 171.574 8.33594C171.934 8.82031 172.457 9.30469 173.145 9.78906C173.832 10.2578 174.77 10.6797 175.957 11.0547L174.527 12.8594ZM178.395 13.2109V0.625H180.762V13.2109H178.395ZM178.395 16.6328H168.363V19.2109H178.395V16.6328ZM165.926 0.296875C166.395 0.46875 166.926 0.59375 167.52 0.671875C168.129 0.75 168.762 0.804687 169.418 0.835938C170.074 0.867188 170.738 0.882812 171.41 0.882812C172.082 0.867188 172.723 0.851562 173.332 0.835938V2.85156C172.957 2.85156 172.426 2.85938 171.738 2.875C171.051 2.89062 170.324 2.89062 169.559 2.875C168.809 2.84375 168.066 2.78125 167.332 2.6875C166.598 2.59375 165.988 2.45312 165.504 2.26562L165.926 0.296875ZM196.16 12.8594C195.551 12.6562 195.004 12.4297 194.52 12.1797C194.051 11.9297 193.645 11.6875 193.301 11.4531C192.957 11.2031 192.684 10.9766 192.48 10.7734C192.277 10.5547 192.129 10.3828 192.035 10.2578C191.754 9.88281 191.566 9.5 191.473 9.10938H191.074C191.027 9.32812 190.965 9.52344 190.887 9.69531C190.809 9.86719 190.699 10.0625 190.559 10.2812C190.418 10.5156 190.215 10.7734 189.949 11.0547C189.699 11.3203 189.395 11.6016 189.035 11.8984C188.676 12.1953 188.254 12.4844 187.77 12.7656C187.285 13.0469 186.738 13.3125 186.129 13.5625L184.746 11.8516C185.887 11.3984 186.801 10.8906 187.488 10.3281C188.191 9.75 188.73 9.17969 189.105 8.61719C189.496 8.05469 189.754 7.53125 189.879 7.04688C189.941 6.85938 189.988 6.6875 190.02 6.53125H185.168V4.44531H197.145V6.53125H192.457C192.488 6.67188 192.52 6.82031 192.551 6.97656C192.645 7.39844 192.863 7.85156 193.207 8.33594C193.566 8.82031 194.09 9.30469 194.777 9.78906C195.465 10.2578 196.402 10.6797 197.59 11.0547L196.16 12.8594ZM199.559 16.6328H187.16V14.5H201.926V21.3438H199.559V16.6328ZM199.559 13.2109V0.625H201.926V7.58594H205.605V9.71875H201.926V13.2109H199.559ZM187.559 0.296875C188.027 0.46875 188.559 0.59375 189.152 0.671875C189.762 0.75 190.395 0.804687 191.051 0.835938C191.707 0.867188 192.371 0.882812 193.043 0.882812C193.715 0.867188 194.355 0.851562 194.965 0.835938V2.85156C194.59 2.85156 194.059 2.85938 193.371 2.875C192.684 2.89062 191.957 2.89062 191.191 2.875C190.441 2.84375 189.699 2.78125 188.965 2.6875C188.23 2.59375 187.621 2.45312 187.137 2.26562L187.559 0.296875Z" fill="#333333"/>
    <line x1="52.5" y1="61" x2="52.5" y2="161" stroke="#666666"/>
    <line x1="330" y1="161.5" x2="52" y2="161.5" stroke="#666666"/>
    <path d="M1.36719 65.7891L4.53125 63.1523H5.66406V77H4.39453V64.7148L2.12891 66.6875L1.36719 65.7891ZM14.2773 64.0312C13.7826 64.0312 13.3594 64.1289 13.0078 64.3242C12.6693 64.5195 12.3763 64.7865 12.1289 65.125C11.8945 65.4505 11.7057 65.8216 11.5625 66.2383C11.4323 66.6549 11.3281 67.0846 11.25 67.5273C11.1719 67.957 11.1198 68.3867 11.0938 68.8164C11.0807 69.2461 11.0742 69.6302 11.0742 69.9688C11.0742 70.4896 11.1003 71.0885 11.1523 71.7656C11.2174 72.4427 11.3542 73.0872 11.5625 73.6992C11.7839 74.3112 12.1029 74.832 12.5195 75.2617C12.9492 75.6784 13.5352 75.8867 14.2773 75.8867C15.0065 75.8867 15.5859 75.6784 16.0156 75.2617C16.4453 74.832 16.7643 74.3112 16.9727 73.6992C17.194 73.0872 17.3307 72.4427 17.3828 71.7656C17.4479 71.0885 17.4805 70.4896 17.4805 69.9688C17.4805 69.6302 17.4674 69.2461 17.4414 68.8164C17.4284 68.3867 17.3828 67.957 17.3047 67.5273C17.2266 67.0846 17.1159 66.6549 16.9727 66.2383C16.8294 65.8216 16.6406 65.4505 16.4062 65.125C16.1719 64.7865 15.8789 64.5195 15.5273 64.3242C15.1758 64.1289 14.7591 64.0312 14.2773 64.0312ZM14.2773 62.8594C15.2148 62.8594 15.9831 63.0677 16.582 63.4844C17.181 63.888 17.6497 64.4219 17.9883 65.0859C18.3268 65.75 18.5547 66.5117 18.6719 67.3711C18.8021 68.2174 18.8672 69.0833 18.8672 69.9688C18.8672 70.8542 18.8021 71.7201 18.6719 72.5664C18.5547 73.4128 18.3268 74.1745 17.9883 74.8516C17.6497 75.5286 17.181 76.0755 16.582 76.4922C15.9831 76.8958 15.2148 77.0977 14.2773 77.0977C13.3268 77.0977 12.5521 76.8958 11.9531 76.4922C11.3542 76.0755 10.8854 75.5286 10.5469 74.8516C10.2083 74.1745 9.97396 73.4128 9.84375 72.5664C9.72656 71.7201 9.66797 70.8542 9.66797 69.9688C9.66797 69.0833 9.72656 68.2174 9.84375 67.3711C9.97396 66.5117 10.2083 65.75 10.5469 65.0859C10.8854 64.4219 11.3542 63.888 11.9531 63.4844C12.5521 63.0677 13.3268 62.8594 14.2773 62.8594ZM25.8203 64.0312C25.3255 64.0312 24.9023 64.1289 24.5508 64.3242C24.2122 64.5195 23.9193 64.7865 23.6719 65.125C23.4375 65.4505 23.2487 65.8216 23.1055 66.2383C22.9753 66.6549 22.8711 67.0846 22.793 67.5273C22.7148 67.957 22.6628 68.3867 22.6367 68.8164C22.6237 69.2461 22.6172 69.6302 22.6172 69.9688C22.6172 70.4896 22.6432 71.0885 22.6953 71.7656C22.7604 72.4427 22.8971 73.0872 23.1055 73.6992C23.3268 74.3112 23.6458 74.832 24.0625 75.2617C24.4922 75.6784 25.0781 75.8867 25.8203 75.8867C26.5495 75.8867 27.1289 75.6784 27.5586 75.2617C27.9883 74.832 28.3073 74.3112 28.5156 73.6992C28.737 73.0872 28.8737 72.4427 28.9258 71.7656C28.9909 71.0885 29.0234 70.4896 29.0234 69.9688C29.0234 69.6302 29.0104 69.2461 28.9844 68.8164C28.9714 68.3867 28.9258 67.957 28.8477 67.5273C28.7695 67.0846 28.6589 66.6549 28.5156 66.2383C28.3724 65.8216 28.1836 65.4505 27.9492 65.125C27.7148 64.7865 27.4219 64.5195 27.0703 64.3242C26.7188 64.1289 26.3021 64.0312 25.8203 64.0312ZM25.8203 62.8594C26.7578 62.8594 27.526 63.0677 28.125 63.4844C28.724 63.888 29.1927 64.4219 29.5312 65.0859C29.8698 65.75 30.0977 66.5117 30.2148 67.3711C30.3451 68.2174 30.4102 69.0833 30.4102 69.9688C30.4102 70.8542 30.3451 71.7201 30.2148 72.5664C30.0977 73.4128 29.8698 74.1745 29.5312 74.8516C29.1927 75.5286 28.724 76.0755 28.125 76.4922C27.526 76.8958 26.7578 77.0977 25.8203 77.0977C24.8698 77.0977 24.0951 76.8958 23.4961 76.4922C22.8971 76.0755 22.4284 75.5286 22.0898 74.8516C21.7513 74.1745 21.5169 73.4128 21.3867 72.5664C21.2695 71.7201 21.2109 70.8542 21.2109 69.9688C21.2109 69.0833 21.2695 68.2174 21.3867 67.3711C21.5169 66.5117 21.7513 65.75 22.0898 65.0859C22.4284 64.4219 22.8971 63.888 23.4961 63.4844C24.0951 63.0677 24.8698 62.8594 25.8203 62.8594Z" fill="#666666"/>
    <path d="M14.9102 166.082C15.444 166.082 15.9062 165.984 16.2969 165.789C16.7005 165.594 17.0326 165.333 17.293 165.008C17.5534 164.669 17.7487 164.279 17.8789 163.836C18.0091 163.393 18.0742 162.924 18.0742 162.43C18.0742 161.935 18.0091 161.479 17.8789 161.062C17.7487 160.646 17.5534 160.288 17.293 159.988C17.0456 159.689 16.7266 159.461 16.3359 159.305C15.9583 159.135 15.5091 159.051 14.9883 159.051C14.6497 159.051 14.3242 159.103 14.0117 159.207C13.7122 159.298 13.4388 159.435 13.1914 159.617C12.944 159.799 12.7292 160.027 12.5469 160.301C12.3776 160.561 12.2539 160.854 12.1758 161.18H10.8477L11.1602 153.133H18.7773V154.344H12.4102L12.1758 159.285L12.2148 159.324C12.6055 158.868 13.0547 158.517 13.5625 158.27C14.0703 158.009 14.6367 157.879 15.2617 157.879C15.9128 157.879 16.4987 158.003 17.0195 158.25C17.5404 158.497 17.9831 158.836 18.3477 159.266C18.7122 159.682 18.9922 160.171 19.1875 160.73C19.3828 161.277 19.4805 161.863 19.4805 162.488C19.4805 163.152 19.3763 163.777 19.168 164.363C18.9596 164.936 18.6667 165.444 18.2891 165.887C17.9115 166.316 17.4427 166.655 16.8828 166.902C16.3359 167.15 15.724 167.273 15.0469 167.273C14.2135 167.273 13.4844 167.182 12.8594 167C12.2344 166.831 11.6875 166.655 11.2188 166.473L11.2773 165.164C11.4987 165.281 11.7526 165.398 12.0391 165.516C12.3385 165.62 12.6445 165.717 12.957 165.809C13.2826 165.887 13.6146 165.952 13.9531 166.004C14.2917 166.056 14.6107 166.082 14.9102 166.082ZM26.2383 154.031C25.7435 154.031 25.3203 154.129 24.9688 154.324C24.6302 154.52 24.3372 154.786 24.0898 155.125C23.8555 155.451 23.6667 155.822 23.5234 156.238C23.3932 156.655 23.2891 157.085 23.2109 157.527C23.1328 157.957 23.0807 158.387 23.0547 158.816C23.0417 159.246 23.0352 159.63 23.0352 159.969C23.0352 160.49 23.0612 161.089 23.1133 161.766C23.1784 162.443 23.3151 163.087 23.5234 163.699C23.7448 164.311 24.0638 164.832 24.4805 165.262C24.9102 165.678 25.4961 165.887 26.2383 165.887C26.9674 165.887 27.5469 165.678 27.9766 165.262C28.4062 164.832 28.7253 164.311 28.9336 163.699C29.1549 163.087 29.2917 162.443 29.3438 161.766C29.4089 161.089 29.4414 160.49 29.4414 159.969C29.4414 159.63 29.4284 159.246 29.4023 158.816C29.3893 158.387 29.3438 157.957 29.2656 157.527C29.1875 157.085 29.0768 156.655 28.9336 156.238C28.7904 155.822 28.6016 155.451 28.3672 155.125C28.1328 154.786 27.8398 154.52 27.4883 154.324C27.1367 154.129 26.7201 154.031 26.2383 154.031ZM26.2383 152.859C27.1758 152.859 27.944 153.068 28.543 153.484C29.1419 153.888 29.6107 154.422 29.9492 155.086C30.2878 155.75 30.5156 156.512 30.6328 157.371C30.763 158.217 30.8281 159.083 30.8281 159.969C30.8281 160.854 30.763 161.72 30.6328 162.566C30.5156 163.413 30.2878 164.174 29.9492 164.852C29.6107 165.529 29.1419 166.076 28.543 166.492C27.944 166.896 27.1758 167.098 26.2383 167.098C25.2878 167.098 24.513 166.896 23.9141 166.492C23.3151 166.076 22.8464 165.529 22.5078 164.852C22.1693 164.174 21.9349 163.413 21.8047 162.566C21.6875 161.72 21.6289 160.854 21.6289 159.969C21.6289 159.083 21.6875 158.217 21.8047 157.371C21.9349 156.512 22.1693 155.75 22.5078 155.086C22.8464 154.422 23.3151 153.888 23.9141 153.484C24.513 153.068 25.2878 152.859 26.2383 152.859Z" fill="#666666"/>
    <path d="M84.6191 185.789L87.7832 183.152H88.916V197H87.6465V184.715L85.3809 186.688L84.6191 185.789Z" fill="#666666"/>
    <path d="M155.02 182.859C155.579 182.859 156.107 182.931 156.602 183.074C157.109 183.217 157.552 183.439 157.93 183.738C158.307 184.025 158.607 184.396 158.828 184.852C159.049 185.294 159.16 185.815 159.16 186.414C159.16 186.961 159.036 187.521 158.789 188.094C158.555 188.667 158.236 189.246 157.832 189.832C157.441 190.405 156.992 190.978 156.484 191.551C155.99 192.111 155.482 192.651 154.961 193.172C154.453 193.68 153.952 194.161 153.457 194.617C152.975 195.06 152.559 195.451 152.207 195.789H159.355V197H150.645V195.613C150.944 195.34 151.328 194.988 151.797 194.559C152.266 194.116 152.76 193.628 153.281 193.094C153.815 192.547 154.349 191.974 154.883 191.375C155.417 190.776 155.898 190.184 156.328 189.598C156.758 189.012 157.103 188.452 157.363 187.918C157.637 187.384 157.773 186.909 157.773 186.492C157.773 186.089 157.695 185.737 157.539 185.438C157.396 185.125 157.194 184.865 156.934 184.656C156.686 184.448 156.393 184.292 156.055 184.188C155.716 184.083 155.358 184.031 154.98 184.031C154.408 184.031 153.809 184.155 153.184 184.402C152.559 184.637 151.973 184.91 151.426 185.223L151.191 183.953C151.699 183.706 152.272 183.465 152.91 183.23C153.561 182.983 154.264 182.859 155.02 182.859Z" fill="#666666"/>
    <path d="M222.836 196.082C223.292 196.082 223.721 196.023 224.125 195.906C224.542 195.776 224.9 195.587 225.199 195.34C225.512 195.092 225.753 194.786 225.922 194.422C226.104 194.044 226.195 193.608 226.195 193.113C226.195 192.566 226.072 192.117 225.824 191.766C225.59 191.401 225.277 191.121 224.887 190.926C224.509 190.717 224.079 190.574 223.598 190.496C223.116 190.418 222.634 190.379 222.152 190.379H220.883V189.168H222.152C222.595 189.168 223.044 189.129 223.5 189.051C223.956 188.973 224.366 188.836 224.73 188.641C225.095 188.432 225.395 188.159 225.629 187.82C225.863 187.482 225.98 187.052 225.98 186.531C225.98 186.141 225.896 185.789 225.727 185.477C225.57 185.164 225.355 184.904 225.082 184.695C224.809 184.474 224.49 184.311 224.125 184.207C223.76 184.09 223.376 184.025 222.973 184.012C222.738 183.999 222.465 184.012 222.152 184.051C221.853 184.077 221.547 184.122 221.234 184.188C220.922 184.253 220.609 184.331 220.297 184.422C219.997 184.513 219.724 184.617 219.477 184.734L219.359 183.523C219.867 183.328 220.408 183.172 220.98 183.055C221.566 182.924 222.152 182.859 222.738 182.859C223.324 182.859 223.891 182.931 224.438 183.074C224.997 183.217 225.492 183.439 225.922 183.738C226.365 184.038 226.716 184.428 226.977 184.91C227.237 185.379 227.367 185.952 227.367 186.629C227.367 187.046 227.289 187.43 227.133 187.781C226.99 188.133 226.788 188.439 226.527 188.699C226.28 188.96 225.987 189.181 225.648 189.363C225.31 189.533 224.945 189.656 224.555 189.734V189.773C224.997 189.878 225.401 190.034 225.766 190.242C226.143 190.438 226.469 190.685 226.742 190.984C227.016 191.271 227.224 191.609 227.367 192C227.523 192.391 227.602 192.82 227.602 193.289C227.602 193.94 227.465 194.513 227.191 195.008C226.918 195.503 226.553 195.919 226.098 196.258C225.655 196.596 225.147 196.85 224.574 197.02C224.014 197.189 223.441 197.273 222.855 197.273C222.27 197.273 221.632 197.202 220.941 197.059C220.264 196.915 219.652 196.733 219.105 196.512L219.281 195.242C220.466 195.802 221.651 196.082 222.836 196.082Z" fill="#666666"/>
    <path d="M293.926 197.176V193.777H287.832V192.508L293.516 183.133H295.234V192.684H297.461V193.777H295.234V197.176H293.926ZM293.926 192.684V184.5L289.004 192.684H293.926Z" fill="#666666"/>
    <path d="M94 86L155 84" stroke="#DDDDDD" stroke-width="4" stroke-linecap="round" stroke-dasharray="7 6"/>
    <circle cx="92" cy="86" r="10" fill="#D9D9D9"/>
    <path d="M82.0273 51.5508C82.0273 52.4232 82.3073 53.0807 82.8672 53.5234C83.4401 53.9531 84.1693 54.168 85.0547 54.168C85.9401 54.168 86.6693 53.9531 87.2422 53.5234C87.8151 53.0807 88.1016 52.4232 88.1016 51.5508C88.1016 51.082 88.0104 50.6849 87.8281 50.3594C87.6458 50.0339 87.4115 49.7669 87.125 49.5586C86.8385 49.3372 86.513 49.181 86.1484 49.0898C85.7839 48.9857 85.4193 48.9336 85.0547 48.9336C84.6901 48.9336 84.3255 48.9857 83.9609 49.0898C83.5964 49.181 83.2708 49.3372 82.9844 49.5586C82.6979 49.7669 82.4635 50.0339 82.2812 50.3594C82.112 50.6849 82.0273 51.082 82.0273 51.5508ZM81.6953 58.2695C81.6953 58.7643 81.7865 59.194 81.9688 59.5586C82.1641 59.9102 82.418 60.2031 82.7305 60.4375C83.043 60.6589 83.401 60.8216 83.8047 60.9258C84.2083 61.0299 84.625 61.082 85.0547 61.082C85.4844 61.082 85.901 61.0299 86.3047 60.9258C86.7083 60.8216 87.0664 60.6589 87.3789 60.4375C87.6914 60.2031 87.9388 59.9102 88.1211 59.5586C88.3164 59.194 88.4141 58.7643 88.4141 58.2695C88.4141 57.7878 88.3164 57.3646 88.1211 57C87.9388 56.6354 87.6914 56.3359 87.3789 56.1016C87.0664 55.8542 86.7083 55.6719 86.3047 55.5547C85.901 55.4375 85.4844 55.3789 85.0547 55.3789C84.625 55.3789 84.2083 55.4375 83.8047 55.5547C83.401 55.6719 83.043 55.8542 82.7305 56.1016C82.418 56.3359 82.1641 56.6354 81.9688 57C81.7865 57.3646 81.6953 57.7878 81.6953 58.2695ZM86.7344 54.793C87.6719 55.0404 88.4206 55.4505 88.9805 56.0234C89.5404 56.5964 89.8203 57.3451 89.8203 58.2695C89.8203 58.9727 89.6771 59.5781 89.3906 60.0859C89.1172 60.5938 88.7526 61.0104 88.2969 61.3359C87.8542 61.6484 87.3464 61.8828 86.7734 62.0391C86.2135 62.1953 85.6406 62.2734 85.0547 62.2734C84.4818 62.2734 83.9089 62.1953 83.3359 62.0391C82.776 61.8828 82.2682 61.6484 81.8125 61.3359C81.3698 61.0104 81.0052 60.5938 80.7188 60.0859C80.4453 59.5781 80.3086 58.9727 80.3086 58.2695C80.3086 57.3711 80.5885 56.6289 81.1484 56.043C81.7214 55.457 82.4766 55.0404 83.4141 54.793V54.7539C83.0365 54.6628 82.6784 54.526 82.3398 54.3438C82.0143 54.1484 81.7279 53.9141 81.4805 53.6406C81.2461 53.3672 81.0573 53.0547 80.9141 52.7031C80.7839 52.3516 80.7188 51.9674 80.7188 51.5508C80.7188 50.9128 80.8424 50.3659 81.0898 49.9102C81.3503 49.4414 81.6823 49.0573 82.0859 48.7578C82.5026 48.4453 82.9648 48.2174 83.4727 48.0742C83.9935 47.931 84.5208 47.8594 85.0547 47.8594C85.5885 47.8594 86.1159 47.931 86.6367 48.0742C87.1576 48.2174 87.6198 48.4453 88.0234 48.7578C88.4401 49.0573 88.7721 49.4414 89.0195 49.9102C89.2799 50.3659 89.4102 50.9128 89.4102 51.5508C89.4102 52.4102 89.1562 53.1133 88.6484 53.6602C88.1406 54.207 87.5026 54.5716 86.7344 54.7539V54.793ZM96.6953 47.8594C97.2552 47.8594 97.7826 47.931 98.2773 48.0742C98.7852 48.2174 99.2279 48.4388 99.6055 48.7383C99.9831 49.0247 100.283 49.3958 100.504 49.8516C100.725 50.2943 100.836 50.8151 100.836 51.4141C100.836 51.9609 100.712 52.5208 100.465 53.0938C100.23 53.6667 99.9115 54.2461 99.5078 54.832C99.1172 55.4049 98.668 55.9779 98.1602 56.5508C97.6654 57.1107 97.1576 57.651 96.6367 58.1719C96.1289 58.6797 95.6276 59.1615 95.1328 59.6172C94.651 60.0599 94.2344 60.4505 93.8828 60.7891H101.031V62H92.3203V60.6133C92.6198 60.3398 93.0039 59.9883 93.4727 59.5586C93.9414 59.1159 94.4362 58.6276 94.957 58.0938C95.4909 57.5469 96.0247 56.974 96.5586 56.375C97.0924 55.776 97.5742 55.1836 98.0039 54.5977C98.4336 54.0117 98.7786 53.4518 99.0391 52.918C99.3125 52.3841 99.4492 51.9089 99.4492 51.4922C99.4492 51.0885 99.3711 50.737 99.2148 50.4375C99.0716 50.125 98.8698 49.8646 98.6094 49.6562C98.362 49.4479 98.069 49.2917 97.7305 49.1875C97.3919 49.0833 97.0339 49.0312 96.6562 49.0312C96.0833 49.0312 95.4844 49.1549 94.8594 49.4023C94.2344 49.6367 93.6484 49.9102 93.1016 50.2227L92.8672 48.9531C93.375 48.7057 93.9479 48.4648 94.5859 48.2305C95.237 47.9831 95.9401 47.8594 96.6953 47.8594Z" fill="#666666"/>
    <path d="M151.027 49.5508C151.027 50.4232 151.307 51.0807 151.867 51.5234C152.44 51.9531 153.169 52.168 154.055 52.168C154.94 52.168 155.669 51.9531 156.242 51.5234C156.815 51.0807 157.102 50.4232 157.102 49.5508C157.102 49.082 157.01 48.6849 156.828 48.3594C156.646 48.0339 156.411 47.7669 156.125 47.5586C155.839 47.3372 155.513 47.181 155.148 47.0898C154.784 46.9857 154.419 46.9336 154.055 46.9336C153.69 46.9336 153.326 46.9857 152.961 47.0898C152.596 47.181 152.271 47.3372 151.984 47.5586C151.698 47.7669 151.464 48.0339 151.281 48.3594C151.112 48.6849 151.027 49.082 151.027 49.5508ZM150.695 56.2695C150.695 56.7643 150.786 57.194 150.969 57.5586C151.164 57.9102 151.418 58.2031 151.73 58.4375C152.043 58.6589 152.401 58.8216 152.805 58.9258C153.208 59.0299 153.625 59.082 154.055 59.082C154.484 59.082 154.901 59.0299 155.305 58.9258C155.708 58.8216 156.066 58.6589 156.379 58.4375C156.691 58.2031 156.939 57.9102 157.121 57.5586C157.316 57.194 157.414 56.7643 157.414 56.2695C157.414 55.7878 157.316 55.3646 157.121 55C156.939 54.6354 156.691 54.3359 156.379 54.1016C156.066 53.8542 155.708 53.6719 155.305 53.5547C154.901 53.4375 154.484 53.3789 154.055 53.3789C153.625 53.3789 153.208 53.4375 152.805 53.5547C152.401 53.6719 152.043 53.8542 151.73 54.1016C151.418 54.3359 151.164 54.6354 150.969 55C150.786 55.3646 150.695 55.7878 150.695 56.2695ZM155.734 52.793C156.672 53.0404 157.421 53.4505 157.98 54.0234C158.54 54.5964 158.82 55.3451 158.82 56.2695C158.82 56.9727 158.677 57.5781 158.391 58.0859C158.117 58.5938 157.753 59.0104 157.297 59.3359C156.854 59.6484 156.346 59.8828 155.773 60.0391C155.214 60.1953 154.641 60.2734 154.055 60.2734C153.482 60.2734 152.909 60.1953 152.336 60.0391C151.776 59.8828 151.268 59.6484 150.812 59.3359C150.37 59.0104 150.005 58.5938 149.719 58.0859C149.445 57.5781 149.309 56.9727 149.309 56.2695C149.309 55.3711 149.589 54.6289 150.148 54.043C150.721 53.457 151.477 53.0404 152.414 52.793V52.7539C152.036 52.6628 151.678 52.526 151.34 52.3438C151.014 52.1484 150.728 51.9141 150.48 51.6406C150.246 51.3672 150.057 51.0547 149.914 50.7031C149.784 50.3516 149.719 49.9674 149.719 49.5508C149.719 48.9128 149.842 48.3659 150.09 47.9102C150.35 47.4414 150.682 47.0573 151.086 46.7578C151.503 46.4453 151.965 46.2174 152.473 46.0742C152.993 45.931 153.521 45.8594 154.055 45.8594C154.589 45.8594 155.116 45.931 155.637 46.0742C156.158 46.2174 156.62 46.4453 157.023 46.7578C157.44 47.0573 157.772 47.4414 158.02 47.9102C158.28 48.3659 158.41 48.9128 158.41 49.5508C158.41 50.4102 158.156 51.1133 157.648 51.6602C157.141 52.207 156.503 52.5716 155.734 52.7539V52.793ZM164.855 59.082C165.311 59.082 165.741 59.0234 166.145 58.9062C166.561 58.776 166.919 58.5872 167.219 58.3398C167.531 58.0924 167.772 57.7865 167.941 57.4219C168.124 57.0443 168.215 56.6081 168.215 56.1133C168.215 55.5664 168.091 55.1172 167.844 54.7656C167.609 54.401 167.297 54.1211 166.906 53.9258C166.529 53.7174 166.099 53.5742 165.617 53.4961C165.135 53.418 164.654 53.3789 164.172 53.3789H162.902V52.168H164.172C164.615 52.168 165.064 52.1289 165.52 52.0508C165.975 51.9727 166.385 51.8359 166.75 51.6406C167.115 51.4323 167.414 51.1589 167.648 50.8203C167.883 50.4818 168 50.0521 168 49.5312C168 49.1406 167.915 48.7891 167.746 48.4766C167.59 48.1641 167.375 47.9036 167.102 47.6953C166.828 47.474 166.509 47.3112 166.145 47.207C165.78 47.0898 165.396 47.0247 164.992 47.0117C164.758 46.9987 164.484 47.0117 164.172 47.0508C163.872 47.0768 163.566 47.1224 163.254 47.1875C162.941 47.2526 162.629 47.3307 162.316 47.4219C162.017 47.513 161.743 47.6172 161.496 47.7344L161.379 46.5234C161.887 46.3281 162.427 46.1719 163 46.0547C163.586 45.9245 164.172 45.8594 164.758 45.8594C165.344 45.8594 165.91 45.931 166.457 46.0742C167.017 46.2174 167.512 46.4388 167.941 46.7383C168.384 47.0378 168.736 47.4284 168.996 47.9102C169.257 48.3789 169.387 48.9518 169.387 49.6289C169.387 50.0456 169.309 50.4297 169.152 50.7812C169.009 51.1328 168.807 51.4388 168.547 51.6992C168.299 51.9596 168.007 52.181 167.668 52.3633C167.329 52.5326 166.965 52.6562 166.574 52.7344V52.7734C167.017 52.8776 167.421 53.0339 167.785 53.2422C168.163 53.4375 168.488 53.6849 168.762 53.9844C169.035 54.2708 169.243 54.6094 169.387 55C169.543 55.3906 169.621 55.8203 169.621 56.2891C169.621 56.9401 169.484 57.513 169.211 58.0078C168.938 58.5026 168.573 58.9193 168.117 59.2578C167.674 59.5964 167.167 59.8503 166.594 60.0195C166.034 60.1888 165.461 60.2734 164.875 60.2734C164.289 60.2734 163.651 60.2018 162.961 60.0586C162.284 59.9154 161.672 59.7331 161.125 59.5117L161.301 58.2422C162.486 58.8021 163.671 59.082 164.855 59.082Z" fill="#666666"/>
    <circle cx="158" cy="84" r="10" fill="#E66787"/>
</svg>
