<svg width="330" height="200" viewBox="0 0 330 200" fill="none" xmlns="http://www.w3.org/2000/svg">
    <path d="M158.789 2.46094H152.297C152.344 2.78906 152.445 3.11719 152.602 3.44531C152.836 3.97656 153.227 4.48438 153.773 4.96875C154.336 5.45312 155.07 5.89844 155.977 6.30469C156.898 6.71094 158.039 7.05469 159.398 7.33594L158.297 9.30469C157.469 9.16406 156.711 8.97656 156.023 8.74219C155.352 8.50781 154.758 8.25781 154.242 7.99219C153.727 7.72656 153.281 7.45312 152.906 7.17188C152.547 6.89062 152.258 6.63281 152.039 6.39844C151.648 5.94531 151.398 5.55469 151.289 5.22656H150.938C150.859 5.53906 150.633 5.92187 150.258 6.375C149.977 6.70312 149.617 7.03125 149.18 7.35938C148.758 7.67188 148.273 7.97656 147.727 8.27344C147.18 8.55469 146.586 8.8125 145.945 9.04688C145.305 9.28125 144.633 9.46875 143.93 9.60938L142.711 7.73438C144.133 7.40625 145.305 7.01562 146.227 6.5625C147.164 6.10938 147.906 5.625 148.453 5.10938C149 4.59375 149.383 4.05469 149.602 3.49219C149.727 3.14844 149.82 2.80469 149.883 2.46094H143.414V0.328125H158.789V2.46094ZM152.273 20.0859H149.906V13.7109H141.375V11.5781H160.828V13.7109H152.273V20.0859ZM180.773 8.71875C179.93 8.85938 178.977 8.96094 177.914 9.02344C176.867 9.07031 175.617 9.09375 174.164 9.09375H165.117V3.58594H177.75V2.20312H165.117V0.09375H180.117V5.64844H167.484V6.98438H176.016C176.594 6.98438 177.133 6.97656 177.633 6.96094C178.148 6.92969 178.641 6.89844 179.109 6.86719C179.594 6.82031 180.07 6.75781 180.539 6.67969L180.773 8.71875ZM165.117 20.5781V14.0859H180.234V20.5781H165.117ZM162.703 12.7734V10.6406H182.625V12.7734H162.703ZM177.867 16.2188H167.484V18.4453H177.867V16.2188Z" fill="#333333"/>
    <line x1="52.5" y1="60" x2="52.5" y2="160" stroke="#666666"/>
    <line x1="330" y1="160.5" x2="52" y2="160.5" stroke="#666666"/>
    <path d="M1.36719 64.7891L4.53125 62.1523H5.66406V76H4.39453V63.7148L2.12891 65.6875L1.36719 64.7891ZM14.2773 63.0312C13.7826 63.0312 13.3594 63.1289 13.0078 63.3242C12.6693 63.5195 12.3763 63.7865 12.1289 64.125C11.8945 64.4505 11.7057 64.8216 11.5625 65.2383C11.4323 65.6549 11.3281 66.0846 11.25 66.5273C11.1719 66.957 11.1198 67.3867 11.0938 67.8164C11.0807 68.2461 11.0742 68.6302 11.0742 68.9688C11.0742 69.4896 11.1003 70.0885 11.1523 70.7656C11.2174 71.4427 11.3542 72.0872 11.5625 72.6992C11.7839 73.3112 12.1029 73.832 12.5195 74.2617C12.9492 74.6784 13.5352 74.8867 14.2773 74.8867C15.0065 74.8867 15.5859 74.6784 16.0156 74.2617C16.4453 73.832 16.7643 73.3112 16.9727 72.6992C17.194 72.0872 17.3307 71.4427 17.3828 70.7656C17.4479 70.0885 17.4805 69.4896 17.4805 68.9688C17.4805 68.6302 17.4674 68.2461 17.4414 67.8164C17.4284 67.3867 17.3828 66.957 17.3047 66.5273C17.2266 66.0846 17.1159 65.6549 16.9727 65.2383C16.8294 64.8216 16.6406 64.4505 16.4062 64.125C16.1719 63.7865 15.8789 63.5195 15.5273 63.3242C15.1758 63.1289 14.7591 63.0312 14.2773 63.0312ZM14.2773 61.8594C15.2148 61.8594 15.9831 62.0677 16.582 62.4844C17.181 62.888 17.6497 63.4219 17.9883 64.0859C18.3268 64.75 18.5547 65.5117 18.6719 66.3711C18.8021 67.2174 18.8672 68.0833 18.8672 68.9688C18.8672 69.8542 18.8021 70.7201 18.6719 71.5664C18.5547 72.4128 18.3268 73.1745 17.9883 73.8516C17.6497 74.5286 17.181 75.0755 16.582 75.4922C15.9831 75.8958 15.2148 76.0977 14.2773 76.0977C13.3268 76.0977 12.5521 75.8958 11.9531 75.4922C11.3542 75.0755 10.8854 74.5286 10.5469 73.8516C10.2083 73.1745 9.97396 72.4128 9.84375 71.5664C9.72656 70.7201 9.66797 69.8542 9.66797 68.9688C9.66797 68.0833 9.72656 67.2174 9.84375 66.3711C9.97396 65.5117 10.2083 64.75 10.5469 64.0859C10.8854 63.4219 11.3542 62.888 11.9531 62.4844C12.5521 62.0677 13.3268 61.8594 14.2773 61.8594ZM25.8203 63.0312C25.3255 63.0312 24.9023 63.1289 24.5508 63.3242C24.2122 63.5195 23.9193 63.7865 23.6719 64.125C23.4375 64.4505 23.2487 64.8216 23.1055 65.2383C22.9753 65.6549 22.8711 66.0846 22.793 66.5273C22.7148 66.957 22.6628 67.3867 22.6367 67.8164C22.6237 68.2461 22.6172 68.6302 22.6172 68.9688C22.6172 69.4896 22.6432 70.0885 22.6953 70.7656C22.7604 71.4427 22.8971 72.0872 23.1055 72.6992C23.3268 73.3112 23.6458 73.832 24.0625 74.2617C24.4922 74.6784 25.0781 74.8867 25.8203 74.8867C26.5495 74.8867 27.1289 74.6784 27.5586 74.2617C27.9883 73.832 28.3073 73.3112 28.5156 72.6992C28.737 72.0872 28.8737 71.4427 28.9258 70.7656C28.9909 70.0885 29.0234 69.4896 29.0234 68.9688C29.0234 68.6302 29.0104 68.2461 28.9844 67.8164C28.9714 67.3867 28.9258 66.957 28.8477 66.5273C28.7695 66.0846 28.6589 65.6549 28.5156 65.2383C28.3724 64.8216 28.1836 64.4505 27.9492 64.125C27.7148 63.7865 27.4219 63.5195 27.0703 63.3242C26.7188 63.1289 26.3021 63.0312 25.8203 63.0312ZM25.8203 61.8594C26.7578 61.8594 27.526 62.0677 28.125 62.4844C28.724 62.888 29.1927 63.4219 29.5312 64.0859C29.8698 64.75 30.0977 65.5117 30.2148 66.3711C30.3451 67.2174 30.4102 68.0833 30.4102 68.9688C30.4102 69.8542 30.3451 70.7201 30.2148 71.5664C30.0977 72.4128 29.8698 73.1745 29.5312 73.8516C29.1927 74.5286 28.724 75.0755 28.125 75.4922C27.526 75.8958 26.7578 76.0977 25.8203 76.0977C24.8698 76.0977 24.0951 75.8958 23.4961 75.4922C22.8971 75.0755 22.4284 74.5286 22.0898 73.8516C21.7513 73.1745 21.5169 72.4128 21.3867 71.5664C21.2695 70.7201 21.2109 69.8542 21.2109 68.9688C21.2109 68.0833 21.2695 67.2174 21.3867 66.3711C21.5169 65.5117 21.7513 64.75 22.0898 64.0859C22.4284 63.4219 22.8971 62.888 23.4961 62.4844C24.0951 62.0677 24.8698 61.8594 25.8203 61.8594Z" fill="#666666"/>
    <path d="M14.9102 165.082C15.444 165.082 15.9062 164.984 16.2969 164.789C16.7005 164.594 17.0326 164.333 17.293 164.008C17.5534 163.669 17.7487 163.279 17.8789 162.836C18.0091 162.393 18.0742 161.924 18.0742 161.43C18.0742 160.935 18.0091 160.479 17.8789 160.062C17.7487 159.646 17.5534 159.288 17.293 158.988C17.0456 158.689 16.7266 158.461 16.3359 158.305C15.9583 158.135 15.5091 158.051 14.9883 158.051C14.6497 158.051 14.3242 158.103 14.0117 158.207C13.7122 158.298 13.4388 158.435 13.1914 158.617C12.944 158.799 12.7292 159.027 12.5469 159.301C12.3776 159.561 12.2539 159.854 12.1758 160.18H10.8477L11.1602 152.133H18.7773V153.344H12.4102L12.1758 158.285L12.2148 158.324C12.6055 157.868 13.0547 157.517 13.5625 157.27C14.0703 157.009 14.6367 156.879 15.2617 156.879C15.9128 156.879 16.4987 157.003 17.0195 157.25C17.5404 157.497 17.9831 157.836 18.3477 158.266C18.7122 158.682 18.9922 159.171 19.1875 159.73C19.3828 160.277 19.4805 160.863 19.4805 161.488C19.4805 162.152 19.3763 162.777 19.168 163.363C18.9596 163.936 18.6667 164.444 18.2891 164.887C17.9115 165.316 17.4427 165.655 16.8828 165.902C16.3359 166.15 15.724 166.273 15.0469 166.273C14.2135 166.273 13.4844 166.182 12.8594 166C12.2344 165.831 11.6875 165.655 11.2188 165.473L11.2773 164.164C11.4987 164.281 11.7526 164.398 12.0391 164.516C12.3385 164.62 12.6445 164.717 12.957 164.809C13.2826 164.887 13.6146 164.952 13.9531 165.004C14.2917 165.056 14.6107 165.082 14.9102 165.082ZM26.2383 153.031C25.7435 153.031 25.3203 153.129 24.9688 153.324C24.6302 153.52 24.3372 153.786 24.0898 154.125C23.8555 154.451 23.6667 154.822 23.5234 155.238C23.3932 155.655 23.2891 156.085 23.2109 156.527C23.1328 156.957 23.0807 157.387 23.0547 157.816C23.0417 158.246 23.0352 158.63 23.0352 158.969C23.0352 159.49 23.0612 160.089 23.1133 160.766C23.1784 161.443 23.3151 162.087 23.5234 162.699C23.7448 163.311 24.0638 163.832 24.4805 164.262C24.9102 164.678 25.4961 164.887 26.2383 164.887C26.9674 164.887 27.5469 164.678 27.9766 164.262C28.4062 163.832 28.7253 163.311 28.9336 162.699C29.1549 162.087 29.2917 161.443 29.3438 160.766C29.4089 160.089 29.4414 159.49 29.4414 158.969C29.4414 158.63 29.4284 158.246 29.4023 157.816C29.3893 157.387 29.3438 156.957 29.2656 156.527C29.1875 156.085 29.0768 155.655 28.9336 155.238C28.7904 154.822 28.6016 154.451 28.3672 154.125C28.1328 153.786 27.8398 153.52 27.4883 153.324C27.1367 153.129 26.7201 153.031 26.2383 153.031ZM26.2383 151.859C27.1758 151.859 27.944 152.068 28.543 152.484C29.1419 152.888 29.6107 153.422 29.9492 154.086C30.2878 154.75 30.5156 155.512 30.6328 156.371C30.763 157.217 30.8281 158.083 30.8281 158.969C30.8281 159.854 30.763 160.72 30.6328 161.566C30.5156 162.413 30.2878 163.174 29.9492 163.852C29.6107 164.529 29.1419 165.076 28.543 165.492C27.944 165.896 27.1758 166.098 26.2383 166.098C25.2878 166.098 24.513 165.896 23.9141 165.492C23.3151 165.076 22.8464 164.529 22.5078 163.852C22.1693 163.174 21.9349 162.413 21.8047 161.566C21.6875 160.72 21.6289 159.854 21.6289 158.969C21.6289 158.083 21.6875 157.217 21.8047 156.371C21.9349 155.512 22.1693 154.75 22.5078 154.086C22.8464 153.422 23.3151 152.888 23.9141 152.484C24.513 152.068 25.2878 151.859 26.2383 151.859Z" fill="#666666"/>
    <path d="M84.6191 184.789L87.7832 182.152H88.916V196H87.6465V183.715L85.3809 185.688L84.6191 184.789Z" fill="#666666"/>
    <path d="M155.02 181.859C155.579 181.859 156.107 181.931 156.602 182.074C157.109 182.217 157.552 182.439 157.93 182.738C158.307 183.025 158.607 183.396 158.828 183.852C159.049 184.294 159.16 184.815 159.16 185.414C159.16 185.961 159.036 186.521 158.789 187.094C158.555 187.667 158.236 188.246 157.832 188.832C157.441 189.405 156.992 189.978 156.484 190.551C155.99 191.111 155.482 191.651 154.961 192.172C154.453 192.68 153.952 193.161 153.457 193.617C152.975 194.06 152.559 194.451 152.207 194.789H159.355V196H150.645V194.613C150.944 194.34 151.328 193.988 151.797 193.559C152.266 193.116 152.76 192.628 153.281 192.094C153.815 191.547 154.349 190.974 154.883 190.375C155.417 189.776 155.898 189.184 156.328 188.598C156.758 188.012 157.103 187.452 157.363 186.918C157.637 186.384 157.773 185.909 157.773 185.492C157.773 185.089 157.695 184.737 157.539 184.438C157.396 184.125 157.194 183.865 156.934 183.656C156.686 183.448 156.393 183.292 156.055 183.188C155.716 183.083 155.358 183.031 154.98 183.031C154.408 183.031 153.809 183.155 153.184 183.402C152.559 183.637 151.973 183.91 151.426 184.223L151.191 182.953C151.699 182.706 152.272 182.465 152.91 182.23C153.561 181.983 154.264 181.859 155.02 181.859Z" fill="#666666"/>
    <path d="M222.836 195.082C223.292 195.082 223.721 195.023 224.125 194.906C224.542 194.776 224.9 194.587 225.199 194.34C225.512 194.092 225.753 193.786 225.922 193.422C226.104 193.044 226.195 192.608 226.195 192.113C226.195 191.566 226.072 191.117 225.824 190.766C225.59 190.401 225.277 190.121 224.887 189.926C224.509 189.717 224.079 189.574 223.598 189.496C223.116 189.418 222.634 189.379 222.152 189.379H220.883V188.168H222.152C222.595 188.168 223.044 188.129 223.5 188.051C223.956 187.973 224.366 187.836 224.73 187.641C225.095 187.432 225.395 187.159 225.629 186.82C225.863 186.482 225.98 186.052 225.98 185.531C225.98 185.141 225.896 184.789 225.727 184.477C225.57 184.164 225.355 183.904 225.082 183.695C224.809 183.474 224.49 183.311 224.125 183.207C223.76 183.09 223.376 183.025 222.973 183.012C222.738 182.999 222.465 183.012 222.152 183.051C221.853 183.077 221.547 183.122 221.234 183.188C220.922 183.253 220.609 183.331 220.297 183.422C219.997 183.513 219.724 183.617 219.477 183.734L219.359 182.523C219.867 182.328 220.408 182.172 220.98 182.055C221.566 181.924 222.152 181.859 222.738 181.859C223.324 181.859 223.891 181.931 224.438 182.074C224.997 182.217 225.492 182.439 225.922 182.738C226.365 183.038 226.716 183.428 226.977 183.91C227.237 184.379 227.367 184.952 227.367 185.629C227.367 186.046 227.289 186.43 227.133 186.781C226.99 187.133 226.788 187.439 226.527 187.699C226.28 187.96 225.987 188.181 225.648 188.363C225.31 188.533 224.945 188.656 224.555 188.734V188.773C224.997 188.878 225.401 189.034 225.766 189.242C226.143 189.438 226.469 189.685 226.742 189.984C227.016 190.271 227.224 190.609 227.367 191C227.523 191.391 227.602 191.82 227.602 192.289C227.602 192.94 227.465 193.513 227.191 194.008C226.918 194.503 226.553 194.919 226.098 195.258C225.655 195.596 225.147 195.85 224.574 196.02C224.014 196.189 223.441 196.273 222.855 196.273C222.27 196.273 221.632 196.202 220.941 196.059C220.264 195.915 219.652 195.733 219.105 195.512L219.281 194.242C220.466 194.802 221.651 195.082 222.836 195.082Z" fill="#666666"/>
    <path d="M293.926 196.176V192.777H287.832V191.508L293.516 182.133H295.234V191.684H297.461V192.777H295.234V196.176H293.926ZM293.926 191.684V183.5L289.004 191.684H293.926Z" fill="#666666"/>
    <path d="M94 85L155 83" stroke="#DDDDDD" stroke-width="4" stroke-linecap="round" stroke-dasharray="7 6"/>
    <circle cx="92" cy="85" r="10" fill="#D9D9D9"/>
    <path d="M82.0273 50.5508C82.0273 51.4232 82.3073 52.0807 82.8672 52.5234C83.4401 52.9531 84.1693 53.168 85.0547 53.168C85.9401 53.168 86.6693 52.9531 87.2422 52.5234C87.8151 52.0807 88.1016 51.4232 88.1016 50.5508C88.1016 50.082 88.0104 49.6849 87.8281 49.3594C87.6458 49.0339 87.4115 48.7669 87.125 48.5586C86.8385 48.3372 86.513 48.181 86.1484 48.0898C85.7839 47.9857 85.4193 47.9336 85.0547 47.9336C84.6901 47.9336 84.3255 47.9857 83.9609 48.0898C83.5964 48.181 83.2708 48.3372 82.9844 48.5586C82.6979 48.7669 82.4635 49.0339 82.2812 49.3594C82.112 49.6849 82.0273 50.082 82.0273 50.5508ZM81.6953 57.2695C81.6953 57.7643 81.7865 58.194 81.9688 58.5586C82.1641 58.9102 82.418 59.2031 82.7305 59.4375C83.043 59.6589 83.401 59.8216 83.8047 59.9258C84.2083 60.0299 84.625 60.082 85.0547 60.082C85.4844 60.082 85.901 60.0299 86.3047 59.9258C86.7083 59.8216 87.0664 59.6589 87.3789 59.4375C87.6914 59.2031 87.9388 58.9102 88.1211 58.5586C88.3164 58.194 88.4141 57.7643 88.4141 57.2695C88.4141 56.7878 88.3164 56.3646 88.1211 56C87.9388 55.6354 87.6914 55.3359 87.3789 55.1016C87.0664 54.8542 86.7083 54.6719 86.3047 54.5547C85.901 54.4375 85.4844 54.3789 85.0547 54.3789C84.625 54.3789 84.2083 54.4375 83.8047 54.5547C83.401 54.6719 83.043 54.8542 82.7305 55.1016C82.418 55.3359 82.1641 55.6354 81.9688 56C81.7865 56.3646 81.6953 56.7878 81.6953 57.2695ZM86.7344 53.793C87.6719 54.0404 88.4206 54.4505 88.9805 55.0234C89.5404 55.5964 89.8203 56.3451 89.8203 57.2695C89.8203 57.9727 89.6771 58.5781 89.3906 59.0859C89.1172 59.5938 88.7526 60.0104 88.2969 60.3359C87.8542 60.6484 87.3464 60.8828 86.7734 61.0391C86.2135 61.1953 85.6406 61.2734 85.0547 61.2734C84.4818 61.2734 83.9089 61.1953 83.3359 61.0391C82.776 60.8828 82.2682 60.6484 81.8125 60.3359C81.3698 60.0104 81.0052 59.5938 80.7188 59.0859C80.4453 58.5781 80.3086 57.9727 80.3086 57.2695C80.3086 56.3711 80.5885 55.6289 81.1484 55.043C81.7214 54.457 82.4766 54.0404 83.4141 53.793V53.7539C83.0365 53.6628 82.6784 53.526 82.3398 53.3438C82.0143 53.1484 81.7279 52.9141 81.4805 52.6406C81.2461 52.3672 81.0573 52.0547 80.9141 51.7031C80.7839 51.3516 80.7188 50.9674 80.7188 50.5508C80.7188 49.9128 80.8424 49.3659 81.0898 48.9102C81.3503 48.4414 81.6823 48.0573 82.0859 47.7578C82.5026 47.4453 82.9648 47.2174 83.4727 47.0742C83.9935 46.931 84.5208 46.8594 85.0547 46.8594C85.5885 46.8594 86.1159 46.931 86.6367 47.0742C87.1576 47.2174 87.6198 47.4453 88.0234 47.7578C88.4401 48.0573 88.7721 48.4414 89.0195 48.9102C89.2799 49.3659 89.4102 49.9128 89.4102 50.5508C89.4102 51.4102 89.1562 52.1133 88.6484 52.6602C88.1406 53.207 87.5026 53.5716 86.7344 53.7539V53.793ZM96.6953 46.8594C97.2552 46.8594 97.7826 46.931 98.2773 47.0742C98.7852 47.2174 99.2279 47.4388 99.6055 47.7383C99.9831 48.0247 100.283 48.3958 100.504 48.8516C100.725 49.2943 100.836 49.8151 100.836 50.4141C100.836 50.9609 100.712 51.5208 100.465 52.0938C100.23 52.6667 99.9115 53.2461 99.5078 53.832C99.1172 54.4049 98.668 54.9779 98.1602 55.5508C97.6654 56.1107 97.1576 56.651 96.6367 57.1719C96.1289 57.6797 95.6276 58.1615 95.1328 58.6172C94.651 59.0599 94.2344 59.4505 93.8828 59.7891H101.031V61H92.3203V59.6133C92.6198 59.3398 93.0039 58.9883 93.4727 58.5586C93.9414 58.1159 94.4362 57.6276 94.957 57.0938C95.4909 56.5469 96.0247 55.974 96.5586 55.375C97.0924 54.776 97.5742 54.1836 98.0039 53.5977C98.4336 53.0117 98.7786 52.4518 99.0391 51.918C99.3125 51.3841 99.4492 50.9089 99.4492 50.4922C99.4492 50.0885 99.3711 49.737 99.2148 49.4375C99.0716 49.125 98.8698 48.8646 98.6094 48.6562C98.362 48.4479 98.069 48.2917 97.7305 48.1875C97.3919 48.0833 97.0339 48.0312 96.6562 48.0312C96.0833 48.0312 95.4844 48.1549 94.8594 48.4023C94.2344 48.6367 93.6484 48.9102 93.1016 49.2227L92.8672 47.9531C93.375 47.7057 93.9479 47.4648 94.5859 47.2305C95.237 46.9831 95.9401 46.8594 96.6953 46.8594Z" fill="#666666"/>
    <path d="M151.027 48.5508C151.027 49.4232 151.307 50.0807 151.867 50.5234C152.44 50.9531 153.169 51.168 154.055 51.168C154.94 51.168 155.669 50.9531 156.242 50.5234C156.815 50.0807 157.102 49.4232 157.102 48.5508C157.102 48.082 157.01 47.6849 156.828 47.3594C156.646 47.0339 156.411 46.7669 156.125 46.5586C155.839 46.3372 155.513 46.181 155.148 46.0898C154.784 45.9857 154.419 45.9336 154.055 45.9336C153.69 45.9336 153.326 45.9857 152.961 46.0898C152.596 46.181 152.271 46.3372 151.984 46.5586C151.698 46.7669 151.464 47.0339 151.281 47.3594C151.112 47.6849 151.027 48.082 151.027 48.5508ZM150.695 55.2695C150.695 55.7643 150.786 56.194 150.969 56.5586C151.164 56.9102 151.418 57.2031 151.73 57.4375C152.043 57.6589 152.401 57.8216 152.805 57.9258C153.208 58.0299 153.625 58.082 154.055 58.082C154.484 58.082 154.901 58.0299 155.305 57.9258C155.708 57.8216 156.066 57.6589 156.379 57.4375C156.691 57.2031 156.939 56.9102 157.121 56.5586C157.316 56.194 157.414 55.7643 157.414 55.2695C157.414 54.7878 157.316 54.3646 157.121 54C156.939 53.6354 156.691 53.3359 156.379 53.1016C156.066 52.8542 155.708 52.6719 155.305 52.5547C154.901 52.4375 154.484 52.3789 154.055 52.3789C153.625 52.3789 153.208 52.4375 152.805 52.5547C152.401 52.6719 152.043 52.8542 151.73 53.1016C151.418 53.3359 151.164 53.6354 150.969 54C150.786 54.3646 150.695 54.7878 150.695 55.2695ZM155.734 51.793C156.672 52.0404 157.421 52.4505 157.98 53.0234C158.54 53.5964 158.82 54.3451 158.82 55.2695C158.82 55.9727 158.677 56.5781 158.391 57.0859C158.117 57.5938 157.753 58.0104 157.297 58.3359C156.854 58.6484 156.346 58.8828 155.773 59.0391C155.214 59.1953 154.641 59.2734 154.055 59.2734C153.482 59.2734 152.909 59.1953 152.336 59.0391C151.776 58.8828 151.268 58.6484 150.812 58.3359C150.37 58.0104 150.005 57.5938 149.719 57.0859C149.445 56.5781 149.309 55.9727 149.309 55.2695C149.309 54.3711 149.589 53.6289 150.148 53.043C150.721 52.457 151.477 52.0404 152.414 51.793V51.7539C152.036 51.6628 151.678 51.526 151.34 51.3438C151.014 51.1484 150.728 50.9141 150.48 50.6406C150.246 50.3672 150.057 50.0547 149.914 49.7031C149.784 49.3516 149.719 48.9674 149.719 48.5508C149.719 47.9128 149.842 47.3659 150.09 46.9102C150.35 46.4414 150.682 46.0573 151.086 45.7578C151.503 45.4453 151.965 45.2174 152.473 45.0742C152.993 44.931 153.521 44.8594 154.055 44.8594C154.589 44.8594 155.116 44.931 155.637 45.0742C156.158 45.2174 156.62 45.4453 157.023 45.7578C157.44 46.0573 157.772 46.4414 158.02 46.9102C158.28 47.3659 158.41 47.9128 158.41 48.5508C158.41 49.4102 158.156 50.1133 157.648 50.6602C157.141 51.207 156.503 51.5716 155.734 51.7539V51.793ZM164.855 58.082C165.311 58.082 165.741 58.0234 166.145 57.9062C166.561 57.776 166.919 57.5872 167.219 57.3398C167.531 57.0924 167.772 56.7865 167.941 56.4219C168.124 56.0443 168.215 55.6081 168.215 55.1133C168.215 54.5664 168.091 54.1172 167.844 53.7656C167.609 53.401 167.297 53.1211 166.906 52.9258C166.529 52.7174 166.099 52.5742 165.617 52.4961C165.135 52.418 164.654 52.3789 164.172 52.3789H162.902V51.168H164.172C164.615 51.168 165.064 51.1289 165.52 51.0508C165.975 50.9727 166.385 50.8359 166.75 50.6406C167.115 50.4323 167.414 50.1589 167.648 49.8203C167.883 49.4818 168 49.0521 168 48.5312C168 48.1406 167.915 47.7891 167.746 47.4766C167.59 47.1641 167.375 46.9036 167.102 46.6953C166.828 46.474 166.509 46.3112 166.145 46.207C165.78 46.0898 165.396 46.0247 164.992 46.0117C164.758 45.9987 164.484 46.0117 164.172 46.0508C163.872 46.0768 163.566 46.1224 163.254 46.1875C162.941 46.2526 162.629 46.3307 162.316 46.4219C162.017 46.513 161.743 46.6172 161.496 46.7344L161.379 45.5234C161.887 45.3281 162.427 45.1719 163 45.0547C163.586 44.9245 164.172 44.8594 164.758 44.8594C165.344 44.8594 165.91 44.931 166.457 45.0742C167.017 45.2174 167.512 45.4388 167.941 45.7383C168.384 46.0378 168.736 46.4284 168.996 46.9102C169.257 47.3789 169.387 47.9518 169.387 48.6289C169.387 49.0456 169.309 49.4297 169.152 49.7812C169.009 50.1328 168.807 50.4388 168.547 50.6992C168.299 50.9596 168.007 51.181 167.668 51.3633C167.329 51.5326 166.965 51.6562 166.574 51.7344V51.7734C167.017 51.8776 167.421 52.0339 167.785 52.2422C168.163 52.4375 168.488 52.6849 168.762 52.9844C169.035 53.2708 169.243 53.6094 169.387 54C169.543 54.3906 169.621 54.8203 169.621 55.2891C169.621 55.9401 169.484 56.513 169.211 57.0078C168.938 57.5026 168.573 57.9193 168.117 58.2578C167.674 58.5964 167.167 58.8503 166.594 59.0195C166.034 59.1888 165.461 59.2734 164.875 59.2734C164.289 59.2734 163.651 59.2018 162.961 59.0586C162.284 58.9154 161.672 58.7331 161.125 58.5117L161.301 57.2422C162.486 57.8021 163.671 58.082 164.855 58.082Z" fill="#666666"/>
    <circle cx="158" cy="83" r="10" fill="#E66787"/>
</svg>
