<svg width="824" height="477" viewBox="0 0 824 477" fill="none" xmlns="http://www.w3.org/2000/svg">
    <line x1="58.5" y1="13" x2="58.5" y2="411" stroke="#666666"/>
    <line x1="824" y1="410.5" x2="58" y2="410.5" stroke="#666666"/>
    <path d="M1.74219 5.54688L5.53906 2.38281H6.89844V19H5.375V4.25781L2.65625 6.625L1.74219 5.54688ZM17.2344 3.4375C16.6406 3.4375 16.1328 3.55469 15.7109 3.78906C15.3047 4.02344 14.9531 4.34375 14.6562 4.75C14.375 5.14062 14.1484 5.58594 13.9766 6.08594C13.8203 6.58594 13.6953 7.10156 13.6016 7.63281C13.5078 8.14844 13.4453 8.66406 13.4141 9.17969C13.3984 9.69531 13.3906 10.1562 13.3906 10.5625C13.3906 11.1875 13.4219 11.9062 13.4844 12.7188C13.5625 13.5312 13.7266 14.3047 13.9766 15.0391C14.2422 15.7734 14.625 16.3984 15.125 16.9141C15.6406 17.4141 16.3438 17.6641 17.2344 17.6641C18.1094 17.6641 18.8047 17.4141 19.3203 16.9141C19.8359 16.3984 20.2188 15.7734 20.4688 15.0391C20.7344 14.3047 20.8984 13.5312 20.9609 12.7188C21.0391 11.9062 21.0781 11.1875 21.0781 10.5625C21.0781 10.1562 21.0625 9.69531 21.0312 9.17969C21.0156 8.66406 20.9609 8.14844 20.8672 7.63281C20.7734 7.10156 20.6406 6.58594 20.4688 6.08594C20.2969 5.58594 20.0703 5.14062 19.7891 4.75C19.5078 4.34375 19.1562 4.02344 18.7344 3.78906C18.3125 3.55469 17.8125 3.4375 17.2344 3.4375ZM17.2344 2.03125C18.3594 2.03125 19.2812 2.28125 20 2.78125C20.7188 3.26562 21.2812 3.90625 21.6875 4.70312C22.0938 5.5 22.3672 6.41406 22.5078 7.44531C22.6641 8.46094 22.7422 9.5 22.7422 10.5625C22.7422 11.625 22.6641 12.6641 22.5078 13.6797C22.3672 14.6953 22.0938 15.6094 21.6875 16.4219C21.2812 17.2344 20.7188 17.8906 20 18.3906C19.2812 18.875 18.3594 19.1172 17.2344 19.1172C16.0938 19.1172 15.1641 18.875 14.4453 18.3906C13.7266 17.8906 13.1641 17.2344 12.7578 16.4219C12.3516 15.6094 12.0703 14.6953 11.9141 13.6797C11.7734 12.6641 11.7031 11.625 11.7031 10.5625C11.7031 9.5 11.7734 8.46094 11.9141 7.44531C12.0703 6.41406 12.3516 5.5 12.7578 4.70312C13.1641 3.90625 13.7266 3.26562 14.4453 2.78125C15.1641 2.28125 16.0938 2.03125 17.2344 2.03125ZM31.0859 3.4375C30.4922 3.4375 29.9844 3.55469 29.5625 3.78906C29.1562 4.02344 28.8047 4.34375 28.5078 4.75C28.2266 5.14062 28 5.58594 27.8281 6.08594C27.6719 6.58594 27.5469 7.10156 27.4531 7.63281C27.3594 8.14844 27.2969 8.66406 27.2656 9.17969C27.25 9.69531 27.2422 10.1562 27.2422 10.5625C27.2422 11.1875 27.2734 11.9062 27.3359 12.7188C27.4141 13.5312 27.5781 14.3047 27.8281 15.0391C28.0938 15.7734 28.4766 16.3984 28.9766 16.9141C29.4922 17.4141 30.1953 17.6641 31.0859 17.6641C31.9609 17.6641 32.6562 17.4141 33.1719 16.9141C33.6875 16.3984 34.0703 15.7734 34.3203 15.0391C34.5859 14.3047 34.75 13.5312 34.8125 12.7188C34.8906 11.9062 34.9297 11.1875 34.9297 10.5625C34.9297 10.1562 34.9141 9.69531 34.8828 9.17969C34.8672 8.66406 34.8125 8.14844 34.7188 7.63281C34.625 7.10156 34.4922 6.58594 34.3203 6.08594C34.1484 5.58594 33.9219 5.14062 33.6406 4.75C33.3594 4.34375 33.0078 4.02344 32.5859 3.78906C32.1641 3.55469 31.6641 3.4375 31.0859 3.4375ZM31.0859 2.03125C32.2109 2.03125 33.1328 2.28125 33.8516 2.78125C34.5703 3.26562 35.1328 3.90625 35.5391 4.70312C35.9453 5.5 36.2188 6.41406 36.3594 7.44531C36.5156 8.46094 36.5938 9.5 36.5938 10.5625C36.5938 11.625 36.5156 12.6641 36.3594 13.6797C36.2188 14.6953 35.9453 15.6094 35.5391 16.4219C35.1328 17.2344 34.5703 17.8906 33.8516 18.3906C33.1328 18.875 32.2109 19.1172 31.0859 19.1172C29.9453 19.1172 29.0156 18.875 28.2969 18.3906C27.5781 17.8906 27.0156 17.2344 26.6094 16.4219C26.2031 15.6094 25.9219 14.6953 25.7656 13.6797C25.625 12.6641 25.5547 11.625 25.5547 10.5625C25.5547 9.5 25.625 8.46094 25.7656 7.44531C25.9219 6.41406 26.2031 5.5 26.6094 4.70312C27.0156 3.90625 27.5781 3.26562 28.2969 2.78125C29.0156 2.28125 29.9453 2.03125 31.0859 2.03125Z" fill="#666666"/>
    <path d="M17.4922 416.898C18.1328 416.898 18.6875 416.781 19.1562 416.547C19.6406 416.312 20.0391 416 20.3516 415.609C20.6641 415.203 20.8984 414.734 21.0547 414.203C21.2109 413.672 21.2891 413.109 21.2891 412.516C21.2891 411.922 21.2109 411.375 21.0547 410.875C20.8984 410.375 20.6641 409.945 20.3516 409.586C20.0547 409.227 19.6719 408.953 19.2031 408.766C18.75 408.562 18.2109 408.461 17.5859 408.461C17.1797 408.461 16.7891 408.523 16.4141 408.648C16.0547 408.758 15.7266 408.922 15.4297 409.141C15.1328 409.359 14.875 409.633 14.6562 409.961C14.4531 410.273 14.3047 410.625 14.2109 411.016H12.6172L12.9922 401.359H22.1328V402.812H14.4922L14.2109 408.742L14.2578 408.789C14.7266 408.242 15.2656 407.82 15.875 407.523C16.4844 407.211 17.1641 407.055 17.9141 407.055C18.6953 407.055 19.3984 407.203 20.0234 407.5C20.6484 407.797 21.1797 408.203 21.6172 408.719C22.0547 409.219 22.3906 409.805 22.625 410.477C22.8594 411.133 22.9766 411.836 22.9766 412.586C22.9766 413.383 22.8516 414.133 22.6016 414.836C22.3516 415.523 22 416.133 21.5469 416.664C21.0938 417.18 20.5312 417.586 19.8594 417.883C19.2031 418.18 18.4688 418.328 17.6562 418.328C16.6562 418.328 15.7812 418.219 15.0312 418C14.2812 417.797 13.625 417.586 13.0625 417.367L13.1328 415.797C13.3984 415.938 13.7031 416.078 14.0469 416.219C14.4062 416.344 14.7734 416.461 15.1484 416.57C15.5391 416.664 15.9375 416.742 16.3438 416.805C16.75 416.867 17.1328 416.898 17.4922 416.898ZM31.0859 402.438C30.4922 402.438 29.9844 402.555 29.5625 402.789C29.1562 403.023 28.8047 403.344 28.5078 403.75C28.2266 404.141 28 404.586 27.8281 405.086C27.6719 405.586 27.5469 406.102 27.4531 406.633C27.3594 407.148 27.2969 407.664 27.2656 408.18C27.25 408.695 27.2422 409.156 27.2422 409.562C27.2422 410.188 27.2734 410.906 27.3359 411.719C27.4141 412.531 27.5781 413.305 27.8281 414.039C28.0938 414.773 28.4766 415.398 28.9766 415.914C29.4922 416.414 30.1953 416.664 31.0859 416.664C31.9609 416.664 32.6562 416.414 33.1719 415.914C33.6875 415.398 34.0703 414.773 34.3203 414.039C34.5859 413.305 34.75 412.531 34.8125 411.719C34.8906 410.906 34.9297 410.188 34.9297 409.562C34.9297 409.156 34.9141 408.695 34.8828 408.18C34.8672 407.664 34.8125 407.148 34.7188 406.633C34.625 406.102 34.4922 405.586 34.3203 405.086C34.1484 404.586 33.9219 404.141 33.6406 403.75C33.3594 403.344 33.0078 403.023 32.5859 402.789C32.1641 402.555 31.6641 402.438 31.0859 402.438ZM31.0859 401.031C32.2109 401.031 33.1328 401.281 33.8516 401.781C34.5703 402.266 35.1328 402.906 35.5391 403.703C35.9453 404.5 36.2188 405.414 36.3594 406.445C36.5156 407.461 36.5938 408.5 36.5938 409.562C36.5938 410.625 36.5156 411.664 36.3594 412.68C36.2188 413.695 35.9453 414.609 35.5391 415.422C35.1328 416.234 34.5703 416.891 33.8516 417.391C33.1328 417.875 32.2109 418.117 31.0859 418.117C29.9453 418.117 29.0156 417.875 28.2969 417.391C27.5781 416.891 27.0156 416.234 26.6094 415.422C26.2031 414.609 25.9219 413.695 25.7656 412.68C25.625 411.664 25.5547 410.625 25.5547 409.562C25.5547 408.5 25.625 407.461 25.7656 406.445C25.9219 405.414 26.2031 404.5 26.6094 403.703C27.0156 402.906 27.5781 402.266 28.2969 401.781C29.0156 401.281 29.9453 401.031 31.0859 401.031Z" fill="#666666"/>
    <path d="M744.25 449.211V445.133H736.938V443.609L743.758 432.359H745.82V443.82H748.492V445.133H745.82V449.211H744.25ZM744.25 443.82V434L738.344 443.82H744.25Z" fill="#666666"/>
    <path d="M537.648 447.898C538.195 447.898 538.711 447.828 539.195 447.688C539.695 447.531 540.125 447.305 540.484 447.008C540.859 446.711 541.148 446.344 541.352 445.906C541.57 445.453 541.68 444.93 541.68 444.336C541.68 443.68 541.531 443.141 541.234 442.719C540.953 442.281 540.578 441.945 540.109 441.711C539.656 441.461 539.141 441.289 538.562 441.195C537.984 441.102 537.406 441.055 536.828 441.055H535.305V439.602H536.828C537.359 439.602 537.898 439.555 538.445 439.461C538.992 439.367 539.484 439.203 539.922 438.969C540.359 438.719 540.719 438.391 541 437.984C541.281 437.578 541.422 437.062 541.422 436.438C541.422 435.969 541.32 435.547 541.117 435.172C540.93 434.797 540.672 434.484 540.344 434.234C540.016 433.969 539.633 433.773 539.195 433.648C538.758 433.508 538.297 433.43 537.812 433.414C537.531 433.398 537.203 433.414 536.828 433.461C536.469 433.492 536.102 433.547 535.727 433.625C535.352 433.703 534.977 433.797 534.602 433.906C534.242 434.016 533.914 434.141 533.617 434.281L533.477 432.828C534.086 432.594 534.734 432.406 535.422 432.266C536.125 432.109 536.828 432.031 537.531 432.031C538.234 432.031 538.914 432.117 539.57 432.289C540.242 432.461 540.836 432.727 541.352 433.086C541.883 433.445 542.305 433.914 542.617 434.492C542.93 435.055 543.086 435.742 543.086 436.555C543.086 437.055 542.992 437.516 542.805 437.938C542.633 438.359 542.391 438.727 542.078 439.039C541.781 439.352 541.43 439.617 541.023 439.836C540.617 440.039 540.18 440.188 539.711 440.281V440.328C540.242 440.453 540.727 440.641 541.164 440.891C541.617 441.125 542.008 441.422 542.336 441.781C542.664 442.125 542.914 442.531 543.086 443C543.273 443.469 543.367 443.984 543.367 444.547C543.367 445.328 543.203 446.016 542.875 446.609C542.547 447.203 542.109 447.703 541.562 448.109C541.031 448.516 540.422 448.82 539.734 449.023C539.062 449.227 538.375 449.328 537.672 449.328C536.969 449.328 536.203 449.242 535.375 449.07C534.562 448.898 533.828 448.68 533.172 448.414L533.383 446.891C534.805 447.562 536.227 447.898 537.648 447.898Z" fill="#666666"/>
    <path d="M334.656 432.031C335.328 432.031 335.961 432.117 336.555 432.289C337.164 432.461 337.695 432.727 338.148 433.086C338.602 433.43 338.961 433.875 339.227 434.422C339.492 434.953 339.625 435.578 339.625 436.297C339.625 436.953 339.477 437.625 339.18 438.312C338.898 439 338.516 439.695 338.031 440.398C337.562 441.086 337.023 441.773 336.414 442.461C335.82 443.133 335.211 443.781 334.586 444.406C333.977 445.016 333.375 445.594 332.781 446.141C332.203 446.672 331.703 447.141 331.281 447.547H339.859V449H329.406V447.336C329.766 447.008 330.227 446.586 330.789 446.07C331.352 445.539 331.945 444.953 332.57 444.312C333.211 443.656 333.852 442.969 334.492 442.25C335.133 441.531 335.711 440.82 336.227 440.117C336.742 439.414 337.156 438.742 337.469 438.102C337.797 437.461 337.961 436.891 337.961 436.391C337.961 435.906 337.867 435.484 337.68 435.125C337.508 434.75 337.266 434.438 336.953 434.188C336.656 433.938 336.305 433.75 335.898 433.625C335.492 433.5 335.062 433.438 334.609 433.438C333.922 433.438 333.203 433.586 332.453 433.883C331.703 434.164 331 434.492 330.344 434.867L330.062 433.344C330.672 433.047 331.359 432.758 332.125 432.477C332.906 432.18 333.75 432.031 334.656 432.031Z" fill="#666666"/>
    <path d="M129.641 435.547L133.438 432.383H134.797V449H133.273V434.258L130.555 436.625L129.641 435.547Z" fill="#666666"/>
    <path d="M107.992 461.273C108.496 461.273 108.971 461.338 109.416 461.467C109.873 461.596 110.271 461.795 110.611 462.064C110.951 462.322 111.221 462.656 111.42 463.066C111.619 463.465 111.719 463.934 111.719 464.473C111.719 464.965 111.607 465.469 111.385 465.984C111.174 466.5 110.887 467.021 110.523 467.549C110.172 468.064 109.768 468.58 109.311 469.096C108.865 469.6 108.408 470.086 107.939 470.555C107.482 471.012 107.031 471.445 106.586 471.855C106.152 472.254 105.777 472.605 105.461 472.91H111.895V474H104.055V472.752C104.324 472.506 104.67 472.189 105.092 471.803C105.514 471.404 105.959 470.965 106.428 470.484C106.908 469.992 107.389 469.477 107.869 468.938C108.35 468.398 108.783 467.865 109.17 467.338C109.557 466.811 109.867 466.307 110.102 465.826C110.348 465.346 110.471 464.918 110.471 464.543C110.471 464.18 110.4 463.863 110.26 463.594C110.131 463.312 109.949 463.078 109.715 462.891C109.492 462.703 109.229 462.562 108.924 462.469C108.619 462.375 108.297 462.328 107.957 462.328C107.441 462.328 106.902 462.439 106.34 462.662C105.777 462.873 105.25 463.119 104.758 463.4L104.547 462.258C105.004 462.035 105.52 461.818 106.094 461.607C106.68 461.385 107.312 461.273 107.992 461.273ZM117.186 473.174C117.596 473.174 117.982 473.121 118.346 473.016C118.721 472.898 119.043 472.729 119.312 472.506C119.594 472.283 119.811 472.008 119.963 471.68C120.127 471.34 120.209 470.947 120.209 470.502C120.209 470.01 120.098 469.605 119.875 469.289C119.664 468.961 119.383 468.709 119.031 468.533C118.691 468.346 118.305 468.217 117.871 468.146C117.438 468.076 117.004 468.041 116.57 468.041H115.428V466.951H116.57C116.969 466.951 117.373 466.916 117.783 466.846C118.193 466.775 118.562 466.652 118.891 466.477C119.219 466.289 119.488 466.043 119.699 465.738C119.91 465.434 120.016 465.047 120.016 464.578C120.016 464.227 119.939 463.91 119.787 463.629C119.646 463.348 119.453 463.113 119.207 462.926C118.961 462.727 118.674 462.58 118.346 462.486C118.018 462.381 117.672 462.322 117.309 462.311C117.098 462.299 116.852 462.311 116.57 462.346C116.301 462.369 116.025 462.41 115.744 462.469C115.463 462.527 115.182 462.598 114.9 462.68C114.631 462.762 114.385 462.855 114.162 462.961L114.057 461.871C114.514 461.695 115 461.555 115.516 461.449C116.043 461.332 116.57 461.273 117.098 461.273C117.625 461.273 118.135 461.338 118.627 461.467C119.131 461.596 119.576 461.795 119.963 462.064C120.361 462.334 120.678 462.686 120.912 463.119C121.146 463.541 121.264 464.057 121.264 464.666C121.264 465.041 121.193 465.387 121.053 465.703C120.924 466.02 120.742 466.295 120.508 466.529C120.285 466.764 120.021 466.963 119.717 467.127C119.412 467.279 119.084 467.391 118.732 467.461V467.496C119.131 467.59 119.494 467.73 119.822 467.918C120.162 468.094 120.455 468.316 120.701 468.586C120.947 468.844 121.135 469.148 121.264 469.5C121.404 469.852 121.475 470.238 121.475 470.66C121.475 471.246 121.352 471.762 121.105 472.207C120.859 472.652 120.531 473.027 120.121 473.332C119.723 473.637 119.266 473.865 118.75 474.018C118.246 474.17 117.73 474.246 117.203 474.246C116.676 474.246 116.102 474.182 115.48 474.053C114.871 473.924 114.32 473.76 113.828 473.561L113.986 472.418C115.053 472.922 116.119 473.174 117.186 473.174ZM125.289 474.334H123.496V472.436H125.289V474.334ZM127.398 463.91L130.246 461.537H131.266V474H130.123V462.943L128.084 464.719L127.398 463.91ZM135.045 463.91L137.893 461.537H138.912V474H137.77V462.943L135.73 464.719L135.045 463.91ZM144.133 474.334H142.34V472.436H144.133V474.334ZM150.215 462.328C149.77 462.328 149.389 462.416 149.072 462.592C148.768 462.768 148.504 463.008 148.281 463.312C148.07 463.605 147.9 463.939 147.771 464.314C147.654 464.689 147.561 465.076 147.49 465.475C147.42 465.861 147.373 466.248 147.35 466.635C147.338 467.021 147.332 467.367 147.332 467.672C147.332 468.141 147.355 468.68 147.402 469.289C147.461 469.898 147.584 470.479 147.771 471.029C147.971 471.58 148.258 472.049 148.633 472.436C149.02 472.811 149.547 472.998 150.215 472.998C150.871 472.998 151.393 472.811 151.779 472.436C152.166 472.049 152.453 471.58 152.641 471.029C152.84 470.479 152.963 469.898 153.01 469.289C153.068 468.68 153.098 468.141 153.098 467.672C153.098 467.367 153.086 467.021 153.062 466.635C153.051 466.248 153.01 465.861 152.939 465.475C152.869 465.076 152.77 464.689 152.641 464.314C152.512 463.939 152.342 463.605 152.131 463.312C151.92 463.008 151.656 462.768 151.34 462.592C151.023 462.416 150.648 462.328 150.215 462.328ZM150.215 461.273C151.059 461.273 151.75 461.461 152.289 461.836C152.828 462.199 153.25 462.68 153.555 463.277C153.859 463.875 154.064 464.561 154.17 465.334C154.287 466.096 154.346 466.875 154.346 467.672C154.346 468.469 154.287 469.248 154.17 470.01C154.064 470.771 153.859 471.457 153.555 472.066C153.25 472.676 152.828 473.168 152.289 473.543C151.75 473.906 151.059 474.088 150.215 474.088C149.359 474.088 148.662 473.906 148.123 473.543C147.584 473.168 147.162 472.676 146.857 472.066C146.553 471.457 146.342 470.771 146.225 470.01C146.119 469.248 146.066 468.469 146.066 467.672C146.066 466.875 146.119 466.096 146.225 465.334C146.342 464.561 146.553 463.875 146.857 463.277C147.162 462.68 147.584 462.199 148.123 461.836C148.662 461.461 149.359 461.273 150.215 461.273ZM163.961 461.52V462.574L159.109 474H157.738L162.73 462.609H156.016V461.52H163.961ZM167.512 474.334H165.719V472.436H167.512V474.334Z" fill="#999999"/>
    <path d="M308.992 461.273C309.496 461.273 309.971 461.338 310.416 461.467C310.873 461.596 311.271 461.795 311.611 462.064C311.951 462.322 312.221 462.656 312.42 463.066C312.619 463.465 312.719 463.934 312.719 464.473C312.719 464.965 312.607 465.469 312.385 465.984C312.174 466.5 311.887 467.021 311.523 467.549C311.172 468.064 310.768 468.58 310.311 469.096C309.865 469.6 309.408 470.086 308.939 470.555C308.482 471.012 308.031 471.445 307.586 471.855C307.152 472.254 306.777 472.605 306.461 472.91H312.895V474H305.055V472.752C305.324 472.506 305.67 472.189 306.092 471.803C306.514 471.404 306.959 470.965 307.428 470.484C307.908 469.992 308.389 469.477 308.869 468.938C309.35 468.398 309.783 467.865 310.17 467.338C310.557 466.811 310.867 466.307 311.102 465.826C311.348 465.346 311.471 464.918 311.471 464.543C311.471 464.18 311.4 463.863 311.26 463.594C311.131 463.312 310.949 463.078 310.715 462.891C310.492 462.703 310.229 462.562 309.924 462.469C309.619 462.375 309.297 462.328 308.957 462.328C308.441 462.328 307.902 462.439 307.34 462.662C306.777 462.873 306.25 463.119 305.758 463.4L305.547 462.258C306.004 462.035 306.52 461.818 307.094 461.607C307.68 461.385 308.312 461.273 308.992 461.273ZM320.137 474.158V471.1H314.652V469.957L319.768 461.52H321.314V470.115H323.318V471.1H321.314V474.158H320.137ZM320.137 470.115V462.75L315.707 470.115H320.137ZM326.43 474.334H324.637V472.436H326.43V474.334ZM332.512 462.328C332.066 462.328 331.686 462.416 331.369 462.592C331.064 462.768 330.801 463.008 330.578 463.312C330.367 463.605 330.197 463.939 330.068 464.314C329.951 464.689 329.857 465.076 329.787 465.475C329.717 465.861 329.67 466.248 329.646 466.635C329.635 467.021 329.629 467.367 329.629 467.672C329.629 468.141 329.652 468.68 329.699 469.289C329.758 469.898 329.881 470.479 330.068 471.029C330.268 471.58 330.555 472.049 330.93 472.436C331.316 472.811 331.844 472.998 332.512 472.998C333.168 472.998 333.689 472.811 334.076 472.436C334.463 472.049 334.75 471.58 334.938 471.029C335.137 470.479 335.26 469.898 335.307 469.289C335.365 468.68 335.395 468.141 335.395 467.672C335.395 467.367 335.383 467.021 335.359 466.635C335.348 466.248 335.307 465.861 335.236 465.475C335.166 465.076 335.066 464.689 334.938 464.314C334.809 463.939 334.639 463.605 334.428 463.312C334.217 463.008 333.953 462.768 333.637 462.592C333.32 462.416 332.945 462.328 332.512 462.328ZM332.512 461.273C333.355 461.273 334.047 461.461 334.586 461.836C335.125 462.199 335.547 462.68 335.852 463.277C336.156 463.875 336.361 464.561 336.467 465.334C336.584 466.096 336.643 466.875 336.643 467.672C336.643 468.469 336.584 469.248 336.467 470.01C336.361 470.771 336.156 471.457 335.852 472.066C335.547 472.676 335.125 473.168 334.586 473.543C334.047 473.906 333.355 474.088 332.512 474.088C331.656 474.088 330.959 473.906 330.42 473.543C329.881 473.168 329.459 472.676 329.154 472.066C328.85 471.457 328.639 470.771 328.521 470.01C328.416 469.248 328.363 468.469 328.363 467.672C328.363 466.875 328.416 466.096 328.521 465.334C328.639 464.561 328.85 463.875 329.154 463.277C329.459 462.68 329.881 462.199 330.42 461.836C330.959 461.461 331.656 461.273 332.512 461.273ZM338.928 463.91L341.775 461.537H342.795V474H341.652V462.943L339.613 464.719L338.928 463.91ZM348.016 474.334H346.223V472.436H348.016V474.334ZM353.887 461.273C354.391 461.273 354.865 461.338 355.311 461.467C355.768 461.596 356.166 461.795 356.506 462.064C356.846 462.322 357.115 462.656 357.314 463.066C357.514 463.465 357.613 463.934 357.613 464.473C357.613 464.965 357.502 465.469 357.279 465.984C357.068 466.5 356.781 467.021 356.418 467.549C356.066 468.064 355.662 468.58 355.205 469.096C354.76 469.6 354.303 470.086 353.834 470.555C353.377 471.012 352.926 471.445 352.48 471.855C352.047 472.254 351.672 472.605 351.355 472.91H357.789V474H349.949V472.752C350.219 472.506 350.564 472.189 350.986 471.803C351.408 471.404 351.854 470.965 352.322 470.484C352.803 469.992 353.283 469.477 353.764 468.938C354.244 468.398 354.678 467.865 355.064 467.338C355.451 466.811 355.762 466.307 355.996 465.826C356.242 465.346 356.365 464.918 356.365 464.543C356.365 464.18 356.295 463.863 356.154 463.594C356.025 463.312 355.844 463.078 355.609 462.891C355.387 462.703 355.123 462.562 354.818 462.469C354.514 462.375 354.191 462.328 353.852 462.328C353.336 462.328 352.797 462.439 352.234 462.662C351.672 462.873 351.145 463.119 350.652 463.4L350.441 462.258C350.898 462.035 351.414 461.818 351.988 461.607C352.574 461.385 353.207 461.273 353.887 461.273ZM363.836 461.273C364.34 461.273 364.814 461.338 365.26 461.467C365.717 461.596 366.115 461.795 366.455 462.064C366.795 462.322 367.064 462.656 367.264 463.066C367.463 463.465 367.562 463.934 367.562 464.473C367.562 464.965 367.451 465.469 367.229 465.984C367.018 466.5 366.73 467.021 366.367 467.549C366.016 468.064 365.611 468.58 365.154 469.096C364.709 469.6 364.252 470.086 363.783 470.555C363.326 471.012 362.875 471.445 362.43 471.855C361.996 472.254 361.621 472.605 361.305 472.91H367.738V474H359.898V472.752C360.168 472.506 360.514 472.189 360.936 471.803C361.357 471.404 361.803 470.965 362.271 470.484C362.752 469.992 363.232 469.477 363.713 468.938C364.193 468.398 364.627 467.865 365.014 467.338C365.4 466.811 365.711 466.307 365.945 465.826C366.191 465.346 366.314 464.918 366.314 464.543C366.314 464.18 366.244 463.863 366.104 463.594C365.975 463.312 365.793 463.078 365.559 462.891C365.336 462.703 365.072 462.562 364.768 462.469C364.463 462.375 364.141 462.328 363.801 462.328C363.285 462.328 362.746 462.439 362.184 462.662C361.621 462.873 361.094 463.119 360.602 463.4L360.391 462.258C360.848 462.035 361.363 461.818 361.938 461.607C362.523 461.385 363.156 461.273 363.836 461.273ZM371.465 474.334H369.672V472.436H371.465V474.334Z" fill="#999999"/>
    <path d="M156 123L321 97" stroke="#DDDDDD" stroke-width="4" stroke-linecap="round" stroke-dasharray="7 6"/>
    <circle cx="141" cy="126" r="16" fill="#D9D9D9"/>
    <path d="M138.414 78.3594V79.7656L131.945 95H130.117L136.773 79.8125H127.82V78.3594H138.414ZM143.219 82.4609C143.219 83.5078 143.555 84.2969 144.227 84.8281C144.914 85.3438 145.789 85.6016 146.852 85.6016C147.914 85.6016 148.789 85.3438 149.477 84.8281C150.164 84.2969 150.508 83.5078 150.508 82.4609C150.508 81.8984 150.398 81.4219 150.18 81.0312C149.961 80.6406 149.68 80.3203 149.336 80.0703C148.992 79.8047 148.602 79.6172 148.164 79.5078C147.727 79.3828 147.289 79.3203 146.852 79.3203C146.414 79.3203 145.977 79.3828 145.539 79.5078C145.102 79.6172 144.711 79.8047 144.367 80.0703C144.023 80.3203 143.742 80.6406 143.523 81.0312C143.32 81.4219 143.219 81.8984 143.219 82.4609ZM142.82 90.5234C142.82 91.1172 142.93 91.6328 143.148 92.0703C143.383 92.4922 143.688 92.8438 144.062 93.125C144.438 93.3906 144.867 93.5859 145.352 93.7109C145.836 93.8359 146.336 93.8984 146.852 93.8984C147.367 93.8984 147.867 93.8359 148.352 93.7109C148.836 93.5859 149.266 93.3906 149.641 93.125C150.016 92.8438 150.312 92.4922 150.531 92.0703C150.766 91.6328 150.883 91.1172 150.883 90.5234C150.883 89.9453 150.766 89.4375 150.531 89C150.312 88.5625 150.016 88.2031 149.641 87.9219C149.266 87.625 148.836 87.4062 148.352 87.2656C147.867 87.125 147.367 87.0547 146.852 87.0547C146.336 87.0547 145.836 87.125 145.352 87.2656C144.867 87.4062 144.438 87.625 144.062 87.9219C143.688 88.2031 143.383 88.5625 143.148 89C142.93 89.4375 142.82 89.9453 142.82 90.5234ZM148.867 86.3516C149.992 86.6484 150.891 87.1406 151.562 87.8281C152.234 88.5156 152.57 89.4141 152.57 90.5234C152.57 91.3672 152.398 92.0938 152.055 92.7031C151.727 93.3125 151.289 93.8125 150.742 94.2031C150.211 94.5781 149.602 94.8594 148.914 95.0469C148.242 95.2344 147.555 95.3281 146.852 95.3281C146.164 95.3281 145.477 95.2344 144.789 95.0469C144.117 94.8594 143.508 94.5781 142.961 94.2031C142.43 93.8125 141.992 93.3125 141.648 92.7031C141.32 92.0938 141.156 91.3672 141.156 90.5234C141.156 89.4453 141.492 88.5547 142.164 87.8516C142.852 87.1484 143.758 86.6484 144.883 86.3516V86.3047C144.43 86.1953 144 86.0312 143.594 85.8125C143.203 85.5781 142.859 85.2969 142.562 84.9688C142.281 84.6406 142.055 84.2656 141.883 83.8438C141.727 83.4219 141.648 82.9609 141.648 82.4609C141.648 81.6953 141.797 81.0391 142.094 80.4922C142.406 79.9297 142.805 79.4688 143.289 79.1094C143.789 78.7344 144.344 78.4609 144.953 78.2891C145.578 78.1172 146.211 78.0312 146.852 78.0312C147.492 78.0312 148.125 78.1172 148.75 78.2891C149.375 78.4609 149.93 78.7344 150.414 79.1094C150.914 79.4688 151.312 79.9297 151.609 80.4922C151.922 81.0391 152.078 81.6953 152.078 82.4609C152.078 83.4922 151.773 84.3359 151.164 84.9922C150.555 85.6484 149.789 86.0859 148.867 86.3047V86.3516Z" fill="#666666"/>
    <path d="M326.633 50.4609C326.633 51.5078 326.969 52.2969 327.641 52.8281C328.328 53.3438 329.203 53.6016 330.266 53.6016C331.328 53.6016 332.203 53.3438 332.891 52.8281C333.578 52.2969 333.922 51.5078 333.922 50.4609C333.922 49.8984 333.812 49.4219 333.594 49.0312C333.375 48.6406 333.094 48.3203 332.75 48.0703C332.406 47.8047 332.016 47.6172 331.578 47.5078C331.141 47.3828 330.703 47.3203 330.266 47.3203C329.828 47.3203 329.391 47.3828 328.953 47.5078C328.516 47.6172 328.125 47.8047 327.781 48.0703C327.438 48.3203 327.156 48.6406 326.938 49.0312C326.734 49.4219 326.633 49.8984 326.633 50.4609ZM326.234 58.5234C326.234 59.1172 326.344 59.6328 326.562 60.0703C326.797 60.4922 327.102 60.8438 327.477 61.125C327.852 61.3906 328.281 61.5859 328.766 61.7109C329.25 61.8359 329.75 61.8984 330.266 61.8984C330.781 61.8984 331.281 61.8359 331.766 61.7109C332.25 61.5859 332.68 61.3906 333.055 61.125C333.43 60.8438 333.727 60.4922 333.945 60.0703C334.18 59.6328 334.297 59.1172 334.297 58.5234C334.297 57.9453 334.18 57.4375 333.945 57C333.727 56.5625 333.43 56.2031 333.055 55.9219C332.68 55.625 332.25 55.4062 331.766 55.2656C331.281 55.125 330.781 55.0547 330.266 55.0547C329.75 55.0547 329.25 55.125 328.766 55.2656C328.281 55.4062 327.852 55.625 327.477 55.9219C327.102 56.2031 326.797 56.5625 326.562 57C326.344 57.4375 326.234 57.9453 326.234 58.5234ZM332.281 54.3516C333.406 54.6484 334.305 55.1406 334.977 55.8281C335.648 56.5156 335.984 57.4141 335.984 58.5234C335.984 59.3672 335.812 60.0938 335.469 60.7031C335.141 61.3125 334.703 61.8125 334.156 62.2031C333.625 62.5781 333.016 62.8594 332.328 63.0469C331.656 63.2344 330.969 63.3281 330.266 63.3281C329.578 63.3281 328.891 63.2344 328.203 63.0469C327.531 62.8594 326.922 62.5781 326.375 62.2031C325.844 61.8125 325.406 61.3125 325.062 60.7031C324.734 60.0938 324.57 59.3672 324.57 58.5234C324.57 57.4453 324.906 56.5547 325.578 55.8516C326.266 55.1484 327.172 54.6484 328.297 54.3516V54.3047C327.844 54.1953 327.414 54.0312 327.008 53.8125C326.617 53.5781 326.273 53.2969 325.977 52.9688C325.695 52.6406 325.469 52.2656 325.297 51.8438C325.141 51.4219 325.062 50.9609 325.062 50.4609C325.062 49.6953 325.211 49.0391 325.508 48.4922C325.82 47.9297 326.219 47.4688 326.703 47.1094C327.203 46.7344 327.758 46.4609 328.367 46.2891C328.992 46.1172 329.625 46.0312 330.266 46.0312C330.906 46.0312 331.539 46.1172 332.164 46.2891C332.789 46.4609 333.344 46.7344 333.828 47.1094C334.328 47.4688 334.727 47.9297 335.023 48.4922C335.336 49.0391 335.492 49.6953 335.492 50.4609C335.492 51.4922 335.188 52.3359 334.578 52.9922C333.969 53.6484 333.203 54.0859 332.281 54.3047V54.3516ZM345.828 63.2109V59.1328H338.516V57.6094L345.336 46.3594H347.398V57.8203H350.07V59.1328H347.398V63.2109H345.828ZM345.828 57.8203V48L339.922 57.8203H345.828Z" fill="#666666"/>
    <circle cx="337" cy="94" r="16" fill="#E66787"/>
</svg>
