<svg width="254" height="297" viewBox="0 0 254 297" fill="none" xmlns="http://www.w3.org/2000/svg">
    <path d="M94 138C94 135.239 96.2386 133 99 133H121C123.761 133 126 135.239 126 138V257H94V138Z" fill="#F9D9DF"/>
    <path d="M104.32 102.438C103.32 102.438 102.5 102.672 101.859 103.141C101.234 103.594 100.734 104.188 100.359 104.922C100 105.641 99.75 106.445 99.6094 107.336C99.4844 108.211 99.4219 109.07 99.4219 109.914H99.4688C99.8438 109.008 100.422 108.328 101.203 107.875C101.984 107.422 102.867 107.195 103.852 107.195C104.664 107.195 105.383 107.336 106.008 107.617C106.648 107.883 107.188 108.266 107.625 108.766C108.062 109.25 108.391 109.828 108.609 110.5C108.828 111.172 108.938 111.906 108.938 112.703C108.938 113.5 108.812 114.242 108.562 114.93C108.328 115.602 107.984 116.195 107.531 116.711C107.094 117.211 106.547 117.609 105.891 117.906C105.25 118.188 104.523 118.328 103.711 118.328C102.555 118.328 101.594 118.109 100.828 117.672C100.062 117.234 99.4531 116.656 99 115.938C98.5469 115.203 98.2266 114.367 98.0391 113.43C97.8516 112.492 97.7578 111.523 97.7578 110.523C97.7578 109.461 97.8438 108.367 98.0156 107.242C98.1875 106.117 98.5156 105.094 99 104.172C99.4844 103.25 100.141 102.5 100.969 101.922C101.812 101.328 102.906 101.031 104.25 101.031C105.031 101.031 105.727 101.102 106.336 101.242C106.961 101.383 107.5 101.516 107.953 101.641L107.695 103.117C107.523 103.023 107.305 102.938 107.039 102.859C106.789 102.766 106.508 102.695 106.195 102.648C105.898 102.586 105.586 102.539 105.258 102.508C104.93 102.461 104.617 102.438 104.32 102.438ZM103.781 108.531C103.125 108.531 102.539 108.648 102.023 108.883C101.523 109.102 101.102 109.406 100.758 109.797C100.414 110.188 100.156 110.648 99.9844 111.18C99.8125 111.711 99.7266 112.289 99.7266 112.914C99.7266 113.445 99.8203 113.953 100.008 114.438C100.195 114.906 100.453 115.328 100.781 115.703C101.109 116.062 101.5 116.352 101.953 116.57C102.406 116.789 102.906 116.898 103.453 116.898C104.062 116.898 104.602 116.797 105.07 116.594C105.555 116.391 105.953 116.109 106.266 115.75C106.594 115.375 106.836 114.938 106.992 114.438C107.164 113.938 107.25 113.391 107.25 112.797C107.25 112.25 107.18 111.727 107.039 111.227C106.914 110.711 106.711 110.258 106.43 109.867C106.148 109.461 105.789 109.141 105.352 108.906C104.914 108.656 104.391 108.531 103.781 108.531ZM118.359 118.211V114.133H111.047V112.609L117.867 101.359H119.93V112.82H122.602V114.133H119.93V118.211H118.359ZM118.359 112.82V103L112.453 112.82H118.359Z" fill="#666666"/>
    <path d="M1.23047 4.91016L4.07812 2.53711H5.09766V15H3.95508V3.94336L1.91602 5.71875L1.23047 4.91016ZM12.8496 3.32812C12.4043 3.32812 12.0234 3.41602 11.707 3.5918C11.4023 3.76758 11.1387 4.00781 10.916 4.3125C10.7051 4.60547 10.5352 4.93945 10.4062 5.31445C10.2891 5.68945 10.1953 6.07617 10.125 6.47461C10.0547 6.86133 10.0078 7.24805 9.98438 7.63477C9.97266 8.02148 9.9668 8.36719 9.9668 8.67188C9.9668 9.14062 9.99023 9.67969 10.0371 10.2891C10.0957 10.8984 10.2188 11.4785 10.4062 12.0293C10.6055 12.5801 10.8926 13.0488 11.2676 13.4355C11.6543 13.8105 12.1816 13.998 12.8496 13.998C13.5059 13.998 14.0273 13.8105 14.4141 13.4355C14.8008 13.0488 15.0879 12.5801 15.2754 12.0293C15.4746 11.4785 15.5977 10.8984 15.6445 10.2891C15.7031 9.67969 15.7324 9.14062 15.7324 8.67188C15.7324 8.36719 15.7207 8.02148 15.6973 7.63477C15.6855 7.24805 15.6445 6.86133 15.5742 6.47461C15.5039 6.07617 15.4043 5.68945 15.2754 5.31445C15.1465 4.93945 14.9766 4.60547 14.7656 4.3125C14.5547 4.00781 14.291 3.76758 13.9746 3.5918C13.6582 3.41602 13.2832 3.32812 12.8496 3.32812ZM12.8496 2.27344C13.6934 2.27344 14.3848 2.46094 14.9238 2.83594C15.4629 3.19922 15.8848 3.67969 16.1895 4.27734C16.4941 4.875 16.6992 5.56055 16.8047 6.33398C16.9219 7.0957 16.9805 7.875 16.9805 8.67188C16.9805 9.46875 16.9219 10.248 16.8047 11.0098C16.6992 11.7715 16.4941 12.457 16.1895 13.0664C15.8848 13.6758 15.4629 14.168 14.9238 14.543C14.3848 14.9062 13.6934 15.0879 12.8496 15.0879C11.9941 15.0879 11.2969 14.9062 10.7578 14.543C10.2188 14.168 9.79688 13.6758 9.49219 13.0664C9.1875 12.457 8.97656 11.7715 8.85938 11.0098C8.75391 10.248 8.70117 9.46875 8.70117 8.67188C8.70117 7.875 8.75391 7.0957 8.85938 6.33398C8.97656 5.56055 9.1875 4.875 9.49219 4.27734C9.79688 3.67969 10.2188 3.19922 10.7578 2.83594C11.2969 2.46094 11.9941 2.27344 12.8496 2.27344ZM23.2383 3.32812C22.793 3.32812 22.4121 3.41602 22.0957 3.5918C21.791 3.76758 21.5273 4.00781 21.3047 4.3125C21.0938 4.60547 20.9238 4.93945 20.7949 5.31445C20.6777 5.68945 20.584 6.07617 20.5137 6.47461C20.4434 6.86133 20.3965 7.24805 20.373 7.63477C20.3613 8.02148 20.3555 8.36719 20.3555 8.67188C20.3555 9.14062 20.3789 9.67969 20.4258 10.2891C20.4844 10.8984 20.6074 11.4785 20.7949 12.0293C20.9941 12.5801 21.2812 13.0488 21.6562 13.4355C22.043 13.8105 22.5703 13.998 23.2383 13.998C23.8945 13.998 24.416 13.8105 24.8027 13.4355C25.1895 13.0488 25.4766 12.5801 25.6641 12.0293C25.8633 11.4785 25.9863 10.8984 26.0332 10.2891C26.0918 9.67969 26.1211 9.14062 26.1211 8.67188C26.1211 8.36719 26.1094 8.02148 26.0859 7.63477C26.0742 7.24805 26.0332 6.86133 25.9629 6.47461C25.8926 6.07617 25.793 5.68945 25.6641 5.31445C25.5352 4.93945 25.3652 4.60547 25.1543 4.3125C24.9434 4.00781 24.6797 3.76758 24.3633 3.5918C24.0469 3.41602 23.6719 3.32812 23.2383 3.32812ZM23.2383 2.27344C24.082 2.27344 24.7734 2.46094 25.3125 2.83594C25.8516 3.19922 26.2734 3.67969 26.5781 4.27734C26.8828 4.875 27.0879 5.56055 27.1934 6.33398C27.3105 7.0957 27.3691 7.875 27.3691 8.67188C27.3691 9.46875 27.3105 10.248 27.1934 11.0098C27.0879 11.7715 26.8828 12.457 26.5781 13.0664C26.2734 13.6758 25.8516 14.168 25.3125 14.543C24.7734 14.9062 24.082 15.0879 23.2383 15.0879C22.3828 15.0879 21.6855 14.9062 21.1465 14.543C20.6074 14.168 20.1855 13.6758 19.8809 13.0664C19.5762 12.457 19.3652 11.7715 19.248 11.0098C19.1426 10.248 19.0898 9.46875 19.0898 8.67188C19.0898 7.875 19.1426 7.0957 19.248 6.33398C19.3652 5.56055 19.5762 4.875 19.8809 4.27734C20.1855 3.67969 20.6074 3.19922 21.1465 2.83594C21.6855 2.46094 22.3828 2.27344 23.2383 2.27344ZM31.7285 16.6699V11.4492H42.4863V16.6699H31.7285ZM38.1094 9.76172C37.1484 9.32812 36.4219 8.90625 35.9297 8.49609C35.4375 8.07422 35.0742 7.70508 34.8398 7.38867C34.6406 7.11914 34.5059 6.89062 34.4355 6.70312C34.3652 6.50391 34.3184 6.32227 34.2949 6.1582H33.9961C33.9727 6.32227 33.9258 6.51562 33.8555 6.73828C33.7852 6.96094 33.6797 7.18945 33.5391 7.42383C33.3984 7.66992 33.2285 7.91602 33.0293 8.16211C32.8418 8.4082 32.6074 8.66016 32.3262 8.91797C32.0566 9.16406 31.7285 9.42188 31.3418 9.69141C30.9551 9.96094 30.4922 10.2363 29.9531 10.5176L29.127 9.65625C30.1348 9.15234 30.9316 8.61914 31.5176 8.05664C32.1035 7.48242 32.543 6.9082 32.8359 6.33398C33.1406 5.75977 33.3281 5.20898 33.3984 4.68164C33.4805 4.14258 33.5215 3.65625 33.5215 3.22266V3.13477H29.6719V2.09766H38.4609V3.13477H34.7344V3.22266C34.7344 3.64453 34.7695 4.10156 34.8398 4.59375C34.9219 5.08594 35.1035 5.58398 35.3848 6.08789C35.6777 6.58008 36.0996 7.06641 36.6504 7.54688C37.2129 8.01562 37.9746 8.4375 38.9355 8.8125L38.1094 9.76172ZM41.2734 12.4863H32.9414V15.6328H41.2734V12.4863ZM41.2734 10.3242V6.08789H37.5117V5.08594H41.2734V1.21875H42.4863V10.3242H41.2734Z" fill="#666666"/>
    <line x1="54" y1="257.5" x2="254" y2="257.5" stroke="#666666"/>
    <path d="M94.6875 288.621V285.053H92.6484C92.5898 285.545 92.4551 285.984 92.2441 286.371C92.0449 286.746 91.7871 287.062 91.4707 287.32C91.1543 287.566 90.7852 287.754 90.3633 287.883C89.9531 288.012 89.5137 288.076 89.0449 288.076C88.5293 288.076 88.0488 288 87.6035 287.848C87.1582 287.695 86.7715 287.473 86.4434 287.18C86.127 286.875 85.875 286.5 85.6875 286.055C85.5 285.609 85.4062 285.094 85.4062 284.508C85.4062 283.922 85.5 283.412 85.6875 282.979C85.875 282.533 86.127 282.164 86.4434 281.871C86.7715 281.566 87.1582 281.338 87.6035 281.186C88.0488 281.033 88.5293 280.957 89.0449 280.957C89.5137 280.957 89.9531 281.021 90.3633 281.15C90.7852 281.279 91.1543 281.473 91.4707 281.73C91.7988 281.988 92.0625 282.311 92.2617 282.697C92.4609 283.072 92.5898 283.512 92.6484 284.016H94.6875V280.412H95.8477V288.621H94.6875ZM88.2715 295.846V292.242H97.6758V290.801H88.2715V289.764H98.8887V293.279H89.4844V294.809H99.416V295.846H88.2715ZM86.4961 284.508C86.4961 284.953 86.5664 285.34 86.707 285.668C86.8477 285.984 87.0352 286.248 87.2695 286.459C87.5156 286.67 87.791 286.828 88.0957 286.934C88.4004 287.039 88.7168 287.092 89.0449 287.092C89.373 287.092 89.6895 287.039 89.9941 286.934C90.2988 286.828 90.5684 286.67 90.8027 286.459C91.0371 286.248 91.2246 285.984 91.3652 285.668C91.5059 285.34 91.5762 284.953 91.5762 284.508C91.5762 284.062 91.5059 283.682 91.3652 283.365C91.2246 283.037 91.0371 282.768 90.8027 282.557C90.5684 282.346 90.2988 282.193 89.9941 282.1C89.6895 281.994 89.373 281.941 89.0449 281.941C88.7168 281.941 88.4004 281.994 88.0957 282.1C87.791 282.193 87.5156 282.346 87.2695 282.557C87.0352 282.768 86.8477 283.037 86.707 283.365C86.5664 283.682 86.4961 284.062 86.4961 284.508ZM97.7812 288.621V280.219H98.9414V288.621H97.7812ZM113.725 295.301V291.645C112.635 291.973 111.363 292.201 109.91 292.33C108.469 292.459 106.887 292.523 105.164 292.523H102.809V286.354H108.891V282.311H102.809V281.273H110.104V287.355H104.021V291.486H105.182C105.955 291.486 106.723 291.475 107.484 291.451C108.258 291.428 109.008 291.381 109.734 291.311C110.461 291.24 111.158 291.146 111.826 291.029C112.506 290.9 113.139 290.742 113.725 290.555V280.219H114.938V286.283H117.838V287.32H114.938V295.301H113.725ZM131.215 292.312V288.727C130.898 288.809 130.564 288.885 130.213 288.955C129.697 289.049 129.129 289.125 128.508 289.184C127.887 289.242 127.201 289.283 126.451 289.307C125.713 289.33 124.893 289.342 123.99 289.342H119.859V280.834H121.072V288.305H124.008C125.648 288.305 127.061 288.258 128.244 288.164C129.357 288.07 130.348 287.9 131.215 287.654V280.219H132.428V292.312H131.215ZM122.971 291.17V294.545H132.779V295.582H121.758V291.17H122.971Z" fill="#666666"/>
    <path d="M182 54C182 51.2386 184.239 49 187 49H209C211.761 49 214 51.2386 214 54V257H182V54Z" fill="#E66787"/>
    <path d="M190.07 32.6641C191.023 32.6016 191.797 32.3047 192.391 31.7734C193 31.2266 193.477 30.5703 193.82 29.8047C194.164 29.0391 194.398 28.2344 194.523 27.3906C194.648 26.5312 194.711 25.7578 194.711 25.0703H194.664C194.258 25.8672 193.664 26.4922 192.883 26.9453C192.102 27.3828 191.227 27.6016 190.258 27.6016C189.508 27.6016 188.82 27.4766 188.195 27.2266C187.57 26.9609 187.031 26.6016 186.578 26.1484C186.141 25.6797 185.797 25.1328 185.547 24.5078C185.297 23.8672 185.172 23.1719 185.172 22.4219C185.172 21.625 185.297 20.8984 185.547 20.2422C185.797 19.5859 186.148 19.0234 186.602 18.5547C187.07 18.0703 187.633 17.6953 188.289 17.4297C188.945 17.1641 189.672 17.0312 190.469 17.0312C191.672 17.0312 192.656 17.2656 193.422 17.7344C194.188 18.2031 194.789 18.8203 195.227 19.5859C195.664 20.3516 195.961 21.2266 196.117 22.2109C196.289 23.1797 196.375 24.1797 196.375 25.2109C196.375 26.3359 196.25 27.4297 196 28.4922C195.766 29.5547 195.367 30.5078 194.805 31.3516C194.242 32.1797 193.508 32.8516 192.602 33.3672C191.695 33.8672 190.578 34.1172 189.25 34.1172C188.594 34.1172 187.977 34.0312 187.398 33.8594C186.836 33.6875 186.375 33.5391 186.016 33.4141L186.273 31.9609C186.617 32.1172 187.133 32.2891 187.82 32.4766C188.523 32.6484 189.273 32.7109 190.07 32.6641ZM190.492 18.4375C189.883 18.4375 189.344 18.5469 188.875 18.7656C188.422 18.9688 188.047 19.2578 187.75 19.6328C187.453 20.0078 187.227 20.4453 187.07 20.9453C186.93 21.4453 186.859 21.9844 186.859 22.5625C186.859 23.6562 187.172 24.5469 187.797 25.2344C188.438 25.9219 189.305 26.2656 190.398 26.2656C190.977 26.2656 191.508 26.1719 191.992 25.9844C192.492 25.7812 192.914 25.5078 193.258 25.1641C193.617 24.8203 193.898 24.4062 194.102 23.9219C194.305 23.4375 194.406 22.9062 194.406 22.3281C194.406 21.7656 194.305 21.25 194.102 20.7812C193.914 20.2969 193.648 19.8828 193.305 19.5391C192.961 19.1953 192.547 18.9297 192.062 18.7422C191.594 18.5391 191.07 18.4375 190.492 18.4375ZM204.789 17.0312C205.461 17.0312 206.094 17.1172 206.688 17.2891C207.297 17.4609 207.828 17.7266 208.281 18.0859C208.734 18.4297 209.094 18.875 209.359 19.4219C209.625 19.9531 209.758 20.5781 209.758 21.2969C209.758 21.9531 209.609 22.625 209.312 23.3125C209.031 24 208.648 24.6953 208.164 25.3984C207.695 26.0859 207.156 26.7734 206.547 27.4609C205.953 28.1328 205.344 28.7812 204.719 29.4062C204.109 30.0156 203.508 30.5938 202.914 31.1406C202.336 31.6719 201.836 32.1406 201.414 32.5469H209.992V34H199.539V32.3359C199.898 32.0078 200.359 31.5859 200.922 31.0703C201.484 30.5391 202.078 29.9531 202.703 29.3125C203.344 28.6562 203.984 27.9688 204.625 27.25C205.266 26.5312 205.844 25.8203 206.359 25.1172C206.875 24.4141 207.289 23.7422 207.602 23.1016C207.93 22.4609 208.094 21.8906 208.094 21.3906C208.094 20.9062 208 20.4844 207.812 20.125C207.641 19.75 207.398 19.4375 207.086 19.1875C206.789 18.9375 206.438 18.75 206.031 18.625C205.625 18.5 205.195 18.4375 204.742 18.4375C204.055 18.4375 203.336 18.5859 202.586 18.8828C201.836 19.1641 201.133 19.4922 200.477 19.8672L200.195 18.3438C200.805 18.0469 201.492 17.7578 202.258 17.4766C203.039 17.1797 203.883 17.0312 204.789 17.0312Z" fill="#666666"/>
    <path d="M178.078 289.324V285.404H175.793V289.324H174.633V280.412H175.793V284.367H178.078V280.219H179.238V289.324H178.078ZM169.904 284.684C169.881 284.812 169.852 284.953 169.816 285.105C169.793 285.246 169.746 285.416 169.676 285.615C169.465 286.213 169.084 286.869 168.533 287.584C167.982 288.287 167.273 288.955 166.406 289.588L165.527 288.814C166.359 288.252 167.027 287.654 167.531 287.021C168.047 286.389 168.439 285.756 168.709 285.123C168.99 284.479 169.172 283.857 169.254 283.26C169.348 282.65 169.395 282.094 169.395 281.59V280.922H170.607V281.59C170.607 282 170.631 282.475 170.678 283.014C170.736 283.553 170.883 284.109 171.117 284.684C171.352 285.258 171.703 285.832 172.172 286.406C172.641 286.969 173.297 287.479 174.141 287.936L173.385 288.744C172.553 288.24 171.902 287.736 171.434 287.232C170.977 286.717 170.625 286.178 170.379 285.615C170.309 285.451 170.256 285.287 170.221 285.123C170.186 284.947 170.156 284.801 170.133 284.684H169.904ZM177.973 295.67V291.486H168.305V290.449H179.186V295.67H177.973ZM181.875 293.684V292.629H188.643V289.061H189.873V292.629H196.641V293.684H181.875ZM189.135 284.402C189.088 284.578 189.029 284.76 188.959 284.947C188.9 285.123 188.807 285.299 188.678 285.475C188.467 285.756 188.221 286.043 187.939 286.336C187.67 286.617 187.33 286.898 186.92 287.18C186.51 287.449 186.018 287.719 185.443 287.988C184.881 288.246 184.213 288.504 183.439 288.762L182.807 287.83C184.061 287.455 185.068 287.033 185.83 286.564C186.604 286.084 187.201 285.586 187.623 285.07C188.045 284.555 188.326 284.033 188.467 283.506C188.607 282.967 188.678 282.445 188.678 281.941V281.186H189.838V281.941C189.838 282.445 189.914 282.967 190.066 283.506C190.219 284.033 190.512 284.549 190.945 285.053C191.379 285.545 191.977 286.008 192.738 286.441C193.5 286.875 194.49 287.25 195.709 287.566L195.094 288.516C194.297 288.293 193.611 288.059 193.037 287.812C192.475 287.555 191.988 287.297 191.578 287.039C191.168 286.77 190.828 286.5 190.559 286.23C190.289 285.961 190.061 285.691 189.873 285.422C189.768 285.27 189.68 285.105 189.609 284.93C189.539 284.754 189.475 284.578 189.416 284.402H189.135ZM200.648 295.67V290.801H211.406V295.67H200.648ZM210.193 291.838H201.861V294.633H210.193V291.838ZM207.152 289.254C206.191 288.926 205.453 288.568 204.938 288.182C204.434 287.795 204.088 287.484 203.9 287.25C203.748 287.062 203.619 286.875 203.514 286.688C203.42 286.5 203.35 286.295 203.303 286.072H203.039C202.992 286.295 202.928 286.5 202.846 286.688C202.764 286.863 202.658 287.045 202.529 287.232C202.307 287.561 201.908 287.971 201.334 288.463C200.771 288.943 200.033 289.383 199.119 289.781L198.398 288.867C199.219 288.527 199.898 288.141 200.438 287.707C200.977 287.273 201.404 286.84 201.721 286.406C202.037 285.973 202.254 285.562 202.371 285.176C202.5 284.789 202.564 284.479 202.564 284.244V284.174H198.645V283.172H207.557V284.174H203.777V284.244C203.777 284.479 203.824 284.771 203.918 285.123C204.023 285.475 204.223 285.844 204.516 286.23C204.809 286.605 205.219 286.98 205.746 287.355C206.285 287.719 206.988 288.041 207.855 288.322L207.152 289.254ZM210.193 289.676V280.219H211.406V289.676H210.193ZM200.473 280.113C200.918 280.266 201.375 280.371 201.844 280.43C202.312 280.488 202.775 280.523 203.232 280.535C203.701 280.547 204.164 280.547 204.621 280.535C205.09 280.523 205.547 280.518 205.992 280.518V281.52C205.5 281.531 204.99 281.543 204.463 281.555C203.936 281.555 203.414 281.543 202.898 281.52C202.395 281.496 201.914 281.455 201.457 281.396C201 281.326 200.596 281.227 200.244 281.098L200.473 280.113ZM223.148 289.254C222.188 288.926 221.449 288.568 220.934 288.182C220.43 287.795 220.084 287.484 219.896 287.25C219.744 287.062 219.615 286.875 219.51 286.688C219.416 286.5 219.346 286.295 219.299 286.072H219.035C218.988 286.295 218.924 286.5 218.842 286.688C218.76 286.863 218.654 287.045 218.525 287.232C218.303 287.561 217.904 287.971 217.33 288.463C216.768 288.943 216.029 289.383 215.115 289.781L214.395 288.867C215.215 288.527 215.895 288.141 216.434 287.707C216.973 287.273 217.4 286.84 217.717 286.406C218.033 285.973 218.25 285.562 218.367 285.176C218.496 284.789 218.561 284.479 218.561 284.244V284.174H214.641V283.172H223.553V284.174H219.773V284.244C219.773 284.479 219.82 284.771 219.914 285.123C220.02 285.475 220.219 285.844 220.512 286.23C220.805 286.605 221.215 286.98 221.742 287.355C222.281 287.719 222.984 288.041 223.852 288.322L223.148 289.254ZM225.838 295.67V291.838H216.293V290.801H227.051V295.67H225.838ZM225.838 289.676V280.219H227.051V285.756H229.951V286.793H227.051V289.676H225.838ZM216.469 280.113C216.914 280.266 217.371 280.371 217.84 280.43C218.309 280.488 218.771 280.523 219.229 280.535C219.697 280.547 220.16 280.547 220.617 280.535C221.086 280.523 221.543 280.518 221.988 280.518V281.52C221.496 281.531 220.986 281.543 220.459 281.555C219.932 281.555 219.41 281.543 218.895 281.52C218.391 281.496 217.91 281.455 217.453 281.396C216.996 281.326 216.592 281.227 216.24 281.098L216.469 280.113Z" fill="#666666"/>
    <path d="M38.2031 246.328C37.7578 246.328 37.377 246.416 37.0605 246.592C36.7559 246.768 36.4922 247.008 36.2695 247.312C36.0586 247.605 35.8887 247.939 35.7598 248.314C35.6426 248.689 35.5488 249.076 35.4785 249.475C35.4082 249.861 35.3613 250.248 35.3379 250.635C35.3262 251.021 35.3203 251.367 35.3203 251.672C35.3203 252.141 35.3438 252.68 35.3906 253.289C35.4492 253.898 35.5723 254.479 35.7598 255.029C35.959 255.58 36.2461 256.049 36.6211 256.436C37.0078 256.811 37.5352 256.998 38.2031 256.998C38.8594 256.998 39.3809 256.811 39.7676 256.436C40.1543 256.049 40.4414 255.58 40.6289 255.029C40.8281 254.479 40.9512 253.898 40.998 253.289C41.0566 252.68 41.0859 252.141 41.0859 251.672C41.0859 251.367 41.0742 251.021 41.0508 250.635C41.0391 250.248 40.998 249.861 40.9277 249.475C40.8574 249.076 40.7578 248.689 40.6289 248.314C40.5 247.939 40.3301 247.605 40.1191 247.312C39.9082 247.008 39.6445 246.768 39.3281 246.592C39.0117 246.416 38.6367 246.328 38.2031 246.328ZM38.2031 245.273C39.0469 245.273 39.7383 245.461 40.2773 245.836C40.8164 246.199 41.2383 246.68 41.543 247.277C41.8477 247.875 42.0527 248.561 42.1582 249.334C42.2754 250.096 42.334 250.875 42.334 251.672C42.334 252.469 42.2754 253.248 42.1582 254.01C42.0527 254.771 41.8477 255.457 41.543 256.066C41.2383 256.676 40.8164 257.168 40.2773 257.543C39.7383 257.906 39.0469 258.088 38.2031 258.088C37.3477 258.088 36.6504 257.906 36.1113 257.543C35.5723 257.168 35.1504 256.676 34.8457 256.066C34.541 255.457 34.3301 254.771 34.2129 254.01C34.1074 253.248 34.0547 252.469 34.0547 251.672C34.0547 250.875 34.1074 250.096 34.2129 249.334C34.3301 248.561 34.541 247.875 34.8457 247.277C35.1504 246.68 35.5723 246.199 36.1113 245.836C36.6504 245.461 37.3477 245.273 38.2031 245.273Z" fill="#666666"/>
    <line x1="253" y1="16" x2="55" y2="16" stroke="#DDDDDD" stroke-width="2" stroke-linecap="round" stroke-dasharray="5 8"/>
</svg>
