<svg width="1095" height="473" viewBox="0 0 1095 473" fill="none" xmlns="http://www.w3.org/2000/svg">
    <line x1="73.5" y1="13" x2="73.5" y2="414" stroke="#666666"/>
    <line x1="1095" y1="414.5" x2="73" y2="414.5" stroke="#666666"/>
    <line x1="1095" y1="282.5" x2="74" y2="282.5" stroke="#DDDDDD" stroke-width="3" stroke-dasharray="5 5"/>
    <line x1="1095" y1="149.5" x2="74" y2="149.5" stroke="#DDDDDD" stroke-width="3" stroke-dasharray="5 5"/>
    <line x1="1095" y1="16.5" x2="74" y2="16.5" stroke="#DDDDDD" stroke-width="3" stroke-dasharray="5 5"/>
    <path d="M29.4492 4.54688C28.1992 4.54688 27.1738 4.83984 26.373 5.42578C25.5918 5.99219 24.9668 6.73437 24.498 7.65234C24.0488 8.55078 23.7363 9.55664 23.5605 10.6699C23.4043 11.7637 23.3262 12.8379 23.3262 13.8926H23.3848C23.8535 12.7598 24.5762 11.9102 25.5527 11.3438C26.5293 10.7773 27.6328 10.4941 28.8633 10.4941C29.8789 10.4941 30.7773 10.6699 31.5586 11.0215C32.3594 11.3535 33.0332 11.832 33.5801 12.457C34.127 13.0625 34.5371 13.7852 34.8105 14.625C35.084 15.4648 35.2207 16.3828 35.2207 17.3789C35.2207 18.375 35.0645 19.3027 34.752 20.1621C34.459 21.002 34.0293 21.7441 33.4629 22.3887C32.916 23.0137 32.2324 23.5117 31.4121 23.8828C30.6113 24.2344 29.7031 24.4102 28.6875 24.4102C27.2422 24.4102 26.041 24.1367 25.084 23.5898C24.127 23.043 23.3652 22.3203 22.7988 21.4219C22.2324 20.5039 21.832 19.459 21.5977 18.2871C21.3633 17.1152 21.2461 15.9043 21.2461 14.6543C21.2461 13.3262 21.3535 11.959 21.5684 10.5527C21.7832 9.14648 22.1934 7.86719 22.7988 6.71484C23.4043 5.5625 24.2246 4.625 25.2598 3.90234C26.3145 3.16016 27.6816 2.78906 29.3613 2.78906C30.3379 2.78906 31.207 2.87695 31.9688 3.05273C32.75 3.22852 33.4238 3.39453 33.9902 3.55078L33.668 5.39648C33.4531 5.2793 33.1797 5.17188 32.8477 5.07422C32.5352 4.95703 32.1836 4.86914 31.793 4.81055C31.4219 4.73242 31.0312 4.67383 30.6211 4.63477C30.2109 4.57617 29.8203 4.54688 29.4492 4.54688ZM28.7754 12.1641C27.9551 12.1641 27.2227 12.3105 26.5781 12.6035C25.9531 12.877 25.4258 13.2578 24.9961 13.7461C24.5664 14.2344 24.2441 14.8105 24.0293 15.4746C23.8145 16.1387 23.707 16.8613 23.707 17.6426C23.707 18.3066 23.8242 18.9414 24.0586 19.5469C24.293 20.1328 24.6152 20.6602 25.0254 21.1289C25.4355 21.5781 25.9238 21.9395 26.4902 22.2129C27.0566 22.4863 27.6816 22.623 28.3652 22.623C29.127 22.623 29.8008 22.4961 30.3867 22.2422C30.9922 21.9883 31.4902 21.6367 31.8809 21.1875C32.291 20.7188 32.5938 20.1719 32.7891 19.5469C33.0039 18.9219 33.1113 18.2383 33.1113 17.4961C33.1113 16.8125 33.0234 16.1582 32.8477 15.5332C32.6914 14.8887 32.4375 14.3223 32.0859 13.834C31.7344 13.3262 31.2852 12.9258 30.7383 12.6328C30.1914 12.3203 29.5371 12.1641 28.7754 12.1641ZM45.3574 4.54688C44.6152 4.54688 43.9805 4.69336 43.4531 4.98633C42.9453 5.2793 42.5059 5.67969 42.1348 6.1875C41.7832 6.67578 41.5 7.23242 41.2852 7.85742C41.0898 8.48242 40.9336 9.12695 40.8164 9.79102C40.6992 10.4355 40.6211 11.0801 40.582 11.7246C40.5625 12.3691 40.5527 12.9453 40.5527 13.4531C40.5527 14.2344 40.5918 15.1328 40.6699 16.1484C40.7676 17.1641 40.9727 18.1309 41.2852 19.0488C41.6172 19.9668 42.0957 20.748 42.7207 21.3926C43.3652 22.0176 44.2441 22.3301 45.3574 22.3301C46.4512 22.3301 47.3203 22.0176 47.9648 21.3926C48.6094 20.748 49.0879 19.9668 49.4004 19.0488C49.7324 18.1309 49.9375 17.1641 50.0156 16.1484C50.1133 15.1328 50.1621 14.2344 50.1621 13.4531C50.1621 12.9453 50.1426 12.3691 50.1035 11.7246C50.084 11.0801 50.0156 10.4355 49.8984 9.79102C49.7812 9.12695 49.6152 8.48242 49.4004 7.85742C49.1855 7.23242 48.9023 6.67578 48.5508 6.1875C48.1992 5.67969 47.7598 5.2793 47.2324 4.98633C46.7051 4.69336 46.0801 4.54688 45.3574 4.54688ZM45.3574 2.78906C46.7637 2.78906 47.916 3.10156 48.8145 3.72656C49.7129 4.33203 50.416 5.13281 50.9238 6.12891C51.4316 7.125 51.7734 8.26758 51.9492 9.55664C52.1445 10.8262 52.2422 12.125 52.2422 13.4531C52.2422 14.7812 52.1445 16.0801 51.9492 17.3496C51.7734 18.6191 51.4316 19.7617 50.9238 20.7773C50.416 21.793 49.7129 22.6133 48.8145 23.2383C47.916 23.8438 46.7637 24.1465 45.3574 24.1465C43.9316 24.1465 42.7695 23.8438 41.8711 23.2383C40.9727 22.6133 40.2695 21.793 39.7617 20.7773C39.2539 19.7617 38.9023 18.6191 38.707 17.3496C38.5312 16.0801 38.4434 14.7812 38.4434 13.4531C38.4434 12.125 38.5312 10.8262 38.707 9.55664C38.9023 8.26758 39.2539 7.125 39.7617 6.12891C40.2695 5.13281 40.9727 4.33203 41.8711 3.72656C42.7695 3.10156 43.9316 2.78906 45.3574 2.78906Z" fill="#666666"/>
    <path d="M28.4238 268.789C29.2637 268.789 30.0547 268.896 30.7969 269.111C31.5586 269.326 32.2227 269.658 32.7891 270.107C33.3555 270.537 33.8047 271.094 34.1367 271.777C34.4688 272.441 34.6348 273.223 34.6348 274.121C34.6348 274.941 34.4492 275.781 34.0781 276.641C33.7266 277.5 33.248 278.369 32.6426 279.248C32.0566 280.107 31.3828 280.967 30.6211 281.826C29.8789 282.666 29.1172 283.477 28.3359 284.258C27.5742 285.02 26.8223 285.742 26.0801 286.426C25.3574 287.09 24.7324 287.676 24.2051 288.184H34.9277V290H21.8613V287.92C22.3105 287.51 22.8867 286.982 23.5898 286.338C24.293 285.674 25.0352 284.941 25.8164 284.141C26.6172 283.32 27.418 282.461 28.2188 281.562C29.0195 280.664 29.7422 279.775 30.3867 278.896C31.0312 278.018 31.5488 277.178 31.9395 276.377C32.3496 275.576 32.5547 274.863 32.5547 274.238C32.5547 273.633 32.4375 273.105 32.2031 272.656C31.9883 272.188 31.6855 271.797 31.2949 271.484C30.9238 271.172 30.4844 270.938 29.9766 270.781C29.4688 270.625 28.9316 270.547 28.3652 270.547C27.5059 270.547 26.6074 270.732 25.6699 271.104C24.7324 271.455 23.8535 271.865 23.0332 272.334L22.6816 270.43C23.4434 270.059 24.3027 269.697 25.2598 269.346C26.2363 268.975 27.291 268.789 28.4238 268.789ZM45.3574 270.547C44.6152 270.547 43.9805 270.693 43.4531 270.986C42.9453 271.279 42.5059 271.68 42.1348 272.188C41.7832 272.676 41.5 273.232 41.2852 273.857C41.0898 274.482 40.9336 275.127 40.8164 275.791C40.6992 276.436 40.6211 277.08 40.582 277.725C40.5625 278.369 40.5527 278.945 40.5527 279.453C40.5527 280.234 40.5918 281.133 40.6699 282.148C40.7676 283.164 40.9727 284.131 41.2852 285.049C41.6172 285.967 42.0957 286.748 42.7207 287.393C43.3652 288.018 44.2441 288.33 45.3574 288.33C46.4512 288.33 47.3203 288.018 47.9648 287.393C48.6094 286.748 49.0879 285.967 49.4004 285.049C49.7324 284.131 49.9375 283.164 50.0156 282.148C50.1133 281.133 50.1621 280.234 50.1621 279.453C50.1621 278.945 50.1426 278.369 50.1035 277.725C50.084 277.08 50.0156 276.436 49.8984 275.791C49.7812 275.127 49.6152 274.482 49.4004 273.857C49.1855 273.232 48.9023 272.676 48.5508 272.188C48.1992 271.68 47.7598 271.279 47.2324 270.986C46.7051 270.693 46.0801 270.547 45.3574 270.547ZM45.3574 268.789C46.7637 268.789 47.916 269.102 48.8145 269.727C49.7129 270.332 50.416 271.133 50.9238 272.129C51.4316 273.125 51.7734 274.268 51.9492 275.557C52.1445 276.826 52.2422 278.125 52.2422 279.453C52.2422 280.781 52.1445 282.08 51.9492 283.35C51.7734 284.619 51.4316 285.762 50.9238 286.777C50.416 287.793 49.7129 288.613 48.8145 289.238C47.916 289.844 46.7637 290.146 45.3574 290.146C43.9316 290.146 42.7695 289.844 41.8711 289.238C40.9727 288.613 40.2695 287.793 39.7617 286.777C39.2539 285.762 38.9023 284.619 38.707 283.35C38.5312 282.08 38.4434 280.781 38.4434 279.453C38.4434 278.125 38.5312 276.826 38.707 275.557C38.9023 274.268 39.2539 273.125 39.7617 272.129C40.2695 271.133 40.9727 270.332 41.8711 269.727C42.7695 269.102 43.9316 268.789 45.3574 268.789Z" fill="#666666"/>
    <path d="M30.6504 157.264V152.166H21.5098V150.262L30.0352 136.199H32.6133V150.525H35.9531V152.166H32.6133V157.264H30.6504ZM30.6504 150.525V138.25L23.2676 150.525H30.6504ZM45.3574 137.547C44.6152 137.547 43.9805 137.693 43.4531 137.986C42.9453 138.279 42.5059 138.68 42.1348 139.188C41.7832 139.676 41.5 140.232 41.2852 140.857C41.0898 141.482 40.9336 142.127 40.8164 142.791C40.6992 143.436 40.6211 144.08 40.582 144.725C40.5625 145.369 40.5527 145.945 40.5527 146.453C40.5527 147.234 40.5918 148.133 40.6699 149.148C40.7676 150.164 40.9727 151.131 41.2852 152.049C41.6172 152.967 42.0957 153.748 42.7207 154.393C43.3652 155.018 44.2441 155.33 45.3574 155.33C46.4512 155.33 47.3203 155.018 47.9648 154.393C48.6094 153.748 49.0879 152.967 49.4004 152.049C49.7324 151.131 49.9375 150.164 50.0156 149.148C50.1133 148.133 50.1621 147.234 50.1621 146.453C50.1621 145.945 50.1426 145.369 50.1035 144.725C50.084 144.08 50.0156 143.436 49.8984 142.791C49.7812 142.127 49.6152 141.482 49.4004 140.857C49.1855 140.232 48.9023 139.676 48.5508 139.188C48.1992 138.68 47.7598 138.279 47.2324 137.986C46.7051 137.693 46.0801 137.547 45.3574 137.547ZM45.3574 135.789C46.7637 135.789 47.916 136.102 48.8145 136.727C49.7129 137.332 50.416 138.133 50.9238 139.129C51.4316 140.125 51.7734 141.268 51.9492 142.557C52.1445 143.826 52.2422 145.125 52.2422 146.453C52.2422 147.781 52.1445 149.08 51.9492 150.35C51.7734 151.619 51.4316 152.762 50.9238 153.777C50.416 154.793 49.7129 155.613 48.8145 156.238C47.916 156.844 46.7637 157.146 45.3574 157.146C43.9316 157.146 42.7695 156.844 41.8711 156.238C40.9727 155.613 40.2695 154.793 39.7617 153.777C39.2539 152.762 38.9023 151.619 38.707 150.35C38.5312 149.08 38.4434 147.781 38.4434 146.453C38.4434 145.125 38.5312 143.826 38.707 142.557C38.9023 141.268 39.2539 140.125 39.7617 139.129C40.2695 138.133 40.9727 137.332 41.8711 136.727C42.7695 136.102 43.9316 135.789 45.3574 135.789Z" fill="#666666"/>
    <path d="M3.75586 205.271C3.75586 204.451 3.95117 203.699 4.3418 203.016C4.75195 202.312 5.35742 201.717 6.1582 201.229C6.95898 200.721 7.96484 200.33 9.17578 200.057C10.3867 199.783 11.8027 199.646 13.4238 199.646C15.0254 199.646 16.4316 199.783 17.6426 200.057C18.8535 200.33 19.8594 200.721 20.6602 201.229C21.4805 201.717 22.0859 202.312 22.4766 203.016C22.8867 203.699 23.0918 204.451 23.0918 205.271C23.0918 206.092 22.8867 206.854 22.4766 207.557C22.0859 208.24 21.4805 208.836 20.6602 209.344C19.8594 209.832 18.8535 210.213 17.6426 210.486C16.4316 210.76 15.0254 210.896 13.4238 210.896C11.8027 210.896 10.3867 210.76 9.17578 210.486C7.96484 210.213 6.95898 209.832 6.1582 209.344C5.35742 208.836 4.75195 208.24 4.3418 207.557C3.95117 206.854 3.75586 206.092 3.75586 205.271ZM5.66016 205.271C5.66016 206.463 6.31445 207.43 7.62305 208.172C8.93164 208.895 10.8652 209.256 13.4238 209.256C15.9824 209.256 17.916 208.895 19.2246 208.172C20.5332 207.43 21.1875 206.463 21.1875 205.271C21.1875 204.08 20.5332 203.113 19.2246 202.371C17.916 201.629 15.9824 201.258 13.4238 201.258C10.8652 201.258 8.93164 201.629 7.62305 202.371C6.31445 203.113 5.66016 204.08 5.66016 205.271ZM1.26562 216.229V214.471H25.582V216.229H19.5176L19.7227 224.607H17.7305L17.5547 216.229H9.9082C9.86914 217.752 9.71289 219.207 9.43945 220.594C9.18555 221.961 8.81445 223.25 8.32617 224.461L6.27539 223.904C6.82227 222.693 7.21289 221.434 7.44727 220.125C7.70117 218.816 7.83789 217.518 7.85742 216.229H1.26562ZM31.0898 211.424V200.057H33.1113V204.598H47.6719V200.057H49.6934V211.424H31.0898ZM39.498 220.359V216.199H27.9258V214.471H52.8281V216.199H41.5195V220.359H39.498ZM47.6719 206.268H33.1113V209.695H47.6719V206.268ZM33.1113 218.016V223.055H50.5723V224.783H31.0898V218.016H33.1113Z" fill="#333333"/>
    <path d="M45.3574 403.547C44.6152 403.547 43.9805 403.693 43.4531 403.986C42.9453 404.279 42.5059 404.68 42.1348 405.188C41.7832 405.676 41.5 406.232 41.2852 406.857C41.0898 407.482 40.9336 408.127 40.8164 408.791C40.6992 409.436 40.6211 410.08 40.582 410.725C40.5625 411.369 40.5527 411.945 40.5527 412.453C40.5527 413.234 40.5918 414.133 40.6699 415.148C40.7676 416.164 40.9727 417.131 41.2852 418.049C41.6172 418.967 42.0957 419.748 42.7207 420.393C43.3652 421.018 44.2441 421.33 45.3574 421.33C46.4512 421.33 47.3203 421.018 47.9648 420.393C48.6094 419.748 49.0879 418.967 49.4004 418.049C49.7324 417.131 49.9375 416.164 50.0156 415.148C50.1133 414.133 50.1621 413.234 50.1621 412.453C50.1621 411.945 50.1426 411.369 50.1035 410.725C50.084 410.08 50.0156 409.436 49.8984 408.791C49.7812 408.127 49.6152 407.482 49.4004 406.857C49.1855 406.232 48.9023 405.676 48.5508 405.188C48.1992 404.68 47.7598 404.279 47.2324 403.986C46.7051 403.693 46.0801 403.547 45.3574 403.547ZM45.3574 401.789C46.7637 401.789 47.916 402.102 48.8145 402.727C49.7129 403.332 50.416 404.133 50.9238 405.129C51.4316 406.125 51.7734 407.268 51.9492 408.557C52.1445 409.826 52.2422 411.125 52.2422 412.453C52.2422 413.781 52.1445 415.08 51.9492 416.35C51.7734 417.619 51.4316 418.762 50.9238 419.777C50.416 420.793 49.7129 421.613 48.8145 422.238C47.916 422.844 46.7637 423.146 45.3574 423.146C43.9316 423.146 42.7695 422.844 41.8711 422.238C40.9727 421.613 40.2695 420.793 39.7617 419.777C39.2539 418.762 38.9023 417.619 38.707 416.35C38.5312 415.08 38.4434 413.781 38.4434 412.453C38.4434 411.125 38.5312 409.826 38.707 408.557C38.9023 407.268 39.2539 406.125 39.7617 405.129C40.2695 404.133 40.9727 403.332 41.8711 402.727C42.7695 402.102 43.9316 401.789 45.3574 401.789Z" fill="#666666"/>
    <path d="M1070.4 447.547C1069.15 447.547 1068.12 447.84 1067.32 448.426C1066.54 448.992 1065.92 449.734 1065.45 450.652C1065 451.551 1064.69 452.557 1064.51 453.67C1064.36 454.764 1064.28 455.838 1064.28 456.893H1064.34C1064.8 455.76 1065.53 454.91 1066.5 454.344C1067.48 453.777 1068.58 453.494 1069.81 453.494C1070.83 453.494 1071.73 453.67 1072.51 454.021C1073.31 454.354 1073.98 454.832 1074.53 455.457C1075.08 456.062 1075.49 456.785 1075.76 457.625C1076.04 458.465 1076.17 459.383 1076.17 460.379C1076.17 461.375 1076.02 462.303 1075.7 463.162C1075.41 464.002 1074.98 464.744 1074.41 465.389C1073.87 466.014 1073.18 466.512 1072.36 466.883C1071.56 467.234 1070.65 467.41 1069.64 467.41C1068.19 467.41 1066.99 467.137 1066.04 466.59C1065.08 466.043 1064.32 465.32 1063.75 464.422C1063.18 463.504 1062.78 462.459 1062.55 461.287C1062.31 460.115 1062.2 458.904 1062.2 457.654C1062.2 456.326 1062.3 454.959 1062.52 453.553C1062.73 452.146 1063.14 450.867 1063.75 449.715C1064.36 448.562 1065.18 447.625 1066.21 446.902C1067.27 446.16 1068.63 445.789 1070.31 445.789C1071.29 445.789 1072.16 445.877 1072.92 446.053C1073.7 446.229 1074.38 446.395 1074.94 446.551L1074.62 448.396C1074.4 448.279 1074.13 448.172 1073.8 448.074C1073.49 447.957 1073.13 447.869 1072.74 447.811C1072.37 447.732 1071.98 447.674 1071.57 447.635C1071.16 447.576 1070.77 447.547 1070.4 447.547ZM1069.73 455.164C1068.91 455.164 1068.17 455.311 1067.53 455.604C1066.9 455.877 1066.38 456.258 1065.95 456.746C1065.52 457.234 1065.2 457.811 1064.98 458.475C1064.77 459.139 1064.66 459.861 1064.66 460.643C1064.66 461.307 1064.78 461.941 1065.01 462.547C1065.24 463.133 1065.57 463.66 1065.98 464.129C1066.39 464.578 1066.88 464.939 1067.44 465.213C1068.01 465.486 1068.63 465.623 1069.32 465.623C1070.08 465.623 1070.75 465.496 1071.34 465.242C1071.94 464.988 1072.44 464.637 1072.83 464.188C1073.24 463.719 1073.54 463.172 1073.74 462.547C1073.96 461.922 1074.06 461.238 1074.06 460.496C1074.06 459.812 1073.97 459.158 1073.8 458.533C1073.64 457.889 1073.39 457.322 1073.04 456.834C1072.69 456.326 1072.24 455.926 1071.69 455.633C1071.14 455.32 1070.49 455.164 1069.73 455.164ZM1086.31 447.547C1085.57 447.547 1084.93 447.693 1084.4 447.986C1083.9 448.279 1083.46 448.68 1083.09 449.188C1082.73 449.676 1082.45 450.232 1082.24 450.857C1082.04 451.482 1081.88 452.127 1081.77 452.791C1081.65 453.436 1081.57 454.08 1081.53 454.725C1081.51 455.369 1081.5 455.945 1081.5 456.453C1081.5 457.234 1081.54 458.133 1081.62 459.148C1081.72 460.164 1081.92 461.131 1082.24 462.049C1082.57 462.967 1083.05 463.748 1083.67 464.393C1084.32 465.018 1085.2 465.33 1086.31 465.33C1087.4 465.33 1088.27 465.018 1088.92 464.393C1089.56 463.748 1090.04 462.967 1090.35 462.049C1090.68 461.131 1090.89 460.164 1090.97 459.148C1091.06 458.133 1091.11 457.234 1091.11 456.453C1091.11 455.945 1091.09 455.369 1091.05 454.725C1091.04 454.08 1090.97 453.436 1090.85 452.791C1090.73 452.127 1090.57 451.482 1090.35 450.857C1090.14 450.232 1089.85 449.676 1089.5 449.188C1089.15 448.68 1088.71 448.279 1088.18 447.986C1087.66 447.693 1087.03 447.547 1086.31 447.547ZM1086.31 445.789C1087.71 445.789 1088.87 446.102 1089.77 446.727C1090.66 447.332 1091.37 448.133 1091.88 449.129C1092.38 450.125 1092.72 451.268 1092.9 452.557C1093.1 453.826 1093.19 455.125 1093.19 456.453C1093.19 457.781 1093.1 459.08 1092.9 460.35C1092.72 461.619 1092.38 462.762 1091.88 463.777C1091.37 464.793 1090.66 465.613 1089.77 466.238C1088.87 466.844 1087.71 467.146 1086.31 467.146C1084.88 467.146 1083.72 466.844 1082.82 466.238C1081.92 465.613 1081.22 464.793 1080.71 463.777C1080.21 462.762 1079.85 461.619 1079.66 460.35C1079.48 459.08 1079.39 457.781 1079.39 456.453C1079.39 455.125 1079.48 453.826 1079.66 452.557C1079.85 451.268 1080.21 450.125 1080.71 449.129C1081.22 448.133 1081.92 447.332 1082.82 446.727C1083.72 446.102 1084.88 445.789 1086.31 445.789Z" fill="#666666"/>
    <path d="M739.312 467.264V462.166H730.172V460.262L738.697 446.199H741.275V460.525H744.615V462.166H741.275V467.264H739.312ZM739.312 460.525V448.25L731.93 460.525H739.312ZM754.02 447.547C753.277 447.547 752.643 447.693 752.115 447.986C751.607 448.279 751.168 448.68 750.797 449.188C750.445 449.676 750.162 450.232 749.947 450.857C749.752 451.482 749.596 452.127 749.479 452.791C749.361 453.436 749.283 454.08 749.244 454.725C749.225 455.369 749.215 455.945 749.215 456.453C749.215 457.234 749.254 458.133 749.332 459.148C749.43 460.164 749.635 461.131 749.947 462.049C750.279 462.967 750.758 463.748 751.383 464.393C752.027 465.018 752.906 465.33 754.02 465.33C755.113 465.33 755.982 465.018 756.627 464.393C757.271 463.748 757.75 462.967 758.062 462.049C758.395 461.131 758.6 460.164 758.678 459.148C758.775 458.133 758.824 457.234 758.824 456.453C758.824 455.945 758.805 455.369 758.766 454.725C758.746 454.08 758.678 453.436 758.561 452.791C758.443 452.127 758.277 451.482 758.062 450.857C757.848 450.232 757.564 449.676 757.213 449.188C756.861 448.68 756.422 448.279 755.895 447.986C755.367 447.693 754.742 447.547 754.02 447.547ZM754.02 445.789C755.426 445.789 756.578 446.102 757.477 446.727C758.375 447.332 759.078 448.133 759.586 449.129C760.094 450.125 760.436 451.268 760.611 452.557C760.807 453.826 760.904 455.125 760.904 456.453C760.904 457.781 760.807 459.08 760.611 460.35C760.436 461.619 760.094 462.762 759.586 463.777C759.078 464.793 758.375 465.613 757.477 466.238C756.578 466.844 755.426 467.146 754.02 467.146C752.594 467.146 751.432 466.844 750.533 466.238C749.635 465.613 748.932 464.793 748.424 463.777C747.916 462.762 747.564 461.619 747.369 460.35C747.193 459.08 747.105 457.781 747.105 456.453C747.105 455.125 747.193 453.826 747.369 452.557C747.564 451.268 747.916 450.125 748.424 449.129C748.932 448.133 749.635 447.332 750.533 446.727C751.432 446.102 752.594 445.789 754.02 445.789Z" fill="#666666"/>
    <path d="M397.32 445.789C398.16 445.789 398.951 445.896 399.693 446.111C400.455 446.326 401.119 446.658 401.686 447.107C402.252 447.537 402.701 448.094 403.033 448.777C403.365 449.441 403.531 450.223 403.531 451.121C403.531 451.941 403.346 452.781 402.975 453.641C402.623 454.5 402.145 455.369 401.539 456.248C400.953 457.107 400.279 457.967 399.518 458.826C398.775 459.666 398.014 460.477 397.232 461.258C396.471 462.02 395.719 462.742 394.977 463.426C394.254 464.09 393.629 464.676 393.102 465.184H403.824V467H390.758V464.92C391.207 464.51 391.783 463.982 392.486 463.338C393.189 462.674 393.932 461.941 394.713 461.141C395.514 460.32 396.314 459.461 397.115 458.562C397.916 457.664 398.639 456.775 399.283 455.896C399.928 455.018 400.445 454.178 400.836 453.377C401.246 452.576 401.451 451.863 401.451 451.238C401.451 450.633 401.334 450.105 401.1 449.656C400.885 449.188 400.582 448.797 400.191 448.484C399.82 448.172 399.381 447.938 398.873 447.781C398.365 447.625 397.828 447.547 397.262 447.547C396.402 447.547 395.504 447.732 394.566 448.104C393.629 448.455 392.75 448.865 391.93 449.334L391.578 447.43C392.34 447.059 393.199 446.697 394.156 446.346C395.133 445.975 396.188 445.789 397.32 445.789ZM414.254 447.547C413.512 447.547 412.877 447.693 412.35 447.986C411.842 448.279 411.402 448.68 411.031 449.188C410.68 449.676 410.396 450.232 410.182 450.857C409.986 451.482 409.83 452.127 409.713 452.791C409.596 453.436 409.518 454.08 409.479 454.725C409.459 455.369 409.449 455.945 409.449 456.453C409.449 457.234 409.488 458.133 409.566 459.148C409.664 460.164 409.869 461.131 410.182 462.049C410.514 462.967 410.992 463.748 411.617 464.393C412.262 465.018 413.141 465.33 414.254 465.33C415.348 465.33 416.217 465.018 416.861 464.393C417.506 463.748 417.984 462.967 418.297 462.049C418.629 461.131 418.834 460.164 418.912 459.148C419.01 458.133 419.059 457.234 419.059 456.453C419.059 455.945 419.039 455.369 419 454.725C418.98 454.08 418.912 453.436 418.795 452.791C418.678 452.127 418.512 451.482 418.297 450.857C418.082 450.232 417.799 449.676 417.447 449.188C417.096 448.68 416.656 448.279 416.129 447.986C415.602 447.693 414.977 447.547 414.254 447.547ZM414.254 445.789C415.66 445.789 416.812 446.102 417.711 446.727C418.609 447.332 419.312 448.133 419.82 449.129C420.328 450.125 420.67 451.268 420.846 452.557C421.041 453.826 421.139 455.125 421.139 456.453C421.139 457.781 421.041 459.08 420.846 460.35C420.67 461.619 420.328 462.762 419.82 463.777C419.312 464.793 418.609 465.613 417.711 466.238C416.812 466.844 415.66 467.146 414.254 467.146C412.828 467.146 411.666 466.844 410.768 466.238C409.869 465.613 409.166 464.793 408.658 463.777C408.15 462.762 407.799 461.619 407.604 460.35C407.428 459.08 407.34 457.781 407.34 456.453C407.34 455.125 407.428 453.826 407.604 452.557C407.799 451.268 408.15 450.125 408.658 449.129C409.166 448.133 409.869 447.332 410.768 446.727C411.666 446.102 412.828 445.789 414.254 445.789Z" fill="#666666"/>
    <path d="M561.352 469.461V460.643H550.219V458.885H574.535V460.643H563.373V469.461H561.352ZM562.23 449.129C562.191 449.344 562.094 449.607 561.938 449.92C561.781 450.213 561.596 450.496 561.381 450.77C560.756 451.59 559.73 452.391 558.305 453.172C556.898 453.934 555.082 454.568 552.855 455.076L551.977 453.523C553.773 453.113 555.268 452.635 556.459 452.088C557.67 451.541 558.637 450.945 559.359 450.301C560.082 449.637 560.59 448.943 560.883 448.221C561.195 447.479 561.352 446.727 561.352 445.965V445.027H563.432V445.965C563.432 446.746 563.588 447.498 563.9 448.221C564.232 448.943 564.76 449.617 565.482 450.242C566.225 450.867 567.191 451.434 568.383 451.941C569.574 452.43 571.039 452.83 572.777 453.143L571.898 454.754C569.77 454.305 567.992 453.719 566.566 452.996C565.16 452.254 564.145 451.512 563.52 450.77C563.285 450.496 563.08 450.213 562.904 449.92C562.748 449.607 562.65 449.344 562.611 449.129H562.23ZM580.043 456.424V445.057H582.064V449.598H596.625V445.057H598.646V456.424H580.043ZM588.451 465.359V461.199H576.879V459.471H601.781V461.199H590.473V465.359H588.451ZM596.625 451.268H582.064V454.695H596.625V451.268ZM582.064 463.016V468.055H599.525V469.783H580.043V463.016H582.064Z" fill="#333333"/>
    <path d="M73.6719 447.547C72.9297 447.547 72.2949 447.693 71.7676 447.986C71.2598 448.279 70.8203 448.68 70.4492 449.188C70.0977 449.676 69.8145 450.232 69.5996 450.857C69.4043 451.482 69.248 452.127 69.1309 452.791C69.0137 453.436 68.9355 454.08 68.8965 454.725C68.877 455.369 68.8672 455.945 68.8672 456.453C68.8672 457.234 68.9062 458.133 68.9844 459.148C69.082 460.164 69.2871 461.131 69.5996 462.049C69.9316 462.967 70.4102 463.748 71.0352 464.393C71.6797 465.018 72.5586 465.33 73.6719 465.33C74.7656 465.33 75.6348 465.018 76.2793 464.393C76.9238 463.748 77.4023 462.967 77.7148 462.049C78.0469 461.131 78.252 460.164 78.3301 459.148C78.4277 458.133 78.4766 457.234 78.4766 456.453C78.4766 455.945 78.457 455.369 78.418 454.725C78.3984 454.08 78.3301 453.436 78.2129 452.791C78.0957 452.127 77.9297 451.482 77.7148 450.857C77.5 450.232 77.2168 449.676 76.8652 449.188C76.5137 448.68 76.0742 448.279 75.5469 447.986C75.0195 447.693 74.3945 447.547 73.6719 447.547ZM73.6719 445.789C75.0781 445.789 76.2305 446.102 77.1289 446.727C78.0273 447.332 78.7305 448.133 79.2383 449.129C79.7461 450.125 80.0879 451.268 80.2637 452.557C80.459 453.826 80.5566 455.125 80.5566 456.453C80.5566 457.781 80.459 459.08 80.2637 460.35C80.0879 461.619 79.7461 462.762 79.2383 463.777C78.7305 464.793 78.0273 465.613 77.1289 466.238C76.2305 466.844 75.0781 467.146 73.6719 467.146C72.2461 467.146 71.084 466.844 70.1855 466.238C69.2871 465.613 68.584 464.793 68.0762 463.777C67.5684 462.762 67.2168 461.619 67.0215 460.35C66.8457 459.08 66.7578 457.781 66.7578 456.453C66.7578 455.125 66.8457 453.826 67.0215 452.557C67.2168 451.268 67.5684 450.125 68.0762 449.129C68.584 448.133 69.2871 447.332 70.1855 446.727C71.084 446.102 72.2461 445.789 73.6719 445.789Z" fill="#666666"/>
</svg>
