<svg width="502" height="488" viewBox="0 0 502 488" fill="none" xmlns="http://www.w3.org/2000/svg">
    <line x1="76.5" y1="97" x2="76.5" y2="437" stroke="#666666"/>
    <line x1="417" y1="437.5" x2="76" y2="437.5" stroke="#666666"/>
    <path d="M49.3945 49.9258C49.3945 48.9414 49.6289 48.0391 50.0977 47.2188C50.5898 46.375 51.3164 45.6602 52.2773 45.0742C53.2383 44.4648 54.4453 43.9961 55.8984 43.668C57.3516 43.3398 59.0508 43.1758 60.9961 43.1758C62.918 43.1758 64.6055 43.3398 66.0586 43.668C67.5117 43.9961 68.7188 44.4648 69.6797 45.0742C70.6641 45.6602 71.3906 46.375 71.8594 47.2188C72.3516 48.0391 72.5977 48.9414 72.5977 49.9258C72.5977 50.9102 72.3516 51.8242 71.8594 52.668C71.3906 53.4883 70.6641 54.2031 69.6797 54.8125C68.7188 55.3984 67.5117 55.8555 66.0586 56.1836C64.6055 56.5117 62.918 56.6758 60.9961 56.6758C59.0508 56.6758 57.3516 56.5117 55.8984 56.1836C54.4453 55.8555 53.2383 55.3984 52.2773 54.8125C51.3164 54.2031 50.5898 53.4883 50.0977 52.668C49.6289 51.8242 49.3945 50.9102 49.3945 49.9258ZM51.6797 49.9258C51.6797 51.3555 52.4648 52.5156 54.0352 53.4062C55.6055 54.2734 57.9258 54.707 60.9961 54.707C64.0664 54.707 66.3867 54.2734 67.957 53.4062C69.5273 52.5156 70.3125 51.3555 70.3125 49.9258C70.3125 48.4961 69.5273 47.3359 67.957 46.4453C66.3867 45.5547 64.0664 45.1094 60.9961 45.1094C57.9258 45.1094 55.6055 45.5547 54.0352 46.4453C52.4648 47.3359 51.6797 48.4961 51.6797 49.9258ZM46.4062 63.0742V60.9648H75.5859V63.0742H68.3086L68.5547 73.1289H66.1641L65.9531 63.0742H56.7773C56.7305 64.9023 56.543 66.6484 56.2148 68.3125C55.9102 69.9531 55.4648 71.5 54.8789 72.9531L52.418 72.2852C53.0742 70.832 53.543 69.3203 53.8242 67.75C54.1289 66.1797 54.293 64.6211 54.3164 63.0742H46.4062ZM82.1953 57.3086V43.668H84.6211V49.1172H102.094V43.668H104.52V57.3086H82.1953ZM92.2852 68.0312V63.0391H78.3984V60.9648H108.281V63.0391H94.7109V68.0312H92.2852ZM102.094 51.1211H84.6211V55.2344H102.094V51.1211ZM84.6211 65.2188V71.2656H105.574V73.3398H82.1953V65.2188H84.6211Z" fill="#333333"/>
    <path d="M20.9766 158.168V152.836C19.2773 153.207 17.373 153.461 15.2637 153.598C13.1738 153.715 10.9082 153.773 8.4668 153.773H1.17188V152.045H7.32422V143.637H9.3457V152.045C11.416 152.045 13.4473 151.986 15.4395 151.869C17.4316 151.732 19.2773 151.469 20.9766 151.078V133.031H22.998V143.139H28.125V144.867H22.998V158.168H20.9766ZM13.623 147.826C13.8379 146.85 14.0137 145.854 14.1504 144.838C14.3066 143.803 14.4238 142.797 14.502 141.82C14.5996 140.824 14.668 139.877 14.707 138.979C14.7461 138.08 14.7559 137.26 14.7363 136.518H3.36914V134.789H16.7285C16.7676 136.703 16.709 138.793 16.5527 141.059C16.416 143.324 16.0938 145.697 15.5859 148.178L13.623 147.826ZM49.541 158.168V151.664C47.7246 152.172 45.625 152.514 43.2422 152.689C40.8594 152.865 38.252 152.953 35.4199 152.953H31.3477V134.936H43.2715V136.664H33.3691V151.225H35.4492C36.7188 151.225 37.9883 151.215 39.2578 151.195C40.5273 151.156 41.7578 151.098 42.9492 151.02C44.1602 150.922 45.3125 150.785 46.4062 150.609C47.5195 150.414 48.5645 150.17 49.541 149.877V133.031H51.5625V143.139H56.3965V144.867H51.5625V158.168H49.541Z" fill="#666666"/>
    <path d="M16.1426 257.27C14.541 256.547 13.3301 255.844 12.5098 255.16C11.6895 254.457 11.084 253.842 10.6934 253.314C10.3613 252.865 10.1367 252.484 10.0195 252.172C9.90234 251.84 9.82422 251.537 9.78516 251.264H9.28711C9.24805 251.537 9.16992 251.859 9.05273 252.23C8.93555 252.602 8.75977 252.982 8.52539 253.373C8.29102 253.783 8.00781 254.193 7.67578 254.604C7.36328 255.014 6.97266 255.434 6.50391 255.863C6.05469 256.273 5.50781 256.703 4.86328 257.152C4.21875 257.602 3.44727 258.061 2.54883 258.529L1.17188 257.094C2.85156 256.254 4.17969 255.365 5.15625 254.428C6.13281 253.471 6.86523 252.514 7.35352 251.557C7.86133 250.6 8.17383 249.682 8.29102 248.803C8.42773 247.904 8.49609 247.094 8.49609 246.371V246.225H2.08008V244.496H16.7285V246.225H10.5176V246.371C10.5176 247.074 10.5762 247.836 10.6934 248.656C10.8301 249.477 11.1328 250.307 11.6016 251.146C12.0898 251.967 12.793 252.777 13.7109 253.578C14.6484 254.359 15.918 255.062 17.5195 255.688L16.1426 257.27ZM21.416 268.783V261.811H5.36133V260.082H23.4375V268.783H21.416ZM21.416 258.207V251.146H15.1465V249.477H21.416V243.031H23.4375V258.207H21.416ZM32.4609 264.066C32.4609 262.582 33.2031 261.4 34.6875 260.521C36.1719 259.643 38.5156 259.203 41.7188 259.203C44.8828 259.203 47.2168 259.643 48.7207 260.521C50.2246 261.4 50.9766 262.582 50.9766 264.066C50.9766 265.57 50.2246 266.752 48.7207 267.611C47.2168 268.49 44.8828 268.93 41.7188 268.93C40.1172 268.93 38.7305 268.812 37.5586 268.578C36.4062 268.363 35.4492 268.041 34.6875 267.611C33.9258 267.201 33.3594 266.693 32.9883 266.088C32.6367 265.482 32.4609 264.809 32.4609 264.066ZM48.5156 258.061V255.395C47.0703 255.805 45.3809 256.088 43.4473 256.244C41.5137 256.4 39.1406 256.479 36.3281 256.479H30.0293V244.203H43.418V245.932H32.0508V254.75H36.3574C39.0527 254.75 41.3672 254.672 43.3008 254.516C45.2539 254.359 46.9922 254.057 48.5156 253.607V243.031H50.5371V250.209H55.3711V251.938H50.5371V258.061H48.5156ZM34.3945 264.066C34.3945 265.16 35.0293 265.961 36.2988 266.469C37.5879 266.996 39.3945 267.26 41.7188 267.26C44.0234 267.26 45.8203 266.996 47.1094 266.469C48.3984 265.961 49.043 265.16 49.043 264.066C49.043 262.973 48.3984 262.172 47.1094 261.664C45.8203 261.137 44.0234 260.873 41.7188 260.873C39.3945 260.873 37.5879 261.137 36.2988 261.664C35.0293 262.172 34.3945 262.973 34.3945 264.066Z" fill="#666666"/>
    <path d="M4.10156 365.277V354.057H6.12305V358.393H20.5371V354.057H22.5586V365.277H4.10156ZM12.3047 378.461V370.521H1.17188V368.764H25.4883V370.521H14.3262V378.461H12.3047ZM20.5371 360.062H6.12305V363.607H20.5371V360.062ZM40.1367 358.012C40.0586 358.227 39.9512 358.451 39.8145 358.686C39.6777 358.92 39.4824 359.164 39.2285 359.418C38.5059 360.141 37.4609 360.873 36.0938 361.615C34.7461 362.338 32.9688 362.924 30.7617 363.373L29.8828 361.82C31.4453 361.508 32.8125 361.088 33.9844 360.561C35.1562 360.033 36.1328 359.477 36.9141 358.891C37.6953 358.305 38.2812 357.738 38.6719 357.191C39.0625 356.625 39.2578 356.137 39.2578 355.727V355.639H30.7031V353.91H49.8926V355.639H41.3379V355.727C41.3379 356.137 41.5137 356.615 41.8652 357.162C42.2168 357.709 42.7637 358.256 43.5059 358.803C44.2676 359.33 45.2344 359.838 46.4062 360.326C47.5977 360.795 49.0234 361.166 50.6836 361.439L49.8047 363.051C47.6367 362.66 45.8789 362.133 44.5312 361.469C43.2031 360.785 42.168 360.102 41.4258 359.418C41.1719 359.184 40.9668 358.949 40.8105 358.715C40.6738 358.461 40.5762 358.227 40.5176 358.012H40.1367ZM27.832 367.855V366.127H39.2578V362.465H41.3086V366.127H52.7344V367.855H27.832ZM47.4902 372.602H30.7617V370.873H49.5117V379.076H47.4902V372.602Z" fill="#666666"/>
    <path d="M119.102 471.277V460.057H121.123V464.393H135.537V460.057H137.559V471.277H119.102ZM127.305 484.461V476.521H116.172V474.764H140.488V476.521H129.326V484.461H127.305ZM135.537 466.062H121.123V469.607H135.537V466.062ZM155.137 464.012C155.059 464.227 154.951 464.451 154.814 464.686C154.678 464.92 154.482 465.164 154.229 465.418C153.506 466.141 152.461 466.873 151.094 467.615C149.746 468.338 147.969 468.924 145.762 469.373L144.883 467.82C146.445 467.508 147.812 467.088 148.984 466.561C150.156 466.033 151.133 465.477 151.914 464.891C152.695 464.305 153.281 463.738 153.672 463.191C154.062 462.625 154.258 462.137 154.258 461.727V461.639H145.703V459.91H164.893V461.639H156.338V461.727C156.338 462.137 156.514 462.615 156.865 463.162C157.217 463.709 157.764 464.256 158.506 464.803C159.268 465.33 160.234 465.838 161.406 466.326C162.598 466.795 164.023 467.166 165.684 467.439L164.805 469.051C162.637 468.66 160.879 468.133 159.531 467.469C158.203 466.785 157.168 466.102 156.426 465.418C156.172 465.184 155.967 464.949 155.811 464.715C155.674 464.461 155.576 464.227 155.518 464.012H155.137ZM142.832 473.855V472.127H154.258V468.465H156.309V472.127H167.734V473.855H142.832ZM162.49 478.602H145.762V476.873H164.512V485.076H162.49V478.602Z" fill="#666666"/>
    <path d="M246.143 473.27C244.541 472.547 243.33 471.844 242.51 471.16C241.689 470.457 241.084 469.842 240.693 469.314C240.361 468.865 240.137 468.484 240.02 468.172C239.902 467.84 239.824 467.537 239.785 467.264H239.287C239.248 467.537 239.17 467.859 239.053 468.23C238.936 468.602 238.76 468.982 238.525 469.373C238.291 469.783 238.008 470.193 237.676 470.604C237.363 471.014 236.973 471.434 236.504 471.863C236.055 472.273 235.508 472.703 234.863 473.152C234.219 473.602 233.447 474.061 232.549 474.529L231.172 473.094C232.852 472.254 234.18 471.365 235.156 470.428C236.133 469.471 236.865 468.514 237.354 467.557C237.861 466.6 238.174 465.682 238.291 464.803C238.428 463.904 238.496 463.094 238.496 462.371V462.225H232.08V460.496H246.729V462.225H240.518V462.371C240.518 463.074 240.576 463.836 240.693 464.656C240.83 465.477 241.133 466.307 241.602 467.146C242.09 467.967 242.793 468.777 243.711 469.578C244.648 470.359 245.918 471.062 247.52 471.688L246.143 473.27ZM251.416 484.783V477.811H235.361V476.082H253.438V484.783H251.416ZM251.416 474.207V467.146H245.146V465.477H251.416V459.031H253.438V474.207H251.416ZM262.461 480.066C262.461 478.582 263.203 477.4 264.688 476.521C266.172 475.643 268.516 475.203 271.719 475.203C274.883 475.203 277.217 475.643 278.721 476.521C280.225 477.4 280.977 478.582 280.977 480.066C280.977 481.57 280.225 482.752 278.721 483.611C277.217 484.49 274.883 484.93 271.719 484.93C270.117 484.93 268.73 484.812 267.559 484.578C266.406 484.363 265.449 484.041 264.688 483.611C263.926 483.201 263.359 482.693 262.988 482.088C262.637 481.482 262.461 480.809 262.461 480.066ZM278.516 474.061V471.395C277.07 471.805 275.381 472.088 273.447 472.244C271.514 472.4 269.141 472.479 266.328 472.479H260.029V460.203H273.418V461.932H262.051V470.75H266.357C269.053 470.75 271.367 470.672 273.301 470.516C275.254 470.359 276.992 470.057 278.516 469.607V459.031H280.537V466.209H285.371V467.938H280.537V474.061H278.516ZM264.395 480.066C264.395 481.16 265.029 481.961 266.299 482.469C267.588 482.996 269.395 483.26 271.719 483.26C274.023 483.26 275.82 482.996 277.109 482.469C278.398 481.961 279.043 481.16 279.043 480.066C279.043 478.973 278.398 478.172 277.109 477.664C275.82 477.137 274.023 476.873 271.719 476.873C269.395 476.873 267.588 477.137 266.299 477.664C265.029 478.172 264.395 478.973 264.395 480.066Z" fill="#666666"/>
    <path d="M367.977 484.168V478.836C366.277 479.207 364.373 479.461 362.264 479.598C360.174 479.715 357.908 479.773 355.467 479.773H348.172V478.045H354.324V469.637H356.346V478.045C358.416 478.045 360.447 477.986 362.439 477.869C364.432 477.732 366.277 477.469 367.977 477.078V459.031H369.998V469.139H375.125V470.867H369.998V484.168H367.977ZM360.623 473.826C360.838 472.85 361.014 471.854 361.15 470.838C361.307 469.803 361.424 468.797 361.502 467.82C361.6 466.824 361.668 465.877 361.707 464.979C361.746 464.08 361.756 463.26 361.736 462.518H350.369V460.789H363.729C363.768 462.703 363.709 464.793 363.553 467.059C363.416 469.324 363.094 471.697 362.586 474.178L360.623 473.826ZM396.541 484.168V477.664C394.725 478.172 392.625 478.514 390.242 478.689C387.859 478.865 385.252 478.953 382.42 478.953H378.348V460.936H390.271V462.664H380.369V477.225H382.449C383.719 477.225 384.988 477.215 386.258 477.195C387.527 477.156 388.758 477.098 389.949 477.02C391.16 476.922 392.312 476.785 393.406 476.609C394.52 476.414 395.564 476.17 396.541 475.877V459.031H398.562V469.139H403.396V470.867H398.562V484.168H396.541Z" fill="#666666"/>
    <path d="M451.766 453.953V443.371H438.406V441.262H467.586V443.371H454.191V453.953H451.766ZM452.82 429.555C452.773 429.812 452.656 430.129 452.469 430.504C452.281 430.855 452.059 431.195 451.801 431.523C451.051 432.508 449.82 433.469 448.109 434.406C446.422 435.32 444.242 436.082 441.57 436.691L440.516 434.828C442.672 434.336 444.465 433.762 445.895 433.105C447.348 432.449 448.508 431.734 449.375 430.961C450.242 430.164 450.852 429.332 451.203 428.465C451.578 427.574 451.766 426.672 451.766 425.758V424.633H454.262V425.758C454.262 426.695 454.449 427.598 454.824 428.465C455.223 429.332 455.855 430.141 456.723 430.891C457.613 431.641 458.773 432.32 460.203 432.93C461.633 433.516 463.391 433.996 465.477 434.371L464.422 436.305C461.867 435.766 459.734 435.062 458.023 434.195C456.336 433.305 455.117 432.414 454.367 431.523C454.086 431.195 453.84 430.855 453.629 430.504C453.441 430.129 453.324 429.812 453.277 429.555H452.82ZM474.195 438.309V424.668H476.621V430.117H494.094V424.668H496.52V438.309H474.195ZM484.285 449.031V444.039H470.398V441.965H500.281V444.039H486.711V449.031H484.285ZM494.094 432.121H476.621V436.234H494.094V432.121ZM476.621 446.219V452.266H497.574V454.34H474.195V446.219H476.621Z" fill="#333333"/>
    <rect x="97" y="97" width="100" height="100" fill="#EEEEEE"/>
    <rect x="207" y="97" width="100" height="100" fill="#EEEEEE"/>
    <rect x="317" y="97" width="100" height="100" fill="#EEEEEE"/>
    <rect x="97" y="317" width="100" height="100" fill="#EEEEEE"/>
    <rect x="207" y="317" width="100" height="100" fill="#F9D9DF"/>
    <rect x="317" y="317" width="100" height="100" fill="#EEEEEE"/>
    <rect x="97" y="207" width="100" height="100" fill="#EEEEEE"/>
    <rect x="207" y="207" width="100" height="100" fill="#EEEEEE"/>
    <rect x="317" y="207" width="100" height="100" fill="#EEEEEE"/>
    <path d="M166.662 7.27148C166.662 6.45117 166.857 5.69922 167.248 5.01562C167.658 4.3125 168.264 3.7168 169.064 3.22852C169.865 2.7207 170.871 2.33008 172.082 2.05664C173.293 1.7832 174.709 1.64648 176.33 1.64648C177.932 1.64648 179.338 1.7832 180.549 2.05664C181.76 2.33008 182.766 2.7207 183.566 3.22852C184.387 3.7168 184.992 4.3125 185.383 5.01562C185.793 5.69922 185.998 6.45117 185.998 7.27148C185.998 8.0918 185.793 8.85352 185.383 9.55664C184.992 10.2402 184.387 10.8359 183.566 11.3438C182.766 11.832 181.76 12.2129 180.549 12.4863C179.338 12.7598 177.932 12.8965 176.33 12.8965C174.709 12.8965 173.293 12.7598 172.082 12.4863C170.871 12.2129 169.865 11.832 169.064 11.3438C168.264 10.8359 167.658 10.2402 167.248 9.55664C166.857 8.85352 166.662 8.0918 166.662 7.27148ZM168.566 7.27148C168.566 8.46289 169.221 9.42969 170.529 10.1719C171.838 10.8945 173.771 11.2559 176.33 11.2559C178.889 11.2559 180.822 10.8945 182.131 10.1719C183.439 9.42969 184.094 8.46289 184.094 7.27148C184.094 6.08008 183.439 5.11328 182.131 4.37109C180.822 3.62891 178.889 3.25781 176.33 3.25781C173.771 3.25781 171.838 3.62891 170.529 4.37109C169.221 5.11328 168.566 6.08008 168.566 7.27148ZM164.172 18.2285V16.4707H188.488V18.2285H182.424L182.629 26.6074H180.637L180.461 18.2285H172.814C172.775 19.752 172.619 21.207 172.346 22.5938C172.092 23.9609 171.721 25.25 171.232 26.4609L169.182 25.9043C169.729 24.6934 170.119 23.4336 170.354 22.125C170.607 20.8164 170.744 19.5176 170.764 18.2285H164.172ZM193.996 13.4238V2.05664H196.018V6.59766H210.578V2.05664H212.6V13.4238H193.996ZM202.404 22.3594V18.1992H190.832V16.4707H215.734V18.1992H204.426V22.3594H202.404ZM210.578 8.26758H196.018V11.6953H210.578V8.26758ZM196.018 20.0156V25.0547H213.479V26.7832H193.996V20.0156H196.018ZM229.211 13.2773V2.05664H231.232V6.39258H245.646V2.05664H247.668V13.2773H229.211ZM237.414 26.4609V18.5215H226.281V16.7637H250.598V18.5215H239.436V26.4609H237.414ZM245.646 8.0625H231.232V11.6074H245.646V8.0625ZM265.246 6.01172C265.168 6.22656 265.061 6.45117 264.924 6.68555C264.787 6.91992 264.592 7.16406 264.338 7.41797C263.615 8.14062 262.57 8.87305 261.203 9.61523C259.855 10.3379 258.078 10.9238 255.871 11.373L254.992 9.82031C256.555 9.50781 257.922 9.08789 259.094 8.56055C260.266 8.0332 261.242 7.47656 262.023 6.89062C262.805 6.30469 263.391 5.73828 263.781 5.19141C264.172 4.625 264.367 4.13672 264.367 3.72656V3.63867H255.812V1.91016H275.002V3.63867H266.447V3.72656C266.447 4.13672 266.623 4.61523 266.975 5.16211C267.326 5.70898 267.873 6.25586 268.615 6.80273C269.377 7.33008 270.344 7.83789 271.516 8.32617C272.707 8.79492 274.133 9.16602 275.793 9.43945L274.914 11.0508C272.746 10.6602 270.988 10.1328 269.641 9.46875C268.312 8.78516 267.277 8.10156 266.535 7.41797C266.281 7.18359 266.076 6.94922 265.92 6.71484C265.783 6.46094 265.686 6.22656 265.627 6.01172H265.246ZM252.941 15.8555V14.127H264.367V10.4648H266.418V14.127H277.844V15.8555H252.941ZM272.6 20.6016H255.871V18.873H274.621V27.0762H272.6V20.6016ZM307.756 21.1875V10.4648H298.908C298.635 11.7539 298.293 12.9941 297.883 14.1855C297.492 15.377 297.053 16.4902 296.564 17.5254L294.66 16.8223C295.168 15.8652 295.607 14.8203 295.979 13.6875C296.369 12.5547 296.691 11.4219 296.945 10.2891C297.199 9.15625 297.395 8.0625 297.531 7.00781C297.668 5.95312 297.746 5.02539 297.766 4.22461H287.512V2.49609H299.846C299.846 3.49219 299.787 4.51758 299.67 5.57227C299.572 6.62695 299.436 7.68164 299.26 8.73633H307.756V1.03125H309.777V21.1875H307.756ZM294.162 19.4297V24.9082H310.363V26.6367H292.141V19.4297H294.162ZM318.625 22.2129C318.625 20.7285 319.367 19.5762 320.852 18.7559C322.355 17.916 324.709 17.4961 327.912 17.4961C331.096 17.4961 333.43 17.9062 334.914 18.7266C336.418 19.5469 337.17 20.709 337.17 22.2129C337.17 23.7168 336.418 24.8789 334.914 25.6992C333.43 26.5195 331.096 26.9297 327.912 26.9297C324.709 26.9297 322.355 26.5195 320.852 25.6992C319.367 24.8789 318.625 23.7168 318.625 22.2129ZM320.559 22.2129C320.559 23.3066 321.203 24.0879 322.492 24.5566C323.781 25.0254 325.588 25.2598 327.912 25.2598C330.217 25.2598 332.014 25.0254 333.303 24.5566C334.592 24.0879 335.236 23.3066 335.236 22.2129C335.236 21.1191 334.592 20.3379 333.303 19.8691C332.014 19.4004 330.217 19.166 327.912 19.166C325.588 19.166 323.781 19.4004 322.492 19.8691C321.203 20.3379 320.559 21.1191 320.559 22.2129ZM328.908 14.918C327.971 14.4297 327.17 13.9414 326.506 13.4531C325.842 12.9648 325.275 12.5059 324.807 12.0762C324.357 11.627 323.996 11.2168 323.723 10.8457C323.469 10.4746 323.264 10.1523 323.107 9.87891C322.736 9.23438 322.512 8.60937 322.434 8.00391H322.023C321.984 8.33594 321.906 8.67773 321.789 9.0293C321.691 9.36133 321.535 9.75195 321.32 10.2012C320.871 11.0801 320.197 12.0176 319.299 13.0137C318.42 13.9902 317.131 15.0352 315.432 16.1484L313.879 14.8008C315.363 13.9609 316.574 13.043 317.512 12.0469C318.469 11.0508 319.211 10.0547 319.738 9.05859C320.285 8.04297 320.656 7.05664 320.852 6.09961C321.047 5.14258 321.145 4.27344 321.145 3.49219V2.05664H323.166V3.49219C323.166 4.27344 323.254 5.11328 323.43 6.01172C323.605 6.89062 323.947 7.7793 324.455 8.67773C324.982 9.55664 325.705 10.4062 326.623 11.2266C327.561 12.0469 328.781 12.7695 330.285 13.3945L328.908 14.918ZM334.709 16.3535V8.58984H327.941V6.91992H334.709V1.03125H336.73V16.3535H334.709Z" fill="#666666"/>
</svg>
