<svg width="448" height="184" viewBox="0 0 448 184" fill="none" xmlns="http://www.w3.org/2000/svg">
    <line x1="68.5" y1="15" x2="68.5" y2="135" stroke="#666666"/>
    <line x1="448" y1="134.5" x2="68" y2="134.5" stroke="#666666"/>
    <path d="M2.05078 7.18359L6.79688 3.22852H8.49609V24H6.5918V5.57227L3.19336 8.53125L2.05078 7.18359ZM21.416 4.54688C20.6738 4.54688 20.0391 4.69336 19.5117 4.98633C19.0039 5.2793 18.5645 5.67969 18.1934 6.1875C17.8418 6.67578 17.5586 7.23242 17.3438 7.85742C17.1484 8.48242 16.9922 9.12695 16.875 9.79102C16.7578 10.4355 16.6797 11.0801 16.6406 11.7246C16.6211 12.3691 16.6113 12.9453 16.6113 13.4531C16.6113 14.2344 16.6504 15.1328 16.7285 16.1484C16.8262 17.1641 17.0312 18.1309 17.3438 19.0488C17.6758 19.9668 18.1543 20.748 18.7793 21.3926C19.4238 22.0176 20.3027 22.3301 21.416 22.3301C22.5098 22.3301 23.3789 22.0176 24.0234 21.3926C24.668 20.748 25.1465 19.9668 25.459 19.0488C25.791 18.1309 25.9961 17.1641 26.0742 16.1484C26.1719 15.1328 26.2207 14.2344 26.2207 13.4531C26.2207 12.9453 26.2012 12.3691 26.1621 11.7246C26.1426 11.0801 26.0742 10.4355 25.957 9.79102C25.8398 9.12695 25.6738 8.48242 25.459 7.85742C25.2441 7.23242 24.9609 6.67578 24.6094 6.1875C24.2578 5.67969 23.8184 5.2793 23.291 4.98633C22.7637 4.69336 22.1387 4.54688 21.416 4.54688ZM21.416 2.78906C22.8223 2.78906 23.9746 3.10156 24.873 3.72656C25.7715 4.33203 26.4746 5.13281 26.9824 6.12891C27.4902 7.125 27.832 8.26758 28.0078 9.55664C28.2031 10.8262 28.3008 12.125 28.3008 13.4531C28.3008 14.7812 28.2031 16.0801 28.0078 17.3496C27.832 18.6191 27.4902 19.7617 26.9824 20.7773C26.4746 21.793 25.7715 22.6133 24.873 23.2383C23.9746 23.8438 22.8223 24.1465 21.416 24.1465C19.9902 24.1465 18.8281 23.8438 17.9297 23.2383C17.0312 22.6133 16.3281 21.793 15.8203 20.7773C15.3125 19.7617 14.9609 18.6191 14.7656 17.3496C14.5898 16.0801 14.502 14.7812 14.502 13.4531C14.502 12.125 14.5898 10.8262 14.7656 9.55664C14.9609 8.26758 15.3125 7.125 15.8203 6.12891C16.3281 5.13281 17.0312 4.33203 17.9297 3.72656C18.8281 3.10156 19.9902 2.78906 21.416 2.78906ZM38.7305 4.54688C37.9883 4.54688 37.3535 4.69336 36.8262 4.98633C36.3184 5.2793 35.8789 5.67969 35.5078 6.1875C35.1562 6.67578 34.873 7.23242 34.6582 7.85742C34.4629 8.48242 34.3066 9.12695 34.1895 9.79102C34.0723 10.4355 33.9941 11.0801 33.9551 11.7246C33.9355 12.3691 33.9258 12.9453 33.9258 13.4531C33.9258 14.2344 33.9648 15.1328 34.043 16.1484C34.1406 17.1641 34.3457 18.1309 34.6582 19.0488C34.9902 19.9668 35.4688 20.748 36.0938 21.3926C36.7383 22.0176 37.6172 22.3301 38.7305 22.3301C39.8242 22.3301 40.6934 22.0176 41.3379 21.3926C41.9824 20.748 42.4609 19.9668 42.7734 19.0488C43.1055 18.1309 43.3105 17.1641 43.3887 16.1484C43.4863 15.1328 43.5352 14.2344 43.5352 13.4531C43.5352 12.9453 43.5156 12.3691 43.4766 11.7246C43.457 11.0801 43.3887 10.4355 43.2715 9.79102C43.1543 9.12695 42.9883 8.48242 42.7734 7.85742C42.5586 7.23242 42.2754 6.67578 41.9238 6.1875C41.5723 5.67969 41.1328 5.2793 40.6055 4.98633C40.0781 4.69336 39.4531 4.54688 38.7305 4.54688ZM38.7305 2.78906C40.1367 2.78906 41.2891 3.10156 42.1875 3.72656C43.0859 4.33203 43.7891 5.13281 44.2969 6.12891C44.8047 7.125 45.1465 8.26758 45.3223 9.55664C45.5176 10.8262 45.6152 12.125 45.6152 13.4531C45.6152 14.7812 45.5176 16.0801 45.3223 17.3496C45.1465 18.6191 44.8047 19.7617 44.2969 20.7773C43.7891 21.793 43.0859 22.6133 42.1875 23.2383C41.2891 23.8438 40.1367 24.1465 38.7305 24.1465C37.3047 24.1465 36.1426 23.8438 35.2441 23.2383C34.3457 22.6133 33.6426 21.793 33.1348 20.7773C32.627 19.7617 32.2754 18.6191 32.0801 17.3496C31.9043 16.0801 31.8164 14.7812 31.8164 13.4531C31.8164 12.125 31.9043 10.8262 32.0801 9.55664C32.2754 8.26758 32.627 7.125 33.1348 6.12891C33.6426 5.13281 34.3457 4.33203 35.2441 3.72656C36.1426 3.10156 37.3047 2.78906 38.7305 2.78906Z" fill="#666666"/>
    <path d="M22.3652 142.623C23.166 142.623 23.8594 142.477 24.4453 142.184C25.0508 141.891 25.5488 141.5 25.9395 141.012C26.3301 140.504 26.623 139.918 26.8184 139.254C27.0137 138.59 27.1113 137.887 27.1113 137.145C27.1113 136.402 27.0137 135.719 26.8184 135.094C26.623 134.469 26.3301 133.932 25.9395 133.482C25.5684 133.033 25.0898 132.691 24.5039 132.457C23.9375 132.203 23.2637 132.076 22.4824 132.076C21.9746 132.076 21.4863 132.154 21.0176 132.311C20.5684 132.447 20.1582 132.652 19.7871 132.926C19.416 133.199 19.0938 133.541 18.8203 133.951C18.5664 134.342 18.3809 134.781 18.2637 135.27H16.2715L16.7402 123.199H28.166V125.016H18.6152L18.2637 132.428L18.3223 132.486C18.9082 131.803 19.582 131.275 20.3438 130.904C21.1055 130.514 21.9551 130.318 22.8926 130.318C23.8691 130.318 24.748 130.504 25.5293 130.875C26.3105 131.246 26.9746 131.754 27.5215 132.398C28.0684 133.023 28.4883 133.756 28.7812 134.596C29.0742 135.416 29.2207 136.295 29.2207 137.232C29.2207 138.229 29.0645 139.166 28.752 140.045C28.4395 140.904 28 141.666 27.4336 142.33C26.8672 142.975 26.1641 143.482 25.3242 143.854C24.5039 144.225 23.5859 144.41 22.5703 144.41C21.3203 144.41 20.2266 144.273 19.2891 144C18.3516 143.746 17.5312 143.482 16.8281 143.209L16.916 141.246C17.248 141.422 17.6289 141.598 18.0586 141.773C18.5078 141.93 18.9668 142.076 19.4355 142.213C19.9238 142.33 20.4219 142.428 20.9297 142.506C21.4375 142.584 21.916 142.623 22.3652 142.623ZM39.3574 124.547C38.6152 124.547 37.9805 124.693 37.4531 124.986C36.9453 125.279 36.5059 125.68 36.1348 126.188C35.7832 126.676 35.5 127.232 35.2852 127.857C35.0898 128.482 34.9336 129.127 34.8164 129.791C34.6992 130.436 34.6211 131.08 34.582 131.725C34.5625 132.369 34.5527 132.945 34.5527 133.453C34.5527 134.234 34.5918 135.133 34.6699 136.148C34.7676 137.164 34.9727 138.131 35.2852 139.049C35.6172 139.967 36.0957 140.748 36.7207 141.393C37.3652 142.018 38.2441 142.33 39.3574 142.33C40.4512 142.33 41.3203 142.018 41.9648 141.393C42.6094 140.748 43.0879 139.967 43.4004 139.049C43.7324 138.131 43.9375 137.164 44.0156 136.148C44.1133 135.133 44.1621 134.234 44.1621 133.453C44.1621 132.945 44.1426 132.369 44.1035 131.725C44.084 131.08 44.0156 130.436 43.8984 129.791C43.7812 129.127 43.6152 128.482 43.4004 127.857C43.1855 127.232 42.9023 126.676 42.5508 126.188C42.1992 125.68 41.7598 125.279 41.2324 124.986C40.7051 124.693 40.0801 124.547 39.3574 124.547ZM39.3574 122.789C40.7637 122.789 41.916 123.102 42.8145 123.727C43.7129 124.332 44.416 125.133 44.9238 126.129C45.4316 127.125 45.7734 128.268 45.9492 129.557C46.1445 130.826 46.2422 132.125 46.2422 133.453C46.2422 134.781 46.1445 136.08 45.9492 137.35C45.7734 138.619 45.4316 139.762 44.9238 140.777C44.416 141.793 43.7129 142.613 42.8145 143.238C41.916 143.844 40.7637 144.146 39.3574 144.146C37.9316 144.146 36.7695 143.844 35.8711 143.238C34.9727 142.613 34.2695 141.793 33.7617 140.777C33.2539 139.762 32.9023 138.619 32.707 137.35C32.5312 136.08 32.4434 134.781 32.4434 133.453C32.4434 132.125 32.5312 130.826 32.707 129.557C32.9023 128.268 33.2539 127.125 33.7617 126.129C34.2695 125.133 34.9727 124.332 35.8711 123.727C36.7695 123.102 37.9316 122.789 39.3574 122.789Z" fill="#666666"/>
    <path d="M110.179 161.184L114.925 157.229H116.624V178H114.72V159.572L111.321 162.531L110.179 161.184Z" fill="#666666"/>
    <path d="M208.529 156.789C209.369 156.789 210.16 156.896 210.902 157.111C211.664 157.326 212.328 157.658 212.895 158.107C213.461 158.537 213.91 159.094 214.242 159.777C214.574 160.441 214.74 161.223 214.74 162.121C214.74 162.941 214.555 163.781 214.184 164.641C213.832 165.5 213.354 166.369 212.748 167.248C212.162 168.107 211.488 168.967 210.727 169.826C209.984 170.666 209.223 171.477 208.441 172.258C207.68 173.02 206.928 173.742 206.186 174.426C205.463 175.09 204.838 175.676 204.311 176.184H215.033V178H201.967V175.92C202.416 175.51 202.992 174.982 203.695 174.338C204.398 173.674 205.141 172.941 205.922 172.141C206.723 171.32 207.523 170.461 208.324 169.562C209.125 168.664 209.848 167.775 210.492 166.896C211.137 166.018 211.654 165.178 212.045 164.377C212.455 163.576 212.66 162.863 212.66 162.238C212.66 161.633 212.543 161.105 212.309 160.656C212.094 160.188 211.791 159.797 211.4 159.484C211.029 159.172 210.59 158.938 210.082 158.781C209.574 158.625 209.037 158.547 208.471 158.547C207.611 158.547 206.713 158.732 205.775 159.104C204.838 159.455 203.959 159.865 203.139 160.334L202.787 158.43C203.549 158.059 204.408 157.697 205.365 157.346C206.342 156.975 207.396 156.789 208.529 156.789Z" fill="#666666"/>
    <path d="M303.504 176.623C304.188 176.623 304.832 176.535 305.438 176.359C306.062 176.164 306.6 175.881 307.049 175.51C307.518 175.139 307.879 174.68 308.133 174.133C308.406 173.566 308.543 172.912 308.543 172.17C308.543 171.35 308.357 170.676 307.986 170.148C307.635 169.602 307.166 169.182 306.58 168.889C306.014 168.576 305.369 168.361 304.646 168.244C303.924 168.127 303.201 168.068 302.479 168.068H300.574V166.252H302.479C303.143 166.252 303.816 166.193 304.5 166.076C305.184 165.959 305.799 165.754 306.346 165.461C306.893 165.148 307.342 164.738 307.693 164.23C308.045 163.723 308.221 163.078 308.221 162.297C308.221 161.711 308.094 161.184 307.84 160.715C307.605 160.246 307.283 159.855 306.873 159.543C306.463 159.211 305.984 158.967 305.438 158.811C304.891 158.635 304.314 158.537 303.709 158.518C303.357 158.498 302.947 158.518 302.479 158.576C302.029 158.615 301.57 158.684 301.102 158.781C300.633 158.879 300.164 158.996 299.695 159.133C299.246 159.27 298.836 159.426 298.465 159.602L298.289 157.785C299.051 157.492 299.861 157.258 300.721 157.082C301.6 156.887 302.479 156.789 303.357 156.789C304.236 156.789 305.086 156.896 305.906 157.111C306.746 157.326 307.488 157.658 308.133 158.107C308.797 158.557 309.324 159.143 309.715 159.865C310.105 160.568 310.301 161.428 310.301 162.443C310.301 163.068 310.184 163.645 309.949 164.172C309.734 164.699 309.432 165.158 309.041 165.549C308.67 165.939 308.23 166.271 307.723 166.545C307.215 166.799 306.668 166.984 306.082 167.102V167.16C306.746 167.316 307.352 167.551 307.898 167.863C308.465 168.156 308.953 168.527 309.363 168.977C309.773 169.406 310.086 169.914 310.301 170.5C310.535 171.086 310.652 171.73 310.652 172.434C310.652 173.41 310.447 174.27 310.037 175.012C309.627 175.754 309.08 176.379 308.396 176.887C307.732 177.395 306.971 177.775 306.111 178.029C305.271 178.283 304.412 178.41 303.533 178.41C302.654 178.41 301.697 178.303 300.662 178.088C299.646 177.873 298.729 177.6 297.908 177.268L298.172 175.363C299.949 176.203 301.727 176.623 303.504 176.623Z" fill="#666666"/>
    <path d="M402.639 178.264V173.166H393.498V171.262L402.023 157.199H404.602V171.525H407.941V173.166H404.602V178.264H402.639ZM402.639 171.525V159.25L395.256 171.525H402.639Z" fill="#666666"/>
</svg>
