<svg width="610" height="456" viewBox="0 0 610 456" fill="none" xmlns="http://www.w3.org/2000/svg">
    <line x1="95.5" y1="-2.18557e-08" x2="95.5" y2="356" stroke="#666666"/>
    <line x1="610" y1="356.5" x2="95" y2="356.5" stroke="#666666"/>
    <line x1="610" y1="224.5" x2="96" y2="224.5" stroke="#DDDDDD" stroke-width="3" stroke-dasharray="5 5"/>
    <line x1="610" y1="91.5" x2="96" y2="91.5" stroke="#DDDDDD" stroke-width="3" stroke-dasharray="5 5"/>
    <path d="M11.6348 79.5469C10.8926 79.5469 10.2578 79.6934 9.73047 79.9863C9.22266 80.2793 8.7832 80.6797 8.41211 81.1875C8.06055 81.6758 7.77734 82.2324 7.5625 82.8574C7.36719 83.4824 7.21094 84.127 7.09375 84.791C6.97656 85.4355 6.89844 86.0801 6.85938 86.7246C6.83984 87.3691 6.83008 87.9453 6.83008 88.4531C6.83008 89.2344 6.86914 90.1328 6.94727 91.1484C7.04492 92.1641 7.25 93.1309 7.5625 94.0488C7.89453 94.9668 8.37305 95.748 8.99805 96.3926C9.64258 97.0176 10.5215 97.3301 11.6348 97.3301C12.7285 97.3301 13.5977 97.0176 14.2422 96.3926C14.8867 95.748 15.3652 94.9668 15.6777 94.0488C16.0098 93.1309 16.2148 92.1641 16.293 91.1484C16.3906 90.1328 16.4395 89.2344 16.4395 88.4531C16.4395 87.9453 16.4199 87.3691 16.3809 86.7246C16.3613 86.0801 16.293 85.4355 16.1758 84.791C16.0586 84.127 15.8926 83.4824 15.6777 82.8574C15.4629 82.2324 15.1797 81.6758 14.8281 81.1875C14.4766 80.6797 14.0371 80.2793 13.5098 79.9863C12.9824 79.6934 12.3574 79.5469 11.6348 79.5469ZM11.6348 77.7891C13.041 77.7891 14.1934 78.1016 15.0918 78.7266C15.9902 79.332 16.6934 80.1328 17.2012 81.1289C17.709 82.125 18.0508 83.2676 18.2266 84.5566C18.4219 85.8262 18.5195 87.125 18.5195 88.4531C18.5195 89.7812 18.4219 91.0801 18.2266 92.3496C18.0508 93.6191 17.709 94.7617 17.2012 95.7773C16.6934 96.793 15.9902 97.6133 15.0918 98.2383C14.1934 98.8438 13.041 99.1465 11.6348 99.1465C10.209 99.1465 9.04688 98.8438 8.14844 98.2383C7.25 97.6133 6.54688 96.793 6.03906 95.7773C5.53125 94.7617 5.17969 93.6191 4.98438 92.3496C4.80859 91.0801 4.7207 89.7812 4.7207 88.4531C4.7207 87.125 4.80859 85.8262 4.98438 84.5566C5.17969 83.2676 5.53125 82.125 6.03906 81.1289C6.54688 80.1328 7.25 79.332 8.14844 78.7266C9.04688 78.1016 10.209 77.7891 11.6348 77.7891ZM24.7305 99.5566H21.7422V96.3926H24.7305V99.5566ZM34.8672 79.5469C34.125 79.5469 33.4902 79.6934 32.9629 79.9863C32.4551 80.2793 32.0156 80.6797 31.6445 81.1875C31.293 81.6758 31.0098 82.2324 30.7949 82.8574C30.5996 83.4824 30.4434 84.127 30.3262 84.791C30.209 85.4355 30.1309 86.0801 30.0918 86.7246C30.0723 87.3691 30.0625 87.9453 30.0625 88.4531C30.0625 89.2344 30.1016 90.1328 30.1797 91.1484C30.2773 92.1641 30.4824 93.1309 30.7949 94.0488C31.127 94.9668 31.6055 95.748 32.2305 96.3926C32.875 97.0176 33.7539 97.3301 34.8672 97.3301C35.9609 97.3301 36.8301 97.0176 37.4746 96.3926C38.1191 95.748 38.5977 94.9668 38.9102 94.0488C39.2422 93.1309 39.4473 92.1641 39.5254 91.1484C39.623 90.1328 39.6719 89.2344 39.6719 88.4531C39.6719 87.9453 39.6523 87.3691 39.6133 86.7246C39.5938 86.0801 39.5254 85.4355 39.4082 84.791C39.291 84.127 39.125 83.4824 38.9102 82.8574C38.6953 82.2324 38.4121 81.6758 38.0605 81.1875C37.709 80.6797 37.2695 80.2793 36.7422 79.9863C36.2148 79.6934 35.5898 79.5469 34.8672 79.5469ZM34.8672 77.7891C36.2734 77.7891 37.4258 78.1016 38.3242 78.7266C39.2227 79.332 39.9258 80.1328 40.4336 81.1289C40.9414 82.125 41.2832 83.2676 41.459 84.5566C41.6543 85.8262 41.752 87.125 41.752 88.4531C41.752 89.7812 41.6543 91.0801 41.459 92.3496C41.2832 93.6191 40.9414 94.7617 40.4336 95.7773C39.9258 96.793 39.2227 97.6133 38.3242 98.2383C37.4258 98.8438 36.2734 99.1465 34.8672 99.1465C33.4414 99.1465 32.2793 98.8438 31.3809 98.2383C30.4824 97.6133 29.7793 96.793 29.2715 95.7773C28.7637 94.7617 28.4121 93.6191 28.2168 92.3496C28.041 91.0801 27.9531 89.7812 27.9531 88.4531C27.9531 87.125 28.041 85.8262 28.2168 84.5566C28.4121 83.2676 28.7637 82.125 29.2715 81.1289C29.7793 80.1328 30.4824 79.332 31.3809 78.7266C32.2793 78.1016 33.4414 77.7891 34.8672 77.7891ZM57.7773 78.1992V79.957L49.6914 99H47.4062L55.7266 80.0156H44.5352V78.1992H57.7773ZM67.6797 97.623C68.4805 97.623 69.1738 97.4766 69.7598 97.1836C70.3652 96.8906 70.8633 96.5 71.2539 96.0117C71.6445 95.5039 71.9375 94.918 72.1328 94.2539C72.3281 93.5898 72.4258 92.8867 72.4258 92.1445C72.4258 91.4023 72.3281 90.7188 72.1328 90.0938C71.9375 89.4688 71.6445 88.9316 71.2539 88.4824C70.8828 88.0332 70.4043 87.6914 69.8184 87.457C69.252 87.2031 68.5781 87.0762 67.7969 87.0762C67.2891 87.0762 66.8008 87.1543 66.332 87.3105C65.8828 87.4473 65.4727 87.6523 65.1016 87.9258C64.7305 88.1992 64.4082 88.541 64.1348 88.9512C63.8809 89.3418 63.6953 89.7812 63.5781 90.2695H61.5859L62.0547 78.1992H73.4805V80.0156H63.9297L63.5781 87.4277L63.6367 87.4863C64.2227 86.8027 64.8965 86.2754 65.6582 85.9043C66.4199 85.5137 67.2695 85.3184 68.207 85.3184C69.1836 85.3184 70.0625 85.5039 70.8438 85.875C71.625 86.2461 72.2891 86.7539 72.8359 87.3984C73.3828 88.0234 73.8027 88.7559 74.0957 89.5957C74.3887 90.416 74.5352 91.2949 74.5352 92.2324C74.5352 93.2285 74.3789 94.166 74.0664 95.0449C73.7539 95.9043 73.3145 96.666 72.748 97.3301C72.1816 97.9746 71.4785 98.4824 70.6387 98.8535C69.8184 99.2246 68.9004 99.4102 67.8848 99.4102C66.6348 99.4102 65.541 99.2734 64.6035 99C63.666 98.7461 62.8457 98.4824 62.1426 98.209L62.2305 96.2461C62.5625 96.4219 62.9434 96.5977 63.373 96.7734C63.8223 96.9297 64.2812 97.0762 64.75 97.2129C65.2383 97.3301 65.7363 97.4277 66.2441 97.5059C66.752 97.584 67.2305 97.623 67.6797 97.623Z" fill="#666666"/>
    <path d="M27.332 47.5156H30.7305C31.3164 47.5156 31.9219 47.4863 32.5469 47.4277C33.1719 47.3496 33.7383 47.2031 34.2461 46.9883C34.7734 46.7734 35.2031 46.4707 35.5352 46.0801C35.8672 45.6699 36.0332 45.1328 36.0332 44.4688C36.0332 43.7461 35.8672 43.1895 35.5352 42.7988C35.2031 42.3887 34.7832 42.0957 34.2754 41.9199C33.7871 41.7441 33.25 41.6465 32.6641 41.627C32.0977 41.5879 31.5703 41.5684 31.082 41.5684H27.332V47.5156ZM35.1543 48.5996C35.7207 48.6973 36.209 48.9121 36.6191 49.2441C37.0488 49.5566 37.4004 49.9277 37.6738 50.3574C37.9473 50.7676 38.1523 51.2168 38.2891 51.7051C38.4258 52.1738 38.5137 52.6133 38.5527 53.0234C38.5918 53.5898 38.6406 54.1953 38.6992 54.8398C38.7578 55.4648 38.8262 56.0605 38.9043 56.627C39.002 57.1934 39.1094 57.6914 39.2266 58.1211C39.3633 58.5508 39.5195 58.8438 39.6953 59H36.4141C36.2383 58.5898 36.1016 58.1699 36.0039 57.7402C35.9062 57.291 35.8281 56.8516 35.7695 56.4219C35.7109 55.9922 35.6621 55.5918 35.623 55.2207C35.6035 54.8301 35.5742 54.4883 35.5352 54.1953C35.4375 53.4922 35.3398 52.8965 35.2422 52.4082C35.1445 51.9199 34.9785 51.5293 34.7441 51.2363C34.5098 50.9238 34.1875 50.6992 33.7773 50.5625C33.3672 50.4062 32.8105 50.3184 32.1074 50.2988H27.332V59H24.3438V38.7852H31.5215C32.4785 38.7852 33.4062 38.873 34.3047 39.0488C35.2227 39.2246 36.0332 39.5273 36.7363 39.957C37.459 40.3867 38.0352 40.9531 38.4648 41.6562C38.8945 42.3594 39.1094 43.2383 39.1094 44.293C39.1094 44.918 38.9824 45.4844 38.7285 45.9922C38.4746 46.4805 38.1523 46.9004 37.7617 47.252C37.3711 47.6035 36.9414 47.8867 36.4727 48.1016C36.0234 48.3164 35.584 48.4629 35.1543 48.541V48.5996ZM54.959 55.1621V58.0039C54.627 58.1797 54.2949 58.3457 53.9629 58.502C53.6309 58.6387 53.2695 58.7656 52.8789 58.8828C52.4883 58.9805 52.0488 59.0586 51.5605 59.1172C51.0723 59.1758 50.5059 59.2051 49.8613 59.2051C48.5332 59.2051 47.3906 59.0098 46.4336 58.6191C45.4961 58.209 44.7148 57.6523 44.0898 56.9492C43.4844 56.2461 43.0352 55.416 42.7422 54.459C42.4688 53.4824 42.332 52.4375 42.332 51.3242C42.332 50.0938 42.5078 49 42.8594 48.043C43.2109 47.0664 43.6992 46.2363 44.3242 45.5527C44.9688 44.8691 45.7207 44.3516 46.5801 44C47.4395 43.6289 48.377 43.4434 49.3926 43.4434C50.5059 43.4434 51.4824 43.6387 52.3223 44.0293C53.1621 44.4004 53.8555 44.918 54.4023 45.582C54.9688 46.2461 55.3887 47.0273 55.6621 47.9258C55.9551 48.8242 56.1016 49.791 56.1016 50.8262V52.2617H45.3203C45.418 53.668 45.8672 54.752 46.668 55.5137C47.4688 56.2754 48.5918 56.6562 50.0371 56.6562C51.2285 56.6562 52.2051 56.5 52.9668 56.1875C53.7285 55.875 54.3926 55.5332 54.959 55.1621ZM45.3789 49.6836H53.1426C53.1035 48.5703 52.7715 47.6719 52.1465 46.9883C51.5215 46.2852 50.6328 45.9336 49.4805 45.9336C48.2891 45.9336 47.332 46.2949 46.6094 47.0176C45.9062 47.7402 45.4961 48.6289 45.3789 49.6836ZM68.0547 37.4375V39.6348C67.7812 39.5762 67.4785 39.5371 67.1465 39.5176C66.8145 39.4785 66.5605 39.459 66.3848 39.459C65.916 39.459 65.5449 39.5273 65.2715 39.6641C65.0176 39.8008 64.8223 39.9961 64.6855 40.25C64.5684 40.5039 64.4902 40.8066 64.4512 41.1582C64.4316 41.5098 64.4219 41.9004 64.4219 42.3301V43.8828H67.9375V46.4609H64.4219V59H61.5508V46.4609H58.4453V43.8828H61.5508V41.0117C61.5508 38.2773 62.9766 36.9102 65.8281 36.9102C66.0234 36.9102 66.3555 36.959 66.8242 37.0566C67.293 37.1543 67.7031 37.2812 68.0547 37.4375ZM74.3242 59.5566H70.5449V55.748H74.3242V59.5566Z" fill="#333333"/>
    <path d="M9.49609 345.547C8.75391 345.547 8.11914 345.693 7.5918 345.986C7.08398 346.279 6.64453 346.68 6.27344 347.188C5.92188 347.676 5.63867 348.232 5.42383 348.857C5.22852 349.482 5.07227 350.127 4.95508 350.791C4.83789 351.436 4.75977 352.08 4.7207 352.725C4.70117 353.369 4.69141 353.945 4.69141 354.453C4.69141 355.234 4.73047 356.133 4.80859 357.148C4.90625 358.164 5.11133 359.131 5.42383 360.049C5.75586 360.967 6.23438 361.748 6.85938 362.393C7.50391 363.018 8.38281 363.33 9.49609 363.33C10.5898 363.33 11.459 363.018 12.1035 362.393C12.748 361.748 13.2266 360.967 13.5391 360.049C13.8711 359.131 14.0762 358.164 14.1543 357.148C14.252 356.133 14.3008 355.234 14.3008 354.453C14.3008 353.945 14.2812 353.369 14.2422 352.725C14.2227 352.08 14.1543 351.436 14.0371 350.791C13.9199 350.127 13.7539 349.482 13.5391 348.857C13.3242 348.232 13.041 347.676 12.6895 347.188C12.3379 346.68 11.8984 346.279 11.3711 345.986C10.8438 345.693 10.2188 345.547 9.49609 345.547ZM9.49609 343.789C10.9023 343.789 12.0547 344.102 12.9531 344.727C13.8516 345.332 14.5547 346.133 15.0625 347.129C15.5703 348.125 15.9121 349.268 16.0879 350.557C16.2832 351.826 16.3809 353.125 16.3809 354.453C16.3809 355.781 16.2832 357.08 16.0879 358.35C15.9121 359.619 15.5703 360.762 15.0625 361.777C14.5547 362.793 13.8516 363.613 12.9531 364.238C12.0547 364.844 10.9023 365.146 9.49609 365.146C8.07031 365.146 6.9082 364.844 6.00977 364.238C5.11133 363.613 4.4082 362.793 3.90039 361.777C3.39258 360.762 3.04102 359.619 2.8457 358.35C2.66992 357.08 2.58203 355.781 2.58203 354.453C2.58203 353.125 2.66992 351.826 2.8457 350.557C3.04102 349.268 3.39258 348.125 3.90039 347.129C4.4082 346.133 5.11133 345.332 6.00977 344.727C6.9082 344.102 8.07031 343.789 9.49609 343.789ZM22.5918 365.557H19.6035V362.393H22.5918V365.557ZM32.7285 345.547C31.9863 345.547 31.3516 345.693 30.8242 345.986C30.3164 346.279 29.877 346.68 29.5059 347.188C29.1543 347.676 28.8711 348.232 28.6562 348.857C28.4609 349.482 28.3047 350.127 28.1875 350.791C28.0703 351.436 27.9922 352.08 27.9531 352.725C27.9336 353.369 27.9238 353.945 27.9238 354.453C27.9238 355.234 27.9629 356.133 28.041 357.148C28.1387 358.164 28.3438 359.131 28.6562 360.049C28.9883 360.967 29.4668 361.748 30.0918 362.393C30.7363 363.018 31.6152 363.33 32.7285 363.33C33.8223 363.33 34.6914 363.018 35.3359 362.393C35.9805 361.748 36.459 360.967 36.7715 360.049C37.1035 359.131 37.3086 358.164 37.3867 357.148C37.4844 356.133 37.5332 355.234 37.5332 354.453C37.5332 353.945 37.5137 353.369 37.4746 352.725C37.4551 352.08 37.3867 351.436 37.2695 350.791C37.1523 350.127 36.9863 349.482 36.7715 348.857C36.5566 348.232 36.2734 347.676 35.9219 347.188C35.5703 346.68 35.1309 346.279 34.6035 345.986C34.0762 345.693 33.4512 345.547 32.7285 345.547ZM32.7285 343.789C34.1348 343.789 35.2871 344.102 36.1855 344.727C37.084 345.332 37.7871 346.133 38.2949 347.129C38.8027 348.125 39.1445 349.268 39.3203 350.557C39.5156 351.826 39.6133 353.125 39.6133 354.453C39.6133 355.781 39.5156 357.08 39.3203 358.35C39.1445 359.619 38.8027 360.762 38.2949 361.777C37.7871 362.793 37.084 363.613 36.1855 364.238C35.2871 364.844 34.1348 365.146 32.7285 365.146C31.3027 365.146 30.1406 364.844 29.2422 364.238C28.3438 363.613 27.6406 362.793 27.1328 361.777C26.625 360.762 26.2734 359.619 26.0781 358.35C25.9023 357.08 25.8145 355.781 25.8145 354.453C25.8145 353.125 25.9023 351.826 26.0781 350.557C26.2734 349.268 26.625 348.125 27.1328 347.129C27.6406 346.133 28.3438 345.332 29.2422 344.727C30.1406 344.102 31.3027 343.789 32.7285 343.789ZM50.043 345.547C49.3008 345.547 48.666 345.693 48.1387 345.986C47.6309 346.279 47.1914 346.68 46.8203 347.188C46.4688 347.676 46.1855 348.232 45.9707 348.857C45.7754 349.482 45.6191 350.127 45.502 350.791C45.3848 351.436 45.3066 352.08 45.2676 352.725C45.248 353.369 45.2383 353.945 45.2383 354.453C45.2383 355.234 45.2773 356.133 45.3555 357.148C45.4531 358.164 45.6582 359.131 45.9707 360.049C46.3027 360.967 46.7812 361.748 47.4062 362.393C48.0508 363.018 48.9297 363.33 50.043 363.33C51.1367 363.33 52.0059 363.018 52.6504 362.393C53.2949 361.748 53.7734 360.967 54.0859 360.049C54.418 359.131 54.623 358.164 54.7012 357.148C54.7988 356.133 54.8477 355.234 54.8477 354.453C54.8477 353.945 54.8281 353.369 54.7891 352.725C54.7695 352.08 54.7012 351.436 54.584 350.791C54.4668 350.127 54.3008 349.482 54.0859 348.857C53.8711 348.232 53.5879 347.676 53.2363 347.188C52.8848 346.68 52.4453 346.279 51.918 345.986C51.3906 345.693 50.7656 345.547 50.043 345.547ZM50.043 343.789C51.4492 343.789 52.6016 344.102 53.5 344.727C54.3984 345.332 55.1016 346.133 55.6094 347.129C56.1172 348.125 56.459 349.268 56.6348 350.557C56.8301 351.826 56.9277 353.125 56.9277 354.453C56.9277 355.781 56.8301 357.08 56.6348 358.35C56.459 359.619 56.1172 360.762 55.6094 361.777C55.1016 362.793 54.3984 363.613 53.5 364.238C52.6016 364.844 51.4492 365.146 50.043 365.146C48.6172 365.146 47.4551 364.844 46.5566 364.238C45.6582 363.613 44.9551 362.793 44.4473 361.777C43.9395 360.762 43.5879 359.619 43.3926 358.35C43.2168 357.08 43.1289 355.781 43.1289 354.453C43.1289 353.125 43.2168 351.826 43.3926 350.557C43.5879 349.268 43.9395 348.125 44.4473 347.129C44.9551 346.133 45.6582 345.332 46.5566 344.727C47.4551 344.102 48.6172 343.789 50.043 343.789ZM67.3574 345.547C66.6152 345.547 65.9805 345.693 65.4531 345.986C64.9453 346.279 64.5059 346.68 64.1348 347.188C63.7832 347.676 63.5 348.232 63.2852 348.857C63.0898 349.482 62.9336 350.127 62.8164 350.791C62.6992 351.436 62.6211 352.08 62.582 352.725C62.5625 353.369 62.5527 353.945 62.5527 354.453C62.5527 355.234 62.5918 356.133 62.6699 357.148C62.7676 358.164 62.9727 359.131 63.2852 360.049C63.6172 360.967 64.0957 361.748 64.7207 362.393C65.3652 363.018 66.2441 363.33 67.3574 363.33C68.4512 363.33 69.3203 363.018 69.9648 362.393C70.6094 361.748 71.0879 360.967 71.4004 360.049C71.7324 359.131 71.9375 358.164 72.0156 357.148C72.1133 356.133 72.1621 355.234 72.1621 354.453C72.1621 353.945 72.1426 353.369 72.1035 352.725C72.084 352.08 72.0156 351.436 71.8984 350.791C71.7812 350.127 71.6152 349.482 71.4004 348.857C71.1855 348.232 70.9023 347.676 70.5508 347.188C70.1992 346.68 69.7598 346.279 69.2324 345.986C68.7051 345.693 68.0801 345.547 67.3574 345.547ZM67.3574 343.789C68.7637 343.789 69.916 344.102 70.8145 344.727C71.7129 345.332 72.416 346.133 72.9238 347.129C73.4316 348.125 73.7734 349.268 73.9492 350.557C74.1445 351.826 74.2422 353.125 74.2422 354.453C74.2422 355.781 74.1445 357.08 73.9492 358.35C73.7734 359.619 73.4316 360.762 72.9238 361.777C72.416 362.793 71.7129 363.613 70.8145 364.238C69.916 364.844 68.7637 365.146 67.3574 365.146C65.9316 365.146 64.7695 364.844 63.8711 364.238C62.9727 363.613 62.2695 362.793 61.7617 361.777C61.2539 360.762 60.9023 359.619 60.707 358.35C60.5312 357.08 60.4434 355.781 60.4434 354.453C60.4434 353.125 60.5312 351.826 60.707 350.557C60.9023 349.268 61.2539 348.125 61.7617 347.129C62.2695 346.133 62.9727 345.332 63.8711 344.727C64.7695 344.102 65.9316 343.789 67.3574 343.789Z" fill="#666666"/>
    <path d="M152.287 385.586L156.389 382.188H157.824V398.945H156.154V384.209L153.283 386.729L152.287 385.586ZM156.623 376.299C160.861 376.299 164.279 377.637 166.877 380.312C169.475 382.988 170.773 386.309 170.773 390.273C170.773 394.277 169.494 397.607 166.936 400.264C164.396 402.939 160.959 404.277 156.623 404.277C152.385 404.277 148.967 402.939 146.369 400.264C143.791 397.607 142.502 394.277 142.502 390.273C142.502 386.309 143.801 382.988 146.398 380.312C148.996 377.637 152.404 376.299 156.623 376.299ZM156.623 377.471C152.893 377.471 149.807 378.682 147.365 381.104C144.924 383.525 143.703 386.602 143.703 390.332C143.703 393.926 144.875 396.963 147.219 399.443C149.562 401.904 152.697 403.135 156.623 403.135C160.568 403.135 163.713 401.895 166.057 399.414C168.4 396.914 169.572 393.887 169.572 390.332C169.572 386.562 168.342 383.477 165.881 381.074C163.439 378.672 160.354 377.471 156.623 377.471Z" fill="#666666"/>
    <path d="M163.852 452.168V447.422C162.152 447.793 160.248 448.047 158.139 448.184C156.049 448.301 153.783 448.359 151.342 448.359H144.047V446.631H151.371H152.309V440.947H154.33V446.602C156.049 446.562 157.709 446.484 159.311 446.367C160.932 446.23 162.445 445.996 163.852 445.664V427.031H165.873V437.725H171V439.453H165.873V452.168H163.852ZM153.07 434.883C153.051 435.02 152.982 435.264 152.865 435.615C152.748 435.947 152.611 436.25 152.455 436.523C151.986 437.324 151.293 438.125 150.375 438.926C149.477 439.727 148.236 440.566 146.654 441.445L145.365 439.98C146.674 439.336 147.768 438.652 148.646 437.93C149.545 437.207 150.268 436.465 150.814 435.703C151.361 434.941 151.742 434.189 151.957 433.447C152.191 432.705 152.309 432.002 152.309 431.338V430.518H146.098V428.789H160.6V430.518H154.33V431.338C154.33 431.963 154.447 432.646 154.682 433.389C154.916 434.111 155.307 434.844 155.854 435.586C156.4 436.309 157.113 437.012 157.992 437.695C158.871 438.359 159.955 438.936 161.244 439.424L160.131 441.006C158.549 440.322 157.279 439.58 156.322 438.779C155.385 437.959 154.682 437.178 154.213 436.436C154.037 436.162 153.881 435.869 153.744 435.557C153.627 435.244 153.559 435.02 153.539 434.883H153.07Z" fill="#666666"/>
    <path d="M224.633 434.121C224.633 433.145 224.799 432.266 225.131 431.484C225.463 430.703 225.922 430.039 226.508 429.492C227.113 428.926 227.826 428.496 228.646 428.203C229.467 427.91 230.365 427.764 231.342 427.764C232.299 427.764 233.188 427.91 234.008 428.203C234.828 428.496 235.531 428.926 236.117 429.492C236.723 430.039 237.191 430.703 237.523 431.484C237.855 432.266 238.021 433.145 238.021 434.121C238.021 435.098 237.855 435.977 237.523 436.758C237.191 437.539 236.723 438.213 236.117 438.779C235.531 439.326 234.828 439.756 234.008 440.068C233.188 440.361 232.299 440.508 231.342 440.508C230.365 440.508 229.467 440.361 228.646 440.068C227.826 439.756 227.113 439.326 226.508 438.779C225.922 438.213 225.463 437.539 225.131 436.758C224.799 435.977 224.633 435.098 224.633 434.121ZM227.24 452.783V451.055H232.104V445.518H227.68V443.789H246.459V445.518H242.562V451.055H246.898V452.783H227.24ZM226.566 434.121C226.566 434.844 226.684 435.498 226.918 436.084C227.152 436.65 227.484 437.139 227.914 437.549C228.344 437.939 228.852 438.242 229.438 438.457C230.023 438.672 230.658 438.779 231.342 438.779C232.025 438.779 232.65 438.672 233.217 438.457C233.803 438.242 234.311 437.939 234.74 437.549C235.17 437.139 235.502 436.65 235.736 436.084C235.971 435.498 236.088 434.844 236.088 434.121C236.088 433.398 235.971 432.754 235.736 432.188C235.502 431.602 235.17 431.113 234.74 430.723C234.311 430.332 233.803 430.029 233.217 429.814C232.65 429.6 232.025 429.492 231.342 429.492C230.658 429.492 230.023 429.6 229.438 429.814C228.852 430.029 228.344 430.332 227.914 430.723C227.484 431.113 227.152 431.602 226.918 432.188C226.684 432.754 226.566 433.398 226.566 434.121ZM243.998 441.914V427.031H246.02V433.916H250.854V435.645H246.02V441.914H243.998ZM233.92 451.055H240.746V445.518H233.92V451.055Z" fill="#666666"/>
    <path d="M307.002 433.271C307.002 432.451 307.197 431.699 307.588 431.016C307.998 430.312 308.604 429.717 309.404 429.229C310.205 428.721 311.211 428.33 312.422 428.057C313.633 427.783 315.049 427.646 316.67 427.646C318.271 427.646 319.678 427.783 320.889 428.057C322.1 428.33 323.105 428.721 323.906 429.229C324.727 429.717 325.332 430.312 325.723 431.016C326.133 431.699 326.338 432.451 326.338 433.271C326.338 434.092 326.133 434.854 325.723 435.557C325.332 436.24 324.727 436.836 323.906 437.344C323.105 437.832 322.1 438.213 320.889 438.486C319.678 438.76 318.271 438.896 316.67 438.896C315.049 438.896 313.633 438.76 312.422 438.486C311.211 438.213 310.205 437.832 309.404 437.344C308.604 436.836 307.998 436.24 307.588 435.557C307.197 434.854 307.002 434.092 307.002 433.271ZM308.906 433.271C308.906 434.463 309.561 435.43 310.869 436.172C312.178 436.895 314.111 437.256 316.67 437.256C319.229 437.256 321.162 436.895 322.471 436.172C323.779 435.43 324.434 434.463 324.434 433.271C324.434 432.08 323.779 431.113 322.471 430.371C321.162 429.629 319.229 429.258 316.67 429.258C314.111 429.258 312.178 429.629 310.869 430.371C309.561 431.113 308.906 432.08 308.906 433.271ZM315.645 452.461V444.229H304.512V442.471H328.828V444.229H317.666V452.461H315.645Z" fill="#666666"/>
    <path d="M371.939 449.004C371.939 447.539 372.74 446.426 374.342 445.664C375.768 444.98 377.867 444.6 380.641 444.521V441.27H369.215V439.541H394.117V441.27H382.662V444.521C385.416 444.58 387.516 444.961 388.961 445.664C390.582 446.426 391.393 447.539 391.393 449.004C391.393 450.469 390.582 451.582 388.961 452.344C387.34 453.125 384.908 453.516 381.666 453.516C378.385 453.516 375.943 453.125 374.342 452.344C372.74 451.582 371.939 450.469 371.939 449.004ZM381.52 432.012C381.441 432.227 381.334 432.451 381.197 432.686C381.061 432.92 380.865 433.164 380.611 433.418C379.889 434.141 378.844 434.873 377.477 435.615C376.129 436.338 374.352 436.924 372.145 437.373L371.266 435.82C372.828 435.508 374.195 435.088 375.367 434.561C376.539 434.033 377.516 433.477 378.297 432.891C379.078 432.305 379.664 431.738 380.055 431.191C380.445 430.625 380.641 430.137 380.641 429.727V429.639H372.086V427.91H391.275V429.639H382.721V429.727C382.721 430.137 382.896 430.615 383.248 431.162C383.6 431.709 384.146 432.256 384.889 432.803C385.65 433.33 386.617 433.838 387.789 434.326C388.98 434.795 390.406 435.166 392.066 435.439L391.188 437.051C389.02 436.66 387.262 436.133 385.914 435.469C384.586 434.785 383.551 434.102 382.809 433.418C382.555 433.184 382.35 432.949 382.193 432.715C382.057 432.461 381.959 432.227 381.9 432.012H381.52ZM373.99 449.004C373.99 449.98 374.674 450.703 376.041 451.172C377.428 451.641 379.303 451.875 381.666 451.875C384.01 451.875 385.875 451.641 387.262 451.172C388.648 450.703 389.342 449.98 389.342 449.004C389.342 448.027 388.648 447.305 387.262 446.836C385.875 446.367 384.01 446.133 381.666 446.133C379.303 446.133 377.428 446.367 376.041 446.836C374.674 447.305 373.99 448.027 373.99 449.004ZM416.998 442.5V427.031H419.02V433.916H423.854V435.645H419.02V442.5H416.998ZM399.566 434.121C399.566 434.844 399.684 435.498 399.918 436.084C400.152 436.65 400.484 437.139 400.914 437.549C401.344 437.939 401.852 438.242 402.438 438.457C403.023 438.672 403.658 438.779 404.342 438.779C405.025 438.779 405.65 438.672 406.217 438.457C406.803 438.242 407.311 437.939 407.74 437.549C408.17 437.139 408.502 436.65 408.736 436.084C408.971 435.498 409.088 434.844 409.088 434.121C409.088 433.398 408.971 432.754 408.736 432.188C408.502 431.602 408.17 431.113 407.74 430.723C407.311 430.332 406.803 430.029 406.217 429.814C405.65 429.6 405.025 429.492 404.342 429.492C403.658 429.492 403.023 429.6 402.438 429.814C401.852 430.029 401.344 430.332 400.914 430.723C400.484 431.113 400.152 431.602 399.918 432.188C399.684 432.754 399.566 433.398 399.566 434.121ZM397.633 434.121C397.633 433.145 397.799 432.266 398.131 431.484C398.463 430.703 398.922 430.039 399.508 429.492C400.113 428.926 400.826 428.496 401.646 428.203C402.467 427.91 403.365 427.764 404.342 427.764C405.299 427.764 406.188 427.91 407.008 428.203C407.828 428.496 408.531 428.926 409.117 429.492C409.723 430.039 410.191 430.703 410.523 431.484C410.855 432.266 411.021 433.145 411.021 434.121C411.021 435.098 410.855 435.977 410.523 436.758C410.191 437.539 409.723 438.213 409.117 438.779C408.531 439.326 407.828 439.756 407.008 440.068C406.188 440.361 405.299 440.508 404.342 440.508C403.365 440.508 402.467 440.361 401.646 440.068C400.826 439.756 400.113 439.326 399.508 438.779C398.922 438.213 398.463 437.539 398.131 436.758C397.799 435.977 397.633 435.098 397.633 434.121ZM400.943 448.271C400.943 446.846 401.686 445.713 403.17 444.873C404.654 444.033 406.998 443.613 410.201 443.613C413.365 443.613 415.699 444.033 417.203 444.873C418.707 445.713 419.459 446.846 419.459 448.271C419.459 449.697 418.707 450.83 417.203 451.67C415.699 452.51 413.365 452.93 410.201 452.93C406.998 452.93 404.654 452.51 403.17 451.67C401.686 450.83 400.943 449.697 400.943 448.271ZM402.994 448.271C402.994 449.287 403.609 450.049 404.84 450.557C406.09 451.064 407.877 451.318 410.201 451.318C412.506 451.318 414.283 451.064 415.533 450.557C416.783 450.049 417.408 449.287 417.408 448.271C417.408 447.256 416.783 446.494 415.533 445.986C414.283 445.479 412.506 445.225 410.201 445.225C407.877 445.225 406.09 445.479 404.84 445.986C403.609 446.494 402.994 447.256 402.994 448.271Z" fill="#666666"/>
    <path d="M442.088 448.213C442.088 446.729 442.83 445.576 444.314 444.756C445.799 443.916 448.143 443.496 451.346 443.496C454.529 443.496 456.863 443.906 458.348 444.727C459.852 445.547 460.604 446.709 460.604 448.213C460.604 449.717 459.852 450.879 458.348 451.699C456.863 452.52 454.529 452.93 451.346 452.93C448.143 452.93 445.799 452.52 444.314 451.699C442.83 450.879 442.088 449.717 442.088 448.213ZM444.021 448.213C444.021 449.307 444.656 450.088 445.926 450.557C447.215 451.025 449.021 451.26 451.346 451.26C453.65 451.26 455.447 451.025 456.736 450.557C458.025 450.088 458.67 449.307 458.67 448.213C458.67 447.119 458.025 446.338 456.736 445.869C455.447 445.4 453.65 445.166 451.346 445.166C449.021 445.166 447.215 445.4 445.926 445.869C444.656 446.338 444.021 447.119 444.021 448.213ZM452.869 441.27C451.268 440.547 450.057 439.844 449.236 439.16C448.416 438.457 447.811 437.842 447.42 437.314C447.088 436.865 446.863 436.484 446.746 436.172C446.629 435.84 446.551 435.537 446.512 435.264H446.014C445.975 435.537 445.896 435.859 445.779 436.23C445.662 436.602 445.486 436.982 445.252 437.373C445.018 437.783 444.734 438.193 444.402 438.604C444.09 439.014 443.699 439.434 443.23 439.863C442.781 440.273 442.234 440.703 441.59 441.152C440.945 441.602 440.174 442.061 439.275 442.529L437.898 441.094C439.578 440.254 440.906 439.365 441.883 438.428C442.859 437.471 443.592 436.514 444.08 435.557C444.588 434.6 444.9 433.682 445.018 432.803C445.154 431.904 445.223 431.094 445.223 430.371V430.225H438.807V428.496H453.455V430.225H447.244V430.371C447.244 431.074 447.303 431.836 447.42 432.656C447.557 433.477 447.859 434.307 448.328 435.146C448.816 435.967 449.52 436.777 450.438 437.578C451.375 438.359 452.645 439.062 454.246 439.688L452.869 441.27ZM458.143 442.354V435.146H451.873V433.477H458.143V427.031H460.164V442.354H458.143ZM475.691 452.461V443.643H464.559V441.885H488.875V443.643H477.713V452.461H475.691ZM476.57 432.129C476.531 432.344 476.434 432.607 476.277 432.92C476.121 433.213 475.936 433.496 475.721 433.77C475.096 434.59 474.07 435.391 472.645 436.172C471.238 436.934 469.422 437.568 467.195 438.076L466.316 436.523C468.113 436.113 469.607 435.635 470.799 435.088C472.01 434.541 472.977 433.945 473.699 433.301C474.422 432.637 474.93 431.943 475.223 431.221C475.535 430.479 475.691 429.727 475.691 428.965V428.027H477.771V428.965C477.771 429.746 477.928 430.498 478.24 431.221C478.572 431.943 479.1 432.617 479.822 433.242C480.564 433.867 481.531 434.434 482.723 434.941C483.914 435.43 485.379 435.83 487.117 436.143L486.238 437.754C484.109 437.305 482.332 436.719 480.906 435.996C479.5 435.254 478.484 434.512 477.859 433.77C477.625 433.496 477.42 433.213 477.244 432.92C477.088 432.607 476.99 432.344 476.951 432.129H476.57ZM511.756 452.168V446.074C509.939 446.621 507.82 447.002 505.398 447.217C502.996 447.432 500.359 447.539 497.488 447.539H493.27V437.256H503.406V430.518H493.27V428.789H505.428V438.926H495.291V445.811H497.518C498.807 445.811 500.086 445.791 501.355 445.752C502.645 445.713 503.895 445.635 505.105 445.518C506.316 445.4 507.479 445.244 508.592 445.049C509.725 444.834 510.779 444.57 511.756 444.258V427.031H513.777V452.168H511.756Z" fill="#666666"/>
    <path d="M564.756 452.168V442.676C563.271 442.949 561.65 443.135 559.893 443.232C558.135 443.311 556.26 443.359 554.268 443.379C554.268 445.039 554.199 446.572 554.062 447.979C553.926 449.365 553.633 450.635 553.184 451.787L551.221 451.289C551.67 450.156 551.953 448.906 552.07 447.539C552.188 446.172 552.246 444.785 552.246 443.379H544.805V441.68H553.564C555.518 441.68 557.451 441.641 559.365 441.562C561.279 441.465 563.076 441.26 564.756 440.947V427.031H566.777V452.168H564.756ZM560.801 437.578C560.195 437.695 559.453 437.793 558.574 437.871C557.695 437.93 556.787 437.959 555.85 437.959H547.119V428.496H560.039V430.225H549.141V436.201H555.879C556.66 436.201 557.471 436.172 558.311 436.113C559.17 436.055 559.912 435.947 560.537 435.791L560.801 437.578Z" fill="#666666"/>
    <path d="M236.418 381.777C237.902 381.777 239.162 382.168 240.197 382.949C241.232 383.73 241.75 384.873 241.75 386.377C241.75 387.275 241.467 388.184 240.9 389.102C240.354 390 239.465 391.006 238.234 392.119C237.883 392.451 237.004 393.164 235.598 394.258C234.211 395.332 233.283 396.094 232.814 396.543H242.014V398.096H230.793V396.25C231.164 395.898 232.092 395.146 233.576 393.994C235.061 392.842 236.135 391.943 236.799 391.299C238.146 389.971 239.006 388.945 239.377 388.223C239.768 387.5 239.963 386.904 239.963 386.436C239.963 385.518 239.621 384.766 238.938 384.18C238.273 383.594 237.424 383.301 236.389 383.301C235.646 383.301 234.865 383.467 234.045 383.799C233.225 384.111 232.463 384.463 231.76 384.854L231.467 383.271C232.15 382.939 232.902 382.607 233.723 382.275C234.543 381.943 235.441 381.777 236.418 381.777ZM236.623 376.299C240.861 376.299 244.279 377.637 246.877 380.312C249.475 382.988 250.773 386.309 250.773 390.273C250.773 394.277 249.494 397.607 246.936 400.264C244.396 402.939 240.959 404.277 236.623 404.277C232.385 404.277 228.967 402.939 226.369 400.264C223.791 397.607 222.502 394.277 222.502 390.273C222.502 386.309 223.801 382.988 226.398 380.312C228.996 377.637 232.404 376.299 236.623 376.299ZM236.623 377.471C232.893 377.471 229.807 378.682 227.365 381.104C224.924 383.525 223.703 386.602 223.703 390.332C223.703 393.926 224.875 396.963 227.219 399.443C229.562 401.904 232.697 403.135 236.623 403.135C240.568 403.135 243.713 401.895 246.057 399.414C248.4 396.914 249.572 393.887 249.572 390.332C249.572 386.562 248.342 383.477 245.881 381.074C243.439 378.672 240.354 377.471 236.623 377.471Z" fill="#666666"/>
    <path d="M316.125 397.773C317.492 397.773 318.566 397.471 319.348 396.865C320.129 396.26 320.52 395.371 320.52 394.199C320.52 393.027 320.061 392.197 319.143 391.709C318.244 391.221 317.17 390.977 315.92 390.977H313.664V389.365H315.92C317.17 389.365 318.186 389.111 318.967 388.604C319.768 388.096 320.168 387.324 320.168 386.289C320.168 385.332 319.787 384.59 319.025 384.062C318.264 383.535 317.365 383.271 316.33 383.271C315.666 383.271 314.914 383.359 314.074 383.535C313.234 383.691 312.502 383.926 311.877 384.238L311.672 382.715C312.336 382.441 313.039 382.217 313.781 382.041C314.543 381.865 315.314 381.777 316.096 381.777C317.932 381.777 319.377 382.188 320.432 383.008C321.486 383.809 322.014 384.941 322.014 386.406C322.014 387.5 321.623 388.359 320.842 388.984C320.08 389.609 319.27 389.971 318.41 390.068V390.156C319.523 390.41 320.451 390.879 321.193 391.562C321.955 392.227 322.336 393.184 322.336 394.434C322.336 395.879 321.76 397.051 320.607 397.949C319.475 398.828 317.99 399.268 316.154 399.268C315.412 399.268 314.611 399.18 313.752 399.004C312.893 398.828 312.102 398.594 311.379 398.301L311.584 396.689C312.326 397.021 313.068 397.285 313.811 397.48C314.572 397.676 315.344 397.773 316.125 397.773ZM316.623 376.299C320.861 376.299 324.279 377.637 326.877 380.312C329.475 382.988 330.773 386.309 330.773 390.273C330.773 394.277 329.494 397.607 326.936 400.264C324.396 402.939 320.959 404.277 316.623 404.277C312.385 404.277 308.967 402.939 306.369 400.264C303.791 397.607 302.502 394.277 302.502 390.273C302.502 386.309 303.801 382.988 306.398 380.312C308.996 377.637 312.404 376.299 316.623 376.299ZM316.623 377.471C312.893 377.471 309.807 378.682 307.365 381.104C304.924 383.525 303.703 386.602 303.703 390.332C303.703 393.926 304.875 396.963 307.219 399.443C309.562 401.904 312.697 403.135 316.623 403.135C320.568 403.135 323.713 401.895 326.057 399.414C328.4 396.914 329.572 393.887 329.572 390.332C329.572 386.562 328.342 383.477 325.881 381.074C323.439 378.672 320.354 377.471 316.623 377.471Z" fill="#666666"/>
    <path d="M397.648 399.15V394.756H389.768V393.115L397.18 382.188H399.348V393.35H402.219V394.756H399.348V399.15H397.648ZM397.648 393.35V383.916L391.291 393.35H397.648ZM396.623 376.299C400.861 376.299 404.279 377.637 406.877 380.312C409.475 382.988 410.773 386.309 410.773 390.273C410.773 394.277 409.494 397.607 406.936 400.264C404.396 402.939 400.959 404.277 396.623 404.277C392.385 404.277 388.967 402.939 386.369 400.264C383.791 397.607 382.502 394.277 382.502 390.273C382.502 386.309 383.801 382.988 386.398 380.312C388.996 377.637 392.404 376.299 396.623 376.299ZM396.623 377.471C392.893 377.471 389.807 378.682 387.365 381.104C384.924 383.525 383.703 386.602 383.703 390.332C383.703 393.926 384.875 396.963 387.219 399.443C389.562 401.904 392.697 403.135 396.623 403.135C400.568 403.135 403.713 401.895 406.057 399.414C408.4 396.914 409.572 393.887 409.572 390.332C409.572 386.562 408.342 383.477 405.881 381.074C403.439 378.672 400.354 377.471 396.623 377.471Z" fill="#666666"/>
    <path d="M476.389 397.773C477.756 397.773 478.791 397.354 479.494 396.514C480.197 395.674 480.549 394.609 480.549 393.32C480.549 392.031 480.207 391.025 479.523 390.303C478.859 389.58 477.863 389.219 476.535 389.219C475.656 389.219 474.875 389.473 474.191 389.98C473.508 390.469 473.059 391.133 472.844 391.973H471.145L471.613 382.188H481.398V383.711H473.195L472.844 389.541L472.961 389.629C473.469 389.043 474.055 388.574 474.719 388.223C475.383 387.871 476.105 387.695 476.887 387.695C478.449 387.695 479.738 388.223 480.754 389.277C481.789 390.312 482.307 391.68 482.307 393.379C482.307 395.039 481.799 396.436 480.783 397.568C479.768 398.701 478.381 399.268 476.623 399.268C475.529 399.268 474.572 399.16 473.752 398.945C472.932 398.711 472.238 398.467 471.672 398.213L471.76 396.543C472.756 396.992 473.459 397.275 473.869 397.393C474.299 397.51 475.139 397.637 476.389 397.773ZM476.623 376.299C480.861 376.299 484.279 377.637 486.877 380.312C489.475 382.988 490.773 386.309 490.773 390.273C490.773 394.277 489.494 397.607 486.936 400.264C484.396 402.939 480.959 404.277 476.623 404.277C472.385 404.277 468.967 402.939 466.369 400.264C463.791 397.607 462.502 394.277 462.502 390.273C462.502 386.309 463.801 382.988 466.398 380.312C468.996 377.637 472.404 376.299 476.623 376.299ZM476.623 377.471C472.893 377.471 469.807 378.682 467.365 381.104C464.924 383.525 463.703 386.602 463.703 390.332C463.703 393.926 464.875 396.963 467.219 399.443C469.562 401.904 472.697 403.135 476.623 403.135C480.568 403.135 483.713 401.895 486.057 399.414C488.4 396.914 489.572 393.887 489.572 390.332C489.572 386.562 488.342 383.477 485.881 381.074C483.439 378.672 480.354 377.471 476.623 377.471Z" fill="#666666"/>
    <path d="M557.736 383.301C556.662 383.301 555.783 383.525 555.1 383.975C554.436 384.404 553.908 384.98 553.518 385.703C553.146 386.406 552.893 387.207 552.756 388.105C552.619 388.984 552.551 389.863 552.551 390.742H552.58C552.971 389.805 553.566 389.092 554.367 388.604C555.188 388.096 556.125 387.842 557.18 387.842C558.957 387.842 560.314 388.359 561.252 389.395C562.209 390.43 562.688 391.807 562.688 393.525C562.688 395.303 562.16 396.709 561.105 397.744C560.051 398.76 558.713 399.268 557.092 399.268C555.002 399.268 553.41 398.633 552.316 397.363C551.242 396.094 550.705 394.131 550.705 391.475C550.705 390.322 550.793 389.17 550.969 388.018C551.164 386.865 551.516 385.83 552.023 384.912C552.531 383.975 553.234 383.223 554.133 382.656C555.031 382.07 556.203 381.777 557.648 381.777C558.488 381.777 559.23 381.865 559.875 382.041C560.539 382.197 561.115 382.354 561.604 382.51L561.311 384.062C560.588 383.77 560.061 383.594 559.729 383.535C559.416 383.457 558.752 383.379 557.736 383.301ZM557.15 389.307C555.705 389.307 554.621 389.717 553.898 390.537C553.176 391.338 552.814 392.412 552.814 393.76C552.814 394.814 553.176 395.752 553.898 396.572C554.621 397.373 555.588 397.773 556.799 397.773C558.107 397.773 559.104 397.402 559.787 396.66C560.49 395.898 560.842 394.873 560.842 393.584C560.842 392.236 560.52 391.191 559.875 390.449C559.23 389.688 558.322 389.307 557.15 389.307ZM556.623 376.299C560.861 376.299 564.279 377.637 566.877 380.312C569.475 382.988 570.773 386.309 570.773 390.273C570.773 394.277 569.494 397.607 566.936 400.264C564.396 402.939 560.959 404.277 556.623 404.277C552.385 404.277 548.967 402.939 546.369 400.264C543.791 397.607 542.502 394.277 542.502 390.273C542.502 386.309 543.801 382.988 546.398 380.312C548.996 377.637 552.404 376.299 556.623 376.299ZM556.623 377.471C552.893 377.471 549.807 378.682 547.365 381.104C544.924 383.525 543.703 386.602 543.703 390.332C543.703 393.926 544.875 396.963 547.219 399.443C549.562 401.904 552.697 403.135 556.623 403.135C560.568 403.135 563.713 401.895 566.057 399.414C568.4 396.914 569.572 393.887 569.572 390.332C569.572 386.562 568.342 383.477 565.881 381.074C563.439 378.672 560.354 377.471 556.623 377.471Z" fill="#666666"/>
</svg>
