<svg width="1020" height="999" viewBox="0 0 1020 999" fill="none" xmlns="http://www.w3.org/2000/svg">
    <circle cx="550" cy="20" r="16" fill="#E66787"/>
    <path d="M609.727 34.8906V1.375H612.422V34.8906H609.727ZM584.297 27.3516V3.91406H601.133V27.3516H584.297ZM598.477 6.21875H586.953V25.0469H598.477V6.21875ZM639.609 34.3047V27.3516C637.812 27.7161 635.742 27.9766 633.398 28.1328C631.081 28.263 628.32 28.3281 625.117 28.3281H621.016V15.2031H631.797V6.41406H621.016V4.10938H634.492V17.4297H623.711V26.0234H625.156C628.229 26.0234 630.938 25.9583 633.281 25.8281C635.625 25.6719 637.734 25.3854 639.609 24.9688V1.76562H642.305V14.0703H647.617V1.375H650.312V34.8906H647.617V16.375H642.305V34.3047H639.609ZM693.516 34.8906V26.6875C691.224 27.1823 688.659 27.5208 685.82 27.7031C682.982 27.8594 679.922 27.9375 676.641 27.9375H667.891V25.6328H673.477C673.398 24.3047 673.32 22.8203 673.242 21.1797C673.164 19.513 673.086 17.8203 673.008 16.1016C672.956 14.3568 672.904 12.625 672.852 10.9062C672.826 9.16146 672.812 7.53385 672.812 6.02344H668.672V3.71875H688.906V6.02344H685.156C685.156 7.50781 685.13 9.10938 685.078 10.8281C685.052 12.5469 685 14.2656 684.922 15.9844C684.87 17.7031 684.805 19.3828 684.727 21.0234C684.648 22.6641 684.557 24.1484 684.453 25.4766C686.094 25.3984 687.669 25.2812 689.18 25.125C690.69 24.9427 692.135 24.6953 693.516 24.3828V1.375H696.211V34.8906H693.516ZM682.5 6.02344H675.469C675.469 7.35156 675.469 8.86198 675.469 10.5547C675.495 12.2474 675.521 13.9922 675.547 15.7891C675.599 17.5599 675.664 19.3047 675.742 21.0234C675.82 22.7161 675.911 24.2526 676.016 25.6328H676.68C677.565 25.6328 678.438 25.6328 679.297 25.6328C680.182 25.6328 681.068 25.6198 681.953 25.5938C682.057 24.2135 682.148 22.6641 682.227 20.9453C682.305 19.2266 682.357 17.4948 682.383 15.75C682.435 13.9792 682.461 12.2474 682.461 10.5547C682.487 8.86198 682.5 7.35156 682.5 6.02344ZM705.977 17.7031V2.74219H708.672V8.52344H727.891V2.74219H730.586V17.7031H705.977ZM716.914 35.2812V24.6953H702.07V22.3516H734.492V24.6953H719.609V35.2812H716.914ZM727.891 10.75H708.672V15.4766H727.891V10.75Z" fill="#333333"/>
    <circle cx="299" cy="20" r="16" fill="#D9D9D9"/>
    <path d="M333.258 18.7969C333.258 17 333.974 15.5807 335.406 14.5391C336.839 13.4974 339 12.9766 341.891 12.9766C344.781 12.9766 346.943 13.4974 348.375 14.5391C349.833 15.5807 350.562 17 350.562 18.7969C350.562 20.5938 349.833 22.013 348.375 23.0547C346.943 24.0964 344.781 24.6172 341.891 24.6172C339 24.6172 336.839 24.0964 335.406 23.0547C333.974 22.013 333.258 20.5938 333.258 18.7969ZM357.75 28.6406V21.375H351.578V19.1484H357.75V14.3438H351.578V12.1172H357.75V1.375H360.445V28.6406H357.75ZM335.68 18.7969C335.68 20.125 336.24 21.0885 337.359 21.6875C338.505 22.2604 340.016 22.5469 341.891 22.5469C343.766 22.5469 345.263 22.2604 346.383 21.6875C347.529 21.0885 348.102 20.125 348.102 18.7969C348.102 17.4688 347.529 16.5182 346.383 15.9453C345.263 15.3724 343.766 15.0859 341.891 15.0859C340.016 15.0859 338.505 15.3724 337.359 15.9453C336.24 16.5182 335.68 17.4688 335.68 18.7969ZM339.82 27.4688V33.2109H361.227V35.5156H337.125V27.4688H339.82ZM331.539 10.2031V8.01562H351.695V10.2031H331.539ZM335.758 1.53125C336.747 1.86979 337.763 2.10417 338.805 2.23438C339.846 2.36458 340.875 2.44271 341.891 2.46875C342.932 2.49479 343.961 2.49479 344.977 2.46875C346.018 2.44271 347.034 2.42969 348.023 2.42969V4.65625C346.93 4.68229 345.797 4.70833 344.625 4.73438C343.453 4.73438 342.294 4.70833 341.148 4.65625C340.029 4.60417 338.961 4.51302 337.945 4.38281C336.93 4.22656 336.031 4.00521 335.25 3.71875L335.758 1.53125ZM387.242 34.3047V1.76562H389.938V14.0703H394.859V1.375H397.555V34.8906H394.859V16.375H389.938V34.3047H387.242ZM383.18 27.4297C381.383 25.6068 380.016 23.9271 379.078 22.3906C378.141 20.8542 377.451 19.4089 377.008 18.0547C376.904 17.7682 376.786 17.4036 376.656 16.9609C376.552 16.4922 376.474 16.0365 376.422 15.5938H375.953C375.901 16.0365 375.81 16.4922 375.68 16.9609C375.576 17.4036 375.471 17.7682 375.367 18.0547C374.872 19.513 374.104 21.1146 373.062 22.8594C372.047 24.5781 370.589 26.375 368.688 28.25L366.695 26.6875C368.258 25.2031 369.56 23.6927 370.602 22.1562C371.643 20.6198 372.477 19.0703 373.102 17.5078C373.753 15.9453 374.208 14.3828 374.469 12.8203C374.755 11.2318 374.898 9.65625 374.898 8.09375V6.41406H367.711V4.10938H384.039V6.41406H377.477V7.70312C377.477 9.26562 377.594 10.8281 377.828 12.3906C378.062 13.9531 378.466 15.4896 379.039 17C379.612 18.5104 380.393 19.9948 381.383 21.4531C382.372 22.9115 383.609 24.3438 385.094 25.75L383.18 27.4297ZM440.758 34.8906V26.6875C438.466 27.1823 435.901 27.5208 433.062 27.7031C430.224 27.8594 427.164 27.9375 423.883 27.9375H415.133V25.6328H420.719C420.641 24.3047 420.562 22.8203 420.484 21.1797C420.406 19.513 420.328 17.8203 420.25 16.1016C420.198 14.3568 420.146 12.625 420.094 10.9062C420.068 9.16146 420.055 7.53385 420.055 6.02344H415.914V3.71875H436.148V6.02344H432.398C432.398 7.50781 432.372 9.10938 432.32 10.8281C432.294 12.5469 432.242 14.2656 432.164 15.9844C432.112 17.7031 432.047 19.3828 431.969 21.0234C431.891 22.6641 431.799 24.1484 431.695 25.4766C433.336 25.3984 434.911 25.2812 436.422 25.125C437.932 24.9427 439.378 24.6953 440.758 24.3828V1.375H443.453V34.8906H440.758ZM429.742 6.02344H422.711C422.711 7.35156 422.711 8.86198 422.711 10.5547C422.737 12.2474 422.763 13.9922 422.789 15.7891C422.841 17.5599 422.906 19.3047 422.984 21.0234C423.062 22.7161 423.154 24.2526 423.258 25.6328H423.922C424.807 25.6328 425.68 25.6328 426.539 25.6328C427.424 25.6328 428.31 25.6198 429.195 25.5938C429.299 24.2135 429.391 22.6641 429.469 20.9453C429.547 19.2266 429.599 17.4948 429.625 15.75C429.677 13.9792 429.703 12.2474 429.703 10.5547C429.729 8.86198 429.742 7.35156 429.742 6.02344ZM453.219 17.7031V2.74219H455.914V8.52344H475.133V2.74219H477.828V17.7031H453.219ZM464.156 35.2812V24.6953H449.312V22.3516H481.734V24.6953H466.852V35.2812H464.156ZM475.133 10.75H455.914V15.4766H475.133V10.75Z" fill="#333333"/>
    <line x1="90.5" y1="219" x2="90.5" y2="929" stroke="#666666"/>
    <line x1="1019" y1="220" x2="92" y2="220" stroke="#DDDDDD" stroke-width="2" stroke-linecap="round" stroke-dasharray="5 8"/>
    <line x1="1020" y1="928.5" x2="90" y2="928.5" stroke="#666666"/>
    <path d="M60.7812 914.25C59.9896 914.25 59.3125 914.406 58.75 914.719C58.2083 915.031 57.7396 915.458 57.3438 916C56.9688 916.521 56.6667 917.115 56.4375 917.781C56.2292 918.448 56.0625 919.135 55.9375 919.844C55.8125 920.531 55.7292 921.219 55.6875 921.906C55.6667 922.594 55.6562 923.208 55.6562 923.75C55.6562 924.583 55.6979 925.542 55.7812 926.625C55.8854 927.708 56.1042 928.74 56.4375 929.719C56.7917 930.698 57.3021 931.531 57.9688 932.219C58.6562 932.885 59.5938 933.219 60.7812 933.219C61.9479 933.219 62.875 932.885 63.5625 932.219C64.25 931.531 64.7604 930.698 65.0938 929.719C65.4479 928.74 65.6667 927.708 65.75 926.625C65.8542 925.542 65.9062 924.583 65.9062 923.75C65.9062 923.208 65.8854 922.594 65.8438 921.906C65.8229 921.219 65.75 920.531 65.625 919.844C65.5 919.135 65.3229 918.448 65.0938 917.781C64.8646 917.115 64.5625 916.521 64.1875 916C63.8125 915.458 63.3438 915.031 62.7812 914.719C62.2188 914.406 61.5521 914.25 60.7812 914.25ZM60.7812 912.375C62.2812 912.375 63.5104 912.708 64.4688 913.375C65.4271 914.021 66.1771 914.875 66.7188 915.938C67.2604 917 67.625 918.219 67.8125 919.594C68.0208 920.948 68.125 922.333 68.125 923.75C68.125 925.167 68.0208 926.552 67.8125 927.906C67.625 929.26 67.2604 930.479 66.7188 931.562C66.1771 932.646 65.4271 933.521 64.4688 934.188C63.5104 934.833 62.2812 935.156 60.7812 935.156C59.2604 935.156 58.0208 934.833 57.0625 934.188C56.1042 933.521 55.3542 932.646 54.8125 931.562C54.2708 930.479 53.8958 929.26 53.6875 927.906C53.5 926.552 53.4062 925.167 53.4062 923.75C53.4062 922.333 53.5 920.948 53.6875 919.594C53.8958 918.219 54.2708 917 54.8125 915.938C55.3542 914.875 56.1042 914.021 57.0625 913.375C58.0208 912.708 59.2604 912.375 60.7812 912.375Z" fill="#666666"/>
    <path d="M2.21875 207.062L7.28125 202.844H9.09375V225H7.0625V205.344L3.4375 208.5L2.21875 207.062ZM22.875 204.25C22.0833 204.25 21.4062 204.406 20.8438 204.719C20.3021 205.031 19.8333 205.458 19.4375 206C19.0625 206.521 18.7604 207.115 18.5312 207.781C18.3229 208.448 18.1562 209.135 18.0312 209.844C17.9062 210.531 17.8229 211.219 17.7812 211.906C17.7604 212.594 17.75 213.208 17.75 213.75C17.75 214.583 17.7917 215.542 17.875 216.625C17.9792 217.708 18.1979 218.74 18.5312 219.719C18.8854 220.698 19.3958 221.531 20.0625 222.219C20.75 222.885 21.6875 223.219 22.875 223.219C24.0417 223.219 24.9688 222.885 25.6562 222.219C26.3438 221.531 26.8542 220.698 27.1875 219.719C27.5417 218.74 27.7604 217.708 27.8438 216.625C27.9479 215.542 28 214.583 28 213.75C28 213.208 27.9792 212.594 27.9375 211.906C27.9167 211.219 27.8438 210.531 27.7188 209.844C27.5938 209.135 27.4167 208.448 27.1875 207.781C26.9583 207.115 26.6562 206.521 26.2812 206C25.9062 205.458 25.4375 205.031 24.875 204.719C24.3125 204.406 23.6458 204.25 22.875 204.25ZM22.875 202.375C24.375 202.375 25.6042 202.708 26.5625 203.375C27.5208 204.021 28.2708 204.875 28.8125 205.938C29.3542 207 29.7188 208.219 29.9062 209.594C30.1146 210.948 30.2188 212.333 30.2188 213.75C30.2188 215.167 30.1146 216.552 29.9062 217.906C29.7188 219.26 29.3542 220.479 28.8125 221.562C28.2708 222.646 27.5208 223.521 26.5625 224.188C25.6042 224.833 24.375 225.156 22.875 225.156C21.3542 225.156 20.1146 224.833 19.1562 224.188C18.1979 223.521 17.4479 222.646 16.9062 221.562C16.3646 220.479 15.9896 219.26 15.7812 217.906C15.5938 216.552 15.5 215.167 15.5 213.75C15.5 212.333 15.5938 210.948 15.7812 209.594C15.9896 208.219 16.3646 207 16.9062 205.938C17.4479 204.875 18.1979 204.021 19.1562 203.375C20.1146 202.708 21.3542 202.375 22.875 202.375ZM41.3438 204.25C40.5521 204.25 39.875 204.406 39.3125 204.719C38.7708 205.031 38.3021 205.458 37.9062 206C37.5312 206.521 37.2292 207.115 37 207.781C36.7917 208.448 36.625 209.135 36.5 209.844C36.375 210.531 36.2917 211.219 36.25 211.906C36.2292 212.594 36.2188 213.208 36.2188 213.75C36.2188 214.583 36.2604 215.542 36.3438 216.625C36.4479 217.708 36.6667 218.74 37 219.719C37.3542 220.698 37.8646 221.531 38.5312 222.219C39.2188 222.885 40.1562 223.219 41.3438 223.219C42.5104 223.219 43.4375 222.885 44.125 222.219C44.8125 221.531 45.3229 220.698 45.6562 219.719C46.0104 218.74 46.2292 217.708 46.3125 216.625C46.4167 215.542 46.4688 214.583 46.4688 213.75C46.4688 213.208 46.4479 212.594 46.4062 211.906C46.3854 211.219 46.3125 210.531 46.1875 209.844C46.0625 209.135 45.8854 208.448 45.6562 207.781C45.4271 207.115 45.125 206.521 44.75 206C44.375 205.458 43.9062 205.031 43.3438 204.719C42.7812 204.406 42.1146 204.25 41.3438 204.25ZM41.3438 202.375C42.8438 202.375 44.0729 202.708 45.0312 203.375C45.9896 204.021 46.7396 204.875 47.2812 205.938C47.8229 207 48.1875 208.219 48.375 209.594C48.5833 210.948 48.6875 212.333 48.6875 213.75C48.6875 215.167 48.5833 216.552 48.375 217.906C48.1875 219.26 47.8229 220.479 47.2812 221.562C46.7396 222.646 45.9896 223.521 45.0312 224.188C44.0729 224.833 42.8438 225.156 41.3438 225.156C39.8229 225.156 38.5833 224.833 37.625 224.188C36.6667 223.521 35.9167 222.646 35.375 221.562C34.8333 220.479 34.4583 219.26 34.25 217.906C34.0625 216.552 33.9688 215.167 33.9688 213.75C33.9688 212.333 34.0625 210.948 34.25 209.594C34.4583 208.219 34.8333 207 35.375 205.938C35.9167 204.875 36.6667 204.021 37.625 203.375C38.5833 202.708 39.8229 202.375 41.3438 202.375ZM56.4375 227.969V218.688H75.5625V227.969H56.4375ZM67.7812 215.688C66.0729 214.917 64.7812 214.167 63.9062 213.438C63.0312 212.688 62.3854 212.031 61.9688 211.469C61.6146 210.99 61.375 210.583 61.25 210.25C61.125 209.896 61.0417 209.573 61 209.281H60.4688C60.4271 209.573 60.3438 209.917 60.2188 210.312C60.0938 210.708 59.9062 211.115 59.6562 211.531C59.4062 211.969 59.1042 212.406 58.75 212.844C58.4167 213.281 58 213.729 57.5 214.188C57.0208 214.625 56.4375 215.083 55.75 215.562C55.0625 216.042 54.2396 216.531 53.2812 217.031L51.8125 215.5C53.6042 214.604 55.0208 213.656 56.0625 212.656C57.1042 211.635 57.8854 210.615 58.4062 209.594C58.9479 208.573 59.2812 207.594 59.4062 206.656C59.5521 205.698 59.625 204.833 59.625 204.062V203.906H52.7812V202.062H68.4062V203.906H61.7812V204.062C61.7812 204.812 61.8438 205.625 61.9688 206.5C62.1146 207.375 62.4375 208.26 62.9375 209.156C63.4583 210.031 64.2083 210.896 65.1875 211.75C66.1875 212.583 67.5417 213.333 69.25 214L67.7812 215.688ZM73.4062 220.531H58.5938V226.125H73.4062V220.531ZM73.4062 216.688V209.156H66.7188V207.375H73.4062V200.5H75.5625V216.688H73.4062Z" fill="#666666"/>
    <path d="M179.789 994.477H175.844V983.461H161.625V979.906H194.047V983.461H179.789V994.477ZM177.602 968.422C177.445 968.917 177.081 969.516 176.508 970.219C176.117 970.688 175.596 971.182 174.945 971.703C174.32 972.198 173.565 972.693 172.68 973.188C171.794 973.656 170.766 974.099 169.594 974.516C168.422 974.932 167.094 975.297 165.609 975.609L163.656 972.406C166.078 971.911 168.07 971.299 169.633 970.57C171.221 969.841 172.471 969.034 173.383 968.148C174.294 967.263 174.932 966.339 175.297 965.375C175.661 964.411 175.844 963.435 175.844 962.445V961.312H179.867V962.445C179.867 963.409 180.062 964.372 180.453 965.336C180.844 966.299 181.508 967.211 182.445 968.07C183.383 968.904 184.633 969.659 186.195 970.336C187.758 970.987 189.698 971.508 192.016 971.898L190.062 975.18C188.63 974.919 187.341 974.594 186.195 974.203C185.049 973.812 184.034 973.396 183.148 972.953C182.289 972.484 181.547 972.016 180.922 971.547C180.297 971.078 179.776 970.622 179.359 970.18C178.786 969.555 178.396 968.969 178.188 968.422H177.602ZM201.195 977.094V961.547H205.141V966.664H222.445V961.547H226.391V977.094H201.195ZM212.172 988.617V983.812H197.172V980.258H230.375V983.812H216.117V988.617H212.172ZM205.141 985.57V991.352H227.562V994.906H201.195V985.57H205.141ZM222.445 970.062H205.141V973.617H222.445V970.062Z" fill="#333333"/>
    <path d="M343.75 968.695C343.75 966.352 344.844 964.451 347.031 962.992C349.219 961.534 352.487 960.805 356.836 960.805C361.133 960.805 364.388 961.534 366.602 962.992C368.815 964.451 369.922 966.352 369.922 968.695C369.922 971.039 368.815 972.94 366.602 974.398C364.388 975.857 361.133 976.586 356.836 976.586C352.487 976.586 349.219 975.857 347.031 974.398C344.844 972.94 343.75 971.039 343.75 968.695ZM373.047 980.688V984.242H365.547L365.781 994.672H361.875L361.68 984.242H352.812C352.76 985.753 352.617 987.224 352.383 988.656C352.018 990.766 351.471 992.706 350.742 994.477L346.758 993.422C347.148 992.536 347.487 991.586 347.773 990.57C348.06 989.529 348.281 988.513 348.438 987.523C348.62 986.508 348.737 985.544 348.789 984.633C348.815 984.503 348.828 984.372 348.828 984.242H340.625V980.688H373.047ZM347.656 968.695C347.656 969.268 347.799 969.828 348.086 970.375C348.398 970.922 348.906 971.404 349.609 971.82C350.339 972.237 351.289 972.576 352.461 972.836C353.633 973.096 355.091 973.227 356.836 973.227C358.581 973.227 360.039 973.096 361.211 972.836C362.383 972.576 363.32 972.237 364.023 971.82C364.753 971.404 365.26 970.922 365.547 970.375C365.859 969.828 366.016 969.268 366.016 968.695C366.016 968.122 365.859 967.562 365.547 967.016C365.26 966.469 364.753 965.987 364.023 965.57C363.32 965.154 362.383 964.815 361.211 964.555C360.039 964.294 358.581 964.164 356.836 964.164C355.091 964.164 353.633 964.294 352.461 964.555C351.289 964.815 350.339 965.154 349.609 965.57C348.906 965.987 348.398 966.469 348.086 967.016C347.799 967.562 347.656 968.122 347.656 968.695ZM380.195 977.094V961.547H384.141V966.664H401.445V961.547H405.391V977.094H380.195ZM391.172 988.617V983.812H376.172V980.258H409.375V983.812H395.117V988.617H391.172ZM384.141 985.57V991.352H406.562V994.906H380.195V985.57H384.141ZM401.445 970.062H384.141V973.617H401.445V970.062Z" fill="#333333"/>
    <path d="M546.363 987.172V960.375H550.309V987.172H546.363ZM521.871 980.219V962.016H538.707V980.219H521.871ZM534.801 965.57H525.777V976.664H534.801V965.57ZM529.84 984.32V991.156H550.973V994.711H525.895V984.32H529.84ZM559.879 994.906V981.547H584.293V994.906H559.879ZM580.348 985.102H563.824V991.352H580.348V985.102ZM580.348 979.398V960.375H584.293V969.828H590.426V973.383H584.293V979.398H580.348ZM565.152 977.641C566.09 975.427 566.806 973.279 567.301 971.195C567.796 969.086 568.069 967.081 568.121 965.18H554.879V961.625H572.105C572.105 964.698 571.832 967.719 571.285 970.688C570.764 973.656 569.957 976.339 568.863 978.734L565.152 977.641Z" fill="#333333"/>
    <path d="M719.168 980.531V960.805H722.918V969.008H726.707V960.375H730.457V980.531H726.707V972.562H722.918V980.531H719.168ZM726.395 986.273H705.457V982.719H730.34V994.906H726.395V986.273ZM715.965 979.633C714.559 978.721 713.426 977.771 712.566 976.781C711.733 975.792 711.121 974.958 710.73 974.281C710.522 973.917 710.327 973.539 710.145 973.148C709.962 972.732 709.845 972.38 709.793 972.094H709.246C709.194 972.406 709.103 972.771 708.973 973.188C708.842 973.604 708.699 973.995 708.543 974.359C708.387 974.724 708.139 975.193 707.801 975.766C707.488 976.312 707.085 976.911 706.59 977.562C706.095 978.188 705.509 978.852 704.832 979.555C704.155 980.232 703.374 980.883 702.488 981.508L699.48 978.969C701.408 977.693 702.905 976.326 703.973 974.867C705.066 973.409 705.874 971.964 706.395 970.531C706.915 969.099 707.228 967.732 707.332 966.43C707.436 965.128 707.488 964.008 707.488 963.07V961.625H711.355V963.07C711.355 963.956 711.395 964.984 711.473 966.156C711.577 967.302 711.863 968.5 712.332 969.75C712.801 971 713.53 972.237 714.52 973.461C715.535 974.685 716.954 975.818 718.777 976.859L715.965 979.633ZM752.371 970.688C752.319 971.052 752.176 971.443 751.941 971.859C751.733 972.25 751.512 972.589 751.277 972.875C750.965 973.318 750.522 973.826 749.949 974.398C749.376 974.945 748.647 975.531 747.762 976.156C746.902 976.755 745.848 977.367 744.598 977.992C743.374 978.591 741.928 979.151 740.262 979.672L738.074 976.586C740.887 975.701 743.126 974.711 744.793 973.617C746.46 972.497 747.736 971.365 748.621 970.219C749.507 969.073 750.079 967.94 750.34 966.82C750.626 965.701 750.77 964.685 750.77 963.773V962.133H754.598V963.773C754.598 964.659 754.741 965.648 755.027 966.742C755.34 967.836 755.952 968.93 756.863 970.023C757.775 971.117 759.064 972.172 760.73 973.188C762.397 974.177 764.611 975.036 767.371 975.766L765.066 979.125C763.504 978.682 762.124 978.188 760.926 977.641C759.754 977.094 758.725 976.547 757.84 976C756.98 975.453 756.264 974.906 755.691 974.359C755.118 973.812 754.663 973.318 754.324 972.875C754.09 972.536 753.855 972.185 753.621 971.82C753.387 971.43 753.23 971.052 753.152 970.688H752.371ZM769.129 987.133V990.688H736.316V987.133H750.73V979.828H754.676V987.133H769.129Z" fill="#333333"/>
    <path d="M907.648 965.102H896.828C896.906 965.648 897.076 966.195 897.336 966.742C897.727 967.628 898.378 968.474 899.289 969.281C900.227 970.089 901.451 970.831 902.961 971.508C904.497 972.185 906.398 972.758 908.664 973.227L906.828 976.508C905.448 976.273 904.185 975.961 903.039 975.57C901.919 975.18 900.93 974.763 900.07 974.32C899.211 973.878 898.469 973.422 897.844 972.953C897.245 972.484 896.763 972.055 896.398 971.664C895.747 970.909 895.331 970.258 895.148 969.711H894.562C894.432 970.232 894.055 970.87 893.43 971.625C892.961 972.172 892.362 972.719 891.633 973.266C890.93 973.786 890.122 974.294 889.211 974.789C888.299 975.258 887.31 975.688 886.242 976.078C885.174 976.469 884.055 976.781 882.883 977.016L880.852 973.891C883.221 973.344 885.174 972.693 886.711 971.938C888.273 971.182 889.51 970.375 890.422 969.516C891.333 968.656 891.971 967.758 892.336 966.82C892.544 966.247 892.701 965.674 892.805 965.102H882.023V961.547H907.648V965.102ZM896.789 994.477H892.844V983.852H878.625V980.297H911.047V983.852H896.789V994.477ZM944.289 975.531C942.883 975.766 941.294 975.935 939.523 976.039C937.779 976.117 935.695 976.156 933.273 976.156H918.195V966.977H939.25V964.672H918.195V961.156H943.195V970.414H922.141V972.641H936.359C937.323 972.641 938.221 972.628 939.055 972.602C939.914 972.549 940.734 972.497 941.516 972.445C942.323 972.367 943.117 972.263 943.898 972.133L944.289 975.531ZM918.195 995.297V984.477H943.391V995.297H918.195ZM914.172 982.289V978.734H947.375V982.289H914.172ZM939.445 988.031H922.141V991.742H939.445V988.031Z" fill="#333333"/>
    <path d="M221.229 618.316V612.586H210.471V609.141L220.666 593.004H224.639V609.352H228.541V612.586H224.639V618.316H221.229ZM221.229 609.352V597.961L214.127 609.352H221.229ZM240.178 592.477C241.959 592.477 243.412 592.852 244.537 593.602C245.662 594.352 246.541 595.336 247.174 596.555C247.807 597.773 248.24 599.156 248.475 600.703C248.709 602.25 248.826 603.82 248.826 605.414C248.826 607.031 248.709 608.625 248.475 610.195C248.24 611.742 247.807 613.125 247.174 614.344C246.541 615.539 245.662 616.512 244.537 617.262C243.412 618.012 241.959 618.387 240.178 618.387C238.396 618.387 236.943 618.012 235.818 617.262C234.693 616.512 233.814 615.539 233.182 614.344C232.549 613.125 232.115 611.742 231.881 610.195C231.646 608.625 231.529 607.031 231.529 605.414C231.529 603.82 231.646 602.25 231.881 600.703C232.115 599.156 232.549 597.773 233.182 596.555C233.814 595.336 234.693 594.352 235.818 593.602C236.943 592.852 238.396 592.477 240.178 592.477ZM240.178 595.746C239.029 595.746 238.127 596.098 237.471 596.801C236.814 597.48 236.311 598.324 235.959 599.332C235.631 600.34 235.42 601.395 235.326 602.496C235.256 603.598 235.221 604.57 235.221 605.414C235.221 605.977 235.232 606.609 235.256 607.312C235.303 608.016 235.385 608.73 235.502 609.457C235.619 610.16 235.783 610.852 235.994 611.531C236.205 612.211 236.486 612.82 236.838 613.359C237.213 613.875 237.67 614.297 238.209 614.625C238.748 614.93 239.404 615.082 240.178 615.082C240.928 615.082 241.572 614.93 242.111 614.625C242.674 614.297 243.131 613.875 243.482 613.359C243.857 612.82 244.15 612.211 244.361 611.531C244.596 610.852 244.771 610.16 244.889 609.457C245.006 608.73 245.076 608.016 245.1 607.312C245.146 606.609 245.17 605.977 245.17 605.414C245.17 604.57 245.123 603.598 245.029 602.496C244.936 601.395 244.713 600.34 244.361 599.332C244.033 598.324 243.541 597.48 242.885 596.801C242.229 596.098 241.326 595.746 240.178 595.746Z" fill="#333333"/>
    <path d="M206 655C206 649.477 210.477 645 216 645H244C249.523 645 254 649.477 254 655V928H206V655Z" fill="#E66787"/>
    <path d="M152.227 702.547C153.234 702.547 154.184 702.676 155.074 702.934C155.988 703.191 156.785 703.59 157.465 704.129C158.145 704.645 158.684 705.312 159.082 706.133C159.48 706.93 159.68 707.867 159.68 708.945C159.68 709.93 159.457 710.938 159.012 711.969C158.59 713 158.016 714.043 157.289 715.098C156.586 716.129 155.777 717.16 154.863 718.191C153.973 719.199 153.059 720.172 152.121 721.109C151.207 722.023 150.305 722.891 149.414 723.711C148.547 724.508 147.797 725.211 147.164 725.82H160.031V728H144.352V725.504C144.891 725.012 145.582 724.379 146.426 723.605C147.27 722.809 148.16 721.93 149.098 720.969C150.059 719.984 151.02 718.953 151.98 717.875C152.941 716.797 153.809 715.73 154.582 714.676C155.355 713.621 155.977 712.613 156.445 711.652C156.938 710.691 157.184 709.836 157.184 709.086C157.184 708.359 157.043 707.727 156.762 707.188C156.504 706.625 156.141 706.156 155.672 705.781C155.227 705.406 154.699 705.125 154.09 704.938C153.48 704.75 152.836 704.656 152.156 704.656C151.125 704.656 150.047 704.879 148.922 705.324C147.797 705.746 146.742 706.238 145.758 706.801L145.336 704.516C146.25 704.07 147.281 703.637 148.43 703.215C149.602 702.77 150.867 702.547 152.227 702.547ZM174.516 728.316V722.199H163.547V719.914L173.777 703.039H176.871V720.23H180.879V722.199H176.871V728.316H174.516ZM174.516 720.23V705.5L165.656 720.23H174.516Z" fill="#666666"/>
    <path d="M138 765C138 759.477 142.477 755 148 755H176C181.523 755 186 759.477 186 765V928H138V765Z" fill="#D9D9D9"/>
    <path d="M409.518 861.477C410.572 861.477 411.568 861.605 412.506 861.863C413.467 862.121 414.299 862.531 415.002 863.094C415.729 863.656 416.303 864.371 416.725 865.238C417.146 866.105 417.357 867.137 417.357 868.332C417.357 869.27 417.17 870.219 416.795 871.18C416.42 872.117 415.916 873.055 415.283 873.992C414.65 874.93 413.936 875.855 413.139 876.77C412.342 877.684 411.521 878.562 410.678 879.406C409.834 880.227 409.002 881.012 408.182 881.762C407.385 882.488 406.658 883.156 406.002 883.766H417.709V887H401.291V883.801C401.807 883.332 402.475 882.734 403.295 882.008C404.115 881.281 404.982 880.473 405.896 879.582C406.834 878.691 407.76 877.766 408.674 876.805C409.611 875.82 410.455 874.836 411.205 873.852C411.955 872.867 412.564 871.918 413.033 871.004C413.502 870.066 413.736 869.211 413.736 868.438C413.736 867.148 413.326 866.223 412.506 865.66C411.686 865.074 410.666 864.781 409.447 864.781C408.463 864.781 407.385 865.004 406.213 865.449C405.064 865.871 403.928 866.387 402.803 866.996L402.135 863.516C403.119 863.023 404.244 862.566 405.51 862.145C406.799 861.699 408.135 861.477 409.518 861.477Z" fill="#333333"/>
    <path d="M385 924C385 918.477 389.477 914 395 914H423C428.523 914 433 918.477 433 924V928H385V924Z" fill="#E66787"/>
    <path d="M341.518 897.656C340.627 897.656 339.865 897.832 339.232 898.184C338.623 898.535 338.096 899.016 337.65 899.625C337.229 900.211 336.889 900.879 336.631 901.629C336.396 902.379 336.209 903.152 336.068 903.949C335.928 904.723 335.834 905.496 335.787 906.27C335.764 907.043 335.752 907.734 335.752 908.344C335.752 909.281 335.799 910.359 335.893 911.578C336.01 912.797 336.256 913.957 336.631 915.059C337.029 916.16 337.604 917.098 338.354 917.871C339.127 918.621 340.182 918.996 341.518 918.996C342.83 918.996 343.873 918.621 344.646 917.871C345.42 917.098 345.994 916.16 346.369 915.059C346.768 913.957 347.014 912.797 347.107 911.578C347.225 910.359 347.283 909.281 347.283 908.344C347.283 907.734 347.26 907.043 347.213 906.27C347.189 905.496 347.107 904.723 346.967 903.949C346.826 903.152 346.627 902.379 346.369 901.629C346.111 900.879 345.771 900.211 345.35 899.625C344.928 899.016 344.4 898.535 343.768 898.184C343.135 897.832 342.385 897.656 341.518 897.656ZM341.518 895.547C343.205 895.547 344.588 895.922 345.666 896.672C346.744 897.398 347.588 898.359 348.197 899.555C348.807 900.75 349.217 902.121 349.428 903.668C349.662 905.191 349.779 906.75 349.779 908.344C349.779 909.938 349.662 911.496 349.428 913.02C349.217 914.543 348.807 915.914 348.197 917.133C347.588 918.352 346.744 919.336 345.666 920.086C344.588 920.812 343.205 921.176 341.518 921.176C339.807 921.176 338.412 920.812 337.334 920.086C336.256 919.336 335.412 918.352 334.803 917.133C334.193 915.914 333.771 914.543 333.537 913.02C333.326 911.496 333.221 909.938 333.221 908.344C333.221 906.75 333.326 905.191 333.537 903.668C333.771 902.121 334.193 900.75 334.803 899.555C335.412 898.359 336.256 897.398 337.334 896.672C338.412 895.922 339.807 895.547 341.518 895.547Z" fill="#666666"/>
    <path d="M561.666 173.82L567.502 169.039H570.666V194H567.256V173.363L563.811 176.316L561.666 173.82ZM586.521 168.477C588.303 168.477 589.756 168.852 590.881 169.602C592.006 170.352 592.885 171.336 593.518 172.555C594.15 173.773 594.584 175.156 594.818 176.703C595.053 178.25 595.17 179.82 595.17 181.414C595.17 183.031 595.053 184.625 594.818 186.195C594.584 187.742 594.15 189.125 593.518 190.344C592.885 191.539 592.006 192.512 590.881 193.262C589.756 194.012 588.303 194.387 586.521 194.387C584.74 194.387 583.287 194.012 582.162 193.262C581.037 192.512 580.158 191.539 579.525 190.344C578.893 189.125 578.459 187.742 578.225 186.195C577.99 184.625 577.873 183.031 577.873 181.414C577.873 179.82 577.99 178.25 578.225 176.703C578.459 175.156 578.893 173.773 579.525 172.555C580.158 171.336 581.037 170.352 582.162 169.602C583.287 168.852 584.74 168.477 586.521 168.477ZM586.521 171.746C585.373 171.746 584.471 172.098 583.814 172.801C583.158 173.48 582.654 174.324 582.303 175.332C581.975 176.34 581.764 177.395 581.67 178.496C581.6 179.598 581.564 180.57 581.564 181.414C581.564 181.977 581.576 182.609 581.6 183.312C581.646 184.016 581.729 184.73 581.846 185.457C581.963 186.16 582.127 186.852 582.338 187.531C582.549 188.211 582.83 188.82 583.182 189.359C583.557 189.875 584.014 190.297 584.553 190.625C585.092 190.93 585.748 191.082 586.521 191.082C587.271 191.082 587.916 190.93 588.455 190.625C589.018 190.297 589.475 189.875 589.826 189.359C590.201 188.82 590.494 188.211 590.705 187.531C590.939 186.852 591.115 186.16 591.232 185.457C591.35 184.73 591.42 184.016 591.443 183.312C591.49 182.609 591.514 181.977 591.514 181.414C591.514 180.57 591.467 179.598 591.373 178.496C591.279 177.395 591.057 176.34 590.705 175.332C590.377 174.324 589.885 173.48 589.229 172.801C588.572 172.098 587.67 171.746 586.521 171.746ZM608.037 168.477C609.818 168.477 611.271 168.852 612.396 169.602C613.521 170.352 614.4 171.336 615.033 172.555C615.666 173.773 616.1 175.156 616.334 176.703C616.568 178.25 616.686 179.82 616.686 181.414C616.686 183.031 616.568 184.625 616.334 186.195C616.1 187.742 615.666 189.125 615.033 190.344C614.4 191.539 613.521 192.512 612.396 193.262C611.271 194.012 609.818 194.387 608.037 194.387C606.256 194.387 604.803 194.012 603.678 193.262C602.553 192.512 601.674 191.539 601.041 190.344C600.408 189.125 599.975 187.742 599.74 186.195C599.506 184.625 599.389 183.031 599.389 181.414C599.389 179.82 599.506 178.25 599.74 176.703C599.975 175.156 600.408 173.773 601.041 172.555C601.674 171.336 602.553 170.352 603.678 169.602C604.803 168.852 606.256 168.477 608.037 168.477ZM608.037 171.746C606.889 171.746 605.986 172.098 605.33 172.801C604.674 173.48 604.17 174.324 603.818 175.332C603.49 176.34 603.279 177.395 603.186 178.496C603.115 179.598 603.08 180.57 603.08 181.414C603.08 181.977 603.092 182.609 603.115 183.312C603.162 184.016 603.244 184.73 603.361 185.457C603.479 186.16 603.643 186.852 603.854 187.531C604.064 188.211 604.346 188.82 604.697 189.359C605.072 189.875 605.529 190.297 606.068 190.625C606.607 190.93 607.264 191.082 608.037 191.082C608.787 191.082 609.432 190.93 609.971 190.625C610.533 190.297 610.99 189.875 611.342 189.359C611.717 188.82 612.01 188.211 612.221 187.531C612.455 186.852 612.631 186.16 612.748 185.457C612.865 184.73 612.936 184.016 612.959 183.312C613.006 182.609 613.029 181.977 613.029 181.414C613.029 180.57 612.982 179.598 612.889 178.496C612.795 177.395 612.572 176.34 612.221 175.332C611.893 174.324 611.4 173.48 610.744 172.801C610.088 172.098 609.186 171.746 608.037 171.746Z" fill="#333333"/>
    <path d="M565 231C565 225.477 569.477 221 575 221H603C608.523 221 613 225.477 613 231V928H565V231Z" fill="#E66787"/>
    <path d="M495.537 173.82L501.232 169.074H503.271V194H500.986V171.887L496.908 175.438L495.537 173.82ZM518.775 170.656C517.885 170.656 517.123 170.832 516.49 171.184C515.881 171.535 515.354 172.016 514.908 172.625C514.486 173.211 514.146 173.879 513.889 174.629C513.654 175.379 513.467 176.152 513.326 176.949C513.186 177.723 513.092 178.496 513.045 179.27C513.021 180.043 513.01 180.734 513.01 181.344C513.01 182.281 513.057 183.359 513.15 184.578C513.268 185.797 513.514 186.957 513.889 188.059C514.287 189.16 514.861 190.098 515.611 190.871C516.385 191.621 517.439 191.996 518.775 191.996C520.088 191.996 521.131 191.621 521.904 190.871C522.678 190.098 523.252 189.16 523.627 188.059C524.025 186.957 524.271 185.797 524.365 184.578C524.482 183.359 524.541 182.281 524.541 181.344C524.541 180.734 524.518 180.043 524.471 179.27C524.447 178.496 524.365 177.723 524.225 176.949C524.084 176.152 523.885 175.379 523.627 174.629C523.369 173.879 523.029 173.211 522.607 172.625C522.186 172.016 521.658 171.535 521.025 171.184C520.393 170.832 519.643 170.656 518.775 170.656ZM518.775 168.547C520.463 168.547 521.846 168.922 522.924 169.672C524.002 170.398 524.846 171.359 525.455 172.555C526.064 173.75 526.475 175.121 526.686 176.668C526.92 178.191 527.037 179.75 527.037 181.344C527.037 182.938 526.92 184.496 526.686 186.02C526.475 187.543 526.064 188.914 525.455 190.133C524.846 191.352 524.002 192.336 522.924 193.086C521.846 193.812 520.463 194.176 518.775 194.176C517.064 194.176 515.67 193.812 514.592 193.086C513.514 192.336 512.67 191.352 512.061 190.133C511.451 188.914 511.029 187.543 510.795 186.02C510.584 184.496 510.479 182.938 510.479 181.344C510.479 179.75 510.584 178.191 510.795 176.668C511.029 175.121 511.451 173.75 512.061 172.555C512.67 171.359 513.514 170.398 514.592 169.672C515.67 168.922 517.064 168.547 518.775 168.547ZM539.553 170.656C538.662 170.656 537.9 170.832 537.268 171.184C536.658 171.535 536.131 172.016 535.686 172.625C535.264 173.211 534.924 173.879 534.666 174.629C534.432 175.379 534.244 176.152 534.104 176.949C533.963 177.723 533.869 178.496 533.822 179.27C533.799 180.043 533.787 180.734 533.787 181.344C533.787 182.281 533.834 183.359 533.928 184.578C534.045 185.797 534.291 186.957 534.666 188.059C535.064 189.16 535.639 190.098 536.389 190.871C537.162 191.621 538.217 191.996 539.553 191.996C540.865 191.996 541.908 191.621 542.682 190.871C543.455 190.098 544.029 189.16 544.404 188.059C544.803 186.957 545.049 185.797 545.143 184.578C545.26 183.359 545.318 182.281 545.318 181.344C545.318 180.734 545.295 180.043 545.248 179.27C545.225 178.496 545.143 177.723 545.002 176.949C544.861 176.152 544.662 175.379 544.404 174.629C544.146 173.879 543.807 173.211 543.385 172.625C542.963 172.016 542.436 171.535 541.803 171.184C541.17 170.832 540.42 170.656 539.553 170.656ZM539.553 168.547C541.24 168.547 542.623 168.922 543.701 169.672C544.779 170.398 545.623 171.359 546.232 172.555C546.842 173.75 547.252 175.121 547.463 176.668C547.697 178.191 547.814 179.75 547.814 181.344C547.814 182.938 547.697 184.496 547.463 186.02C547.252 187.543 546.842 188.914 546.232 190.133C545.623 191.352 544.779 192.336 543.701 193.086C542.623 193.812 541.24 194.176 539.553 194.176C537.842 194.176 536.447 193.812 535.369 193.086C534.291 192.336 533.447 191.352 532.838 190.133C532.229 188.914 531.807 187.543 531.572 186.02C531.361 184.496 531.256 182.938 531.256 181.344C531.256 179.75 531.361 178.191 531.572 176.668C531.807 175.121 532.229 173.75 532.838 172.555C533.447 171.359 534.291 170.398 535.369 169.672C536.447 168.922 537.842 168.547 539.553 168.547Z" fill="#666666"/>
    <path d="M497 231C497 225.477 501.477 221 507 221H535C540.523 221 545 225.477 545 231V928H497V231Z" fill="#D9D9D9"/>
    <path d="M756.459 192.746C754.912 192.746 753.729 193.191 752.908 194.082C752.088 194.973 751.678 196.191 751.678 197.738C751.678 199.145 752.076 200.293 752.873 201.184C753.693 202.074 754.842 202.52 756.318 202.52C757.865 202.52 759.107 202.098 760.045 201.254C761.006 200.387 761.486 199.203 761.486 197.703C761.486 196.977 761.357 196.309 761.1 195.699C760.865 195.09 760.525 194.562 760.08 194.117C759.635 193.672 759.096 193.332 758.463 193.098C757.854 192.863 757.186 192.746 756.459 192.746ZM761.662 203.152C760.982 204.09 760.162 204.758 759.201 205.156C758.264 205.555 757.197 205.754 756.002 205.754C754.807 205.754 753.717 205.555 752.732 205.156C751.771 204.758 750.939 204.195 750.236 203.469C749.533 202.742 748.982 201.898 748.584 200.938C748.209 199.953 748.021 198.875 748.021 197.703C748.021 196.484 748.221 195.371 748.619 194.363C749.018 193.332 749.58 192.465 750.307 191.762C751.033 191.035 751.9 190.473 752.908 190.074C753.939 189.676 755.088 189.477 756.354 189.477C758.205 189.477 759.717 189.805 760.889 190.461C762.084 191.117 763.021 192.008 763.701 193.133C764.381 194.234 764.85 195.512 765.107 196.965C765.389 198.418 765.529 199.93 765.529 201.5C765.529 203.258 765.342 204.98 764.967 206.668C764.615 208.332 764.018 209.82 763.174 211.133C762.354 212.445 761.264 213.5 759.904 214.297C758.568 215.094 756.916 215.492 754.947 215.492C754.455 215.492 753.939 215.457 753.4 215.387C752.861 215.34 752.334 215.258 751.818 215.141C751.326 215.047 750.857 214.941 750.412 214.824C749.967 214.684 749.592 214.543 749.287 214.402L749.85 211.062C750.131 211.203 750.494 211.355 750.939 211.52C751.385 211.66 751.865 211.789 752.381 211.906C752.92 212.023 753.471 212.117 754.033 212.188C754.619 212.234 755.182 212.234 755.721 212.188C756.799 212.117 757.701 211.789 758.428 211.203C759.154 210.594 759.74 209.855 760.186 208.988C760.654 208.098 761.006 207.137 761.24 206.105C761.475 205.074 761.639 204.09 761.732 203.152H761.662ZM774.213 208.004C774.213 208.777 774.354 209.434 774.635 209.973C774.939 210.512 775.326 210.945 775.795 211.273C776.287 211.602 776.838 211.848 777.447 212.012C778.08 212.152 778.736 212.223 779.416 212.223C780.072 212.223 780.717 212.152 781.35 212.012C781.982 211.848 782.545 211.602 783.037 211.273C783.529 210.945 783.928 210.512 784.232 209.973C784.537 209.434 784.689 208.777 784.689 208.004C784.689 207.254 784.537 206.609 784.232 206.07C783.928 205.508 783.529 205.051 783.037 204.699C782.545 204.348 781.982 204.09 781.35 203.926C780.717 203.738 780.072 203.645 779.416 203.645C778.736 203.645 778.08 203.738 777.447 203.926C776.838 204.09 776.287 204.348 775.795 204.699C775.326 205.051 774.939 205.508 774.635 206.07C774.354 206.609 774.213 207.254 774.213 208.004ZM774.67 196.367C774.67 197.633 775.092 198.617 775.936 199.32C776.779 200.023 777.939 200.375 779.416 200.375C780.822 200.375 781.971 200.023 782.861 199.32C783.752 198.617 784.197 197.633 784.197 196.367C784.197 195.664 784.057 195.066 783.775 194.574C783.518 194.082 783.154 193.695 782.686 193.414C782.24 193.109 781.725 192.887 781.139 192.746C780.576 192.605 780.002 192.535 779.416 192.535C778.807 192.535 778.221 192.605 777.658 192.746C777.096 192.887 776.592 193.109 776.146 193.414C775.701 193.695 775.338 194.082 775.057 194.574C774.799 195.066 774.67 195.664 774.67 196.367ZM775.197 201.922V201.852C774.072 201.453 773.135 200.773 772.385 199.812C771.635 198.852 771.26 197.703 771.26 196.367C771.26 195.148 771.494 194.105 771.963 193.238C772.432 192.371 773.041 191.656 773.791 191.094C774.564 190.531 775.432 190.121 776.393 189.863C777.377 189.605 778.385 189.477 779.416 189.477C780.447 189.477 781.455 189.605 782.439 189.863C783.424 190.121 784.291 190.531 785.041 191.094C785.814 191.656 786.436 192.371 786.904 193.238C787.373 194.105 787.607 195.148 787.607 196.367C787.607 197.703 787.221 198.852 786.447 199.812C785.674 200.773 784.713 201.453 783.564 201.852V201.922C784.197 202.156 784.807 202.449 785.393 202.801C785.979 203.152 786.482 203.574 786.904 204.066C787.35 204.559 787.701 205.133 787.959 205.789C788.24 206.422 788.381 207.148 788.381 207.969C788.381 209.352 788.111 210.523 787.572 211.484C787.057 212.422 786.365 213.195 785.498 213.805C784.654 214.414 783.693 214.848 782.615 215.105C781.561 215.387 780.494 215.527 779.416 215.527C778.338 215.527 777.271 215.387 776.217 215.105C775.162 214.848 774.213 214.426 773.369 213.84C772.525 213.23 771.834 212.457 771.295 211.52C770.779 210.559 770.521 209.387 770.521 208.004C770.521 207.207 770.65 206.48 770.908 205.824C771.166 205.168 771.506 204.594 771.928 204.102C772.373 203.609 772.877 203.188 773.439 202.836C774.002 202.461 774.588 202.156 775.197 201.922Z" fill="#333333"/>
    <path d="M744 252C744 246.477 748.477 242 754 242H782C787.523 242 792 246.477 792 252V928H744V252Z" fill="#E66787"/>
    <path d="M687.572 212.996C689.002 212.902 690.162 212.457 691.053 211.66C691.967 210.84 692.682 209.855 693.197 208.707C693.713 207.559 694.064 206.352 694.252 205.086C694.439 203.797 694.533 202.637 694.533 201.605H694.463C693.854 202.801 692.963 203.738 691.791 204.418C690.619 205.074 689.307 205.402 687.854 205.402C686.729 205.402 685.697 205.215 684.76 204.84C683.822 204.441 683.014 203.902 682.334 203.223C681.678 202.52 681.162 201.699 680.787 200.762C680.412 199.801 680.225 198.758 680.225 197.633C680.225 196.438 680.412 195.348 680.787 194.363C681.162 193.379 681.689 192.535 682.369 191.832C683.072 191.105 683.916 190.543 684.9 190.145C685.885 189.746 686.975 189.547 688.17 189.547C689.975 189.547 691.451 189.898 692.6 190.602C693.748 191.305 694.65 192.23 695.307 193.379C695.963 194.527 696.408 195.84 696.643 197.316C696.9 198.77 697.029 200.27 697.029 201.816C697.029 203.504 696.842 205.145 696.467 206.738C696.115 208.332 695.518 209.762 694.674 211.027C693.83 212.27 692.729 213.277 691.369 214.051C690.01 214.801 688.334 215.176 686.342 215.176C685.357 215.176 684.432 215.047 683.564 214.789C682.721 214.531 682.029 214.309 681.49 214.121L681.877 211.941C682.393 212.176 683.166 212.434 684.197 212.715C685.252 212.973 686.377 213.066 687.572 212.996ZM688.205 191.656C687.291 191.656 686.482 191.82 685.779 192.148C685.1 192.453 684.537 192.887 684.092 193.449C683.646 194.012 683.307 194.668 683.072 195.418C682.861 196.168 682.756 196.977 682.756 197.844C682.756 199.484 683.225 200.82 684.162 201.852C685.123 202.883 686.424 203.398 688.064 203.398C688.932 203.398 689.729 203.258 690.455 202.977C691.205 202.672 691.838 202.262 692.354 201.746C692.893 201.23 693.314 200.609 693.619 199.883C693.924 199.156 694.076 198.359 694.076 197.492C694.076 196.648 693.924 195.875 693.619 195.172C693.338 194.445 692.939 193.824 692.424 193.309C691.908 192.793 691.287 192.395 690.561 192.113C689.857 191.809 689.072 191.656 688.205 191.656ZM705.115 196.191C705.115 197.762 705.619 198.945 706.627 199.742C707.658 200.516 708.971 200.902 710.564 200.902C712.158 200.902 713.471 200.516 714.502 199.742C715.533 198.945 716.049 197.762 716.049 196.191C716.049 195.348 715.885 194.633 715.557 194.047C715.229 193.461 714.807 192.98 714.291 192.605C713.775 192.207 713.189 191.926 712.533 191.762C711.877 191.574 711.221 191.48 710.564 191.48C709.908 191.48 709.252 191.574 708.596 191.762C707.939 191.926 707.354 192.207 706.838 192.605C706.322 192.98 705.9 193.461 705.572 194.047C705.268 194.633 705.115 195.348 705.115 196.191ZM704.518 208.285C704.518 209.176 704.682 209.949 705.01 210.605C705.361 211.238 705.818 211.766 706.381 212.188C706.943 212.586 707.588 212.879 708.314 213.066C709.041 213.254 709.791 213.348 710.564 213.348C711.338 213.348 712.088 213.254 712.814 213.066C713.541 212.879 714.186 212.586 714.748 212.188C715.311 211.766 715.756 211.238 716.084 210.605C716.436 209.949 716.611 209.176 716.611 208.285C716.611 207.418 716.436 206.656 716.084 206C715.756 205.344 715.311 204.805 714.748 204.383C714.186 203.938 713.541 203.609 712.814 203.398C712.088 203.188 711.338 203.082 710.564 203.082C709.791 203.082 709.041 203.188 708.314 203.398C707.588 203.609 706.943 203.938 706.381 204.383C705.818 204.805 705.361 205.344 705.01 206C704.682 206.656 704.518 207.418 704.518 208.285ZM713.588 202.027C715.275 202.473 716.623 203.211 717.631 204.242C718.639 205.273 719.143 206.621 719.143 208.285C719.143 209.551 718.885 210.641 718.369 211.555C717.877 212.469 717.221 213.219 716.4 213.805C715.604 214.367 714.689 214.789 713.658 215.07C712.65 215.352 711.619 215.492 710.564 215.492C709.533 215.492 708.502 215.352 707.471 215.07C706.463 214.789 705.549 214.367 704.729 213.805C703.932 213.219 703.275 212.469 702.76 211.555C702.268 210.641 702.021 209.551 702.021 208.285C702.021 206.668 702.525 205.332 703.533 204.277C704.564 203.223 705.924 202.473 707.611 202.027V201.957C706.932 201.793 706.287 201.547 705.678 201.219C705.092 200.867 704.576 200.445 704.131 199.953C703.709 199.461 703.369 198.898 703.111 198.266C702.877 197.633 702.76 196.941 702.76 196.191C702.76 195.043 702.982 194.059 703.428 193.238C703.896 192.395 704.494 191.703 705.221 191.164C705.971 190.602 706.803 190.191 707.717 189.934C708.654 189.676 709.604 189.547 710.564 189.547C711.525 189.547 712.475 189.676 713.412 189.934C714.35 190.191 715.182 190.602 715.908 191.164C716.658 191.703 717.256 192.395 717.701 193.238C718.17 194.059 718.404 195.043 718.404 196.191C718.404 197.738 717.947 199.004 717.033 199.988C716.119 200.973 714.971 201.629 713.588 201.957V202.027Z" fill="#666666"/>
    <path d="M676 252C676 246.477 680.477 242 686 242H714C719.523 242 724 246.477 724 252V928H676V252Z" fill="#D9D9D9"/>
    <path d="M933.912 439.234C934.592 438.461 935.354 437.922 936.197 437.617C937.064 437.312 937.932 437.16 938.799 437.16C940.018 437.16 941.096 437.395 942.033 437.863C942.994 438.309 943.791 438.93 944.424 439.727C945.057 440.523 945.537 441.449 945.865 442.504C946.193 443.535 946.357 444.637 946.357 445.809C946.357 447.051 946.17 448.199 945.795 449.254C945.42 450.309 944.881 451.223 944.178 451.996C943.475 452.77 942.607 453.379 941.576 453.824C940.545 454.27 939.373 454.492 938.061 454.492C936.467 454.492 935.072 454.375 933.877 454.141C932.705 453.906 931.662 453.602 930.748 453.227L930.889 449.676C931.85 450.168 932.939 450.555 934.158 450.836C935.377 451.094 936.549 451.223 937.674 451.223C938.541 451.223 939.291 451.082 939.924 450.801C940.557 450.52 941.072 450.133 941.471 449.641C941.893 449.125 942.197 448.539 942.385 447.883C942.596 447.203 942.701 446.477 942.701 445.703C942.701 444.039 942.338 442.75 941.611 441.836C940.885 440.898 939.736 440.43 938.166 440.43C937.182 440.43 936.256 440.688 935.389 441.203C934.545 441.695 933.936 442.527 933.561 443.699H930.08L930.643 429.039H945.092V432.273H934.053L933.842 439.129L933.912 439.234ZM965.975 429.039V432.133L956.412 454H952.58L962.213 432.344H949.346V429.039H965.975Z" fill="#333333"/>
    <path d="M923 491C923 485.477 927.477 481 933 481H961C966.523 481 971 485.477 971 491V928H923V491Z" fill="#E66787"/>
    <path d="M863.627 318.191C863.627 319.762 864.131 320.945 865.139 321.742C866.17 322.516 867.482 322.902 869.076 322.902C870.67 322.902 871.982 322.516 873.014 321.742C874.045 320.945 874.561 319.762 874.561 318.191C874.561 317.348 874.396 316.633 874.068 316.047C873.74 315.461 873.318 314.98 872.803 314.605C872.287 314.207 871.701 313.926 871.045 313.762C870.389 313.574 869.732 313.48 869.076 313.48C868.42 313.48 867.764 313.574 867.107 313.762C866.451 313.926 865.865 314.207 865.35 314.605C864.834 314.98 864.412 315.461 864.084 316.047C863.779 316.633 863.627 317.348 863.627 318.191ZM863.029 330.285C863.029 331.176 863.193 331.949 863.521 332.605C863.873 333.238 864.33 333.766 864.893 334.188C865.455 334.586 866.1 334.879 866.826 335.066C867.553 335.254 868.303 335.348 869.076 335.348C869.85 335.348 870.6 335.254 871.326 335.066C872.053 334.879 872.697 334.586 873.26 334.188C873.822 333.766 874.268 333.238 874.596 332.605C874.947 331.949 875.123 331.176 875.123 330.285C875.123 329.418 874.947 328.656 874.596 328C874.268 327.344 873.822 326.805 873.26 326.383C872.697 325.938 872.053 325.609 871.326 325.398C870.6 325.188 869.85 325.082 869.076 325.082C868.303 325.082 867.553 325.188 866.826 325.398C866.1 325.609 865.455 325.938 864.893 326.383C864.33 326.805 863.873 327.344 863.521 328C863.193 328.656 863.029 329.418 863.029 330.285ZM872.1 324.027C873.787 324.473 875.135 325.211 876.143 326.242C877.15 327.273 877.654 328.621 877.654 330.285C877.654 331.551 877.396 332.641 876.881 333.555C876.389 334.469 875.732 335.219 874.912 335.805C874.115 336.367 873.201 336.789 872.17 337.07C871.162 337.352 870.131 337.492 869.076 337.492C868.045 337.492 867.014 337.352 865.982 337.07C864.975 336.789 864.061 336.367 863.24 335.805C862.443 335.219 861.787 334.469 861.271 333.555C860.779 332.641 860.533 331.551 860.533 330.285C860.533 328.668 861.037 327.332 862.045 326.277C863.076 325.223 864.436 324.473 866.123 324.027V323.957C865.443 323.793 864.799 323.547 864.189 323.219C863.604 322.867 863.088 322.445 862.643 321.953C862.221 321.461 861.881 320.898 861.623 320.266C861.389 319.633 861.271 318.941 861.271 318.191C861.271 317.043 861.494 316.059 861.939 315.238C862.408 314.395 863.006 313.703 863.732 313.164C864.482 312.602 865.314 312.191 866.229 311.934C867.166 311.676 868.115 311.547 869.076 311.547C870.037 311.547 870.986 311.676 871.924 311.934C872.861 312.191 873.693 312.602 874.42 313.164C875.17 313.703 875.768 314.395 876.213 315.238C876.682 316.059 876.916 317.043 876.916 318.191C876.916 319.738 876.459 321.004 875.545 321.988C874.631 322.973 873.482 323.629 872.1 323.957V324.027ZM890.451 313.656C889.561 313.656 888.799 313.832 888.166 314.184C887.557 314.535 887.029 315.016 886.584 315.625C886.162 316.211 885.822 316.879 885.564 317.629C885.33 318.379 885.143 319.152 885.002 319.949C884.861 320.723 884.768 321.496 884.721 322.27C884.697 323.043 884.686 323.734 884.686 324.344C884.686 325.281 884.732 326.359 884.826 327.578C884.943 328.797 885.189 329.957 885.564 331.059C885.963 332.16 886.537 333.098 887.287 333.871C888.061 334.621 889.115 334.996 890.451 334.996C891.764 334.996 892.807 334.621 893.58 333.871C894.354 333.098 894.928 332.16 895.303 331.059C895.701 329.957 895.947 328.797 896.041 327.578C896.158 326.359 896.217 325.281 896.217 324.344C896.217 323.734 896.193 323.043 896.146 322.27C896.123 321.496 896.041 320.723 895.9 319.949C895.76 319.152 895.561 318.379 895.303 317.629C895.045 316.879 894.705 316.211 894.283 315.625C893.861 315.016 893.334 314.535 892.701 314.184C892.068 313.832 891.318 313.656 890.451 313.656ZM890.451 311.547C892.139 311.547 893.521 311.922 894.6 312.672C895.678 313.398 896.521 314.359 897.131 315.555C897.74 316.75 898.15 318.121 898.361 319.668C898.596 321.191 898.713 322.75 898.713 324.344C898.713 325.938 898.596 327.496 898.361 329.02C898.15 330.543 897.74 331.914 897.131 333.133C896.521 334.352 895.678 335.336 894.6 336.086C893.521 336.812 892.139 337.176 890.451 337.176C888.74 337.176 887.346 336.812 886.268 336.086C885.189 335.336 884.346 334.352 883.736 333.133C883.127 331.914 882.705 330.543 882.471 329.02C882.26 327.496 882.154 325.938 882.154 324.344C882.154 322.75 882.26 321.191 882.471 319.668C882.705 318.121 883.127 316.75 883.736 315.555C884.346 314.359 885.189 313.398 886.268 312.672C887.346 311.922 888.74 311.547 890.451 311.547Z" fill="#666666"/>
    <path d="M855 374C855 368.477 859.477 364 865 364H893C898.523 364 903 368.477 903 374V928H855V374Z" fill="#D9D9D9"/>
</svg>
