<svg width="970" height="1008" viewBox="0 0 970 1008" fill="none" xmlns="http://www.w3.org/2000/svg">
    <circle cx="525" cy="20" r="16" fill="#E66787"/>
    <path d="M584.727 34.8906V1.375H587.422V34.8906H584.727ZM559.297 27.3516V3.91406H576.133V27.3516H559.297ZM573.477 6.21875H561.953V25.0469H573.477V6.21875ZM614.609 34.3047V27.3516C612.812 27.7161 610.742 27.9766 608.398 28.1328C606.081 28.263 603.32 28.3281 600.117 28.3281H596.016V15.2031H606.797V6.41406H596.016V4.10938H609.492V17.4297H598.711V26.0234H600.156C603.229 26.0234 605.938 25.9583 608.281 25.8281C610.625 25.6719 612.734 25.3854 614.609 24.9688V1.76562H617.305V14.0703H622.617V1.375H625.312V34.8906H622.617V16.375H617.305V34.3047H614.609ZM668.516 34.8906V26.6875C666.224 27.1823 663.659 27.5208 660.82 27.7031C657.982 27.8594 654.922 27.9375 651.641 27.9375H642.891V25.6328H648.477C648.398 24.3047 648.32 22.8203 648.242 21.1797C648.164 19.513 648.086 17.8203 648.008 16.1016C647.956 14.3568 647.904 12.625 647.852 10.9062C647.826 9.16146 647.812 7.53385 647.812 6.02344H643.672V3.71875H663.906V6.02344H660.156C660.156 7.50781 660.13 9.10938 660.078 10.8281C660.052 12.5469 660 14.2656 659.922 15.9844C659.87 17.7031 659.805 19.3828 659.727 21.0234C659.648 22.6641 659.557 24.1484 659.453 25.4766C661.094 25.3984 662.669 25.2812 664.18 25.125C665.69 24.9427 667.135 24.6953 668.516 24.3828V1.375H671.211V34.8906H668.516ZM657.5 6.02344H650.469C650.469 7.35156 650.469 8.86198 650.469 10.5547C650.495 12.2474 650.521 13.9922 650.547 15.7891C650.599 17.5599 650.664 19.3047 650.742 21.0234C650.82 22.7161 650.911 24.2526 651.016 25.6328H651.68C652.565 25.6328 653.438 25.6328 654.297 25.6328C655.182 25.6328 656.068 25.6198 656.953 25.5938C657.057 24.2135 657.148 22.6641 657.227 20.9453C657.305 19.2266 657.357 17.4948 657.383 15.75C657.435 13.9792 657.461 12.2474 657.461 10.5547C657.487 8.86198 657.5 7.35156 657.5 6.02344ZM680.977 17.7031V2.74219H683.672V8.52344H702.891V2.74219H705.586V17.7031H680.977ZM691.914 35.2812V24.6953H677.07V22.3516H709.492V24.6953H694.609V35.2812H691.914ZM702.891 10.75H683.672V15.4766H702.891V10.75Z" fill="#333333"/>
    <circle cx="274" cy="20" r="16" fill="#D9D9D9"/>
    <path d="M308.258 18.7969C308.258 17 308.974 15.5807 310.406 14.5391C311.839 13.4974 314 12.9766 316.891 12.9766C319.781 12.9766 321.943 13.4974 323.375 14.5391C324.833 15.5807 325.562 17 325.562 18.7969C325.562 20.5938 324.833 22.013 323.375 23.0547C321.943 24.0964 319.781 24.6172 316.891 24.6172C314 24.6172 311.839 24.0964 310.406 23.0547C308.974 22.013 308.258 20.5938 308.258 18.7969ZM332.75 28.6406V21.375H326.578V19.1484H332.75V14.3438H326.578V12.1172H332.75V1.375H335.445V28.6406H332.75ZM310.68 18.7969C310.68 20.125 311.24 21.0885 312.359 21.6875C313.505 22.2604 315.016 22.5469 316.891 22.5469C318.766 22.5469 320.263 22.2604 321.383 21.6875C322.529 21.0885 323.102 20.125 323.102 18.7969C323.102 17.4688 322.529 16.5182 321.383 15.9453C320.263 15.3724 318.766 15.0859 316.891 15.0859C315.016 15.0859 313.505 15.3724 312.359 15.9453C311.24 16.5182 310.68 17.4688 310.68 18.7969ZM314.82 27.4688V33.2109H336.227V35.5156H312.125V27.4688H314.82ZM306.539 10.2031V8.01562H326.695V10.2031H306.539ZM310.758 1.53125C311.747 1.86979 312.763 2.10417 313.805 2.23438C314.846 2.36458 315.875 2.44271 316.891 2.46875C317.932 2.49479 318.961 2.49479 319.977 2.46875C321.018 2.44271 322.034 2.42969 323.023 2.42969V4.65625C321.93 4.68229 320.797 4.70833 319.625 4.73438C318.453 4.73438 317.294 4.70833 316.148 4.65625C315.029 4.60417 313.961 4.51302 312.945 4.38281C311.93 4.22656 311.031 4.00521 310.25 3.71875L310.758 1.53125ZM362.242 34.3047V1.76562H364.938V14.0703H369.859V1.375H372.555V34.8906H369.859V16.375H364.938V34.3047H362.242ZM358.18 27.4297C356.383 25.6068 355.016 23.9271 354.078 22.3906C353.141 20.8542 352.451 19.4089 352.008 18.0547C351.904 17.7682 351.786 17.4036 351.656 16.9609C351.552 16.4922 351.474 16.0365 351.422 15.5938H350.953C350.901 16.0365 350.81 16.4922 350.68 16.9609C350.576 17.4036 350.471 17.7682 350.367 18.0547C349.872 19.513 349.104 21.1146 348.062 22.8594C347.047 24.5781 345.589 26.375 343.688 28.25L341.695 26.6875C343.258 25.2031 344.56 23.6927 345.602 22.1562C346.643 20.6198 347.477 19.0703 348.102 17.5078C348.753 15.9453 349.208 14.3828 349.469 12.8203C349.755 11.2318 349.898 9.65625 349.898 8.09375V6.41406H342.711V4.10938H359.039V6.41406H352.477V7.70312C352.477 9.26562 352.594 10.8281 352.828 12.3906C353.062 13.9531 353.466 15.4896 354.039 17C354.612 18.5104 355.393 19.9948 356.383 21.4531C357.372 22.9115 358.609 24.3438 360.094 25.75L358.18 27.4297ZM415.758 34.8906V26.6875C413.466 27.1823 410.901 27.5208 408.062 27.7031C405.224 27.8594 402.164 27.9375 398.883 27.9375H390.133V25.6328H395.719C395.641 24.3047 395.562 22.8203 395.484 21.1797C395.406 19.513 395.328 17.8203 395.25 16.1016C395.198 14.3568 395.146 12.625 395.094 10.9062C395.068 9.16146 395.055 7.53385 395.055 6.02344H390.914V3.71875H411.148V6.02344H407.398C407.398 7.50781 407.372 9.10938 407.32 10.8281C407.294 12.5469 407.242 14.2656 407.164 15.9844C407.112 17.7031 407.047 19.3828 406.969 21.0234C406.891 22.6641 406.799 24.1484 406.695 25.4766C408.336 25.3984 409.911 25.2812 411.422 25.125C412.932 24.9427 414.378 24.6953 415.758 24.3828V1.375H418.453V34.8906H415.758ZM404.742 6.02344H397.711C397.711 7.35156 397.711 8.86198 397.711 10.5547C397.737 12.2474 397.763 13.9922 397.789 15.7891C397.841 17.5599 397.906 19.3047 397.984 21.0234C398.062 22.7161 398.154 24.2526 398.258 25.6328H398.922C399.807 25.6328 400.68 25.6328 401.539 25.6328C402.424 25.6328 403.31 25.6198 404.195 25.5938C404.299 24.2135 404.391 22.6641 404.469 20.9453C404.547 19.2266 404.599 17.4948 404.625 15.75C404.677 13.9792 404.703 12.2474 404.703 10.5547C404.729 8.86198 404.742 7.35156 404.742 6.02344ZM428.219 17.7031V2.74219H430.914V8.52344H450.133V2.74219H452.828V17.7031H428.219ZM439.156 35.2812V24.6953H424.312V22.3516H456.734V24.6953H441.852V35.2812H439.156ZM450.133 10.75H430.914V15.4766H450.133V10.75Z" fill="#333333"/>
    <path d="M858.177 489.747L485 218.618L111.823 489.747L254.364 928.444H715.636L858.177 489.747Z" fill="white" stroke="#999999"/>
    <path d="M792.555 511.069L485 287.618L177.445 511.069L294.921 872.622H675.079L792.555 511.069Z" fill="white" stroke="#DDDDDD"/>
    <path d="M731.687 530.847L485 351.618L238.313 530.847L332.539 820.844H637.461L731.687 530.847Z" fill="white" stroke="#DDDDDD"/>
    <path d="M668.917 551.242L485 417.618L301.083 551.242L371.333 767.449H598.667L668.917 551.242Z" fill="white" stroke="#DDDDDD"/>
    <path d="M599.49 573.8L485 490.618L370.51 573.8L414.241 708.391H555.759L599.49 573.8Z" fill="white" stroke="#DDDDDD"/>
    <path d="M535.769 594.504L485 557.618L434.231 594.504L453.623 654.187H516.377L535.769 594.504Z" fill="white" stroke="#DDDDDD"/>
    <path d="M485 615L485 219" stroke="#999999" stroke-linecap="round"/>
    <path d="M485 615L112 490" stroke="#999999" stroke-linecap="round"/>
    <path d="M715 928L485 615" stroke="#999999" stroke-linecap="round"/>
    <path d="M255 928L485 615" stroke="#999999" stroke-linecap="round"/>
    <path d="M485 615L858 490" stroke="#999999" stroke-linecap="round"/>
    <path d="M439.32 540.789C440.16 540.789 440.951 540.896 441.693 541.111C442.455 541.326 443.119 541.658 443.686 542.107C444.252 542.537 444.701 543.094 445.033 543.777C445.365 544.441 445.531 545.223 445.531 546.121C445.531 546.941 445.346 547.781 444.975 548.641C444.623 549.5 444.145 550.369 443.539 551.248C442.953 552.107 442.279 552.967 441.518 553.826C440.775 554.666 440.014 555.477 439.232 556.258C438.471 557.02 437.719 557.742 436.977 558.426C436.254 559.09 435.629 559.676 435.102 560.184H445.824V562H432.758V559.92C433.207 559.51 433.783 558.982 434.486 558.338C435.189 557.674 435.932 556.941 436.713 556.141C437.514 555.32 438.314 554.461 439.115 553.562C439.916 552.664 440.639 551.775 441.283 550.896C441.928 550.018 442.445 549.178 442.836 548.377C443.246 547.576 443.451 546.863 443.451 546.238C443.451 545.633 443.334 545.105 443.1 544.656C442.885 544.188 442.582 543.797 442.191 543.484C441.82 543.172 441.381 542.938 440.873 542.781C440.365 542.625 439.828 542.547 439.262 542.547C438.402 542.547 437.504 542.732 436.566 543.104C435.629 543.455 434.75 543.865 433.93 544.334L433.578 542.43C434.34 542.059 435.199 541.697 436.156 541.346C437.133 540.975 438.188 540.789 439.32 540.789ZM456.254 542.547C455.512 542.547 454.877 542.693 454.35 542.986C453.842 543.279 453.402 543.68 453.031 544.188C452.68 544.676 452.396 545.232 452.182 545.857C451.986 546.482 451.83 547.127 451.713 547.791C451.596 548.436 451.518 549.08 451.479 549.725C451.459 550.369 451.449 550.945 451.449 551.453C451.449 552.234 451.488 553.133 451.566 554.148C451.664 555.164 451.869 556.131 452.182 557.049C452.514 557.967 452.992 558.748 453.617 559.393C454.262 560.018 455.141 560.33 456.254 560.33C457.348 560.33 458.217 560.018 458.861 559.393C459.506 558.748 459.984 557.967 460.297 557.049C460.629 556.131 460.834 555.164 460.912 554.148C461.01 553.133 461.059 552.234 461.059 551.453C461.059 550.945 461.039 550.369 461 549.725C460.98 549.08 460.912 548.436 460.795 547.791C460.678 547.127 460.512 546.482 460.297 545.857C460.082 545.232 459.799 544.676 459.447 544.188C459.096 543.68 458.656 543.279 458.129 542.986C457.602 542.693 456.977 542.547 456.254 542.547ZM456.254 540.789C457.66 540.789 458.812 541.102 459.711 541.727C460.609 542.332 461.312 543.133 461.82 544.129C462.328 545.125 462.67 546.268 462.846 547.557C463.041 548.826 463.139 550.125 463.139 551.453C463.139 552.781 463.041 554.08 462.846 555.35C462.67 556.619 462.328 557.762 461.82 558.777C461.312 559.793 460.609 560.613 459.711 561.238C458.812 561.844 457.66 562.146 456.254 562.146C454.828 562.146 453.666 561.844 452.768 561.238C451.869 560.613 451.166 559.793 450.658 558.777C450.15 557.762 449.799 556.619 449.604 555.35C449.428 554.08 449.34 552.781 449.34 551.453C449.34 550.125 449.428 548.826 449.604 547.557C449.799 546.268 450.15 545.125 450.658 544.129C451.166 543.133 451.869 542.332 452.768 541.727C453.666 541.102 454.828 540.789 456.254 540.789Z" fill="#666666"/>
    <path d="M460.672 614.547C459.93 614.547 459.295 614.693 458.768 614.986C458.26 615.279 457.82 615.68 457.449 616.188C457.098 616.676 456.814 617.232 456.6 617.857C456.404 618.482 456.248 619.127 456.131 619.791C456.014 620.436 455.936 621.08 455.896 621.725C455.877 622.369 455.867 622.945 455.867 623.453C455.867 624.234 455.906 625.133 455.984 626.148C456.082 627.164 456.287 628.131 456.6 629.049C456.932 629.967 457.41 630.748 458.035 631.393C458.68 632.018 459.559 632.33 460.672 632.33C461.766 632.33 462.635 632.018 463.279 631.393C463.924 630.748 464.402 629.967 464.715 629.049C465.047 628.131 465.252 627.164 465.33 626.148C465.428 625.133 465.477 624.234 465.477 623.453C465.477 622.945 465.457 622.369 465.418 621.725C465.398 621.08 465.33 620.436 465.213 619.791C465.096 619.127 464.93 618.482 464.715 617.857C464.5 617.232 464.217 616.676 463.865 616.188C463.514 615.68 463.074 615.279 462.547 614.986C462.02 614.693 461.395 614.547 460.672 614.547ZM460.672 612.789C462.078 612.789 463.23 613.102 464.129 613.727C465.027 614.332 465.73 615.133 466.238 616.129C466.746 617.125 467.088 618.268 467.264 619.557C467.459 620.826 467.557 622.125 467.557 623.453C467.557 624.781 467.459 626.08 467.264 627.35C467.088 628.619 466.746 629.762 466.238 630.777C465.73 631.793 465.027 632.613 464.129 633.238C463.23 633.844 462.078 634.146 460.672 634.146C459.246 634.146 458.084 633.844 457.186 633.238C456.287 632.613 455.584 631.793 455.076 630.777C454.568 629.762 454.217 628.619 454.021 627.35C453.846 626.08 453.758 624.781 453.758 623.453C453.758 622.125 453.846 620.826 454.021 619.557C454.217 618.268 454.568 617.125 455.076 616.129C455.584 615.133 456.287 614.332 457.186 613.727C458.084 613.102 459.246 612.789 460.672 612.789Z" fill="#666666"/>
    <path d="M441.312 490.264V485.166H432.172V483.262L440.697 469.199H443.275V483.525H446.615V485.166H443.275V490.264H441.312ZM441.312 483.525V471.25L433.93 483.525H441.312ZM456.02 470.547C455.277 470.547 454.643 470.693 454.115 470.986C453.607 471.279 453.168 471.68 452.797 472.188C452.445 472.676 452.162 473.232 451.947 473.857C451.752 474.482 451.596 475.127 451.479 475.791C451.361 476.436 451.283 477.08 451.244 477.725C451.225 478.369 451.215 478.945 451.215 479.453C451.215 480.234 451.254 481.133 451.332 482.148C451.43 483.164 451.635 484.131 451.947 485.049C452.279 485.967 452.758 486.748 453.383 487.393C454.027 488.018 454.906 488.33 456.02 488.33C457.113 488.33 457.982 488.018 458.627 487.393C459.271 486.748 459.75 485.967 460.062 485.049C460.395 484.131 460.6 483.164 460.678 482.148C460.775 481.133 460.824 480.234 460.824 479.453C460.824 478.945 460.805 478.369 460.766 477.725C460.746 477.08 460.678 476.436 460.561 475.791C460.443 475.127 460.277 474.482 460.062 473.857C459.848 473.232 459.564 472.676 459.213 472.188C458.861 471.68 458.422 471.279 457.895 470.986C457.367 470.693 456.742 470.547 456.02 470.547ZM456.02 468.789C457.426 468.789 458.578 469.102 459.477 469.727C460.375 470.332 461.078 471.133 461.586 472.129C462.094 473.125 462.436 474.268 462.611 475.557C462.807 476.826 462.904 478.125 462.904 479.453C462.904 480.781 462.807 482.08 462.611 483.35C462.436 484.619 462.094 485.762 461.586 486.777C461.078 487.793 460.375 488.613 459.477 489.238C458.578 489.844 457.426 490.146 456.02 490.146C454.594 490.146 453.432 489.844 452.533 489.238C451.635 488.613 450.932 487.793 450.424 486.777C449.916 485.762 449.564 484.619 449.369 483.35C449.193 482.08 449.105 480.781 449.105 479.453C449.105 478.125 449.193 476.826 449.369 475.557C449.564 474.268 449.916 473.125 450.424 472.129C450.932 471.133 451.635 470.332 452.533 469.727C453.432 469.102 454.594 468.789 456.02 468.789Z" fill="#666666"/>
    <path d="M441.4 406.547C440.15 406.547 439.125 406.84 438.324 407.426C437.543 407.992 436.918 408.734 436.449 409.652C436 410.551 435.688 411.557 435.512 412.67C435.355 413.764 435.277 414.838 435.277 415.893H435.336C435.805 414.76 436.527 413.91 437.504 413.344C438.48 412.777 439.584 412.494 440.814 412.494C441.83 412.494 442.729 412.67 443.51 413.021C444.311 413.354 444.984 413.832 445.531 414.457C446.078 415.062 446.488 415.785 446.762 416.625C447.035 417.465 447.172 418.383 447.172 419.379C447.172 420.375 447.016 421.303 446.703 422.162C446.41 423.002 445.98 423.744 445.414 424.389C444.867 425.014 444.184 425.512 443.363 425.883C442.562 426.234 441.654 426.41 440.639 426.41C439.193 426.41 437.992 426.137 437.035 425.59C436.078 425.043 435.316 424.32 434.75 423.422C434.184 422.504 433.783 421.459 433.549 420.287C433.314 419.115 433.197 417.904 433.197 416.654C433.197 415.326 433.305 413.959 433.52 412.553C433.734 411.146 434.145 409.867 434.75 408.715C435.355 407.562 436.176 406.625 437.211 405.902C438.266 405.16 439.633 404.789 441.312 404.789C442.289 404.789 443.158 404.877 443.92 405.053C444.701 405.229 445.375 405.395 445.941 405.551L445.619 407.396C445.404 407.279 445.131 407.172 444.799 407.074C444.486 406.957 444.135 406.869 443.744 406.811C443.373 406.732 442.982 406.674 442.572 406.635C442.162 406.576 441.771 406.547 441.4 406.547ZM440.727 414.164C439.906 414.164 439.174 414.311 438.529 414.604C437.904 414.877 437.377 415.258 436.947 415.746C436.518 416.234 436.195 416.811 435.98 417.475C435.766 418.139 435.658 418.861 435.658 419.643C435.658 420.307 435.775 420.941 436.01 421.547C436.244 422.133 436.566 422.66 436.977 423.129C437.387 423.578 437.875 423.939 438.441 424.213C439.008 424.486 439.633 424.623 440.316 424.623C441.078 424.623 441.752 424.496 442.338 424.242C442.943 423.988 443.441 423.637 443.832 423.188C444.242 422.719 444.545 422.172 444.74 421.547C444.955 420.922 445.062 420.238 445.062 419.496C445.062 418.812 444.975 418.158 444.799 417.533C444.643 416.889 444.389 416.322 444.037 415.834C443.686 415.326 443.236 414.926 442.689 414.633C442.143 414.32 441.488 414.164 440.727 414.164ZM457.309 406.547C456.566 406.547 455.932 406.693 455.404 406.986C454.896 407.279 454.457 407.68 454.086 408.188C453.734 408.676 453.451 409.232 453.236 409.857C453.041 410.482 452.885 411.127 452.768 411.791C452.65 412.436 452.572 413.08 452.533 413.725C452.514 414.369 452.504 414.945 452.504 415.453C452.504 416.234 452.543 417.133 452.621 418.148C452.719 419.164 452.924 420.131 453.236 421.049C453.568 421.967 454.047 422.748 454.672 423.393C455.316 424.018 456.195 424.33 457.309 424.33C458.402 424.33 459.271 424.018 459.916 423.393C460.561 422.748 461.039 421.967 461.352 421.049C461.684 420.131 461.889 419.164 461.967 418.148C462.064 417.133 462.113 416.234 462.113 415.453C462.113 414.945 462.094 414.369 462.055 413.725C462.035 413.08 461.967 412.436 461.85 411.791C461.732 411.127 461.566 410.482 461.352 409.857C461.137 409.232 460.854 408.676 460.502 408.188C460.15 407.68 459.711 407.279 459.184 406.986C458.656 406.693 458.031 406.547 457.309 406.547ZM457.309 404.789C458.715 404.789 459.867 405.102 460.766 405.727C461.664 406.332 462.367 407.133 462.875 408.129C463.383 409.125 463.725 410.268 463.9 411.557C464.096 412.826 464.193 414.125 464.193 415.453C464.193 416.781 464.096 418.08 463.9 419.35C463.725 420.619 463.383 421.762 462.875 422.777C462.367 423.793 461.664 424.613 460.766 425.238C459.867 425.844 458.715 426.146 457.309 426.146C455.883 426.146 454.721 425.844 453.822 425.238C452.924 424.613 452.221 423.793 451.713 422.777C451.205 421.762 450.854 420.619 450.658 419.35C450.482 418.08 450.395 416.781 450.395 415.453C450.395 414.125 450.482 412.826 450.658 411.557C450.854 410.268 451.205 409.125 451.713 408.129C452.221 407.133 452.924 406.332 453.822 405.727C454.721 405.102 455.883 404.789 457.309 404.789Z" fill="#666666"/>
    <path d="M435.541 344.326C435.541 345.635 435.961 346.621 436.801 347.285C437.66 347.93 438.754 348.252 440.082 348.252C441.41 348.252 442.504 347.93 443.363 347.285C444.223 346.621 444.652 345.635 444.652 344.326C444.652 343.623 444.516 343.027 444.242 342.539C443.969 342.051 443.617 341.65 443.188 341.338C442.758 341.006 442.27 340.771 441.723 340.635C441.176 340.479 440.629 340.4 440.082 340.4C439.535 340.4 438.988 340.479 438.441 340.635C437.895 340.771 437.406 341.006 436.977 341.338C436.547 341.65 436.195 342.051 435.922 342.539C435.668 343.027 435.541 343.623 435.541 344.326ZM435.043 354.404C435.043 355.146 435.18 355.791 435.453 356.338C435.746 356.865 436.127 357.305 436.596 357.656C437.064 357.988 437.602 358.232 438.207 358.389C438.812 358.545 439.438 358.623 440.082 358.623C440.727 358.623 441.352 358.545 441.957 358.389C442.562 358.232 443.1 357.988 443.568 357.656C444.037 357.305 444.408 356.865 444.682 356.338C444.975 355.791 445.121 355.146 445.121 354.404C445.121 353.682 444.975 353.047 444.682 352.5C444.408 351.953 444.037 351.504 443.568 351.152C443.1 350.781 442.562 350.508 441.957 350.332C441.352 350.156 440.727 350.068 440.082 350.068C439.438 350.068 438.812 350.156 438.207 350.332C437.602 350.508 437.064 350.781 436.596 351.152C436.127 351.504 435.746 351.953 435.453 352.5C435.18 353.047 435.043 353.682 435.043 354.404ZM442.602 349.189C444.008 349.561 445.131 350.176 445.971 351.035C446.811 351.895 447.23 353.018 447.23 354.404C447.23 355.459 447.016 356.367 446.586 357.129C446.176 357.891 445.629 358.516 444.945 359.004C444.281 359.473 443.52 359.824 442.66 360.059C441.82 360.293 440.961 360.41 440.082 360.41C439.223 360.41 438.363 360.293 437.504 360.059C436.664 359.824 435.902 359.473 435.219 359.004C434.555 358.516 434.008 357.891 433.578 357.129C433.168 356.367 432.963 355.459 432.963 354.404C432.963 353.057 433.383 351.943 434.223 351.064C435.082 350.186 436.215 349.561 437.621 349.189V349.131C437.055 348.994 436.518 348.789 436.01 348.516C435.521 348.223 435.092 347.871 434.721 347.461C434.369 347.051 434.086 346.582 433.871 346.055C433.676 345.527 433.578 344.951 433.578 344.326C433.578 343.369 433.764 342.549 434.135 341.865C434.525 341.162 435.023 340.586 435.629 340.137C436.254 339.668 436.947 339.326 437.709 339.111C438.49 338.896 439.281 338.789 440.082 338.789C440.883 338.789 441.674 338.896 442.455 339.111C443.236 339.326 443.93 339.668 444.535 340.137C445.16 340.586 445.658 341.162 446.029 341.865C446.42 342.549 446.615 343.369 446.615 344.326C446.615 345.615 446.234 346.67 445.473 347.49C444.711 348.311 443.754 348.857 442.602 349.131V349.189ZM457.895 340.547C457.152 340.547 456.518 340.693 455.99 340.986C455.482 341.279 455.043 341.68 454.672 342.188C454.32 342.676 454.037 343.232 453.822 343.857C453.627 344.482 453.471 345.127 453.354 345.791C453.236 346.436 453.158 347.08 453.119 347.725C453.1 348.369 453.09 348.945 453.09 349.453C453.09 350.234 453.129 351.133 453.207 352.148C453.305 353.164 453.51 354.131 453.822 355.049C454.154 355.967 454.633 356.748 455.258 357.393C455.902 358.018 456.781 358.33 457.895 358.33C458.988 358.33 459.857 358.018 460.502 357.393C461.146 356.748 461.625 355.967 461.938 355.049C462.27 354.131 462.475 353.164 462.553 352.148C462.65 351.133 462.699 350.234 462.699 349.453C462.699 348.945 462.68 348.369 462.641 347.725C462.621 347.08 462.553 346.436 462.436 345.791C462.318 345.127 462.152 344.482 461.938 343.857C461.723 343.232 461.439 342.676 461.088 342.188C460.736 341.68 460.297 341.279 459.77 340.986C459.242 340.693 458.617 340.547 457.895 340.547ZM457.895 338.789C459.301 338.789 460.453 339.102 461.352 339.727C462.25 340.332 462.953 341.133 463.461 342.129C463.969 343.125 464.311 344.268 464.486 345.557C464.682 346.826 464.779 348.125 464.779 349.453C464.779 350.781 464.682 352.08 464.486 353.35C464.311 354.619 463.969 355.762 463.461 356.777C462.953 357.793 462.25 358.613 461.352 359.238C460.453 359.844 459.301 360.146 457.895 360.146C456.469 360.146 455.307 359.844 454.408 359.238C453.51 358.613 452.807 357.793 452.299 356.777C451.791 355.762 451.439 354.619 451.244 353.35C451.068 352.08 450.98 350.781 450.98 349.453C450.98 348.125 451.068 346.826 451.244 345.557C451.439 344.268 451.791 343.125 452.299 342.129C452.807 341.133 453.51 340.332 454.408 339.727C455.307 339.102 456.469 338.789 457.895 338.789Z" fill="#666666"/>
    <path d="M420.051 277.184L424.797 273.229H426.496V294H424.592V275.572L421.193 278.531L420.051 277.184ZM439.416 274.547C438.674 274.547 438.039 274.693 437.512 274.986C437.004 275.279 436.564 275.68 436.193 276.188C435.842 276.676 435.559 277.232 435.344 277.857C435.148 278.482 434.992 279.127 434.875 279.791C434.758 280.436 434.68 281.08 434.641 281.725C434.621 282.369 434.611 282.945 434.611 283.453C434.611 284.234 434.65 285.133 434.729 286.148C434.826 287.164 435.031 288.131 435.344 289.049C435.676 289.967 436.154 290.748 436.779 291.393C437.424 292.018 438.303 292.33 439.416 292.33C440.51 292.33 441.379 292.018 442.023 291.393C442.668 290.748 443.146 289.967 443.459 289.049C443.791 288.131 443.996 287.164 444.074 286.148C444.172 285.133 444.221 284.234 444.221 283.453C444.221 282.945 444.201 282.369 444.162 281.725C444.143 281.08 444.074 280.436 443.957 279.791C443.84 279.127 443.674 278.482 443.459 277.857C443.244 277.232 442.961 276.676 442.609 276.188C442.258 275.68 441.818 275.279 441.291 274.986C440.764 274.693 440.139 274.547 439.416 274.547ZM439.416 272.789C440.822 272.789 441.975 273.102 442.873 273.727C443.771 274.332 444.475 275.133 444.982 276.129C445.49 277.125 445.832 278.268 446.008 279.557C446.203 280.826 446.301 282.125 446.301 283.453C446.301 284.781 446.203 286.08 446.008 287.35C445.832 288.619 445.49 289.762 444.982 290.777C444.475 291.793 443.771 292.613 442.873 293.238C441.975 293.844 440.822 294.146 439.416 294.146C437.99 294.146 436.828 293.844 435.93 293.238C435.031 292.613 434.328 291.793 433.82 290.777C433.312 289.762 432.961 288.619 432.766 287.35C432.59 286.08 432.502 284.781 432.502 283.453C432.502 282.125 432.59 280.826 432.766 279.557C432.961 278.268 433.312 277.125 433.82 276.129C434.328 275.133 435.031 274.332 435.93 273.727C436.828 273.102 437.99 272.789 439.416 272.789ZM456.73 274.547C455.988 274.547 455.354 274.693 454.826 274.986C454.318 275.279 453.879 275.68 453.508 276.188C453.156 276.676 452.873 277.232 452.658 277.857C452.463 278.482 452.307 279.127 452.189 279.791C452.072 280.436 451.994 281.08 451.955 281.725C451.936 282.369 451.926 282.945 451.926 283.453C451.926 284.234 451.965 285.133 452.043 286.148C452.141 287.164 452.346 288.131 452.658 289.049C452.99 289.967 453.469 290.748 454.094 291.393C454.738 292.018 455.617 292.33 456.73 292.33C457.824 292.33 458.693 292.018 459.338 291.393C459.982 290.748 460.461 289.967 460.773 289.049C461.105 288.131 461.311 287.164 461.389 286.148C461.486 285.133 461.535 284.234 461.535 283.453C461.535 282.945 461.516 282.369 461.477 281.725C461.457 281.08 461.389 280.436 461.271 279.791C461.154 279.127 460.988 278.482 460.773 277.857C460.559 277.232 460.275 276.676 459.924 276.188C459.572 275.68 459.133 275.279 458.605 274.986C458.078 274.693 457.453 274.547 456.73 274.547ZM456.73 272.789C458.137 272.789 459.289 273.102 460.188 273.727C461.086 274.332 461.789 275.133 462.297 276.129C462.805 277.125 463.146 278.268 463.322 279.557C463.518 280.826 463.615 282.125 463.615 283.453C463.615 284.781 463.518 286.08 463.322 287.35C463.146 288.619 462.805 289.762 462.297 290.777C461.789 291.793 461.086 292.613 460.188 293.238C459.289 293.844 458.137 294.146 456.73 294.146C455.305 294.146 454.143 293.844 453.244 293.238C452.346 292.613 451.643 291.793 451.135 290.777C450.627 289.762 450.275 288.619 450.08 287.35C449.904 286.08 449.816 284.781 449.816 283.453C449.816 282.125 449.904 280.826 450.08 279.557C450.275 278.268 450.627 277.125 451.135 276.129C451.643 275.133 452.346 274.332 453.244 273.727C454.143 273.102 455.305 272.789 456.73 272.789Z" fill="#666666"/>
    <path d="M296 874L239 534L485 556V614L296 874Z" fill="#DDDDDD" fill-opacity="0.7"/>
    <path d="M315 559L480 478L485 475V615L674.5 873L295 874L315 559Z" fill="#E66787" fill-opacity="0.6"/>
    <path d="M468.727 184.477H464.781V173.461H450.562V169.906H482.984V173.461H468.727V184.477ZM466.539 158.422C466.383 158.917 466.018 159.516 465.445 160.219C465.055 160.688 464.534 161.182 463.883 161.703C463.258 162.198 462.503 162.693 461.617 163.188C460.732 163.656 459.703 164.099 458.531 164.516C457.359 164.932 456.031 165.297 454.547 165.609L452.594 162.406C455.016 161.911 457.008 161.299 458.57 160.57C460.159 159.841 461.409 159.034 462.32 158.148C463.232 157.263 463.87 156.339 464.234 155.375C464.599 154.411 464.781 153.435 464.781 152.445V151.312H468.805V152.445C468.805 153.409 469 154.372 469.391 155.336C469.781 156.299 470.445 157.211 471.383 158.07C472.32 158.904 473.57 159.659 475.133 160.336C476.695 160.987 478.635 161.508 480.953 161.898L479 165.18C477.568 164.919 476.279 164.594 475.133 164.203C473.987 163.812 472.971 163.396 472.086 162.953C471.227 162.484 470.484 162.016 469.859 161.547C469.234 161.078 468.714 160.622 468.297 160.18C467.724 159.555 467.333 158.969 467.125 158.422H466.539ZM490.133 167.094V151.547H494.078V156.664H511.383V151.547H515.328V167.094H490.133ZM501.109 178.617V173.812H486.109V170.258H519.312V173.812H505.055V178.617H501.109ZM494.078 175.57V181.352H516.5V184.906H490.133V175.57H494.078ZM511.383 160.062H494.078V163.617H511.383V160.062Z" fill="#333333"/>
    <path d="M30.5859 477.102H19.7656C19.8438 477.648 20.013 478.195 20.2734 478.742C20.6641 479.628 21.3151 480.474 22.2266 481.281C23.1641 482.089 24.388 482.831 25.8984 483.508C27.4349 484.185 29.3359 484.758 31.6016 485.227L29.7656 488.508C28.3854 488.273 27.1224 487.961 25.9766 487.57C24.8568 487.18 23.8672 486.763 23.0078 486.32C22.1484 485.878 21.4062 485.422 20.7812 484.953C20.1823 484.484 19.7005 484.055 19.3359 483.664C18.6849 482.909 18.2682 482.258 18.0859 481.711H17.5C17.3698 482.232 16.9922 482.87 16.3672 483.625C15.8984 484.172 15.2995 484.719 14.5703 485.266C13.8672 485.786 13.0599 486.294 12.1484 486.789C11.237 487.258 10.2474 487.688 9.17969 488.078C8.11198 488.469 6.99219 488.781 5.82031 489.016L3.78906 485.891C6.15885 485.344 8.11198 484.693 9.64844 483.938C11.2109 483.182 12.4479 482.375 13.3594 481.516C14.2708 480.656 14.9089 479.758 15.2734 478.82C15.4818 478.247 15.638 477.674 15.7422 477.102H4.96094V473.547H30.5859V477.102ZM19.7266 506.477H15.7812V495.852H1.5625V492.297H33.9844V495.852H19.7266V506.477ZM67.2266 487.531C65.8203 487.766 64.2318 487.935 62.4609 488.039C60.7161 488.117 58.6328 488.156 56.2109 488.156H41.1328V478.977H62.1875V476.672H41.1328V473.156H66.1328V482.414H45.0781V484.641H59.2969C60.2604 484.641 61.1589 484.628 61.9922 484.602C62.8516 484.549 63.6719 484.497 64.4531 484.445C65.2604 484.367 66.0547 484.263 66.8359 484.133L67.2266 487.531ZM41.1328 507.297V496.477H66.3281V507.297H41.1328ZM37.1094 494.289V490.734H70.3125V494.289H37.1094ZM62.3828 500.031H45.0781V503.742H62.3828V500.031Z" fill="#333333"/>
    <path d="M902.688 480.695C902.688 478.352 903.781 476.451 905.969 474.992C908.156 473.534 911.424 472.805 915.773 472.805C920.07 472.805 923.326 473.534 925.539 474.992C927.753 476.451 928.859 478.352 928.859 480.695C928.859 483.039 927.753 484.94 925.539 486.398C923.326 487.857 920.07 488.586 915.773 488.586C911.424 488.586 908.156 487.857 905.969 486.398C903.781 484.94 902.688 483.039 902.688 480.695ZM931.984 492.688V496.242H924.484L924.719 506.672H920.812L920.617 496.242H911.75C911.698 497.753 911.555 499.224 911.32 500.656C910.956 502.766 910.409 504.706 909.68 506.477L905.695 505.422C906.086 504.536 906.424 503.586 906.711 502.57C906.997 501.529 907.219 500.513 907.375 499.523C907.557 498.508 907.674 497.544 907.727 496.633C907.753 496.503 907.766 496.372 907.766 496.242H899.562V492.688H931.984ZM906.594 480.695C906.594 481.268 906.737 481.828 907.023 482.375C907.336 482.922 907.844 483.404 908.547 483.82C909.276 484.237 910.227 484.576 911.398 484.836C912.57 485.096 914.029 485.227 915.773 485.227C917.518 485.227 918.977 485.096 920.148 484.836C921.32 484.576 922.258 484.237 922.961 483.82C923.69 483.404 924.198 482.922 924.484 482.375C924.797 481.828 924.953 481.268 924.953 480.695C924.953 480.122 924.797 479.562 924.484 479.016C924.198 478.469 923.69 477.987 922.961 477.57C922.258 477.154 921.32 476.815 920.148 476.555C918.977 476.294 917.518 476.164 915.773 476.164C914.029 476.164 912.57 476.294 911.398 476.555C910.227 476.815 909.276 477.154 908.547 477.57C907.844 477.987 907.336 478.469 907.023 479.016C906.737 479.562 906.594 480.122 906.594 480.695ZM939.133 489.094V473.547H943.078V478.664H960.383V473.547H964.328V489.094H939.133ZM950.109 500.617V495.812H935.109V492.258H968.312V495.812H954.055V500.617H950.109ZM943.078 497.57V503.352H965.5V506.906H939.133V497.57H943.078ZM960.383 482.062H943.078V485.617H960.383V482.062Z" fill="#333333"/>
    <path d="M706.984 996.172V969.375H710.93V996.172H706.984ZM682.492 989.219V971.016H699.328V989.219H682.492ZM695.422 974.57H686.398V985.664H695.422V974.57ZM690.461 993.32V1000.16H711.594V1003.71H686.516V993.32H690.461ZM720.5 1003.91V990.547H744.914V1003.91H720.5ZM740.969 994.102H724.445V1000.35H740.969V994.102ZM740.969 988.398V969.375H744.914V978.828H751.047V982.383H744.914V988.398H740.969ZM725.773 986.641C726.711 984.427 727.427 982.279 727.922 980.195C728.417 978.086 728.69 976.081 728.742 974.18H715.5V970.625H732.727C732.727 973.698 732.453 976.719 731.906 979.688C731.385 982.656 730.578 985.339 729.484 987.734L725.773 986.641Z" fill="#333333"/>
    <path d="M234.859 989.531V969.805H238.609V978.008H242.398V969.375H246.148V989.531H242.398V981.562H238.609V989.531H234.859ZM242.086 995.273H221.148V991.719H246.031V1003.91H242.086V995.273ZM231.656 988.633C230.25 987.721 229.117 986.771 228.258 985.781C227.424 984.792 226.812 983.958 226.422 983.281C226.214 982.917 226.018 982.539 225.836 982.148C225.654 981.732 225.536 981.38 225.484 981.094H224.938C224.885 981.406 224.794 981.771 224.664 982.188C224.534 982.604 224.391 982.995 224.234 983.359C224.078 983.724 223.831 984.193 223.492 984.766C223.18 985.312 222.776 985.911 222.281 986.562C221.786 987.188 221.201 987.852 220.523 988.555C219.846 989.232 219.065 989.883 218.18 990.508L215.172 987.969C217.099 986.693 218.596 985.326 219.664 983.867C220.758 982.409 221.565 980.964 222.086 979.531C222.607 978.099 222.919 976.732 223.023 975.43C223.128 974.128 223.18 973.008 223.18 972.07V970.625H227.047V972.07C227.047 972.956 227.086 973.984 227.164 975.156C227.268 976.302 227.555 977.5 228.023 978.75C228.492 980 229.221 981.237 230.211 982.461C231.227 983.685 232.646 984.818 234.469 985.859L231.656 988.633ZM268.062 979.688C268.01 980.052 267.867 980.443 267.633 980.859C267.424 981.25 267.203 981.589 266.969 981.875C266.656 982.318 266.214 982.826 265.641 983.398C265.068 983.945 264.339 984.531 263.453 985.156C262.594 985.755 261.539 986.367 260.289 986.992C259.065 987.591 257.62 988.151 255.953 988.672L253.766 985.586C256.578 984.701 258.818 983.711 260.484 982.617C262.151 981.497 263.427 980.365 264.312 979.219C265.198 978.073 265.771 976.94 266.031 975.82C266.318 974.701 266.461 973.685 266.461 972.773V971.133H270.289V972.773C270.289 973.659 270.432 974.648 270.719 975.742C271.031 976.836 271.643 977.93 272.555 979.023C273.466 980.117 274.755 981.172 276.422 982.188C278.089 983.177 280.302 984.036 283.062 984.766L280.758 988.125C279.195 987.682 277.815 987.188 276.617 986.641C275.445 986.094 274.417 985.547 273.531 985C272.672 984.453 271.956 983.906 271.383 983.359C270.81 982.812 270.354 982.318 270.016 981.875C269.781 981.536 269.547 981.185 269.312 980.82C269.078 980.43 268.922 980.052 268.844 979.688H268.062ZM284.82 996.133V999.688H252.008V996.133H266.422V988.828H270.367V996.133H284.82Z" fill="#333333"/>
</svg>
