<svg width="415" height="479" viewBox="0 0 415 479" fill="none" xmlns="http://www.w3.org/2000/svg">
    <path d="M119.797 465.207V458.674H115.988V465.207H114.055V450.354H115.988V456.945H119.797V450.031H121.73V465.207H119.797ZM106.174 457.473C106.135 457.688 106.086 457.922 106.027 458.176C105.988 458.41 105.91 458.693 105.793 459.025C105.441 460.021 104.807 461.115 103.889 462.307C102.971 463.479 101.789 464.592 100.344 465.646L98.8789 464.357C100.266 463.42 101.379 462.424 102.219 461.369C103.078 460.314 103.732 459.26 104.182 458.205C104.65 457.131 104.953 456.096 105.09 455.1C105.246 454.084 105.324 453.156 105.324 452.316V451.203H107.346V452.316C107.346 453 107.385 453.791 107.463 454.689C107.561 455.588 107.805 456.516 108.195 457.473C108.586 458.43 109.172 459.387 109.953 460.344C110.734 461.281 111.828 462.131 113.234 462.893L111.975 464.24C110.588 463.4 109.504 462.561 108.723 461.721C107.961 460.861 107.375 459.963 106.965 459.025C106.848 458.752 106.76 458.479 106.701 458.205C106.643 457.912 106.594 457.668 106.555 457.473H106.174ZM119.621 475.783V468.811H103.508V467.082H121.643V475.783H119.621ZM126.125 472.473V470.715H137.404V464.768H139.455V470.715H150.734V472.473H126.125ZM138.225 457.004C138.146 457.297 138.049 457.6 137.932 457.912C137.834 458.205 137.678 458.498 137.463 458.791C137.111 459.26 136.701 459.738 136.232 460.227C135.783 460.695 135.217 461.164 134.533 461.633C133.85 462.082 133.029 462.531 132.072 462.98C131.135 463.41 130.021 463.84 128.732 464.27L127.678 462.717C129.768 462.092 131.447 461.389 132.717 460.607C134.006 459.807 135.002 458.977 135.705 458.117C136.408 457.258 136.877 456.389 137.111 455.51C137.346 454.611 137.463 453.742 137.463 452.902V451.643H139.396V452.902C139.396 453.742 139.523 454.611 139.777 455.51C140.031 456.389 140.52 457.248 141.242 458.088C141.965 458.908 142.961 459.68 144.23 460.402C145.5 461.125 147.15 461.75 149.182 462.277L148.156 463.859C146.828 463.488 145.686 463.098 144.729 462.688C143.791 462.258 142.98 461.828 142.297 461.398C141.613 460.949 141.047 460.5 140.598 460.051C140.148 459.602 139.768 459.152 139.455 458.703C139.279 458.449 139.133 458.176 139.016 457.883C138.898 457.59 138.791 457.297 138.693 457.004H138.225ZM157.414 475.783V467.668H175.344V475.783H157.414ZM173.322 469.396H159.436V474.055H173.322V469.396ZM168.254 465.09C166.652 464.543 165.422 463.947 164.562 463.303C163.723 462.658 163.146 462.141 162.834 461.75C162.58 461.438 162.365 461.125 162.189 460.812C162.033 460.5 161.916 460.158 161.838 459.787H161.398C161.32 460.158 161.213 460.5 161.076 460.812C160.939 461.105 160.764 461.408 160.549 461.721C160.178 462.268 159.514 462.951 158.557 463.771C157.619 464.572 156.389 465.305 154.865 465.969L153.664 464.445C155.031 463.879 156.164 463.234 157.062 462.512C157.961 461.789 158.674 461.066 159.201 460.344C159.729 459.621 160.09 458.938 160.285 458.293C160.5 457.648 160.607 457.131 160.607 456.74V456.623H154.074V454.953H168.928V456.623H162.629V456.74C162.629 457.131 162.707 457.619 162.863 458.205C163.039 458.791 163.371 459.406 163.859 460.051C164.348 460.676 165.031 461.301 165.91 461.926C166.809 462.531 167.98 463.068 169.426 463.537L168.254 465.09ZM173.322 465.793V450.031H175.344V465.793H173.322ZM157.121 449.855C157.863 450.109 158.625 450.285 159.406 450.383C160.188 450.48 160.959 450.539 161.721 450.559C162.502 450.578 163.273 450.578 164.035 450.559C164.816 450.539 165.578 450.529 166.32 450.529V452.199C165.5 452.219 164.65 452.238 163.771 452.258C162.893 452.258 162.023 452.238 161.164 452.199C160.324 452.16 159.523 452.092 158.762 451.994C158 451.877 157.326 451.711 156.74 451.496L157.121 449.855ZM194.914 465.09C193.312 464.543 192.082 463.947 191.223 463.303C190.383 462.658 189.807 462.141 189.494 461.75C189.24 461.438 189.025 461.125 188.85 460.812C188.693 460.5 188.576 460.158 188.498 459.787H188.059C187.98 460.158 187.873 460.5 187.736 460.812C187.6 461.105 187.424 461.408 187.209 461.721C186.838 462.268 186.174 462.951 185.217 463.771C184.279 464.572 183.049 465.305 181.525 465.969L180.324 464.445C181.691 463.879 182.824 463.234 183.723 462.512C184.621 461.789 185.334 461.066 185.861 460.344C186.389 459.621 186.75 458.938 186.945 458.293C187.16 457.648 187.268 457.131 187.268 456.74V456.623H180.734V454.953H195.588V456.623H189.289V456.74C189.289 457.131 189.367 457.619 189.523 458.205C189.699 458.791 190.031 459.406 190.52 460.051C191.008 460.676 191.691 461.301 192.57 461.926C193.469 462.531 194.641 463.068 196.086 463.537L194.914 465.09ZM199.396 475.783V469.396H183.488V467.668H201.418V475.783H199.396ZM199.396 465.793V450.031H201.418V459.26H206.252V460.988H201.418V465.793H199.396ZM183.781 449.855C184.523 450.109 185.285 450.285 186.066 450.383C186.848 450.48 187.619 450.539 188.381 450.559C189.162 450.578 189.934 450.578 190.695 450.559C191.477 450.539 192.238 450.529 192.98 450.529V452.199C192.16 452.219 191.311 452.238 190.432 452.258C189.553 452.258 188.684 452.238 187.824 452.199C186.984 452.16 186.184 452.092 185.422 451.994C184.66 451.877 183.986 451.711 183.4 451.496L183.781 449.855Z" fill="#666666"/>
    <path d="M298.845 464.035V457.941H294.831V463.068H284.548V451.496H294.831V456.213H298.845V450.354H300.778V464.035H298.845ZM287.712 476.076V470.07H303.679V467.668H287.712V465.939H305.7V471.799H289.733V474.348H306.579V476.076H287.712ZM292.868 453.225H286.511V461.34H292.868V453.225ZM303.854 464.035V450.031H305.788V464.035H303.854ZM330.427 475.168V469.074C328.61 469.621 326.491 470.002 324.069 470.217C321.667 470.432 319.03 470.539 316.159 470.539H312.233V460.256H322.37V453.518H312.233V451.789H324.392V461.926H314.255V468.811H316.188C317.478 468.811 318.757 468.791 320.026 468.752C321.315 468.713 322.565 468.635 323.776 468.518C324.987 468.4 326.149 468.244 327.263 468.049C328.396 467.834 329.45 467.57 330.427 467.258V450.031H332.448V460.139H337.282V461.867H332.448V475.168H330.427ZM359.577 470.188V464.211C359.05 464.348 358.493 464.475 357.907 464.592C357.048 464.748 356.101 464.875 355.065 464.973C354.03 465.07 352.888 465.139 351.638 465.178C350.407 465.217 349.04 465.236 347.536 465.236H340.651V451.057H342.673V463.508H347.565C350.3 463.508 352.653 463.43 354.626 463.273C356.481 463.117 358.132 462.834 359.577 462.424V450.031H361.599V470.188H359.577ZM345.837 468.283V473.908H362.185V475.637H343.815V468.283H345.837Z" fill="#666666"/>
    <path d="M120 44C120 38.4771 124.477 34 130 34H175C180.523 34 185 38.4772 185 44V416H120V44Z" fill="#E66787"/>
    <path d="M145.371 17.6641C146.324 17.6016 147.098 17.3047 147.691 16.7734C148.301 16.2266 148.777 15.5703 149.121 14.8047C149.465 14.0391 149.699 13.2344 149.824 12.3906C149.949 11.5312 150.012 10.7578 150.012 10.0703H149.965C149.559 10.8672 148.965 11.4922 148.184 11.9453C147.402 12.3828 146.527 12.6016 145.559 12.6016C144.809 12.6016 144.121 12.4766 143.496 12.2266C142.871 11.9609 142.332 11.6016 141.879 11.1484C141.441 10.6797 141.098 10.1328 140.848 9.50781C140.598 8.86719 140.473 8.17188 140.473 7.42188C140.473 6.625 140.598 5.89844 140.848 5.24219C141.098 4.58594 141.449 4.02344 141.902 3.55469C142.371 3.07031 142.934 2.69531 143.59 2.42969C144.246 2.16406 144.973 2.03125 145.77 2.03125C146.973 2.03125 147.957 2.26562 148.723 2.73438C149.488 3.20312 150.09 3.82031 150.527 4.58594C150.965 5.35156 151.262 6.22656 151.418 7.21094C151.59 8.17969 151.676 9.17969 151.676 10.2109C151.676 11.3359 151.551 12.4297 151.301 13.4922C151.066 14.5547 150.668 15.5078 150.105 16.3516C149.543 17.1797 148.809 17.8516 147.902 18.3672C146.996 18.8672 145.879 19.1172 144.551 19.1172C143.895 19.1172 143.277 19.0312 142.699 18.8594C142.137 18.6875 141.676 18.5391 141.316 18.4141L141.574 16.9609C141.918 17.1172 142.434 17.2891 143.121 17.4766C143.824 17.6484 144.574 17.7109 145.371 17.6641ZM145.793 3.4375C145.184 3.4375 144.645 3.54687 144.176 3.76562C143.723 3.96875 143.348 4.25781 143.051 4.63281C142.754 5.00781 142.527 5.44531 142.371 5.94531C142.23 6.44531 142.16 6.98438 142.16 7.5625C142.16 8.65625 142.473 9.54688 143.098 10.2344C143.738 10.9219 144.605 11.2656 145.699 11.2656C146.277 11.2656 146.809 11.1719 147.293 10.9844C147.793 10.7812 148.215 10.5078 148.559 10.1641C148.918 9.82031 149.199 9.40625 149.402 8.92188C149.605 8.4375 149.707 7.90625 149.707 7.32812C149.707 6.76562 149.605 6.25 149.402 5.78125C149.215 5.29688 148.949 4.88281 148.605 4.53906C148.262 4.19531 147.848 3.92969 147.363 3.74219C146.895 3.53906 146.371 3.4375 145.793 3.4375ZM160.09 2.03125C160.762 2.03125 161.395 2.11719 161.988 2.28906C162.598 2.46094 163.129 2.72656 163.582 3.08594C164.035 3.42969 164.395 3.875 164.66 4.42188C164.926 4.95312 165.059 5.57813 165.059 6.29688C165.059 6.95312 164.91 7.625 164.613 8.3125C164.332 9 163.949 9.69531 163.465 10.3984C162.996 11.0859 162.457 11.7734 161.848 12.4609C161.254 13.1328 160.645 13.7812 160.02 14.4062C159.41 15.0156 158.809 15.5938 158.215 16.1406C157.637 16.6719 157.137 17.1406 156.715 17.5469H165.293V19H154.84V17.3359C155.199 17.0078 155.66 16.5859 156.223 16.0703C156.785 15.5391 157.379 14.9531 158.004 14.3125C158.645 13.6562 159.285 12.9688 159.926 12.25C160.566 11.5312 161.145 10.8203 161.66 10.1172C162.176 9.41406 162.59 8.74219 162.902 8.10156C163.23 7.46094 163.395 6.89063 163.395 6.39062C163.395 5.90625 163.301 5.48438 163.113 5.125C162.941 4.75 162.699 4.4375 162.387 4.1875C162.09 3.9375 161.738 3.75 161.332 3.625C160.926 3.5 160.496 3.4375 160.043 3.4375C159.355 3.4375 158.637 3.58594 157.887 3.88281C157.137 4.16406 156.434 4.49219 155.777 4.86719L155.496 3.34375C156.105 3.04688 156.793 2.75781 157.559 2.47656C158.34 2.17969 159.184 2.03125 160.09 2.03125Z" fill="#666666"/>
    <path d="M317.727 152.438C316.727 152.438 315.906 152.672 315.266 153.141C314.641 153.594 314.141 154.188 313.766 154.922C313.406 155.641 313.156 156.445 313.016 157.336C312.891 158.211 312.828 159.07 312.828 159.914H312.875C313.25 159.008 313.828 158.328 314.609 157.875C315.391 157.422 316.273 157.195 317.258 157.195C318.07 157.195 318.789 157.336 319.414 157.617C320.055 157.883 320.594 158.266 321.031 158.766C321.469 159.25 321.797 159.828 322.016 160.5C322.234 161.172 322.344 161.906 322.344 162.703C322.344 163.5 322.219 164.242 321.969 164.93C321.734 165.602 321.391 166.195 320.938 166.711C320.5 167.211 319.953 167.609 319.297 167.906C318.656 168.188 317.93 168.328 317.117 168.328C315.961 168.328 315 168.109 314.234 167.672C313.469 167.234 312.859 166.656 312.406 165.938C311.953 165.203 311.633 164.367 311.445 163.43C311.258 162.492 311.164 161.523 311.164 160.523C311.164 159.461 311.25 158.367 311.422 157.242C311.594 156.117 311.922 155.094 312.406 154.172C312.891 153.25 313.547 152.5 314.375 151.922C315.219 151.328 316.312 151.031 317.656 151.031C318.438 151.031 319.133 151.102 319.742 151.242C320.367 151.383 320.906 151.516 321.359 151.641L321.102 153.117C320.93 153.023 320.711 152.938 320.445 152.859C320.195 152.766 319.914 152.695 319.602 152.648C319.305 152.586 318.992 152.539 318.664 152.508C318.336 152.461 318.023 152.438 317.727 152.438ZM317.188 158.531C316.531 158.531 315.945 158.648 315.43 158.883C314.93 159.102 314.508 159.406 314.164 159.797C313.82 160.188 313.562 160.648 313.391 161.18C313.219 161.711 313.133 162.289 313.133 162.914C313.133 163.445 313.227 163.953 313.414 164.438C313.602 164.906 313.859 165.328 314.188 165.703C314.516 166.062 314.906 166.352 315.359 166.57C315.812 166.789 316.312 166.898 316.859 166.898C317.469 166.898 318.008 166.797 318.477 166.594C318.961 166.391 319.359 166.109 319.672 165.75C320 165.375 320.242 164.938 320.398 164.438C320.57 163.938 320.656 163.391 320.656 162.797C320.656 162.25 320.586 161.727 320.445 161.227C320.32 160.711 320.117 160.258 319.836 159.867C319.555 159.461 319.195 159.141 318.758 158.906C318.32 158.656 317.797 158.531 317.188 158.531ZM331.766 168.211V164.133H324.453V162.609L331.273 151.359H333.336V162.82H336.008V164.133H333.336V168.211H331.766ZM331.766 162.82V153L325.859 162.82H331.766Z" fill="#666666"/>
    <path d="M2.05078 11.1836L6.79688 7.22852H8.49609V28H6.5918V9.57227L3.19336 12.5312L2.05078 11.1836ZM21.416 8.54688C20.6738 8.54688 20.0391 8.69336 19.5117 8.98633C19.0039 9.2793 18.5645 9.67969 18.1934 10.1875C17.8418 10.6758 17.5586 11.2324 17.3438 11.8574C17.1484 12.4824 16.9922 13.127 16.875 13.791C16.7578 14.4355 16.6797 15.0801 16.6406 15.7246C16.6211 16.3691 16.6113 16.9453 16.6113 17.4531C16.6113 18.2344 16.6504 19.1328 16.7285 20.1484C16.8262 21.1641 17.0312 22.1309 17.3438 23.0488C17.6758 23.9668 18.1543 24.748 18.7793 25.3926C19.4238 26.0176 20.3027 26.3301 21.416 26.3301C22.5098 26.3301 23.3789 26.0176 24.0234 25.3926C24.668 24.748 25.1465 23.9668 25.459 23.0488C25.791 22.1309 25.9961 21.1641 26.0742 20.1484C26.1719 19.1328 26.2207 18.2344 26.2207 17.4531C26.2207 16.9453 26.2012 16.3691 26.1621 15.7246C26.1426 15.0801 26.0742 14.4355 25.957 13.791C25.8398 13.127 25.6738 12.4824 25.459 11.8574C25.2441 11.2324 24.9609 10.6758 24.6094 10.1875C24.2578 9.67969 23.8184 9.2793 23.291 8.98633C22.7637 8.69336 22.1387 8.54688 21.416 8.54688ZM21.416 6.78906C22.8223 6.78906 23.9746 7.10156 24.873 7.72656C25.7715 8.33203 26.4746 9.13281 26.9824 10.1289C27.4902 11.125 27.832 12.2676 28.0078 13.5566C28.2031 14.8262 28.3008 16.125 28.3008 17.4531C28.3008 18.7812 28.2031 20.0801 28.0078 21.3496C27.832 22.6191 27.4902 23.7617 26.9824 24.7773C26.4746 25.793 25.7715 26.6133 24.873 27.2383C23.9746 27.8438 22.8223 28.1465 21.416 28.1465C19.9902 28.1465 18.8281 27.8438 17.9297 27.2383C17.0312 26.6133 16.3281 25.793 15.8203 24.7773C15.3125 23.7617 14.9609 22.6191 14.7656 21.3496C14.5898 20.0801 14.502 18.7812 14.502 17.4531C14.502 16.125 14.5898 14.8262 14.7656 13.5566C14.9609 12.2676 15.3125 11.125 15.8203 10.1289C16.3281 9.13281 17.0312 8.33203 17.9297 7.72656C18.8281 7.10156 19.9902 6.78906 21.416 6.78906ZM38.7305 8.54688C37.9883 8.54688 37.3535 8.69336 36.8262 8.98633C36.3184 9.2793 35.8789 9.67969 35.5078 10.1875C35.1562 10.6758 34.873 11.2324 34.6582 11.8574C34.4629 12.4824 34.3066 13.127 34.1895 13.791C34.0723 14.4355 33.9941 15.0801 33.9551 15.7246C33.9355 16.3691 33.9258 16.9453 33.9258 17.4531C33.9258 18.2344 33.9648 19.1328 34.043 20.1484C34.1406 21.1641 34.3457 22.1309 34.6582 23.0488C34.9902 23.9668 35.4688 24.748 36.0938 25.3926C36.7383 26.0176 37.6172 26.3301 38.7305 26.3301C39.8242 26.3301 40.6934 26.0176 41.3379 25.3926C41.9824 24.748 42.4609 23.9668 42.7734 23.0488C43.1055 22.1309 43.3105 21.1641 43.3887 20.1484C43.4863 19.1328 43.5352 18.2344 43.5352 17.4531C43.5352 16.9453 43.5156 16.3691 43.4766 15.7246C43.457 15.0801 43.3887 14.4355 43.2715 13.791C43.1543 13.127 42.9883 12.4824 42.7734 11.8574C42.5586 11.2324 42.2754 10.6758 41.9238 10.1875C41.5723 9.67969 41.1328 9.2793 40.6055 8.98633C40.0781 8.69336 39.4531 8.54688 38.7305 8.54688ZM38.7305 6.78906C40.1367 6.78906 41.2891 7.10156 42.1875 7.72656C43.0859 8.33203 43.7891 9.13281 44.2969 10.1289C44.8047 11.125 45.1465 12.2676 45.3223 13.5566C45.5176 14.8262 45.6152 16.125 45.6152 17.4531C45.6152 18.7812 45.5176 20.0801 45.3223 21.3496C45.1465 22.6191 44.8047 23.7617 44.2969 24.7773C43.7891 25.793 43.0859 26.6133 42.1875 27.2383C41.2891 27.8438 40.1367 28.1465 38.7305 28.1465C37.3047 28.1465 36.1426 27.8438 35.2441 27.2383C34.3457 26.6133 33.6426 25.793 33.1348 24.7773C32.627 23.7617 32.2754 22.6191 32.0801 21.3496C31.9043 20.0801 31.8164 18.7812 31.8164 17.4531C31.8164 16.125 31.9043 14.8262 32.0801 13.5566C32.2754 12.2676 32.627 11.125 33.1348 10.1289C33.6426 9.13281 34.3457 8.33203 35.2441 7.72656C36.1426 7.10156 37.3047 6.78906 38.7305 6.78906ZM52.8809 30.7832V22.082H70.8105V30.7832H52.8809ZM63.5156 19.2695C61.9141 18.5469 60.7031 17.8438 59.8828 17.1602C59.0625 16.457 58.457 15.8418 58.0664 15.3145C57.7344 14.8652 57.5098 14.4844 57.3926 14.1719C57.2754 13.8398 57.1973 13.5371 57.1582 13.2637H56.6602C56.6211 13.5371 56.543 13.8594 56.4258 14.2305C56.3086 14.6016 56.1328 14.9824 55.8984 15.373C55.6641 15.7832 55.3809 16.1934 55.0488 16.6035C54.7363 17.0137 54.3457 17.4336 53.877 17.8633C53.4277 18.2734 52.8809 18.7031 52.2363 19.1523C51.5918 19.6016 50.8203 20.0605 49.9219 20.5293L48.5449 19.0938C50.2246 18.2539 51.5527 17.3652 52.5293 16.4277C53.5059 15.4707 54.2383 14.5137 54.7266 13.5566C55.2344 12.5996 55.5469 11.6816 55.6641 10.8027C55.8008 9.9043 55.8691 9.09375 55.8691 8.37109V8.22461H49.4531V6.49609H64.1016V8.22461H57.8906V8.37109C57.8906 9.07422 57.9492 9.83594 58.0664 10.6562C58.2031 11.4766 58.5059 12.3066 58.9746 13.1465C59.4629 13.9668 60.166 14.7773 61.084 15.5781C62.0215 16.3594 63.291 17.0625 64.8926 17.6875L63.5156 19.2695ZM68.7891 23.8105H54.9023V29.0547H68.7891V23.8105ZM68.7891 20.207V13.1465H62.5195V11.4766H68.7891V5.03125H70.8105V20.207H68.7891Z" fill="#666666"/>
    <line x1="60" y1="416.5" x2="415" y2="416.5" stroke="#666666"/>
    <path d="M37.6719 405.547C36.9297 405.547 36.2949 405.693 35.7676 405.986C35.2598 406.279 34.8203 406.68 34.4492 407.188C34.0977 407.676 33.8145 408.232 33.5996 408.857C33.4043 409.482 33.248 410.127 33.1309 410.791C33.0137 411.436 32.9355 412.08 32.8965 412.725C32.877 413.369 32.8672 413.945 32.8672 414.453C32.8672 415.234 32.9062 416.133 32.9844 417.148C33.082 418.164 33.2871 419.131 33.5996 420.049C33.9316 420.967 34.4102 421.748 35.0352 422.393C35.6797 423.018 36.5586 423.33 37.6719 423.33C38.7656 423.33 39.6348 423.018 40.2793 422.393C40.9238 421.748 41.4023 420.967 41.7148 420.049C42.0469 419.131 42.252 418.164 42.3301 417.148C42.4277 416.133 42.4766 415.234 42.4766 414.453C42.4766 413.945 42.457 413.369 42.418 412.725C42.3984 412.08 42.3301 411.436 42.2129 410.791C42.0957 410.127 41.9297 409.482 41.7148 408.857C41.5 408.232 41.2168 407.676 40.8652 407.188C40.5137 406.68 40.0742 406.279 39.5469 405.986C39.0195 405.693 38.3945 405.547 37.6719 405.547ZM37.6719 403.789C39.0781 403.789 40.2305 404.102 41.1289 404.727C42.0273 405.332 42.7305 406.133 43.2383 407.129C43.7461 408.125 44.0879 409.268 44.2637 410.557C44.459 411.826 44.5566 413.125 44.5566 414.453C44.5566 415.781 44.459 417.08 44.2637 418.35C44.0879 419.619 43.7461 420.762 43.2383 421.777C42.7305 422.793 42.0273 423.613 41.1289 424.238C40.2305 424.844 39.0781 425.146 37.6719 425.146C36.2461 425.146 35.084 424.844 34.1855 424.238C33.2871 423.613 32.584 422.793 32.0762 421.777C31.5684 420.762 31.2168 419.619 31.0215 418.35C30.8457 417.08 30.7578 415.781 30.7578 414.453C30.7578 413.125 30.8457 411.826 31.0215 410.557C31.2168 409.268 31.5684 408.125 32.0762 407.129C32.584 406.133 33.2871 405.332 34.1855 404.727C35.084 404.102 36.2461 403.789 37.6719 403.789Z" fill="#666666"/>
    <path d="M290 193C290 187.477 294.477 183 300 183H345C350.523 183 355 187.477 355 193V416H290V193Z" fill="#F9D9DF"/>
</svg>
