<svg width="582" height="456" viewBox="0 0 582 456" fill="none" xmlns="http://www.w3.org/2000/svg">
    <line x1="0.5" y1="-2.18557e-08" x2="0.500016" y2="356" stroke="#666666"/>
    <line x1="515" y1="356.5" y2="356.5" stroke="#666666"/>
    <line x1="515" y1="91.5" x2="1" y2="91.5" stroke="#DDDDDD" stroke-width="3" stroke-dasharray="5 5"/>
    <path d="M537.051 82.1836L541.797 78.2285H543.496V99H541.592V80.5723L538.193 83.5312L537.051 82.1836ZM556.064 77.7891C556.904 77.7891 557.695 77.8965 558.438 78.1113C559.199 78.3262 559.863 78.6582 560.43 79.1074C560.996 79.5371 561.445 80.0938 561.777 80.7773C562.109 81.4414 562.275 82.2227 562.275 83.1211C562.275 83.9414 562.09 84.7812 561.719 85.6406C561.367 86.5 560.889 87.3691 560.283 88.248C559.697 89.1074 559.023 89.9668 558.262 90.8262C557.52 91.666 556.758 92.4766 555.977 93.2578C555.215 94.0195 554.463 94.7422 553.721 95.4258C552.998 96.0898 552.373 96.6758 551.846 97.1836H562.568V99H549.502V96.9199C549.951 96.5098 550.527 95.9824 551.23 95.3379C551.934 94.6738 552.676 93.9414 553.457 93.1406C554.258 92.3203 555.059 91.4609 555.859 90.5625C556.66 89.6641 557.383 88.7754 558.027 87.8965C558.672 87.0176 559.189 86.1777 559.58 85.377C559.99 84.5762 560.195 83.8633 560.195 83.2383C560.195 82.6328 560.078 82.1055 559.844 81.6562C559.629 81.1875 559.326 80.7969 558.936 80.4844C558.564 80.1719 558.125 79.9375 557.617 79.7812C557.109 79.625 556.572 79.5469 556.006 79.5469C555.146 79.5469 554.248 79.7324 553.311 80.1035C552.373 80.4551 551.494 80.8652 550.674 81.334L550.322 79.4297C551.084 79.0586 551.943 78.6973 552.9 78.3457C553.877 77.9746 554.932 77.7891 556.064 77.7891ZM572.998 79.5469C572.256 79.5469 571.621 79.6934 571.094 79.9863C570.586 80.2793 570.146 80.6797 569.775 81.1875C569.424 81.6758 569.141 82.2324 568.926 82.8574C568.73 83.4824 568.574 84.127 568.457 84.791C568.34 85.4355 568.262 86.0801 568.223 86.7246C568.203 87.3691 568.193 87.9453 568.193 88.4531C568.193 89.2344 568.232 90.1328 568.311 91.1484C568.408 92.1641 568.613 93.1309 568.926 94.0488C569.258 94.9668 569.736 95.748 570.361 96.3926C571.006 97.0176 571.885 97.3301 572.998 97.3301C574.092 97.3301 574.961 97.0176 575.605 96.3926C576.25 95.748 576.729 94.9668 577.041 94.0488C577.373 93.1309 577.578 92.1641 577.656 91.1484C577.754 90.1328 577.803 89.2344 577.803 88.4531C577.803 87.9453 577.783 87.3691 577.744 86.7246C577.725 86.0801 577.656 85.4355 577.539 84.791C577.422 84.127 577.256 83.4824 577.041 82.8574C576.826 82.2324 576.543 81.6758 576.191 81.1875C575.84 80.6797 575.4 80.2793 574.873 79.9863C574.346 79.6934 573.721 79.5469 572.998 79.5469ZM572.998 77.7891C574.404 77.7891 575.557 78.1016 576.455 78.7266C577.354 79.332 578.057 80.1328 578.564 81.1289C579.072 82.125 579.414 83.2676 579.59 84.5566C579.785 85.8262 579.883 87.125 579.883 88.4531C579.883 89.7812 579.785 91.0801 579.59 92.3496C579.414 93.6191 579.072 94.7617 578.564 95.7773C578.057 96.793 577.354 97.6133 576.455 98.2383C575.557 98.8438 574.404 99.1465 572.998 99.1465C571.572 99.1465 570.41 98.8438 569.512 98.2383C568.613 97.6133 567.91 96.793 567.402 95.7773C566.895 94.7617 566.543 93.6191 566.348 92.3496C566.172 91.0801 566.084 89.7812 566.084 88.4531C566.084 87.125 566.172 85.8262 566.348 84.5566C566.543 83.2676 566.895 82.125 567.402 81.1289C567.91 80.1328 568.613 79.332 569.512 78.7266C570.41 78.1016 571.572 77.7891 572.998 77.7891Z" fill="#666666"/>
    <path d="M533.543 47.5156H536.941C537.527 47.5156 538.133 47.4863 538.758 47.4277C539.383 47.3496 539.949 47.2031 540.457 46.9883C540.984 46.7734 541.414 46.4707 541.746 46.0801C542.078 45.6699 542.244 45.1328 542.244 44.4688C542.244 43.7461 542.078 43.1895 541.746 42.7988C541.414 42.3887 540.994 42.0957 540.486 41.9199C539.998 41.7441 539.461 41.6465 538.875 41.627C538.309 41.5879 537.781 41.5684 537.293 41.5684H533.543V47.5156ZM541.365 48.5996C541.932 48.6973 542.42 48.9121 542.83 49.2441C543.26 49.5566 543.611 49.9277 543.885 50.3574C544.158 50.7676 544.363 51.2168 544.5 51.7051C544.637 52.1738 544.725 52.6133 544.764 53.0234C544.803 53.5898 544.852 54.1953 544.91 54.8398C544.969 55.4648 545.037 56.0605 545.115 56.627C545.213 57.1934 545.32 57.6914 545.438 58.1211C545.574 58.5508 545.73 58.8438 545.906 59H542.625C542.449 58.5898 542.312 58.1699 542.215 57.7402C542.117 57.291 542.039 56.8516 541.98 56.4219C541.922 55.9922 541.873 55.5918 541.834 55.2207C541.814 54.8301 541.785 54.4883 541.746 54.1953C541.648 53.4922 541.551 52.8965 541.453 52.4082C541.355 51.9199 541.189 51.5293 540.955 51.2363C540.721 50.9238 540.398 50.6992 539.988 50.5625C539.578 50.4062 539.021 50.3184 538.318 50.2988H533.543V59H530.555V38.7852H537.732C538.689 38.7852 539.617 38.873 540.516 39.0488C541.434 39.2246 542.244 39.5273 542.947 39.957C543.67 40.3867 544.246 40.9531 544.676 41.6562C545.105 42.3594 545.32 43.2383 545.32 44.293C545.32 44.918 545.193 45.4844 544.939 45.9922C544.686 46.4805 544.363 46.9004 543.973 47.252C543.582 47.6035 543.152 47.8867 542.684 48.1016C542.234 48.3164 541.795 48.4629 541.365 48.541V48.5996ZM561.17 55.1621V58.0039C560.838 58.1797 560.506 58.3457 560.174 58.502C559.842 58.6387 559.48 58.7656 559.09 58.8828C558.699 58.9805 558.26 59.0586 557.771 59.1172C557.283 59.1758 556.717 59.2051 556.072 59.2051C554.744 59.2051 553.602 59.0098 552.645 58.6191C551.707 58.209 550.926 57.6523 550.301 56.9492C549.695 56.2461 549.246 55.416 548.953 54.459C548.68 53.4824 548.543 52.4375 548.543 51.3242C548.543 50.0938 548.719 49 549.07 48.043C549.422 47.0664 549.91 46.2363 550.535 45.5527C551.18 44.8691 551.932 44.3516 552.791 44C553.65 43.6289 554.588 43.4434 555.604 43.4434C556.717 43.4434 557.693 43.6387 558.533 44.0293C559.373 44.4004 560.066 44.918 560.613 45.582C561.18 46.2461 561.6 47.0273 561.873 47.9258C562.166 48.8242 562.312 49.791 562.312 50.8262V52.2617H551.531C551.629 53.668 552.078 54.752 552.879 55.5137C553.68 56.2754 554.803 56.6562 556.248 56.6562C557.439 56.6562 558.416 56.5 559.178 56.1875C559.939 55.875 560.604 55.5332 561.17 55.1621ZM551.59 49.6836H559.354C559.314 48.5703 558.982 47.6719 558.357 46.9883C557.732 46.2852 556.844 45.9336 555.691 45.9336C554.5 45.9336 553.543 46.2949 552.82 47.0176C552.117 47.7402 551.707 48.6289 551.59 49.6836ZM574.266 37.4375V39.6348C573.992 39.5762 573.689 39.5371 573.357 39.5176C573.025 39.4785 572.771 39.459 572.596 39.459C572.127 39.459 571.756 39.5273 571.482 39.6641C571.229 39.8008 571.033 39.9961 570.896 40.25C570.779 40.5039 570.701 40.8066 570.662 41.1582C570.643 41.5098 570.633 41.9004 570.633 42.3301V43.8828H574.148V46.4609H570.633V59H567.762V46.4609H564.656V43.8828H567.762V41.0117C567.762 38.2773 569.188 36.9102 572.039 36.9102C572.234 36.9102 572.566 36.959 573.035 37.0566C573.504 37.1543 573.914 37.2812 574.266 37.4375ZM580.535 59.5566H576.756V55.748H580.535V59.5566Z" fill="#333333"/>
    <path d="M543.672 338.547C542.93 338.547 542.295 338.693 541.768 338.986C541.26 339.279 540.82 339.68 540.449 340.188C540.098 340.676 539.814 341.232 539.6 341.857C539.404 342.482 539.248 343.127 539.131 343.791C539.014 344.436 538.936 345.08 538.896 345.725C538.877 346.369 538.867 346.945 538.867 347.453C538.867 348.234 538.906 349.133 538.984 350.148C539.082 351.164 539.287 352.131 539.6 353.049C539.932 353.967 540.41 354.748 541.035 355.393C541.68 356.018 542.559 356.33 543.672 356.33C544.766 356.33 545.635 356.018 546.279 355.393C546.924 354.748 547.402 353.967 547.715 353.049C548.047 352.131 548.252 351.164 548.33 350.148C548.428 349.133 548.477 348.234 548.477 347.453C548.477 346.945 548.457 346.369 548.418 345.725C548.398 345.08 548.33 344.436 548.213 343.791C548.096 343.127 547.93 342.482 547.715 341.857C547.5 341.232 547.217 340.676 546.865 340.188C546.514 339.68 546.074 339.279 545.547 338.986C545.02 338.693 544.395 338.547 543.672 338.547ZM543.672 336.789C545.078 336.789 546.23 337.102 547.129 337.727C548.027 338.332 548.73 339.133 549.238 340.129C549.746 341.125 550.088 342.268 550.264 343.557C550.459 344.826 550.557 346.125 550.557 347.453C550.557 348.781 550.459 350.08 550.264 351.35C550.088 352.619 549.746 353.762 549.238 354.777C548.73 355.793 548.027 356.613 547.129 357.238C546.23 357.844 545.078 358.146 543.672 358.146C542.246 358.146 541.084 357.844 540.186 357.238C539.287 356.613 538.584 355.793 538.076 354.777C537.568 353.762 537.217 352.619 537.021 351.35C536.846 350.08 536.758 348.781 536.758 347.453C536.758 346.125 536.846 344.826 537.021 343.557C537.217 342.268 537.568 341.125 538.076 340.129C538.584 339.133 539.287 338.332 540.186 337.727C541.084 337.102 542.246 336.789 543.672 336.789Z" fill="#666666"/>
    <path d="M57.2871 385.586L61.3887 382.188H62.8242V398.945H61.1543V384.209L58.2832 386.729L57.2871 385.586ZM61.623 376.299C65.8613 376.299 69.2793 377.637 71.877 380.312C74.4746 382.988 75.7734 386.309 75.7734 390.273C75.7734 394.277 74.4941 397.607 71.9355 400.264C69.3965 402.939 65.959 404.277 61.623 404.277C57.3848 404.277 53.9668 402.939 51.3691 400.264C48.791 397.607 47.502 394.277 47.502 390.273C47.502 386.309 48.8008 382.988 51.3984 380.312C53.9961 377.637 57.4043 376.299 61.623 376.299ZM61.623 377.471C57.8926 377.471 54.8066 378.682 52.3652 381.104C49.9238 383.525 48.7031 386.602 48.7031 390.332C48.7031 393.926 49.875 396.963 52.2188 399.443C54.5625 401.904 57.6973 403.135 61.623 403.135C65.5684 403.135 68.7129 401.895 71.0566 399.414C73.4004 396.914 74.5723 393.887 74.5723 390.332C74.5723 386.562 73.3418 383.477 70.8809 381.074C68.4395 378.672 65.3535 377.471 61.623 377.471Z" fill="#666666"/>
    <path d="M68.8516 452.168V447.422C67.1523 447.793 65.248 448.047 63.1387 448.184C61.0488 448.301 58.7832 448.359 56.3418 448.359H49.0469V446.631H56.3711H57.3086V440.947H59.3301V446.602C61.0488 446.562 62.709 446.484 64.3105 446.367C65.9316 446.23 67.4453 445.996 68.8516 445.664V427.031H70.873V437.725H76V439.453H70.873V452.168H68.8516ZM58.0703 434.883C58.0508 435.02 57.9824 435.264 57.8652 435.615C57.748 435.947 57.6113 436.25 57.4551 436.523C56.9863 437.324 56.293 438.125 55.375 438.926C54.4766 439.727 53.2363 440.566 51.6543 441.445L50.3652 439.98C51.6738 439.336 52.7676 438.652 53.6465 437.93C54.5449 437.207 55.2676 436.465 55.8145 435.703C56.3613 434.941 56.7422 434.189 56.957 433.447C57.1914 432.705 57.3086 432.002 57.3086 431.338V430.518H51.0977V428.789H65.5996V430.518H59.3301V431.338C59.3301 431.963 59.4473 432.646 59.6816 433.389C59.916 434.111 60.3066 434.844 60.8535 435.586C61.4004 436.309 62.1133 437.012 62.9922 437.695C63.8711 438.359 64.9551 438.936 66.2441 439.424L65.1309 441.006C63.5488 440.322 62.2793 439.58 61.3223 438.779C60.3848 437.959 59.6816 437.178 59.2129 436.436C59.0371 436.162 58.8809 435.869 58.7441 435.557C58.627 435.244 58.5586 435.02 58.5391 434.883H58.0703Z" fill="#666666"/>
    <path d="M129.633 434.121C129.633 433.145 129.799 432.266 130.131 431.484C130.463 430.703 130.922 430.039 131.508 429.492C132.113 428.926 132.826 428.496 133.646 428.203C134.467 427.91 135.365 427.764 136.342 427.764C137.299 427.764 138.188 427.91 139.008 428.203C139.828 428.496 140.531 428.926 141.117 429.492C141.723 430.039 142.191 430.703 142.523 431.484C142.855 432.266 143.021 433.145 143.021 434.121C143.021 435.098 142.855 435.977 142.523 436.758C142.191 437.539 141.723 438.213 141.117 438.779C140.531 439.326 139.828 439.756 139.008 440.068C138.188 440.361 137.299 440.508 136.342 440.508C135.365 440.508 134.467 440.361 133.646 440.068C132.826 439.756 132.113 439.326 131.508 438.779C130.922 438.213 130.463 437.539 130.131 436.758C129.799 435.977 129.633 435.098 129.633 434.121ZM132.24 452.783V451.055H137.104V445.518H132.68V443.789H151.459V445.518H147.562V451.055H151.898V452.783H132.24ZM131.566 434.121C131.566 434.844 131.684 435.498 131.918 436.084C132.152 436.65 132.484 437.139 132.914 437.549C133.344 437.939 133.852 438.242 134.438 438.457C135.023 438.672 135.658 438.779 136.342 438.779C137.025 438.779 137.65 438.672 138.217 438.457C138.803 438.242 139.311 437.939 139.74 437.549C140.17 437.139 140.502 436.65 140.736 436.084C140.971 435.498 141.088 434.844 141.088 434.121C141.088 433.398 140.971 432.754 140.736 432.188C140.502 431.602 140.17 431.113 139.74 430.723C139.311 430.332 138.803 430.029 138.217 429.814C137.65 429.6 137.025 429.492 136.342 429.492C135.658 429.492 135.023 429.6 134.438 429.814C133.852 430.029 133.344 430.332 132.914 430.723C132.484 431.113 132.152 431.602 131.918 432.188C131.684 432.754 131.566 433.398 131.566 434.121ZM148.998 441.914V427.031H151.02V433.916H155.854V435.645H151.02V441.914H148.998ZM138.92 451.055H145.746V445.518H138.92V451.055Z" fill="#666666"/>
    <path d="M212.002 433.271C212.002 432.451 212.197 431.699 212.588 431.016C212.998 430.312 213.604 429.717 214.404 429.229C215.205 428.721 216.211 428.33 217.422 428.057C218.633 427.783 220.049 427.646 221.67 427.646C223.271 427.646 224.678 427.783 225.889 428.057C227.1 428.33 228.105 428.721 228.906 429.229C229.727 429.717 230.332 430.312 230.723 431.016C231.133 431.699 231.338 432.451 231.338 433.271C231.338 434.092 231.133 434.854 230.723 435.557C230.332 436.24 229.727 436.836 228.906 437.344C228.105 437.832 227.1 438.213 225.889 438.486C224.678 438.76 223.271 438.896 221.67 438.896C220.049 438.896 218.633 438.76 217.422 438.486C216.211 438.213 215.205 437.832 214.404 437.344C213.604 436.836 212.998 436.24 212.588 435.557C212.197 434.854 212.002 434.092 212.002 433.271ZM213.906 433.271C213.906 434.463 214.561 435.43 215.869 436.172C217.178 436.895 219.111 437.256 221.67 437.256C224.229 437.256 226.162 436.895 227.471 436.172C228.779 435.43 229.434 434.463 229.434 433.271C229.434 432.08 228.779 431.113 227.471 430.371C226.162 429.629 224.229 429.258 221.67 429.258C219.111 429.258 217.178 429.629 215.869 430.371C214.561 431.113 213.906 432.08 213.906 433.271ZM220.645 452.461V444.229H209.512V442.471H233.828V444.229H222.666V452.461H220.645Z" fill="#666666"/>
    <path d="M276.939 449.004C276.939 447.539 277.74 446.426 279.342 445.664C280.768 444.98 282.867 444.6 285.641 444.521V441.27H274.215V439.541H299.117V441.27H287.662V444.521C290.416 444.58 292.516 444.961 293.961 445.664C295.582 446.426 296.393 447.539 296.393 449.004C296.393 450.469 295.582 451.582 293.961 452.344C292.34 453.125 289.908 453.516 286.666 453.516C283.385 453.516 280.943 453.125 279.342 452.344C277.74 451.582 276.939 450.469 276.939 449.004ZM286.52 432.012C286.441 432.227 286.334 432.451 286.197 432.686C286.061 432.92 285.865 433.164 285.611 433.418C284.889 434.141 283.844 434.873 282.477 435.615C281.129 436.338 279.352 436.924 277.145 437.373L276.266 435.82C277.828 435.508 279.195 435.088 280.367 434.561C281.539 434.033 282.516 433.477 283.297 432.891C284.078 432.305 284.664 431.738 285.055 431.191C285.445 430.625 285.641 430.137 285.641 429.727V429.639H277.086V427.91H296.275V429.639H287.721V429.727C287.721 430.137 287.896 430.615 288.248 431.162C288.6 431.709 289.146 432.256 289.889 432.803C290.65 433.33 291.617 433.838 292.789 434.326C293.98 434.795 295.406 435.166 297.066 435.439L296.188 437.051C294.02 436.66 292.262 436.133 290.914 435.469C289.586 434.785 288.551 434.102 287.809 433.418C287.555 433.184 287.35 432.949 287.193 432.715C287.057 432.461 286.959 432.227 286.9 432.012H286.52ZM278.99 449.004C278.99 449.98 279.674 450.703 281.041 451.172C282.428 451.641 284.303 451.875 286.666 451.875C289.01 451.875 290.875 451.641 292.262 451.172C293.648 450.703 294.342 449.98 294.342 449.004C294.342 448.027 293.648 447.305 292.262 446.836C290.875 446.367 289.01 446.133 286.666 446.133C284.303 446.133 282.428 446.367 281.041 446.836C279.674 447.305 278.99 448.027 278.99 449.004ZM321.998 442.5V427.031H324.02V433.916H328.854V435.645H324.02V442.5H321.998ZM304.566 434.121C304.566 434.844 304.684 435.498 304.918 436.084C305.152 436.65 305.484 437.139 305.914 437.549C306.344 437.939 306.852 438.242 307.438 438.457C308.023 438.672 308.658 438.779 309.342 438.779C310.025 438.779 310.65 438.672 311.217 438.457C311.803 438.242 312.311 437.939 312.74 437.549C313.17 437.139 313.502 436.65 313.736 436.084C313.971 435.498 314.088 434.844 314.088 434.121C314.088 433.398 313.971 432.754 313.736 432.188C313.502 431.602 313.17 431.113 312.74 430.723C312.311 430.332 311.803 430.029 311.217 429.814C310.65 429.6 310.025 429.492 309.342 429.492C308.658 429.492 308.023 429.6 307.438 429.814C306.852 430.029 306.344 430.332 305.914 430.723C305.484 431.113 305.152 431.602 304.918 432.188C304.684 432.754 304.566 433.398 304.566 434.121ZM302.633 434.121C302.633 433.145 302.799 432.266 303.131 431.484C303.463 430.703 303.922 430.039 304.508 429.492C305.113 428.926 305.826 428.496 306.646 428.203C307.467 427.91 308.365 427.764 309.342 427.764C310.299 427.764 311.188 427.91 312.008 428.203C312.828 428.496 313.531 428.926 314.117 429.492C314.723 430.039 315.191 430.703 315.523 431.484C315.855 432.266 316.021 433.145 316.021 434.121C316.021 435.098 315.855 435.977 315.523 436.758C315.191 437.539 314.723 438.213 314.117 438.779C313.531 439.326 312.828 439.756 312.008 440.068C311.188 440.361 310.299 440.508 309.342 440.508C308.365 440.508 307.467 440.361 306.646 440.068C305.826 439.756 305.113 439.326 304.508 438.779C303.922 438.213 303.463 437.539 303.131 436.758C302.799 435.977 302.633 435.098 302.633 434.121ZM305.943 448.271C305.943 446.846 306.686 445.713 308.17 444.873C309.654 444.033 311.998 443.613 315.201 443.613C318.365 443.613 320.699 444.033 322.203 444.873C323.707 445.713 324.459 446.846 324.459 448.271C324.459 449.697 323.707 450.83 322.203 451.67C320.699 452.51 318.365 452.93 315.201 452.93C311.998 452.93 309.654 452.51 308.17 451.67C306.686 450.83 305.943 449.697 305.943 448.271ZM307.994 448.271C307.994 449.287 308.609 450.049 309.84 450.557C311.09 451.064 312.877 451.318 315.201 451.318C317.506 451.318 319.283 451.064 320.533 450.557C321.783 450.049 322.408 449.287 322.408 448.271C322.408 447.256 321.783 446.494 320.533 445.986C319.283 445.479 317.506 445.225 315.201 445.225C312.877 445.225 311.09 445.479 309.84 445.986C308.609 446.494 307.994 447.256 307.994 448.271Z" fill="#666666"/>
    <path d="M347.088 448.213C347.088 446.729 347.83 445.576 349.314 444.756C350.799 443.916 353.143 443.496 356.346 443.496C359.529 443.496 361.863 443.906 363.348 444.727C364.852 445.547 365.604 446.709 365.604 448.213C365.604 449.717 364.852 450.879 363.348 451.699C361.863 452.52 359.529 452.93 356.346 452.93C353.143 452.93 350.799 452.52 349.314 451.699C347.83 450.879 347.088 449.717 347.088 448.213ZM349.021 448.213C349.021 449.307 349.656 450.088 350.926 450.557C352.215 451.025 354.021 451.26 356.346 451.26C358.65 451.26 360.447 451.025 361.736 450.557C363.025 450.088 363.67 449.307 363.67 448.213C363.67 447.119 363.025 446.338 361.736 445.869C360.447 445.4 358.65 445.166 356.346 445.166C354.021 445.166 352.215 445.4 350.926 445.869C349.656 446.338 349.021 447.119 349.021 448.213ZM357.869 441.27C356.268 440.547 355.057 439.844 354.236 439.16C353.416 438.457 352.811 437.842 352.42 437.314C352.088 436.865 351.863 436.484 351.746 436.172C351.629 435.84 351.551 435.537 351.512 435.264H351.014C350.975 435.537 350.896 435.859 350.779 436.23C350.662 436.602 350.486 436.982 350.252 437.373C350.018 437.783 349.734 438.193 349.402 438.604C349.09 439.014 348.699 439.434 348.23 439.863C347.781 440.273 347.234 440.703 346.59 441.152C345.945 441.602 345.174 442.061 344.275 442.529L342.898 441.094C344.578 440.254 345.906 439.365 346.883 438.428C347.859 437.471 348.592 436.514 349.08 435.557C349.588 434.6 349.9 433.682 350.018 432.803C350.154 431.904 350.223 431.094 350.223 430.371V430.225H343.807V428.496H358.455V430.225H352.244V430.371C352.244 431.074 352.303 431.836 352.42 432.656C352.557 433.477 352.859 434.307 353.328 435.146C353.816 435.967 354.52 436.777 355.438 437.578C356.375 438.359 357.645 439.062 359.246 439.688L357.869 441.27ZM363.143 442.354V435.146H356.873V433.477H363.143V427.031H365.164V442.354H363.143ZM380.691 452.461V443.643H369.559V441.885H393.875V443.643H382.713V452.461H380.691ZM381.57 432.129C381.531 432.344 381.434 432.607 381.277 432.92C381.121 433.213 380.936 433.496 380.721 433.77C380.096 434.59 379.07 435.391 377.645 436.172C376.238 436.934 374.422 437.568 372.195 438.076L371.316 436.523C373.113 436.113 374.607 435.635 375.799 435.088C377.01 434.541 377.977 433.945 378.699 433.301C379.422 432.637 379.93 431.943 380.223 431.221C380.535 430.479 380.691 429.727 380.691 428.965V428.027H382.771V428.965C382.771 429.746 382.928 430.498 383.24 431.221C383.572 431.943 384.1 432.617 384.822 433.242C385.564 433.867 386.531 434.434 387.723 434.941C388.914 435.43 390.379 435.83 392.117 436.143L391.238 437.754C389.109 437.305 387.332 436.719 385.906 435.996C384.5 435.254 383.484 434.512 382.859 433.77C382.625 433.496 382.42 433.213 382.244 432.92C382.088 432.607 381.99 432.344 381.951 432.129H381.57ZM416.756 452.168V446.074C414.939 446.621 412.82 447.002 410.398 447.217C407.996 447.432 405.359 447.539 402.488 447.539H398.27V437.256H408.406V430.518H398.27V428.789H410.428V438.926H400.291V445.811H402.518C403.807 445.811 405.086 445.791 406.355 445.752C407.645 445.713 408.895 445.635 410.105 445.518C411.316 445.4 412.479 445.244 413.592 445.049C414.725 444.834 415.779 444.57 416.756 444.258V427.031H418.777V452.168H416.756Z" fill="#666666"/>
    <path d="M469.756 452.168V442.676C468.271 442.949 466.65 443.135 464.893 443.232C463.135 443.311 461.26 443.359 459.268 443.379C459.268 445.039 459.199 446.572 459.062 447.979C458.926 449.365 458.633 450.635 458.184 451.787L456.221 451.289C456.67 450.156 456.953 448.906 457.07 447.539C457.188 446.172 457.246 444.785 457.246 443.379H449.805V441.68H458.564C460.518 441.68 462.451 441.641 464.365 441.562C466.279 441.465 468.076 441.26 469.756 440.947V427.031H471.777V452.168H469.756ZM465.801 437.578C465.195 437.695 464.453 437.793 463.574 437.871C462.695 437.93 461.787 437.959 460.85 437.959H452.119V428.496H465.039V430.225H454.141V436.201H460.879C461.66 436.201 462.471 436.172 463.311 436.113C464.17 436.055 464.912 435.947 465.537 435.791L465.801 437.578Z" fill="#666666"/>
    <path d="M141.418 381.777C142.902 381.777 144.162 382.168 145.197 382.949C146.232 383.73 146.75 384.873 146.75 386.377C146.75 387.275 146.467 388.184 145.9 389.102C145.354 390 144.465 391.006 143.234 392.119C142.883 392.451 142.004 393.164 140.598 394.258C139.211 395.332 138.283 396.094 137.814 396.543H147.014V398.096H135.793V396.25C136.164 395.898 137.092 395.146 138.576 393.994C140.061 392.842 141.135 391.943 141.799 391.299C143.146 389.971 144.006 388.945 144.377 388.223C144.768 387.5 144.963 386.904 144.963 386.436C144.963 385.518 144.621 384.766 143.938 384.18C143.273 383.594 142.424 383.301 141.389 383.301C140.646 383.301 139.865 383.467 139.045 383.799C138.225 384.111 137.463 384.463 136.76 384.854L136.467 383.271C137.15 382.939 137.902 382.607 138.723 382.275C139.543 381.943 140.441 381.777 141.418 381.777ZM141.623 376.299C145.861 376.299 149.279 377.637 151.877 380.312C154.475 382.988 155.773 386.309 155.773 390.273C155.773 394.277 154.494 397.607 151.936 400.264C149.396 402.939 145.959 404.277 141.623 404.277C137.385 404.277 133.967 402.939 131.369 400.264C128.791 397.607 127.502 394.277 127.502 390.273C127.502 386.309 128.801 382.988 131.398 380.312C133.996 377.637 137.404 376.299 141.623 376.299ZM141.623 377.471C137.893 377.471 134.807 378.682 132.365 381.104C129.924 383.525 128.703 386.602 128.703 390.332C128.703 393.926 129.875 396.963 132.219 399.443C134.562 401.904 137.697 403.135 141.623 403.135C145.568 403.135 148.713 401.895 151.057 399.414C153.4 396.914 154.572 393.887 154.572 390.332C154.572 386.562 153.342 383.477 150.881 381.074C148.439 378.672 145.354 377.471 141.623 377.471Z" fill="#666666"/>
    <path d="M221.125 397.773C222.492 397.773 223.566 397.471 224.348 396.865C225.129 396.26 225.52 395.371 225.52 394.199C225.52 393.027 225.061 392.197 224.143 391.709C223.244 391.221 222.17 390.977 220.92 390.977H218.664V389.365H220.92C222.17 389.365 223.186 389.111 223.967 388.604C224.768 388.096 225.168 387.324 225.168 386.289C225.168 385.332 224.787 384.59 224.025 384.062C223.264 383.535 222.365 383.271 221.33 383.271C220.666 383.271 219.914 383.359 219.074 383.535C218.234 383.691 217.502 383.926 216.877 384.238L216.672 382.715C217.336 382.441 218.039 382.217 218.781 382.041C219.543 381.865 220.314 381.777 221.096 381.777C222.932 381.777 224.377 382.188 225.432 383.008C226.486 383.809 227.014 384.941 227.014 386.406C227.014 387.5 226.623 388.359 225.842 388.984C225.08 389.609 224.27 389.971 223.41 390.068V390.156C224.523 390.41 225.451 390.879 226.193 391.562C226.955 392.227 227.336 393.184 227.336 394.434C227.336 395.879 226.76 397.051 225.607 397.949C224.475 398.828 222.99 399.268 221.154 399.268C220.412 399.268 219.611 399.18 218.752 399.004C217.893 398.828 217.102 398.594 216.379 398.301L216.584 396.689C217.326 397.021 218.068 397.285 218.811 397.48C219.572 397.676 220.344 397.773 221.125 397.773ZM221.623 376.299C225.861 376.299 229.279 377.637 231.877 380.312C234.475 382.988 235.773 386.309 235.773 390.273C235.773 394.277 234.494 397.607 231.936 400.264C229.396 402.939 225.959 404.277 221.623 404.277C217.385 404.277 213.967 402.939 211.369 400.264C208.791 397.607 207.502 394.277 207.502 390.273C207.502 386.309 208.801 382.988 211.398 380.312C213.996 377.637 217.404 376.299 221.623 376.299ZM221.623 377.471C217.893 377.471 214.807 378.682 212.365 381.104C209.924 383.525 208.703 386.602 208.703 390.332C208.703 393.926 209.875 396.963 212.219 399.443C214.562 401.904 217.697 403.135 221.623 403.135C225.568 403.135 228.713 401.895 231.057 399.414C233.4 396.914 234.572 393.887 234.572 390.332C234.572 386.562 233.342 383.477 230.881 381.074C228.439 378.672 225.354 377.471 221.623 377.471Z" fill="#666666"/>
    <path d="M302.648 399.15V394.756H294.768V393.115L302.18 382.188H304.348V393.35H307.219V394.756H304.348V399.15H302.648ZM302.648 393.35V383.916L296.291 393.35H302.648ZM301.623 376.299C305.861 376.299 309.279 377.637 311.877 380.312C314.475 382.988 315.773 386.309 315.773 390.273C315.773 394.277 314.494 397.607 311.936 400.264C309.396 402.939 305.959 404.277 301.623 404.277C297.385 404.277 293.967 402.939 291.369 400.264C288.791 397.607 287.502 394.277 287.502 390.273C287.502 386.309 288.801 382.988 291.398 380.312C293.996 377.637 297.404 376.299 301.623 376.299ZM301.623 377.471C297.893 377.471 294.807 378.682 292.365 381.104C289.924 383.525 288.703 386.602 288.703 390.332C288.703 393.926 289.875 396.963 292.219 399.443C294.562 401.904 297.697 403.135 301.623 403.135C305.568 403.135 308.713 401.895 311.057 399.414C313.4 396.914 314.572 393.887 314.572 390.332C314.572 386.562 313.342 383.477 310.881 381.074C308.439 378.672 305.354 377.471 301.623 377.471Z" fill="#666666"/>
    <path d="M381.389 397.773C382.756 397.773 383.791 397.354 384.494 396.514C385.197 395.674 385.549 394.609 385.549 393.32C385.549 392.031 385.207 391.025 384.523 390.303C383.859 389.58 382.863 389.219 381.535 389.219C380.656 389.219 379.875 389.473 379.191 389.98C378.508 390.469 378.059 391.133 377.844 391.973H376.145L376.613 382.188H386.398V383.711H378.195L377.844 389.541L377.961 389.629C378.469 389.043 379.055 388.574 379.719 388.223C380.383 387.871 381.105 387.695 381.887 387.695C383.449 387.695 384.738 388.223 385.754 389.277C386.789 390.312 387.307 391.68 387.307 393.379C387.307 395.039 386.799 396.436 385.783 397.568C384.768 398.701 383.381 399.268 381.623 399.268C380.529 399.268 379.572 399.16 378.752 398.945C377.932 398.711 377.238 398.467 376.672 398.213L376.76 396.543C377.756 396.992 378.459 397.275 378.869 397.393C379.299 397.51 380.139 397.637 381.389 397.773ZM381.623 376.299C385.861 376.299 389.279 377.637 391.877 380.312C394.475 382.988 395.773 386.309 395.773 390.273C395.773 394.277 394.494 397.607 391.936 400.264C389.396 402.939 385.959 404.277 381.623 404.277C377.385 404.277 373.967 402.939 371.369 400.264C368.791 397.607 367.502 394.277 367.502 390.273C367.502 386.309 368.801 382.988 371.398 380.312C373.996 377.637 377.404 376.299 381.623 376.299ZM381.623 377.471C377.893 377.471 374.807 378.682 372.365 381.104C369.924 383.525 368.703 386.602 368.703 390.332C368.703 393.926 369.875 396.963 372.219 399.443C374.562 401.904 377.697 403.135 381.623 403.135C385.568 403.135 388.713 401.895 391.057 399.414C393.4 396.914 394.572 393.887 394.572 390.332C394.572 386.562 393.342 383.477 390.881 381.074C388.439 378.672 385.354 377.471 381.623 377.471Z" fill="#666666"/>
    <path d="M462.736 383.301C461.662 383.301 460.783 383.525 460.1 383.975C459.436 384.404 458.908 384.98 458.518 385.703C458.146 386.406 457.893 387.207 457.756 388.105C457.619 388.984 457.551 389.863 457.551 390.742H457.58C457.971 389.805 458.566 389.092 459.367 388.604C460.188 388.096 461.125 387.842 462.18 387.842C463.957 387.842 465.314 388.359 466.252 389.395C467.209 390.43 467.688 391.807 467.688 393.525C467.688 395.303 467.16 396.709 466.105 397.744C465.051 398.76 463.713 399.268 462.092 399.268C460.002 399.268 458.41 398.633 457.316 397.363C456.242 396.094 455.705 394.131 455.705 391.475C455.705 390.322 455.793 389.17 455.969 388.018C456.164 386.865 456.516 385.83 457.023 384.912C457.531 383.975 458.234 383.223 459.133 382.656C460.031 382.07 461.203 381.777 462.648 381.777C463.488 381.777 464.23 381.865 464.875 382.041C465.539 382.197 466.115 382.354 466.604 382.51L466.311 384.062C465.588 383.77 465.061 383.594 464.729 383.535C464.416 383.457 463.752 383.379 462.736 383.301ZM462.15 389.307C460.705 389.307 459.621 389.717 458.898 390.537C458.176 391.338 457.814 392.412 457.814 393.76C457.814 394.814 458.176 395.752 458.898 396.572C459.621 397.373 460.588 397.773 461.799 397.773C463.107 397.773 464.104 397.402 464.787 396.66C465.49 395.898 465.842 394.873 465.842 393.584C465.842 392.236 465.52 391.191 464.875 390.449C464.23 389.688 463.322 389.307 462.15 389.307ZM461.623 376.299C465.861 376.299 469.279 377.637 471.877 380.312C474.475 382.988 475.773 386.309 475.773 390.273C475.773 394.277 474.494 397.607 471.936 400.264C469.396 402.939 465.959 404.277 461.623 404.277C457.385 404.277 453.967 402.939 451.369 400.264C448.791 397.607 447.502 394.277 447.502 390.273C447.502 386.309 448.801 382.988 451.398 380.312C453.996 377.637 457.404 376.299 461.623 376.299ZM461.623 377.471C457.893 377.471 454.807 378.682 452.365 381.104C449.924 383.525 448.703 386.602 448.703 390.332C448.703 393.926 449.875 396.963 452.219 399.443C454.562 401.904 457.697 403.135 461.623 403.135C465.568 403.135 468.713 401.895 471.057 399.414C473.4 396.914 474.572 393.887 474.572 390.332C474.572 386.562 473.342 383.477 470.881 381.074C468.439 378.672 465.354 377.471 461.623 377.471Z" fill="#666666"/>
</svg>
