<svg width="415" height="529" viewBox="0 0 415 529" fill="none" xmlns="http://www.w3.org/2000/svg">
    <path d="M114.866 483.391C115.218 482.609 115.53 481.779 115.804 480.9C116.097 480.002 116.341 479.094 116.536 478.176C116.751 477.258 116.917 476.35 117.034 475.451C117.151 474.553 117.22 473.713 117.239 472.932H106.692V471.203H119.319C119.319 472.238 119.261 473.322 119.144 474.455C119.026 475.588 118.86 476.711 118.646 477.824C118.431 478.938 118.167 480.021 117.854 481.076C117.562 482.131 117.22 483.107 116.829 484.006L114.866 483.391ZM111.175 490.979C111.175 489.416 111.917 488.205 113.401 487.346C114.886 486.467 117.229 486.027 120.433 486.027C123.597 486.027 125.931 486.467 127.435 487.346C128.938 488.205 129.69 489.416 129.69 490.979C129.69 492.541 128.938 493.752 127.435 494.611C125.931 495.49 123.597 495.93 120.433 495.93C117.229 495.93 114.886 495.49 113.401 494.611C111.917 493.752 111.175 492.541 111.175 490.979ZM113.108 490.979C113.108 492.15 113.743 492.99 115.013 493.498C116.302 494.006 118.108 494.26 120.433 494.26C122.737 494.26 124.534 494.006 125.823 493.498C127.112 492.99 127.757 492.15 127.757 490.979C127.757 489.807 127.112 488.967 125.823 488.459C124.534 487.951 122.737 487.697 120.433 487.697C118.108 487.697 116.302 487.951 115.013 488.459C113.743 488.967 113.108 489.807 113.108 490.979ZM127.229 484.914V481.223H120.374V479.494H127.229V476.242H120.374V474.514H127.229V470.031H129.251V484.914H127.229ZM153.45 495.168V489.016C151.731 489.387 149.808 489.641 147.679 489.777C145.55 489.895 143.255 489.953 140.794 489.953H134.231V488.225H138.421C138.362 487.229 138.304 486.115 138.245 484.885C138.187 483.635 138.128 482.365 138.069 481.076C138.03 479.768 137.991 478.469 137.952 477.18C137.933 475.871 137.923 474.65 137.923 473.518H134.817V471.789H149.993V473.518H147.181C147.181 474.631 147.161 475.832 147.122 477.121C147.103 478.41 147.063 479.699 147.005 480.988C146.966 482.277 146.917 483.537 146.858 484.768C146.8 485.998 146.731 487.111 146.653 488.107C147.884 488.049 149.065 487.961 150.198 487.844C151.331 487.707 152.415 487.521 153.45 487.287V470.031H155.472V495.168H153.45ZM145.188 473.518H139.915C139.915 474.514 139.915 475.646 139.915 476.916C139.935 478.186 139.954 479.494 139.974 480.842C140.013 482.17 140.062 483.479 140.12 484.768C140.179 486.037 140.247 487.189 140.325 488.225H140.823C141.487 488.225 142.142 488.225 142.786 488.225C143.45 488.225 144.114 488.215 144.778 488.195C144.856 487.16 144.925 485.998 144.983 484.709C145.042 483.42 145.081 482.121 145.101 480.812C145.14 479.484 145.159 478.186 145.159 476.916C145.179 475.646 145.188 474.514 145.188 473.518ZM170.999 495.461V486.643H159.866V484.885H184.183V486.643H173.021V495.461H170.999ZM171.878 475.129C171.839 475.344 171.741 475.607 171.585 475.92C171.429 476.213 171.243 476.496 171.028 476.77C170.403 477.59 169.378 478.391 167.952 479.172C166.546 479.934 164.729 480.568 162.503 481.076L161.624 479.523C163.421 479.113 164.915 478.635 166.106 478.088C167.317 477.541 168.284 476.945 169.007 476.301C169.729 475.637 170.237 474.943 170.53 474.221C170.843 473.479 170.999 472.727 170.999 471.965V471.027H173.079V471.965C173.079 472.746 173.235 473.498 173.548 474.221C173.88 474.943 174.407 475.617 175.13 476.242C175.872 476.867 176.839 477.434 178.03 477.941C179.222 478.43 180.687 478.83 182.425 479.143L181.546 480.754C179.417 480.305 177.64 479.719 176.214 478.996C174.808 478.254 173.792 477.512 173.167 476.77C172.933 476.496 172.728 476.213 172.552 475.92C172.396 475.607 172.298 475.344 172.259 475.129H171.878ZM189.69 482.424V471.057H191.712V475.598H206.272V471.057H208.294V482.424H189.69ZM198.099 491.359V487.199H186.526V485.471H211.429V487.199H200.12V491.359H198.099ZM206.272 477.268H191.712V480.695H206.272V477.268ZM191.712 489.016V494.055H209.173V495.783H189.69V489.016H191.712ZM120.096 516.438V514.65H131.521V510.285H133.572V514.65H144.998V516.438H120.096ZM132.371 504.572C132.234 505.139 131.951 505.676 131.521 506.184C130.643 507.18 129.461 508.117 127.977 508.996C126.492 509.855 124.842 510.5 123.025 510.93L122.117 509.348C123.719 508.996 125.105 508.527 126.277 507.941C127.449 507.355 128.426 506.721 129.207 506.037C129.988 505.354 130.564 504.66 130.936 503.957C131.326 503.234 131.521 502.561 131.521 501.936V501.027H133.602V501.936C133.602 502.58 133.787 503.254 134.158 503.957C134.529 504.66 135.096 505.334 135.857 505.979C136.619 506.604 137.586 507.17 138.758 507.678C139.93 508.186 141.326 508.576 142.947 508.85L142.039 510.49C141.16 510.295 140.301 510.051 139.461 509.758C138.641 509.465 137.869 509.143 137.146 508.791C136.424 508.42 135.76 508.02 135.154 507.59C134.568 507.141 134.07 506.672 133.66 506.184C133.445 505.949 133.26 505.686 133.104 505.393C132.947 505.1 132.84 504.826 132.781 504.572H132.371ZM125.281 518.723V524.055H142.742V525.783H123.26V518.723H125.281ZM167.879 513.742V500.031H169.9V513.742H167.879ZM151.971 526.076V519.777H167.879V517.082H151.971V515.354H169.9V521.506H153.992V524.348H170.779V526.076H151.971ZM155.34 505.92C155.281 506.193 155.203 506.477 155.105 506.77C155.008 507.062 154.871 507.385 154.695 507.736C154.246 508.615 153.543 509.562 152.586 510.578C151.629 511.574 150.291 512.619 148.572 513.713L147.049 512.336C148.533 511.496 149.754 510.607 150.711 509.67C151.688 508.732 152.449 507.795 152.996 506.857C153.543 505.92 153.924 505.012 154.139 504.133C154.354 503.234 154.461 502.395 154.461 501.613V500.764H156.482V501.613C156.482 502.395 156.58 503.195 156.775 504.016C156.971 504.816 157.332 505.617 157.859 506.418C158.387 507.219 159.119 507.99 160.057 508.732C161.014 509.475 162.244 510.158 163.748 510.783L162.43 512.336C161.473 511.867 160.643 511.398 159.939 510.93C159.256 510.461 158.67 510.021 158.182 509.611C157.713 509.182 157.332 508.781 157.039 508.41C156.746 508.039 156.521 507.717 156.365 507.443C156.209 507.17 156.082 506.916 155.984 506.682C155.887 506.428 155.809 506.174 155.75 505.92H155.34ZM196.648 513.977C196.082 514.133 195.486 514.26 194.861 514.357C194.236 514.455 193.553 514.533 192.811 514.592C192.088 514.65 191.297 514.699 190.438 514.738C189.598 514.758 188.66 514.768 187.625 514.768V520.715H198.904V522.473H174.295V520.715H185.574V514.768H177.371V501.789H195.828V503.547H179.393V513.01H186.98C187.977 513.01 188.885 513 189.705 512.98C190.545 512.961 191.326 512.922 192.049 512.863C192.791 512.805 193.514 512.727 194.217 512.629C194.92 512.531 195.643 512.404 196.385 512.248L196.648 513.977Z" fill="#666666"/>
    <path d="M304.338 496.076V487.756H297.072L296.633 487.023H296.311V491.945H288.84V494.436H292.268C292.697 494.436 293.156 494.426 293.645 494.406C294.133 494.387 294.611 494.348 295.08 494.289C295.568 494.23 296.027 494.152 296.457 494.055C296.887 493.977 297.268 493.879 297.6 493.762L298.039 495.344C297.668 495.5 297.238 495.627 296.75 495.725C296.281 495.822 295.783 495.891 295.256 495.93C294.748 495.988 294.23 496.027 293.703 496.047C293.195 496.066 292.717 496.076 292.268 496.076H286.906V490.305H294.377V487.756H286.906V486.115H295.607V483.859H284.182V482.131H309.084V483.859H297.629V486.115H306.359V496.076H304.338ZM287.346 479.816V470.764H289.367V473.928H303.928V470.764H305.949V479.816H287.346ZM303.928 475.598H289.367V478.088H303.928V475.598ZM314.152 475.949C314.152 474.289 314.953 473.01 316.555 472.111C318.156 471.213 320.598 470.764 323.879 470.764C327.121 470.764 329.553 471.213 331.174 472.111C332.795 473.01 333.605 474.289 333.605 475.949C333.605 477.609 332.795 478.889 331.174 479.787C329.553 480.686 327.121 481.135 323.879 481.135C320.598 481.135 318.156 480.686 316.555 479.787C314.953 478.889 314.152 477.609 314.152 475.949ZM316.145 475.949C316.145 476.574 316.32 477.111 316.672 477.561C317.043 477.99 317.561 478.352 318.225 478.645C318.908 478.938 319.729 479.152 320.686 479.289C321.643 479.426 322.707 479.494 323.879 479.494C325.051 479.494 326.105 479.426 327.043 479.289C328 479.152 328.811 478.938 329.475 478.645C330.158 478.352 330.686 477.99 331.057 477.561C331.428 477.111 331.613 476.574 331.613 475.949C331.613 475.344 331.428 474.816 331.057 474.367C330.686 473.918 330.158 473.547 329.475 473.254C328.811 472.961 328 472.746 327.043 472.609C326.105 472.473 325.051 472.404 323.879 472.404C322.707 472.404 321.643 472.473 320.686 472.609C319.729 472.746 318.908 472.961 318.225 473.254C317.561 473.547 317.043 473.918 316.672 474.367C316.32 474.816 316.145 475.344 316.145 475.949ZM316.613 488.576V494.055H334.074V495.783H314.592V488.576H316.613ZM311.428 486.32V484.592H336.33V486.32H311.428ZM357.746 495.168V470.031H359.768V495.168H357.746ZM346.174 490.568C346.682 489.143 347.111 487.619 347.463 485.998C347.814 484.357 348.098 482.756 348.312 481.193C348.547 479.611 348.713 478.146 348.811 476.799C348.908 475.451 348.957 474.357 348.957 473.518H338.088V471.789H350.949C350.949 473.039 350.891 474.475 350.773 476.096C350.676 477.697 350.51 479.357 350.275 481.076C350.061 482.795 349.777 484.514 349.426 486.232C349.074 487.951 348.664 489.533 348.195 490.979L346.174 490.568Z" fill="#666666"/>
    <path d="M120 146C120 140.477 124.477 136 130 136H175C180.523 136 185 140.477 185 146V436H120V146Z" fill="#E66787"/>
    <path d="M151.828 104.359V105.766L145.359 121H143.531L150.188 105.812H141.234V104.359H151.828ZM164.414 104.359V105.766L157.945 121H156.117L162.773 105.812H153.82V104.359H164.414Z" fill="#666666"/>
    <path d="M315.211 17.6641C316.164 17.6016 316.938 17.3047 317.531 16.7734C318.141 16.2266 318.617 15.5703 318.961 14.8047C319.305 14.0391 319.539 13.2344 319.664 12.3906C319.789 11.5312 319.852 10.7578 319.852 10.0703H319.805C319.398 10.8672 318.805 11.4922 318.023 11.9453C317.242 12.3828 316.367 12.6016 315.398 12.6016C314.648 12.6016 313.961 12.4766 313.336 12.2266C312.711 11.9609 312.172 11.6016 311.719 11.1484C311.281 10.6797 310.938 10.1328 310.688 9.50781C310.438 8.86719 310.312 8.17188 310.312 7.42188C310.312 6.625 310.438 5.89844 310.688 5.24219C310.938 4.58594 311.289 4.02344 311.742 3.55469C312.211 3.07031 312.773 2.69531 313.43 2.42969C314.086 2.16406 314.812 2.03125 315.609 2.03125C316.812 2.03125 317.797 2.26562 318.562 2.73438C319.328 3.20312 319.93 3.82031 320.367 4.58594C320.805 5.35156 321.102 6.22656 321.258 7.21094C321.43 8.17969 321.516 9.17969 321.516 10.2109C321.516 11.3359 321.391 12.4297 321.141 13.4922C320.906 14.5547 320.508 15.5078 319.945 16.3516C319.383 17.1797 318.648 17.8516 317.742 18.3672C316.836 18.8672 315.719 19.1172 314.391 19.1172C313.734 19.1172 313.117 19.0312 312.539 18.8594C311.977 18.6875 311.516 18.5391 311.156 18.4141L311.414 16.9609C311.758 17.1172 312.273 17.2891 312.961 17.4766C313.664 17.6484 314.414 17.7109 315.211 17.6641ZM315.633 3.4375C315.023 3.4375 314.484 3.54687 314.016 3.76562C313.562 3.96875 313.188 4.25781 312.891 4.63281C312.594 5.00781 312.367 5.44531 312.211 5.94531C312.07 6.44531 312 6.98438 312 7.5625C312 8.65625 312.312 9.54688 312.938 10.2344C313.578 10.9219 314.445 11.2656 315.539 11.2656C316.117 11.2656 316.648 11.1719 317.133 10.9844C317.633 10.7812 318.055 10.5078 318.398 10.1641C318.758 9.82031 319.039 9.40625 319.242 8.92188C319.445 8.4375 319.547 7.90625 319.547 7.32812C319.547 6.76562 319.445 6.25 319.242 5.78125C319.055 5.29688 318.789 4.88281 318.445 4.53906C318.102 4.19531 317.688 3.92969 317.203 3.74219C316.734 3.53906 316.211 3.4375 315.633 3.4375ZM334.688 2.35938V3.76562L328.219 19H326.391L333.047 3.8125H324.094V2.35938H334.688Z" fill="#666666"/>
    <path d="M2.05078 31.1836L6.79688 27.2285H8.49609V48H6.5918V29.5723L3.19336 32.5312L2.05078 31.1836ZM21.416 28.5469C20.6738 28.5469 20.0391 28.6934 19.5117 28.9863C19.0039 29.2793 18.5645 29.6797 18.1934 30.1875C17.8418 30.6758 17.5586 31.2324 17.3438 31.8574C17.1484 32.4824 16.9922 33.127 16.875 33.791C16.7578 34.4355 16.6797 35.0801 16.6406 35.7246C16.6211 36.3691 16.6113 36.9453 16.6113 37.4531C16.6113 38.2344 16.6504 39.1328 16.7285 40.1484C16.8262 41.1641 17.0312 42.1309 17.3438 43.0488C17.6758 43.9668 18.1543 44.748 18.7793 45.3926C19.4238 46.0176 20.3027 46.3301 21.416 46.3301C22.5098 46.3301 23.3789 46.0176 24.0234 45.3926C24.668 44.748 25.1465 43.9668 25.459 43.0488C25.791 42.1309 25.9961 41.1641 26.0742 40.1484C26.1719 39.1328 26.2207 38.2344 26.2207 37.4531C26.2207 36.9453 26.2012 36.3691 26.1621 35.7246C26.1426 35.0801 26.0742 34.4355 25.957 33.791C25.8398 33.127 25.6738 32.4824 25.459 31.8574C25.2441 31.2324 24.9609 30.6758 24.6094 30.1875C24.2578 29.6797 23.8184 29.2793 23.291 28.9863C22.7637 28.6934 22.1387 28.5469 21.416 28.5469ZM21.416 26.7891C22.8223 26.7891 23.9746 27.1016 24.873 27.7266C25.7715 28.332 26.4746 29.1328 26.9824 30.1289C27.4902 31.125 27.832 32.2676 28.0078 33.5566C28.2031 34.8262 28.3008 36.125 28.3008 37.4531C28.3008 38.7812 28.2031 40.0801 28.0078 41.3496C27.832 42.6191 27.4902 43.7617 26.9824 44.7773C26.4746 45.793 25.7715 46.6133 24.873 47.2383C23.9746 47.8438 22.8223 48.1465 21.416 48.1465C19.9902 48.1465 18.8281 47.8438 17.9297 47.2383C17.0312 46.6133 16.3281 45.793 15.8203 44.7773C15.3125 43.7617 14.9609 42.6191 14.7656 41.3496C14.5898 40.0801 14.502 38.7812 14.502 37.4531C14.502 36.125 14.5898 34.8262 14.7656 33.5566C14.9609 32.2676 15.3125 31.125 15.8203 30.1289C16.3281 29.1328 17.0312 28.332 17.9297 27.7266C18.8281 27.1016 19.9902 26.7891 21.416 26.7891ZM38.7305 28.5469C37.9883 28.5469 37.3535 28.6934 36.8262 28.9863C36.3184 29.2793 35.8789 29.6797 35.5078 30.1875C35.1562 30.6758 34.873 31.2324 34.6582 31.8574C34.4629 32.4824 34.3066 33.127 34.1895 33.791C34.0723 34.4355 33.9941 35.0801 33.9551 35.7246C33.9355 36.3691 33.9258 36.9453 33.9258 37.4531C33.9258 38.2344 33.9648 39.1328 34.043 40.1484C34.1406 41.1641 34.3457 42.1309 34.6582 43.0488C34.9902 43.9668 35.4688 44.748 36.0938 45.3926C36.7383 46.0176 37.6172 46.3301 38.7305 46.3301C39.8242 46.3301 40.6934 46.0176 41.3379 45.3926C41.9824 44.748 42.4609 43.9668 42.7734 43.0488C43.1055 42.1309 43.3105 41.1641 43.3887 40.1484C43.4863 39.1328 43.5352 38.2344 43.5352 37.4531C43.5352 36.9453 43.5156 36.3691 43.4766 35.7246C43.457 35.0801 43.3887 34.4355 43.2715 33.791C43.1543 33.127 42.9883 32.4824 42.7734 31.8574C42.5586 31.2324 42.2754 30.6758 41.9238 30.1875C41.5723 29.6797 41.1328 29.2793 40.6055 28.9863C40.0781 28.6934 39.4531 28.5469 38.7305 28.5469ZM38.7305 26.7891C40.1367 26.7891 41.2891 27.1016 42.1875 27.7266C43.0859 28.332 43.7891 29.1328 44.2969 30.1289C44.8047 31.125 45.1465 32.2676 45.3223 33.5566C45.5176 34.8262 45.6152 36.125 45.6152 37.4531C45.6152 38.7812 45.5176 40.0801 45.3223 41.3496C45.1465 42.6191 44.8047 43.7617 44.2969 44.7773C43.7891 45.793 43.0859 46.6133 42.1875 47.2383C41.2891 47.8438 40.1367 48.1465 38.7305 48.1465C37.3047 48.1465 36.1426 47.8438 35.2441 47.2383C34.3457 46.6133 33.6426 45.793 33.1348 44.7773C32.627 43.7617 32.2754 42.6191 32.0801 41.3496C31.9043 40.0801 31.8164 38.7812 31.8164 37.4531C31.8164 36.125 31.9043 34.8262 32.0801 33.5566C32.2754 32.2676 32.627 31.125 33.1348 30.1289C33.6426 29.1328 34.3457 28.332 35.2441 27.7266C36.1426 27.1016 37.3047 26.7891 38.7305 26.7891ZM52.8809 50.7832V42.082H70.8105V50.7832H52.8809ZM63.5156 39.2695C61.9141 38.5469 60.7031 37.8438 59.8828 37.1602C59.0625 36.457 58.457 35.8418 58.0664 35.3145C57.7344 34.8652 57.5098 34.4844 57.3926 34.1719C57.2754 33.8398 57.1973 33.5371 57.1582 33.2637H56.6602C56.6211 33.5371 56.543 33.8594 56.4258 34.2305C56.3086 34.6016 56.1328 34.9824 55.8984 35.373C55.6641 35.7832 55.3809 36.1934 55.0488 36.6035C54.7363 37.0137 54.3457 37.4336 53.877 37.8633C53.4277 38.2734 52.8809 38.7031 52.2363 39.1523C51.5918 39.6016 50.8203 40.0605 49.9219 40.5293L48.5449 39.0938C50.2246 38.2539 51.5527 37.3652 52.5293 36.4277C53.5059 35.4707 54.2383 34.5137 54.7266 33.5566C55.2344 32.5996 55.5469 31.6816 55.6641 30.8027C55.8008 29.9043 55.8691 29.0938 55.8691 28.3711V28.2246H49.4531V26.4961H64.1016V28.2246H57.8906V28.3711C57.8906 29.0742 57.9492 29.8359 58.0664 30.6562C58.2031 31.4766 58.5059 32.3066 58.9746 33.1465C59.4629 33.9668 60.166 34.7773 61.084 35.5781C62.0215 36.3594 63.291 37.0625 64.8926 37.6875L63.5156 39.2695ZM68.7891 43.8105H54.9023V49.0547H68.7891V43.8105ZM68.7891 40.207V33.1465H62.5195V31.4766H68.7891V25.0312H70.8105V40.207H68.7891Z" fill="#666666"/>
    <line x1="60" y1="436.5" x2="415" y2="436.5" stroke="#666666"/>
    <path d="M37.6719 425.547C36.9297 425.547 36.2949 425.693 35.7676 425.986C35.2598 426.279 34.8203 426.68 34.4492 427.188C34.0977 427.676 33.8145 428.232 33.5996 428.857C33.4043 429.482 33.248 430.127 33.1309 430.791C33.0137 431.436 32.9355 432.08 32.8965 432.725C32.877 433.369 32.8672 433.945 32.8672 434.453C32.8672 435.234 32.9062 436.133 32.9844 437.148C33.082 438.164 33.2871 439.131 33.5996 440.049C33.9316 440.967 34.4102 441.748 35.0352 442.393C35.6797 443.018 36.5586 443.33 37.6719 443.33C38.7656 443.33 39.6348 443.018 40.2793 442.393C40.9238 441.748 41.4023 440.967 41.7148 440.049C42.0469 439.131 42.252 438.164 42.3301 437.148C42.4277 436.133 42.4766 435.234 42.4766 434.453C42.4766 433.945 42.457 433.369 42.418 432.725C42.3984 432.08 42.3301 431.436 42.2129 430.791C42.0957 430.127 41.9297 429.482 41.7148 428.857C41.5 428.232 41.2168 427.676 40.8652 427.188C40.5137 426.68 40.0742 426.279 39.5469 425.986C39.0195 425.693 38.3945 425.547 37.6719 425.547ZM37.6719 423.789C39.0781 423.789 40.2305 424.102 41.1289 424.727C42.0273 425.332 42.7305 426.133 43.2383 427.129C43.7461 428.125 44.0879 429.268 44.2637 430.557C44.459 431.826 44.5566 433.125 44.5566 434.453C44.5566 435.781 44.459 437.08 44.2637 438.35C44.0879 439.619 43.7461 440.762 43.2383 441.777C42.7305 442.793 42.0273 443.613 41.1289 444.238C40.2305 444.844 39.0781 445.146 37.6719 445.146C36.2461 445.146 35.084 444.844 34.1855 444.238C33.2871 443.613 32.584 442.793 32.0762 441.777C31.5684 440.762 31.2168 439.619 31.0215 438.35C30.8457 437.08 30.7578 435.781 30.7578 434.453C30.7578 433.125 30.8457 431.826 31.0215 430.557C31.2168 429.268 31.5684 428.125 32.0762 427.129C32.584 426.133 33.2871 425.332 34.1855 424.727C35.084 424.102 36.2461 423.789 37.6719 423.789Z" fill="#666666"/>
    <path d="M290 44C290 38.4772 294.477 34 300 34H345C350.523 34 355 38.4772 355 44V436H290V44Z" fill="#E66787"/>
</svg>
